<svg xmlns="http://www.w3.org/2000/svg" viewBox="0 0 26 26" enable-background="new 0 0 26 26">    <path style="text-indent:0;text-align:start;line-height:normal;text-transform:none;block-progression:tb;-inkscape-font-specification:Bitstream Vera Sans" d="M 23.75 0.9375 C 23.3875 0.9375 22.9875 1.0625 22.6875 1.3125 L 13.40625 9.0625 C 13.172108 9.1434741 12.955386 9.2806008 12.75 9.46875 C 12.73061 9.486512 12.70647 9.481025 12.6875 9.5 L 8.125 13.5625 L 7.34375 14.25 L 8.09375 15 L 11 17.90625 L 11.75 18.6875 L 12.46875 17.84375 L 16.3125 13.3125 L 16.46875 13.15625 L 16.40625 13.09375 C 16.421685 13.077357 16.422495 13.048058 16.4375 13.03125 L 16.5 13.09375 L 24.6875 3.3125 C 25.1875 2.7125 25.1875 1.8125 24.6875 1.3125 C 24.4375 1.0625 24.1125 0.9375 23.75 0.9375 z M 14 11 L 14.90625 11.90625 L 11.625 15.71875 L 10.25 14.34375 L 14 11 z M 6.40625 15.09375 L 1.6875 17.5 C 1.2875 17.7 1 18.00625 1 18.40625 C 1 18.80625 0.99375 19.4 1.09375 20 L 5.1875 17.40625 L 1.1875 20.40625 C 1.3875 21.30625 1.9125 22.29375 2.8125 23.09375 C 3.3125 23.59375 3.8125 23.8875 4.3125 24.1875 L 5.90625 22.59375 L 5 24.5 C 6 25 6.99375 25 7.59375 25 C 7.99375 25 8.4 24.70625 8.5 24.40625 L 10.90625 19.59375 L 6.40625 15.09375 z" color="#000" overflow="visible" enable-background="accumulate" font-family="Bitstream Vera Sans"></path></svg>