<svg xmlns="http://www.w3.org/2000/svg" width="24" height="24" viewBox="0 0 24 24">    <path style="text-indent:0;text-align:start;line-height:normal;text-transform:none;block-progression:tb;-inkscape-font-specification:Bitstream Vera Sans" d="M 20 0.09375 L 18.90625 1.40625 L 18 0.40625 L 17.40625 2.1875 L 16.3125 1.90625 L 16 3.59375 L 14.90625 3.3125 L 14.59375 5.09375 L 13.5 4.8125 L 13.1875 6.59375 L 12.09375 6.3125 L 11.59375 8 L 12.5 8.90625 L 18.40625 3 C 19.20625 2.2 20.5125 2.2 21.3125 3 C 22.1125 3.8 22.1125 5.10625 21.3125 5.90625 L 15.40625 11.8125 L 16.3125 12.6875 L 17.59375 12.5 L 17.59375 11 L 19.09375 11 L 19.09375 9.5 L 20.59375 9.5 L 20.59375 8 L 22.09375 8 L 22.09375 6.5 L 23.40625 6.5 L 22.90625 5.1875 L 23.90625 4.8125 L 22.3125 3.8125 L 23.40625 2.5 L 21.6875 2.5 L 22.09375 1 L 20.5 1.40625 L 20 0.09375 z M 3.625 6.96875 C 3.2710468 6.9595723 2.898144 7.0426719 2.5625 7.1875 A 0.80008001 0.80008001 0 0 0 2.25 7.34375 A 0.80008001 0.80008001 0 0 0 1.9375 7.625 C 1.1418131 8.4125018 0.94685457 9.6257455 1.5 10.59375 A 0.80008001 0.80008001 0 0 0 1.625 10.78125 C 1.5085786 10.664829 1.62015 10.74646 1.6875 10.84375 C 1.754852 10.94104 1.8629413 11.088987 1.96875 11.25 C 2.1803673 11.572026 2.4261229 11.995515 2.6875 12.40625 C 3.0006288 12.89831 3.1158244 13.064654 3.3125 13.375 L 3 13.6875 C 2.4 14.2875 2.4 15.30625 3 15.90625 L 9.1875 22.09375 L 15.40625 15.90625 C 16.00625 15.30625 16.00625 14.2875 15.40625 13.6875 L 9.1875 7.5 C 9.1875 7.5 8.4 8.1875 7.5 9.1875 C 7.8 9.5875 8.10625 10.1 8.40625 10.5 C 9.40625 12 10.4 13.39375 10.5 13.59375 C 11 14.29375 10.8125 15.2125 10.3125 15.8125 C 10.2125 15.9125 10.1 16 10 16 C 9.2 16.5 8.09375 16.3 7.59375 15.5 C 7.49375 15.3 6.49375 13.9 5.59375 12.5 C 5.29375 12.3 5.2 11.9875 5 11.6875 L 4.46875 12.21875 C 4.2937294 11.936652 4.2782406 11.870271 4.0625 11.53125 C 3.7988771 11.116985 3.5008827 10.709224 3.28125 10.375 C 3.1714337 10.207888 3.0803045 10.053495 3 9.9375 C 2.9671237 9.890012 2.9286016 9.8467035 2.90625 9.8125 C 2.7260777 9.4971985 2.8081347 8.9049038 3.15625 8.65625 A 0.80008001 0.80008001 0 0 0 3.21875 8.625 C 3.5468957 8.5256317 4.0303558 8.6612482 4.25 8.96875 C 4.25784 8.979995 4.271961 9.015234 4.28125 9.03125 C 4.322205 9.101865 4.346602 9.1545431 4.40625 9.25 C 4.5255456 9.4409139 4.6865315 9.7121715 4.875 10 C 5.2519371 10.575657 5.7547825 11.297827 6.25 12.03125 C 6.7452175 12.764673 7.2365249 13.50102 7.625 14.0625 C 7.8192376 14.34324 7.997879 14.571708 8.125 14.75 C 8.18856 14.83915 8.2364859 14.908736 8.28125 14.96875 C 8.326014 15.02876 8.318934 15.03768 8.4375 15.15625 A 0.80008001 0.80008001 0 1 0 9.5625 14.03125 C 9.529578 13.98711 9.497182 13.927456 9.4375 13.84375 C 9.3181367 13.676339 9.1291999 13.433322 8.9375 13.15625 C 8.5541001 12.602105 8.0547825 11.854077 7.5625 11.125 C 7.0702175 10.395923 6.5886879 9.689968 6.21875 9.125 C 6.033781 8.842516 5.8896888 8.5797893 5.78125 8.40625 C 5.7332867 8.3294922 5.6824635 8.2945357 5.65625 8.25 C 5.6288065 8.1676689 5.6213632 8.1490389 5.625 8.15625 A 0.80008001 0.80008001 0 0 0 5.5625 8.03125 C 5.1868269 7.5053076 4.6449689 7.1596439 4.0625 7.03125 C 3.9168828 6.9991515 3.7739947 6.9726133 3.625 6.96875 z M 1.59375 16.59375 L 1.1875 17 L 1.15625 17.03125 C -0.3941195 18.616493 -0.39450834 21.196256 1.15625 22.78125 L 1.1875 22.8125 C 2.7803371 24.405337 5.4071629 24.405337 7 22.8125 L 7.40625 22.40625 L 6 21 L 5.59375 21.40625 C 4.7865871 22.213413 3.4009129 22.213413 2.59375 21.40625 C 1.7865871 20.599087 1.7865871 19.213413 2.59375 18.40625 L 3 18 L 1.59375 16.59375 z" color="#000" overflow="visible" enable-background="accumulate" font-family="Bitstream Vera Sans"></path></svg>