<svg xmlns="http://www.w3.org/2000/svg" width="50" height="50" viewBox="0 0 50 50">    <path d="M 44.40625 1 C 41.88425 1 35.6365 3.59425 30.9375 8.28125 C 28.7985 10.41625 28.03775 12.79125 27.46875 14.53125 C 27.19975 15.35225 26.9235 16.135 26.6875 16.375 C 26.4195 16.548 25.2945 16.599 24.6875 16.625 C 23.4515 16.679 22.4945 16.72525 21.9375 17.28125 C 21.1205 18.09625 20.97 18.9005 21 19.4375 C 21.061 20.5475 21.86475 21.302 22.09375 21.5 L 28.4375 27.8125 C 28.6735 28.1485 29.36925 29 30.53125 29 C 31.26625 29 31.97825 28.64475 32.65625 27.96875 C 33.22025 27.40575 33.24225 26.47825 33.28125 25.28125 C 33.30125 24.66225 33.34425 23.503 33.53125 23.25 C 34.03025 22.752 35.174 22.321 36.375 21.875 C 38.169 21.209 40.2065 20.478 41.6875 19 C 46.3995 14.301 48.999 8.0725 49 5.5625 C 49 4.8905 48.846 4.37625 48.5 4.03125 L 45.96875 1.53125 C 45.61875 1.18325 45.09525 1 44.40625 1 z M 20.6875 22.9375 L 20.34375 23.25 C 20.15575 23.438 20.0625 23.70375 20.0625 23.96875 C 20.0625 24.23375 20.15575 24.5005 20.34375 24.6875 L 25.3125 29.65625 C 25.5005 29.84425 25.76625 29.9375 26.03125 29.9375 C 26.29725 29.9375 26.563 29.84425 26.75 29.65625 L 27.0625 29.34375 C 27.0075 29.27675 26.95225 29.185 26.90625 29.125 L 20.71875 22.96875 C 20.70875 22.95975 20.6985 22.9475 20.6875 22.9375 z M 19.4375 26.59375 L 7.875 38.15625 L 4.625 39.5625 L 1.5 44.5625 C 1.232 44.8745 1.0625 45.2715 1.0625 45.6875 C 1.0625 46.1475 1.26975 46.552 1.59375 46.875 L 3.09375 48.40625 C 3.41875 48.73125 3.8515 48.9375 4.3125 48.9375 C 4.7275 48.9375 5.1255 48.765 5.4375 48.5 L 10.4375 45.34375 L 11.875 42.09375 L 23.40625 30.5625 L 19.4375 26.59375 z"></path></svg>