<?xml version="1.0" encoding="utf-8"?>
<!-- Generator: Adobe Illustrator 16.0.0, SVG Export Plug-In . SVG Version: 6.00 Build 0)  -->
<!DOCTYPE svg PUBLIC "-//W3C//DTD SVG 1.1//EN" "http://www.w3.org/Graphics/SVG/1.1/DTD/svg11.dtd">
<svg version="1.1" id="Layer_1" xmlns="http://www.w3.org/2000/svg" xmlns:xlink="http://www.w3.org/1999/xlink" x="0px" y="0px"
	 width="50px" height="50px" viewBox="0 0 50 50" enable-background="new 0 0 50 50" xml:space="preserve">
<path fill="#F5F9FF" d="M42,4c-2.047,0-3.703,1.546-3.938,3.531c-2.594,0.501-4.328,2.383-5.5,4.406C30.202,10.715,27.639,10,25,10
	c-2.638,0-5.202,0.715-7.562,1.938c-0.643-0.917-1.482-1.551-2.406-1.906c-0.93-0.357-1.971-0.447-3.094-0.531
	C11.69,7.53,10.036,6,8,6c-2.206,0-4,1.794-4,4s1.794,4,4,4c1.689,0,3.133-1.048,3.719-2.531c1.076,0.087,1.973,0.199,2.594,0.438
	c0.567,0.218,0.99,0.52,1.375,1.062C10.048,16.692,6,23.457,6,30.688C6,40.125,13.28,46,25,46c11.721,0,19-5.875,19-15.312
	c0-7.247-4.061-14.031-9.719-17.75c0.957-1.691,2.197-3.046,4.031-3.438C38.907,10.964,40.324,12,42,12c2.206,0,4-1.794,4-4
	S44.206,4,42,4z M25,20c3.866,0,7,3.134,7,7s-3.134,7-7,7s-7-3.134-7-7S21.134,20,25,20z M25,24c-1.7,0-3,1.3-3,3s1.3,3,3,3
	s3-1.3,3-3v-0.188C27.8,26.912,27.605,27,27.406,27c-0.7,0-1.219-0.486-1.219-1.188c0-0.5,0.317-0.925,0.719-1.125
	C26.406,24.288,25.7,24,25,24z M32.312,37.188c0.389-0.033,0.773,0.166,0.969,0.531c0.258,0.489,0.082,1.116-0.406,1.375
	C32.729,39.172,29.2,41,25,41s-7.727-1.828-7.875-1.906c-0.488-0.258-0.663-0.886-0.406-1.375c0.258-0.486,0.855-0.662,1.344-0.406
	C18.095,37.33,21.312,39,25,39c3.709,0,6.904-1.67,6.938-1.688C32.061,37.248,32.184,37.199,32.312,37.188z"/>
</svg>
