<?xml version="1.0" encoding="utf-8"?>
<!-- Generator: Adobe Illustrator 16.0.0, SVG Export Plug-In . SVG Version: 6.00 Build 0)  -->
<!DOCTYPE svg PUBLIC "-//W3C//DTD SVG 1.1//EN" "http://www.w3.org/Graphics/SVG/1.1/DTD/svg11.dtd">
<svg version="1.1" id="Layer_1" xmlns="http://www.w3.org/2000/svg" xmlns:xlink="http://www.w3.org/1999/xlink" x="0px" y="0px"
	 width="50px" height="50px" viewBox="0 0 50 50" enable-background="new 0 0 50 50" xml:space="preserve">
<path fill="#F5F9FF" d="M38.844-0.062c-1.787,0.096-3.174,1.126-3.812,2.812c-4.88,4.745-11.675,9.178-17.375,11.5
	c0.389,0.027,0.743,0.054,1.031,0.062c0.257,0.008,0.438,0,0.438,0c0.552,0,1,0.448,1,1s-0.448,1-1,1c0,0-0.363,0.004-0.5,0
	c-0.031-0.001-3.1-0.104-4.656-0.562c-0.095-0.028-0.196-0.125-0.344-0.188c-3.48-1.55-5.818-0.834-7.188,0.062
	c-2.061,1.35-3.318,4.119-3.25,7.094c-0.13,0.284-0.308,0.648-0.531,1.062c-1.012,1.885-2.562,4.714-2.562,8.094
	c-0.038,2.86,0.361,10.021,4.844,14.562C7.271,48.801,10.296,50,13.906,50c8.233,0,12.254-4.564,15.188-7.906
	c0.701-0.799,1.35-1.576,2-2.188c1.893-1.836,5.563-3.213,8.812-4.438c2.128-0.803,4.143-1.561,5.594-2.405
	c3.939-2.34,5.369-6.235,3.719-10.155c-0.141-0.332-0.455-0.552-0.812-0.594c-0.88-0.104-1.662-0.028-2.407,0.188
	c-0.252-0.239-0.559-0.479-0.906-0.688c-0.412,0.083-0.33,0.375-0.125,1.094c-0.781,0.37-1.486,0.871-2.125,1.406
	c-0.281-0.241-0.585-0.507-0.938-0.719c-0.336,0.167-0.213,0.618,0,1.594c-0.277,0.267-0.564,0.531-0.812,0.781
	c-0.436,0.438-0.859,0.829-1.219,1.125c-0.297-0.354-0.68-0.729-1.188-1.094c-0.566,0.094-0.404,0.486-0.221,1.779
	c-1.023,0.381-1.982,0.672-2.875,0.875c-0.244-0.203-0.501-0.443-0.779-0.654c-0.432,0.086-0.42,0.334-0.346,0.904
	c-0.521,0.1-1.061,0.169-1.594,0.25c-0.281-0.323-0.736-0.898-1.471-1.469c-0.559,0.094-0.432,0.49-0.25,1.75
	c-0.543,0.086-1.049,0.166-1.654,0.281c-0.271,0.057-0.521,0.127-0.781,0.188L28.5,29.688c-0.25,0.062-0.34,0.181-0.375,0.346
	c-3.716,0.936-6.168,2.299-8.188,3.404c-1.841,1.013-3.296,1.81-5.094,1.971c2.134-1.281,3.723-3.074,5.094-4.596
	c1.126-1.248,2.129-2.328,3.156-2.904c0.466,0.857,0.566,1.254,1,0.904c0.14-0.559,0.203-1.041,0.25-1.469
	c0.834-0.336,1.654-0.684,2.438-1.094c0.514,0.922,0.687,1.293,1.219,0.938c0.156-0.623,0.247-1.256,0.281-1.812
	C29.25,24.785,30.15,24.157,31,23.47c0.43,0.875,0.568,1.194,1.094,0.844c0.15-0.75,0.213-1.436,0.25-2.031
	c0.736-0.696,1.405-1.401,2-2.156c1.16,1.095,1.49,1.638,1.969,0.969c-0.076-1.438-0.391-2.503-0.562-3.062
	c0.287-0.508,0.565-1.012,0.781-1.531c0.149-0.357,0.37-0.694,0.625-1c0.938,1.059,1.186,1.564,1.655,1
	c0.08-0.938-0.026-1.75-0.125-2.375c0.205-0.158,0.408-0.336,0.625-0.5c0.345-0.259,0.703-0.526,1.062-0.812
	c0.744,0.856,0.992,1.226,1.438,0.781c0.08-0.785,0.01-1.466-0.062-2.031c0.525-0.53,1.025-1.141,1.471-1.844
	c0.336,0.451,0.545,0.61,0.875,0.281c0.053-0.692,0.006-1.313-0.062-1.812c0.475-1.16,0.792-2.55,0.875-4.25
	c0.008-0.157-0.029-0.293-0.094-0.438C43.863,1.386,41.275-0.184,38.844-0.062z M39.188,3.281c0.105-0.019,0.199,0.006,0.312,0.031
	c0.9,0.2,1.594,0.781,1.594,0.781s-0.781,0.819-1.781,1.219c-1.1,0.5-1.904-0.112-1.404-0.812C37.906,4.5,38.45,3.415,39.188,3.281z
	 M9.969,18.594c1.261-0.099,2.156,0.362,2.531,0.812c0.2,0.3-0.288,1.506-0.688,2.406c-1.3-1.3-3-1.906-3-1.906s1.494,3.4,1.094,3.5
	c-1,0.2-2.006-0.119-2.406-0.719c-0.6-0.7-0.306-3.281,1.094-3.781C9.094,18.731,9.548,18.626,9.969,18.594z"/>
</svg>
