<?xml version="1.0" encoding="utf-8"?>
<!-- Generator: Adobe Illustrator 16.0.0, SVG Export Plug-In . SVG Version: 6.00 Build 0)  -->
<!DOCTYPE svg PUBLIC "-//W3C//DTD SVG 1.1//EN" "http://www.w3.org/Graphics/SVG/1.1/DTD/svg11.dtd">
<svg version="1.1" id="Layer_1" xmlns="http://www.w3.org/2000/svg" xmlns:xlink="http://www.w3.org/1999/xlink" x="0px" y="0px"
	 width="26px" height="26px" viewBox="0 0 26 26" enable-background="new 0 0 26 26" xml:space="preserve">
<path fill="#F5F9FF" d="M13.963,9.264c0,0,1.038-0.119,1.344,0.385c0.364,0.6-0.514,1.389-0.514,1.389L13.963,9.264z M24.83,11.863
	c-0.725,0.199-1.061,0.717-1.211,2.253c-0.145,1.534,2.164,4.177,2.164,5.885c0.002,2.3-0.811,3.476-1.934,4.457
	c-1.129,0.987-1.619,1.24-3.104,1.412c-5.295,0.616-7.069-5.949-7.069-5.949S7.992,4.779,7.49,3.642
	c-0.495-1.138-0.807,0.21-0.807,0.21s-0.371,1.609-1.06,2.299C5.061,6.715,4.741,6.907,4.741,6.907L4.045,5.07
	c1.813-1.39,0.57-3.055,2.241-4.515c1.406-1.23,3.413-0.168,4.231,1.432c0.717,1.392,1.591,3.327,1.808,3.809
	c-0.252,0.032-0.503,0.1-0.725,0.206c-0.719,0.345-0.786,0.928-0.521,1.481c0.264,0.553,0.757,0.867,1.479,0.521
	c0.209-0.1,0.419-0.251,0.601-0.423l0.788,1.673c-0.249,0.032-0.5,0.1-0.722,0.205c-0.718,0.344-0.784,0.928-0.519,1.48
	c0.265,0.553,0.758,0.868,1.479,0.521c0.209-0.1,0.416-0.25,0.602-0.421l0.883,1.88c-0.253,0.031-0.505,0.098-0.729,0.206
	c-0.719,0.344-0.784,0.927-0.521,1.48c0.266,0.554,0.76,0.867,1.479,0.521c0.213-0.103,0.422-0.255,0.604-0.428l-0.828-1.771
	c0,0,1.039-0.119,1.348,0.386c0.365,0.598-0.508,1.384-0.515,1.388l2.485,5.289c0.029,0.887,0.771,1.396,1.229,1.338
	c1.02-0.128,1.221-1.227,0.461-2.406c-1.441-2.238-1.939-3.706-2.226-4.729c-0.5-1.828,0.306-3.412-1.038-4.672
	c-1.27-1.187-0.456-1.472,0.365-1.199c0.82,0.278,6.141,1.93,7.26,2.221C26.126,10.825,26.208,11.487,24.83,11.863z M21.814,15.314
	c0.406-0.354,0.447-0.978,0.093-1.381c-0.358-0.408-0.978-0.45-1.384-0.096c-0.406,0.354-0.448,0.979-0.094,1.385
	C20.786,15.631,21.408,15.672,21.814,15.314z M23.273,17.087c-0.357-0.405-0.979-0.448-1.383-0.092
	c-0.41,0.356-0.449,0.978-0.097,1.384c0.354,0.403,0.976,0.447,1.386,0.09C23.585,18.115,23.63,17.494,23.273,17.087z M0.792,5.549
	c-0.403,0.522-0.59,0.674-0.753,0.939c0,0,1.069,1.667,3.363,0.992C3.372,7.307,2.84,5.696,2.84,5.696S1.871,6.007,0.792,5.549z
	 M13.68,6.191c-0.305-0.504-1.344-0.385-1.344-0.385l0.829,1.774C13.165,7.58,14.044,6.792,13.68,6.191z"/>
</svg>
