<?xml version="1.0" encoding="utf-8"?>
<!-- Generator: Adobe Illustrator 16.0.0, SVG Export Plug-In . SVG Version: 6.00 Build 0)  -->
<!DOCTYPE svg PUBLIC "-//W3C//DTD SVG 1.1//EN" "http://www.w3.org/Graphics/SVG/1.1/DTD/svg11.dtd">
<svg version="1.1" id="Layer_1" xmlns="http://www.w3.org/2000/svg" xmlns:xlink="http://www.w3.org/1999/xlink" x="0px" y="0px"
	 width="26px" height="26px" viewBox="0 0 26 26" enable-background="new 0 0 26 26" xml:space="preserve">
<path fill="#F5F9FF" d="M5.344,0C5.08,0.082,4.932,0.361,5.013,0.625c0.018,0.056,0.045,0.109,0.081,0.156l2,3
	C7.197,3.936,7.378,4.02,7.562,4l2.062-0.25C9.236,4.448,9,5.221,9,6c0,1.788,1.187,2.646,2.812,2.906C10.187,9.195,9,10.131,9,12
	c0,1.93,1.261,3.582,2.969,4.062C9.672,16.329,8,17.544,8,19.906C8,22.605,10.2,26,13,26s5-3.494,5-6.094
	c0-2.275-1.672-3.561-3.969-3.844C15.738,15.582,17,13.93,17,12c0-1.869-1.188-2.805-2.812-3.094C15.812,8.646,17,7.788,17,6
	c0-0.779-0.236-1.552-0.625-2.25L18.438,4c0.186,0.02,0.365-0.064,0.47-0.219l2-3c0.159-0.225,0.106-0.537-0.117-0.697
	C20.678,0.005,20.54-0.025,20.406,0c-0.129,0.029-0.241,0.107-0.312,0.219l-1.844,2.75l-2.344-0.281C15.561,1.048,14,0,14,0v1.688
	C13.68,1.583,13.346,1.5,13,1.5s-0.679,0.083-1,0.188V0c0,0-1.56,1.048-1.906,2.688L7.75,2.969l-1.844-2.75
	C5.797,0.053,5.602-0.032,5.406,0C5.385-0.001,5.365-0.001,5.344,0z M3,3.219C2.903,3.222,2.788,3.263,2.688,3.312
	c-0.4,0.2-0.575,0.6-0.375,1l2,5c0.1,0.3,0.388,0.5,0.688,0.5l3.312,0.281H8.5c0.2-0.5,0.513-1.006,0.812-1.406L9.188,8.594H8.5
	H8.406L5.594,8.312L3.688,3.688C3.538,3.388,3.291,3.209,3,3.219z M23.188,3.312c-0.313-0.009-0.611,0.2-0.688,0.5l-1.812,4.5
	l-2.875,0.281c-0.299-0.1-0.312-0.1-0.312,0L17,8.688l-0.094,0.125c0.3,0.4,0.58,0.875,0.781,1.375h0.219l3.281-0.281
	c0.299,0,0.619-0.2,0.719-0.5l2-5c0.199-0.4-0.006-0.9-0.406-1C23.4,3.356,23.292,3.315,23.188,3.312z M2.812,11.188
	c-0.286,0.033-0.55,0.2-0.625,0.5l-2,3c-0.2,0.4,0.006,0.9,0.406,1c0.1,0,0.212,0.125,0.312,0.125c0.3,0,0.587-0.199,0.688-0.5
	l1.812-2.405l4.406,0.905h0.375h0.125C8.112,13.312,8,12.788,8,12.188H7.906l-4.812-1C2.994,11.163,2.908,11.177,2.812,11.188z
	 M22.812,11.188l-4.812,1h-0.094c0,0.6-0.112,1.125-0.312,1.625h0.094c0.101,0,0.308,0.101,0.406,0l4.312-0.905l1.781,2.405
	c0.1,0.301,0.418,0.5,0.719,0.5c0.1,0,0.182-0.024,0.281-0.125c0.5-0.1,0.699-0.6,0.5-1l-2-3
	C23.588,11.288,23.213,11.087,22.812,11.188z M9,14.906l-1.188,0.281c-0.1,0-0.219,0.125-0.219,0.125l-3,2
	c-0.2,0.1-0.281,0.274-0.281,0.375l-2,7c-0.1,0.399,0.1,0.899,0.5,1H3c0.3,0,0.712-0.193,0.812-0.595l1.875-6.688l2-1.312
	C8.087,16.494,8.7,15.9,9.5,15.5C9.3,15.3,9.2,15.105,9,14.906z M17,14.906c-0.1,0.199-0.3,0.394-0.5,0.594
	c0.8,0.4,1.312,0.986,1.812,1.688l2,1.312l1.875,6.688c0.1,0.4,0.412,0.625,0.812,0.625h0.188c0.399-0.1,0.699-0.6,0.5-1l-1.875-7
	c-0.101-0.199-0.213-0.307-0.312-0.405l-3-2c-0.1-0.101-0.188-0.095-0.188-0.095L17,14.906z"/>
</svg>
