<?xml version="1.0" encoding="utf-8"?>
<!-- Generator: Adobe Illustrator 16.0.0, SVG Export Plug-In . SVG Version: 6.00 Build 0)  -->
<!DOCTYPE svg PUBLIC "-//W3C//DTD SVG 1.1//EN" "http://www.w3.org/Graphics/SVG/1.1/DTD/svg11.dtd">
<svg version="1.1" id="Layer_1" xmlns="http://www.w3.org/2000/svg" xmlns:xlink="http://www.w3.org/1999/xlink" x="0px" y="0px"
	 width="50px" height="50px" viewBox="0 0 50 50" enable-background="new 0 0 50 50" xml:space="preserve">
<path fill="#F5F9FF" d="M24,0v8.25c0.327,0.183,0.654,0.359,0.969,0.562C24.981,8.82,24.988,8.836,25,8.844
	c0.326-0.212,0.661-0.405,1-0.594C28.607,6.79,31.568,6,34.594,6c0.885,0,1.744,0.093,2.594,0.219
	c1.127-2.546,1.304-5.005,1.312-5.156c0.018-0.275-0.123-0.549-0.312-0.75S37.713,0,37.438,0c-0.578,0-5.74,0.102-9.125,3.281
	C27.299,4.233,26.569,5.319,26,6.406V0H24z M15.406,8C6.914,8,0,14.768,0,23.094C0,38.064,14.494,50,20.188,50
	c1.668,0,3.293-0.385,4.812-1.156C26.52,49.615,28.145,50,29.812,50C35.982,50,50,39.83,50,23.094C50,14.768,43.086,8,34.594,8
	C31.088,8,27.718,9.179,25,11.312C22.282,9.179,18.912,8,15.406,8z M21,23.969c0.163,0,0.306,0.069,0.406,0.219
	C22.006,24.888,23,26.4,23,28s-1,3.112-1.5,3.812c-0.3,0.3-0.706,0.3-0.906,0C19.994,31.112,19,29.6,19,28s1-3.112,1.5-3.812
	C20.65,24.038,20.837,23.969,21,23.969z M30,23.969c0.162,0,0.307,0.069,0.406,0.219C31.006,24.888,32,26.4,32,28
	s-1,3.112-1.5,3.812c-0.3,0.3-0.706,0.3-0.906,0C28.994,31.112,28,29.6,28,28s1-3.112,1.5-3.812
	C29.65,24.038,29.838,23.969,30,23.969z"/>
</svg>
