<?xml version="1.0" encoding="utf-8"?>
<!-- Generator: Adobe Illustrator 16.0.0, SVG Export Plug-In . SVG Version: 6.00 Build 0)  -->
<!DOCTYPE svg PUBLIC "-//W3C//DTD SVG 1.1//EN" "http://www.w3.org/Graphics/SVG/1.1/DTD/svg11.dtd">
<svg version="1.1" id="Layer_1" xmlns="http://www.w3.org/2000/svg" xmlns:xlink="http://www.w3.org/1999/xlink" x="0px" y="0px"
	 width="200px" height="200px" viewBox="0 0 200 200" enable-background="new 0 0 200 200" xml:space="preserve">
<path fill="#F5F9FF" d="M44.711,0c-4.185,0.735-6.98,4.724-6.245,8.909c0.131,0.748,0.373,1.472,0.716,2.149l5.048,10.096
	C17.336,40.111,0,73.63,0,107.692c0,40.832,24.931,76.516,60.096,91.587c0.905,0.426,1.885,0.67,2.885,0.721h74.039
	c0.999-0.051,1.979-0.295,2.885-0.721C175.069,184.208,200,148.524,200,107.692c0-34.758-17.347-67.953-44.23-86.779l5.048-9.856
	c1.858-3.821,0.268-8.425-3.554-10.283c-1.064-0.518-2.234-0.783-3.418-0.775H46.154c-0.24-0.011-0.481-0.011-0.721,0
	C45.192-0.011,44.952-0.011,44.711,0z M58.654,15.385h82.692l-2.163,4.327c-1.801,3.662-0.429,8.092,3.125,10.096
	c8.79,5.127,16.356,12.547,22.837,21.154c-5.012-3.678-16.827-11.058-31.25-11.058c-19.23,0-35.481,9.375-56.25,9.375
	c-17.009,0.532-28.665-4.819-34.375-8.173c4.445-4.397,9.246-8.278,14.423-11.298c3.554-2.004,4.926-6.435,3.125-10.096
	L58.654,15.385z M41.827,42.548c4.325,6.251,14.758,17.548,35.817,17.548c32.308,0,33.942-9.375,56.25-9.375
	c19.963,0,32.205,2.238,33.173,2.404c10.882,15.46,17.548,34.938,17.548,54.567c0,34.05-20.734,63.979-49.52,76.923H64.904
	c-28.784-12.943-49.519-42.873-49.519-76.923C15.385,83.818,25.76,59.25,41.827,42.548z M126.202,69.952
	c-5.948,0-10.817,4.869-10.817,10.817s4.869,10.817,10.817,10.817c5.947,0,10.817-4.87,10.817-10.817S132.149,69.952,126.202,69.952
	z M157.692,100.721c-5.948,0-10.817,4.87-10.817,10.818c0,5.947,4.869,10.816,10.817,10.816s10.817-4.869,10.817-10.816
	C168.51,105.591,163.641,100.721,157.692,100.721z M38.461,108.414c0,0,7.692,12.355,7.692,22.355s-7.692,22.355-7.692,22.355
	c15.385,0,23.798-16.105,23.798-16.105c10,6.153,23.894,16.105,37.74,16.105c23.077,0,38.461-22.355,38.461-22.355
	S123.077,108.414,100,108.414c-13.846,0-27.74,9.951-37.74,16.105C62.26,124.52,53.846,108.414,38.461,108.414z M111.539,120.673
	c3.076,0,6.25,3.173,6.25,6.25s-3.174,6.25-6.25,6.25c-3.078,0-6.25-2.403-6.25-6.25
	C105.289,123.846,108.461,120.673,111.539,120.673z"/>
</svg>
