<?xml version="1.0" encoding="utf-8"?>
<!-- Generator: Adobe Illustrator 16.0.0, SVG Export Plug-In . SVG Version: 6.00 Build 0)  -->
<!DOCTYPE svg PUBLIC "-//W3C//DTD SVG 1.1//EN" "http://www.w3.org/Graphics/SVG/1.1/DTD/svg11.dtd">
<svg version="1.1" id="Layer_1" xmlns="http://www.w3.org/2000/svg" xmlns:xlink="http://www.w3.org/1999/xlink" x="0px" y="0px"
	 width="200px" height="200px" viewBox="0 0 200 200" enable-background="new 0 0 200 200" xml:space="preserve">
<path fill="#F5F9FF" d="M126.202,0.24c-0.421,0.048-1.106,0.096-1.683,0.481c-4.574,3.202-8.199,7.264-10.817,12.26
	c-3.511-2.269-6.12-5.289-13.702-5.289c-16.154,0-69.231,59.327-69.231,125.48C30.769,170.096,61.539,200,100,200
	c38.461,0,69.23-29.904,69.23-66.827s-23.076-45.384-23.076-80.769c0-18.285-8.399-36.671-25-37.019
	c2.408-3.321,5.623-5.356,8.894-7.692c2.308-1.539,0.817-2.981-0.721-5.289C128.173,1.25,127.464,0.096,126.202,0.24z M100,84.615
	c9.23,0,30.77,21.635,30.77,44.712S117.692,169.23,100,169.23s-30.769-16.058-30.769-39.903C69.231,105.48,90.769,84.615,100,84.615
	z"/>
</svg>
