<?xml version="1.0" encoding="utf-8"?>
<!-- Generator: Adobe Illustrator 16.0.0, SVG Export Plug-In . SVG Version: 6.00 Build 0)  -->
<!DOCTYPE svg PUBLIC "-//W3C//DTD SVG 1.1//EN" "http://www.w3.org/Graphics/SVG/1.1/DTD/svg11.dtd">
<svg version="1.1" id="Layer_1" xmlns="http://www.w3.org/2000/svg" xmlns:xlink="http://www.w3.org/1999/xlink" x="0px" y="0px"
	 width="26px" height="26px" viewBox="0 0 26 26" enable-background="new 0 0 26 26" xml:space="preserve">
<path fill="#F5F9FF" d="M18.938,0.094C18.885,0.1,18.832,0.11,18.781,0.125c0,0-2.282,0.515-4.031,2.125
	c-0.012,0.01-0.02,0.021-0.031,0.031c-1.73,1.516-2.52,3.494-5.375,5.969c-2.837,2.459-4.797,2.998-6.594,4.531
	c-0.029,0.025-0.065,0.037-0.094,0.062l0.031,0.031c-0.749,0.534-1.243,1.208-1.625,1.781c-0.081,0.092-0.145,0.197-0.188,0.312
	c-0.164,0.074-0.312,0.125-0.312,0.125C0.216,15.262-0.003,15.615,0,16v4.875c-0.016,0.104-0.016,0.209,0,0.312v0.688
	c-0.016,0.104-0.016,0.209,0,0.312V25c-0.004,0.553,0.441,1.003,0.993,1.007c0.154,0.001,0.306-0.033,0.444-0.101
	C1.438,25.906,3.333,25,5,25c0.833,0,2.293,0.25,3.781,0.5S11.792,26,13,26c1.209,0,2.73-0.25,4.219-0.5S20.166,25,21,25
	c1.666,0,3.562,0.906,3.562,0.906c0.496,0.242,1.096,0.035,1.337-0.462C25.967,25.307,26.001,25.154,26,25v-2.875
	c0.016-0.104,0.016-0.209,0-0.312v-0.688c0.016-0.104,0.016-0.209,0-0.312V16c0.003-0.385-0.217-0.738-0.562-0.906
	c0,0-2.104-1.094-4.438-1.094c-0.76,0-1.479,0.107-2.219,0.25c1.225-1.444,2.411-2.967,3.188-3.688
	c1.25-1.083,3.281-1.688,3.281-1.688c0.534-0.14,0.854-0.687,0.714-1.221c-0.039-0.149-0.112-0.288-0.214-0.404l-1.781-2
	c0-0.01,0-0.021,0-0.031c-0.084-0.211-0.238-0.388-0.438-0.5c-0.01,0-0.021,0-0.031,0l-0.094-0.125
	c-0.07-0.349-0.32-0.635-0.656-0.75l-3-3.406C19.547,0.203,19.247,0.076,18.938,0.094z M18.688,2.25l0.562,0.656
	c-0.766,0.332-1.75,0.827-2.562,1.531c-0.816,0.708-1.739,1.839-2.688,3s-1.936,2.324-2.719,2.969
	c-1.184,1.002-3.693,2.409-5.438,3.625C5.563,14.004,5.292,14,5,14c-0.218,0-0.443,0.014-0.656,0.031
	c1.39-1.04,3.462-1.811,6.312-4.281c3.127-2.71,4.159-4.919,5.406-6c0.011-0.01,0.021-0.021,0.031-0.031
	C17.039,2.836,18.104,2.439,18.688,2.25z M19.969,3.688l0.625,0.688c-0.78,0.335-1.738,0.849-2.562,1.562
	c-0.884,0.766-1.771,1.935-2.719,3.094c-0.936,1.146-1.912,2.28-2.625,2.875c-0.008,0.007-0.023,0.024-0.031,0.031
	c-0.915,0.727-2.494,1.709-3.969,2.594c-0.501-0.1-0.983-0.162-1.438-0.25c1.575-1.012,3.505-2.125,4.656-3.094
	c0.01-0.008,0.021-0.023,0.031-0.031c0.909-0.756,1.871-1.91,2.812-3.062c0.951-1.165,1.879-2.314,2.562-2.906
	C18.145,4.467,19.215,3.979,19.969,3.688z M22.688,6.781l0.594,0.656c-0.795,0.338-1.77,0.852-2.625,1.594
	c-0.011,0.01-0.021,0.021-0.031,0.031c-1.492,1.378-3.361,4.049-4.844,5.531c-0.075,0.073-0.139,0.157-0.188,0.25
	c-0.592,0.076-1.249,0.135-1.969,0.156c0.345-0.239,0.656-0.504,0.938-0.75c0.914-0.8,1.881-1.993,2.844-3.156
	s1.938-2.302,2.562-2.844C20.823,7.509,22.002,7.034,22.688,6.781z M5,16c1.667,0,3.833,1,8,1c4.166,0,6.334-1,8-1
	c1.264,0,2.402,0.439,3,0.688v0.875C23.209,17.288,22.121,17,21,17c-1.084,0-2.545,0.25-4.031,0.5S13.971,18,13,18
	s-2.482-0.25-3.969-0.5S6.083,17,5,17c-1.121,0-2.209,0.288-3,0.562v-0.875C2.598,16.439,3.736,16,5,16z M5,18
	c0.917,0,2.387,0.25,3.875,0.5S11.871,19,13,19c1.129,0,2.637-0.25,4.125-0.5S20.084,18,21,18c1.146,0,2.268,0.351,3,0.625v0.906
	C23.191,19.268,22.125,19,21,19c-1.166,0-2.639,0.25-4.125,0.5S13.891,20,13,20c-0.891,0-2.388-0.25-3.875-0.5S6.167,19,5,19
	c-1.125,0-2.192,0.268-3,0.531v-0.906C2.732,18.351,3.854,18,5,18z M5,22c0.833,0,2.293,0.25,3.781,0.5S11.792,23,13,23
	c1.209,0,2.73-0.25,4.219-0.5S20.166,22,21,22c1.127,0,2.32,0.388,3,0.656v0.875C23.188,23.264,22.131,23,21,23
	c-1.166,0-2.639,0.25-4.125,0.5S13.891,24,13,24c-0.891,0-2.388-0.25-3.875-0.5S6.167,23,5,23c-1.13,0-2.188,0.264-3,0.531v-0.875
	C2.68,22.388,3.874,22,5,22z"/>
</svg>
