<?xml version="1.0" encoding="utf-8"?>
<!-- Generator: Adobe Illustrator 16.0.0, SVG Export Plug-In . SVG Version: 6.00 Build 0)  -->
<!DOCTYPE svg PUBLIC "-//W3C//DTD SVG 1.1//EN" "http://www.w3.org/Graphics/SVG/1.1/DTD/svg11.dtd">
<svg version="1.1" id="Layer_1" xmlns="http://www.w3.org/2000/svg" xmlns:xlink="http://www.w3.org/1999/xlink" x="0px" y="0px"
	 width="26px" height="26px" viewBox="0 0 26 26" enable-background="new 0 0 26 26" xml:space="preserve">
<path fill="#F5F9FF" d="M18.812-0.031c-1.468,0-2.717,0.499-3.562,1.344S13.969,3.317,13.969,4.5c0,1.602,0.664,2.668,1.156,3.469
	s0.844,1.352,0.844,2.625c0,1.66-1,4.129-1,6.812c0,1.225,0.117,2.725,0.688,4.062s1.855,2.562,3.656,2.562
	c2.197,0,3.933-1.479,5.031-3.469s1.688-4.553,1.688-7.25c0-2.704-0.584-5.867-1.719-8.469c-0.566-1.301-1.291-2.489-2.188-3.375
	S20.102-0.031,18.812-0.031z M7.188,1.969c-1.289,0-2.416,0.614-3.312,1.5S2.254,5.543,1.688,6.844
	c-1.134,2.602-1.719,5.765-1.719,8.469c0,2.697,0.589,5.261,1.688,7.25s2.834,3.469,5.031,3.469c1.801,0,3.085-1.225,3.656-2.562
	s0.688-2.838,0.688-4.062c0-2.684-1-5.152-1-6.812c0-1.273,0.351-1.824,0.844-2.625s1.156-1.867,1.156-3.469
	c0-1.183-0.436-2.342-1.281-3.188S8.655,1.969,7.188,1.969z M19.062,2.062c0.557,0.066,1.078,0.334,1.625,0.875
	c0.631,0.624,1.254,1.582,1.75,2.719c0.404,0.928,0.689,1.985,0.938,3.062c-0.223,0.413-0.826,1.415-1.938,2.531
	c-0.936-0.463-1.913-1.074-2.719-1.938C18.261,5.697,16.326,2.672,19.062,2.062z M6.938,4.062c2.736,0.61,0.802,3.635,0.344,7.25
	c-0.806,0.863-1.783,1.475-2.719,1.938c-1.111-1.116-1.715-2.119-1.938-2.531c0.248-1.077,0.533-2.135,0.938-3.062
	c0.496-1.137,1.119-2.095,1.75-2.719C5.86,4.397,6.381,4.129,6.938,4.062z M23.781,10.75c0.066,0.502,0.096,0.986,0.125,1.469
	c-0.293-0.078-0.643-0.207-1.031-0.344C23.225,11.489,23.525,11.104,23.781,10.75z M18.781,11.25
	c0.505,0.405,1.012,0.741,1.531,1.031c-0.539,0.394-1.145,0.718-1.812,0.969c0.008-0.235,0.031-0.494,0.094-0.75
	C18.693,12.083,18.752,11.663,18.781,11.25z M2.219,12.75c0.255,0.354,0.557,0.739,0.906,1.125
	c-0.389,0.137-0.738,0.266-1.031,0.344C2.124,13.736,2.152,13.252,2.219,12.75z M21.719,12.969c0.008,0.003,0.023-0.003,0.031,0
	c0.945,0.386,1.672,0.576,2.188,0.688c-0.009,0.408-0.024,0.822-0.062,1.219c-1.51,1.934-4.115,1.49-5.031-0.219
	C19.968,14.268,20.916,13.641,21.719,12.969z M7.219,13.25c0.029,0.413,0.087,0.833,0.188,1.25c0.062,0.256,0.086,0.515,0.094,0.75
	c-0.667-0.251-1.273-0.574-1.812-0.969C6.208,13.991,6.714,13.655,7.219,13.25z M4.25,14.969c0.806,0.678,1.774,1.295,2.906,1.688
	c-0.916,1.709-3.521,2.152-5.031,0.219c-0.038-0.396-0.054-0.811-0.062-1.219C2.578,15.545,3.304,15.354,4.25,14.969z"/>
</svg>
