<?xml version="1.0" encoding="utf-8"?>
<!-- Generator: Adobe Illustrator 16.0.0, SVG Export Plug-In . SVG Version: 6.00 Build 0)  -->
<!DOCTYPE svg PUBLIC "-//W3C//DTD SVG 1.1//EN" "http://www.w3.org/Graphics/SVG/1.1/DTD/svg11.dtd">
<svg version="1.1" id="Layer_1" xmlns="http://www.w3.org/2000/svg" xmlns:xlink="http://www.w3.org/1999/xlink" x="0px" y="0px"
	 width="50px" height="50px" viewBox="0 0 50 50" enable-background="new 0 0 50 50" xml:space="preserve">
<path fill="#F5F9FF" d="M46.812,0c-0.413,0-1.037,0.133-1.625,0.719L44.5,1.406L48.594,5.5l0.688-0.688
	c0.823-0.823,1.162-2.243-0.344-3.75C48.24,0.366,47.531,0,46.812,0z M39.094,0.031c-0.749,0-1.517,0.268-2.062,0.812L35.625,2.25
	L47.75,14.375l1.406-1.406c1.124-1.128,1.125-2.967,0-4.094l-8.031-8.031C40.579,0.3,39.843,0.031,39.094,0.031z M31.312,2.031
	c-0.763,0-1.537,0.289-2.094,0.844L28.844,3.25c-1.145,1.149-1.146,3.01,0,4.156l13.75,13.719C43.148,21.679,43.901,22,44.688,22
	c0.787,0,1.506-0.32,2.062-0.875l0.406-0.375c1.145-1.148,1.115-3.009-0.031-4.156L33.406,2.875
	C32.852,2.32,32.075,2.031,31.312,2.031z M31.938,13.312L13.312,31.938l4.75,4.75l18.625-18.625L31.938,13.312z M5.312,28.031
	c-0.763,0-1.536,0.258-2.094,0.812L2.844,29.25c-1.144,1.148-1.145,3.01,0,4.156l13.75,13.75C17.149,47.711,17.9,48,18.688,48
	c0.786,0,1.535-0.32,2.094-0.875l0.375-0.375c1.144-1.148,1.145-3.01,0-4.156l-13.75-13.75C6.853,28.289,6.075,28.031,5.312,28.031z
	 M2.25,35.625l-1.406,1.406c-1.123,1.127-1.124,2.966,0,4.094l8.031,8.031C9.422,49.7,10.134,50,10.906,50
	c0.771,0,1.517-0.299,2.062-0.844l1.406-1.406L2.25,35.625z M1.406,44.5l-0.688,0.719c-0.398,0.398-1.55,1.822,0.344,3.719
	C1.759,49.633,2.469,50,3.188,50c0.413,0,1.037-0.133,1.625-0.719L5.5,48.594L1.406,44.5z"/>
</svg>
