<?xml version="1.0" encoding="utf-8"?>
<!-- Generator: Adobe Illustrator 16.0.0, SVG Export Plug-In . SVG Version: 6.00 Build 0)  -->
<!DOCTYPE svg PUBLIC "-//W3C//DTD SVG 1.1//EN" "http://www.w3.org/Graphics/SVG/1.1/DTD/svg11.dtd">
<svg version="1.1" id="Layer_1" xmlns="http://www.w3.org/2000/svg" xmlns:xlink="http://www.w3.org/1999/xlink" x="0px" y="0px"
	 width="26px" height="26px" viewBox="0 0 26 26" enable-background="new 0 0 26 26" xml:space="preserve">
<path fill="#F5F9FF" d="M18.188,0c0,0,0.027,2.548,0.719,3.75c0.686,1.199,1.377,1.095,1.938,0.781
	c0.561-0.315,1.094-0.767,0.406-1.969C20.561,1.361,18.188,0,18.188,0z M24.562,2.031c0,0-2.061,1.465-2.656,2.719
	c-0.589,1.247-0.112,1.748,0.469,2.031C22.953,7.059,23.654,7.251,24.25,6C24.841,4.75,24.562,2.031,24.562,2.031z M19.031,5.375
	c-1.332,0.046-2.844,0.438-2.844,0.438s1.879,1.786,3.25,2.156c1.359,0.369,1.764-0.16,1.938-0.781
	c0.172-0.616,0.241-1.349-1.125-1.719C19.908,5.376,19.476,5.36,19.031,5.375z M26,6.969c0,0-2.387,0.909-3.281,1.969
	c-0.891,1.053-0.58,1.642-0.094,2.062c0.484,0.418,1.135,0.775,2.031-0.281C25.551,9.663,26,6.969,26,6.969z M16.625,8.625
	c0,0,1.361,2.223,2.594,2.938c1.227,0.713,1.733,0.273,2.062-0.281c0.328-0.553,0.604-1.222-0.625-1.938
	C19.424,8.63,16.625,8.625,16.625,8.625z M16.438,10.906c0,0,0.435,2.566,1.312,3.688c0.876,1.117,1.554,0.896,2.062,0.5
	c0.507-0.393,0.974-0.91,0.094-2.031C19.027,11.945,16.438,10.906,16.438,10.906z M25.562,12.5c0,0-2.549,0.028-3.75,0.719
	c-1.197,0.688-1.096,1.377-0.781,1.938c0.316,0.559,0.798,1.125,2,0.438C24.232,14.904,25.562,12.5,25.562,12.5z M15.406,13.375
	c0,0-0.164,2.613,0.438,3.906c0.596,1.286,1.257,1.234,1.844,0.969c0.584-0.268,1.195-0.677,0.594-1.969
	C17.686,14.991,15.406,13.375,15.406,13.375z M13.531,15.25c0,0-0.839,2.471-0.594,3.875c0.243,1.396,0.926,1.51,1.562,1.406
	c0.632-0.107,1.308-0.35,1.062-1.75C15.316,17.379,13.531,15.25,13.531,15.25z M20.719,17c-0.197,0-0.392,0.032-0.562,0.062
	c-1.357,0.243-1.482,0.896-1.375,1.531c0.109,0.633,0.353,1.334,1.719,1.094c1.357-0.244,3.438-2.031,3.438-2.031
	S22.098,16.998,20.719,17z M10.812,17.312c0,0-1.067,2.359-0.969,3.781c0.103,1.412,0.763,1.631,1.406,1.594
	c0.641-0.043,1.321-0.205,1.219-1.625C12.37,19.646,10.812,17.312,10.812,17.312z M16.906,20.188
	c-1.006-0.018-1.284,0.504-1.375,1.062c-0.098,0.633-0.065,1.354,1.344,1.562c1.404,0.21,4-0.781,4-0.781s-2.091-1.602-3.5-1.812
	C17.199,20.192,17.05,20.189,16.906,20.188z M13,22.562c-0.7-0.024-0.991,0.389-1.156,0.844c-0.22,0.604-0.344,1.305,1,1.781
	c1.338,0.473,4.094-0.031,4.094-0.031s-1.752-1.93-3.094-2.406C13.51,22.632,13.233,22.57,13,22.562z M10.719,23.438
	c0,0-6.443,2.529-10.469,1.625C-0.066,25.438,0.688,26,0.688,26S6.546,26.088,10.719,23.438z"/>
</svg>
