<?xml version="1.0" encoding="utf-8"?>
<!-- Generator: Adobe Illustrator 16.0.0, SVG Export Plug-In . SVG Version: 6.00 Build 0)  -->
<!DOCTYPE svg PUBLIC "-//W3C//DTD SVG 1.1//EN" "http://www.w3.org/Graphics/SVG/1.1/DTD/svg11.dtd">
<svg version="1.1" id="Layer_1" xmlns="http://www.w3.org/2000/svg" xmlns:xlink="http://www.w3.org/1999/xlink" x="0px" y="0px"
	 width="26px" height="26px" viewBox="0 0 26 26" enable-background="new 0 0 26 26" xml:space="preserve">
<path fill="#F5F9FF" d="M11,3v2h2V3H11z M10.188,6C9.487,6,9,6.487,9,7.188V11H8.969c-0.086-0.592-0.522-1-1.062-1H5.188
	c-0.481,0-0.836,0.25-1.031,0.625l-2-0.375l-0.312,1.5L4,12.156V13v1h17h0.094v-1.625l4.188-1.688l-0.562-1.375l-4.438,1.781
	C20.158,11.05,20.035,11,19.906,11H15V7.188C15,6.487,14.506,6,13.906,6H10.188z M0.688,15C0.288,15,0,15.287,0,15.688v0.406
	c0,0.6,0.2,1.094,0.5,1.594l1.938,3.219C1.911,21.037,1.392,21.094,1,21.094c-0.4,0-0.7,0.006-1-0.094v1.812
	c0.3,0,0.6,0.094,1,0.094c1.7,0,2.4-0.406,3-0.906c0.9,0.7,2.2,0.906,3,0.906S9.1,22.7,10,22c0.9,0.7,2.2,0.906,3,0.906
	S15.1,22.7,16,22c0.9,0.7,2.2,0.906,3,0.906S21.1,22.7,22,22c0.9,0.7,2.2,0.906,3,0.906c0.4,0,0.7-0.119,1-0.219v-1.781
	c-0.3,0.1-0.6,0.188-1,0.188c-0.393,0-0.91-0.057-1.438-0.188l1.938-3.219c0.3-0.5,0.5-0.994,0.5-1.594v-0.406
	c0-0.4-0.287-0.688-0.688-0.688H0.688z M21,17h2v1h-2V17z M4,23.188c-0.9,0.7-2.2,0.906-3,0.906c-0.4,0-0.7,0.006-1-0.094v1.812
	c0.3,0,0.6,0.094,1,0.094c1.7,0,2.4-0.406,3-0.906c0.9,0.7,2.2,0.906,3,0.906S9.1,25.7,10,25c0.9,0.7,2.2,0.906,3,0.906
	S15.1,25.7,16,25c0.9,0.7,2.2,0.906,3,0.906S21.1,25.7,22,25c0.9,0.7,2.2,0.906,3,0.906c0.4,0,0.7-0.119,1-0.219v-1.781
	c-0.3,0.1-0.6,0.188-1,0.188c-0.8,0-2.1-0.206-3-0.906c-0.9,0.7-2.2,0.906-3,0.906s-2.1-0.206-3-0.906c-0.9,0.7-2.2,0.906-3,0.906
	s-2.1-0.206-3-0.906c-0.9,0.7-2.2,0.906-3,0.906S4.9,23.888,4,23.188z"/>
</svg>
