<?xml version="1.0" encoding="utf-8"?>
<!-- Generator: Adobe Illustrator 16.0.0, SVG Export Plug-In . SVG Version: 6.00 Build 0)  -->
<!DOCTYPE svg PUBLIC "-//W3C//DTD SVG 1.1//EN" "http://www.w3.org/Graphics/SVG/1.1/DTD/svg11.dtd">
<svg version="1.1" id="Layer_1" xmlns="http://www.w3.org/2000/svg" xmlns:xlink="http://www.w3.org/1999/xlink" x="0px" y="0px"
	 width="200px" height="200px" viewBox="0 0 200 200" enable-background="new 0 0 200 200" xml:space="preserve">
<path fill="#F5F9FF" d="M42.789,7.452c-6.445-0.541-13.221,2.884-18.991,8.654c-9.23,9.23-11.394,20.817-2.163,30.048
	c1.969,2.363,4.626,4.032,7.692,5.289L5.289,95.433c-9.231,16.153-5.192,36.972,8.654,49.278l23.798,21.395
	c13.077,11.539,29.904,17.789,47.596,17.789h28.606c17.692,0,35.288-6.25,47.597-17.789l23.797-21.395
	c15.385-12.307,18.606-32.355,9.375-49.278l-23.797-43.51c3.062-1.453,6.052-3.408,8.413-5.769
	c9.23-9.231,6.105-20.096-3.125-29.327c-9.231-9.231-20.817-12.116-30.048-2.885c-1.154,1.154-2.151,2.457-3.125,3.846
	c-4.129-1.541-8.524-2.404-12.981-2.404H69.952c-4.441,0-8.595,0.717-12.5,2.163c-1.076-1.618-2.287-3.248-3.606-4.567
	C50.385,9.519,46.656,7.776,42.789,7.452z M76.923,69.952c6.154,0,11.539,5.384,11.539,11.538s-5.384,11.539-11.539,11.539
	c-6.154,0-11.538-5.385-11.538-11.539S70.769,69.952,76.923,69.952z M123.077,69.952c6.153,0,11.538,5.384,11.538,11.538
	s-5.385,11.539-11.538,11.539c-6.154,0-11.538-5.385-11.538-11.539S116.923,69.952,123.077,69.952z M87.019,107.692h27.645
	c8.461,0,16.105,4.615,19.951,11.538l10.817,17.789c2.308,5.385,0.817,12.98-4.567,16.826l-10.817,7.693
	c-6.526,5.075-14.384,7.439-22.355,7.691v-18.51l9.135-9.855c3.077-3.846,0.817-10.096-4.567-10.096H88.461
	c-5.384,0-7.644,6.25-4.567,10.096l8.414,9.855v18.51c-7.971-0.328-15.83-3.342-22.355-7.691l-10.817-7.693
	C53.75,150,52.404,143.173,56.25,137.02l10.577-17.789C71.442,112.308,78.558,107.692,87.019,107.692z"/>
</svg>
