<?xml version="1.0" encoding="utf-8"?>
<!-- Generator: Adobe Illustrator 16.0.0, SVG Export Plug-In . SVG Version: 6.00 Build 0)  -->
<!DOCTYPE svg PUBLIC "-//W3C//DTD SVG 1.1//EN" "http://www.w3.org/Graphics/SVG/1.1/DTD/svg11.dtd">
<svg version="1.1" id="Layer_1" xmlns="http://www.w3.org/2000/svg" xmlns:xlink="http://www.w3.org/1999/xlink" x="0px" y="0px"
	 width="26px" height="26px" viewBox="0 0 26 26" enable-background="new 0 0 26 26" xml:space="preserve">
<path fill="#F5F9FF" d="M19.5-0.031C19.457-0.026,19.415-0.016,19.375,0c-0.011,0.01-0.021,0.021-0.031,0.031l-3,1
	c-0.26,0.093-0.395,0.38-0.301,0.64c0.006,0.017,0.012,0.032,0.02,0.048l0.781,1.594c-0.557,0.29-1.031,0.751-1.344,1.375
	c-0.418,0.789-0.559,1.659-0.406,2.438c-1.624-0.707-3.277-0.355-4.188,0.969c-0.737,1.073-0.928,2.468-0.406,3.688
	c-1.418-0.648-2.912-0.804-4,0.625c0.8,1.4,3.013,4.206,8.312,4.906c0.125-1.125-0.072-1.997-0.719-2.844
	c1.523,0.373,3.066,0.191,3.719-0.656c0.699-0.908,0.785-2.604-0.062-4.188c1.875,0.468,4.472,0.15,5.062-1.031
	c0.7-1.4-0.506-3.888-2.906-5.188c-0.204-0.102-0.422-0.186-0.625-0.25L19.594,3H21.5c0.276,0.004,0.503-0.217,0.507-0.493
	C22.011,2.231,21.79,2.004,21.514,2C21.51,2,21.505,2,21.5,2h-2c-0.031-0.003-0.062-0.003-0.094,0
	c-0.045,0.015-0.086,0.036-0.125,0.062l-1.562,0.781l-0.531-1.062l2.469-0.812c0.276-0.043,0.465-0.302,0.422-0.578
	S19.776-0.074,19.5-0.031z M3.406,0C1.606,0,1,0.906,1,2.906c0,2.3,1.594,6.788,7.594,7.688c0,0-0.081-0.981,0.219-1.781
	C3.413,8.212,3,3.506,3,2.906C3,2.206,3.194,2,3.594,2C5.994,2,10,7,10,7c0.7-0.9,1.688-1.094,1.688-1.094
	C9.587,2.706,5.106,0,3.406,0z M9,0C8.4,0,7.906,0.188,7.406,0.688c0.5,0.3,1.8,1.112,2,1.312C10.306,2,11.7,2.587,13,5.688
	c0,0,0.693,0.206,1.094,0.406c0.1-0.5,0.406-1.188,0.406-1.188C13.4,2.006,10.8,0,9,0z M18.969,4.031
	c0.613-0.08,1.281,0.125,1.719,0.562c1.1,1,1.1,2.4,0.5,3s-2.075,0.394-2.875-0.406C17.513,6.487,17.3,5.2,18,4.5
	C18.263,4.237,18.601,4.079,18.969,4.031z M5.688,14.312c-0.1,0.2-0.087,0.394-0.188,0.594c-0.2,0.8-0.306,1.487-0.406,2.188
	c1.1,1.4,3.612,3.812,8.312,4.312c0.5-0.7,0.894-1.506,1.094-2.406C12.6,18.9,8.087,17.812,5.688,14.312z M5.094,19.812
	c0.229,1.91,0.952,3.441,1.938,4.25C7.555,25.32,9,26,9,26v-1.406c0.86-0.178,1.976-0.732,3-1.688
	C10.1,22.807,7.194,22.013,5.094,19.812z"/>
</svg>
