<?xml version="1.0" encoding="utf-8"?>
<!-- Generator: Adobe Illustrator 16.0.0, SVG Export Plug-In . SVG Version: 6.00 Build 0)  -->
<!DOCTYPE svg PUBLIC "-//W3C//DTD SVG 1.1//EN" "http://www.w3.org/Graphics/SVG/1.1/DTD/svg11.dtd">
<svg version="1.1" id="Layer_1" xmlns="http://www.w3.org/2000/svg" xmlns:xlink="http://www.w3.org/1999/xlink" x="0px" y="0px"
	 width="200px" height="200px" viewBox="0 0 200 200" enable-background="new 0 0 200 200" xml:space="preserve">
<path fill="#F5F9FF" d="M53.125,16.667l-2.344,4.688c0,0-9.115,18.468-9.115,46.094c0,14.709,4.743,26.455,8.854,37.761
	c4.111,11.305,7.812,22.292,7.812,38.02c0,0.631-0.761,5.053-1.562,9.115c-0.021,0.089,0.019,0.172,0,0.26
	c-3.484,15.888,9.329,31.942,26.302,30.73h0.261h0.26c5.903-0.738,13.073-0.781,16.406-0.781c3.334,0,10.503,0.043,16.406,0.781
	h0.26h0.262c16.607,1.277,29.873-14.455,26.301-30.73c-0.021-0.111,0.023-0.146,0-0.26c-0.801-4.062-1.562-8.484-1.562-9.115
	c0-15.728,3.706-27.144,7.812-38.541c4.107-11.397,8.855-22.888,8.855-37.24c0-26.852-9.115-46.094-9.115-46.094l-2.344-4.688
	h-5.209H58.333H53.125z M64.062,33.333h71.875c1.643,4.161,4.497,12.429,5.469,25h-20.572c-4.168,0,4.166,25,4.166,29.167
	c0,6.667-5.834,12.5-12.5,12.5S100,94.167,100,87.5c0-4.167,8.334-29.167,4.166-29.167h-31.77v9.114
	c0,25.833,16.667,41.615,16.667,75.781c0,2.5-0.729,6.771-1.562,10.938c-1.168,4.285-0.315,8.461,1.562,11.98
	c-2.327,0.115-4.589,0.232-7.031,0.52c-6.266,0.448-10.168-4.982-8.854-10.676v-0.262c0.833-4.166,1.823-8.147,1.823-12.5
	c0-18.438-4.632-32.139-8.854-43.75s-7.812-20.907-7.812-32.031C58.333,48.841,62.044,38.273,64.062,33.333z"/>
</svg>
