<?xml version="1.0" encoding="utf-8"?>
<!-- Generator: Adobe Illustrator 16.0.0, SVG Export Plug-In . SVG Version: 6.00 Build 0)  -->
<!DOCTYPE svg PUBLIC "-//W3C//DTD SVG 1.1//EN" "http://www.w3.org/Graphics/SVG/1.1/DTD/svg11.dtd">
<svg version="1.1" id="Layer_1" xmlns="http://www.w3.org/2000/svg" xmlns:xlink="http://www.w3.org/1999/xlink" x="0px" y="0px"
	 width="200px" height="200px" viewBox="0 0 200 200" enable-background="new 0 0 200 200" xml:space="preserve">
<path fill="#F5F9FF" d="M91.667,16.667V37.5C85,31.667,77.396,27.5,68.229,25l-3.125,16.667c8.333,2.5,14.792,6.615,19.792,13.281
	c3.333-13.333,11.771-24.844,23.438-31.51v-6.771H91.667z M133.334,25c-22.879,0-41.667,18.788-41.667,41.667v8.594
	c-7.779-10.348-19.92-16.927-33.333-16.927C35,58.333,16.667,76.667,16.667,100c0,41.666,66.667,41.666,83.333,83.334
	c16.666-41.668,83.334-41.668,83.334-83.334c0-23.333-18.334-41.667-41.668-41.667c-13.412,0-25.554,6.579-33.332,16.927v-8.594
	c0-13.788,11.211-25,25-25V25z"/>
</svg>
