<?xml version="1.0" encoding="utf-8"?>
<!-- Generator: Adobe Illustrator 16.0.0, SVG Export Plug-In . SVG Version: 6.00 Build 0)  -->
<!DOCTYPE svg PUBLIC "-//W3C//DTD SVG 1.1//EN" "http://www.w3.org/Graphics/SVG/1.1/DTD/svg11.dtd">
<svg version="1.1" id="Layer_1" xmlns="http://www.w3.org/2000/svg" xmlns:xlink="http://www.w3.org/1999/xlink" x="0px" y="0px"
	 width="26px" height="26px" viewBox="0 0 26 26" enable-background="new 0 0 26 26" xml:space="preserve">
<path fill="#F5F9FF" d="M23.5,0.188c-1.277,0-2.312,1.035-2.312,2.312c0,0.042-0.002,0.083,0,0.125
	c-2.536-1.16-6.95-0.674-11.062,3.438C8.166,8.024,3.928,7.573,2.719,8.781c-1.208,1.207-0.992,5.196,4.125,10.312
	s9.069,5.307,10.281,4.094c1.213-1.214,0.857-5.139,2.969-7.25c4.022-4.021,4.385-8.526,3.219-11.125c0.062,0.005,0.124,0,0.188,0
	c1.277,0,2.312-1.036,2.312-2.312C25.813,1.222,24.775,0.188,23.5,0.188z M23.5,1.344c0.637,0,1.156,0.519,1.156,1.156
	s-0.52,1.156-1.156,1.156S22.344,3.138,22.344,2.5c0-0.309,0.126-0.596,0.344-0.812C22.905,1.469,23.189,1.344,23.5,1.344z
	 M18.781,4.156c0.47,0.02,0.98,0.125,1.531,0.281c-3.113-0.152-7.083,4.813-8.562,6.625c-1.053,1.288-2.821,2.7-5.031,2.875
	c-1.813-1.05-1.688-2.469-1.688-2.469s2.484,0.362,5.812-2.156C13.934,6.974,15.494,4.019,18.781,4.156z M8.156,21.625
	c-0.583,0.42-0.97,1.102-0.969,1.875c0,1.277,1.035,2.312,2.312,2.312c1.127,0,2.075-0.809,2.281-1.875
	C10.733,23.461,9.51,22.725,8.156,21.625z"/>
</svg>
