<?xml version="1.0" encoding="utf-8"?>
<!-- Generator: Adobe Illustrator 16.0.0, SVG Export Plug-In . SVG Version: 6.00 Build 0)  -->
<!DOCTYPE svg PUBLIC "-//W3C//DTD SVG 1.1//EN" "http://www.w3.org/Graphics/SVG/1.1/DTD/svg11.dtd">
<svg version="1.1" id="Layer_1" xmlns="http://www.w3.org/2000/svg" xmlns:xlink="http://www.w3.org/1999/xlink" x="0px" y="0px"
	 width="200px" height="200px" viewBox="0 0 200 200" enable-background="new 0 0 200 200" xml:space="preserve">
<path fill="#F5F9FF" d="M41.667,25C32.5,25,25,32.5,25,41.667v116.667C25,167.5,32.5,175,41.667,175h90.105l-2.605-16.666h-37.5
	V91.667h29.949L120.053,75H91.667V41.667h66.667v16.667L175,99.219V41.667C175,32.5,167.5,25,158.334,25H41.667z M41.667,41.667H75
	V75H41.667V41.667z M145.053,47.396l-7.553,3.385l46.615,135.938c0.832,3.334,4.322,5.834,10.156,4.166
	c5.832-2.5,5.781-7.656,4.947-10.156L145.053,47.396z M133.334,49.219L125,50.781l17.447,144.271
	c0.834,3.332,2.449,6.562,9.115,5.729c6.666-1.666,6.771-5.781,6.771-9.115L133.334,49.219z M41.667,91.667H75v25H41.667V91.667z
	 M41.667,133.334H75v25H41.667V133.334z"/>
</svg>
