<?xml version="1.0" encoding="utf-8"?>
<!-- Generator: Adobe Illustrator 16.0.0, SVG Export Plug-In . SVG Version: 6.00 Build 0)  -->
<!DOCTYPE svg PUBLIC "-//W3C//DTD SVG 1.1//EN" "http://www.w3.org/Graphics/SVG/1.1/DTD/svg11.dtd">
<svg version="1.1" id="Layer_1" xmlns="http://www.w3.org/2000/svg" xmlns:xlink="http://www.w3.org/1999/xlink" x="0px" y="0px"
	 width="26px" height="26px" viewBox="0 0 26 26" enable-background="new 0 0 26 26" xml:space="preserve">
<path fill="#F5F9FF" d="M15.312,0.188c1.418,3.413-2.238,4.287,1.844,8.594c3.779,3.991,6.449,3.942,8.594,1.281
	c-2.252,0.582-4.737,0.282-5.781-1.25C22.082,7.35,22.486,2.704,21,1.219c-0.021,2.203-1.639,6.003-3.625,5.844
	C15.984,4.877,18.888,2.492,15.312,0.188z M8.562,4.906C7.384,5.001,6.166,5.616,4.906,6.875c-4.029,4.03-6.418,14.77-3.562,17.625
	C4.198,27.354,14.209,25.814,19,20.938c3.993-4.064,1.168-7.489-2.719-11.375C13.609,6.89,11.154,4.698,8.562,4.906z M10.125,6.656
	c0.253,0,0.474,0.088,0.562,0.25c0.177,0.326-0.181,0.831-0.781,1.156c-0.598,0.326-1.198,0.324-1.375,0
	c-0.176-0.325,0.152-0.828,0.75-1.156C9.58,6.745,9.872,6.656,10.125,6.656z M13.906,8.938c0.246-0.06,0.47-0.013,0.594,0.125
	c0.249,0.271,0.035,0.859-0.469,1.312c-0.507,0.459-1.129,0.586-1.375,0.312c-0.249-0.273-0.039-0.855,0.469-1.312
	C13.377,9.147,13.66,8.997,13.906,8.938z M6.125,10.406c0.102,0.001,0.177,0.036,0.25,0.094c0.29,0.228,0.203,0.841-0.219,1.375
	c-0.422,0.535-1.021,0.792-1.312,0.562c-0.29-0.229-0.172-0.84,0.25-1.375C5.412,10.663,5.82,10.403,6.125,10.406z M10.219,11.281
	c0.101,0.013,0.185,0.06,0.25,0.125c0.261,0.261,0.074,0.862-0.406,1.344c-0.483,0.481-1.083,0.638-1.344,0.375
	c-0.262-0.26-0.076-0.861,0.406-1.344C9.486,11.42,9.917,11.243,10.219,11.281z M14.188,13.656c0.101,0.012,0.185,0.06,0.25,0.125
	c0.262,0.262,0.105,0.863-0.375,1.344c-0.482,0.482-1.083,0.667-1.344,0.406c-0.262-0.262-0.107-0.861,0.375-1.344
	C13.454,13.828,13.885,13.619,14.188,13.656z M5.438,14.469c0.101,0.013,0.185,0.06,0.25,0.125c0.261,0.262,0.075,0.861-0.406,1.344
	C4.8,16.418,4.2,16.574,3.938,16.312c-0.262-0.26-0.074-0.861,0.406-1.344C4.705,14.609,5.135,14.432,5.438,14.469z M17.875,15.938
	c0.102-0.016,0.199-0.015,0.281,0.031c0.322,0.176,0.329,0.814,0,1.406c-0.332,0.596-0.865,0.93-1.188,0.75
	c-0.324-0.178-0.331-0.811,0-1.406C17.214,16.273,17.572,15.983,17.875,15.938z M9.406,16.844c0.101,0.013,0.216,0.06,0.281,0.125
	c0.26,0.264,0.075,0.861-0.406,1.344c-0.483,0.482-1.084,0.667-1.344,0.406c-0.263-0.262-0.075-0.863,0.406-1.344
	C8.705,17.014,9.104,16.807,9.406,16.844z M3.562,19.125c0.1-0.016,0.169-0.014,0.25,0.031c0.322,0.18,0.328,0.811,0,1.406
	c-0.333,0.596-0.866,0.927-1.188,0.75c-0.324-0.18-0.301-0.814,0.031-1.406C2.904,19.458,3.262,19.172,3.562,19.125z M13.281,19.375
	c0.254-0.012,0.467,0.061,0.562,0.219c0.191,0.316-0.134,0.865-0.719,1.219c-0.582,0.354-1.215,0.377-1.406,0.062
	c-0.191-0.316,0.137-0.865,0.719-1.219C12.729,19.479,13.028,19.387,13.281,19.375z M7.719,21.75
	c0.253-0.013,0.436,0.061,0.531,0.219c0.193,0.318-0.105,0.863-0.688,1.219c-0.582,0.354-1.214,0.381-1.406,0.062
	c-0.191-0.316,0.139-0.834,0.719-1.188C7.166,21.886,7.465,21.763,7.719,21.75z"/>
</svg>
