<?xml version="1.0" encoding="utf-8"?>
<!-- Generator: Adobe Illustrator 16.0.0, SVG Export Plug-In . SVG Version: 6.00 Build 0)  -->
<!DOCTYPE svg PUBLIC "-//W3C//DTD SVG 1.1//EN" "http://www.w3.org/Graphics/SVG/1.1/DTD/svg11.dtd">
<svg version="1.1" id="Layer_1" xmlns="http://www.w3.org/2000/svg" xmlns:xlink="http://www.w3.org/1999/xlink" x="0px" y="0px"
	 width="200px" height="200px" viewBox="0 0 200 200" enable-background="new 0 0 200 200" xml:space="preserve">
<path fill="#F5F9FF" d="M118.75,52.083v6.25c0,0,0.129,4.227,0.781,10.417H76.562l-0.781-1.562
	c8.958-2.138,11.719-2.701,11.719-6.25c0-2.5-0.885-2.604-3.385-2.604H52.604c-1.667,0-2.604,0.885-2.604,3.385
	c0,10.152,3.06,10.38,13.021,8.333l3.906,7.031l-22.396,45.051c-1.582,3.068-0.377,6.839,2.691,8.421
	c0.86,0.443,1.811,0.681,2.778,0.694h47.135c2.901,1.871,6.769,1.037,8.641-1.863c0.691-1.072,1.038-2.33,0.995-3.605L125,94.792
	c3.91,11.693,10.277,24.339,20.572,34.636l8.855-8.855c-19.441-19.439-21.9-47.491-22.396-55.989H150v-12.5h-25H118.75z
	 M83.333,81.25h35.417l-18.49,30.99L83.333,81.25z M74.219,90.365l15.365,28.385H59.896L74.219,90.365z M50,91.667
	c-18.333,0-33.333,15-33.333,33.333s15,33.334,33.333,33.334c15,0,27.604-10.105,31.771-23.438H68.229
	C64.062,141.562,57.5,145.834,50,145.834c-11.667,0-20.833-9.168-20.833-20.834c0-10.834,8.438-20,19.271-20.834l5.729-12.5H50z
	 M150,91.667c-2.5,0-5.834,0.781-8.334,0.781c1.668,4.167,3.23,7.552,5.73,11.718H150c11.666,0,20.834,9.168,20.834,20.834
	s-9.168,20.834-20.834,20.834s-20.834-9.168-20.834-20.834c0-2.5,0.73-5.885,1.562-7.553c-2.5-4.166-4.844-8.332-6.51-12.5
	c-5,5-7.553,12.553-7.553,20.053c0,18.334,15,33.334,33.334,33.334s33.334-15,33.334-33.334S168.334,91.667,150,91.667z
	 M73.438,101.562l-5.99,12.5c0,0-0.052,1.041,0.781,1.041h13.542C80.104,109.271,77.604,104.896,73.438,101.562z"/>
</svg>
