<?xml version="1.0" encoding="utf-8"?>
<!-- Generator: Adobe Illustrator 16.0.0, SVG Export Plug-In . SVG Version: 6.00 Build 0)  -->
<!DOCTYPE svg PUBLIC "-//W3C//DTD SVG 1.1//EN" "http://www.w3.org/Graphics/SVG/1.1/DTD/svg11.dtd">
<svg version="1.1" id="Layer_1" xmlns="http://www.w3.org/2000/svg" xmlns:xlink="http://www.w3.org/1999/xlink" x="0px" y="0px"
	 width="200px" height="200px" viewBox="0 0 200 200" enable-background="new 0 0 200 200" xml:space="preserve">
<path fill="#F5F9FF" d="M70.833,33.333c-10.245,0-18.568,7.444-20.312,17.188c-4.544,1.064-8.813,3.965-11.458,8.594l-27.344,57.551
	h0.26c-2.266,5.127-3.646,10.729-3.646,16.668C8.333,156.246,27.087,175,50,175c17.958,0,33.24-11.591,39.062-27.604
	C92.378,149.033,96.082,150,100,150c3.918,0,7.622-0.967,10.938-2.604C116.76,163.409,132.042,175,150,175
	c22.913,0,41.666-18.754,41.666-41.666c0-5.939-1.379-11.541-3.645-16.668h0.26l-27.344-57.551
	c-2.645-4.629-6.914-7.53-11.459-8.594c-1.744-9.743-10.067-17.188-20.312-17.188c-10.066,0-18.369,7.173-20.312,16.667H91.146
	C89.203,40.507,80.901,33.333,70.833,33.333z M50,108.334c13.906,0,25,11.094,25,25c0,13.905-11.094,25-25,25s-25-11.095-25-25
	C25,119.428,36.094,108.334,50,108.334z M150,108.334c13.906,0,25,11.094,25,25c0,13.905-11.094,25-25,25s-25-11.095-25-25
	C125,119.428,136.094,108.334,150,108.334z M100,116.666c4.621,0,8.334,3.713,8.334,8.334s-3.713,8.334-8.334,8.334
	s-8.333-3.713-8.333-8.334S95.379,116.666,100,116.666z"/>
</svg>
