<?xml version="1.0" encoding="utf-8"?>
<!-- Generator: Adobe Illustrator 16.0.0, SVG Export Plug-In . SVG Version: 6.00 Build 0)  -->
<!DOCTYPE svg PUBLIC "-//W3C//DTD SVG 1.1//EN" "http://www.w3.org/Graphics/SVG/1.1/DTD/svg11.dtd">
<svg version="1.1" id="Layer_1" xmlns="http://www.w3.org/2000/svg" xmlns:xlink="http://www.w3.org/1999/xlink" x="0px" y="0px"
	 width="200px" height="200px" viewBox="0 0 200 200" enable-background="new 0 0 200 200" xml:space="preserve">
<path fill="#F5F9FF" d="M100,12.5c0,0-12.5,18.333-12.5,25S93.333,50,100,50c6.666,0,12.5-5.833,12.5-12.5S100,12.5,100,12.5z
	 M83.333,58.333v25H50c-18.333,0-33.333,15-33.333,33.333c0,8.316,3.25,15.76,8.333,21.615v45.053h150v-45.053
	c5.084-5.855,8.334-13.299,8.334-21.615c0-18.333-15-33.333-33.334-33.333h-33.334v-25H83.333z M50,100h100
	c9.166,0,16.666,7.5,16.666,16.666c0,9.168-7.5,16.668-16.666,16.668c-18.334,0-25-16.668-25-16.668s-8.334,16.668-25,16.668
	c-16.667,0-25-16.668-25-16.668s-6.667,16.668-25,16.668c-9.167,0-16.667-7.5-16.667-16.668C33.333,107.5,40.833,100,50,100z"/>
</svg>
