<?xml version="1.0" encoding="utf-8"?>
<!-- Generator: Adobe Illustrator 16.0.0, SVG Export Plug-In . SVG Version: 6.00 Build 0)  -->
<!DOCTYPE svg PUBLIC "-//W3C//DTD SVG 1.1//EN" "http://www.w3.org/Graphics/SVG/1.1/DTD/svg11.dtd">
<svg version="1.1" id="Layer_1" xmlns="http://www.w3.org/2000/svg" xmlns:xlink="http://www.w3.org/1999/xlink" x="0px" y="0px"
	 width="24px" height="24px" viewBox="0 0 24 24" enable-background="new 0 0 24 24" xml:space="preserve">
<path fill="#F5F9FF" d="M12,0c-0.829,0-1.5,0.671-1.5,1.5c0,0.58,0.331,1.063,0.812,1.312C10.429,3.749,9,5.468,9,7
	c0,0.868,0.286,1.521,0.719,2H8v2h1.969C9.595,15.001,7,15.145,7,17h10c0-1.763-2.596-1.987-2.969-6H16V9h-1.719
	C14.714,8.521,15,7.868,15,7c0-1.532-1.43-3.251-2.312-4.188C13.169,2.563,13.5,2.08,13.5,1.5C13.5,0.671,12.828,0,12,0z M5,18v2
	h1.406L4,24h16l-2.406-4H19v-2H5z"/>
</svg>
