<?xml version="1.0" encoding="utf-8"?>
<!-- Generator: Adobe Illustrator 16.0.0, SVG Export Plug-In . SVG Version: 6.00 Build 0)  -->
<!DOCTYPE svg PUBLIC "-//W3C//DTD SVG 1.1//EN" "http://www.w3.org/Graphics/SVG/1.1/DTD/svg11.dtd">
<svg version="1.1" id="Layer_1" xmlns="http://www.w3.org/2000/svg" xmlns:xlink="http://www.w3.org/1999/xlink" x="0px" y="0px"
	 width="26px" height="26px" viewBox="0 0 26 26" enable-background="new 0 0 26 26" xml:space="preserve">
<path fill="#F5F9FF" d="M22.094,0.125C21.991,0.153,22.01,0.466,22,0.531c-0.21,1.454-1.906,3.344-1.906,3.344l-7.156,4.906
	c0.9,1.076,1.277,1.396,2.75,0.531c1.471-0.864,4.514-3.23,5.469-3.875c1.299-0.878,2.995-0.931,3.75-0.906
	C25.155,4.539,25.165,4.404,25,4.156s-2.314-3.335-2.562-3.688C22.246,0.196,22.155,0.108,22.094,0.125z M22.594,5.531
	c0,0-4.223,2.908-7.312,5.031c-2.001,1.372-2.554,0.217-2.812-0.188c-0.129-0.201-0.281-0.427-0.438-0.656
	c-0.324-0.473-0.938-0.125-0.938-0.125s-2.576,1.767-4.281,2.938C6.752,12.511,6.689,12.5,6.625,12.5
	c-0.253,0-0.571,0.007-0.844-0.156c-0.168-0.101-0.36-0.269-0.5-0.594c0.454,0.028,0.964-0.027,1.531-0.219
	c0.302-0.104,0.463-0.432,0.359-0.734s-0.432-0.463-0.734-0.359l0,0c-0.78,0.264-1.249,0.205-1.594,0.062
	c-0.049-0.028-0.102-0.049-0.156-0.062c-0.073-0.041-0.158-0.079-0.219-0.125C4.119,10.047,4,9.719,4,9.719
	c-0.094-0.302-0.415-0.47-0.716-0.375c-0.001,0-0.001,0-0.002,0C2.976,9.426,2.796,9.74,2.878,10.045
	c0.007,0.027,0.017,0.054,0.028,0.08c0,0,0.226,0.624,0.844,1.094c0.081,0.062,0.186,0.102,0.281,0.156
	c0.173,0.985,0.623,1.619,1.156,1.938c0.357,0.213,0.684,0.281,0.969,0.312c0.812,0.198,1.969-0.281,1.969-0.281
	s-0.638,1.02-1.969,1.094c0.006,0.748-0.007,1.626-0.75,2.594c-1.515,1.971-3.171,2.958-4.188,3.625
	c-1.016,0.666-0.974,1.117-0.125,1.969c0.402,0.402,1.939,1.939,2.5,2.5s1.015,1.078,1.781,0.594
	c2.493-1.574,3.228-2.979,3.469-4.312c0.076-0.045,1.317-0.818,2.812-1.656c0.849-0.477,1.09-1.459,1.188-2.406
	c0.081-0.785,0.044-1.566,0.031-2.188c2.391-1.654,5.508-3.793,8.688-5.875C23.414,8.07,22.963,6.295,22.594,5.531z M11.906,15.844
	c0.013,0.457,0.015,0.928-0.031,1.375c-0.086,0.829-0.332,1.457-0.688,1.656c-1.182,0.662-1.79,1.039-2.25,1.312
	c0.021-0.479,0.038-0.941,0.094-1.406c0.093,0.033,0.207,0.072,0.312,0.094c0.278,0.059,0.595,0.047,0.969,0
	c0.221-0.027,0.371-0.215,0.344-0.438c-0.027-0.221-0.212-0.371-0.438-0.344c-0.42,0.053-0.739-0.028-0.969-0.125
	c0.142-0.287,0.383-0.549,0.812-0.844C10.348,16.929,11.328,16.245,11.906,15.844z"/>
</svg>
