<?xml version="1.0" encoding="utf-8"?>
<!-- Generator: Adobe Illustrator 16.0.0, SVG Export Plug-In . SVG Version: 6.00 Build 0)  -->
<!DOCTYPE svg PUBLIC "-//W3C//DTD SVG 1.1//EN" "http://www.w3.org/Graphics/SVG/1.1/DTD/svg11.dtd">
<svg version="1.1" id="Layer_1" xmlns="http://www.w3.org/2000/svg" xmlns:xlink="http://www.w3.org/1999/xlink" x="0px" y="0px"
	 width="50px" height="50px" viewBox="0 0 50 50" enable-background="new 0 0 50 50" xml:space="preserve">
<path fill="#F5F9FF" d="M16,50c-4.486,0-8-3.514-8-8c-4.486,0-8-3.514-8-8s3.514-8,8-8c1.836,0,3.533,0.594,4.96,1.727l14.769-14.77
	C26.621,11.537,26,9.778,26,8c0-4.486,3.514-8,8-8s8,3.514,8,8c4.486,0,8,3.514,8,8s-3.514,8-8,8c-1.837,0-3.533-0.593-4.96-1.726
	L22.27,37.043C23.379,38.463,24,40.223,24,42C24,46.486,20.486,50,16,50z"/>
</svg>
