<?xml version="1.0" encoding="utf-8"?>
<!-- Generator: Adobe Illustrator 16.0.0, SVG Export Plug-In . SVG Version: 6.00 Build 0)  -->
<!DOCTYPE svg PUBLIC "-//W3C//DTD SVG 1.1//EN" "http://www.w3.org/Graphics/SVG/1.1/DTD/svg11.dtd">
<svg version="1.1" id="Layer_1" xmlns="http://www.w3.org/2000/svg" xmlns:xlink="http://www.w3.org/1999/xlink" x="0px" y="0px"
	 width="200px" height="200px" viewBox="0 0 200 200" enable-background="new 0 0 200 200" xml:space="preserve">
<path fill="#F5F9FF" d="M183.334,37.5c0,20.833-27.5,49.167-61.668,83.334C79.167,162.5,42.5,194.166,27.5,179.166
	C19.167,172.5,16.667,162.5,16.667,152.5c0-18.334,4.167-29.166,8.333-35.834c1.667-1.666,39.167,4.168,48.333-5
	c5-5-29.167-19.166-43.333-7.5C31.667,82.5,49.167,80,57.5,79.167c10.833-0.833,45,10.833,51.666,3.333
	c7.5-8.333-40.833-27.5-50.833-18.333C62.5,45.833,79.167,42.5,90.833,43.333c10,0.833,40,14.167,47.5,7.5
	c7.5-5.833-26.668-24.167-37.5-20c6.666-6.667,30-14.167,52.5-14.167C167.5,16.667,183.334,25,183.334,37.5z"/>
</svg>
