<?xml version="1.0" encoding="utf-8"?>
<!-- Generator: Adobe Illustrator 16.0.0, SVG Export Plug-In . SVG Version: 6.00 Build 0)  -->
<!DOCTYPE svg PUBLIC "-//W3C//DTD SVG 1.1//EN" "http://www.w3.org/Graphics/SVG/1.1/DTD/svg11.dtd">
<svg version="1.1" id="Layer_1" xmlns="http://www.w3.org/2000/svg" xmlns:xlink="http://www.w3.org/1999/xlink" x="0px" y="0px"
	 width="50px" height="50px" viewBox="0 0 50 50" enable-background="new 0 0 50 50" xml:space="preserve">
<path fill="#F5F9FF" d="M17,0c-4.962,0-9,4.038-9,9c0,0.088-0.001,0.163,0,0.25C3.945,10.123,1,13.729,1,18c0,4.962,4.038,9,9,9
	c0.299,0,0.592-0.031,0.875-0.062c0.006-0.001,0.026,0.001,0.031,0C12.771,29.492,15.748,31,19,31c2.854,0,5.561-1.193,7.406-3.25
	C27.77,28.566,29.361,29,31,29c2.258,0,4.469-0.877,6.156-2.438C38.081,26.861,39.018,27,40,27c4.963,0,9-4.038,9-9
	c0-4.481-3.305-8.292-7.656-8.938C39.693,4.866,35.521,2,31,2c-2.323,0-4.617,0.734-6.438,2.062C22.89,1.555,20.049,0,17,0z M23,11
	h2c0,4.962-4.038,9-9,9v-2C19.86,18,23,14.86,23,11z M37,13v2c-1.654,0-3,1.346-3,3h-2C32,15.243,34.243,13,37,13z M37.656,28.75
	c-1.639,1.236-3.584,1.987-5.594,2.188c-0.6,1.4-1.412,3.57-2.5,6.875l-1.344,4.031l-1.688-11.5
	c-0.948,0.766-1.989,1.371-3.125,1.812c-0.139,2.314-0.312,5.312-0.312,6.656v4.5l-1.906-4.094c-1.25-2.691-2.295-4.818-3.062-6.281
	C14.992,32.707,12.056,31.305,10,29c-0.316,0-0.628-0.035-0.938-0.062c3.403,3.835,9.031,11.494,9.031,20.062v1h13.344l0.156-0.844
	c1.635-10.07,6.143-16.849,8.906-20.188C40.331,28.977,40.171,29,40,29C39.189,29,38.424,28.915,37.656,28.75z"/>
</svg>
