<?xml version="1.0" encoding="utf-8"?>
<!-- Generator: Adobe Illustrator 16.0.0, SVG Export Plug-In . SVG Version: 6.00 Build 0)  -->
<!DOCTYPE svg PUBLIC "-//W3C//DTD SVG 1.1//EN" "http://www.w3.org/Graphics/SVG/1.1/DTD/svg11.dtd">
<svg version="1.1" id="Layer_1" xmlns="http://www.w3.org/2000/svg" xmlns:xlink="http://www.w3.org/1999/xlink" x="0px" y="0px"
	 width="26px" height="26px" viewBox="0 0 26 26" enable-background="new 0 0 26 26" xml:space="preserve">
<path fill="#F5F9FF" d="M16.156,0.281C16.125,0.29,16.094,0.3,16.062,0.312c-0.516,0.101-0.852,0.599-0.751,1.114
	c0.038,0.196,0.138,0.375,0.282,0.511l0.75,0.75c0.371,0.371,0.973,0.371,1.344,0s0.371-0.973,0-1.344l-0.75-0.75
	c-0.176-0.195-0.425-0.308-0.688-0.312C16.219,0.28,16.188,0.28,16.156,0.281z M19.188,0.312c-0.031,0.009-0.062,0.019-0.094,0.031
	c-0.516,0.101-0.852,0.599-0.751,1.114c0.038,0.196,0.138,0.375,0.282,0.511l1.719,1.688c0.283,0.442,0.871,0.571,1.312,0.288
	s0.57-0.871,0.287-1.312c-0.074-0.116-0.172-0.213-0.287-0.288l-1.688-1.719c-0.176-0.195-0.425-0.308-0.688-0.312
	C19.25,0.311,19.219,0.311,19.188,0.312z M22.312,1.969c1.626,1.981,0.61,4.132-3.719,8.906c-4.328,4.773-8.34,4.275-9.406,3.062
	c-0.127,1.011,0.63,2.273,0.25,3.031c-0.52,1.039-2.295,1.046-4.125,3.469c-1.522,2.016-2.356,4.483-1.562,5.156
	c0.946,0.805,2.723-0.133,4.812-2.25c2.079-2.105,2.197-4.612,2.781-5.188c2.688-2.643,3.947-0.08,9-4.969
	c4.039-3.907,4.5-6.746,4.5-8.25C24.844,2.517,23.104,2.033,22.312,1.969z M14.156,2.281C14.125,2.29,14.094,2.3,14.062,2.312
	c-0.516,0.101-0.851,0.599-0.751,1.114c0.038,0.196,0.137,0.375,0.282,0.511l0.75,0.75c0.371,0.371,0.973,0.371,1.344,0
	s0.371-0.973,0-1.344l-0.75-0.75c-0.176-0.195-0.425-0.308-0.688-0.312C14.219,2.28,14.188,2.28,14.156,2.281z M18.188,3.312
	c-0.031,0.009-0.062,0.019-0.094,0.031c-0.516,0.101-0.852,0.599-0.751,1.114c0.038,0.196,0.138,0.375,0.282,0.511l1.719,1.688
	c0.283,0.442,0.871,0.571,1.312,0.288s0.57-0.871,0.287-1.312c-0.074-0.116-0.172-0.213-0.287-0.288l-1.688-1.719
	c-0.176-0.195-0.425-0.308-0.688-0.312C18.25,3.311,18.219,3.311,18.188,3.312z M12.156,4.281C12.125,4.29,12.093,4.3,12.062,4.312
	c-0.515,0.101-0.851,0.599-0.751,1.114c0.038,0.196,0.137,0.375,0.282,0.511l0.75,0.75c0.371,0.371,0.973,0.371,1.344,0
	s0.371-0.973,0-1.344l0,0l-0.75-0.75c-0.176-0.195-0.425-0.308-0.688-0.312C12.219,4.28,12.188,4.28,12.156,4.281z M16.188,5.312
	c-0.031,0.009-0.062,0.019-0.094,0.031c-0.516,0.101-0.852,0.599-0.751,1.114c0.038,0.196,0.138,0.375,0.282,0.511l1.719,1.688
	c0.283,0.442,0.871,0.571,1.312,0.288s0.57-0.871,0.287-1.312c-0.074-0.116-0.172-0.213-0.287-0.288l-1.688-1.719
	c-0.176-0.195-0.425-0.308-0.688-0.312C16.25,5.311,16.219,5.311,16.188,5.312z M10.156,6.281C10.125,6.29,10.093,6.3,10.062,6.312
	C9.547,6.413,9.211,6.912,9.312,7.427C9.35,7.623,9.449,7.801,9.594,7.938l0.75,0.75c0.371,0.371,0.973,0.371,1.344,0
	s0.371-0.973,0-1.344l-0.75-0.75c-0.176-0.195-0.425-0.308-0.688-0.312C10.219,6.28,10.188,6.28,10.156,6.281z M14.188,7.312
	c-0.031,0.009-0.062,0.019-0.094,0.031c-0.516,0.101-0.851,0.599-0.751,1.114c0.038,0.196,0.137,0.375,0.282,0.511l1.719,1.688
	c0.283,0.442,0.871,0.571,1.312,0.288s0.57-0.871,0.287-1.312c-0.074-0.116-0.172-0.213-0.287-0.288l-1.688-1.719
	c-0.176-0.195-0.425-0.308-0.688-0.312C14.25,7.311,14.219,7.311,14.188,7.312z M12.188,9.312c-0.032,0.009-0.063,0.019-0.094,0.031
	c-0.515,0.101-0.851,0.599-0.751,1.114c0.038,0.196,0.137,0.375,0.282,0.511l1.719,1.688c0.283,0.442,0.871,0.571,1.312,0.288
	s0.57-0.871,0.287-1.312c-0.074-0.116-0.172-0.213-0.287-0.288l-1.688-1.719c-0.176-0.195-0.425-0.308-0.688-0.312
	C12.25,9.311,12.219,9.311,12.188,9.312z M8.781,10c-0.518,0.084-0.869,0.573-0.785,1.091c0.036,0.22,0.147,0.42,0.316,0.565
	L10,13.344c0.371,0.371,0.973,0.371,1.344,0s0.371-0.973,0-1.344l0,0l-1.688-1.688C9.48,10.118,9.231,10.005,8.969,10
	C8.906,9.994,8.844,9.994,8.781,10z"/>
</svg>
