<?xml version="1.0" encoding="utf-8"?>
<!-- Generator: Adobe Illustrator 16.0.0, SVG Export Plug-In . SVG Version: 6.00 Build 0)  -->
<!DOCTYPE svg PUBLIC "-//W3C//DTD SVG 1.1//EN" "http://www.w3.org/Graphics/SVG/1.1/DTD/svg11.dtd">
<svg version="1.1" id="Layer_1" xmlns="http://www.w3.org/2000/svg" xmlns:xlink="http://www.w3.org/1999/xlink" x="0px" y="0px"
	 width="26px" height="26px" viewBox="0 0 26 26" enable-background="new 0 0 26 26" xml:space="preserve">
<path fill="#F5F9FF" d="M25.656,4.094c-0.192,0.007-0.42,0.163-0.625,0.438c-0.409,0.549-3.01,4.5-6.156,4.5H8.781
	c-2.547,0-4.719,1.92-4.719,4.969c0,4.023,3,5,4,5h4.812c5.693,0,5.031-5.938,5.031-5.938h-1.781c0,0,0.422,3.938-2.844,3.938H8.062
	c-0.702,0-2-0.288-2-2.5c0-2.232,3.094-2.5,3.094-2.5h10.406c3.014,0,4.785,3.338,5.469,4.312c0.632,0.898,0.969,0.454,0.969,0
	V4.531C26,4.228,25.849,4.086,25.656,4.094z M0.812,7.594C0.384,7.68,0.08,8.063,0.094,8.5v4C0.094,13,0.5,13.406,1,13.406
	S1.906,13,1.906,12.5V12h0.906c0-1.869,1.594-3,1.594-3h-2.5V8.5c0.01-0.494-0.382-0.902-0.876-0.912
	C0.988,7.587,0.947,7.589,0.906,7.594C0.875,7.592,0.844,7.592,0.812,7.594z"/>
</svg>
