<?xml version="1.0" encoding="utf-8"?>
<!-- Generator: Adobe Illustrator 16.0.0, SVG Export Plug-In . SVG Version: 6.00 Build 0)  -->
<!DOCTYPE svg PUBLIC "-//W3C//DTD SVG 1.1//EN" "http://www.w3.org/Graphics/SVG/1.1/DTD/svg11.dtd">
<svg version="1.1" id="Layer_1" xmlns="http://www.w3.org/2000/svg" xmlns:xlink="http://www.w3.org/1999/xlink" x="0px" y="0px"
	 width="26px" height="26px" viewBox="0 0 26 26" enable-background="new 0 0 26 26" xml:space="preserve">
<path fill="#F5F9FF" d="M2.688,8C1.188,8,0,9.188,0,10.688V22c0,0.5,0.5,1,1,1h1c0.2-1.7,1.7-3.094,3.5-3.094S8.8,21.3,9,23h8
	c0.2-1.7,1.7-3.094,3.5-3.094S23.8,21.2,24,23c0.8,0,2-0.2,2-1.5v-4.688c0-0.5-0.112-1.1-0.312-1.5L24,10.688
	C23.5,8.987,22.513,8,20.312,8H2.688z M3.094,10h3.812C7.506,10,8,10.494,8,11.094v3.812C8,15.506,7.506,16,6.906,16H3.094
	C2.494,16,2,15.506,2,14.906v-3.812C2,10.494,2.494,10,3.094,10z M11.094,10h3.812c0.6,0,1.094,0.494,1.094,1.094v3.812
	c0,0.6-0.494,1.094-1.094,1.094h-3.812C10.494,16,10,15.506,10,14.906v-3.812C10,10.494,10.494,10,11.094,10z M19.094,10h2.094
	c0.8,0,1.3,0.494,1.5,1.094l1.219,3.406c0.3,0.8-0.2,1.5-1,1.5h-3.812C18.494,16,18,15.506,18,14.906v-3.812
	C18,10.494,18.494,10,19.094,10z M5.5,21C4.119,21,3,22.119,3,23.5S4.119,26,5.5,26S8,24.881,8,23.5S6.881,21,5.5,21z M20.5,21
	c-1.381,0-2.5,1.119-2.5,2.5s1.119,2.5,2.5,2.5s2.5-1.119,2.5-2.5S21.881,21,20.5,21z"/>
</svg>
