<svg xmlns="http://www.w3.org/2000/svg" width="26" height="26" viewBox="0 0 26 26">    <path d="M 2.6875 8 C 1.1875 8 5.9211895e-16 9.1875 0 10.6875 L 0 22 C 0 22.5 0.5 23 1 23 L 2 23 C 2.2 21.3 3.7 19.90625 5.5 19.90625 C 7.3 19.90625 8.8 21.3 9 23 L 17 23 C 17.2 21.3 18.7 19.90625 20.5 19.90625 C 22.3 19.90625 23.8 21.2 24 23 C 24.8 23 26 22.8 26 21.5 L 26 16.8125 C 26 16.3125 25.8875 15.7125 25.6875 15.3125 L 24 10.6875 C 23.5 8.9875 22.5125 8 20.3125 8 L 2.6875 8 z M 3.09375 10 L 6.90625 10 C 7.50625 10 8 10.49375 8 11.09375 L 8 14.90625 C 8 15.50625 7.50625 16 6.90625 16 L 3.09375 16 C 2.49375 16 2 15.50625 2 14.90625 L 2 11.09375 C 2 10.49375 2.49375 10 3.09375 10 z M 11.09375 10 L 14.90625 10 C 15.50625 10 16 10.49375 16 11.09375 L 16 14.90625 C 16 15.50625 15.50625 16 14.90625 16 L 11.09375 16 C 10.49375 16 10 15.50625 10 14.90625 L 10 11.09375 C 10 10.49375 10.49375 10 11.09375 10 z M 19.09375 10 L 21.1875 10 C 21.9875 10 22.4875 10.49375 22.6875 11.09375 L 23.90625 14.5 C 24.20625 15.3 23.70625 16 22.90625 16 L 19.09375 16 C 18.49375 16 18 15.50625 18 14.90625 L 18 11.09375 C 18 10.49375 18.49375 10 19.09375 10 z M 5.5 21 C 4.1192881 21 3 22.119288 3 23.5 C 3 24.880712 4.1192881 26 5.5 26 C 6.8807119 26 8 24.880712 8 23.5 C 8 22.119288 6.8807119 21 5.5 21 z M 20.5 21 C 19.119288 21 18 22.119288 18 23.5 C 18 24.880712 19.119288 26 20.5 26 C 21.880712 26 23 24.880712 23 23.5 C 23 22.119288 21.880712 21 20.5 21 z"></path></svg>