<?xml version="1.0" encoding="utf-8"?>
<!-- Generator: Adobe Illustrator 16.0.0, SVG Export Plug-In . SVG Version: 6.00 Build 0)  -->
<!DOCTYPE svg PUBLIC "-//W3C//DTD SVG 1.1//EN" "http://www.w3.org/Graphics/SVG/1.1/DTD/svg11.dtd">
<svg version="1.1" id="Layer_1" xmlns="http://www.w3.org/2000/svg" xmlns:xlink="http://www.w3.org/1999/xlink" x="0px" y="0px"
	 width="26px" height="26px" viewBox="0 0 26 26" enable-background="new 0 0 26 26" xml:space="preserve">
<path fill="#F5F9FF" d="M2.188,2C0.987,2,0,2.494,0,4.094C0,13.794,1.087,15.5,8.188,15.5c-5.1,0-5.875,3.612-5.375,4.812
	c1,2.5,3.175,4.688,4.875,4.688c0.645,0,4.029-1.902,5.312-6.094C14.283,23.098,17.668,25,18.312,25c1.7,0,3.875-2.188,4.875-4.688
	c0.5-1.2-0.275-4.812-5.375-4.812c7.1,0,8.188-1.706,8.188-11.406C26,2.494,25.013,2,23.812,2C21.244,2,14.802,7.496,13,12.844
	C11.198,7.496,4.756,2,2.188,2z"/>
</svg>
