<?xml version="1.0" encoding="utf-8"?>
<!-- Generator: Adobe Illustrator 16.0.0, SVG Export Plug-In . SVG Version: 6.00 Build 0)  -->
<!DOCTYPE svg PUBLIC "-//W3C//DTD SVG 1.1//EN" "http://www.w3.org/Graphics/SVG/1.1/DTD/svg11.dtd">
<svg version="1.1" id="Layer_1" xmlns="http://www.w3.org/2000/svg" xmlns:xlink="http://www.w3.org/1999/xlink" x="0px" y="0px"
	 width="50px" height="50px" viewBox="0 0 50 50" enable-background="new 0 0 50 50" xml:space="preserve">
<path fill="#F5F9FF" d="M5.05,48.91C5.049,48.91,5.05,48.91,5.05,48.91c-1.319,0-2.141-0.645-2.771-1.271
	c-2.393-2.399-0.688-5.643,7.015-13.346c5.768-5.77,9.693-8.783,12.29-10.777c1.223-0.939,2.107-1.619,2.709-2.222l21.109-21.11
	l0.537,1.475c3.668,10.066-3.076,17.891-5.23,20.049c-3,2.996-6.702,4.159-9.969,5.187c-2.52,0.791-4.694,1.476-6.032,2.813
	c-0.71,0.709-1.55,2.015-2.522,3.524c-1.603,2.492-3.598,5.593-6.478,8.476C10.727,46.688,7.439,48.91,5.05,48.91z"/>
</svg>
