<?xml version="1.0" encoding="utf-8"?>
<!-- Generator: Adobe Illustrator 16.0.0, SVG Export Plug-In . SVG Version: 6.00 Build 0)  -->
<!DOCTYPE svg PUBLIC "-//W3C//DTD SVG 1.1//EN" "http://www.w3.org/Graphics/SVG/1.1/DTD/svg11.dtd">
<svg version="1.1" id="Layer_1" xmlns="http://www.w3.org/2000/svg" xmlns:xlink="http://www.w3.org/1999/xlink" x="0px" y="0px"
	 width="24px" height="24px" viewBox="0 0 24 24" enable-background="new 0 0 24 24" xml:space="preserve">
<path fill="#F5F9FF" d="M12,0c-1.8,0-3.013,0.4-3.312,2c0,0-0.641,4.483-0.688,10.25l-0.812,0.062C6.388,12.413,6.2,12.1,6,11.5
	c0,0-0.513-2.612-0.812-3.812C4.987,6.587,4.7,5.9,4,6C3.2,6.1,3,6.8,3,8c0,1.6,0.312,4.594,0.312,4.594
	c0.2,3.1,1.694,3.506,3.594,3.406l1.156-0.156c0.085,2.104,0.254,4.272,0.594,6.406C4.903,22.773,3,24,3,24h18
	c0,0-1.955-1.271-5.812-1.781C16.809,12.756,15.094,2,15.094,2C14.693,0.1,13.7,0,12,0z M19.719,3
	c-0.577,0.138-0.731,1.031-0.906,1.906c-0.2,1-0.719,2.906-0.719,2.906c-0.2,0.6-0.388,0.781-1.188,0.781
	C16.906,9.594,17,10.7,17,12h0.094c1.8,0.2,3.419-0.413,3.719-3.312c0.1-1.2,0.188-2.6,0.188-4C21,3.487,20.8,3.1,20,3
	C19.9,2.987,19.801,2.98,19.719,3z"/>
</svg>
