<?xml version="1.0" encoding="utf-8"?>
<!-- Generator: Adobe Illustrator 16.0.0, SVG Export Plug-In . SVG Version: 6.00 Build 0)  -->
<!DOCTYPE svg PUBLIC "-//W3C//DTD SVG 1.1//EN" "http://www.w3.org/Graphics/SVG/1.1/DTD/svg11.dtd">
<svg version="1.1" id="Layer_1" xmlns="http://www.w3.org/2000/svg" xmlns:xlink="http://www.w3.org/1999/xlink" x="0px" y="0px"
	 width="24px" height="24px" viewBox="0 0 24 24" enable-background="new 0 0 24 24" xml:space="preserve">
<path fill="#F5F9FF" d="M13.438,0c-0.275,0-0.544,0.029-0.812,0.062c-0.183,0.022-0.352,0.056-0.531,0.094
	c-0.486,0.102-0.958,0.261-1.406,0.469c-0.304,0.141-0.595,0.281-0.875,0.469C9.77,1.122,9.73,1.158,9.688,1.188
	C9.554,1.281,9.408,1.364,9.281,1.469c-0.172,0.14-0.31,0.279-0.469,0.438v0.031c-0.005,0.006-0.026-0.005-0.031,0
	C8.764,1.955,8.766,1.982,8.75,2C8.646,2.104,8.125,2.594,8.125,2.594l0.656,0.625l1.281,1.312l0.656,0.656l0.594-0.625L11.375,4.5
	c0.396-0.396,0.905-0.64,1.438-0.75c0.204-0.042,0.416-0.062,0.625-0.062c0.353,0,0.699,0.067,1.031,0.188
	c0.021,0.008,0.041,0.023,0.062,0.031c0.113,0.045,0.237,0.096,0.344,0.156c0.025,0.014,0.038,0.048,0.062,0.062
	c0.027,0.017,0.066,0.014,0.094,0.031c0.074,0.047,0.149,0.102,0.219,0.156c0.08,0.064,0.176,0.114,0.25,0.188
	c0.288,0.288,0.48,0.631,0.625,1c0.045,0.112,0.098,0.226,0.125,0.344c0.013,0.05,0.021,0.105,0.031,0.156
	c0.012,0.065,0.023,0.122,0.031,0.188c0.017,0.126,0.031,0.246,0.031,0.375c0,0.377-0.082,0.754-0.219,1.094
	c-0.004,0.009,0.004,0.022,0,0.031C15.98,8.033,15.772,8.353,15.5,8.625l-0.844,0.844h-0.031l-1.281,1.312l-1.938,1.938L10.125,14
	h-0.031l-1.906,1.938H8.156l-1.25,1.281H6.875l-1.938,1.969l-2.219,2.219l2.594,2.562l1.25-1.25l1.594-1.594l1.312-1.312
	l1.938-1.938l1.25-1.281h0.031l1.906-1.938h0.031l1.281-1.312h0.031l1.906-1.938h0.031l0.188-0.219
	c0.338-0.338,0.653-0.701,0.906-1.094c0.026-0.041,0.037-0.084,0.062-0.125c0.062-0.103,0.131-0.207,0.188-0.312
	c0.101-0.188,0.199-0.397,0.281-0.594c0.117-0.284,0.205-0.576,0.281-0.875C19.904,7.708,19.988,7.224,20,6.719
	c0.001-0.052,0-0.104,0-0.156c0-0.23-0.008-0.462-0.031-0.688c-0.021-0.201-0.055-0.397-0.094-0.594
	c-0.004-0.02,0.004-0.043,0-0.062c-0.04-0.194-0.1-0.374-0.156-0.562c-0.007-0.022-0.024-0.04-0.031-0.062
	c-0.047-0.147-0.1-0.294-0.156-0.438c-0.023-0.061-0.037-0.128-0.062-0.188c-0.196-0.455-0.451-0.878-0.75-1.281
	c-0.152-0.205-0.323-0.405-0.5-0.594c-0.05-0.053-0.104-0.104-0.156-0.156c-0.006-0.005,0.006-0.026,0-0.031
	c-0.155-0.155-0.301-0.3-0.469-0.438c-0.092-0.075-0.187-0.149-0.281-0.219c-0.081-0.06-0.166-0.101-0.25-0.156
	c-0.197-0.132-0.385-0.235-0.594-0.344c-0.441-0.23-0.922-0.408-1.406-0.531c-0.27-0.069-0.534-0.122-0.812-0.156
	C13.982,0.03,13.711,0,13.438,0z M14.469,1.156c0.506,0.094,0.98,0.27,1.438,0.5l-0.844,1.312c-0.478-0.208-0.996-0.332-1.531-0.344
	L14.469,1.156z M12.25,1.188l0.281,1.562c-0.513,0.118-0.987,0.326-1.406,0.625l-0.25-1.656C11.31,1.489,11.767,1.293,12.25,1.188z
	 M17.719,3.156c0.311,0.388,0.588,0.8,0.781,1.25l-1.406,0.656c-0.186-0.459-0.429-0.882-0.781-1.25L17.719,3.156z M17.375,6.344
	l1.562,0.219c0,0.506-0.088,0.994-0.219,1.469l-1.531-0.219c0.131-0.396,0.219-0.821,0.219-1.25
	C17.406,6.488,17.379,6.417,17.375,6.344z M15.969,9.656l1.812,0.281c-0.139,0.178-0.307,0.338-0.469,0.5l-0.781,0.781l-1.875-0.25
	L15.969,9.656z M12.719,12.906l1.875,0.25l-1.312,1.312l-1.875-0.281L12.719,12.906z M9.469,16.125l1.906,0.281l-1.281,1.281
	l-1.906-0.281L9.469,16.125z M6.219,19.375l1.938,0.25l-1.312,1.312l-1.906-0.281L6.219,19.375z"/>
</svg>
