<?xml version="1.0" encoding="utf-8"?>
<!-- Generator: Adobe Illustrator 16.0.0, SVG Export Plug-In . SVG Version: 6.00 Build 0)  -->
<!DOCTYPE svg PUBLIC "-//W3C//DTD SVG 1.1//EN" "http://www.w3.org/Graphics/SVG/1.1/DTD/svg11.dtd">
<svg version="1.1" id="Layer_1" xmlns="http://www.w3.org/2000/svg" xmlns:xlink="http://www.w3.org/1999/xlink" x="0px" y="0px"
	 width="24px" height="24px" viewBox="0 0 24 24" enable-background="new 0 0 24 24" xml:space="preserve">
<path fill="#F5F9FF" d="M17.281,0.094c0,0-0.713,2.368-1.469,4.5c-0.579-0.144-1.174-0.188-1.5-0.188
	c-1.186,0-4.243,0.273-6.938,2.969C5.397,9.352,4.728,11.535,4.5,13c-0.17,1.088-0.146,2.1,0.062,2.875
	c-1.426,0.481-4.469,1.5-4.469,1.5L2,19.438l-1.469,3.938L4.594,22l2.125,1.906c0,0,0.713-2.368,1.469-4.5
	c0.581,0.145,1.173,0.188,1.5,0.188c1.187,0,4.246-0.277,6.938-2.969c1.979-1.977,2.648-4.158,2.875-5.625
	c0.168-1.087,0.146-2.1-0.062-2.875c1.426-0.481,4.469-1.5,4.469-1.5L22,4.562l1.469-3.938L19.406,2L17.281,0.094z M22.094,2.062
	l-1.562,2.75l1.594,1.312l-3.438,0.719L17.25,5.406l0.625-3.312l1.156,1.469L22.094,2.062z M11.25,7.844h1.5l-0.281,3.406
	l2.75-1.969l0.75,1.281L12.781,12l3.188,1.438l-0.75,1.281l-2.812-2.031l0.344,3.469h-1.5l0.344-3.375l-2.812,1.938l-0.75-1.281
	L11.062,12l-3.031-1.438l0.75-1.281l2.75,1.906L11.25,7.844z M5.312,17.156l1.438,1.438l-0.625,3.312l-1.156-1.469l-3.062,1.5
	l1.562-2.75l-1.594-1.312L5.312,17.156z"/>
</svg>
