<svg xmlns="http://www.w3.org/2000/svg" width="24" height="24" viewBox="0 0 24 24">    <path d="M 12 0 C 12 0 10 3.36725 10 5.03125 C 10 6.58625 10.77625 7.84 11.78125 8 C 11.30625 7.854 10.96875 7.22675 10.96875 6.46875 C 10.96875 5.60175 12 3.84375 12 3.84375 C 12 3.84375 13.03125 5.60175 13.03125 6.46875 C 13.03125 7.22675 12.69375 7.854 12.21875 8 C 13.22375 7.84 14 6.58625 14 5.03125 C 14 3.36725 12 0 12 0 z M 9 8 C 8.283 8 8 8.422 8 9 C 8 9.812 9 10.381 9 12 C 9 17.606 8.03125 17.0995 8.03125 18.0625 C 8.03125 18.5725 8.45 18.96875 9 18.96875 L 9 20 L 15 20 L 15 15.8125 C 15 15.8125 13.894012 15.475997 13.6875 14.09375 C 13.945133 14.985129 15 14.96875 15 14.96875 C 15.55 14.96875 15.96875 14.54125 15.96875 14.03125 C 15.96875 13.07125 15 13.0005 15 11.5625 C 15 10.7965 15.96875 10.406 15.96875 10 C 15.96875 9.49 15.694 9 14 9 C 11.482 9 9.717 8 9 8 z M 4 21 L 7.125 24 L 16.875 24 L 20 21 L 4 21 z"></path></svg>