<?xml version="1.0" encoding="utf-8"?>
<!-- Generator: Adobe Illustrator 16.0.0, SVG Export Plug-In . SVG Version: 6.00 Build 0)  -->
<!DOCTYPE svg PUBLIC "-//W3C//DTD SVG 1.1//EN" "http://www.w3.org/Graphics/SVG/1.1/DTD/svg11.dtd">
<svg version="1.1" id="Layer_1" xmlns="http://www.w3.org/2000/svg" xmlns:xlink="http://www.w3.org/1999/xlink" x="0px" y="0px"
	 width="24px" height="24px" viewBox="0 0 24 24" enable-background="new 0 0 24 24" xml:space="preserve">
<path fill="#F5F9FF" d="M12,0c0,0-2,3.367-2,5.031C10,6.586,10.776,7.84,11.781,8c-0.475-0.146-0.812-0.773-0.812-1.531
	C10.969,5.602,12,3.844,12,3.844s1.031,1.758,1.031,2.625c0,0.758-0.338,1.385-0.812,1.531C13.224,7.84,14,6.586,14,5.031
	C14,3.367,12,0,12,0z M9,8C8.283,8,8,8.422,8,9c0,0.812,1,1.381,1,3c0,5.605-0.969,5.1-0.969,6.062c0,0.51,0.419,0.906,0.969,0.906
	V20h6v-4.188c0,0-1.105-0.336-1.312-1.719C13.945,14.985,15,14.969,15,14.969c0.55,0,0.969-0.428,0.969-0.938
	C15.969,13.071,15,13,15,11.562c0-0.766,0.969-1.156,0.969-1.562c0-0.51-0.275-1-1.969-1C11.482,9,9.717,8,9,8z M4,21l3.125,3h9.75
	L20,21H4z"/>
</svg>
