<?xml version="1.0" encoding="utf-8"?>
<!-- Generator: Adobe Illustrator 16.0.0, SVG Export Plug-In . SVG Version: 6.00 Build 0)  -->
<!DOCTYPE svg PUBLIC "-//W3C//DTD SVG 1.1//EN" "http://www.w3.org/Graphics/SVG/1.1/DTD/svg11.dtd">
<svg version="1.1" id="Layer_1" xmlns="http://www.w3.org/2000/svg" xmlns:xlink="http://www.w3.org/1999/xlink" x="0px" y="0px"
	 width="24px" height="24px" viewBox="0 0 24 24" enable-background="new 0 0 24 24" xml:space="preserve">
<path fill="#F5F9FF" d="M20.594,2.938C20.464,2.939,20.312,2.95,20.188,3c-0.2,0.1-0.275,0.388-0.375,0.688
	c-0.1,0.5-0.412,0.9-0.812,1C15.281,6.308,8.927,6.323,5.656,7.531C5.584,7.333,5.501,7.168,5.406,7
	C5.009,6.293,4.438,5.906,4.062,5.656S3.509,5.293,3.344,5S3,4.15,3,3H1c0,1.35,0.196,2.293,0.594,3s0.969,1.094,1.344,1.344
	S3.491,7.707,3.656,8c0.07,0.124,0.127,0.319,0.188,0.562c-1.636,1.3-2.806,3.382-2.812,5.375C0.892,13.936,0.729,13.945,0.594,14
	c-0.5,0.2-0.7,0.812-0.5,1.312l0.812,1.781c0.2,0.5,0.781,0.7,1.281,0.5c0.14-0.056,0.284-0.143,0.375-0.25
	c0.452,0.391,0.953,0.729,1.531,0.969C3.994,18.013,4,17.8,4,17.5c0-3,2.5-5.5,5.5-5.5c2.2,0,4.1,1.294,5,3.094
	c2.2-1.9,4.713-4.087,6.812-5.188c0.4-0.2,0.881-0.206,1.281,0.094c0.3,0.2,0.612,0.288,0.812,0.188c0.5-0.2,0.7-0.781,0.5-1.281
	L21.5,3.5C21.35,3.125,20.982,2.933,20.594,2.938z M9.5,13C7,13,5,15,5,17.5S7,22,9.5,22s4.5-2,4.5-4.5S12,13,9.5,13z M9.5,15
	c1.4,0,2.5,1.1,2.5,2.5S10.9,20,9.5,20S7,18.9,7,17.5S8.1,15,9.5,15z M9.5,16C8.671,16,8,16.672,8,17.5S8.671,19,9.5,19
	s1.5-0.672,1.5-1.5S10.329,16,9.5,16z"/>
</svg>
