<?xml version="1.0" encoding="utf-8"?>
<!-- Generator: Adobe Illustrator 16.0.0, SVG Export Plug-In . SVG Version: 6.00 Build 0)  -->
<!DOCTYPE svg PUBLIC "-//W3C//DTD SVG 1.1//EN" "http://www.w3.org/Graphics/SVG/1.1/DTD/svg11.dtd">
<svg version="1.1" id="Layer_1" xmlns="http://www.w3.org/2000/svg" xmlns:xlink="http://www.w3.org/1999/xlink" x="0px" y="0px"
	 width="200px" height="200px" viewBox="0 0 200 200" enable-background="new 0 0 200 200" xml:space="preserve">
<path fill="#F5F9FF" d="M61.539,46.154c-4.616,0-8.366,2.26-9.135,4.567c0,0-14.039,18.51-20.192,26.202
	c-5.384,7.692-5.336,7.692-12.259,7.692H7.692C3.077,84.615,0,87.692,0,92.308v38.462c0,4.615,3.077,7.691,7.692,7.691h15.385
	c1.538-13.076,13.077-23.797,26.923-23.797s25.385,10.721,26.923,23.797h46.154c1.538-13.076,13.077-23.797,26.923-23.797
	s25.385,9.951,26.923,23.797h15.385c4.615,0,7.692-3.076,7.692-7.691v-15.385c0-7.692-7.692-30.77-38.461-30.77
	c-6.924,0-7.02,0.048-13.943-8.413c-6.153-7.692-20.673-25.481-20.673-25.481c-2.308-2.308-6.923-4.567-11.538-4.567H61.539z
	 M63.942,61.539h20.673v23.077H44.711l16.106-21.634C60.817,62.981,63.173,61.539,63.942,61.539z M100,61.539h12.26
	c2.308,0,5.529,1.634,5.529,2.404l16.826,20.673H100V61.539z M50,124.52c-9.771,0-17.789,8.018-17.789,17.788
	c0,9.771,8.018,17.788,17.789,17.788s17.789-8.017,17.789-17.788C67.789,132.537,59.771,124.52,50,124.52z M150,124.52
	c-9.771,0-17.789,8.018-17.789,17.788c0,9.771,8.018,17.788,17.789,17.788s17.789-8.017,17.789-17.788
	C167.789,132.537,159.771,124.52,150,124.52z"/>
</svg>
