<?xml version="1.0" encoding="utf-8"?>
<!-- Generator: Adobe Illustrator 16.0.0, SVG Export Plug-In . SVG Version: 6.00 Build 0)  -->
<!DOCTYPE svg PUBLIC "-//W3C//DTD SVG 1.1//EN" "http://www.w3.org/Graphics/SVG/1.1/DTD/svg11.dtd">
<svg version="1.1" id="Layer_1" xmlns="http://www.w3.org/2000/svg" xmlns:xlink="http://www.w3.org/1999/xlink" x="0px" y="0px"
	 width="24px" height="24px" viewBox="0 0 24 24" enable-background="new 0 0 24 24" xml:space="preserve">
<path fill="#F5F9FF" d="M14.062-0.031C14.031-0.039,14-0.025,14,0c0,0.1,0.206,0.188-0.094,0.188c-0.4,0-0.894,0.006-1.094,0.406
	c-0.1,0.3-0.106,0.606,0.094,0.906s0.706,0.487,0.906,0.688c-0.4-0.1-1.2,0.006-1.5,0.406c-0.6,0.6,0.6,0.994,1,1.094
	c-0.4,0.1-0.425,0.425-0.125,0.625c0.2,0.2,0.606,0.288,0.906,0.188c-0.2,0.2-0.3,0.487,0,0.688c0.2,0.2,0.612,0.019,0.812,0.219
	c-0.1,0-0.119,0.094-0.219,0.094C14.688,5.7,14.9,5.8,15,6c0.4,0.7-0.013,2.013-0.312,2.812c-0.012,0.021-0.02,0.042-0.031,0.062
	C14.428,9.062,14.182,9.24,14,9.406c-2.837-2.742-4.906-2.219-4.906-2.219s-3.487,4.406-3.188,4.906
	c0.5,0.3,1.594,0.818,2.594,2.719c-1.5-1.1-3-1.419-3.5-1.219C4.6,13.693-0.3,22.5,0,24c1.1,0.3,4.913-1.6,8.812-4
	C9.112,19.8,8.5,18.487,8,17.688c1.3,0.5,2,1.625,2,1.625c0.6,0.1,3.307-1.6,3.906-2.5c0.1-0.2-0.106-1.506-0.906-2.406
	c1.2,0,2.188,1.5,2.188,1.5c0.9-0.6,1.625-1,1.625-1s0.441-1.985-2.219-4.906c0.166-0.182,0.345-0.427,0.531-0.656
	c0.021-0.012,0.041-0.02,0.062-0.031C15.987,9.013,17.3,8.6,18,9c0.2,0.1,0.3,0.312,0.5,0.312c0-0.1,0.094-0.119,0.094-0.219
	c0.2,0.2,0.019,0.612,0.219,0.812c0.2,0.3,0.487,0.2,0.688,0c-0.1,0.3-0.013,0.706,0.188,0.906c0.2,0.3,0.525,0.275,0.625-0.125
	c0.1,0.4,0.494,1.6,1.094,1c0.4-0.3,0.506-1.1,0.406-1.5c0.2,0.2,0.388,0.706,0.688,0.906s0.606,0.194,0.906,0.094
	c0.4-0.2,0.406-0.694,0.406-1.094C23.812,9.794,23.9,10,24,10s-0.112-0.3-0.312-0.5C23.287,9,23.8,9.288,24,9.188
	c0.2-0.2-0.3-0.587-0.5-0.688c-0.2-0.2-0.606-0.406-0.906-0.406C22.693,7.994,23,8.013,23,7.812s-0.4-0.406-0.5-0.406
	C22.2,7.206,21.994,7.1,21.594,7h-0.781c0.1-0.1,0.182-0.087,0.281-0.188c-0.3-0.4-1.481-0.206-1.781,0.094
	c0.1-0.2,0.175-0.312-0.125-0.312c-0.2,0-0.394,0.094-0.594,0.094c-0.308,0.095-0.59,0.227-0.875,0.344
	c1.93-1.26,2.578-0.875,3.281-1.438c0.3-0.2,0.013-0.4-0.188-0.5c0.3,0,0.575-0.094,0.875-0.094c0.4-0.1,0.825-0.106,1.125-0.406
	c0.1-0.3,0.287-0.606,0.188-0.906s-0.394-0.181-0.594-0.281c0.5-0.1,1.006-0.2,1.406-0.5c0.1-0.1,0.188-0.3,0.188-0.5
	S23.794,1.9,23.594,2c0.4-0.5,0.4-1.288,0-1.688c-0.6-0.6-1.281-0.219-1.781,0.281C21.912,0.394,21.8,0.1,21.5,0
	s-0.487,0.087-0.688,0.188C20.513,0.487,20.5,1,20.5,1.5c-0.3-0.5-0.894-0.312-1.094,0.188c-0.2,0.4-0.193,0.812-0.094,1.312
	c-0.2-0.2-0.612-0.206-0.812,0.094c-0.525,0.591-0.516,1.541-1.531,3.188c0.117-0.285,0.248-0.567,0.344-0.875
	c0-0.2,0.094-0.394,0.094-0.594c0-0.3-0.112-0.225-0.312-0.125c0.3-0.3,0.494-1.481,0.094-1.781c-0.1,0.1-0.088,0.181-0.188,0.281
	V2.406c-0.1-0.4-0.206-0.606-0.406-0.906c0-0.1-0.206-0.5-0.406-0.5s-0.182,0.306-0.281,0.406c0-0.3-0.206-0.706-0.406-0.906
	c-0.1-0.2-0.487-0.7-0.688-0.5C14.713,0.2,15,0.712,14.5,0.312C14.35,0.163,14.156-0.008,14.062-0.031z"/>
</svg>
