<?xml version="1.0" encoding="utf-8"?>
<!-- Generator: Adobe Illustrator 16.0.0, SVG Export Plug-In . SVG Version: 6.00 Build 0)  -->
<!DOCTYPE svg PUBLIC "-//W3C//DTD SVG 1.1//EN" "http://www.w3.org/Graphics/SVG/1.1/DTD/svg11.dtd">
<svg version="1.1" id="Layer_1" xmlns="http://www.w3.org/2000/svg" xmlns:xlink="http://www.w3.org/1999/xlink" x="0px" y="0px"
	 width="50px" height="50px" viewBox="0 0 50 50" enable-background="new 0 0 50 50" xml:space="preserve">
<path fill="#F5F9FF" d="M17.188-0.031c-0.938,0.12-1.776,0.757-2.125,1.688c-0.012,0.033-0.022,0.06-0.031,0.094
	C14.823,2.554,14.189,5,8,5c-4.486,0-8,3.514-8,8c0,6.267,4.786,8.476,8,8.906V46.5c0,1.963,1.538,3.5,3.5,3.5s3.5-1.537,3.5-3.5V31
	c0.13-0.843,4.048-3,8-3c3.951,0,7.869,2.167,8,3v15.5c0,1.963,1.537,3.5,3.5,3.5s3.5-1.537,3.5-3.5V32c0-0.552,0.448-1,1-1
	s1,0.448,1,1v14.5c0,1.963,1.537,3.5,3.5,3.5s3.5-1.537,3.5-3.5V22.375C45.271,23.401,43.214,24,41,24c-6.064,0-11-4.486-11-10
	v-1.156C27.723,12.314,24.938,12,22,12c-3.848,0-7.911,1.684-10.875,2.906C9.869,15.424,8.449,16,8,16c-1.654,0-3-1.346-3-3
	s1.346-3,3-3c8.192,0,10.977-3.699,11.875-6.844c0.328-1.31-0.358-2.619-1.625-3.094c-0.035-0.013-0.057-0.021-0.094-0.031
	C17.835-0.049,17.5-0.071,17.188-0.031z M32.906,3c-0.098,0.009-0.188,0.024-0.281,0.062C32.251,3.217,32,3.596,32,4v10
	c0,4.411,4.037,8,9,8s9-3.589,9-8V4c0-0.404-0.251-0.783-0.625-0.938C49,2.908,48.567,2.994,48.281,3.281l-3.5,3.531
	C43.533,6.287,42.241,6,41,6c-1.262,0-2.616,0.28-3.781,0.781l-3.5-3.5C33.504,3.066,33.198,2.972,32.906,3z M37.5,11
	c0.828,0,1.5,0.671,1.5,1.5S38.328,14,37.5,14S36,13.329,36,12.5S36.672,11,37.5,11z M44.5,11c0.828,0,1.5,0.671,1.5,1.5
	S45.328,14,44.5,14S43,13.329,43,12.5S43.672,11,44.5,11z"/>
</svg>
