<?xml version="1.0" encoding="utf-8"?>
<!-- Generator: Adobe Illustrator 16.0.0, SVG Export Plug-In . SVG Version: 6.00 Build 0)  -->
<!DOCTYPE svg PUBLIC "-//W3C//DTD SVG 1.1//EN" "http://www.w3.org/Graphics/SVG/1.1/DTD/svg11.dtd">
<svg version="1.1" id="Layer_1" xmlns="http://www.w3.org/2000/svg" xmlns:xlink="http://www.w3.org/1999/xlink" x="0px" y="0px"
	 width="50px" height="50px" viewBox="0 0 50 50" enable-background="new 0 0 50 50" xml:space="preserve">
<path fill="#F5F9FF" d="M48.312,0L43.5,4.312L41.688,2.5C41.388,2.2,41,2,40.5,2c-0.8,0-1.406,0.794-1.406,1.594s0.7,1.5,1.5,1.5
	C40.693,5.094,40.9,5,41,5l0.812,0.812l-0.969,0.844L38.688,4.5C38.388,4.2,38,4,37.5,4c-0.8,0-1.406,0.794-1.406,1.594
	s0.7,1.5,1.5,1.5C37.693,7.094,37.9,7,38,7l1.156,1.156l-5.531,4.938L37,16.281l6.75-7.531L45,10c0,0.1-0.094,0.306-0.094,0.406
	c0,0.8,0.699,1.5,1.5,1.5c0.8,0,1.5-0.7,1.5-1.5c0.1-0.4-0.106-0.794-0.406-1.094l-2.25-2.25l0.844-0.969L47,7
	c0,0.1-0.094,0.306-0.094,0.406c0,0.8,0.699,1.5,1.5,1.5C49.206,8.906,50,8.3,50,7.5c0-0.5-0.2-0.888-0.5-1.188l-1.906-1.906
	L50,1.688L48.312,0z M37,16.281l-9.188,10.312l-4.406-4.406l10.219-9.094l-0.156-0.156C31.215,10.983,28.861,10,26.5,10
	c-1.858,0-3.613,0.606-5.219,1.812c-0.566,0.44-1.403,1.013-2.375,1.688c-0.526,0.365-1.097,0.77-1.688,1.188
	c-0.234,0.166-0.376,0.434-0.406,0.719c-0.031,0.286,0.056,0.569,0.25,0.781c1.131,1.239,1.304,2.633-1.562,5.5
	C13.925,23.261,12.702,24,11.688,24c-0.61,0-1.171-0.282-1.875-0.906c-0.41-0.41-0.507-0.652-0.531-0.75
	c-0.084-0.336-0.356-0.583-0.688-0.688c-0.33-0.104-0.672-0.038-0.938,0.188c-1.389,1.19-2.832,2.425-4.062,3.656
	c-2.481,2.48-3.728,5.246-3.688,8.25c0.043,3.287,1.67,6.672,4.656,9.812l0.938-1.25l8.188-9.125l3.125,3.125L7.688,44.5
	l-1.25,0.938C9.653,48.424,13.09,50,16.406,50c2.93,0,5.644-1.236,8.094-3.688c1.369-1.367,2.582-2.715,3.688-4.094
	c0.188-0.236,0.254-0.548,0.188-0.844c-0.064-0.295-0.262-0.521-0.531-0.656c-0.3-0.148-0.615-0.396-0.938-0.719
	c-1.546-1.546-1.182-2.984,1.406-5.688c2.496-2.496,3.967-2.933,5.531-1.562c0.213,0.188,0.502,0.285,0.781,0.25
	c0.281-0.033,0.523-0.207,0.688-0.438c0.415-0.589,0.824-1.131,1.188-1.656c0.676-0.975,1.257-1.812,1.719-2.406
	c2.727-3.75,2.339-8.149-1.125-12.125L37,16.281z M6.438,45.438C6.113,45.136,5.789,44.83,5.469,44.5
	c-0.326-0.309-0.608-0.625-0.906-0.938L0,49.688L0.312,50L6.438,45.438z"/>
</svg>
