<?xml version="1.0" encoding="utf-8"?>
<!-- Generator: Adobe Illustrator 16.0.0, SVG Export Plug-In . SVG Version: 6.00 Build 0)  -->
<!DOCTYPE svg PUBLIC "-//W3C//DTD SVG 1.1//EN" "http://www.w3.org/Graphics/SVG/1.1/DTD/svg11.dtd">
<svg version="1.1" id="Layer_1" xmlns="http://www.w3.org/2000/svg" xmlns:xlink="http://www.w3.org/1999/xlink" x="0px" y="0px"
	 width="24px" height="24px" viewBox="0 0 24 24" enable-background="new 0 0 24 24" xml:space="preserve">
<path fill="#F5F9FF" d="M20,0.094l-1.094,1.312l-0.906-1l-0.594,1.781l-1.094-0.281L16,3.594l-1.094-0.281l-0.312,1.781L13.5,4.812
	l-0.312,1.781l-1.094-0.281L11.594,8L12.5,8.906L18.406,3c0.8-0.8,2.106-0.8,2.906,0s0.8,2.106,0,2.906l-5.906,5.906l0.906,0.875
	l1.281-0.188V11h1.5V9.5h1.5V8h1.5V6.5h1.312l-0.5-1.312l1-0.375l-1.594-1L23.406,2.5h-1.719L22.094,1L20.5,1.406L20,0.094z
	 M3.625,6.969C3.271,6.959,2.898,7.042,2.562,7.188C2.448,7.216,2.341,7.27,2.25,7.344C2.123,7.408,2.015,7.505,1.938,7.625
	C1.142,8.413,0.947,9.626,1.5,10.594c0.033,0.068,0.075,0.131,0.125,0.188c-0.116-0.116-0.005-0.035,0.062,0.062
	s0.175,0.245,0.281,0.406c0.211,0.322,0.458,0.746,0.719,1.156C3,12.898,3.116,13.064,3.312,13.375L3,13.688
	c-0.6,0.6-0.6,1.619,0,2.219l6.188,6.188l6.219-6.188c0.6-0.6,0.6-1.619,0-2.219L9.188,7.5c0,0-0.788,0.688-1.688,1.688
	c0.3,0.4,0.606,0.913,0.906,1.312c1,1.5,1.994,2.894,2.094,3.094c0.5,0.7,0.312,1.619-0.188,2.219C10.212,15.912,10.1,16,10,16
	c-0.8,0.5-1.906,0.3-2.406-0.5c-0.1-0.2-1.1-1.6-2-3C5.294,12.3,5.2,11.987,5,11.688l-0.531,0.531
	c-0.175-0.282-0.19-0.349-0.406-0.688c-0.264-0.414-0.562-0.822-0.781-1.156C3.171,10.208,3.08,10.054,3,9.938
	C2.967,9.89,2.929,9.847,2.906,9.812c-0.18-0.315-0.098-0.908,0.25-1.156c0.021-0.009,0.042-0.02,0.062-0.031
	c0.328-0.1,0.812,0.036,1.031,0.344C4.258,8.98,4.272,9.015,4.281,9.031C4.322,9.102,4.347,9.154,4.406,9.25
	C4.525,9.441,4.687,9.712,4.875,10c0.377,0.576,0.88,1.298,1.375,2.031s0.986,1.47,1.375,2.031c0.194,0.281,0.373,0.51,0.5,0.688
	c0.063,0.09,0.111,0.158,0.156,0.219s0.038,0.068,0.156,0.188c0.277,0.344,0.781,0.398,1.125,0.121s0.398-0.781,0.121-1.125
	c-0.036-0.045-0.077-0.085-0.121-0.121c-0.033-0.044-0.065-0.104-0.125-0.188c-0.119-0.168-0.308-0.41-0.5-0.688
	c-0.383-0.555-0.883-1.302-1.375-2.031s-0.974-1.435-1.344-2C6.034,8.843,5.89,8.58,5.781,8.406C5.733,8.33,5.683,8.294,5.656,8.25
	C5.629,8.167,5.622,8.149,5.625,8.156C5.608,8.113,5.587,8.071,5.562,8.031c-0.375-0.526-0.917-0.872-1.5-1
	C3.917,6.999,3.774,6.973,3.625,6.969z M1.594,16.594L1.188,17l-0.031,0.031c-1.55,1.586-1.551,4.165,0,5.75l0.031,0.031
	c1.593,1.593,4.22,1.593,5.812,0l0.406-0.406L6,21l-0.406,0.406c-0.807,0.807-2.193,0.807-3,0s-0.807-2.193,0-3L3,18L1.594,16.594z"
	/>
</svg>
