<?xml version="1.0" encoding="utf-8"?>
<!-- Generator: Adobe Illustrator 16.0.0, SVG Export Plug-In . SVG Version: 6.00 Build 0)  -->
<!DOCTYPE svg PUBLIC "-//W3C//DTD SVG 1.1//EN" "http://www.w3.org/Graphics/SVG/1.1/DTD/svg11.dtd">
<svg version="1.1" id="Layer_1" xmlns="http://www.w3.org/2000/svg" xmlns:xlink="http://www.w3.org/1999/xlink" x="0px" y="0px"
	 width="50px" height="50px" viewBox="0 0 50 50" enable-background="new 0 0 50 50" xml:space="preserve">
<path fill="#F5F9FF" d="M16.188,4.406c-0.049-0.002-0.077,0.025-0.125,0.031c-0.066,0.007-0.154,0.01-0.219,0.031
	c-0.017,0.005-0.015-0.006-0.031,0C15.81,4.47,15.785,4.498,15.781,4.5C5.39,7.858,1.312,16.472,0.312,19h27.031
	c0.816-0.996,2.863-1,3.656-1s2.84,0.004,3.656,1h9.625h4.938L16.562,4.5C16.444,4.447,16.314,4.411,16.188,4.406z M21.938,9.094
	l5,2.219C26.645,12.272,25.004,13,23,13c-2.209,0-4-0.896-4-2C19,10.081,20.248,9.327,21.938,9.094z M0,21v21.531
	c0,1.479,1.15,2.625,2.625,2.625c0.042,0,0.109,0.002,0.156,0c0.025,0,0.037,0.002,0.062,0l44.469-3.344
	C48.797,41.698,50,40.424,50,38.938v-6.812c0-0.427-0.283-0.83-0.688-0.969C49.289,31.146,47,30.348,47,28.531
	s2.293-2.649,2.312-2.656C49.72,25.738,50,25.367,50,24.938V21h-1H34.844c-0.445,1.722-1.982,3-3.844,3s-3.398-1.278-3.844-3H0z
	 M11,24c2.761,0,5,1.792,5,4s-2.239,4-5,4s-5-1.792-5-4S8.239,24,11,24z M37.5,31c1.934,0,3.5,1.342,3.5,3c0,1.654-1.566,3-3.5,3
	c-1.93,0-3.5-1.346-3.5-3C34,32.342,35.57,31,37.5,31z M24,33c3.314,0,6,2.341,6,5.219c0,1.109-0.412,2.125-1.094,2.969
	l-9.156,0.688C18.673,40.932,18,39.652,18,38.219C18,35.341,20.687,33,24,33z"/>
</svg>
