<?xml version="1.0" encoding="utf-8"?>
<!-- Generator: Adobe Illustrator 16.0.0, SVG Export Plug-In . SVG Version: 6.00 Build 0)  -->
<!DOCTYPE svg PUBLIC "-//W3C//DTD SVG 1.1//EN" "http://www.w3.org/Graphics/SVG/1.1/DTD/svg11.dtd">
<svg version="1.1" id="Layer_1" xmlns="http://www.w3.org/2000/svg" xmlns:xlink="http://www.w3.org/1999/xlink" x="0px" y="0px"
	 width="24px" height="24px" viewBox="0 0 24 24" enable-background="new 0 0 24 24" xml:space="preserve">
<path fill="#F5F9FF" d="M18.188,0c-0.607,0-1.107,0.406-1.25,0.969c-0.336-0.102-0.718-0.094-1.062,0.062
	c-0.754,0.343-1.093,1.246-0.75,2c0.19,0.419,0.558,0.697,0.969,0.812C14.734,6.207,14.331,10,10,10c-5.8,0-8.6-2.312-9-3.312
	c0,1.5,0.987,4.106,2.188,4.406c-0.7,0-1.281,0.212-1.781,0.812c0.7,0.1,1.1,0.281,1.5,0.781c-0.8,0.2-1.2,0.6-1.5,1
	C3.806,13.987,3.5,19,9,19s6-5,6-5s1,7-7,7c0,0,1.304,0.803,3.375,0.969c-0.234,0.261-0.469,0.344-0.469,0.344
	c-0.327,0.127-0.554,0.242-0.594,0.281c-0.4,0.3-0.425,0.794-0.125,1.094s0.819,0.425,1.219,0.125C11.606,23.612,12.3,23,13,23
	s1.394,0.713,1.594,0.812S14.987,24,15.188,24s0.519-0.112,0.719-0.312c0.2-0.3,0.182-0.794-0.219-1.094
	c-0.086-0.086-0.986-0.498-2.125-0.625c-0.016-0.017-0.04-0.053-0.094-0.125c-0.004-0.006,0.004-0.025,0-0.031
	C16.513,21.098,21,18.289,21,14c0-2.4-1-3.612-1-5.312c0-0.9,0.906-1.3,1.406-2C21.506,6.688,22.3,6.6,23,7c0-1.5-1-1.794-1-2.094
	c0-0.765-0.417-1.633-1.125-2.219c0.033-0.043,0.066-0.076,0.094-0.125c0.293-0.532,0.095-1.207-0.438-1.5
	c-0.355-0.195-0.738-0.162-1.062,0.031C19.37,0.474,18.836,0,18.188,0z M19.5,3.906c0.3,0,0.594,0.294,0.594,0.594
	S19.8,5.094,19.5,5.094S18.906,4.8,18.906,4.5S19.2,3.906,19.5,3.906z"/>
</svg>
