<?xml version="1.0" encoding="utf-8"?>
<!-- Generator: Adobe Illustrator 16.0.0, SVG Export Plug-In . SVG Version: 6.00 Build 0)  -->
<!DOCTYPE svg PUBLIC "-//W3C//DTD SVG 1.1//EN" "http://www.w3.org/Graphics/SVG/1.1/DTD/svg11.dtd">
<svg version="1.1" id="Layer_1" xmlns="http://www.w3.org/2000/svg" xmlns:xlink="http://www.w3.org/1999/xlink" x="0px" y="0px"
	 width="24px" height="24px" viewBox="0 0 24 24" enable-background="new 0 0 24 24" xml:space="preserve">
<path fill="#F5F9FF" d="M12,0l-0.75,1.875L9.25,2l1.531,1.281l-0.469,1.938L12,4.156l1.688,1.062l-0.469-1.938L14.75,2l-2-0.125
	L12,0z M12,4.812l-5,6.406c0,0,2.379,0.781,5.062,0.781C14.746,12,17,11.219,17,11.219L12,4.812z M9.125,11.719l-4.5,5.5
	c0,0,0.632,0.422,2.312,0.781c1.164,0.248,2.807,0.469,5.156,0.469c5.742,0,7.281-1.25,7.281-1.25l-3.781-4.625
	C15.594,12.594,10.877,12.879,9.125,11.719z M6.938,18l-4.156,4.594c0,0,2.348,1.406,9.344,1.406s9.094-1.406,9.094-1.406
	l-3.375-3.719C17.845,18.876,11.14,20.294,6.938,18z"/>
</svg>
