<?xml version="1.0" encoding="utf-8"?>
<!-- Generator: Adobe Illustrator 16.0.0, SVG Export Plug-In . SVG Version: 6.00 Build 0)  -->
<!DOCTYPE svg PUBLIC "-//W3C//DTD SVG 1.1//EN" "http://www.w3.org/Graphics/SVG/1.1/DTD/svg11.dtd">
<svg version="1.1" id="Layer_1" xmlns="http://www.w3.org/2000/svg" xmlns:xlink="http://www.w3.org/1999/xlink" x="0px" y="0px"
	 width="24px" height="24px" viewBox="0 0 24 24" enable-background="new 0 0 24 24" xml:space="preserve">
<path fill="#F5F9FF" d="M22.406,0.031c-0.15,0.018-0.32,0.049-0.469,0.094c-0.592,0.178-1.213,0.525-1.75,1.062
	c-0.348,0.348-0.613,0.74-0.812,1.125c0,0-0.574-0.507-1.25-0.25c-1.043,0.396-1.869-0.039-2.312-0.219
	C14.481,1.303,13.025,1,11.5,1c-0.64,0-1.263,0.056-1.875,0.156L9.75,1.75l1.75,0.531L9.688,3.344L9.25,4.969L7.781,4.094
	L5.75,4.562l0.906-1.594L6.25,2.281C2.536,4.188,0,8.038,0,12.5c0,0.516,0.059,1.033,0.125,1.531l0.469-2.062l1.438,2.156
	l2.094,0.281L3.094,16.5l0.75,2.594l-2.062-0.875l-0.156,0.125C3.629,21.719,7.29,24,11.5,24C17.852,24,23,18.852,23,12.5
	c0-1.592-0.32-3.091-0.906-4.469c-0.162-0.382-0.592-0.972-0.156-2.156c0.255-0.693-0.25-1.281-0.25-1.281
	c0.381-0.199,0.781-0.438,1.125-0.781c0.537-0.538,0.885-1.158,1.062-1.75s0.189-1.249-0.25-1.688
	C23.296,0.046,22.859-0.022,22.406,0.031z M22.688,1c0.112,0.01,0.177,0.052,0.219,0.094c0.084,0.083,0.148,0.299,0.031,0.688
	s-0.408,0.877-0.844,1.312c-0.379,0.378-0.795,0.61-1.156,0.75l-0.812-0.781c0.139-0.364,0.398-0.773,0.781-1.156
	c0.436-0.435,0.924-0.727,1.312-0.844C22.413,1.004,22.575,0.99,22.688,1z M18.719,10.719l0.156,3.125l2.312,1.719l-2.719,1.344
	L17.5,19.938l-1.844-2.281l-2.938,0.156l1.594-2.75l-0.844-2.938l2.844,0.562L18.719,10.719z"/>
</svg>
