<?xml version="1.0" encoding="utf-8"?>
<!-- Generator: Adobe Illustrator 16.0.0, SVG Export Plug-In . SVG Version: 6.00 Build 0)  -->
<!DOCTYPE svg PUBLIC "-//W3C//DTD SVG 1.1//EN" "http://www.w3.org/Graphics/SVG/1.1/DTD/svg11.dtd">
<svg version="1.1" id="Layer_1" xmlns="http://www.w3.org/2000/svg" xmlns:xlink="http://www.w3.org/1999/xlink" x="0px" y="0px"
	 width="50px" height="50px" viewBox="0 0 50 50" enable-background="new 0 0 50 50" xml:space="preserve">
<path fill="#F5F9FF" d="M39.625,0c-0.297-0.029-0.58,0.069-0.781,0.188c-0.236,0.141-0.974,0.715-0.562,2.094
	c0.051,0.697-1.066,5.381-3.094,7.406l-0.875,0.906l5.125,5.125l0.906-0.875c1.979-1.978,6.588-3.158,7.531-3
	c1.225,0.216,1.746-0.257,1.969-0.688c0.282-0.546,0.161-1.217-0.344-1.719C49.264,9.2,45.138,5.074,42.562,2.5l-2.031-2.031
	C40.229,0.168,39.922,0.029,39.625,0z M32.875,11.969L10.5,34.344l5.188,5.156l3.469-3.469c-0.309-0.152-0.607-0.327-0.812-0.531
	c-0.775-0.777-0.775-2.035,0-2.812c0.779-0.777,2.067-0.777,2.844,0c0.203,0.203,0.379,0.473,0.531,0.781l1.531-1.531
	c-0.309-0.152-0.576-0.358-0.781-0.562c-0.775-0.777-0.775-2.033,0-2.812c0.779-0.775,2.036-0.775,2.812,0
	c0.203,0.203,0.379,0.502,0.531,0.812l1.562-1.562c-0.311-0.152-0.606-0.326-0.812-0.531c-0.775-0.775-0.775-2.035,0-2.812
	c0.779-0.777,2.035-0.777,2.812,0c0.203,0.203,0.41,0.471,0.562,0.781l1.531-1.531c-0.311-0.152-0.575-0.326-0.781-0.531
	c-0.775-0.778-0.775-2.066,0-2.844c0.779-0.777,2.035-0.777,2.812,0c0.203,0.204,0.379,0.502,0.531,0.812l4-4L32.875,11.969z
	 M34.031,21.156l-2.562,2.562c0.251,0.123,0.535,0.214,0.812,0.281c0,0,0.388,0.229,0.875,0.438l-2.5,2.5
	c-0.206-0.482-0.438-0.875-0.438-0.875c-0.068-0.277-0.156-0.561-0.281-0.812l-2.562,2.562c0.252,0.123,0.504,0.244,0.781,0.312
	c0,0,0.422,0.199,0.906,0.406l-2.531,2.531c-0.207-0.484-0.406-0.906-0.406-0.906c-0.068-0.277-0.188-0.528-0.312-0.781
	l-2.562,2.562c0.253,0.124,0.535,0.213,0.812,0.281c0,0,0.393,0.23,0.875,0.438l-2.5,2.5C22.23,34.669,22,34.281,22,34.281
	c-0.068-0.277-0.156-0.56-0.281-0.812l-2.562,2.562c0.252,0.124,0.503,0.244,0.781,0.312c0,0,0.419,0.198,0.906,0.406l-2.031,2.031
	c-0.43,0.347-0.498,0.977-0.151,1.406c0.347,0.43,0.977,0.498,1.406,0.151c0.056-0.045,0.106-0.096,0.151-0.151l16.969-16.969
	c0.401-0.379,0.419-1.013,0.039-1.414c-0.219-0.231-0.535-0.345-0.852-0.305c-0.229,0.033-0.438,0.143-0.594,0.312l-1.031,1.031
	c-0.207-0.487-0.406-0.906-0.406-0.906C34.277,21.662,34.155,21.408,34.031,21.156z M9.125,35.781L0.344,45.938
	c-0.239,0.273-0.91,1.275,0.625,2.844c0.64,0.654,1.493,1.22,2.25,1.219c0.316,0,0.604-0.088,0.875-0.312l10.125-8.812L9.125,35.781
	z"/>
</svg>
