<?xml version="1.0" encoding="utf-8"?>
<!-- Generator: Adobe Illustrator 16.0.0, SVG Export Plug-In . SVG Version: 6.00 Build 0)  -->
<!DOCTYPE svg PUBLIC "-//W3C//DTD SVG 1.1//EN" "http://www.w3.org/Graphics/SVG/1.1/DTD/svg11.dtd">
<svg version="1.1" id="Layer_1" xmlns="http://www.w3.org/2000/svg" xmlns:xlink="http://www.w3.org/1999/xlink" x="0px" y="0px"
	 width="24px" height="24px" viewBox="0 0 24 24" enable-background="new 0 0 24 24" xml:space="preserve">
<path fill="#F5F9FF" d="M11.688,0.031C10.708,0.06,9.875,0.688,9.5,1.812C9.039,3.043,9.426,5.72,9.906,8.062
	C8.348,6.166,6.415,4.069,5.094,3.594c-1.5-0.6-2.806,0.013-3.406,1.312c-0.1,0.3-0.1,1.288-0.5,2.188c-0.3,0.9-0.994,1.7-1.094,2
	c-0.5,1.3,0.094,2.494,1.594,3.094C3.24,12.809,6.88,12.341,9.5,11.875c-2.143,1.402-5.057,3.486-5.688,4.938
	C3.212,18.213,3.7,19.4,5,20c0.3,0.1,1.288,0.193,2.188,0.594s1.606,1.119,1.906,1.219c1.3,0.6,2.619,0.088,3.219-1.312
	c0.631-1.449,0.261-4.948-0.094-7.438c1.693,1.811,3.96,4.025,5.375,4.438c1.4,0.4,2.6-0.2,3-1.5c0.1-0.3,0.013-1.287,0.312-2.188
	c0.3-0.8,0.807-1.606,0.906-1.906c0.4-1.3-0.219-2.506-1.719-2.906c-1.16-0.387-3.543,0-5.688,0.5
	c1.812-1.513,3.737-3.344,4.188-4.594c0.5-1.5-0.1-2.719-1.5-3.219c-0.3-0.1-1.381-0.2-2.281-0.5c-1-0.3-1.825-0.9-2.125-1
	C12.337,0.062,12.014,0.022,11.688,0.031z M13.094,15.094c3,5.3,8.394,8.7,9.094,9c0.9,0.2,2.019-1.406,1.719-1.906
	C18.506,21.287,13.094,15.094,13.094,15.094z"/>
</svg>
