<?xml version="1.0" encoding="utf-8"?>
<!-- Generator: Adobe Illustrator 16.0.0, SVG Export Plug-In . SVG Version: 6.00 Build 0)  -->
<!DOCTYPE svg PUBLIC "-//W3C//DTD SVG 1.1//EN" "http://www.w3.org/Graphics/SVG/1.1/DTD/svg11.dtd">
<svg version="1.1" id="Layer_1" xmlns="http://www.w3.org/2000/svg" xmlns:xlink="http://www.w3.org/1999/xlink" x="0px" y="0px"
	 width="24px" height="24px" viewBox="0 0 24 24" enable-background="new 0 0 24 24" xml:space="preserve">
<path fill="#F5F9FF" d="M13.688,3C11.188,3,11,4.094,12,6.594c-0.6,0.6-1.406,3.506-1.406,5.406c0,2,0.706,4.294,1.406,5.594
	c0,2.2,0.5,2.406,1.5,2.406c2.8,0,2.987-1.606,4.188-2.406c-0.008-0.012-0.023-0.02-0.031-0.031c0.049-0.016,0.25-0.062,0.25-0.062
	C17.307,17,16,14.7,16,12c0-2.6,2-5.188,2-5.188C17.4,4.312,15.388,3,13.688,3z M6.5,6C5.3,6,5,6.788,5,7.688
	c0,0.6,0.312,1.225,0.812,1.625c0.191,0.191,0.388,0.17,0.625,0.094C6.29,9.501,6.158,9.597,6,9.688C6,9.788,5.513,10,5.312,10
	c0,0-0.406,0.7-0.406,2s0.406,2,0.406,2C5.612,14,5.9,14.213,6,14.312c0.325,0.175,0.636,0.369,0.938,0.594
	C6.42,14.721,5.919,14.594,5.5,14.594c-0.1,0.2-0.5,1.119-0.5,1.719C5,17.412,5.513,18,6.812,18c1.6,0,2.494-0.606,3.594-0.906
	C10.406,17.094,9,15,9,12s1.312-4.906,1.312-4.906C9.913,6.994,7.8,6,6.5,6z M19,7.188c-0.9,1.4-1.5,3.013-1.5,4.812
	c0,1.9,0.588,3.6,1.688,5c3-1.2,4.812-3.2,4.812-5C24,10.3,21.5,8.388,19,7.188z M1.812,9C0.413,9,0,10.3,0,12s0.413,3,1.812,3
	C2.712,15,3.4,14.4,4,14c0,0-0.406-0.6-0.406-2c0-1.4,0.5-2,0.5-2C3.394,9.7,2.413,9,1.812,9z M21,11c0.6,0,1,0.4,1,1
	c0,0.6-0.4,1-1,1s-1-0.4-1-1C20,11.4,20.4,11,21,11z"/>
</svg>
