<?xml version="1.0" encoding="utf-8"?>
<!-- Generator: Adobe Illustrator 16.0.0, SVG Export Plug-In . SVG Version: 6.00 Build 0)  -->
<!DOCTYPE svg PUBLIC "-//W3C//DTD SVG 1.1//EN" "http://www.w3.org/Graphics/SVG/1.1/DTD/svg11.dtd">
<svg version="1.1" id="Layer_1" xmlns="http://www.w3.org/2000/svg" xmlns:xlink="http://www.w3.org/1999/xlink" x="0px" y="0px"
	 width="50px" height="50px" viewBox="0 0 50 50" enable-background="new 0 0 50 50" xml:space="preserve">
<path fill="#F5F9FF" d="M37.051,20.189c-3.169,0-5.807,1.506-8.32,3.135c2.025-3.147,4.459-6.322,4.459-10.396
	c0-4.52-3.67-8.188-8.188-8.188c-4.521,0-8.188,3.669-8.188,8.188c0,4.039,2.442,7.22,4.472,10.38
	c-2.505-1.623-5.145-3.12-8.334-3.12c-4.52,0-8.188,3.668-8.188,8.198c0,4.521,3.669,8.188,8.188,8.188
	c3.774,0,6.798-2.132,9.757-4.067L18.68,46.048c4.211-0.756,8.466-0.721,12.64,0c0,0-2.213-7.44-4.021-13.521
	c2.94,1.931,5.954,4.048,9.751,4.048c4.521,0,8.188-3.669,8.188-8.188C45.238,23.858,41.568,20.189,37.051,20.189z"/>
</svg>
