<?xml version="1.0" encoding="utf-8"?>
<!-- Generator: Adobe Illustrator 16.0.0, SVG Export Plug-In . SVG Version: 6.00 Build 0)  -->
<!DOCTYPE svg PUBLIC "-//W3C//DTD SVG 1.1//EN" "http://www.w3.org/Graphics/SVG/1.1/DTD/svg11.dtd">
<svg version="1.1" id="Layer_1" xmlns="http://www.w3.org/2000/svg" xmlns:xlink="http://www.w3.org/1999/xlink" x="0px" y="0px"
	 width="200px" height="200px" viewBox="0 0 200 200" enable-background="new 0 0 200 200" xml:space="preserve">
<path fill="#F5F9FF" d="M72.396,16.667c-7.082,0-12.634,4.455-14.844,11.198h-0.261l-0.26,1.042l-1.823,4.427H50
	c-4.352,0-8.837,1.545-11.979,4.688c-3.142,3.142-4.688,7.627-4.688,11.979v16.667V75h8.333h1.042l13.021,94.271
	c1.667,8.332,8.333,14.062,16.667,14.062h55.208c8.334,0,14.793-5.73,15.625-14.062L157.031,75h1.303h8.332v-8.333V50
	c0-4.352-1.545-8.837-4.688-11.979c-3.141-3.142-7.627-4.688-11.979-4.688h-4.688l-1.562-4.948l-0.26-0.781l-0.262-0.521
	c-2.908-5.818-8.125-10.417-15.625-10.417H72.396z M72.917,33.333h54.427c-0.062,0.18,0.399,0.679,0.781,1.042
	c0.156,0.149,0.16,0.061,0.26,0.26l2.865,9.375l1.822,5.99h5.99H150v8.333H50V50h10.938h5.729l1.823-5.469l4.167-10.677
	L72.917,33.333z"/>
</svg>
