<?xml version="1.0" encoding="utf-8"?>
<!-- Generator: Adobe Illustrator 16.0.0, SVG Export Plug-In . SVG Version: 6.00 Build 0)  -->
<!DOCTYPE svg PUBLIC "-//W3C//DTD SVG 1.1//EN" "http://www.w3.org/Graphics/SVG/1.1/DTD/svg11.dtd">
<svg version="1.1" id="Layer_1" xmlns="http://www.w3.org/2000/svg" xmlns:xlink="http://www.w3.org/1999/xlink" x="0px" y="0px"
	 width="50px" height="50px" viewBox="0 0 50 50" enable-background="new 0 0 50 50" xml:space="preserve">
<path fill="#F5F9FF" d="M44.889,9.454C44.736,9.15,40.993,2.009,25.04,2.009c-15.945,0-19.769,7.133-19.923,7.437L5.008,9.658v0.238
	c0,34.583,18.982,38.909,19.791,39.077l0.208,0.043l0.207-0.047c0.808-0.178,19.779-4.746,19.779-39.073V9.663L44.889,9.454z
	 M12.001,20c0,0,3.124-4,5.999-4c2.378,0,5,3,5,3s-2.835,0.547-5.619,0.845C14.597,20.143,12.001,20,12.001,20z M25,38
	c-6.913,0-10-11-10-11s6.295,2,10,2s10-2,10-2S31.913,38,25,38z M32.619,19.845C29.835,19.547,27,19,27,19s2.622-3,5-3
	c2.875,0,5.999,4,5.999,4S35.402,20.143,32.619,19.845z"/>
</svg>
