<?xml version="1.0" encoding="utf-8"?>
<!-- Generator: Adobe Illustrator 16.0.0, SVG Export Plug-In . SVG Version: 6.00 Build 0)  -->
<!DOCTYPE svg PUBLIC "-//W3C//DTD SVG 1.1//EN" "http://www.w3.org/Graphics/SVG/1.1/DTD/svg11.dtd">
<svg version="1.1" id="Layer_1" xmlns="http://www.w3.org/2000/svg" xmlns:xlink="http://www.w3.org/1999/xlink" x="0px" y="0px"
	 width="200px" height="200px" viewBox="0 0 200 200" enable-background="new 0 0 200 200" xml:space="preserve">
<path fill="#F5F9FF" d="M140.885,14.323l-6.77,4.688l20.312,30.729l-10.156,13.542c-2.5,3.333-7.605,4.323-10.938,1.823
	c-2.881-2.16-6.1-5.364-13.281-6.25c-1.016-0.391-2.137-0.521-3.387-0.521h-8.332L100,116.666l-8.333-58.333h-8.333
	c-1.25,0-2.37,0.13-3.386,0.521c-7.182,0.886-10.401,4.09-13.281,6.25c-3.333,2.5-8.438,1.511-10.938-1.823L40.104,42.448
	L26.562,52.604l15.885,20.833c5,6.667,12.552,9.896,20.052,9.896c3.556,0,7.727-1.215,11.979-3.125l-7.812,61.458h12.5L83.333,125
	v58.334h33.333V125l4.168,16.666h12.5l-7.812-61.458c4.252,1.91,8.422,3.125,11.979,3.125c7.5,0,15.053-3.229,20.053-9.896
	l15.885-20.833l-13.541-10.156l-0.262,0.261L140.885,14.323z M100,16.667c-9.205,0-16.667,7.462-16.667,16.667
	C83.333,42.538,90.795,50,100,50c9.205,0,16.666-7.462,16.666-16.667C116.666,24.128,109.205,16.667,100,16.667z"/>
</svg>
