<?xml version="1.0" encoding="utf-8"?>
<!-- Generator: Adobe Illustrator 16.0.0, SVG Export Plug-In . SVG Version: 6.00 Build 0)  -->
<!DOCTYPE svg PUBLIC "-//W3C//DTD SVG 1.1//EN" "http://www.w3.org/Graphics/SVG/1.1/DTD/svg11.dtd">
<svg version="1.1" id="Layer_1" xmlns="http://www.w3.org/2000/svg" xmlns:xlink="http://www.w3.org/1999/xlink" x="0px" y="0px"
	 width="26px" height="26px" viewBox="0 0 26 26" enable-background="new 0 0 26 26" xml:space="preserve">
<path fill="#F5F9FF" d="M16,0c-4.337,0-7.991,2.762-9.375,6.594C2.774,7.985,0,11.677,0,16c0,5.512,4.489,10,10,10
	c4.323,0,8.015-2.773,9.406-6.625C23.238,17.991,26,14.337,26,10C26,4.467,21.533,0,16,0z M16,2c4.467,0,8,3.533,8,8
	c0,3.025-1.639,5.61-4.062,6.969C19.968,16.652,20,16.324,20,16c0-3.053-1.396-5.789-3.562-7.625C16.781,8.016,17,7.536,17,7
	c0-1.104-0.896-2-2-2c-0.922,0-1.706,0.621-1.938,1.469C12.096,6.157,11.068,6,10,6C9.676,6,9.347,6.032,9.031,6.062
	C10.39,3.638,12.975,2,16,2z M20,6c-0.553,0-1,0.448-1,1s0.447,1,1,1s1-0.448,1-1S20.553,6,20,6z M10,8c4.43,0,8,3.57,8,8
	c0,0.668-0.066,1.318-0.219,1.938c-0.003,0.013-0.028,0.019-0.031,0.031c-0.191,0.213-0.282,0.497-0.25,0.781
	c-0.002,0.031-0.002,0.062,0,0.094C16.357,21.864,13.429,24,10,24c-4.43,0-8-3.57-8-8c0-3.439,2.153-6.365,5.188-7.5
	c0.009-0.003,0.022,0.003,0.031,0c0.294,0.042,0.592-0.05,0.812-0.25C8.662,8.091,9.319,8,10,8z M20.5,9C19.672,9,19,9.671,19,10.5
	s0.672,1.5,1.5,1.5s1.5-0.671,1.5-1.5S21.328,9,20.5,9z M7,12c-1.104,0-2,0.896-2,2s0.896,2,2,2s2-0.896,2-2S8.104,12,7,12z M12,12
	c-0.552,0-1,0.448-1,1c0,0.553,0.448,1,1,1s1-0.447,1-1C13,12.448,12.552,12,12,12z M13.5,15c-0.829,0-1.5,0.672-1.5,1.5
	s0.671,1.5,1.5,1.5c0.828,0,1.5-0.672,1.5-1.5S14.328,15,13.5,15z M7,17c-0.552,0-1,0.447-1,1s0.448,1,1,1s1-0.447,1-1
	S7.552,17,7,17z M11,19c-0.552,0-1,0.447-1,1s0.448,1,1,1s1-0.447,1-1S11.552,19,11,19z"/>
</svg>
