<?xml version="1.0" encoding="utf-8"?>
<!-- Generator: Adobe Illustrator 16.0.0, SVG Export Plug-In . SVG Version: 6.00 Build 0)  -->
<!DOCTYPE svg PUBLIC "-//W3C//DTD SVG 1.1//EN" "http://www.w3.org/Graphics/SVG/1.1/DTD/svg11.dtd">
<svg version="1.1" id="Layer_1" xmlns="http://www.w3.org/2000/svg" xmlns:xlink="http://www.w3.org/1999/xlink" x="0px" y="0px"
	 width="50px" height="50px" viewBox="0 0 50 50" enable-background="new 0 0 50 50" xml:space="preserve">
<path fill="#F5F9FF" d="M25,0c-0.145,0-0.294,0.023-0.438,0.031c-0.082,0.005-0.168-0.007-0.25,0
	c-6.509,0.602-11.612,9.833-12.25,21.906C12.019,22.77,12,23.611,12,24.469c0.689,0.411,1.355,0.837,2,1.25
	c1.083,0.699,2.131,1.411,3.094,2.125c-0.021-0.49-0.048-0.984-0.062-1.469c-1.325-0.643-2.319-1.381-3.031-2.062
	c0.004-1.03,0.051-2.034,0.125-3.031c0.024,0.038,0.075,0.052,0.094,0.094c0.048,0.1,0.743,1.488,2.781,2.719
	c0.006-1.277,0.058-2.549,0.125-3.812c-1.177-0.617-2.054-1.304-2.688-1.938c0.128-0.885,0.29-1.754,0.469-2.594
	c0.203,0.353,0.845,1.345,2.344,2.312c0.106-1.294,0.267-2.552,0.438-3.781c-0.867-0.508-1.527-1.069-2-1.562
	c0.236-0.766,0.503-1.516,0.781-2.219c0.143,0.248,0.571,0.923,1.531,1.625c0.233-1.315,0.531-2.586,0.844-3.75
	c-0.388-0.257-0.729-0.496-1-0.75c0.348-0.622,0.71-1.218,1.094-1.75c0.135,0.153,0.284,0.321,0.5,0.5
	c0.261-0.759,0.542-1.448,0.844-2.094C21.723,2.833,23.32,2,25,2c1.664,0,3.257,0.827,4.688,2.25
	c0.309,0.655,0.609,1.352,0.875,2.125c0.217-0.18,0.364-0.346,0.5-0.5c0.379,0.525,0.75,1.105,1.094,1.719
	c-0.271,0.254-0.612,0.524-1,0.781c0.312,1.165,0.58,2.436,0.812,3.75c0.962-0.703,1.418-1.374,1.562-1.625
	c0.278,0.703,0.545,1.453,0.781,2.219c-0.473,0.493-1.133,1.054-2,1.562c0.171,1.229,0.332,2.487,0.438,3.781
	c1.521-0.983,2.151-2.004,2.344-2.344c0.182,0.849,0.339,1.73,0.469,2.625c-0.633,0.634-1.512,1.321-2.688,1.938
	c0.066,1.264,0.12,2.536,0.125,3.812c2.039-1.231,2.731-2.615,2.781-2.719c0.02-0.041,0.07-0.057,0.094-0.094
	c0.074,0.997,0.121,2.001,0.125,3.031c-0.711,0.681-1.707,1.421-3.031,2.062c-0.021,0.867-0.059,1.722-0.094,2.562
	c0.744-0.307,1.529-0.539,2.344-0.719c0.841-0.172,2.636-0.342,2.719-0.344C37.984,26.789,38,25.667,38,24.5
	c0-13.309-5.35-23.825-12.312-24.469c-0.082-0.007-0.168,0.005-0.25,0C25.293,0.023,25.145,0,25,0z M24,2.406
	c-0.923,0.734-1.88,2.467-2.719,5C22.005,7.678,22.893,7.888,24,7.969V2.406z M26,2.406v5.562c1.105-0.081,1.994-0.291,2.719-0.562
	C27.881,4.873,26.923,3.14,26,2.406z M20.688,9.312c-0.304,1.154-0.576,2.415-0.812,3.812c1.055,0.42,2.413,0.751,4.125,0.844v-4
	C22.691,9.886,21.591,9.64,20.688,9.312z M29.312,9.312C28.408,9.64,27.309,9.885,26,9.969v4c1.712-0.093,3.07-0.424,4.125-0.844
	C29.889,11.727,29.614,10.466,29.312,9.312z M19.594,15.156c-0.162,1.22-0.309,2.508-0.406,3.875
	c1.25,0.481,2.842,0.844,4.812,0.938v-4C22.233,15.882,20.788,15.582,19.594,15.156z M30.406,15.156
	c-1.193,0.426-2.639,0.725-4.406,0.812v4c1.971-0.094,3.562-0.457,4.812-0.938C30.715,17.665,30.567,16.376,30.406,15.156z
	 M19.094,21.125C19.047,22.219,19,23.328,19,24.5c0,0.177-0.002,0.379,0,0.562c1.312,0.479,2.963,0.816,5,0.906v-4
	C22.061,21.885,20.442,21.577,19.094,21.125z M30.906,21.125c-1.348,0.452-2.967,0.76-4.906,0.844v4c2.037-0.09,3.689-0.428,5-0.906
	c0.002-0.181,0-0.384,0-0.562C31,23.328,30.953,22.219,30.906,21.125z M5.125,23c-0.361-0.041-0.754,0.12-0.969,0.438
	c-0.285,0.424-0.204,0.983,0.188,1.312c2.561,2.157,3.643,5.971,4.781,10C11.143,41.895,13.434,50,25,50c0.552,0,1-0.447,1-1
	c0-12.835-6.618-18.562-20.531-25.875C5.356,23.066,5.245,23.014,5.125,23z M30.938,27.156c-1.372,0.426-3.006,0.733-4.938,0.812v4
	c0.871-0.038,1.674-0.126,2.406-0.25c0.759-0.637,1.562-1.23,2.438-1.75C30.884,29.074,30.908,28.11,30.938,27.156z M19.062,27.188
	c0.029,0.777,0.05,1.557,0.094,2.312c0.844,0.718,1.62,1.43,2.344,2.188c0.756,0.131,1.594,0.241,2.5,0.281v-4
	C22.071,27.89,20.434,27.612,19.062,27.188z M38.188,29.875c-5.818,0-10.064,4.326-12.5,7.75C27.215,40.828,28,44.523,28,49
	c0,0.283-0.051,0.553-0.125,0.812c6.943-0.928,8.844-5.266,10.531-9.156c1.415-3.26,2.654-6.071,6.75-6.656
	c0.417-0.061,0.727-0.368,0.812-0.781c0.085-0.413-0.078-0.842-0.438-1.062C43.073,30.643,40.6,29.875,38.188,29.875z"/>
</svg>
