<?xml version="1.0" encoding="utf-8"?>
<!-- Generator: Adobe Illustrator 16.0.0, SVG Export Plug-In . SVG Version: 6.00 Build 0)  -->
<!DOCTYPE svg PUBLIC "-//W3C//DTD SVG 1.1//EN" "http://www.w3.org/Graphics/SVG/1.1/DTD/svg11.dtd">
<svg version="1.1" id="Layer_1" xmlns="http://www.w3.org/2000/svg" xmlns:xlink="http://www.w3.org/1999/xlink" x="0px" y="0px"
	 width="200px" height="200px" viewBox="0 0 200 200" enable-background="new 0 0 200 200" xml:space="preserve">
<path fill="#F5F9FF" d="M182.692,7.211c-2.788,0-5.865,0.961-8.173,2.885l-71.395,59.615c-1.801,0.623-3.468,1.678-5.048,3.125
	c-0.149,0.137-0.335,0.095-0.481,0.241L62.5,104.327l-6.01,5.288l5.77,5.77l22.355,22.355l5.77,6.01l5.529-6.49l29.567-34.855
	l1.202-1.202l-0.48-0.481c0.118-0.125,0.124-0.351,0.24-0.48l0.48,0.48l62.981-75.24c3.846-4.616,3.846-11.539,0-15.385
	C187.98,8.173,185.48,7.211,182.692,7.211z M107.692,84.615l6.972,6.971l-25.241,29.328l-10.577-10.578L107.692,84.615z
	 M49.279,116.105l-36.298,18.51c-3.077,1.539-5.289,3.895-5.289,6.971c0,3.078-0.048,7.645,0.721,12.26l31.49-19.951L9.135,156.971
	c1.538,6.924,5.577,14.52,12.5,20.674c3.846,3.846,7.692,6.105,11.538,8.413l12.26-12.26l-6.971,14.663
	c7.692,3.847,15.336,3.847,19.952,3.847c3.077,0,6.202-2.26,6.971-4.567l18.509-37.02L49.279,116.105z"/>
</svg>
