<?xml version="1.0" encoding="utf-8"?>
<!-- Generator: Adobe Illustrator 16.0.0, SVG Export Plug-In . SVG Version: 6.00 Build 0)  -->
<!DOCTYPE svg PUBLIC "-//W3C//DTD SVG 1.1//EN" "http://www.w3.org/Graphics/SVG/1.1/DTD/svg11.dtd">
<svg version="1.1" id="Layer_1" xmlns="http://www.w3.org/2000/svg" xmlns:xlink="http://www.w3.org/1999/xlink" x="0px" y="0px"
	 width="50px" height="50px" viewBox="0 0 50 50" enable-background="new 0 0 50 50" xml:space="preserve">
<path fill="#F5F9FF" d="M38.844,1.094c-0.328,0.028-0.619,0.198-0.781,0.5c-1.803,3.336-3.721,4.178-6.188,4.375
	c0.559,0.763,1.322,1.469,2.781,2.125c1.104,0.497,1.999,1.096,2.781,1.781c1.618-1.674,2.512-4.32,2.5-7.781
	c0-0.458-0.307-0.857-0.75-0.969C39.076,1.097,38.953,1.084,38.844,1.094z M11.156,1.125c-0.109-0.006-0.233,0.002-0.344,0.031
	c-0.443,0.111-0.749,0.543-0.75,1c-0.012,3.417,0.853,6.052,2.469,7.719c0.783-0.686,1.707-1.284,2.812-1.781
	c1.459-0.655,2.222-1.362,2.781-2.125c-2.466-0.197-4.384-1.039-6.188-4.375C11.774,1.292,11.483,1.144,11.156,1.125z M25,2.875
	c-2.71,0-3.55,1.477-4.375,2.906c-0.78,1.353-1.663,2.878-4.438,4.125c-4.529,2.035-5.472,6.253-6.219,11.531
	c-0.006,0.046,0,0.078,0,0.125c0,6.061,2.505,9.984,4.344,12.844c0.865,1.346,1.621,2.518,1.625,3.219
	c-0.018,0.083-0.079,0.17-0.125,0.281C15.524,38.594,15,39.885,15,43.094c0,2.928,3.092,5.875,10,5.875s10-2.947,10-5.875
	c0-3.209-0.524-4.498-0.812-5.188c-0.046-0.111-0.111-0.21-0.125-0.25c0.001-0.744,0.76-1.904,1.625-3.25
	c1.839-2.861,4.344-6.783,4.344-12.844c0-0.047,0.007-0.079,0-0.125c-0.746-5.277-1.689-9.494-6.219-11.531
	c-2.773-1.247-3.658-2.773-4.438-4.125C28.549,4.351,27.711,2.875,25,2.875z M7.656,10.375c-2.802,0-7.562,0.593-7.562,2.844
	c0,1.897,2.367,5.606,6.688,5.625c0.002,0,0.029,0.001,0.031,0c0.543,0,1.066-0.038,1.562-0.125
	c0.534-2.954,1.348-5.613,3.062-7.688c-1.05-0.356-2.291-0.644-3.562-0.656H7.656z M42.125,10.375
	c-1.271,0.012-2.514,0.3-3.562,0.656c1.717,2.075,2.528,4.735,3.062,7.688c0.496,0.087,1.019,0.125,1.562,0.125h0.031
	c4.32-0.019,6.688-3.727,6.688-5.625c-0.001-2.251-4.761-2.844-7.562-2.844H42.125z M25,15.719c2.197,0.001,5.232,0.892,7.219,2.125
	c0.703,0.591,0.893,4.999,0.531,6.062c-0.249,0.29-0.934,0.624-1.531,0.938c-1.273,0.669-2.848,1.502-3.438,3.062
	c-0.043,0.111-0.062,0.253-0.062,0.375c0,6.126,1.324,7.432,3.062,8.531c0.609,0.387,1.053,0.68,1.406,1.5
	c0.042,0.123,0.107,0.228,0.156,0.344c0.244,0.586,0.639,1.609,0.656,4.281c-0.72-0.271-2.151-0.619-3.469,0.156
	C28.035,43.975,28,45.533,28,46.688c-0.893,0.16-1.876,0.281-3,0.281s-2.107-0.121-3-0.281c0.001-1.086-0.008-2.699-1.531-3.594
	c-1.319-0.775-2.75-0.428-3.469-0.156c0.018-2.672,0.412-3.665,0.656-4.25c0.047-0.111,0.114-0.256,0.156-0.375
	c0.354-0.831,0.791-1.111,1.406-1.5c1.738-1.098,3.062-2.404,3.062-8.531c0-0.121-0.02-0.262-0.062-0.375
	c-0.591-1.561-2.195-2.394-3.469-3.062c-0.597-0.314-1.25-0.647-1.5-0.938c-0.362-1.063-0.192-5.447,0.5-6.031
	C19.748,16.634,22.803,15.719,25,15.719z M18.469,44.625c0.324-0.031,0.657,0.004,0.969,0.188c0.403,0.236,0.536,0.652,0.562,1.375
	c-0.98-0.37-1.749-0.845-2.25-1.375C17.933,44.746,18.186,44.652,18.469,44.625z M31.188,44.625c0.414-0.027,0.81,0.062,1.062,0.156
	c-0.501,0.543-1.251,1.029-2.25,1.406c0.026-0.723,0.129-1.139,0.531-1.375C30.737,44.69,30.965,44.64,31.188,44.625z"/>
</svg>
