<?xml version="1.0" encoding="utf-8"?>
<!-- Generator: Adobe Illustrator 16.0.0, SVG Export Plug-In . SVG Version: 6.00 Build 0)  -->
<!DOCTYPE svg PUBLIC "-//W3C//DTD SVG 1.1//EN" "http://www.w3.org/Graphics/SVG/1.1/DTD/svg11.dtd">
<svg version="1.1" id="Layer_1" xmlns="http://www.w3.org/2000/svg" xmlns:xlink="http://www.w3.org/1999/xlink" x="0px" y="0px"
	 width="24px" height="24px" viewBox="0 0 24 24" enable-background="new 0 0 24 24" xml:space="preserve">
<path fill="#F5F9FF" d="M7.406,0c-0.3,0.1-1.413,0.206-2.312,0.906C1.418,3.711,1.4,7.332,3.031,8.562
	C3.088,9.402,3.49,10.558,5,11.312c0,0.908,0.553,1.595,1.25,1.812c-0.125,0.245-0.247,0.497-0.375,0.781l-2.281-0.75l-1.875-1.875
	c-0.209-0.223-0.508-0.338-0.812-0.312C0.864,10.977,0.822,10.987,0.781,11c-0.543,0.099-0.904,0.619-0.806,1.163
	c0.039,0.213,0.146,0.409,0.306,0.556l2,2c0.117,0.104,0.256,0.179,0.406,0.219l2.438,0.812c-0.009,0.023-0.022,0.039-0.031,0.062
	C5.005,16.049,4.995,16.256,5,16.469l-1.875,0.469l-1.688-0.844C1.263,16.009,1.067,15.977,0.875,16
	c-0.031-0.002-0.062-0.002-0.094,0c-0.544,0.095-0.909,0.612-0.814,1.156c0.058,0.335,0.282,0.617,0.595,0.75l2,1
	c0.214,0.102,0.458,0.124,0.688,0.062l2.844-0.719c0.304,0.262,0.648,0.542,1.031,0.812l-2.5,1c-0.234,0.094-0.423,0.272-0.531,0.5
	l-1,2c-0.242,0.5-0.032,1.102,0.469,1.344s1.102,0.031,1.344-0.469l0.812-1.625l3.344-1.344C9.99,21.237,10.763,22,12,22
	s2.01-0.763,2.938-1.531l3.344,1.344l0.812,1.625c0.242,0.5,0.844,0.711,1.344,0.469s0.711-0.844,0.469-1.344l-1-2
	c-0.107-0.228-0.297-0.406-0.531-0.5l-2.5-1c0.397-0.275,0.751-0.548,1.062-0.812l2.812,0.719c0.229,0.062,0.473,0.039,0.688-0.062
	l2-1c0.5-0.242,0.711-0.844,0.469-1.344s-0.844-0.711-1.344-0.469l-1.688,0.844l-1.844-0.469c0-0.209-0.041-0.42-0.125-0.656
	c-0.01-0.023-0.021-0.039-0.031-0.062l2.438-0.812c0.15-0.04,0.289-0.115,0.406-0.219l2-2c0.404-0.376,0.427-1.009,0.051-1.414
	c-0.229-0.245-0.564-0.359-0.895-0.305c-0.225,0.024-0.434,0.124-0.594,0.281l-1.875,1.875l-2.281,0.75
	c-0.123-0.275-0.254-0.512-0.375-0.75c0.932-0.248,1.436-1.327,1.344-1.969c1.6-0.2,2.094-1.381,2.094-2.781
	c-0.45,0.45-1.007,0.683-1.594,0.781c0.301-0.125,0.576-0.327,0.812-0.594c1.5-1.7,0.5-5.388-4-7.188
	c-1.2-0.5-2.294-0.312-2.594-0.312c0.5,0.5,2.487,2.812,2.688,3.812c-1.1,0-3.506-1.706-4.406-2.406
	c-0.4,1.5,1.013,4.712,2.812,5.812c0.393,0.218,1.209,0.594,2.125,0.844c-0.07,0.525-0.075,1,0.375,1.75
	c-0.368,0.041-0.701,0.148-0.969,0.281C15.402,10.178,14.131,10,12,10c-2.098,0-3.348,0.186-4.375,1.156
	c-0.243-0.109-0.501-0.215-0.812-0.25c0.6-1,0.5-1.513,0.5-1.812c-1.01,0.121-1.764,0.115-2.344-0.031
	C6.463,8.912,8.006,7.9,8.5,7.406c1.5-1.5,2.006-4.3,0.906-6.5c-0.7,0.9-2.4,3.106-3.5,3.406C5.806,3.413,7.106,0.6,7.406,0z"/>
</svg>
