<?xml version="1.0" encoding="utf-8"?>
<!-- Generator: Adobe Illustrator 16.0.0, SVG Export Plug-In . SVG Version: 6.00 Build 0)  -->
<!DOCTYPE svg PUBLIC "-//W3C//DTD SVG 1.1//EN" "http://www.w3.org/Graphics/SVG/1.1/DTD/svg11.dtd">
<svg version="1.1" id="Layer_1" xmlns="http://www.w3.org/2000/svg" xmlns:xlink="http://www.w3.org/1999/xlink" x="0px" y="0px"
	 width="50px" height="50px" viewBox="0 0 50 50" enable-background="new 0 0 50 50" xml:space="preserve">
<path fill="#F5F9FF" d="M25,5c-2.197,0-4,1.803-4,4c0,1.414,0.757,2.663,1.875,3.375l-6.938,16.031l-8.812-7.969
	C7.66,19.757,8,18.926,8,18c0-2.197-1.803-4-4-4s-4,1.803-4,4c0,2.092,1.635,3.807,3.688,3.969L6.875,35h36.25l3.156-13.031
	C48.348,21.822,50,20.102,50,18c0-2.197-1.803-4-4-4s-4,1.803-4,4c0,0.926,0.34,1.757,0.875,2.438l-8.812,7.938l-6.938-16
	C28.243,11.663,29,10.414,29,9C29,6.803,27.197,5,25,5z M25,7c1.116,0,2,0.884,2,2s-0.884,2-2,2s-2-0.884-2-2S23.884,7,25,7z M4,16
	c1.116,0,2,0.884,2,2s-0.884,2-2,2s-2-0.884-2-2S2.884,16,4,16z M46,16c1.116,0,2,0.884,2,2s-0.884,2-2,2s-2-0.884-2-2
	S44.884,16,46,16z M7,37v7c0,0.553,0.448,1,1,1h34c0.553,0,1-0.447,1-1v-7H7z"/>
</svg>
