<?xml version="1.0" encoding="utf-8"?>
<!-- Generator: Adobe Illustrator 16.0.0, SVG Export Plug-In . SVG Version: 6.00 Build 0)  -->
<!DOCTYPE svg PUBLIC "-//W3C//DTD SVG 1.1//EN" "http://www.w3.org/Graphics/SVG/1.1/DTD/svg11.dtd">
<svg version="1.1" id="Layer_1" xmlns="http://www.w3.org/2000/svg" xmlns:xlink="http://www.w3.org/1999/xlink" x="0px" y="0px"
	 width="200px" height="200px" viewBox="0 0 200 200" enable-background="new 0 0 200 200" xml:space="preserve">
<path fill="#F5F9FF" d="M100,16.667c-6.493,0-12.093,3.696-14.844,9.115c-39.313,4.635-59.935,27.237-65.885,45.833
	c1.667,0,3.281,0.989,4.948,1.823c1.667,2.5,0,6.615-4.167,9.115c-1.667,0.833-2.552,0.729-3.386,1.562
	c0,5.729,1.693,10.522,4.948,13.281l1.042,4.688l16.667,62.238c0.028,0.125,0.231,0.138,0.261,0.262
	c2.657,11.124,12.617,18.75,23.698,18.75H137.5c11.08,0,21.041-7.627,23.697-18.75h0.262c0.017-0.077-0.018-0.184,0-0.262
	l15.885-62.238l1.303-4.949c11.225-10.176,3.349-45.257-32.031-62.239c0.832,1.667,0.885,4.323-0.781,5.989
	c-2.5,2.5-7.553,2.552-11.719-0.781c-4.168-3.333-5.887-7.656-3.387-10.156c-4.955-1.802-10.049-3.078-15.625-3.906
	C112.414,20.453,106.617,16.667,100,16.667z M70.312,39.844c3.242-0.117,7.292,2.24,10.417,5.99c3.333,5.833,3.333,11.562,0,14.062
	c-3.333,2.5-9.114,0.052-13.281-4.948c-3.333-5-3.333-11.562,0-14.062C68.281,40.26,69.232,39.883,70.312,39.844z M145.053,63.281
	c3.332,0,6.51,4.115,6.51,9.115s-3.178,9.375-6.51,9.375c-3.334,0-6.771-4.375-6.771-9.375S140.885,63.281,145.053,63.281z
	 M41.667,108.334h116.927l-13.281,52.082v0.262c-0.816,3.671-4.016,5.988-7.812,5.988h-4.428L140.104,125h-16.666l-7.031,41.666
	h-8.072V125H91.667v41.666h-8.073L76.562,125H59.896l7.031,41.666h-3.646c-3.796,0-6.736-2.317-7.552-5.988l-0.26-0.262
	L41.667,108.334z"/>
</svg>
