<?xml version="1.0" encoding="utf-8"?>
<!-- Generator: Adobe Illustrator 16.0.0, SVG Export Plug-In . SVG Version: 6.00 Build 0)  -->
<!DOCTYPE svg PUBLIC "-//W3C//DTD SVG 1.1//EN" "http://www.w3.org/Graphics/SVG/1.1/DTD/svg11.dtd">
<svg version="1.1" id="Layer_1" xmlns="http://www.w3.org/2000/svg" xmlns:xlink="http://www.w3.org/1999/xlink" x="0px" y="0px"
	 width="24px" height="24px" viewBox="0 0 24 24" enable-background="new 0 0 24 24" xml:space="preserve">
<path fill="#F5F9FF" d="M23.188,0c0,0-2.494,2.406-5.594,2.406l-3.5,3.5L15,6.688c0.2,0.2,0.2,0.519,0,0.719
	c-0.1,0.1-0.213,0.094-0.312,0.094s-0.182,0.006-0.281-0.094l-0.812-0.812l-1.188,1.219l0.781,0.781c0.2,0.2,0.2,0.519,0,0.719
	c-0.1,0.1-0.182,0.094-0.281,0.094s-0.213,0.006-0.312-0.094L11.812,8.5l-1.219,1.188l0.812,0.812c0.2,0.2,0.2,0.487,0,0.688
	c-0.1,0.1-0.212,0.125-0.312,0.125s-0.181-0.025-0.281-0.125L10,10.406l-2.5,2.5l5.406,5.406C23.706,8.212,23.188,0,23.188,0z
	 M22.312,1.906c-0.4,2.6-2.725,7.806-9.625,14.906L11.5,15.594c0,0,2.106-2.006,3.906-3.906C18.006,8.987,21.112,5.506,22.312,1.906
	z M6.469,13.625l-1.125,1.156L6,15.406l-6,6L1.594,23c1.2,1.2,5.312-0.812,6.312-1.812c0.863-0.863,1.356-1.643,1.656-2.281
	l1.188,1.156l1.125-1.125L6.469,13.625z"/>
</svg>
