<?xml version="1.0" encoding="utf-8"?>
<!-- Generator: Adobe Illustrator 16.0.0, SVG Export Plug-In . SVG Version: 6.00 Build 0)  -->
<!DOCTYPE svg PUBLIC "-//W3C//DTD SVG 1.1//EN" "http://www.w3.org/Graphics/SVG/1.1/DTD/svg11.dtd">
<svg version="1.1" id="Layer_1" xmlns="http://www.w3.org/2000/svg" xmlns:xlink="http://www.w3.org/1999/xlink" x="0px" y="0px"
	 width="26px" height="26px" viewBox="0 0 26 26" enable-background="new 0 0 26 26" xml:space="preserve">
<path fill="#F5F9FF" d="M24.969-0.031C24.905-0.027,24.843-0.017,24.781,0c-0.391,0.095-0.686,0.416-0.75,0.812
	c-0.373,2.003-1.172,3.79-2.812,5.219c-0.332,0.289-0.713,0.553-1.125,0.812C20.572,5.603,21,3.978,21,2
	c0.014-0.552-0.424-1.011-0.976-1.024C19.943,0.974,19.861,0.982,19.781,1C19.315,1.104,18.988,1.523,19,2
	c0,3.849-1.623,5.924-1.812,6.156C16.009,8.525,14.633,8.822,13,9c-1.647-0.182-3.029-0.496-4.219-0.875C8.53,7.811,7,5.759,7,2
	c0.013-0.552-0.423-1.011-0.976-1.024C5.943,0.974,5.861,0.982,5.781,1C5.315,1.104,4.988,1.523,5,2
	c0,1.978,0.428,3.603,0.906,4.844C5.501,6.588,5.141,6.315,4.812,6.031C3.157,4.6,2.34,2.808,1.969,0.812
	C1.874,0.269,1.356-0.094,0.812,0C0.271,0.109-0.08,0.636,0.029,1.178c0,0.003,0.001,0.006,0.002,0.01
	C0.46,3.492,1.456,5.763,3.5,7.531c1.402,1.212,3.288,2.146,5.719,2.781c-0.307,0.291-0.546,0.642-0.781,1
	C5.987,10.025,3.396,9.477,2,10.594C1.6,10.994,4.1,14,5.5,14c0.652,0,1.302-0.15,1.812-0.312c-0.3,0.9-0.325,1.818-0.125,2.719
	c0.6,1.7,2.506,4.594,3.406,8.594c0,0,0.406,1.094,2.406,1.094S15.406,25,15.406,25c0.9-4,2.807-6.794,3.406-8.594
	c0.295-0.984,0.289-1.896-0.094-2.688c0.507,0.182,1.14,0.375,1.781,0.375c1.4,0,3.9-3.006,3.5-3.406
	c-1.396-1.21-3.986-0.662-6.438,0.625c-0.23-0.353-0.48-0.681-0.781-0.969c2.463-0.634,4.348-1.592,5.75-2.812
	c2.034-1.771,3.01-4.047,3.438-6.344c0.121-0.539-0.218-1.074-0.757-1.195C25.133-0.025,25.051-0.033,24.969-0.031z M9.406,14.375
	c0.263,0.037,0.531,0.188,0.781,0.438c0.5,0.5,0.525,1.193,0.125,1.594s-1,0.281-1.5-0.219s-0.525-1.193-0.125-1.594
	C8.888,14.394,9.144,14.338,9.406,14.375z M16.688,14.375c0.263-0.037,0.519,0.019,0.719,0.219c0.3,0.4,0.182,1.1-0.219,1.5
	c-0.5,0.5-1.1,0.619-1.5,0.219s-0.281-1,0.219-1.5C16.156,14.562,16.425,14.412,16.688,14.375z M12,22h2
	c0.5,0,0.794,0.506,0.594,0.906l-0.406,0.781c-0.1,0.2-0.3,0.312-0.5,0.312H12.5c-0.2,0-0.4-0.112-0.5-0.312l-0.406-0.781
	C11.194,22.506,11.5,22,12,22z"/>
</svg>
