<?xml version="1.0" encoding="utf-8"?>
<!-- Generator: Adobe Illustrator 16.0.0, SVG Export Plug-In . SVG Version: 6.00 Build 0)  -->
<!DOCTYPE svg PUBLIC "-//W3C//DTD SVG 1.1//EN" "http://www.w3.org/Graphics/SVG/1.1/DTD/svg11.dtd">
<svg version="1.1" id="Layer_1" xmlns="http://www.w3.org/2000/svg" xmlns:xlink="http://www.w3.org/1999/xlink" x="0px" y="0px"
	 width="200px" height="200px" viewBox="0 0 200 200" enable-background="new 0 0 200 200" xml:space="preserve">
<path fill="#F5F9FF" d="M53.846,0.721c-9.231,0-19.904,3.942-28.365,25.481C26.25,26.202,0,26.154,0,100
	c0,73.077,17.789,100,17.789,100h105.289c0,0-23.173-17.74-33.173-26.202c-17.109-4.463-59.81-6.204-66.106-53.605
	c4.772,23.886,33.654,42.308,65.385,34.375c13.077-3.077,23.077,5.337,42.308,8.413c18.462,3.077,32.355,2.355,37.74-16.105
	c0,0-50.816-6.779-80.048-32.933c-10-9.231-47.692-2.403-53.846-17.789c28.461,0,38.461-14.664,50-14.664
	c15.384,0,27.693,10.817,53.846,10.817c36.153,0,60.817-23.798,60.817-31.49C194.615-2.26,150.77,16.923,84.615,7.692
	c0,0,16.202,14.615,22.355,19.23C85.433,23.077,72.308,0.721,53.846,0.721z M55.769,21.875c1.74-0.293,3.606,0.048,5.048,1.202
	c9.23,5.384,16.105,12.259,16.105,12.259c-0.769,3.846-3.894,8.606-10.817,9.375c-1.539-2.308-3.125-9.375-3.125-17.067
	c-3.077,3.077-6.731,7.067-6.731,13.221c-3.077-3.077-4.76-9.327-5.529-13.942C50.24,24.519,52.87,22.363,55.769,21.875z
	 M167.548,29.086c4.038-0.108,12.356,1.106,14.663,13.221c0,3.846-8.365,1.586-12.98-0.721c-3.846-2.308-7.691-6.875-3.846-12.259
	C165.385,29.327,166.202,29.123,167.548,29.086z M189.183,81.49l-9.135,6.971c0,8.461,1.442,12.981,1.442,12.981
	s2.26,0.097,4.567-5.289C186.827,93.846,188.414,86.106,189.183,81.49z M89.904,89.183c0.769,3.846,1.683,5.529,1.683,5.529
	s1.395,0.673,2.164-2.404c0.769-0.769,0.914-1.635,1.683-2.404C93.894,89.904,91.442,89.183,89.904,89.183z M100.721,91.586
	c0.77,5.385,1.684,6.971,1.684,6.971s1.346,0.673,2.885-2.404c0.769,0,0.913-1.635,1.682-2.404
	C104.664,92.981,103.029,92.356,100.721,91.586z M173.077,91.586c-3.077,1.539-6.25,3.077-10.097,3.846
	c0,10,1.684,16.106,1.684,16.106s2.98-0.097,5.288-6.25C170.721,102.98,172.308,96.202,173.077,91.586z M112.98,96.154
	c0.77,6.154,1.684,11.539,1.684,11.539s2.355,0.722,3.125-3.125c0.769-0.77,1.394-4.664,2.163-6.971
	C117.645,97.596,115.289,96.923,112.98,96.154z M157.692,96.875c-3.847,0.769-8.413,1.683-12.26,1.683
	c0.77,13.077,2.163,20.673,2.163,20.673s3.174,0,6.25-7.691C154.615,109.23,156.923,102.26,157.692,96.875z M129.327,98.558
	c0,9.231,0.721,15.385,0.721,15.385s2.212,0.769,5.288-3.847c0-1.538,2.356-6.971,3.125-10.817
	C134.615,99.279,132.404,98.558,129.327,98.558z M103.125,111.539c0,0-2.355,1.538-3.125,3.846c1.539,1.538,2.308,2.355,3.846,3.125
	c0-1.539,0.722-3.077,0.722-3.846C104.567,111.586,103.125,111.539,103.125,111.539z M112.98,117.789c0,0-1.538,1.49-3.846,4.566
	l4.808,2.164c0-2.309,0.722-3.799,0.722-4.567C114.664,117.645,112.98,117.789,112.98,117.789z M138.461,120.673
	c0,0-3.797,5.433-8.413,10.817c2.308,1.539,5.385,2.355,7.692,3.125c0.77-3.846,2.164-8.365,2.164-9.135
	C140.673,121.635,138.461,120.673,138.461,120.673z M125.48,121.635c0,0-3.221,2.163-5.528,6.01c1.538,0.77,3.99,1.635,5.528,2.403
	c0.77-2.308,1.442-4.759,1.442-5.528C126.923,121.442,125.48,121.635,125.48,121.635z M151.442,128.365c0,0-2.981,3.99-5.288,9.375
	c1.538,0.77,3.75,0.674,5.288,1.442c0.769-3.077,1.683-6.202,1.683-6.972C153.125,128.365,151.442,128.365,151.442,128.365z
	 M165.385,133.173c0,0-2.26,3.798-4.567,8.413c1.538,0,3.028,0.722,4.567,0.722c0.77-2.308,1.442-4.519,1.442-5.288
	C166.827,133.173,165.385,133.173,165.385,133.173z"/>
</svg>
