<?xml version="1.0" encoding="utf-8"?>
<!-- Generator: Adobe Illustrator 16.0.0, SVG Export Plug-In . SVG Version: 6.00 Build 0)  -->
<!DOCTYPE svg PUBLIC "-//W3C//DTD SVG 1.1//EN" "http://www.w3.org/Graphics/SVG/1.1/DTD/svg11.dtd">
<svg version="1.1" id="Layer_1" xmlns="http://www.w3.org/2000/svg" xmlns:xlink="http://www.w3.org/1999/xlink" x="0px" y="0px"
	 width="200px" height="200px" viewBox="0 0 200 200" enable-background="new 0 0 200 200" xml:space="preserve">
<path fill="#F5F9FF" d="M130.77,0v23.077L116.827,62.26l44.712,22.355V69.231v-7.692h14.663c5.384,0,9.903-3.077,12.98-7.692
	L200,30.769l-38.461-15.384h-15.385C140.77,2.308,130.77,0,130.77,0z M161.539,26.202c2.307,0,4.566,2.259,4.566,4.567
	c0,2.308-2.26,4.567-4.566,4.567c-2.309,0-4.568-2.259-4.568-4.567C156.971,28.461,159.23,26.202,161.539,26.202z M7.692,53.846
	c-1.923,0-3.75,0.865-5.289,2.404c-3.077,3.077-3.077,7.5,0,10.577l12.981,13.221v50.722v57.691c0,6.154,5.384,11.539,11.538,11.539
	c6.154,0,11.539-5.385,11.539-11.539V130.77h92.308v57.691c0,6.154,5.385,11.539,11.538,11.539s11.538-5.385,11.538-11.539V130.77
	l7.693-30.77v-2.404l-56.972-28.365H26.202L12.981,56.25C11.442,54.711,9.615,53.846,7.692,53.846z M46.154,138.461v23.799
	l16.827,31.49c3.077,5.385,10,7.885,15.384,4.808c5.385-3.077,7.885-10,4.808-15.385l-24.038-44.712H46.154z"/>
</svg>
