<?xml version="1.0" encoding="utf-8"?>
<!-- Generator: Adobe Illustrator 16.0.0, SVG Export Plug-In . SVG Version: 6.00 Build 0)  -->
<!DOCTYPE svg PUBLIC "-//W3C//DTD SVG 1.1//EN" "http://www.w3.org/Graphics/SVG/1.1/DTD/svg11.dtd">
<svg version="1.1" id="Layer_1" xmlns="http://www.w3.org/2000/svg" xmlns:xlink="http://www.w3.org/1999/xlink" x="0px" y="0px"
	 width="24px" height="24px" viewBox="0 0 24 24" enable-background="new 0 0 24 24" xml:space="preserve">
<path fill="#F5F9FF" d="M5.938,2C5.092,2.037,4.219,2.312,3.406,3c-0.4,0.3,3.681,2.506,3.281,2.906
	c-3.5,4.1-3.275,7.787-3.375,11.688c0,0.2-0.112,0.4-0.312,0.5c-0.2,0.2-3,1.4-3,4.5C0,22.794,0.212,23,0.312,23
	c0.3,0,1-1.112,1.5-1.312c0.6-0.2,0.781-0.094,1.281-0.094s0.8-0.3,1-0.5c0.1,0.1,0.612,0.406,0.812,0.406
	c0.6,0,1.106-0.094,1.406-0.094c0.6,0,0.9,0.4,1,0.5c0.3,0.2,0.375,0.206,0.375-0.094c0.2-1.6-0.9-2.919-2-3.719
	c-0.2-0.1-0.175-0.3,0.125-1c2.3-4.7,6.081-6.706,6.781-6.906c-0.4,0.3-1.981,2.4-1.781,2.5c3.5,0.6,5.081-1.987,5.281-2.188
	c0.3-0.4,0.719-0.494,1.219-0.594c0.7-0.1,2.487-0.219,4.688-0.219c0.4,0,1.6-0.075,2-0.375c0.1,0-0.106-0.3-0.406-0.5
	c0.2-0.3,0.519-0.413,0.219-0.812c-0.1-0.2-0.625-0.6-1.125-1c0.3-0.3-0.675-4.194-5.875-4.594c-4.2-0.3-5.712,0.681-6.312,0.781
	c-0.2,0-0.394,0.006-0.594-0.094C9.494,2.956,7.797,1.919,5.938,2z M19.5,7C19.8,7,20,7.2,20,7.5S19.8,8,19.5,8S19,7.8,19,7.5
	S19.2,7,19.5,7z M20,10.594c-1.3,0.1-2.307,0.212-2.906,0.312H17c-0.4,0.6-0.693,1.281-0.594,1.281
	C18.406,12.388,19.5,11.294,20,10.594z"/>
</svg>
