<svg xmlns="http://www.w3.org/2000/svg" width="24" height="24" viewBox="0 0 24 24">    <path d="M 5.9375 2 C 5.092041 2.0368652 4.21875 2.3125 3.40625 3 C 3.00625 3.3 7.0875 5.50625 6.6875 5.90625 C 3.1875 10.00625 3.4125 13.69375 3.3125 17.59375 C 3.3125 17.79375 3.2 17.99375 3 18.09375 C 2.8 18.29375 -2.9605947e-16 19.49375 0 22.59375 C -4.4408921e-16 22.79375 0.2125 23 0.3125 23 C 0.6125 23 1.3125 21.8875 1.8125 21.6875 C 2.4125 21.4875 2.59375 21.59375 3.09375 21.59375 C 3.59375 21.59375 3.89375 21.29375 4.09375 21.09375 C 4.19375 21.19375 4.70625 21.5 4.90625 21.5 C 5.50625 21.5 6.0125 21.40625 6.3125 21.40625 C 6.9125 21.40625 7.2125 21.80625 7.3125 21.90625 C 7.6125 22.10625 7.6875 22.1125 7.6875 21.8125 C 7.8875 20.2125 6.7875 18.89375 5.6875 18.09375 C 5.4875 17.99375 5.5125 17.79375 5.8125 17.09375 C 8.1125 12.39375 11.89375 10.3875 12.59375 10.1875 C 12.19375 10.4875 10.6125 12.5875 10.8125 12.6875 C 14.3125 13.2875 15.89375 10.7 16.09375 10.5 C 16.39375 10.1 16.8125 10.00625 17.3125 9.90625 C 18.0125 9.80625 19.8 9.6875 22 9.6875 C 22.4 9.6875 23.6 9.6125 24 9.3125 C 24.1 9.3125 23.89375 9.0125 23.59375 8.8125 C 23.79375 8.5125 24.1125 8.4 23.8125 8 C 23.7125 7.8 23.1875 7.4 22.6875 7 C 22.9875 6.7 22.0125 2.80625 16.8125 2.40625 C 12.6125 2.10625 11.1 3.0875 10.5 3.1875 C 10.3 3.1875 10.10625 3.19375 9.90625 3.09375 C 9.49375 2.95625 7.7975098 1.9188965 5.9375 2 z M 19.5 7 C 19.8 7 20 7.2 20 7.5 C 20 7.8 19.8 8 19.5 8 C 19.2 8 19 7.8 19 7.5 C 19 7.2 19.2 7 19.5 7 z M 20 10.59375 C 18.7 10.69375 17.69375 10.80625 17.09375 10.90625 L 17 10.90625 C 16.6 11.50625 16.30625 12.1875 16.40625 12.1875 C 18.40625 12.3875 19.5 11.29375 20 10.59375 z"></path></svg>