<?xml version="1.0" encoding="utf-8"?>
<!-- Generator: Adobe Illustrator 16.0.0, SVG Export Plug-In . SVG Version: 6.00 Build 0)  -->
<!DOCTYPE svg PUBLIC "-//W3C//DTD SVG 1.1//EN" "http://www.w3.org/Graphics/SVG/1.1/DTD/svg11.dtd">
<svg version="1.1" id="Layer_1" xmlns="http://www.w3.org/2000/svg" xmlns:xlink="http://www.w3.org/1999/xlink" x="0px" y="0px"
	 width="24px" height="24px" viewBox="0 0 24 24" enable-background="new 0 0 24 24" xml:space="preserve">
<path fill="#F5F9FF" d="M12,3C9.01,3,6.066,3.83,3.812,5.438S0,9.51,0,12.5c0,2.99,1.559,5.455,3.812,7.062S9.01,22,12,22
	s5.934-0.83,8.188-2.438S24,15.49,24,12.5c0-2.99-1.559-5.455-3.812-7.062S14.99,3,12,3z M10.25,5.094l1.562,0.312
	c0-0.1,0.381,0.206,0.281,0.406c-0.1,0.3-0.406,0.281-0.406,0.281L10.094,6c-0.3,0-0.381-0.2-0.281-0.5
	c0-0.25,0.22-0.345,0.312-0.375C10.167,5.119,10.208,5.099,10.25,5.094z M16,5.594c0.117,0.036,0.229,0.085,0.344,0.125
	c0.037,0.042,0.062,0.112,0.062,0.188c0,0.3-0.312,0.5-0.312,0.5l-1.5,0.406c-0.2,0.1-0.4-0.112-0.5-0.312
	c0-0.3,0.312-0.5,0.312-0.5L16,5.594z M7.156,5.906C7.325,5.878,7.5,6,7.5,6l0.812,1.312c0.1,0,0.175,0.4-0.125,0.5
	c-0.2,0.2-0.5-0.125-0.5-0.125L6.906,6.5C6.806,6.3,6.9,6.1,7,6C7.05,5.95,7.1,5.916,7.156,5.906z M4.781,7.344
	C4.869,7.344,4.95,7.4,5,7.5C5.2,7.7,5.094,8,5.094,8l-1,1.188c0-0.1-0.394,0.106-0.594-0.094s0-0.5,0-0.5l1-1.094
	C4.6,7.4,4.694,7.344,4.781,7.344z M18.75,7.969C18.891,7.983,19,8.094,19,8.094l0.594,1.812c0.1,0,0.112,0.4-0.188,0.5
	s-0.5-0.219-0.5-0.219l-0.594-1.594c-0.1-0.3-0.019-0.494,0.281-0.594C18.644,7.975,18.703,7.964,18.75,7.969z M12,8
	c2.2,0,4,1.1,4,2.5S14.2,13,12,13s-4-1.1-4-2.5S9.8,8,12,8z M4.594,11.406L6,11.906c0.2,0.1,0.288,0.3,0.188,0.5
	c-0.1,0.3-0.375,0.281-0.375,0.281l-1.406-0.5c-0.1-0.1-0.413-0.294-0.312-0.594C4.194,11.394,4.594,11.406,4.594,11.406z
	 M17.094,11.5l1.594,0.5c0.3,0.1,0.318,0.294,0.219,0.594s-0.5,0.312-0.5,0.312l-1.594-0.594c0,0.1-0.318-0.2-0.219-0.5
	S17.094,11.5,17.094,11.5z M8.312,12.688l1.375,0.906c0.3,0.2,0.319,0.394,0.219,0.594c-0.2,0.3-0.5,0.219-0.5,0.219l-1.5-0.906
	c-0.1,0.1-0.319-0.294-0.219-0.594C7.888,12.706,8.312,12.688,8.312,12.688z M2.156,13.781c0.405,0.384,0.575,0.992,1.344,1.531
	c0.9,0.7,1.606-0.119,2.406,0.281c0.6,0.2,1.981,1.494,3.281,1.594c1.1,0.1,2.212-0.688,2.812-0.688c0.8,0,1.5,0.794,2.5,0.594
	c0.7-0.2,1.3-0.706,2-0.906c0.6-0.2,1.588,0.112,2.688-0.188c0.9-0.2,0.818-0.987,1.719-1.688c0.352-0.264,0.631-0.244,0.875-0.188
	c-0.402,1.545-1.365,2.824-2.75,3.812C17.186,19.254,14.609,20,12,20s-5.185-0.746-7.031-2.062
	C3.483,16.877,2.497,15.484,2.156,13.781z M14.75,13.812c0.15-0.047,0.287,0.037,0.438,0.188c0.2,0.3,0,0.594,0,0.594l-1.375,1
	c-0.1,0.1-0.619,0.206-0.719-0.094s0.094-0.594,0.094-0.594l1.406-1C14.644,13.856,14.7,13.828,14.75,13.812z"/>
</svg>
