<?xml version="1.0" encoding="utf-8"?>
<!-- Generator: Adobe Illustrator 16.0.0, SVG Export Plug-In . SVG Version: 6.00 Build 0)  -->
<!DOCTYPE svg PUBLIC "-//W3C//DTD SVG 1.1//EN" "http://www.w3.org/Graphics/SVG/1.1/DTD/svg11.dtd">
<svg version="1.1" id="Layer_1" xmlns="http://www.w3.org/2000/svg" xmlns:xlink="http://www.w3.org/1999/xlink" x="0px" y="0px"
	 width="50px" height="50px" viewBox="0 0 50 50" enable-background="new 0 0 50 50" xml:space="preserve">
<path fill="#F5F9FF" d="M24.438-0.031c-1.236,0.117-2.087,0.623-2.656,1.156c0.336,0.14,0.648,0.351,0.906,0.594
	c0.213,0.16,0.865,0.68,1.594,1.5c0.383,0.43,0.337,1.086-0.094,1.469c-0.43,0.381-1.087,0.336-1.469-0.094
	c-0.703-0.79-1.309-1.247-1.312-1.25C21.359,3.311,21.29,3.291,21.25,3.25c-0.351-0.351-1.092-0.41-1.781-0.125
	c-0.371,0.153-1.21,0.585-1.438,1.625c-0.035,0.207-0.062,0.438-0.062,0.656c0,1.78,1.307,3.29,3.094,3.656
	c0.879,1.231,2.351,1.969,3.938,1.969c1.6,0,3.062-0.752,3.938-2c1.799-0.456,3.094-1.969,3.094-3.719
	c0-0.171-0.008-0.335-0.031-0.5c-0.215-1.067-1.094-1.533-1.469-1.688c-0.688-0.286-1.43-0.226-1.781,0.125
	c-0.04,0.041-0.109,0.061-0.156,0.094c-0.004,0.003-0.609,0.46-1.312,1.25c-0.382,0.43-1.039,0.475-1.469,0.094
	c-0.43-0.382-0.476-1.039-0.094-1.469c0.729-0.821,1.381-1.34,1.594-1.5c0.259-0.243,0.57-0.454,0.906-0.594
	C27.57,0.515,26.531-0.031,25-0.031C24.809-0.031,24.614-0.048,24.438-0.031z M1.562,3.719C0.029,3.719,0,4.868,0,5
	c0,2.53,2.887,5.599,4.875,6.75c0.528,0.317,1.107,0.603,1.688,0.875c0.512-0.067,1.034-0.122,1.594-0.188
	c2.882-0.342,6.185-0.617,8.938-0.75c0.092-0.714,0.241-1.397,0.5-2.031C12.09,6.939,4.046,3.719,1.562,3.719z M48.438,3.719
	c-2.496,0-10.62,3.244-16.125,5.969c0.229,0.638,0.375,1.293,0.469,1.906c2.759,0.132,6.078,0.408,8.969,0.75
	c0.652,0.077,1.256,0.141,1.844,0.219c0.523-0.251,1.021-0.525,1.5-0.812C47.096,10.592,50,7.53,50,5
	C50,4.868,49.97,3.719,48.438,3.719z M19.375,10.594C19.126,11.266,19,12.012,19,12.812c0,1.654,0.642,2.803,1.25,3.656
	c0.15,1.062,0.578,2.194,1.219,3.125L21.094,25c0,0.487,0.166,0.946,0.469,1.312l-0.25,4c0,0.555,0.206,1.054,0.562,1.438
	l-0.281,3.438c0,0.432,0.172,0.867,0.469,1.219l-0.25,3.406c0,0.43,0.145,0.838,0.438,1.188L22,43.688
	c0,0.32,0.081,0.623,0.25,0.875l-0.156,1.844c0,0.396,0.152,0.768,0.406,1.062V49c0,0.427,0.284,0.799,0.688,0.938
	C23.294,49.975,23.392,50,23.5,50c0.302,0,0.588-0.127,0.781-0.375l0.625-0.781l0.594,0.781c0.262,0.336,0.721,0.453,1.125,0.312
	c0.404-0.139,0.688-0.511,0.688-0.938v-1.531c0.254-0.305,0.377-0.702,0.375-1.156l-0.156-1.75c0.168-0.264,0.253-0.597,0.25-0.969
	l-0.25-2.562c0.236-0.273,0.47-0.703,0.469-1.312L27.75,36.5c0.37-0.378,0.535-0.905,0.438-1.438l-0.25-3.281
	c0.441-0.439,0.664-1.049,0.562-1.625l-0.281-3.875c0.293-0.376,0.471-0.845,0.469-1.344l-0.312-4.531
	c-0.945,0.395-1.986,0.589-3.156,0.594h-0.031c-0.55,0-0.998-0.449-1-1c-0.002-0.552,0.448-0.997,1-1
	c1.346-0.005,4.323-0.717,4.406-1.969c0.027-0.177,0.041-0.355,0.062-0.531c0.605-0.788,1.25-2,1.25-3.688
	c0-0.656-0.149-1.436-0.406-2.219c-0.127,0.058-0.242,0.106-0.375,0.156c-1.271,1.443-3.137,2.281-5.125,2.281
	c-1.956,0-3.791-0.816-5.062-2.219C19.748,10.748,19.555,10.677,19.375,10.594z M32.875,13.594c-0.148,1.577-0.74,2.823-1.312,3.688
	c-0.086,0.831-0.512,1.489-1.094,2c0.33,0.161,0.694,0.316,1.062,0.469c0.027,0.011,0.066,0.019,0.094,0.031
	c0.332,0.135,0.676,0.253,1.031,0.375c0.072,0.024,0.146,0.07,0.219,0.094c0.33,0.108,0.652,0.189,1,0.281
	c0.102,0.027,0.209,0.07,0.312,0.094c0.445,0.109,0.909,0.178,1.375,0.25c0.424,0.061,0.975,0.094,1.656,0.094
	c2.191,0,5.203-0.314,7.5-0.781c3.574-0.727,5.188-1.676,5.188-3.094c0-0.064,0.007-0.125,0-0.188c0-0.01-0.029-0.021-0.031-0.031
	c-0.006-0.053,0.012-0.105,0-0.156c-0.003-0.012-0.027-0.019-0.031-0.031c-0.014-0.049-0.008-0.108-0.031-0.156
	c-0.007-0.015-0.024-0.017-0.031-0.031c-0.023-0.044-0.062-0.081-0.094-0.125c-0.014-0.018-0.016-0.044-0.031-0.062
	c-0.032-0.039-0.084-0.087-0.125-0.125c-0.023-0.022-0.037-0.041-0.062-0.062c-0.039-0.033-0.078-0.061-0.125-0.094
	c-0.039-0.027-0.08-0.066-0.125-0.094c-0.043-0.026-0.107-0.036-0.156-0.062c-0.062-0.033-0.117-0.061-0.188-0.094
	c-0.041-0.019-0.081-0.044-0.125-0.062c-0.093-0.04-0.203-0.085-0.312-0.125c-0.029-0.011-0.062-0.021-0.094-0.031
	c-0.133-0.046-0.249-0.078-0.406-0.125c-0.012-0.003-0.051-0.028-0.062-0.031c-1.068-0.313-2.674-0.611-5.156-0.938
	c-0.082-0.01-0.196-0.021-0.281-0.031c-0.368-0.047-0.738-0.079-1.125-0.125c-0.249-0.029-0.495-0.067-0.75-0.094
	c-0.277-0.031-0.56-0.065-0.844-0.094C37.406,13.887,34.994,13.699,32.875,13.594z M17.062,13.688c-2.038,0.1-4.357,0.275-6.594,0.5
	c-0.703,0.071-1.393,0.14-2.062,0.219C0.613,15.33,0,16.143,0,17.188c0,1.382,1.616,2.325,5.219,3.031
	c2.326,0.456,5.34,0.75,7.531,0.75c0.69,0,1.281-0.032,1.719-0.094c0.434-0.068,0.832-0.15,1.25-0.25
	c0.254-0.061,0.503-0.118,0.75-0.188c0.154-0.044,0.319-0.078,0.469-0.125c0.351-0.11,0.702-0.25,1.031-0.375
	c0.035-0.013,0.06-0.018,0.094-0.031c0.361-0.14,0.702-0.288,1.031-0.438c-0.348-0.718-0.598-1.464-0.75-2.219
	C17.615,16.119,17.2,14.931,17.062,13.688z"/>
</svg>
