<?xml version="1.0" encoding="utf-8"?>
<!-- Generator: Adobe Illustrator 16.0.0, SVG Export Plug-In . SVG Version: 6.00 Build 0)  -->
<!DOCTYPE svg PUBLIC "-//W3C//DTD SVG 1.1//EN" "http://www.w3.org/Graphics/SVG/1.1/DTD/svg11.dtd">
<svg version="1.1" id="Layer_1" xmlns="http://www.w3.org/2000/svg" xmlns:xlink="http://www.w3.org/1999/xlink" x="0px" y="0px"
	 width="200px" height="200px" viewBox="0 0 200 200" enable-background="new 0 0 200 200" xml:space="preserve">
<path fill="#F5F9FF" d="M100,1.539c-68.461,0-83.846,21.539-83.846,30c0,147.692,71.539,160,83.846,160s83.846-13.847,83.846-160
	C183.077,23.077,168.461,1.539,100,1.539z M96.923,116.923c27.692,0,41.538,35.385,41.538,35.385s-23.076-15.385-41.538-15.385
	c-19.23,0-41.538,15.385-41.538,15.385S70,116.923,96.923,116.923z M130,83.077c-16.154-5.385-21.539-28.462-21.539-28.462
	s16.154,1.539,28.462,5.385c13.847,4.615,24.616,10.769,24.616,10.769S142.308,87.692,130,83.077z M38.461,70.769
	c0,0,10-6.154,23.846-10.769c11.539-3.846,28.461-5.385,28.461-5.385s-5.384,23.077-21.538,28.462
	C57.692,87.692,38.461,70.769,38.461,70.769z"/>
</svg>
