<?xml version="1.0" encoding="utf-8"?>
<!-- Generator: Adobe Illustrator 16.0.0, SVG Export Plug-In . SVG Version: 6.00 Build 0)  -->
<!DOCTYPE svg PUBLIC "-//W3C//DTD SVG 1.1//EN" "http://www.w3.org/Graphics/SVG/1.1/DTD/svg11.dtd">
<svg version="1.1" id="Layer_1" xmlns="http://www.w3.org/2000/svg" xmlns:xlink="http://www.w3.org/1999/xlink" x="0px" y="0px"
	 width="26px" height="26px" viewBox="0 0 26 26" enable-background="new 0 0 26 26" xml:space="preserve">
<path fill="#F5F9FF" d="M2,4C1,4,0,5,0,6v6c0,1,1,2,2,2c0.039,0.008,0.052,0,0.125,0c1.179,0,1.547,0.898,1.406,1.656
	S2.125,22,2.125,22c-0.165,0.625,0.041,1,0.594,1h5.344c0.422,0,0.875-0.281,0.875-0.781c0-1.094-1.661-1.336-1.219-2.688
	c0.229-0.699,0.295-0.878,0.5-1.531H9c0.551,0,1-0.449,1-1v-1c0-0.436-0.299-0.77-0.688-0.906C9.655,14.611,10.23,14,11.125,14H13
	c0.551,0,4-1.449,4-2V6c0-0.551-3.449-2-4-2H2z M19,6c-0.551,0-1,0.449-1,1v4c0,0.551,0.449,1,1,1h2c0.551,0,2-1.449,2-2h2
	c0.551,0,1-0.449,1-1s-0.449-1-1-1h-2c0-0.551-1.449-2-2-2H19z"/>
</svg>
