<svg xmlns="http://www.w3.org/2000/svg" width="50" height="50" viewBox="0 0 50 50">    <path d="M 25 1 C 24.242 1 23.589 1.4415 23.25 2.0625 C 19.5 2.1985 16.20525 2.7235 13.40625 3.5625 C 13.04425 3.2055 12.548 3 12 3 C 10.954 3 10.11925 3.7895 10.03125 4.8125 C 4.79125 7.1365 2 10.48 2 13.125 C 2 16.547 5.3275 19.59775 10.5625 21.59375 C 10.9245 21.22675 11.443 21 12 21 C 12.992 21 13.81175 21.70925 13.96875 22.65625 C 16.77575 23.38325 19.92225 23.85375 23.28125 23.96875 C 23.63225 23.39075 24.274 23 25 23 C 25.725 23 26.36875 23.39175 26.71875 23.96875 C 30.07875 23.84975 33.22425 23.38125 36.03125 22.65625 C 36.19125 21.71125 37.01 21 38 21 C 38.557 21 39.0745 21.22675 39.4375 21.59375 C 44.6655 19.60975 48 16.5815 48 13.1875 C 48 11.3445 46.65375 9.15775 44.09375 7.21875 L 31.03125 15 C 31.03025 15 30.5665 15.37125 30.6875 15.90625 C 31.0255 17.44125 29.65875 18.864 28.09375 19 C 26.52575 19.138 25.138 17.97225 25 16.40625 C 24.86 14.83825 26.02575 13.4495 27.59375 13.3125 C 28.10375 13.2665 28.59825 13.3465 29.03125 13.5625 C 29.55225 13.8245 30.1875 13.59375 30.1875 13.59375 L 41.46875 5.5625 C 40.67475 5.1405 39.83925 4.742 38.90625 4.375 C 38.64525 3.576 37.888 3 37 3 C 36.563 3 36.17275 3.138 35.84375 3.375 C 33.21275 2.649 30.171 2.1875 26.75 2.0625 C 26.411 1.4405 25.759 1 25 1 z M 41.46875 5.5625 C 42.45175 6.0855 43.32775 6.63775 44.09375 7.21875 L 48.125 4.84375 C 48.913 4.37775 49.17125 3.3555 48.65625 2.5625 C 48.15425 1.7745 47.08575 1.56075 46.34375 2.09375 L 41.46875 5.5625 z M 1.96875 18.25 L 1.96875 36 C 1.96875 39.416 5.07325 42.4355 10.03125 44.4375 C 10.00225 44.3005 10 44.145 10 44 C 10 43.262 10.405 42.62825 11 42.28125 L 11 24.71875 C 10.551 24.45675 10.2015 24.04525 10.0625 23.53125 C 6.5235 22.19525 3.71175 20.369 1.96875 18.25 z M 48 18.28125 C 46.26 20.38525 43.4685 22.20125 39.9375 23.53125 C 39.7985 24.04525 39.45 24.45575 39 24.71875 L 39 42.28125 C 39.596 42.62825 40 43.261 40 44 C 40 44.144 39.99675 44.27025 39.96875 44.40625 C 44.91675 42.40225 48 39.413 48 36 L 48 18.28125 z M 13.25 24.53125 C 13.167 24.59825 13.093 24.66375 13 24.71875 L 13 42.28125 C 13.595 42.62825 14 43.261 14 44 C 14 44.605 13.7385 45.133 13.3125 45.5 C 16.2545 46.315 19.615 46.84275 23.25 46.96875 C 23.094 46.68275 23 46.347 23 46 C 23 45.277 23.39575 44.6635 23.96875 44.3125 L 23.96875 26.6875 C 23.67075 26.5055 23.418 26.2455 23.25 25.9375 C 19.641 25.8165 16.251 25.33525 13.25 24.53125 z M 36.71875 24.53125 C 33.72075 25.33225 30.357 25.8125 26.75 25.9375 C 26.567 26.2735 26.30375 26.565 25.96875 26.75 L 25.96875 44.25 C 26.58575 44.591 27 45.246 27 46 C 27 46.346 26.904 46.6535 26.75 46.9375 C 30.383 46.8115 33.7485 46.316 36.6875 45.5 C 36.2635 45.134 36 44.604 36 44 C 36 43.262 36.404 42.62825 37 42.28125 L 37 24.71875 C 36.905 24.66275 36.80275 24.60025 36.71875 24.53125 z"></path></svg>