<?xml version="1.0" encoding="utf-8"?>
<!-- Generator: Adobe Illustrator 16.0.0, SVG Export Plug-In . SVG Version: 6.00 Build 0)  -->
<!DOCTYPE svg PUBLIC "-//W3C//DTD SVG 1.1//EN" "http://www.w3.org/Graphics/SVG/1.1/DTD/svg11.dtd">
<svg version="1.1" id="Layer_1" xmlns="http://www.w3.org/2000/svg" xmlns:xlink="http://www.w3.org/1999/xlink" x="0px" y="0px"
	 width="50px" height="50px" viewBox="0 0 50 50" enable-background="new 0 0 50 50" xml:space="preserve">
<path fill="#F5F9FF" d="M25,1c-0.758,0-1.411,0.441-1.75,1.062c-3.75,0.136-7.045,0.661-9.844,1.5C13.044,3.206,12.548,3,12,3
	c-1.046,0-1.881,0.79-1.969,1.812C4.791,7.137,2,10.48,2,13.125c0,3.422,3.328,6.473,8.562,8.469C10.924,21.227,11.443,21,12,21
	c0.992,0,1.812,0.709,1.969,1.656c2.807,0.727,5.954,1.197,9.312,1.312C23.632,23.391,24.274,23,25,23
	c0.725,0,1.369,0.392,1.719,0.969c3.359-0.119,6.506-0.587,9.312-1.312C36.191,21.711,37.01,21,38,21
	c0.557,0,1.074,0.227,1.438,0.594C44.666,19.61,48,16.582,48,13.188c0-1.843-1.346-4.03-3.906-5.969L31.031,15
	c-0.001,0-0.465,0.371-0.344,0.906c0.338,1.535-1.029,2.958-2.594,3.094c-1.568,0.138-2.956-1.028-3.094-2.594
	c-0.14-1.568,1.025-2.957,2.594-3.094c0.51-0.046,1.004,0.034,1.438,0.25c0.521,0.262,1.156,0.031,1.156,0.031l11.281-8.031
	c-0.794-0.422-1.629-0.82-2.562-1.188C38.645,3.576,37.889,3,37,3c-0.438,0-0.827,0.138-1.156,0.375
	c-2.631-0.726-5.673-1.188-9.094-1.312C26.411,1.44,25.759,1,25,1z M41.469,5.562c0.982,0.523,1.859,1.075,2.625,1.656l4.031-2.375
	c0.788-0.466,1.047-1.488,0.531-2.281c-0.502-0.788-1.57-1.002-2.312-0.469L41.469,5.562z M1.969,18.25V36
	c0,3.416,3.104,6.436,8.062,8.438C10.002,44.301,10,44.145,10,44c0-0.738,0.405-1.371,1-1.719V24.719
	c-0.449-0.262-0.798-0.673-0.938-1.188C6.523,22.195,3.712,20.369,1.969,18.25z M48,18.281c-1.74,2.104-4.531,3.92-8.062,5.25
	c-0.139,0.514-0.487,0.924-0.938,1.188v17.562c0.596,0.348,1,0.979,1,1.719c0,0.145-0.004,0.271-0.031,0.406
	C44.917,42.402,48,39.413,48,36V18.281z M13.25,24.531c-0.083,0.067-0.157,0.132-0.25,0.188v17.562c0.595,0.348,1,0.979,1,1.719
	c0,0.605-0.262,1.133-0.688,1.5c2.942,0.814,6.303,1.343,9.938,1.469C23.094,46.683,23,46.348,23,46
	c0-0.723,0.396-1.336,0.969-1.688V26.688c-0.298-0.182-0.551-0.441-0.719-0.75C19.641,25.816,16.251,25.335,13.25,24.531z
	 M36.719,24.531c-2.998,0.801-6.361,1.281-9.969,1.406c-0.184,0.336-0.446,0.627-0.781,0.812v17.5C26.586,44.591,27,45.246,27,46
	c0,0.346-0.096,0.653-0.25,0.938c3.633-0.126,6.998-0.621,9.938-1.438C36.264,45.134,36,44.604,36,44c0-0.738,0.404-1.371,1-1.719
	V24.719C36.904,24.663,36.803,24.6,36.719,24.531z"/>
</svg>
