<?xml version="1.0" encoding="utf-8"?>
<!-- Generator: Adobe Illustrator 16.0.0, SVG Export Plug-In . SVG Version: 6.00 Build 0)  -->
<!DOCTYPE svg PUBLIC "-//W3C//DTD SVG 1.1//EN" "http://www.w3.org/Graphics/SVG/1.1/DTD/svg11.dtd">
<svg version="1.1" id="Layer_1" xmlns="http://www.w3.org/2000/svg" xmlns:xlink="http://www.w3.org/1999/xlink" x="0px" y="0px"
	 width="24px" height="24px" viewBox="0 0 24 24" enable-background="new 0 0 24 24" xml:space="preserve">
<path fill="#F5F9FF" d="M15.5,0C13.6,0,12,1.6,12,3.5c0,2.4,1,2.194,1,5.094C13,12.294,7.987,15,3.188,15
	c-1.8,0-1.194,0.594-0.594,1.094c-1.3-0.3-3.1-0.1,0.5,2c1.647,0.941,3.256,2.125,6.469,2.594C10.087,22.192,9,22.331,9,22.906
	c0,1.1,5.4,1.4,5.5,1c0-0.2-0.513-0.307-0.312-0.406C14.388,23.2,15,23.1,15,23c0-0.2-0.612-0.206-0.812-0.406
	s0.219-0.307,0.219-0.406S12.5,21.994,11,22.094c0,0-0.403-0.426-0.031-1.25c0.51,0.035,1.04,0.062,1.625,0.062
	c6.3,0,7.406-4.019,7.406-6.219c0-3.3-3-5.181-3-7.781c0-1.8,1.112-1.006,2.812-1.406c1.5-0.3,2.6-1.194,3-1.594
	c0.3-0.4,0.3-1.006-0.5-0.906c-1.3,0.3-2.8,0-3.5-0.5C18.412,1.1,17.1,0,15.5,0z M16.5,2.812c0.4,0,0.688,0.288,0.688,0.688
	S16.9,4.188,16.5,4.188S15.812,3.9,15.812,3.5S16.1,2.812,16.5,2.812z"/>
</svg>
