<?xml version="1.0" encoding="utf-8"?>
<!-- Generator: Adobe Illustrator 16.0.0, SVG Export Plug-In . SVG Version: 6.00 Build 0)  -->
<!DOCTYPE svg PUBLIC "-//W3C//DTD SVG 1.1//EN" "http://www.w3.org/Graphics/SVG/1.1/DTD/svg11.dtd">
<svg version="1.1" id="Layer_1" xmlns="http://www.w3.org/2000/svg" xmlns:xlink="http://www.w3.org/1999/xlink" x="0px" y="0px"
	 width="50px" height="50px" viewBox="0 0 50 50" enable-background="new 0 0 50 50" xml:space="preserve">
<path fill="#F5F9FF" d="M10,1C9.7,1,9.409,1.142,9.219,1.375S8.97,1.894,9.031,2.188L12.688,20h-0.281l-7-6.719
	c-0.3-0.29-0.779-0.371-1.156-0.188l-3.688,1.812c-0.24,0.118-0.415,0.309-0.5,0.562s-0.09,0.542,0.031,0.781l3.594,7.094v3.219
	L0.094,33.75c-0.119,0.24-0.117,0.528-0.031,0.781c0.085,0.253,0.26,0.445,0.5,0.562l3.688,1.812
	c0.378,0.182,0.856,0.102,1.156-0.188l7-6.719h0.375l-3.75,17.781c-0.062,0.295-0.002,0.611,0.188,0.844
	C9.409,48.859,9.699,49,10,49h3.906c0.288,0,0.56-0.127,0.75-0.344l5.844-6.688h3.594c0.538,0,0.969-0.431,0.969-0.969
	s-0.431-0.969-0.969-0.969h-1.906L30.969,30h6.938c5.754,0,11.449-4.016,11.688-4.188C49.855,25.627,49.999,25.321,50,25
	c0.001-0.322-0.146-0.624-0.406-0.812C49.357,24.017,43.764,20,37.906,20h-6.938L22.188,9.969h1.906
	c0.538,0,0.969-0.431,0.969-0.969s-0.431-0.969-0.969-0.969H20.5l-5.844-6.688C14.466,1.127,14.195,1,13.906,1H10z"/>
</svg>
