<?xml version="1.0" encoding="utf-8"?>
<!-- Generator: Adobe Illustrator 16.0.0, SVG Export Plug-In . SVG Version: 6.00 Build 0)  -->
<!DOCTYPE svg PUBLIC "-//W3C//DTD SVG 1.1//EN" "http://www.w3.org/Graphics/SVG/1.1/DTD/svg11.dtd">
<svg version="1.1" id="Layer_1" xmlns="http://www.w3.org/2000/svg" xmlns:xlink="http://www.w3.org/1999/xlink" x="0px" y="0px"
	 width="200px" height="200px" viewBox="0 0 200 200" enable-background="new 0 0 200 200" xml:space="preserve">
<path fill="#F5F9FF" d="M151.683,0c-0.671,0.153-1.317,0.396-1.923,0.721L4.327,68.51C1.663,69.806-0.021,72.518,0,75.481v30.769
	c0.033,4.248,3.503,7.666,7.752,7.634c1.056-0.008,2.1-0.233,3.065-0.663l12.26-5.769v15.625H0v46.153h23.798
	c1.539-13.076,13.125-23.076,26.202-23.076s24.664,10,26.202,23.076H100h31.49c1.539-13.076,13.125-23.076,26.202-23.076
	c13.847,0,24.663,10,26.202,23.076h8.413c3.847,0,7.692-3.076,7.692-7.691V125.48c0-1.538,0.048-3.27-0.721-4.808L188.461,87.74
	c-2.307-6.154-7.74-10.817-14.663-10.817H100c-3.846,0-7.692,3.846-7.692,7.692v38.462H53.846V93.269l126.202-58.654
	c3.864-1.765,5.567-6.329,3.802-10.194c-0.443-0.97-1.082-1.837-1.879-2.546L157.933,1.683c-1.554-1.258-3.537-1.861-5.528-1.683
	C152.164-0.011,151.923-0.011,151.683,0z M151.683,16.827l10.817,9.134L15.385,94.231V80.529L151.683,16.827z M107.692,92.308
	h30.769v30.77h-30.769V92.308z M153.846,92.308h21.635c2.309,0,3.799,1.586,4.567,3.125l8.413,27.645h-34.615V92.308z M50,153.846
	c-10.621,0-19.231,8.61-19.231,19.231c0,10.62,8.61,19.23,19.231,19.23s19.231-8.61,19.231-19.23
	C69.231,162.456,60.621,153.846,50,153.846z M157.692,153.846c-10.621,0-19.231,8.61-19.231,19.231c0,10.62,8.61,19.23,19.231,19.23
	c10.62,0,19.23-8.61,19.23-19.23C176.923,162.456,168.312,153.846,157.692,153.846z"/>
</svg>
