<svg xmlns="http://www.w3.org/2000/svg" version="1" width="24" height="24" viewBox="0 0 24 24">    <path d="M 10.1875 3 L 5.5 6.6875 C 5.5 6.6875 6.2610697 7.6300055 6.78125 8.4375 C 5.7789299 9.0759597 4.9028021 9.7238585 4.1875 10.3125 C 3.4729516 8.8464378 1.8967785 7.8126091 0 7.59375 C 0.8 8.89375 1.3125 10.4875 1.3125 12.1875 C 1.3125 13.8875 0.8 15.3875 0 16.6875 C 1.9129195 16.466779 3.5129717 15.389827 4.21875 13.875 C 4.9332124 14.483245 5.8423923 15.15008 6.875 15.78125 C 6.6136398 16.639918 6.3062316 17.540653 6 18 C 6.5643059 18 8.760984 17.934625 10.1875 17.34375 C 11.376145 17.739651 12.656738 18 14 18 C 17 18 21.8 15.89375 23.5 14.09375 L 22 12.59375 L 24 10.5 C 22.464736 8.7728284 19.636773 6.2352405 14.375 6.03125 C 12.581166 3.7408215 10.1875 3 10.1875 3 z M 19 9 C 20.1 9 21 9.9 21 11 C 21 12.1 20.1 13 19 13 C 17.9 13 17 12.1 17 11 C 17 9.9 17.9 9 19 9 z M 19 9 C 18.4 9 18 9.4 18 10 C 18 10.6 18.4 11 19 11 C 19.6 11 20 10.6 20 10 C 20 9.4 19.6 9 19 9 z"></path></svg>