<?xml version="1.0" encoding="utf-8"?>
<!-- Generator: Adobe Illustrator 16.0.0, SVG Export Plug-In . SVG Version: 6.00 Build 0)  -->
<!DOCTYPE svg PUBLIC "-//W3C//DTD SVG 1.1//EN" "http://www.w3.org/Graphics/SVG/1.1/DTD/svg11.dtd">
<svg version="1.1" id="Layer_1" xmlns="http://www.w3.org/2000/svg" xmlns:xlink="http://www.w3.org/1999/xlink" x="0px" y="0px"
	 width="24px" height="24px" viewBox="0 0 24 24" enable-background="new 0 0 24 24" xml:space="preserve">
<path fill="#F5F9FF" d="M10.188,3L5.5,6.688c0,0,0.761,0.942,1.281,1.75c-1.002,0.639-1.878,1.286-2.594,1.875
	C3.473,8.847,1.897,7.812,0,7.594c0.8,1.3,1.312,2.894,1.312,4.594S0.8,15.388,0,16.688c1.913-0.221,3.513-1.298,4.219-2.812
	c0.714,0.608,1.624,1.275,2.656,1.906C6.614,16.641,6.306,17.541,6,18c0.564,0,2.761-0.065,4.188-0.656
	C11.376,17.74,12.656,18,14,18c3,0,7.8-2.106,9.5-3.906l-1.5-1.5l2-2.094c-1.535-1.727-4.363-4.265-9.625-4.469
	C12.581,3.741,10.188,3,10.188,3z M19,9c1.1,0,2,0.9,2,2s-0.9,2-2,2s-2-0.9-2-2S17.9,9,19,9z M19,9c-0.6,0-1,0.4-1,1s0.4,1,1,1
	s1-0.4,1-1S19.6,9,19,9z"/>
</svg>
