<?xml version="1.0" encoding="utf-8"?>
<!-- Generator: Adobe Illustrator 16.0.0, SVG Export Plug-In . SVG Version: 6.00 Build 0)  -->
<!DOCTYPE svg PUBLIC "-//W3C//DTD SVG 1.1//EN" "http://www.w3.org/Graphics/SVG/1.1/DTD/svg11.dtd">
<svg version="1.1" id="Layer_1" xmlns="http://www.w3.org/2000/svg" xmlns:xlink="http://www.w3.org/1999/xlink" x="0px" y="0px"
	 width="24px" height="24px" viewBox="0 0 24 24" enable-background="new 0 0 24 24" xml:space="preserve">
<path fill="#F5F9FF" d="M12,0C8.6,0,6.906,5.594,6.906,5.594H6.094c-1.6,0-5.1,0.312-6,3.312c-1.1,3.9,3.594,6.688,3.594,6.688
	s-1.9,5.094,1,7.594C5.388,23.787,6.2,24,7,24c2.5,0,5.094-2.188,5.094-2.188s2.713,2,5.312,2c0.7,0,1.4-0.225,2-0.625
	c2.8-1.9,1-7.594,1-7.594S24.9,12.406,24,8.906c-0.8-3.1-5.5-3.312-6.5-3.312h-0.188C17.312,5.594,15.5,0,12,0z M12,2
	c1.5,0,2.787,2.794,3.188,4.094l0.406,1.5l1.5-0.094h0.094c1.4,0,4.225,0.413,4.625,1.812c0.5,1.8-1.912,3.994-2.812,4.594l-1,0.906
	l0.406,1.375c0.6,1.8,0.781,4.713-0.219,5.312c-0.2,0.2-0.475,0.188-0.875,0.188c-1.5,0-3.525-1.193-4.125-1.594l-1.281-0.906
	l-1.219,1C10.087,20.787,8.3,22,7,22c-0.4,0-0.7-0.112-1-0.312c-1.5-1.2-0.806-4.375-0.406-5.375l0.594-1.5l-1.375-0.906
	c0,0-3.319-2.2-2.719-4.5c0.5-1.7,3-1.906,4-1.906h0.5l1.594,0.188l0.5-1.594C9.188,4.794,10.6,2,12,2z M12,8.188
	c-1.4,0-0.312,3.906-0.312,3.906s-3.094-2.4-3.594-1s3.5,1.406,3.5,1.406s-3,2.412-2,3.312s2.406-3,2.406-3s1.312,3.875,2.312,2.875
	c1.1-1-2-3.281-2-3.281s4-0.006,3.5-1.406c-0.5-1.3-3.625,1-3.625,1S13.4,8.188,12,8.188z"/>
</svg>
