<?xml version="1.0" encoding="utf-8"?>
<!-- Generator: Adobe Illustrator 16.0.0, SVG Export Plug-In . SVG Version: 6.00 Build 0)  -->
<!DOCTYPE svg PUBLIC "-//W3C//DTD SVG 1.1//EN" "http://www.w3.org/Graphics/SVG/1.1/DTD/svg11.dtd">
<svg version="1.1" id="Layer_1" xmlns="http://www.w3.org/2000/svg" xmlns:xlink="http://www.w3.org/1999/xlink" x="0px" y="0px"
	 width="50px" height="50px" viewBox="0 0 50 50" enable-background="new 0 0 50 50" xml:space="preserve">
<path fill="#F5F9FF" d="M43.969,0.062c-0.554,0.006-1.064,0.22-1.469,0.625l-30.156,30.25l6.719,6.719L49.219,7.5
	c0.525-0.525,0.726-1.274,0.562-2c-0.126-0.813-0.574-2.036-1.969-3.312c-1.309-1.309-2.497-1.839-3.281-2.062
	C44.346,0.079,44.153,0.061,43.969,0.062z M42,6c1.104,0,2,0.896,2,2s-0.896,2-2,2s-2-0.896-2-2S40.896,6,42,6z M37,11
	c1.104,0,2,0.896,2,2s-0.896,2-2,2s-2-0.896-2-2S35.896,11,37,11z M32,16c1.104,0,2,0.896,2,2s-0.896,2-2,2s-2-0.896-2-2
	S30.896,16,32,16z M27,21c1.104,0,2,0.896,2,2s-0.896,2-2,2s-2-0.896-2-2S25.896,21,27,21z M10.906,32.312L0.781,42.5
	c-0.525,0.523-0.726,1.273-0.562,2c0.126,0.812,0.574,2.035,1.969,3.312c1.308,1.309,2.496,1.84,3.281,2.062
	C5.647,49.919,5.823,49.938,6,49.938c0.563,0,1.093-0.216,1.5-0.625l10.188-10.219L10.906,32.312z M10.188,37.188L7.5,41.312
	L8.688,42.5l4.125-2.688L7.188,45.5L4.5,42.812L10.188,37.188z"/>
</svg>
