<?xml version="1.0" encoding="utf-8"?>
<!-- Generator: Adobe Illustrator 16.0.0, SVG Export Plug-In . SVG Version: 6.00 Build 0)  -->
<!DOCTYPE svg PUBLIC "-//W3C//DTD SVG 1.1//EN" "http://www.w3.org/Graphics/SVG/1.1/DTD/svg11.dtd">
<svg version="1.1" id="Layer_1" xmlns="http://www.w3.org/2000/svg" xmlns:xlink="http://www.w3.org/1999/xlink" x="0px" y="0px"
	 width="200px" height="200px" viewBox="0 0 200 200" enable-background="new 0 0 200 200" xml:space="preserve">
<path fill="#F5F9FF" d="M56.49,0c-1.408,0.447-2.436,1.662-2.644,3.125l-7.692,38.461c-0.16,1.133,0.192,2.278,0.961,3.125
	c0,0,4.992,6.068,11.539,12.02c3.273,2.976,6.896,5.823,10.577,8.173c0.25,0.16,0.469,0.325,0.721,0.481
	c-0.712,1.622-1.408,3.306-1.923,5.048c-1.305,1.499-2.51,2.983-3.846,4.567l-27.404-5.529c-0.945-0.855-10.959-9.82-13.702-27.644
	c-0.196-2.116-2.07-3.671-4.185-3.476c-0.21,0.02-0.418,0.056-0.623,0.11c-1.938,0.476-3.191,2.355-2.884,4.327
	c3.28,21.318,16.586,33.173,16.586,33.173c0.537,0.497,1.204,0.831,1.923,0.961l24.76,5.048c-2.541,3.174-5.15,6.148-7.692,9.615
	c-0.064,0.088-0.176,0.152-0.24,0.241c-7.185,5.687-14.914,12.813-22.356,20.673C14.376,127.271,1.819,143.57,0,157.211
	c-0.266,2.125,1.241,4.062,3.365,4.328c2.125,0.265,4.062-1.242,4.327-3.366c1.258-9.435,12.691-26.118,26.202-40.384
	c0.118-0.125,0.363-0.117,0.481-0.241c-1.728,3.124-3.45,6.327-5.048,9.616c-0.032,0.064,0.031,0.175,0,0.24
	c-9.864,18.592-14.211,32.816-14.664,44.23c-0.448,11.308,3.384,19.873,9.134,25.24c0.109,0.109,0.134,0.139,0.241,0.24
	c2.916,2.766,5.27,3.127,7.933,3.605c2.76,0.497,5.926,0.627,9.375,0.481c6.898-0.293,15.248-1.731,23.558-5.529
	c6.318-2.887,12.482-7.239,17.789-13.221c5.274,5.971,10.999,9.855,17.308,9.855c6.346,0,12.151-3.931,17.308-10.097
	c5.333,6.052,11.423,10.553,17.788,13.462c8.311,3.798,16.66,5.236,23.559,5.529c3.448,0.146,6.614,0.015,9.375-0.481
	c2.662-0.479,5.016-0.84,7.932-3.605c0.107-0.102,0.133-0.131,0.241-0.24c5.751-5.367,9.582-13.933,9.134-25.24
	c-0.451-11.414-4.799-25.639-14.663-44.23c-0.031-0.066,0.032-0.176,0-0.24c-1.599-3.289-3.32-6.492-5.048-9.616
	c0.118,0.124,0.363,0.116,0.48,0.241c13.511,14.266,24.944,30.949,26.202,40.384c0.266,2.124,2.202,3.631,4.327,3.366
	c2.124-0.266,3.631-2.203,3.365-4.328c-1.818-13.641-14.376-29.939-28.365-44.711c-7.541-7.962-15.332-15.193-22.596-20.914
	c-2.543-3.467-5.152-6.441-7.693-9.615l24.76-5.048c0.72-0.131,1.387-0.464,1.924-0.961c0,0,13.307-11.854,16.586-33.173
	c0.34-2.097-1.084-4.073-3.182-4.413c-0.541-0.088-1.096-0.059-1.626,0.085c-1.576,0.399-2.731,1.747-2.885,3.366
	c-2.742,17.824-12.757,26.789-13.702,27.644L135.817,75c-1.337-1.584-2.542-3.068-3.847-4.567c-0.515-1.742-1.211-3.426-1.923-5.048
	c0.252-0.156,0.471-0.321,0.722-0.481c3.682-2.35,7.303-5.197,10.576-8.173c6.547-5.952,11.539-12.02,11.539-12.02
	c0.77-0.847,1.121-1.992,0.961-3.125l-7.691-38.461c-0.355-2.095-2.342-3.505-4.436-3.15c-0.045,0.008-0.088,0.016-0.133,0.025
	c-2.094,0.355-3.504,2.341-3.149,4.435c0.008,0.044,0.017,0.088,0.024,0.132l7.212,36.779c-1.054,1.192-4.271,4.757-9.615,9.615
	c-3.073,2.793-6.519,5.715-9.615,7.692c-0.989-1.436-1.975-2.825-3.125-4.086c4.489-3.478,7.452-7.916,7.452-13.702
	c0-10.427-8.766-21.485-20.914-25.48c-2.398-3.301-5.875-5.289-9.855-5.289s-7.458,1.987-9.856,5.289
	c-12.147,3.995-20.913,15.053-20.913,25.48c0,5.787,2.962,10.224,7.452,13.702c-1.15,1.261-2.136,2.65-3.125,4.086
	c-3.097-1.977-6.542-4.899-9.615-7.692c-5.344-4.858-8.562-8.423-9.615-9.615l7.211-36.779C61.984,2.49,60.661,0.445,58.583,0
	c-0.531-0.114-1.081-0.114-1.612,0C56.811-0.01,56.65-0.01,56.49,0z M67.789,94.952c2.514,9.078,7.756,16.78,14.664,21.634
	c-0.094,8.539-0.241,16.905-0.241,23.318c0,6.092-0.732,11.327-1.923,15.865c-0.024,0.07,0.023,0.169,0,0.24
	c-0.019,0.07,0.019,0.17,0,0.24c-0.116,0.351-0.368,0.613-0.481,0.961c-3.935,13.182-12.328,20.137-21.394,24.279
	c-6.209,2.838-12.788,4.115-17.789,4.327c-2.5,0.106-4.47-0.007-5.769-0.24c-0.65-0.117-1.089-0.415-1.202-0.481
	c-2.237-2.332-3.892-5.765-3.606-12.98c0.315-7.962,3.699-20.291,12.981-37.74c0.001-0.08,0.001-0.16,0-0.24
	C50.23,119.281,58.895,106.338,67.789,94.952z M132.211,94.952c8.895,11.386,17.559,24.329,24.76,39.183
	c-0.001,0.08-0.001,0.16,0,0.24c9.282,17.449,12.666,29.778,12.981,37.74c0.286,7.216-1.369,10.648-3.606,12.98
	c-0.113,0.066-0.552,0.364-1.201,0.481c-1.299,0.233-3.27,0.347-5.77,0.24c-5.002-0.212-11.579-1.489-17.789-4.327
	c-12.418-5.675-23.797-16.458-23.797-41.586c0-6.413-0.147-14.779-0.241-23.318C124.455,111.732,129.697,104.03,132.211,94.952z"/>
</svg>
