<?xml version="1.0" encoding="utf-8"?>
<!-- Generator: Adobe Illustrator 16.0.0, SVG Export Plug-In . SVG Version: 6.00 Build 0)  -->
<!DOCTYPE svg PUBLIC "-//W3C//DTD SVG 1.1//EN" "http://www.w3.org/Graphics/SVG/1.1/DTD/svg11.dtd">
<svg version="1.1" id="Layer_1" xmlns="http://www.w3.org/2000/svg" xmlns:xlink="http://www.w3.org/1999/xlink" x="0px" y="0px"
	 width="26px" height="26px" viewBox="0 0 26 26" enable-background="new 0 0 26 26" xml:space="preserve">
<path fill="#F5F9FF" d="M24.214,1.787C21.615-0.811,12.193-0.193,6,6c-6.191,6.193-6.827,15.598-4.213,18.213
	C4.401,26.827,13.809,26.191,20,20C26.193,13.807,26.811,4.384,24.214,1.787z M7.207,20.207l-3.089,3.089
	c-0.438-0.151-0.749-0.329-0.917-0.497c-0.203-0.203-0.376-0.51-0.513-0.9l3.104-3.104c0.391-0.392,1.023-0.392,1.414,0
	S7.598,19.816,7.207,20.207z M19.008,12.869l-0.141,0.141c-0.385,0.385-1.012,0.383-1.395-0.002l-1.533-1.533l-1.465,1.465
	l1.531,1.533c0.387,0.383,0.387,1.01,0.001,1.396l-0.141,0.141c-0.386,0.385-1.013,0.383-1.396-0.002l-1.533-1.533l-1.465,1.465
	l1.532,1.533c0.386,0.383,0.387,1.01,0.001,1.396l-0.141,0.141c-0.385,0.385-1.012,0.383-1.395-0.002l-1.533-1.533l-0.732,0.732
	C9.012,18.402,8.756,18.5,8.5,18.5s-0.512-0.098-0.707-0.293c-0.391-0.391-0.391-1.023,0-1.414l0.732-0.732l-1.532-1.531
	c-0.387-0.385-0.387-1.012,0-1.396l0.14-0.14c0.384-0.385,1.011-0.385,1.396,0l1.531,1.532l1.465-1.464l-1.532-1.532
	c-0.387-0.385-0.387-1.011,0-1.396l0.14-0.14c0.384-0.385,1.011-0.385,1.396,0l1.531,1.533l1.465-1.465l-1.532-1.532
	c-0.387-0.385-0.387-1.011,0-1.396l0.14-0.14c0.385-0.385,1.012-0.385,1.396,0l1.531,1.533l0.731-0.732
	c0.392-0.391,1.022-0.391,1.414,0s0.392,1.023,0,1.414L17.475,9.94l1.531,1.533C19.393,11.855,19.395,12.482,19.008,12.869z
	 M20.207,7.207C20.012,7.402,19.756,7.5,19.5,7.5s-0.512-0.098-0.707-0.293c-0.391-0.391-0.391-1.023,0-1.414l3.087-3.087
	c0.44,0.151,0.753,0.328,0.92,0.495c0.203,0.203,0.376,0.51,0.513,0.9L20.207,7.207z"/>
</svg>
