<?xml version="1.0" encoding="utf-8"?>
<!-- Generator: Adobe Illustrator 16.0.0, SVG Export Plug-In . SVG Version: 6.00 Build 0)  -->
<!DOCTYPE svg PUBLIC "-//W3C//DTD SVG 1.1//EN" "http://www.w3.org/Graphics/SVG/1.1/DTD/svg11.dtd">
<svg version="1.1" id="Layer_1" xmlns="http://www.w3.org/2000/svg" xmlns:xlink="http://www.w3.org/1999/xlink" x="0px" y="0px"
	 width="26px" height="26px" viewBox="0 0 26 26" enable-background="new 0 0 26 26" xml:space="preserve">
<path fill="#F5F9FF" d="M19.673,12.795c1.538-1.537,6.218-6.623,6.218-6.623s-0.332-0.507-1.136-1.43l-5.157,5.155
	c-0.289,0.289-0.752,0.289-1.037,0.002c-0.289-0.287-0.289-0.751,0-1.04l5.205-5.204c-0.205-0.217-0.431-0.444-0.67-0.688
	C22.827,2.7,22.577,2.46,22.343,2.236l-5.157,5.157c-0.289,0.287-0.75,0.287-1.035,0c-0.289-0.288-0.291-0.751-0.002-1.038
	l5.106-5.106c-0.903-0.785-1.409-1.124-1.409-1.124s-4.302,3.863-6.641,6.201c-2.609,2.609-0.242,5.012-1.27,6.038
	c-1.026,1.024-5.729,4.835-8.13,7.239c-4.405,4.401-3.927,5.086-3.213,5.801c0.714,0.719,1.399,1.193,5.803-3.211
	c2.402-2.401,6.212-7.103,7.237-8.129C14.659,13.037,17.025,15.439,19.673,12.795z"/>
</svg>
