<?xml version="1.0" encoding="utf-8"?>
<!-- Generator: Adobe Illustrator 16.0.0, SVG Export Plug-In . SVG Version: 6.00 Build 0)  -->
<!DOCTYPE svg PUBLIC "-//W3C//DTD SVG 1.1//EN" "http://www.w3.org/Graphics/SVG/1.1/DTD/svg11.dtd">
<svg version="1.1" id="Layer_1" xmlns="http://www.w3.org/2000/svg" xmlns:xlink="http://www.w3.org/1999/xlink" x="0px" y="0px"
	 width="50px" height="50px" viewBox="0 0 50 50" enable-background="new 0 0 50 50" xml:space="preserve">
<path fill="#F5F9FF" d="M41.068,16.229c-1.102-0.25-1.773-2.237-2.553-4.538C36.941,7.036,34.562,0,24.996,0
	c-9.775,0-11.942,6.543-13.524,11.32c-0.793,2.395-1.478,4.462-2.832,4.941C3.149,18.205,0,22.604,0,28.333
	c0,0.532,0.416,0.972,0.947,0.999c6.149,0.325,6.38,3.277,6.624,6.406c0.152,1.945,0.325,4.15,2.471,4.865l1.049,0.347
	c3.362,1.1,4.62,1.512,5.856,4.127C18.097,47.512,19.949,50,24.972,50l0.201-0.001c4.995-0.063,6.591-2.679,7.871-4.78
	c0.733-1.201,1.313-2.15,2.396-2.477c4.84-1.458,5.529-4.438,6.084-6.832c0.588-2.536,0.977-4.211,6.074-4.211
	c0.42,0,0.864,0.012,1.342,0.037c0.271-0.008,0.541-0.115,0.74-0.305c0.199-0.188,0.313-0.481,0.313-0.757
	C49.992,25.143,49.992,18.257,41.068,16.229z M18.996,16.998c-1.104,0-2-1.343-2-3c0-1.657,0.896-3,2-3s2,1.343,2,3
	C20.996,15.655,20.101,16.998,18.996,16.998z M26.996,16.998c-1.104,0-2-1.343-2-3c0-1.657,0.896-3,2-3s2,1.343,2,3
	C28.996,15.655,28.102,16.998,26.996,16.998z"/>
</svg>
