<?xml version="1.0" encoding="utf-8"?>
<!-- Generator: Adobe Illustrator 16.0.0, SVG Export Plug-In . SVG Version: 6.00 Build 0)  -->
<!DOCTYPE svg PUBLIC "-//W3C//DTD SVG 1.1//EN" "http://www.w3.org/Graphics/SVG/1.1/DTD/svg11.dtd">
<svg version="1.1" id="Layer_1" xmlns="http://www.w3.org/2000/svg" xmlns:xlink="http://www.w3.org/1999/xlink" x="0px" y="0px"
	 width="24px" height="24px" viewBox="0 0 24 24" enable-background="new 0 0 24 24" xml:space="preserve">
<path fill="#F5F9FF" d="M12,0C9.791,0,8,1.791,8,4c0,1.308,0.624,2.458,1.594,3.188C8.255,7.025,6.642,6.785,5.219,6.5L4.156,9.938
	c0.985,0.211,2.182,0.482,3.281,0.719C7.746,10.722,8,11.042,8,11.844v1.344c0,0.643-1.14,4.992-1.906,7.219l3.562,1.188
	c0.585-1.309,1.546-3.418,1.781-4c0.347-0.861,0.819-0.787,1.156,0.031c0.229,0.552,1.165,2.656,1.75,3.969l3.562-1.188
	C17.141,18.18,16,13.828,16,13.188v-1.344c0-0.83,0.25-1.12,0.562-1.188c1.096-0.236,2.301-0.509,3.281-0.719L18.781,6.5
	c-1.424,0.285-3.036,0.525-4.375,0.688C15.377,6.458,16,5.308,16,4C16,1.791,14.209,0,12,0z M10.5,2.719
	c0.431,0,0.781,0.35,0.781,0.781s-0.35,0.781-0.781,0.781S9.719,3.931,9.719,3.5C9.719,3.068,10.069,2.719,10.5,2.719z M13.5,2.719
	c0.432,0,0.781,0.35,0.781,0.781s-0.35,0.781-0.781,0.781s-0.781-0.35-0.781-0.781C12.719,3.068,13.068,2.719,13.5,2.719z
	 M10.375,5.594c0.116-0.067,0.274-0.024,0.344,0.094C10.733,5.709,11.068,6.25,12,6.25c0.932,0,1.268-0.54,1.281-0.562
	c0.072-0.116,0.228-0.165,0.344-0.094c0.118,0.071,0.162,0.226,0.094,0.344C13.699,5.97,13.23,6.75,12,6.75
	c-1.231,0-1.699-0.78-1.719-0.812C10.211,5.818,10.256,5.664,10.375,5.594z M2.625,6C1.916,6.08,1.276,6.565,1.062,7.281
	C0.777,8.234,1.34,9.25,2.312,9.531C2.478,9.578,2.819,9.654,3.25,9.75l1.062-3.438c-0.353-0.081-0.675-0.166-0.969-0.25
	C3.102,5.993,2.861,5.973,2.625,6z M21,6c-0.121,0.01-0.223,0.027-0.344,0.062c-0.294,0.085-0.615,0.169-0.969,0.25L20.75,9.75
	c0.432-0.096,0.771-0.171,0.938-0.219c0.973-0.281,1.535-1.297,1.25-2.25C22.688,6.446,21.851,5.93,21,6z M12,9c0.552,0,1,0.448,1,1
	s-0.448,1-1,1s-1-0.448-1-1S11.448,9,12,9z M12,13c0.552,0,1,0.448,1,1s-0.448,1-1,1s-1-0.448-1-1S11.448,13,12,13z M5.812,21.25
	c-0.099,0.284-0.156,0.469-0.156,0.469c-0.266,0.959,0.305,1.957,1.281,2.219C7.1,23.981,7.246,24,7.406,24
	c0.807,0,1.558-0.512,1.781-1.312c0,0,0.056-0.098,0.125-0.25L5.812,21.25z M18.188,21.25l-3.5,1.188l0.125,0.25
	c0.223,0.8,0.975,1.312,1.781,1.312c0.159,0,0.308-0.02,0.469-0.062c0.977-0.262,1.549-1.26,1.281-2.219
	C18.344,21.718,18.285,21.534,18.188,21.25z"/>
</svg>
