<?xml version="1.0" encoding="utf-8"?>
<!-- Generator: Adobe Illustrator 16.0.0, SVG Export Plug-In . SVG Version: 6.00 Build 0)  -->
<!DOCTYPE svg PUBLIC "-//W3C//DTD SVG 1.1//EN" "http://www.w3.org/Graphics/SVG/1.1/DTD/svg11.dtd">
<svg version="1.1" id="Layer_1" xmlns="http://www.w3.org/2000/svg" xmlns:xlink="http://www.w3.org/1999/xlink" x="0px" y="0px"
	 width="200px" height="200px" viewBox="0 0 200 200" enable-background="new 0 0 200 200" xml:space="preserve">
<path fill="#F5F9FF" d="M69.231,0c0,10.025,0.669,23.927,4.327,36.298c1.468,4.964,3.593,9.539,6.49,13.702
	c-4.949,1.963-9.681,4.521-13.702,7.692c-2.425-3.374-4.867-7.336-7.211-12.26c-10-20-51.442-14.615-51.442-11.539
	c0,21.032,16.961,34.464,47.836,35.096c-6.066,8.564-9.375,18.657-9.375,28.606c0,13.077,8.51,19.231,18.51,30.769
	c20,23.846,4.567,30.096,4.567,40.865c0,3.077,0,12.309,15.384,19.23c3.077,8.462,10,10.818,15.385,10.818
	s12.308-2.356,15.385-10.818c15.385-6.922,15.385-16.922,15.385-19.23c0-11.538-15.434-16.971,4.566-41.586
	c10-10.77,18.51-16.972,18.51-30.048c0-9.949-3.309-20.042-9.375-28.606c30.876-0.632,47.837-14.064,47.837-35.096
	c0-3.077-41.442-8.461-51.442,11.539c-2.345,4.924-4.787,8.886-7.211,12.26c-4.021-3.171-8.753-5.729-13.702-7.692
	c2.897-4.163,5.022-8.738,6.49-13.702C130.1,23.927,130.77,10.025,130.77,0h-15.385c0,9.205-0.725,22.227-3.605,31.971
	c-1.441,4.872-3.534,8.777-5.529,11.058s-3.469,3.125-6.25,3.125s-4.255-0.844-6.25-3.125s-4.088-6.186-5.529-11.058
	C85.34,22.227,84.615,9.205,84.615,0H69.231z M61.539,92.308c4.615,0,7.692,3.077,7.692,7.692s-3.077,7.692-7.692,7.692
	c-4.616,0-7.692-3.077-7.692-7.692S56.923,92.308,61.539,92.308z M138.461,92.308c4.616,0,7.693,3.077,7.693,7.692
	s-3.077,7.692-7.693,7.692c-4.615,0-7.691-3.077-7.691-7.692S133.846,92.308,138.461,92.308z M80.048,169.23h8.414
	c2.308,0,3.846,1.539,3.846,3.847v8.413L80.048,169.23z M111.539,169.23h8.413l-12.26,12.26v-8.413
	C107.692,170.77,109.23,169.23,111.539,169.23z"/>
</svg>
