<?xml version="1.0" encoding="utf-8"?>
<!-- Generator: Adobe Illustrator 16.0.0, SVG Export Plug-In . SVG Version: 6.00 Build 0)  -->
<!DOCTYPE svg PUBLIC "-//W3C//DTD SVG 1.1//EN" "http://www.w3.org/Graphics/SVG/1.1/DTD/svg11.dtd">
<svg version="1.1" id="Layer_1" xmlns="http://www.w3.org/2000/svg" xmlns:xlink="http://www.w3.org/1999/xlink" x="0px" y="0px"
	 width="24px" height="24px" viewBox="0 0 24 24" enable-background="new 0 0 24 24" xml:space="preserve">
<path fill="#F5F9FF" d="M14,0c-4,0-5,4.2-5,6c-4.6,0-4.7,3.3-3,5c-1.6,1.6-1,3.287,0.5,4.688C4.8,15.287,4.1,13.8,4,13
	c-1.3,0-2.513,1.088-1.812,3.188C1.188,17.287,0.7,18.4,1,21c-0.4,0.2-1,0.787-1,1.688C0,23.787,0.388,24,1.188,24h3.625
	c0.7,0,0.875-0.612,0.875-0.812c0-0.6-0.481-1.188-1.281-1.688c0.9-0.3,1.281-1.787,1.281-2.188C5.987,19.513,7.6,19.6,8,19.5
	c0.4,0.8,1.413,1.994,2.312,2.594c0,0-0.025,0.193-0.125,0.094c-0.1-0.2-0.3-0.188-0.5-0.188c-0.7,0-1.094,2,0.906,2h3.094
	c0.9,0,1.312-0.394,1.312-1.094c0-0.8-0.307-1.693-0.906-2.094c0.2-1.4-0.381-3.513-1.781-5.312c0.9-2,0.087-4.094-1.312-5.594
	c2,1.1,3.2,3.682,2.5,5.281c1,1.2,1.307,1.807,1.406,2.906C18.006,16.594,19,14.9,19,13.5c0-2.1-1.5-4.5-1.5-4.5
	c0.2,0.2,1.987,2.312,2.188,3.812c0.2,0.9,0.213,3.675-2.688,5.375c0,1.3,0.906,2.6,2.406,3.5c0.3,0.7-0.112,0.9-0.312,1
	c0.2-0.5-0.1-0.781-0.5-0.781c-0.7,0-1.094,2,0.906,2h3.312c0.9,0,1.281-0.394,1.281-1.094c-0.1-0.7-0.588-1.6-1.188-2
	c0.3-1.8-0.619-2.906-1.219-3.406c0.8-2.6-0.2-4.513-1-5.312c1.1-2.6-0.888-3.881-3.188-4.281c0.6-0.5,0.688-1.513,0.188-2.312
	c0.2-0.3,0.1-0.612,0-0.812c0.5-0.2,0.419-0.781,0.219-1.281C17.406,1.606,15.6,0,14,0z M14.906,4.406
	c0.096-0.012,0.182-0.013,0.281,0c0.4,0.1,1.5,0.288,2,0.188c0.037,0.075,0.053,0.184,0.062,0.281
	c-0.049,0.01-0.102,0.003-0.156,0.031c0.1,0,0.094,0.094,0.094,0.094c0,0.1-0.088,0.188-0.188,0.188S16.906,5.1,16.906,5V4.906
	c0,0.1-0.119,0.094-0.219,0.094H16.5v0.094c0,0.1-0.088,0.219-0.188,0.219s-0.219-0.119-0.219-0.219c0-0.05,0.019-0.081,0.031-0.094
	c-0.366-0.103-0.625-0.283-0.719,0c0,0.2,0.188,0.487,0.688,0.688c0,0,0.193-0.288,0.594-0.188c0.3,0,0.5,0.094,0.5,0.094
	c0.027-0.028,0.042-0.062,0.062-0.094c0.041,0.056,0.084,0.087,0.125,0.188c-0.098,0.028-0.214,0.125-0.281,0.125
	c-0.2,0-0.3-0.125-0.5-0.125c-0.2,0.1-0.281,0.212-0.281,0.312c0,0.2,0.281,0.312,0.281,0.312C16.794,6.112,16.5,6.2,16.5,6
	s0.2,0,0.5,0c0.1,0,0.213-0.087,0.312-0.188c0.2,0-0.106,0.281,0.094,0.281c0.025-0.025,0.041-0.06,0.062-0.094
	C17.486,6.093,17.5,6.199,17.5,6.312c0,0.038-0.023,0.105-0.031,0.156c-0.38-0.011-1.143,0.058-1.656,0.719
	c0,0.3,0.281,0.5,0.281,0.5s0.185-0.846,1.344-1.125C17.327,7.069,16.93,7.906,16,7.906c-0.9,0-0.987-1.294-0.688-1.594
	C13.825,5.175,14.24,4.491,14.906,4.406z"/>
</svg>
