<?xml version="1.0" encoding="utf-8"?>
<!-- Generator: Adobe Illustrator 16.0.0, SVG Export Plug-In . SVG Version: 6.00 Build 0)  -->
<!DOCTYPE svg PUBLIC "-//W3C//DTD SVG 1.1//EN" "http://www.w3.org/Graphics/SVG/1.1/DTD/svg11.dtd">
<svg version="1.1" id="Layer_1" xmlns="http://www.w3.org/2000/svg" xmlns:xlink="http://www.w3.org/1999/xlink" x="0px" y="0px"
	 width="200px" height="200px" viewBox="0 0 200 200" enable-background="new 0 0 200 200" xml:space="preserve">
<path fill="#F5F9FF" d="M180.529,15.144c-0.248,0.056-0.49,0.137-0.722,0.241c-1.435,0.33-2.554,1.45-2.885,2.884
	c-3.683,15.96-9.785,27.417-14.663,34.856c-1.241-0.009-2.5,0.144-3.846,0.721c-6.154,2.308-14.664,7.789-26.203,13.942
	c-6.153,3.846-42.98,19.952-47.596,23.798l18.51,30.048l-9.135-6.73c-0.566-0.596-1.01-1.326-1.683-1.924
	C71.539,94.519,37.019,65.433,25.481,56.971c-10.77-6.731-20.506-0.532-17.067,9.375c0.068,0.244,0.148,0.485,0.24,0.721
	l11.058,50.48c-6.527,1.947-13.056,3.817-19.711,5.529c0,0,9.216,9.735,24.519,17.067l3.846,18.028
	c-6.412-0.733-14.34-0.074-23.798,4.087c-4.055,1.27-6.313,5.585-5.043,9.64c1.269,4.056,5.585,6.313,9.64,5.044
	c0.578-0.182,1.133-0.43,1.653-0.741c8.231-3.622,14.147-3.421,18.029-2.645s5.048,1.923,5.048,1.923
	c3.439,2.495,8.25,1.73,10.745-1.709c1.302-1.794,1.766-4.062,1.275-6.224l-4.567-21.394c11.311,2.646,24.375,3.094,38.702-1.443
	c13.944-4.473,24.794-11.754,33.173-19.471l16.106,9.375l12.019,27.645c1.4,3.295,4.889,5.188,8.414,4.567
	c0,0,4.466,0.242,4.808,0.721c2.192,3.64,6.919,4.813,10.56,2.621c3.639-2.192,4.812-6.919,2.621-10.56
	c-0.203-0.335-0.43-0.654-0.681-0.955c-4.163-5.828-9.416-7.287-13.702-7.452l-10.817-25c-0.695-1.539-1.878-2.806-3.365-3.606
	l-15.385-8.894c8.64-11.057,12.813-21.164,13.942-23.798c3.846,13.077,7.596,22.356,12.98,22.356s26.202-12.212,26.202-32.212
	c0-7.066-1.769-14.102-4.567-19.23c9.699-6.801,22.097-17.735,27.404-32.692c0.73-1.995-0.295-4.204-2.291-4.934
	c-0.729-0.267-1.523-0.307-2.276-0.114c-1.279,0.365-2.279,1.365-2.645,2.644c-3.614,10.187-11.92,18.704-19.712,25
	c4.377-7.737,8.879-17.958,11.779-30.529c0.678-2.014-0.405-4.195-2.418-4.873C181.66,15.139,181.091,15.08,180.529,15.144z
	 M164.664,75.481c3.076,0,5.288,2.211,5.288,5.288c0,3.077-2.212,5.289-5.288,5.289c-3.078,0-5.529-2.211-5.529-5.289
	C159.135,77.692,161.586,75.481,164.664,75.481z M30.769,97.596c3.399,4.432,6.758,8.537,10.337,12.981
	c-2.27,0.784-4.633,1.634-6.971,2.403L30.769,97.596z"/>
</svg>
