<?xml version="1.0" encoding="utf-8"?>
<!-- Generator: Adobe Illustrator 16.0.0, SVG Export Plug-In . SVG Version: 6.00 Build 0)  -->
<!DOCTYPE svg PUBLIC "-//W3C//DTD SVG 1.1//EN" "http://www.w3.org/Graphics/SVG/1.1/DTD/svg11.dtd">
<svg version="1.1" id="Layer_1" xmlns="http://www.w3.org/2000/svg" xmlns:xlink="http://www.w3.org/1999/xlink" x="0px" y="0px"
	 width="24px" height="24px" viewBox="0 0 24 24" enable-background="new 0 0 24 24" xml:space="preserve">
<path fill="#F5F9FF" d="M12.406,0c-0.9,0-1.712,0.306-2.312,0.906L7.5,3.156C6.705,2.443,5.662,2,4.5,2C2,2,0,4,0,6.5
	c0,2.35,1.774,4.248,4.062,4.469c-0.226,1.67-0.375,3.753-0.375,6.344c0,0.4,0.419,0.688,0.719,0.688c0.4,0,0.688-0.312,0.688-0.812
	c0-0.275,0.025-3.406,0.781-6.406C7.688,10.202,9,8.515,9,6.5C9,6.327,8.956,6.167,8.938,6h2.375L11,8h8l-0.812-5H20V1.312
	C20,0.612,19.388,0,18.688,0H12.406z M4.5,3.594c1.6,0,2.906,1.306,2.906,2.906c0,0.169-0.035,0.339-0.062,0.5L5.906,4.906
	c0,0-0.913,1.093-1.562,4.469C2.817,9.292,1.594,8.047,1.594,6.5C1.594,4.9,2.9,3.594,4.5,3.594z M7.281,7.281
	C7.164,7.701,6.966,8.086,6.688,8.406C6.868,8.01,7.057,7.626,7.281,7.281z M9.906,9c-0.5,0-1.013,0.288-1.312,0.688
	c-0.6,1-1.081,2.112-1.281,3.312h3.281c0.1-1.5,0.413-2.8,0.812-4H9.906z M12.5,9c-0.4,1.1-0.712,2.5-0.812,4h6.719
	c-0.1-1.5-0.412-2.9-0.812-4H12.5z M18.594,9c0.4,1.2,0.713,2.5,0.812,4h3.406c-0.2-1.2-0.713-2.312-1.312-3.312
	C21.2,9.288,20.693,9,20.094,9H18.594z M7.094,14C6.994,14.3,7,14.7,7,15c0,1.1,0.2,2.1,0.5,3h3.188c-0.1-0.9-0.188-1.9-0.188-3v-1
	H7.094z M11.594,14v1c0,1.1,0.119,2.1,0.219,3h6.594c0-0.9,0.094-1.9,0.094-3v-1H11.594z M19.406,14c0.1,0.3,0.094,0.7,0.094,1
	c0,1.1-0.088,2.1-0.188,3H22.5c0.3-0.9,0.5-1.9,0.5-3c0-0.3,0.006-0.7-0.094-1H19.406z M7.812,19c1,2.2,2.681,3.894,4.781,4.594
	c-0.8-1.1-1.481-2.693-1.781-4.594H7.812z M11.906,19c0.6,3.1,1.894,5,3.094,5s2.494-1.9,3.094-5H11.906z M19.094,19
	c-0.4,1.9-0.981,3.594-1.781,4.594c2.1-0.7,3.881-2.394,4.781-4.594H19.094z"/>
</svg>
