<?xml version="1.0" encoding="utf-8"?>
<!-- Generator: Adobe Illustrator 16.0.0, SVG Export Plug-In . SVG Version: 6.00 Build 0)  -->
<!DOCTYPE svg PUBLIC "-//W3C//DTD SVG 1.1//EN" "http://www.w3.org/Graphics/SVG/1.1/DTD/svg11.dtd">
<svg version="1.1" id="Layer_1" xmlns="http://www.w3.org/2000/svg" xmlns:xlink="http://www.w3.org/1999/xlink" x="0px" y="0px"
	 width="24px" height="24px" viewBox="0 0 24 24" enable-background="new 0 0 24 24" xml:space="preserve">
<path fill="#F5F9FF" d="M17.688,1.188l-0.594,0.125L16,2.812L6.5,5.406c-0.3,0.1-0.794,0.587-0.594,1.188
	C5.506,6.594,4.6,6.612,4,6.812c-0.4,0.1-1.7,0.4-1.5,1c0.3,1,1.606-0.519,2.406,0.781c-0.4,0.5-0.906,0.9-1.406,1
	c3.7,0.5,5.094,2.719,5.094,2.719c0.6,1.6,1.794,2.693,4.094,2.094c1.7-0.5,2.825-2.106,2.625-3.906L14.5,7.406L19.906,6l-1-3.812
	L18,2.406L17.688,1.188z M20.812,1.312l-0.125,1.5l-0.875-0.125L20.5,5.094L21,4.688L21.906,5.5L22,4.312l1.688,0.375L22.594,3.5
	L24,2.812l-1.5-0.125l0.594-1.281l-1.406,1L20.812,1.312z M11.719,5.969c0.188,0.023,0.3,0.194,0.375,0.344
	c0.1,0.3-0.081,0.494-0.281,0.594l-3,0.781L8.594,6.812L11.5,6C11.575,5.975,11.656,5.961,11.719,5.969z M12.219,7.781
	c0.188,0.023,0.3,0.163,0.375,0.312c0.1,0.3-0.081,0.494-0.281,0.594l-3,0.812L9.094,8.594L12,7.812
	C12.075,7.788,12.156,7.773,12.219,7.781z M13.406,10.125c0.463-0.05,0.807,0.025,0.906,0.375c0.4,1.2-0.412,2.506-1.812,2.906
	C11.2,13.706,9.987,13.4,9.688,12c-0.1-0.5,0.1-0.8,0.5-1c0.1,0.4,1.306,1.8,2.406,1.5c0.1,0,0.219-0.087,0.219-0.188
	c-0.1-0.5-1.025-0.519-1.625-1.719c0.2,0,0.3-0.094,0.5-0.094C12.337,10.35,12.943,10.175,13.406,10.125z M3.438,10.656
	c-0.115,0.008-0.237,0.006-0.344,0.031c-1.4,0.4-1.106,1.606-0.906,2.406c0.3,1.1-3.1,3.106-2,7.406c0.3,1.1,1,1.706,2,1.406
	L5,21.188C5.8,20.987,8.013,21,6.812,16.5c-0.6-2.4,0-2.713,0.5-2.812s0.6-0.388,0.5-0.688C7.719,12.25,5.157,10.538,3.438,10.656z
	 M4.188,12.594c0.5-0.1,0.9,0.193,1,0.594s-0.194,0.9-0.594,1c-0.5,0.1-0.9-0.193-1-0.594C3.494,13.094,3.788,12.693,4.188,12.594z"
	/>
</svg>
