<?xml version="1.0" encoding="utf-8"?>
<!-- Generator: Adobe Illustrator 16.0.0, SVG Export Plug-In . SVG Version: 6.00 Build 0)  -->
<!DOCTYPE svg PUBLIC "-//W3C//DTD SVG 1.1//EN" "http://www.w3.org/Graphics/SVG/1.1/DTD/svg11.dtd">
<svg version="1.1" id="Layer_1" xmlns="http://www.w3.org/2000/svg" xmlns:xlink="http://www.w3.org/1999/xlink" x="0px" y="0px"
	 width="50px" height="50px" viewBox="0 0 50 50" enable-background="new 0 0 50 50" xml:space="preserve">
<path fill="#F5F9FF" d="M14.344,1.938c-0.472,0-0.901,0.352-1,0.812c-0.099,0.463,0.161,0.934,0.594,1.125
	c0.038,0.017,3.857,1.738,8.312,6.406c1.998,2.093,4.099,4.867,2.688,6.25c-0.033,0.036-0.197,0.228-0.812,0.844
	c-0.057,0.057-0.077,0.1-0.125,0.156l-0.031,0.031l7.656,7.656l0.719-0.688c0.016-0.014,0.018-0.047,0.031-0.062l1.125-1.125
	c0.051,0.05,0.327,0.327,1.406,1.406c0.406,0.406,0.311,1.411,0.188,1.656c-0.375,0.751-0.304,1.54,0.188,2.031
	c0.195,0.195,3.469,3.469,3.469,3.469c0.539,0.539,1.259,0.812,1.969,0.812c0.709,0,1.396-0.273,1.938-0.812l5.531-5.5
	c1.081-1.08,1.08-2.856,0-3.938L44.719,19c-0.504-0.505-1.262-0.61-1.906-0.281c-0.303,0.154-1.373,0.253-1.75-0.125l-1.438-1.438
	c0.327-0.466,0.503-1.017,0.5-1.594c0.003-0.747-0.287-1.446-0.812-1.969l-3.75-3.75c-0.021-0.021-0.087-0.062-0.125-0.094
	l-0.781-0.781c-1.634-1.634-3.143-3.177-3.531-3.562C27.811,2.09,15.712,1.941,14.344,1.938z M22.562,18.969L3,38.531
	c-1.079,1.078-1.079,2.823,0,3.906l3.75,3.75C7.29,46.728,8.01,47,8.719,47s1.397-0.272,1.938-0.812l19.562-19.531L22.562,18.969z"
	/>
</svg>
