<?xml version="1.0" encoding="utf-8"?>
<!-- Generator: Adobe Illustrator 16.0.0, SVG Export Plug-In . SVG Version: 6.00 Build 0)  -->
<!DOCTYPE svg PUBLIC "-//W3C//DTD SVG 1.1//EN" "http://www.w3.org/Graphics/SVG/1.1/DTD/svg11.dtd">
<svg version="1.1" id="Layer_1" xmlns="http://www.w3.org/2000/svg" xmlns:xlink="http://www.w3.org/1999/xlink" x="0px" y="0px"
	 width="26px" height="26px" viewBox="0 0 26 26" enable-background="new 0 0 26 26" xml:space="preserve">
<path fill="#F5F9FF" d="M24.2,3.9l-5.8-1.8c-0.5-0.1-1,0-1.301,0.3L16.7,2.8L22,4.4L14.6,3c-0.899,0.1-1.8,0.4-2.5,1L3,12.4
	c-0.7,0.6-1.1,1.5-1.3,2.4v1.3L7.1,19.2l-6.2-2l-0.5,0.5C0,18.1-0.2,18.8,0.1,19.3L1,20.9c0.1,0.3,0.4,0.5,0.7,0.6l6.2,2.4
	C8.4,24.1,8.9,24,9.3,23.6l1.1-1l0.8,0.101c0.3,0,0.6-0.2,0.9-0.4L24,10.7c0.3-0.3,0.5-0.7,0.6-1c0-0.3,0-0.8,0-0.8L25.7,7.6
	c0.399-0.4,0.5-1,0.2-1.6L25,4.5C24.8,4.2,24.5,4,24.2,3.9z M10.8,19.9L9.7,21L9,19.7l1.1-1.101L10.8,19.9z M12.5,18.4l-1.1,1
	L10.7,18.1l1.1-1L12.5,18.4z M14.1,16.8l-1.1,1l-0.7-1.2l1.1-1L14.1,16.8z M15.7,15.3l-1.101,1L14,15l1.1-1L15.7,15.3z M17.3,13.7
	l-1.1,1l-0.7-1.2l1.1-1L17.3,13.7z M18.9,12.2l-1.101,1L17.2,12l1.1-1L18.9,12.2z M20.5,10.7l-1,1l-0.7-1.2l1.101-1L20.5,10.7z
	 M22,9.2l-1,1L20.3,9l1-1L22,9.2z M23.6,7.7l-1,1L21.9,7.5l1-1L23.6,7.7z"/>
</svg>
