<svg xmlns="http://www.w3.org/2000/svg" width="50" height="50" viewBox="0 0 50 50">    <path d="M 8 0 C 7.447 0 7 0.448 7 1 L 7 4 C 7 4.552 7.447 5 8 5 L 8 41 L 15 41 C 15.309 41 15.647 40.96625 16 40.90625 L 16 5 C 16.552 5 17 4.552 17 4 L 17 1 C 17 0.448 16.552 0 16 0 L 8 0 z M 20 3 C 19.652 3 19.323 3.0315 19 3.0625 L 19 4 C 19 4.887 18.613 5.66975 18 6.21875 L 18 10.6875 C 18.636 10.2975 19.33 10 20 10 L 20 39.1875 L 22 38.1875 L 22 10.53125 C 23.110302 11.118819 24.049245 12.134505 25 13.25 L 25 36.40625 L 27 35 L 27 15.5 C 27.882653 16.410151 28.845517 17.190527 30 17.625 L 30 32.6875 L 32 30.90625 L 32 18 C 33.163329 18 34.093627 17.770146 35 17.53125 L 35 28 L 37 25.8125 L 37 17.09375 C 37.324049 17.044833 37.651652 17 38 17 C 38.902 17 41 17.292 41 20 C 41 26.048875 24.534408 41.948773 15.8125 42.9375 C 15.531148 42.969394 15.264437 43 15 43 L 8 43 L 7 43 C 5.841 43 5 43.841 5 45 L 5 48 C 5 49.159 5.841 50 7 50 L 21.3125 50 C 27.3815 50 47 30.55475 47 20.59375 C 47 15.12075 43.561 11 39 11 C 37.066 11 35.6825 11.2435 34.5625 11.4375 C 33.8625 11.5585 33.2885 11.65625 32.8125 11.65625 C 31.9035 11.65625 31.0315 11.38875 28.8125 8.21875 C 26.3765 4.69875 23.5 3 20 3 z"></path></svg>