<?xml version="1.0" encoding="utf-8"?>
<!-- Generator: Adobe Illustrator 16.0.0, SVG Export Plug-In . SVG Version: 6.00 Build 0)  -->
<!DOCTYPE svg PUBLIC "-//W3C//DTD SVG 1.1//EN" "http://www.w3.org/Graphics/SVG/1.1/DTD/svg11.dtd">
<svg version="1.1" id="Layer_1" xmlns="http://www.w3.org/2000/svg" xmlns:xlink="http://www.w3.org/1999/xlink" x="0px" y="0px"
	 width="50px" height="50px" viewBox="0 0 50 50" enable-background="new 0 0 50 50" xml:space="preserve">
<path fill="#F5F9FF" d="M8,0C7.447,0,7,0.448,7,1v3c0,0.552,0.447,1,1,1v36h7c0.309,0,0.647-0.033,1-0.094V5c0.552,0,1-0.448,1-1V1
	c0-0.552-0.448-1-1-1H8z M20,3c-0.348,0-0.677,0.031-1,0.062V4c0,0.887-0.387,1.67-1,2.219v4.469C18.636,10.297,19.33,10,20,10
	v29.188l2-1V10.531c1.11,0.587,2.049,1.603,3,2.719v23.156L27,35V15.5c0.883,0.91,1.846,1.69,3,2.125v15.062l2-1.781V18
	c1.163,0,2.094-0.23,3-0.469V28l2-2.188v-8.719C37.324,17.045,37.652,17,38,17c0.902,0,3,0.292,3,3
	c0,6.049-16.466,21.949-25.188,22.938C15.531,42.969,15.265,43,15,43H8H7c-1.159,0-2,0.841-2,2v3c0,1.159,0.841,2,2,2h14.312
	C27.381,50,47,30.555,47,20.594C47,15.121,43.561,11,39,11c-1.934,0-3.317,0.244-4.438,0.438c-0.7,0.121-1.273,0.219-1.75,0.219
	c-0.909,0-1.781-0.268-4-3.438C26.377,4.699,23.5,3,20,3z"/>
</svg>
