<?xml version="1.0" encoding="utf-8"?>
<!-- Generator: Adobe Illustrator 16.0.0, SVG Export Plug-In . SVG Version: 6.00 Build 0)  -->
<!DOCTYPE svg PUBLIC "-//W3C//DTD SVG 1.1//EN" "http://www.w3.org/Graphics/SVG/1.1/DTD/svg11.dtd">
<svg version="1.1" id="Layer_1" xmlns="http://www.w3.org/2000/svg" xmlns:xlink="http://www.w3.org/1999/xlink" x="0px" y="0px"
	 width="50px" height="50px" viewBox="0 0 50 50" enable-background="new 0 0 50 50" xml:space="preserve">
<path fill="#F5F9FF" d="M32.688,2.375l-7.156,7.188l8.094,8.062c3.975,3.973,4.99,8.672,5,8.719l0.188,1l0.969-0.219
	c0.13-0.025,3.229-0.697,6.281-3.75c3.055-3.053,3.725-6.121,3.75-6.25l0.156-0.875l-0.844-0.281
	c-0.039-0.012-3.66-1.219-7.531-4.75l0.781-0.844c0.432-0.457,0.512-0.931,0.5-1.25c-0.023-0.707-0.496-1.158-0.562-1.219
	l-4.469-4.469L37.75,3.344c-0.088-0.068-0.553-0.406-1.188-0.406c-0.482,0-0.926,0.206-1.281,0.562l-0.719,0.75L32.688,2.375z
	 M25.969,12.812l-0.156,0.156c-0.726,0.727-1.002,1.61-1.281,2.562c-0.436,1.488-1.018,3.548-3.812,6.344
	c-1.638,1.638-3.351,2.684-5.156,3.812c-2.023,1.266-4.097,2.598-6.312,4.812c-9.795,9.795-9.587,12.285-8.562,13.312l1.25,1.25
	c0.785,0.784,2.54,1.406,4,1.406c0.501,0,0.958-0.072,1.344-0.219c0.191-0.07,0.361-0.142,0.5-0.188
	c1.176-0.395,1.48-0.747,1.875-2.25c0.076-0.289,0.143-0.641,0.219-1.031c0.321-1.639,0.761-3.886,2.688-5.812
	c1.036-1.037,2.747-2.14,4.719-3.438c2.694-1.771,6.049-3.988,8.906-6.844c2.559-2.558,3.82-3.799,5.031-4.969
	c0.577-0.557,1.143-1.093,1.812-1.75c-0.266-0.309-0.541-0.634-0.844-0.938L25.969,12.812z"/>
</svg>
