<?xml version="1.0" encoding="utf-8"?>
<!-- Generator: Adobe Illustrator 16.0.0, SVG Export Plug-In . SVG Version: 6.00 Build 0)  -->
<!DOCTYPE svg PUBLIC "-//W3C//DTD SVG 1.1//EN" "http://www.w3.org/Graphics/SVG/1.1/DTD/svg11.dtd">
<svg version="1.1" id="Layer_1" xmlns="http://www.w3.org/2000/svg" xmlns:xlink="http://www.w3.org/1999/xlink" x="0px" y="0px"
	 width="26px" height="26px" viewBox="0 0 26 26" enable-background="new 0 0 26 26" xml:space="preserve">
<path fill="#F5F9FF" d="M17.869,3.889c-2.096,0-3.887,1.494-4.871,2.523c-0.984-1.029-2.771-2.523-4.866-2.523
	C4.521,3.889,2,6.405,2,10.008c0,3.971,3.131,6.537,6.16,9.018c1.43,1.174,2.91,2.386,4.045,3.73
	c0.191,0.225,0.471,0.354,0.765,0.354h0.058c0.295,0,0.574-0.129,0.764-0.354c1.138-1.345,2.616-2.557,4.047-3.729
	C20.867,16.545,24,13.979,24,10.008C24,6.405,21.479,3.889,17.869,3.889z"/>
</svg>
