<?xml version="1.0" encoding="utf-8"?>
<!-- Generator: Adobe Illustrator 16.0.0, SVG Export Plug-In . SVG Version: 6.00 Build 0)  -->
<!DOCTYPE svg PUBLIC "-//W3C//DTD SVG 1.1//EN" "http://www.w3.org/Graphics/SVG/1.1/DTD/svg11.dtd">
<svg version="1.1" id="Layer_1" xmlns="http://www.w3.org/2000/svg" xmlns:xlink="http://www.w3.org/1999/xlink" x="0px" y="0px"
	 width="26px" height="26px" viewBox="0 0 26 26" enable-background="new 0 0 26 26" xml:space="preserve">
<path fill="#F5F9FF" d="M14.812,7.531c-0.453,0.097-0.77,0.506-0.75,0.969v0.062L5,8.062C4.476,8.062,4.062,8.476,4.062,9
	S4.476,9.938,5,9.938l9.062-0.5v2.094c-0.74,0.333-1.329,0.841-1.781,1.469H2.5c-0.5,0-0.619,0.844-0.062,0.938
	c0.152,0.025,5.561,1.346,8.75,2.125c-0.058,0.446-0.094,0.898-0.094,1.375c0,3.525,3.079,3.531,6.875,3.531
	s6.844-0.006,6.844-3.531c0-3.521-4.609-6.375-8.406-6.375c-0.162,0-0.314,0.021-0.469,0.031V9.438L25,9.938
	c0.523,0,0.938-0.414,0.938-0.938S25.523,8.062,25,8.062l-9.062,0.5V8.5c0.012-0.524-0.403-0.96-0.928-0.972
	c-0.035,0-0.068,0-0.104,0.003C14.875,7.53,14.844,7.53,14.812,7.531z M2.5,11.188c-1.277,0-2.312,1.035-2.312,2.312
	c0,1.277,1.035,2.312,2.312,2.312c0.745,0,1.39-0.359,1.812-0.906l-1.219-0.344c-0.178,0.1-0.377,0.188-0.594,0.188
	c-0.686,0-1.25-0.564-1.25-1.25c0-0.685,0.565-1.25,1.25-1.25c0.332,0,0.622,0.131,0.844,0.344h1.281
	C4.275,11.762,3.46,11.188,2.5,11.188z M18.125,13.062c1.779,0,4.844,1.662,4.844,3.75c0,0.782-0.81,1.156-3.562,1.156
	c-1.807,0-2.312-0.84-2.312-1.906C17.094,14.449,17.292,13.062,18.125,13.062z M24.812,21.031c-0.314,0.068-0.574,0.292-0.688,0.594
	c0.011-0.011,0.035-0.018-0.062,0.031c-0.277,0.139-1.15,0.406-3.062,0.406H10c-0.518-0.085-1.006,0.266-1.092,0.783
	c-0.085,0.518,0.266,1.007,0.783,1.092c0.103,0.017,0.207,0.017,0.309,0h11c2.07,0,3.18-0.232,3.906-0.594
	c0.363-0.181,0.641-0.404,0.812-0.656c0.086-0.126,0.152-0.258,0.188-0.375s0.031-0.281,0.031-0.281
	c0.029-0.523-0.371-0.973-0.895-1.002c-0.046-0.003-0.092-0.002-0.137,0.002C24.875,21.029,24.844,21.029,24.812,21.031z M902,1469
	v2h26v-2H902z M906,1474v2h18v-2H906z M902,1479v2h26v-2H902z M906,1484v2h18v-2H906z M902,1489v2h26v-2H902z"/>
</svg>
