<?xml version="1.0" encoding="utf-8"?>
<!-- Generator: Adobe Illustrator 16.0.0, SVG Export Plug-In . SVG Version: 6.00 Build 0)  -->
<!DOCTYPE svg PUBLIC "-//W3C//DTD SVG 1.1//EN" "http://www.w3.org/Graphics/SVG/1.1/DTD/svg11.dtd">
<svg version="1.1" id="Layer_1" xmlns="http://www.w3.org/2000/svg" xmlns:xlink="http://www.w3.org/1999/xlink" x="0px" y="0px"
	 width="26px" height="26px" viewBox="0 0 26 26" enable-background="new 0 0 26 26" xml:space="preserve">
<path fill="#F5F9FF" d="M10,0C4.799,0,0,3.987,0,11c0,2.719,1.543,6.601,2.438,8.625c0.179,0.521,0.397,1.104,0.688,1.719
	c0.394,0.836,0.88,1.703,1.562,2.406s1.612,1.281,2.719,1.281c0.833,0,1.46-0.416,2.062-0.938s1.175-1.219,1.688-2
	c0.986-1.502,1.785-3.34,1.844-5.156c5.775-1.496,11.787-3.131,13-5.938C25.59,2.785,19.191,0,10,0z M12,3
	c0.15-0.022,0.256-0.018,0.344,0c0.517,0.102,1.021,0.268,1.5,0.438c0.18,0.064,0.544,0.162,0.094,0.656
	c-0.292,0.321-0.905,0.971-1.312,1.375c-0.342,0.34-0.707,0.184-0.875,0.094c-0.45-0.241-0.913-0.409-1.375-0.531
	c-0.154-0.041-0.317-0.249,0-0.594c0.204-0.222,0.733-0.783,1.094-1.156C11.656,3.087,11.85,3.022,12,3z M8.875,3.062
	C9.097,3.033,9.287,3.09,9,3.375C8.745,3.63,8.197,4.169,7.875,4.531c-0.236,0.266-0.56,0.326-0.688,0.344
	c-1.136,0.156-1.864,0.418-1.719,0.25c0.901-1.045,2.012-1.669,3.188-2C8.717,3.108,8.801,3.072,8.875,3.062z M16.469,4.812
	C16.707,4.745,16.92,4.905,17.031,5c0.764,0.649,1.219,1.346,1.219,2c0,0.717-2.746,3.094-2.969,2.5
	c-0.268-0.712-0.557-1.325-0.906-1.844c-0.098-0.144-0.329-0.387,0.125-0.875c0.559-0.599,1.488-1.588,1.719-1.812
	C16.303,4.887,16.39,4.835,16.469,4.812z M7.562,16.156c0.927,0.056,2.057,0.374,3.406,0.969C10.855,18.332,10.272,19.823,9.5,21
	c-0.43,0.654-0.93,1.204-1.344,1.562s-0.76,0.469-0.75,0.469c-0.438,0-0.837-0.199-1.281-0.656S5.273,21.213,4.938,20.5
	c-0.59-1.252-0.893-2.367-0.969-2.656C4.603,16.856,5.686,16.044,7.562,16.156z"/>
</svg>
