<svg xmlns="http://www.w3.org/2000/svg" width="50" height="50" viewBox="0 0 50 50">    <path d="M 10.21875 0.1875 C 9.82675 0.2235 9.5475 0.416 9.375 0.5625 C 8.677 1.1605 8.58025 2.32475 9.15625 3.71875 C 11.87125 10.28275 12.69475 15.55225 11.34375 17.78125 C 10.96775 18.40025 10.62875 18.916 10.34375 19.375 C 9.83775 20.189 9.48475 20.77625 9.21875 21.28125 C 6.28275 26.84525 5.017 31.24075 5 35.96875 C 5 35.97475 5 35.994 5 36 C 5 36.011 5 36.02125 5 36.03125 C 5 36.04725 5 36.0465 5 36.0625 C 5 36.0715 5 36.08575 5 36.09375 C 5.057 43.76575 11.315 50 19 50 C 26.72 50 33 43.72 33 36 C 33 28.922 27.702 23.08325 20.875 22.15625 C 20.399 22.43825 19.98525 22.7255 19.65625 23.0625 C 18.30425 24.4415 16.62125 26.56125 15.28125 28.90625 C 16.39125 28.32125 17.661 28 19 28 C 23.411 28 27 31.589 27 36 C 27 40.411 23.411 44 19 44 C 14.632 44 11.071 40.476 11 36.125 C 10.98 36.08 10.96875 36.04 10.96875 36 C 10.96875 30.527 15.737 24.22025 18.25 21.65625 C 18.44 21.46225 18.652 21.302 18.875 21.125 C 18.945 21.069 18.9895 20.9915 19.0625 20.9375 C 19.2255 20.8175 19.41775 20.70675 19.59375 20.59375 C 19.68075 20.53875 19.75375 20.4915 19.84375 20.4375 C 20.03475 20.3235 20.2345 20.19975 20.4375 20.09375 C 20.5135 20.05375 20.57825 20.039 20.65625 20 C 20.92025 19.87 21.19075 19.743 21.46875 19.625 C 21.60275 19.568 21.739 19.4915 21.875 19.4375 C 22.034 19.3745 22.212 19.34025 22.375 19.28125 C 22.535 19.22325 22.68175 19.14875 22.84375 19.09375 C 22.98275 19.04775 23.14225 19.01275 23.28125 18.96875 C 23.45825 18.91275 23.6355 18.8645 23.8125 18.8125 C 27.3025 17.7955 30.961 17.507 31.75 17.5 C 32.9 17.522 34.194 16.99725 34.5 15.90625 C 34.607 15.53425 34.71425 14.57425 33.40625 13.78125 C 33.40625 13.78125 13.13075 1.50925 11.71875 0.65625 C 11.08825 0.27275 10.61075 0.1515 10.21875 0.1875 z M 15.53125 31.0625 L 13.84375 31.9375 C 13.36075 33.1975 13.02275 34.47425 12.96875 35.65625 L 13 35.6875 L 13 36.09375 C 13.017 37.14775 13.3125 38.144 13.8125 39 C 13.9255 38.69 14 38.351 14 38 L 14 34 C 14 33.448 14.449 33 15 33 C 15.551 33 16 33.448 16 34 L 16 38 C 16 39.654 17.346 41 19 41 C 20.654 41 22 39.654 22 38 L 22 34 C 22 33.448 22.449 33 23 33 C 23.551 33 24 33.448 24 34 L 24 38 C 24 38.354 24.0715 38.685 24.1875 39 C 24.7025 38.115 25 37.096 25 36 C 25 33.953 23.97525 32.1465 22.40625 31.0625 C 21.03925 31.3415 20 32.552 20 34 L 20 38 C 20 38.552 19.551 39 19 39 C 18.449 39 18 38.552 18 38 L 18 34 C 18 32.526 16.93325 31.3135 15.53125 31.0625 z M 40 41 C 38.897 41 38 41.896 38 43 L 38 48 C 38 49.104 38.897 50 40 50 C 41.104 50 42 49.104 42 48 L 42 43 C 42 41.896 41.104 41 40 41 z M 33.375 43 C 32.439 44.912 31.1435 46.607 29.5625 48 L 36 48 L 36 43 L 33.375 43 z"></path></svg>