<?xml version="1.0" encoding="utf-8"?>
<!-- Generator: Adobe Illustrator 16.0.0, SVG Export Plug-In . SVG Version: 6.00 Build 0)  -->
<!DOCTYPE svg PUBLIC "-//W3C//DTD SVG 1.1//EN" "http://www.w3.org/Graphics/SVG/1.1/DTD/svg11.dtd">
<svg version="1.1" id="Layer_1" xmlns="http://www.w3.org/2000/svg" xmlns:xlink="http://www.w3.org/1999/xlink" x="0px" y="0px"
	 width="50px" height="50px" viewBox="0 0 50 50" enable-background="new 0 0 50 50" xml:space="preserve">
<path fill="#F5F9FF" d="M10.219,0.188C9.827,0.224,9.547,0.416,9.375,0.562C8.677,1.161,8.58,2.325,9.156,3.719
	c2.715,6.564,3.539,11.833,2.188,14.062c-0.376,0.619-0.715,1.135-1,1.594c-0.506,0.814-0.859,1.401-1.125,1.906
	C6.283,26.846,5.017,31.24,5,35.969C5,35.975,5,35.994,5,36c0,0.011,0,0.021,0,0.031c0,0.016,0,0.016,0,0.031
	c0,0.009,0,0.023,0,0.031C5.057,43.766,11.315,50,19,50c7.721,0,14-6.279,14-14c0-7.078-5.298-12.917-12.125-13.844
	c-0.476,0.282-0.89,0.569-1.219,0.906c-1.352,1.379-3.035,3.498-4.375,5.844C16.391,28.321,17.661,28,19,28c4.411,0,8,3.589,8,8
	s-3.589,8-8,8c-4.368,0-7.929-3.523-8-7.875C10.98,36.08,10.969,36.04,10.969,36c0-5.473,4.768-11.78,7.281-14.344
	c0.19-0.194,0.402-0.354,0.625-0.531c0.07-0.056,0.114-0.133,0.188-0.188c0.163-0.12,0.355-0.231,0.531-0.344
	c0.087-0.055,0.16-0.102,0.25-0.156c0.191-0.114,0.391-0.238,0.594-0.344c0.076-0.04,0.141-0.055,0.219-0.094
	c0.264-0.13,0.535-0.257,0.812-0.375c0.134-0.057,0.27-0.133,0.406-0.188c0.159-0.063,0.337-0.097,0.5-0.156
	c0.16-0.058,0.307-0.132,0.469-0.188c0.139-0.046,0.298-0.081,0.438-0.125c0.177-0.056,0.354-0.104,0.531-0.156
	c3.49-1.017,7.148-1.306,7.938-1.312c1.15,0.022,2.443-0.503,2.75-1.594c0.107-0.372,0.215-1.332-1.094-2.125
	c0,0-20.275-12.272-21.688-13.125C11.088,0.273,10.611,0.151,10.219,0.188z M15.531,31.062l-1.688,0.875
	c-0.483,1.26-0.821,2.537-0.875,3.719L13,35.688v0.406c0.017,1.055,0.312,2.051,0.812,2.906C13.925,38.689,14,38.352,14,38v-4
	c0-0.552,0.449-1,1-1s1,0.448,1,1v4c0,1.654,1.346,3,3,3s3-1.346,3-3v-4c0-0.552,0.449-1,1-1s1,0.448,1,1v4
	c0,0.354,0.071,0.686,0.188,1C24.703,38.115,25,37.096,25,36c0-2.047-1.025-3.854-2.594-4.938C21.039,31.342,20,32.552,20,34v4
	c0,0.552-0.449,1-1,1s-1-0.448-1-1v-4C18,32.525,16.933,31.313,15.531,31.062z M40,41c-1.104,0-2,0.896-2,2v5c0,1.104,0.896,2,2,2
	s2-0.896,2-2v-5C42,41.896,41.104,41,40,41z M33.375,43c-0.936,1.912-2.231,3.607-3.812,5H36v-5H33.375z"/>
</svg>
