<?xml version="1.0" encoding="utf-8"?>
<!-- Generator: Adobe Illustrator 16.0.0, SVG Export Plug-In . SVG Version: 6.00 Build 0)  -->
<!DOCTYPE svg PUBLIC "-//W3C//DTD SVG 1.1//EN" "http://www.w3.org/Graphics/SVG/1.1/DTD/svg11.dtd">
<svg version="1.1" id="Layer_1" xmlns="http://www.w3.org/2000/svg" xmlns:xlink="http://www.w3.org/1999/xlink" x="0px" y="0px"
	 width="50px" height="50px" viewBox="0 0 50 50" enable-background="new 0 0 50 50" xml:space="preserve">
<path fill="#F5F9FF" d="M42.326,44.316h-1.078c0.281-0.659,0.611-1.401,0.969-2.207c2.301-5.188,5.775-13.027,5.775-19.109
	C47.992,10.322,37.678,0.008,25,0.008C12.322,0.008,2.008,10.322,2.008,23c0,6.082,3.477,13.922,5.777,19.109
	c0.357,0.807,0.687,1.548,0.968,2.207H7.674c-1.173,0-2.128,0.953-2.128,2.127v1.422c0,1.173,0.955,2.127,2.128,2.127h6.959
	c1.174,0,2.128-0.954,2.128-2.128V45.48c0-0.047-0.003-0.095-0.01-0.142l-0.046-0.321c-0.007-0.051-0.019-0.101-0.033-0.148
	C16.303,43.668,13.069,32.855,13.069,23c0-7.044,6.169-11.777,11.931-11.777c5.762,0,11.932,4.733,11.932,11.777
	c0,9.852-3.233,20.667-3.603,21.868c-0.017,0.051-0.027,0.103-0.034,0.153l-0.046,0.311c-0.007,0.049-0.011,0.098-0.011,0.146v2.386
	c0,1.174,0.955,2.128,2.129,2.128h6.959c1.174,0,2.128-0.954,2.128-2.128v-1.421C44.454,45.271,43.5,44.316,42.326,44.316z
	 M6.401,27.773c-0.292-1.506-0.439-2.865-0.439-4.042c0-0.7,0.04-1.393,0.117-2.076l1.835,0.209
	c-0.07,0.615-0.106,1.238-0.106,1.867c0,1.058,0.137,2.3,0.407,3.69L6.401,27.773z M8.974,36.208c0,0-0.442-1.054-0.986-2.647
	l1.745-0.6c0.519,1.516,0.938,2.521,0.945,2.536L8.974,36.208z M9.432,16.535l-1.669-0.788c0.878-1.858,2.043-3.562,3.465-5.065
	l1.341,1.269C11.282,13.312,10.225,14.854,9.432,16.535z M16.974,8.572l-0.876-1.624c1.828-0.986,3.782-1.658,5.811-1.998
	l0.306,1.821C20.386,7.077,18.623,7.683,16.974,8.572z M32.998,8.556c-1.652-0.887-3.418-1.489-5.246-1.792l0.303-1.821
	c2.026,0.335,3.983,1.003,5.816,1.985L32.998,8.556z M44.038,23.732c0,1.159-0.146,2.506-0.433,4.002l-1.814-0.35
	c0.266-1.381,0.4-2.611,0.4-3.654c0-0.642-0.039-1.277-0.11-1.905l1.835-0.209C43.997,22.314,44.038,23.02,44.038,23.732z
	 M38.745,10.653c1.428,1.501,2.596,3.203,3.476,5.059l-1.669,0.79c-0.794-1.677-1.852-3.217-3.145-4.576L38.745,10.653z
	 M39.322,35.499c0.007-0.015,0.426-1.022,0.945-2.537l1.744,0.599c-0.545,1.594-0.986,2.648-0.986,2.648L39.322,35.499z"/>
</svg>
