<?xml version="1.0" encoding="utf-8"?>
<!-- Generator: Adobe Illustrator 16.0.0, SVG Export Plug-In . SVG Version: 6.00 Build 0)  -->
<!DOCTYPE svg PUBLIC "-//W3C//DTD SVG 1.1//EN" "http://www.w3.org/Graphics/SVG/1.1/DTD/svg11.dtd">
<svg version="1.1" id="Layer_1" xmlns="http://www.w3.org/2000/svg" xmlns:xlink="http://www.w3.org/1999/xlink" x="0px" y="0px"
	 width="200px" height="200px" viewBox="0 0 200 200" enable-background="new 0 0 200 200" xml:space="preserve">
<path fill="#F5F9FF" d="M155.289,15.385C119.837,16.21,112.26,62.26,112.26,62.26s-6.924,3.125-19.231,3.125
	c-12.308,0-19.183-3.846-35.336-3.846c-18.461,0-26.923,10-26.923,26.923c0,7.692,9.135,30.769,9.135,30.769l-1.442,19.23
	l10.817,41.587c0,3.077,2.211,4.567,5.289,4.567h10.096l-10.096-43.029c0,0,9.952-10.096,16.105-25.48
	c0,0,17.692,13.077,57.692,3.847l9.375,59.375c0,3.077,2.164,6.009,6.01,6.009h6.971c0,0-2.307-64.663-3.846-72.355
	c14.615-17.692,4.76-49.134,13.221-55.288c2.309,8.461,11.347,11.635,18.27,10.096c6.924-1.539,14.664,2.884,14.664,2.884
	l4.566-4.567c2.309-2.308,2.309-5.385,0-7.692l-22.115-24.52l9.135-10.817C173.221,17.308,163.47,15.194,155.289,15.385z
	 M26.923,69.231c0,0-26.923,9.23-26.923,53.846l22.356,7.692c0,0-5.481-36.106,1.442-43.029
	C22.26,76.202,26.923,69.231,26.923,69.231z M160.096,103.125c-1.538,3.846-3.173,7.74-6.25,10.817c0,0.769-0.048,2.26,0.722,4.567
	l17.788,6.01l-3.846,24.038c-0.77,3.847,1.49,7.597,4.567,9.135l4.567,1.442l8.413-33.654c1.538-5.385-0.673-10.191-5.288-12.5
	L160.096,103.125z M73.798,125.48c-3.846,7.692-9.134,15.385-9.134,15.385l9.855,29.087c1.539,4.615,5.529,6.971,9.375,6.971
	l6.971,0.722l-13.221-34.615l9.375-12.26C80.865,129.23,73.798,125.48,73.798,125.48z"/>
</svg>
