<?xml version="1.0" encoding="utf-8"?>
<!-- Generator: Adobe Illustrator 16.0.0, SVG Export Plug-In . SVG Version: 6.00 Build 0)  -->
<!DOCTYPE svg PUBLIC "-//W3C//DTD SVG 1.1//EN" "http://www.w3.org/Graphics/SVG/1.1/DTD/svg11.dtd">
<svg version="1.1" id="Layer_1" xmlns="http://www.w3.org/2000/svg" xmlns:xlink="http://www.w3.org/1999/xlink" x="0px" y="0px"
	 width="50px" height="50px" viewBox="0 0 50 50" enable-background="new 0 0 50 50" xml:space="preserve">
<path fill="#F5F9FF" d="M41.531,1.094c-3.016,0-4.85,1.214-6.25,3.156c-3.162-0.333-5.838,1.684-7,3.812
	C27.995,8.587,27.685,9.25,27.312,10c-2.209,4.45-5.926,11.898-12.562,14.938c-4.385,2.006-7.177,4.579-8.344,7.625
	c-2.774,1.073-4.947,2.341-5.906,4.469c-0.81,1.798-0.645,3.977,0.531,6.656c0.722,1.645,2.462,3.594,6.531,3.594
	c1.233,0,2.534-0.188,3.875-0.5c1.788,1.432,3.777,2.156,6,2.156c5.167,0,11.645-3.925,20.094-12
	c12.5-11.95,12.799-20.43,12.344-23.531c-0.302-2.061-1.137-3.682-2.281-4.469c0.721-1.628,0.568-3.001,0.219-3.969
	c-0.837-2.31-3.232-3.601-4.656-3.781C42.59,1.117,42.039,1.094,41.531,1.094z M34.094,6.25c-0.609,1.208-1.167,2.554-1.75,4
	c-1.58,3.919-3.552,8.817-7.844,13.562c-3.661,4.045-9.108,5.774-13.906,7.312c-0.491,0.157-0.963,0.314-1.438,0.469
	c1.273-1.84,3.428-3.468,6.438-4.844c7.281-3.334,11.326-11.464,13.5-15.844c0.359-0.724,0.693-1.369,0.969-1.875
	C30.799,7.68,32.326,6.463,34.094,6.25z M46.562,10.625c0.527,0.436,1.115,1.502,1.344,3.062c0.41,2.792,0.077,10.506-11.75,21.812
	C23.491,47.605,17.527,48.022,13.969,46.062c2.232-0.753,4.314-1.751,5.875-2.719l0.875-0.531l-0.531-0.844
	c-1.845-2.87-1.786-2.943,2.219-6.344c1.7-1.443,4.037-3.426,6.969-6.344c2.807-2.795,4.744-6.325,6.469-9.438
	c2.77-4.994,4.928-8.803,9.031-8.031l0.562,0.125l0.375-0.406C46.095,11.228,46.34,10.916,46.562,10.625z"/>
</svg>
