<?xml version="1.0" encoding="utf-8"?>
<!-- Generator: Adobe Illustrator 16.0.0, SVG Export Plug-In . SVG Version: 6.00 Build 0)  -->
<!DOCTYPE svg PUBLIC "-//W3C//DTD SVG 1.1//EN" "http://www.w3.org/Graphics/SVG/1.1/DTD/svg11.dtd">
<svg version="1.1" id="Layer_1" xmlns="http://www.w3.org/2000/svg" xmlns:xlink="http://www.w3.org/1999/xlink" x="0px" y="0px"
	 width="50px" height="50px" viewBox="0 0 50 50" enable-background="new 0 0 50 50" xml:space="preserve">
<path fill="#F5F9FF" d="M8.688,5.031c-0.948,0-1.906,0.077-2.812,0.188c-0.319,0.039-0.595,0.219-0.75,0.5S4.956,6.334,5.094,6.625
	c0.434,0.914,0.886,1.74,1.344,2.469C7.331,9.043,8.319,9,9.406,9c5.948,0,11.507,1.493,17.938,3.219l0.188,0.062
	c0.298,0.08,0.574,0.138,0.875,0.219c0.193-0.216,0.416-0.469,0.562-0.656C24.516,9.044,16.755,5.031,8.688,5.031z M37,7
	c-4.01,0-5.384,3.631-5.969,5.188c-0.061,0.16-0.105,0.323-0.125,0.375c-0.218,0.436-0.809,1.075-1.281,1.594
	c-0.214,0.235-0.385,0.422-0.531,0.594c-0.773-0.205-1.537-0.395-2.281-0.594C20.519,12.466,15.089,11,9.406,11
	c-5.795,0-8.603,0.899-8.719,0.938c-0.315,0.105-0.568,0.367-0.656,0.688s0.002,0.685,0.219,0.938
	c5.439,6.347,15.832,10.533,19.031,11.125c0.818,0.175,1.674,0.25,2.531,0.25c1.508,0,2.834-0.262,3.844-0.562
	c-0.571,3.203,0.248,6.774,0.438,7.531L26,44c-0.002,0.284,0.102,0.559,0.312,0.75c0.232,0.21,1.581,1.25,5.281,1.25
	c3.244,0,5.109-2.277,5.188-2.375c0.225-0.279,0.288-0.667,0.156-1L33,32.688c1.611-1.436,6-5.836,6-11.188
	c0-1.663-0.17-3.55-0.281-4.406c0.131-0.151,0.447-0.403,0.688-0.594c0.948-0.758,2.376-1.911,2.594-3.875
	c0.105-0.793,0.596-1.623,0.938-2.094c0.178-0.023,0.295-0.021,0.562-0.062C44.605,10.294,46.439,10,49,10c0.553,0,1-0.448,1-1
	s-0.447-1-1-1c-2.717,0-4.726,0.327-5.812,0.5c-0.314,0.049-0.68,0.093-0.781,0.094c-0.262,0-0.61-0.197-1.062-0.438
	C40.416,7.662,39.131,7,37,7z M37.5,10.5c0.332,0,0.594,0.263,0.594,0.594s-0.262,0.594-0.594,0.594s-0.594-0.263-0.594-0.594
	C36.906,10.762,37.168,10.5,37.5,10.5z"/>
</svg>
