<?xml version="1.0" encoding="utf-8"?>
<!-- Generator: Adobe Illustrator 16.0.0, SVG Export Plug-In . SVG Version: 6.00 Build 0)  -->
<!DOCTYPE svg PUBLIC "-//W3C//DTD SVG 1.1//EN" "http://www.w3.org/Graphics/SVG/1.1/DTD/svg11.dtd">
<svg version="1.1" id="Layer_1" xmlns="http://www.w3.org/2000/svg" xmlns:xlink="http://www.w3.org/1999/xlink" x="0px" y="0px"
	 width="200px" height="200px" viewBox="0 0 200 200" enable-background="new 0 0 200 200" xml:space="preserve">
<path fill="#F5F9FF" d="M100,0C78.881,0,61.539,17.343,61.539,38.461c0,0.951,0.163,2.114,0.24,3.366
	c-13.626,5.939-23.317,19.374-23.317,35.096c0,14.093,7.817,26.475,19.231,33.173l35.336,84.615
	c1.539,3.078,3.894,4.568,6.971,4.568s6.202-1.49,6.971-4.568l35.337-84.615c11.414-6.698,19.231-19.08,19.231-33.173
	c0-15.722-9.691-29.157-23.318-35.096c0.078-1.251,0.24-2.415,0.24-3.366C138.461,17.343,121.119,0,100,0z M100,15.385
	c12.727,0,23.077,10.35,23.077,23.077c-8.801,0-16.595,3.359-22.837,8.173c-6.569-4.99-14.533-8.173-23.317-8.173
	C76.923,25.734,87.273,15.385,100,15.385z M76.923,53.846c11.539,0,21.371,8.902,23.077,19.711c0.664,4.249,4.646,7.154,8.895,6.49
	c4.248-0.664,7.154-4.646,6.49-8.894l0,0c-0.756-4.787-2.425-9.413-4.808-13.461c3.614-2.429,8.016-3.846,12.5-3.846
	c12.728,0,23.077,10.35,23.077,23.077c0,5.999-2.246,11.518-6.01,15.625c-0.565-0.168-1.105-0.24-1.684-0.24H61.539
	c-0.577,0-1.118,0.072-1.683,0.24c-3.764-4.107-6.01-9.626-6.01-15.625C53.846,64.196,64.196,53.846,76.923,53.846z"/>
</svg>
