<?xml version="1.0" encoding="utf-8"?>
<!-- Generator: Adobe Illustrator 16.0.0, SVG Export Plug-In . SVG Version: 6.00 Build 0)  -->
<!DOCTYPE svg PUBLIC "-//W3C//DTD SVG 1.1//EN" "http://www.w3.org/Graphics/SVG/1.1/DTD/svg11.dtd">
<svg version="1.1" id="Layer_1" xmlns="http://www.w3.org/2000/svg" xmlns:xlink="http://www.w3.org/1999/xlink" x="0px" y="0px"
	 width="26px" height="26px" viewBox="0 0 26 26" enable-background="new 0 0 26 26" xml:space="preserve">
<path fill="#F5F9FF" d="M10.656,0.031C9.084,0.031,8,0.707,8,2C6.223,2,3,2.974,3,5.969v4.656C3,13.861,2,15.068,2,19
	c0,1.043,0.219,1.688,0.219,1.688s0.65,0.367,2.625,0.375C4.377,22.96,2.719,24,1,24c-0.031-0.002-0.062-0.002-0.094,0
	c-0.231,0.009-0.452,0.098-0.625,0.25c0,0.01,0,0.021,0,0.031c-0.045,0.038-0.087,0.08-0.125,0.125c0,0.01,0,0.021,0,0.031
	c-0.022,0.02-0.042,0.041-0.062,0.062c0,0.01,0,0.021,0,0.031C-0.034,24.76-0.068,25.029,0,25.281
	c0.01,0.011,0.021,0.021,0.031,0.031c0,0.021,0,0.041,0,0.062c0.01,0.011,0.021,0.021,0.031,0.031
	c0.018,0.043,0.039,0.085,0.062,0.125c0.01,0.011,0.021,0.021,0.031,0.031c0.01,0.021,0.02,0.042,0.031,0.062
	c0.01,0.011,0.021,0.021,0.031,0.031c0.071,0.086,0.155,0.16,0.25,0.219c0.021,0.012,0.042,0.021,0.062,0.031
	c0.01,0.011,0.021,0.021,0.031,0.031c0.021,0,0.042,0,0.062,0c0.01,0.011,0.021,0.021,0.031,0.031c0.021,0,0.042,0,0.062,0
	C0.8,25.99,0.884,26,0.969,26C0.979,26,0.99,26,1,26h22c0.032,0,0.062,0.001,0.094,0c0.01,0,0.021,0,0.031,0
	C24.712,25.932,26,24.602,26,23c0.014-0.553-0.424-1.011-0.976-1.023c-0.081-0.002-0.163,0.006-0.243,0.023
	c-0.466,0.104-0.793,0.523-0.781,1c0,0.564-0.436,1-1,1c-1.528,0-2.466-0.779-3.125-1.625c-0.141-0.18-0.239-0.362-0.344-0.531
	C23.326,21.394,25,20.125,25,19.875c0-3.424-2.435-5.156-5.688-5.156c-1.521,0-5.085-2.078-6.094-4.625
	C12.477,8.223,13,2.969,13,1.375C13,0.75,12.228,0.031,10.656,0.031z M10,6c0.552,0,1,0.448,1,1s-0.448,1-1,1S9,7.552,9,7
	S9.448,6,10,6z M11,10c0.552,0,1,0.448,1,1s-0.448,1-1,1s-1-0.448-1-1S10.448,10,11,10z M13,13c0.552,0,1,0.448,1,1s-0.448,1-1,1
	s-1-0.448-1-1S12.448,13,13,13z M16,15c0.552,0,1,0.448,1,1s-0.448,1-1,1s-1-0.448-1-1S15.448,15,16,15z M6.906,21.094
	C12.374,21.25,13.587,22,16.719,22c0.214,0,0.389-0.026,0.594-0.031c0.205,0.451,0.512,1.029,1,1.656
	c0.096,0.122,0.203,0.253,0.312,0.375H5.5C6.197,23.225,6.707,22.232,6.906,21.094z"/>
</svg>
