<?xml version="1.0" encoding="utf-8"?>
<!-- Generator: Adobe Illustrator 16.0.0, SVG Export Plug-In . SVG Version: 6.00 Build 0)  -->
<!DOCTYPE svg PUBLIC "-//W3C//DTD SVG 1.1//EN" "http://www.w3.org/Graphics/SVG/1.1/DTD/svg11.dtd">
<svg version="1.1" id="Layer_1" xmlns="http://www.w3.org/2000/svg" xmlns:xlink="http://www.w3.org/1999/xlink" x="0px" y="0px"
	 width="24px" height="24px" viewBox="0 0 24 24" enable-background="new 0 0 24 24" xml:space="preserve">
<path fill="#F5F9FF" d="M12,0.062c-3.5,0-5,0.811-5,3.031c-2.741,0-4,0.945-4,3.469v3.5c0,2.989-1,3.527-1,7.156
	c0,0.963,0.219,1.562,0.219,1.562S2.8,18.99,4.562,19c-0.252,1.711-1.508,2.748-2.938,3H0v2h21.219c1.56,0,2.844-1.283,2.844-2.844
	h-2c0,0.479-0.365,0.844-0.844,0.844h-0.656c-1.028-0.178-1.711-0.756-2.219-1.406c-0.164-0.21-0.294-0.398-0.406-0.594
	C22.303,19.945,23,18.156,23,18.156C23,14.996,21.301,13,17.969,13c-2.855,0-4.693-1.649-5.625-4C11.659,7.272,12,2.673,12,0.062z
	 M9,5.438c0.552,0,1,0.448,1,1s-0.448,1-1,1s-1-0.448-1-1S8.448,5.438,9,5.438z M10,9c0.552,0,1,0.448,1,1s-0.448,1-1,1
	s-1-0.448-1-1S9.448,9,10,9z M12,12c0.552,0,1,0.448,1,1s-0.448,1-1,1s-1-0.448-1-1S11.448,12,12,12z M16,14c0.552,0,1,0.448,1,1
	s-0.448,1-1,1s-1-0.448-1-1S15.448,14,16,14z M6.438,19.031c4.292,0.117,7.109,0.614,9.406,0.844
	c0.125,0.32,0.411,1.008,1.062,1.844c0.074,0.094,0.167,0.187,0.25,0.281h-12C5.841,21.207,6.31,20.207,6.438,19.031z"/>
</svg>
