<?xml version="1.0" encoding="utf-8"?>
<!-- Generator: Adobe Illustrator 16.0.0, SVG Export Plug-In . SVG Version: 6.00 Build 0)  -->
<!DOCTYPE svg PUBLIC "-//W3C//DTD SVG 1.1//EN" "http://www.w3.org/Graphics/SVG/1.1/DTD/svg11.dtd">
<svg version="1.1" id="Layer_1" xmlns="http://www.w3.org/2000/svg" xmlns:xlink="http://www.w3.org/1999/xlink" x="0px" y="0px"
	 width="24px" height="24px" viewBox="0 0 24 24" enable-background="new 0 0 24 24" xml:space="preserve">
<path fill="#F5F9FF" d="M5,0.031C5,0.54,5.188,2.243,5.188,2.562S5,4.392,5,4.969c1.432,0.039,3.827-0.997,5.094-1.594
	C10.246,3.734,10.586,4,11,4h2c0.414,0,0.754-0.266,0.906-0.625C15.173,3.972,17.568,5.007,19,4.969
	c0-0.577-0.188-2.086-0.188-2.406S19,0.54,19,0.031c-0.389-0.024-2.927,0.229-5.094,1.656C13.77,1.298,13.436,1,13,1h-2
	c-0.436,0-0.769,0.298-0.906,0.688C7.927,0.261,5.389,0.007,5,0.031z M9.75,2.312c0.133-0.006,0.133,0.003,0.25,0v0.594
	C9.318,2.868,8.453,2.805,7.688,2.562C8.344,2.402,9.133,2.343,9.75,2.312z M14,2.312c0.658,0.019,1.515,0.055,2.312,0.25
	C15.547,2.804,14.683,2.868,14,2.906V2.312z M12,4.031c-3.059,0-6,1.66-6,4.719v2.438l-1.281,2.125c0,0,2.118,2.188,7.281,2.188
	s7.344-1.969,7.344-1.969L18,11.188V8.75C18,5.691,15.059,4.031,12,4.031z M3.75,14.719l-1.719,2.062c0,0,2.442,3.219,9.969,3.219
	c7.527,0,9.969-3.219,9.969-3.219l-1.719-2.062c0,0-2.846,2.344-8.25,2.344C6.596,17.062,3.75,14.719,3.75,14.719z M10.281,21.062
	C10.097,21.365,10,21.62,10,22c0,1.104,0.896,2,2,2c1.104,0,2-0.896,2-2c0-0.38-0.098-0.635-0.281-0.938
	c-0.552,0.021-1.131,0.062-1.719,0.062S10.833,21.084,10.281,21.062z"/>
</svg>
