<?xml version="1.0" encoding="utf-8"?>
<!-- Generator: Adobe Illustrator 16.0.0, SVG Export Plug-In . SVG Version: 6.00 Build 0)  -->
<!DOCTYPE svg PUBLIC "-//W3C//DTD SVG 1.1//EN" "http://www.w3.org/Graphics/SVG/1.1/DTD/svg11.dtd">
<svg version="1.1" id="Layer_1" xmlns="http://www.w3.org/2000/svg" xmlns:xlink="http://www.w3.org/1999/xlink" x="0px" y="0px"
	 width="24px" height="24px" viewBox="0 0 24 24" enable-background="new 0 0 24 24" xml:space="preserve">
<path fill="#F5F9FF" d="M2,0C0.896,0,0,0.896,0,2s0.896,2,2,2s2-0.896,2-2c0-0.162-0.026-0.318-0.062-0.469
	C4.1,1.518,4.266,1.5,4.406,1.5c3.9,0-0.306,7.413-1.906,13.812c0.6,0.2,1.212,0.494,1.812,1.094c0.4-2,1.175-4.094,1.875-6.094
	c1.1-3.1,2.013-5.6,1.812-7.5c1.2,1.6,2.506,5.781,2.906,13.781C10.947,16.553,10.96,16.533,11,16.5
	c0.114-0.057,0.195-0.152,0.281-0.219c0.025-0.019,0.074-0.045,0.094-0.062c0.041-0.021,0.075-0.031,0.125-0.031l0.469-0.25
	l0.438,0.156c0.1,0.1,0.3,0.213,0.5,0.312c-0.001-0.021,0.001-0.041,0-0.062c0.387,0.299,0.842,0.811,1.5,1.469l0.281,0.281
	c0.7-1.4,1.919-3.094,3.719-3.094H19l0.188,0.688c0.1,0.2,0.125,0.406,0.125,0.906c0,0.2-0.006,0.419,0.094,0.719
	c0.6-0.5,1.2-1.225,2-1.625C19.681,9.876,14.531,4.77,20.031,5.594C20.004,5.724,20,5.862,20,6c0,1.104,0.896,2,2,2s2-0.896,2-2
	s-0.896-2-2-2c-0.568,0-1.073,0.244-1.438,0.625C19.526,3.763,18.146,3,16,3c-2.116,0-3.359,1.524-4.094,4.625
	C10.92,2.942,9.256,0,6.906,0C5.743,0,4.599,0.305,3.625,0.812C3.261,0.312,2.666,0,2,0z M23.562,15.844
	c-2.117-0.06-3.906,2.781-4.562,3.062c-0.5-0.4-0.588-2.5-0.688-3c-1.8,0-3.013,2.682-3.312,3.781c-0.8-0.4-2.3-2.388-3-2.688
	c-0.8,0.5-2.3,2.287-3,2.688C8.7,18.287,8.1,16.5,6,16c-0.1,0.5-0.7,2.287-1,2.688C2.8,15.188,0,16,0,16s1,1.206,2,4.906
	c0.4,1.6,4.5,3,10,3s9.4-1.1,10-3c0.5-1.7,1-4,2-5C23.856,15.875,23.703,15.848,23.562,15.844z"/>
</svg>
