<?xml version="1.0" encoding="utf-8"?>
<!-- Generator: Adobe Illustrator 16.0.0, SVG Export Plug-In . SVG Version: 6.00 Build 0)  -->
<!DOCTYPE svg PUBLIC "-//W3C//DTD SVG 1.1//EN" "http://www.w3.org/Graphics/SVG/1.1/DTD/svg11.dtd">
<svg version="1.1" id="Layer_1" xmlns="http://www.w3.org/2000/svg" xmlns:xlink="http://www.w3.org/1999/xlink" x="0px" y="0px"
	 width="26px" height="26px" viewBox="0 0 26 26" enable-background="new 0 0 26 26" xml:space="preserve">
<path fill="#F5F9FF" d="M13,0.188c-1.001,0-1.812,0.811-1.812,1.812S11.999,3.812,13,3.812c1.002,0,1.812-0.811,1.812-1.812
	S14.002,0.188,13,0.188z M5.812,4C4.441,4,5.127,6.088,6.531,7.719l0.844,1C8.054,9.507,8.913,10,9.469,10h7.062
	c0.557,0,1.417-0.492,2.094-1.281l0.844-1C20.871,6.088,21.557,4,20.188,4H5.812z M9,11c-1.104,0-2,0.672-2,1.5S7.896,14,9,14h1.656
	C9.699,17.723,7,17.353,7,19H6c-1.104,0-2,0.672-2,1.5S4.896,22,6,22h0.25l-0.312,0.281C4.132,23.912,3.235,26,5,26h16
	c1.766,0,0.871-2.088-0.938-3.719L19.75,22H20c1.104,0,2-0.672,2-1.5S21.104,19,20,19h-1c0-1.647-2.699-1.277-3.656-5H17
	c1.104,0,2-0.672,2-1.5S18.104,11,17,11h-2h-4H9z"/>
</svg>
