<?xml version="1.0" encoding="utf-8"?>
<!-- Generator: Adobe Illustrator 16.0.0, SVG Export Plug-In . SVG Version: 6.00 Build 0)  -->
<!DOCTYPE svg PUBLIC "-//W3C//DTD SVG 1.1//EN" "http://www.w3.org/Graphics/SVG/1.1/DTD/svg11.dtd">
<svg version="1.1" id="Layer_1" xmlns="http://www.w3.org/2000/svg" xmlns:xlink="http://www.w3.org/1999/xlink" x="0px" y="0px"
	 width="50px" height="50px" viewBox="0 0 50 50" enable-background="new 0 0 50 50" xml:space="preserve">
<path fill="#F5F9FF" d="M26.75,2c-5.265,0.886-5.846,5.737-6.188,6.719c-1.412,0.833-3.368,2.524-4.781,3.938
	c-3.546,3.547-4.85,9.344-2.688,15.031c0.573,1.503,1.74,3.592,2.156,6.312h20.125c-1.372-6.368-8.812-11.265-8.812-12.125
	c0-0.794,0.416,0.216,1.594,0.125c1.164-0.092,2.385-1.844,3.469-1.844c2.325,0,1.957,2.062,3.938,2.062
	c1.338,0,1.935-1.445,2.469-2.094c0.67-0.812,2.54-0.472,1.5-2.75c-0.552-1.21-2.698-5.293-6.75-6.969
	c-1.848-0.764-0.146-2.906-6-2.906C26.277,6.722,26.368,3.911,26.75,2z M12.5,36C10.6,36,9,37.3,9,39s1.6,3,3.5,3h25
	c1.9,0,3.5-1.3,3.5-3s-1.6-3-3.5-3H12.5z M9.906,43.406c-1.377,1.711-2.349,3.658-1.781,5.125C8.337,49.082,8.941,50,10.688,50
	h28.625c1.684,0,2.289-0.901,2.5-1.438c0.575-1.455-0.393-3.426-1.75-5.156C39.295,43.776,38.428,44,37.5,44h-25
	C11.558,44,10.681,43.787,9.906,43.406z"/>
</svg>
