<?xml version="1.0" encoding="utf-8"?>
<!-- Generator: Adobe Illustrator 16.0.0, SVG Export Plug-In . SVG Version: 6.00 Build 0)  -->
<!DOCTYPE svg PUBLIC "-//W3C//DTD SVG 1.1//EN" "http://www.w3.org/Graphics/SVG/1.1/DTD/svg11.dtd">
<svg version="1.1" id="Layer_1" xmlns="http://www.w3.org/2000/svg" xmlns:xlink="http://www.w3.org/1999/xlink" x="0px" y="0px"
	 width="50px" height="50px" viewBox="0 0 50 50" enable-background="new 0 0 50 50" xml:space="preserve">
<path fill="#F5F9FF" d="M15.562,0c-0.128-0.021-0.271-0.001-0.406,0.031c-0.537,0.129-0.848,0.681-0.719,1.219
	c0.253,1.048,1.061,2.556,2.594,3.781l0.531-0.938L17.594,4l0.125-0.156c0.114-0.171,0.219-0.339,0.344-0.5
	c-1.318-1.147-1.664-2.469-1.688-2.562C16.278,0.378,15.947,0.064,15.562,0z M34.438,0c-0.384,0.064-0.716,0.378-0.812,0.781
	c-0.006,0.024-0.357,1.384-1.719,2.562c0.1,0.131,0.189,0.268,0.281,0.406c0.124,0.187,0.213,0.353,0.25,0.438l0.438,0.969
	c1.615-1.24,2.429-2.86,2.688-3.938c0.129-0.538-0.182-1.059-0.719-1.188C34.711,0,34.565-0.021,34.438,0z M25,1.906
	c-2.222,0-4.372,1.153-5.625,3.031C19.363,4.956,19.355,4.982,19.344,5h11.25c-0.023-0.052-0.03-0.107-0.062-0.156
	C29.303,3,27.234,1.906,25,1.906z M6.938,5c-0.13,0.008-0.251,0.032-0.375,0.094c-0.494,0.248-0.716,0.85-0.469,1.344l2.5,5
	c0.099,0.197,0.27,0.373,0.469,0.469l1.125,0.531c0.252-0.676,0.533-1.253,0.812-1.812l-0.75-0.375L7.906,5.562
	C7.72,5.192,7.326,4.976,6.938,5z M43.062,5c-0.389-0.025-0.783,0.192-0.969,0.562L39.75,10.25l-0.781,0.375
	c0.282,0.557,0.554,1.171,0.812,1.844l1.156-0.562c0.199-0.096,0.369-0.271,0.469-0.469l2.5-5c0.249-0.492,0.025-1.096-0.469-1.344
	C43.314,5.032,43.191,5.008,43.062,5z M17.938,7c-0.155,0.004-3.228,0.163-5.438,5.094c-0.044,0.14-0.082,0.26-0.125,0.406
	c0.615,0.381,1.05,0.588,1.062,0.594c0.066,0.031,0.129,0.08,0.188,0.125C13.635,13.225,16.234,15,25,15
	c8.768,0,11.381-1.794,11.406-1.812c0.039-0.027,0.083-0.041,0.125-0.062c0.012-0.005,0.459-0.261,1.062-0.656
	c-0.036-0.114-0.088-0.203-0.125-0.312C35.255,7.262,32.455,7.011,32.062,7H17.938z M1.125,13c-0.254-0.028-0.535,0.046-0.75,0.219
	c-0.431,0.344-0.501,0.975-0.156,1.406l4,5C4.413,19.868,4.703,20,5,20c0.133,0,0.28-0.039,0.406-0.094
	c0.062-0.026,0.881-0.415,1.812-0.844C5.759,21.668,5,24.812,5,28.312c0,3.728,0.999,6.995,2.594,9.781l-0.906,4.812L1.25,46.562
	c-0.458,0.309-0.589,0.948-0.281,1.406c0.193,0.287,0.522,0.438,0.844,0.438c0.192,0,0.359-0.071,0.531-0.188l5.812-3.875
	c0.222-0.15,0.389-0.393,0.438-0.656l0.594-3.219c4.368,5.732,11.091,8.915,14.812,9.438V20c0-0.552,0.448-1,1-1s1,0.448,1,1v29.906
	c3.557-0.517,10.383-3.508,14.812-9.312l0.594,3.094c0.05,0.264,0.215,0.508,0.438,0.656l5.812,3.875
	c0.171,0.115,0.34,0.188,0.531,0.188c0.322,0,0.652-0.15,0.844-0.438c0.309-0.458,0.178-1.098-0.281-1.406l-5.438-3.656
	l-0.906-4.719C43.982,35.41,45,32.139,45,28.312c0-3.507-0.783-6.636-2.25-9.25c0.952,0.44,1.78,0.817,1.844,0.844
	C44.721,19.961,44.867,20,45,20c0.297,0,0.588-0.132,0.781-0.375l4-5c0.346-0.431,0.275-1.061-0.156-1.406
	c-0.432-0.346-1.061-0.275-1.406,0.156l-3.531,4.406c-1.058-0.473-3.107-1.418-4.75-2.344c-0.443-0.42-0.908-0.818-1.406-1.188
	c-0.482,0.309-0.85,0.514-1,0.594C36.943,15.247,33.878,17,25,17c-8.798,0-11.872-1.701-12.5-2.125
	c-0.165-0.081-0.562-0.292-1.062-0.594c-0.473,0.35-0.92,0.729-1.344,1.125c-1.649,0.934-3.715,1.898-4.781,2.375l-3.531-4.406
	C1.609,13.16,1.379,13.028,1.125,13z M15,21c2.209,0,4,1.791,4,4s-1.791,4-4,4s-4-1.791-4-4S12.791,21,15,21z M35,21
	c2.209,0,4,1.791,4,4s-1.791,4-4,4s-4-1.791-4-4S32.791,21,35,21z M17.5,33.812c1.381,0,2.5,1.12,2.5,2.5c0,1.381-1.119,2.5-2.5,2.5
	s-2.5-1.119-2.5-2.5C15,34.933,16.119,33.812,17.5,33.812z M32.5,33.812c1.381,0,2.5,1.12,2.5,2.5c0,1.381-1.119,2.5-2.5,2.5
	s-2.5-1.119-2.5-2.5C30,34.933,31.119,33.812,32.5,33.812z"/>
</svg>
