<?xml version="1.0" encoding="utf-8"?>
<!-- Generator: Adobe Illustrator 16.0.0, SVG Export Plug-In . SVG Version: 6.00 Build 0)  -->
<!DOCTYPE svg PUBLIC "-//W3C//DTD SVG 1.1//EN" "http://www.w3.org/Graphics/SVG/1.1/DTD/svg11.dtd">
<svg version="1.1" id="Layer_1" xmlns="http://www.w3.org/2000/svg" xmlns:xlink="http://www.w3.org/1999/xlink" x="0px" y="0px"
	 width="50px" height="50px" viewBox="0 0 50 50" enable-background="new 0 0 50 50" xml:space="preserve">
<path fill="#F5F9FF" d="M8.094,0C7.021,0,1,2.61,1,7c0,2.082,1.073,4.262,2.094,5.844c0.182-0.6,0.368-1.195,0.531-1.719
	c1.336-4.494,4.957-7.992,9.5-9.281C11.672,0.923,9.783,0,8.094,0z M41.906,0c-1.691,0-3.577,0.922-5.031,1.844
	c4.427,1.287,8.047,4.768,9.5,9.25c0.166,0.535,0.348,1.137,0.531,1.75C47.928,11.261,49,9.082,49,7C49,2.61,42.98,0,41.906,0z
	 M25,1.406c-1.035,0-4.287,0.658-10.844,2.219c-4.129,0.978-7.436,4.094-8.625,8.094c-0.263,0.846-0.572,1.942-0.938,3.188
	c0.517,0.083,1.066,0.143,1.469,0.188c0.839-0.008,1.617-0.205,2.625-0.469c1.554-0.408,3.488-0.938,6.5-0.938
	c2.343,0,4.406,3.26,4.406,5.219c0,1.554-0.895,6.166-1,6.688c-0.042,0.21-0.153,0.42-0.312,0.562
	c-1.041,0.943-3.699,3.787-3.875,5.938l2.688,5.25c0.25,0.492,0.056,1.093-0.438,1.344c-0.145,0.073-0.316,0.125-0.469,0.125
	c-0.364,0-0.698-0.215-0.875-0.562l-2.812-5.5c-0.07-0.143-0.094-0.28-0.094-0.438c0-3.092,3.275-6.479,4.281-7.438
	c0.187-0.956,0.481-2.57,0.688-3.938c-1.005-0.013-2.485-0.167-3.688-0.875c-1.477-0.869-2.906-2.822-3.531-3.75
	c-0.33,0.081-0.63,0.17-0.938,0.25C8.097,16.857,7.117,17.094,6,17.094c-0.037,0-0.058,0.004-0.094,0
	c-0.146-0.016-1.025-0.105-1.875-0.25c-1.3,4.603-2.719,10.301-2.719,13.25c0,0.16,0.02,0.326,0.094,0.469
	c7.61,14.713,22.675,19.223,23.312,19.406C24.81,49.994,24.906,50,25,50c0.102,0,0.214-0.002,0.312-0.031
	c0.624-0.197,15.348-4.988,23.25-19.375c0.081-0.146,0.125-0.332,0.125-0.5c0-2.887-1.348-8.415-2.625-12.969
	c-0.768,0.099-1.723,0.02-2.219-0.031c-1.096-0.008-2.053-0.241-3.156-0.531c-0.275-0.072-0.551-0.146-0.844-0.219
	c-0.617,0.952-2.011,2.857-3.562,3.719c-1.225,0.721-2.748,0.872-3.75,0.875c0.206,1.366,0.502,2.983,0.688,3.938
	c1.006,0.959,4.281,4.346,4.281,7.438c0,0.152-0.025,0.301-0.094,0.438l-2.5,5.094c-0.173,0.354-0.536,0.562-0.906,0.562
	c-0.146,0-0.297-0.023-0.438-0.094c-0.496-0.242-0.712-0.848-0.469-1.344l2.406-4.875c-0.171-2.15-2.834-4.992-3.875-5.938
	c-0.159-0.145-0.271-0.353-0.312-0.562c-0.104-0.522-1-5.133-1-6.688c0-1.959,2.032-5.219,4.375-5.219
	c3.012,0,4.945,0.529,6.5,0.938c1.029,0.271,1.859,0.469,2.719,0.469c0.035,0,0.059-0.004,0.094,0
	c0.514,0.054,1.094,0.078,1.5,0.062c-0.396-1.358-0.78-2.559-1.062-3.469c-1.296-3.996-4.572-7.084-8.594-8.062
	C29.289,2.063,26.036,1.406,25,1.406z M17.656,4.031c1.114-0.041,2.019,0.404,2.25,1.156c0.308,1.003-0.729,2.201-2.312,2.688
	c-1.583,0.487-3.097,0.065-3.406-0.938S14.916,4.737,16.5,4.25C16.896,4.128,17.285,4.045,17.656,4.031z M31.844,4.094
	c0.518-0.055,1.125,0.005,1.719,0.188C35.146,4.768,36.184,5.997,35.875,7s-1.854,1.424-3.438,0.938s-2.621-1.716-2.312-2.719
	C30.318,4.592,30.98,4.186,31.844,4.094z M25,7c1.104,0,2,0.671,2,1.5S26.104,10,25,10c-1.104,0-2-0.671-2-1.5S23.896,7,25,7z
	 M9.844,7.812c0.342-0.042,0.665,0.023,0.906,0.219c0.644,0.522,0.486,1.732-0.312,2.719s-1.95,1.366-2.594,0.844
	C7.2,11.073,7.325,9.862,8.125,8.875C8.625,8.258,9.273,7.882,9.844,7.812z M39.781,7.875c0.639-0.067,1.432,0.322,2.031,1.062
	c0.8,0.987,0.957,2.229,0.312,2.75S40.3,11.831,39.5,10.844s-0.926-2.229-0.281-2.75C39.38,7.963,39.568,7.897,39.781,7.875z M25,14
	c0.553,0,1,0.448,1,1s-0.447,1-1,1c-0.552,0-1-0.448-1-1S24.448,14,25,14z M15.188,15.688c-1.111,0-2.046,0.075-2.875,0.188
	c0.665,0.895,1.6,1.995,2.406,2.469c0.902,0.531,2.117,0.602,2.875,0.594c0-0.011,0-0.021,0-0.031
	C17.594,17.777,16.176,15.688,15.188,15.688z M34.688,15.688c-0.988,0-2.375,2.089-2.375,3.219c0,0.01,0,0.021,0,0.031
	c0.744,0.017,2.023-0.037,2.969-0.594c0.857-0.477,1.764-1.552,2.406-2.438C36.83,15.782,35.853,15.688,34.688,15.688z
	 M44.25,19.625c0.809,0.032,1.636,0.86,1.938,2.031c0.346,1.337-0.122,2.609-1.031,2.844s-1.906-0.663-2.25-2
	c-0.346-1.337,0.091-2.609,1-2.844C44.02,19.627,44.135,19.62,44.25,19.625z M5.75,19.688c0.115-0.005,0.23,0.002,0.344,0.031
	c0.909,0.234,1.376,1.507,1.031,2.844s-1.371,2.234-2.281,2s-1.376-1.507-1.031-2.844C4.114,20.549,4.942,19.72,5.75,19.688z
	 M4.562,27.5c0.98,0.057,2.099,0.863,2.812,2.125c0.952,1.684,0.825,3.562-0.281,4.188c-1.106,0.625-2.767-0.223-3.719-1.906
	c-0.951-1.684-0.824-3.562,0.281-4.188C3.933,27.562,4.236,27.481,4.562,27.5z M45.438,27.562c0.326-0.019,0.63,0.062,0.906,0.219
	c1.105,0.625,1.232,2.473,0.281,4.156c-0.951,1.682-2.613,2.562-3.719,1.938s-1.232-2.504-0.281-4.188
	C43.338,28.426,44.457,27.619,45.438,27.562z M22,31c0.788,0,2.132,0.676,3,1.156C25.868,31.676,27.212,31,28,31
	c1.137,0,2.299,1.225,2.75,1.75c0.357,0.419,0.324,1.047-0.094,1.406c-0.188,0.162-0.426,0.25-0.656,0.25
	c-0.281,0-0.552-0.113-0.75-0.344c-0.425-0.493-1.049-1.014-1.281-1.062c-0.277,0.025-1.462,0.561-2.469,1.156
	c-0.313,0.186-0.687,0.186-1,0C23.492,33.561,22.325,33.023,22,33c-0.185,0.046-0.825,0.569-1.25,1.062
	c-0.36,0.419-0.987,0.455-1.406,0.094c-0.42-0.357-0.453-0.987-0.094-1.406C19.7,32.225,20.863,31,22,31z M25,37.188
	c0.552,0,1,0.447,1,1c0,0.365,0.133,0.655,0.406,0.906c1.209,1.109,4.552,1.09,5.625,1c0.551-0.049,1.017,0.387,1.062,0.938
	c0.047,0.549-0.356,1.017-0.906,1.062c-0.512,0.044-5.088,0.371-7.156-1.531c-0.026,0.025-0.066,0.038-0.094,0.062
	c-1.43,1.296-4.014,1.531-5.656,1.531c-0.761,0-1.308-0.047-1.469-0.062c-0.549-0.055-0.961-0.544-0.906-1.094
	c0.054-0.549,0.55-0.954,1.094-0.906c1.585,0.152,4.51,0.045,5.594-0.938C23.882,38.893,24,38.582,24,38.188
	C24,37.635,24.448,37.188,25,37.188z"/>
</svg>
