<?xml version="1.0" encoding="utf-8"?>
<!-- Generator: Adobe Illustrator 16.0.0, SVG Export Plug-In . SVG Version: 6.00 Build 0)  -->
<!DOCTYPE svg PUBLIC "-//W3C//DTD SVG 1.1//EN" "http://www.w3.org/Graphics/SVG/1.1/DTD/svg11.dtd">
<svg version="1.1" id="Layer_1" xmlns="http://www.w3.org/2000/svg" xmlns:xlink="http://www.w3.org/1999/xlink" x="0px" y="0px"
	 width="50px" height="50px" viewBox="0 0 50 50" enable-background="new 0 0 50 50" xml:space="preserve">
<path fill="#F5F9FF" d="M29.844,0c-7.699,1.16-10.599,6.313-10.719,6.531C19.043,6.678,19,6.831,19,7v4h12V1
	c0-0.291-0.123-0.56-0.344-0.75C30.436,0.059,30.13-0.044,29.844,0z M19,13c-1.159,0-2,0.841-2,2v16h16V15c0-1.159-0.841-2-2-2H19z
	 M17,33c-1.654,0-3,1.346-3,3v11c0,1.654,1.346,3,3,3h16c1.654,0,3-1.346,3-3V36c0-1.654-1.346-3-3-3H17z"/>
</svg>
