<?xml version="1.0" encoding="utf-8"?>
<!-- Generator: Adobe Illustrator 16.0.0, SVG Export Plug-In . SVG Version: 6.00 Build 0)  -->
<!DOCTYPE svg PUBLIC "-//W3C//DTD SVG 1.1//EN" "http://www.w3.org/Graphics/SVG/1.1/DTD/svg11.dtd">
<svg version="1.1" id="Layer_1" xmlns="http://www.w3.org/2000/svg" xmlns:xlink="http://www.w3.org/1999/xlink" x="0px" y="0px"
	 width="50px" height="50px" viewBox="0 0 50 50" enable-background="new 0 0 50 50" xml:space="preserve">
<path fill="#F5F9FF" d="M7.25,0.031c-2.041,0-4.188,1.114-4.188,3.156c0,2.041,1.97,3.125,4.188,3.125s4.156-1.28,4.156,2.094
	c0,4.507-6.25,11.153-6.25,19.844c0,11.491,7.186,16.719,19.844,16.719s19.844-5.228,19.844-16.719c0-8.691-6.25-15.338-6.25-19.844
	c0-3.373,1.938-2.094,4.156-2.094s4.188-1.084,4.188-3.125S44.79,0.031,42.75,0.031c-2.234,0-8.344,1.061-8.344,8.375
	c0,4.473,4.125,8.359,4.125,18.844c0,1.816-0.311,5.994-4.594,8.469c-0.38,0.221-0.805,0.404-1.25,0.594
	c-0.836,0.357-1.783,0.651-2.875,0.875C29.92,37.027,30,36.863,30,36.656V11h-2v25.656c0,0.329,0.161,0.6,0.406,0.781
	c-0.807,0.105-1.684,0.162-2.625,0.188C25.918,37.453,26,37.236,26,37V11h-2v26c0,0.236,0.082,0.453,0.219,0.625
	c-0.941-0.025-1.818-0.082-2.625-0.188C21.839,37.256,22,36.985,22,36.656V11h-2v25.656c0,0.207,0.08,0.371,0.188,0.531
	c-1.092-0.224-2.039-0.518-2.875-0.875c-0.41-0.174-0.801-0.332-1.156-0.531c-4.38-2.467-4.688-6.701-4.688-8.531
	c0-10.485,4.125-14.371,4.125-18.844C15.594,1.092,9.484,0.031,7.25,0.031z M17.125,5c0.284,1,0.469,2.127,0.469,3.406
	c0,0.204-0.018,0.394-0.031,0.594h14.875c-0.012-0.199-0.031-0.39-0.031-0.594c0-1.28,0.186-2.406,0.469-3.406H17.125z M17.25,11
	c-0.29,1.168-0.733,2.335-1.219,3.594c-0.012,0.03-0.019,0.062-0.031,0.094V33.25c0.573,0.477,1.233,0.884,2,1.219V11h-0.438H17.25z
	 M32,11v23.469c0.768-0.335,1.427-0.742,2-1.219V14.688c-0.012-0.031-0.02-0.062-0.031-0.094c-0.486-1.258-0.928-2.425-1.219-3.594
	h-0.312H32z M12.188,44.406C10.957,44.667,10,45.741,10,47v3h30v-3c0-1.282-0.941-2.34-2.188-2.594C34.416,46.115,30.134,47,25,47
	C19.867,47,15.583,46.114,12.188,44.406z"/>
</svg>
