<?xml version="1.0" encoding="utf-8"?>
<!-- Generator: Adobe Illustrator 16.0.0, SVG Export Plug-In . SVG Version: 6.00 Build 0)  -->
<!DOCTYPE svg PUBLIC "-//W3C//DTD SVG 1.1//EN" "http://www.w3.org/Graphics/SVG/1.1/DTD/svg11.dtd">
<svg version="1.1" id="Layer_1" xmlns="http://www.w3.org/2000/svg" xmlns:xlink="http://www.w3.org/1999/xlink" x="0px" y="0px"
	 width="26px" height="26px" viewBox="0 0 26 26" enable-background="new 0 0 26 26" xml:space="preserve">
<path fill="#F5F9FF" d="M11,11c-1.08,0-1.715,1-3,3h6C12.715,12,12.08,11,11,11z M0.969,14c-0.171,0.002-0.316,0.035-0.469,0.125
	C0.196,14.305,0,14.646,0,15c0,5.365,4.829,7.098,6.906,7.594c0.044,0.011,0.286,0.077,0.5,0.125
	c0.465,0.373,0.976,0.656,1.531,0.875C7.773,24.166,7,25.15,7,26h8c0-0.796-0.677-1.697-1.719-2.281
	c2.59-0.751,3.03-2.894,7.719-4.625C25.48,17.438,26,15,26,15h-2.031c-0.87,1.646-3.635,2.125-4.812,2.125
	c-2.878,0-3.872-2.125-5.031-2.125H8.156C7.174,15.262,6,16,6,16c-0.685,0-2.891-0.973-4.531-1.875
	C1.313,14.04,1.14,13.998,0.969,14z M2.281,16.781C3.143,17.19,4.148,17.619,5,17.844c0.026,0.755,0.187,1.46,0.438,2.125
	C4.143,19.367,2.839,18.401,2.281,16.781z"/>
</svg>
