<?xml version="1.0" encoding="utf-8"?>
<!-- Generator: Adobe Illustrator 16.0.0, SVG Export Plug-In . SVG Version: 6.00 Build 0)  -->
<!DOCTYPE svg PUBLIC "-//W3C//DTD SVG 1.1//EN" "http://www.w3.org/Graphics/SVG/1.1/DTD/svg11.dtd">
<svg version="1.1" id="Layer_1" xmlns="http://www.w3.org/2000/svg" xmlns:xlink="http://www.w3.org/1999/xlink" x="0px" y="0px"
	 width="50px" height="50px" viewBox="0 0 50 50" enable-background="new 0 0 50 50" xml:space="preserve">
<path fill="#F5F9FF" d="M25,0.008C13.425,0.008,4.008,9.425,4.008,21v28c0,0.548,0.444,0.992,0.992,0.992h10
	c0.548,0,0.992-0.444,0.992-0.992V21c0-4.967,4.041-9.008,9.008-9.008s9.008,4.041,9.008,9.008v28c0,0.548,0.444,0.992,0.992,0.992
	h10c0.548,0,0.992-0.444,0.992-0.992V21C45.992,9.425,36.575,0.008,25,0.008z M5.992,48.008v-5.016h8.016v5.016H5.992z
	 M35.992,48.008v-5.016h8.016v5.016H35.992z"/>
</svg>
