<?xml version="1.0" encoding="utf-8"?>
<!-- Generator: Adobe Illustrator 16.0.0, SVG Export Plug-In . SVG Version: 6.00 Build 0)  -->
<!DOCTYPE svg PUBLIC "-//W3C//DTD SVG 1.1//EN" "http://www.w3.org/Graphics/SVG/1.1/DTD/svg11.dtd">
<svg version="1.1" id="Layer_1" xmlns="http://www.w3.org/2000/svg" xmlns:xlink="http://www.w3.org/1999/xlink" x="0px" y="0px"
	 width="50px" height="50px" viewBox="0 0 50 50" enable-background="new 0 0 50 50" xml:space="preserve">
<path fill="#F5F9FF" d="M19,1c-1.103,0-2,0.897-2,2v2c0,1.103,0.897,2,2,2h12c1.104,0,2-0.897,2-2V3c0-1.103-0.896-2-2-2H19z
	 M18.156,8.906C15.916,13.073,14,20.492,14,22.812V45c0,2.757,2.243,5,5,5h12c2.757,0,5-2.243,5-5V22.812
	c0-2.319-1.905-9.738-4.156-13.906C31.576,8.963,31.285,9,31,9H19C18.707,9,18.431,8.966,18.156,8.906z"/>
</svg>
