<?xml version="1.0" encoding="utf-8"?>
<!-- Generator: Adobe Illustrator 16.0.0, SVG Export Plug-In . SVG Version: 6.00 Build 0)  -->
<!DOCTYPE svg PUBLIC "-//W3C//DTD SVG 1.1//EN" "http://www.w3.org/Graphics/SVG/1.1/DTD/svg11.dtd">
<svg version="1.1" id="Layer_1" xmlns="http://www.w3.org/2000/svg" xmlns:xlink="http://www.w3.org/1999/xlink" x="0px" y="0px"
	 width="26px" height="26px" viewBox="0 0 26 26" enable-background="new 0 0 26 26" xml:space="preserve">
<path fill="#F5F9FF" d="M25.875,0c-0.775,0.14-5.481,2.856-7.031,4.406L5.625,17.625c-0.016-0.004-0.015-0.027-0.031-0.031
	l-2.25-0.5c-0.569-0.126-1.041-0.043-1.469,0.438l-1.75,2c-0.291,0.336-0.1,0.712,0.406,0.844l2.188,0.562
	c0.106,0.034,0.233,0.018,0.344,0l2,1.969c-0.023,0.121-0.037,0.26,0,0.375l0.562,2.188c0.134,0.507,0.508,0.697,0.844,0.406l2-1.75
	c0.48-0.43,0.562-0.9,0.438-1.469l-0.5-2.25c-0.002-0.012,0.002-0.021,0-0.031L21.594,7.156c1.654-1.654,4.607-6.892,4.375-7.125
	C25.954,0.017,25.927-0.009,25.875,0z"/>
</svg>
