<?xml version="1.0" encoding="utf-8"?>
<!-- Generator: Adobe Illustrator 16.0.0, SVG Export Plug-In . SVG Version: 6.00 Build 0)  -->
<!DOCTYPE svg PUBLIC "-//W3C//DTD SVG 1.1//EN" "http://www.w3.org/Graphics/SVG/1.1/DTD/svg11.dtd">
<svg version="1.1" id="Layer_1" xmlns="http://www.w3.org/2000/svg" xmlns:xlink="http://www.w3.org/1999/xlink" x="0px" y="0px"
	 width="24px" height="24px" viewBox="0 0 24 24" enable-background="new 0 0 24 24" xml:space="preserve">
<path fill="#F5F9FF" d="M14.312,0C7.85,0,6.5,4.22,6.5,7.75c0,0.638,0.117,2.81,0.156,3.656c-0.177-0.11-0.361-0.197-0.531-0.312
	c-0.226-0.153-0.459-0.29-0.688-0.406c-0.216-0.111-0.411-0.205-0.625-0.281c-0.01-0.003-0.021,0.003-0.031,0
	c-0.071-0.025-0.148-0.042-0.219-0.062c-0.133-0.04-0.275-0.069-0.406-0.094c-0.195-0.038-0.376-0.059-0.562-0.062
	c-0.457-0.01-0.877,0.073-1.25,0.281c-0.34,0.189-0.643,0.485-0.875,0.875c-1.224,2.057,1.125,4.188,1.125,4.188
	c0.554,0.417,1.042,0.813,1.5,1.188s0.888,0.732,1.25,1.062c0.048,0.043,0.11,0.082,0.156,0.125
	c0.294,0.273,0.556,0.539,0.781,0.781c0.152,0.163,0.286,0.32,0.406,0.469c0.081,0.102,0.184,0.219,0.25,0.312
	c0.291,0.413,0.438,0.784,0.438,1.062v1.625c0,1.214,2.714,1.844,6.438,1.844c3.723,0,6.5-0.6,6.5-1.812v-1.656
	c0-0.995,0.426-2.324,0.781-3.844c0.499-2.141,1.062-4.569,1.062-7.219C22.156,2.472,17.92,0,14.312,0z M18.5,19.812
	c-0.026,0.238-0.031,0.486-0.031,0.719v1.094c-0.579,0.223-1.999,0.531-4.656,0.531c-2.632,0-4.026-0.336-4.594-0.562v-1.062
	c0-0.172,0.003-0.349-0.031-0.531C12.486,20.528,16.279,20.206,18.5,19.812z"/>
</svg>
