<?xml version="1.0" encoding="utf-8"?>
<!-- Generator: Adobe Illustrator 16.0.0, SVG Export Plug-In . SVG Version: 6.00 Build 0)  -->
<!DOCTYPE svg PUBLIC "-//W3C//DTD SVG 1.1//EN" "http://www.w3.org/Graphics/SVG/1.1/DTD/svg11.dtd">
<svg version="1.1" id="Layer_1" xmlns="http://www.w3.org/2000/svg" xmlns:xlink="http://www.w3.org/1999/xlink" x="0px" y="0px"
	 width="200px" height="200px" viewBox="0 0 200 200" enable-background="new 0 0 200 200" xml:space="preserve">
<path fill="#F5F9FF" d="M106.771,86.719c-6.859-0.142-6.778,9.231-0.262,10.156c4.863,0.689,15.975,2.486,18.49,2.865
	c-0.002,0.083,0,0.177,0,0.26c-33.592,0-50,25-50,25s0.329-4.68-7.812-4.688c-24.167,0-35.681-9.3-36.198,5.209
	c-23.067,0-29.292,13.789-25,18.488c1.019,0,1.887-0.02,2.864,0C3.362,149.953,0,157.938,0,166.666C0,185.075,14.925,200,33.333,200
	c16.282,0,29.637-11.648,32.552-27.084h1.302c3.694,1.312,7.929,2.084,13.021,2.084h25c7.616,0,18.262-2.765,21.354-16.406
	l6.771-36.197l11.457,19.27c-7,6.111-11.457,14.979-11.457,25c0,18.409,14.924,33.334,33.332,33.334
	C185.075,200,200,185.075,200,166.666c0-18.408-14.925-33.332-33.334-33.332c-3.843,0-7.501,0.885-10.938,2.082l-13.541-23.176
	c1.1,0.11,2.233,0.26,3.385,0.26c10.551,0,10.678,0.008,10.678-12.5c0-12.492-0.219-12.5-10.678-12.5
	c-7.554,0-14.152,2.543-17.707,6.25C125.295,92.799,109.094,86.765,106.771,86.719z M166.666,145.834
	c11.484,0,20.834,9.35,20.834,20.832c0,11.484-9.35,20.834-20.834,20.834c-11.482,0-20.832-9.35-20.832-20.834
	c0-5.396,2.086-10.356,5.469-14.062l9.895,17.188c1.727,3.021,5.574,4.07,8.594,2.344c3.021-1.725,4.07-5.572,2.344-8.594
	l-9.895-17.188C163.672,146.041,165.143,145.834,166.666,145.834z M28.906,146.354c0.083,0.02,0.178-0.018,0.26,0
	c3.996,0.902,7.298,2.168,10.156,3.387l-9.635,11.457c-2.98,1.778-3.956,5.636-2.178,8.616c0.832,1.396,2.173,2.415,3.74,2.843
	c0.758,0.233,1.553,0.322,2.344,0.26h19.531c-2.68,8.412-10.506,14.584-19.792,14.584c-11.483,0-20.833-9.35-20.833-20.834
	C12.5,156.708,19.549,148.396,28.906,146.354z M50,156.25c1.312,1.262,2.19,2.654,2.865,3.646c0.211,0.311,0.099,0.249,0.26,0.52
	h-6.51L50,156.25z"/>
</svg>
