<?xml version="1.0" encoding="utf-8"?>
<!-- Generator: Adobe Illustrator 16.0.0, SVG Export Plug-In . SVG Version: 6.00 Build 0)  -->
<!DOCTYPE svg PUBLIC "-//W3C//DTD SVG 1.1//EN" "http://www.w3.org/Graphics/SVG/1.1/DTD/svg11.dtd">
<svg version="1.1" id="Layer_1" xmlns="http://www.w3.org/2000/svg" xmlns:xlink="http://www.w3.org/1999/xlink" x="0px" y="0px"
	 width="26px" height="26px" viewBox="0 0 26 26" enable-background="new 0 0 26 26" xml:space="preserve">
<path fill="#F5F9FF" d="M14.094,0.125c-0.463,0-0.926,0.019-1.406,0.062C5.011,0.882,0.062,7.256,0.062,10.531
	c0,3.616,5.619,3.073,12.781,2.625c8.539-0.533,13.062-1.728,13.062-5.344C25.906,4.747,21.029,0.121,14.094,0.125z M11.312,1.719
	c0,0-5.638,2.438-6.875,9.281c-1.088,0-2.094-0.188-2.094-0.188C4.262,3.959,11.312,1.719,11.312,1.719z M17.156,14.406
	c-1.363,0.154-2.791,0.255-4.219,0.344l-1,0.062c-0.526,0.033-1.053,0.062-1.562,0.094c-0.154,2.516-0.728,7.012-2.812,9.938
	C7.027,25.594,7.264,26,7.906,26h8.656c0.521,0,0.663-0.178,0.781-0.594C17.451,25.025,18.736,20.856,17.156,14.406z"/>
</svg>
