<?xml version="1.0" encoding="utf-8"?>
<!-- Generator: Adobe Illustrator 16.0.0, SVG Export Plug-In . SVG Version: 6.00 Build 0)  -->
<!DOCTYPE svg PUBLIC "-//W3C//DTD SVG 1.1//EN" "http://www.w3.org/Graphics/SVG/1.1/DTD/svg11.dtd">
<svg version="1.1" id="Layer_1" xmlns="http://www.w3.org/2000/svg" xmlns:xlink="http://www.w3.org/1999/xlink" x="0px" y="0px"
	 width="200px" height="200px" viewBox="0 0 200 200" enable-background="new 0 0 200 200" xml:space="preserve">
<path fill="#F5F9FF" d="M99.219,16.406c-0.353,0.064-0.7,0.151-1.042,0.26c-3.88,0.869-6.606,4.358-6.511,8.333v41.667
	c-0.065,4.603,3.613,8.386,8.216,8.451c4.602,0.065,8.385-3.613,8.452-8.215c0-0.079,0-0.157,0-0.236V25
	c0.163-4.6-3.434-8.462-8.033-8.625C99.94,16.361,99.579,16.372,99.219,16.406z M174.219,16.667l-57.553,6.771V37.5l59.115-4.167
	c4.166,0,8.385-4.115,7.553-9.115C182.5,20.052,179.219,16.667,174.219,16.667z M74.219,19.792
	c-4.396,0.412-7.709,4.181-7.552,8.594v38.281c-0.065,4.603,3.613,8.386,8.216,8.451c4.602,0.065,8.386-3.613,8.451-8.215
	c0.001-0.079,0.001-0.157,0-0.236V28.385c0.143-4.601-3.47-8.446-8.071-8.589c-0.087-0.003-0.175-0.004-0.263-0.004
	C74.74,19.779,74.479,19.779,74.219,19.792z M48.958,23.177c-4.293,0.538-7.46,4.271-7.292,8.594v0.521l-25,2.604l0.781,10.156
	l24.219-2.083v9.896l-25,0.521v9.896l25,0.521V75c-0.012,0.26-0.012,0.521,0,0.781v32.553h16.667V76.302
	c0.034-0.434,0.034-0.869,0-1.302V64.062v-5.729V41.667v-9.896c0.021-0.347,0.021-0.695,0-1.042
	c-0.394-4.586-4.431-7.984-9.017-7.59C49.197,23.149,49.078,23.162,48.958,23.177z M175,50l-58.334,0.781v14.323L175,66.667
	c4.166,0,8.334-3.333,8.334-8.333S179.166,50,175,50z M16.667,116.666v16.668c0,27.5,22.5,50,50,50h66.667c27.5,0,50-22.5,50-50
	v-16.668H16.667z"/>
</svg>
