<?xml version="1.0" encoding="utf-8"?>
<!-- Generator: Adobe Illustrator 16.0.0, SVG Export Plug-In . SVG Version: 6.00 Build 0)  -->
<!DOCTYPE svg PUBLIC "-//W3C//DTD SVG 1.1//EN" "http://www.w3.org/Graphics/SVG/1.1/DTD/svg11.dtd">
<svg version="1.1" id="Layer_1" xmlns="http://www.w3.org/2000/svg" xmlns:xlink="http://www.w3.org/1999/xlink" x="0px" y="0px"
	 width="50px" height="50px" viewBox="0 0 50 50" enable-background="new 0 0 50 50" xml:space="preserve">
<path fill="#F5F9FF" d="M42,3.031c-0.251-0.019-0.541,0.021-0.844,0.125c-0.873,0.3-1.673,1.559-0.719,2.688
	c0.578,0.687,2.114,3.354,0.562,5.812c0.219,0.219,0.483,0.512,0.812,0.875c3.016-3.167,2.082-7.469,1.688-8.375
	C43.27,3.63,42.754,3.086,42,3.031z M25.156,5.688c-3.145,0-5.983,1.239-8.344,3.656c-0.134,0.123-0.571,0.607-0.594,1.625
	c-0.068,2.936,3.408,7.971,10.031,14.594c6.555,6.555,11.581,10.03,14.531,10.031c1.076,0,1.58-0.441,1.688-0.562
	c2.497-2.586,3.717-5.566,3.625-8.844c-0.2-7.209-6.676-13.289-6.906-13.5C38.916,12.401,32.452,5.688,25.156,5.688z M14.625,13.312
	c-7.169,6.35-13.73,16.06-8.719,28.344l0.031,0.031C5.874,41.83,5.733,42.08,5.625,42.25c-0.53,0.835-1.541,2.406-0.312,4.062
	c0.522,0.704,1.238,1.062,2.062,1.062c0.703,0,1.38-0.266,1.969-0.5c0.415-0.165,0.848-0.342,1.188-0.312
	c2.382,0.716,4.681,1.062,7,1.062c7.442,0,14.357-3.567,20.594-10.562C34.762,35.852,30.386,32.542,24.844,27
	C19.094,21.25,15.717,16.726,14.625,13.312z"/>
</svg>
