<?xml version="1.0" encoding="utf-8"?>
<!-- Generator: Adobe Illustrator 16.0.0, SVG Export Plug-In . SVG Version: 6.00 Build 0)  -->
<!DOCTYPE svg PUBLIC "-//W3C//DTD SVG 1.1//EN" "http://www.w3.org/Graphics/SVG/1.1/DTD/svg11.dtd">
<svg version="1.1" id="Layer_1" xmlns="http://www.w3.org/2000/svg" xmlns:xlink="http://www.w3.org/1999/xlink" x="0px" y="0px"
	 width="200px" height="200px" viewBox="0 0 200 200" enable-background="new 0 0 200 200" xml:space="preserve">
<path fill="#F5F9FF" d="M197.238,161.9c-2.369,0-4.191,16.038-22.792,16.038c-5.854,0-16.577-5.062-24.946-14.746
	c43.431-4.631,50.5-29.677,50.5-47.808c0-8.547-3.408-18.008-12.446-21.554c-5.831-2.292-13.062-0.192-16.415,5.092
	c-0.6,0.954-1.484,2.739-1.315,3.847c0.169,1.115,1.2,2.146,2.308,1.977c0.77-0.115,1.346-0.723,1.946-1.207
	c3.308-2.701,8.546-2.139,11.769,0.661c3.224,2.8,2.831,7.153,2.547,11.415c-0.692,10.6-10.23,18.469-21.223,20.377
	c-14.416,2.5-27.047-6.308-23.578-24.961c3.447-18.478,17.947-31.87,17.947-56.162C161.539,15.846,133.984,0,100,0
	S38.461,15.708,38.461,52.5c0,25.223,15.838,41.308,19,59.969c3.616,21.354-16.169,24.369-24.638,23.523
	c-11.108-1.107-20.531-9.77-21.223-20.377c-0.285-4.262-0.677-8.623,2.546-11.415s8.462-3.354,11.77-0.661
	c0.6,0.492,1.185,1.092,1.946,1.207c1.116,0.17,2.139-0.869,2.308-1.977c0.169-1.115-0.716-2.9-1.315-3.847
	c-3.354-5.292-10.585-7.384-16.416-5.092C3.408,97.377,0,106.838,0,115.385c0,18.131,7.069,43.177,50.5,47.8
	c-8.369,9.692-19.092,14.746-24.946,14.746c-18.592,0-20.423-16.038-22.792-16.038c-2.37,0-2.523,2.762-2.523,4.568
	c0,14.424,6.846,24.555,27.6,25.839c24.27,1.5,45.992-13.454,56.115-27.062c4.846-6.508,9.062-11.531,16.039-12
	c6.984,0.469,11.215,5.223,16.062,11.73c10.123,13.608,31.831,28.831,56.093,27.324c20.754-1.285,27.6-11.416,27.6-25.839
	C199.762,164.662,199.607,161.9,197.238,161.9z M84.615,76.923c-4.246,0-7.692-5.169-7.692-11.538s3.446-11.539,7.692-11.539
	s7.692,5.169,7.692,11.539S88.861,76.923,84.615,76.923z M115.385,76.923c-4.246,0-7.692-5.169-7.692-11.538
	s3.446-11.539,7.692-11.539s7.692,5.169,7.692,11.539S119.631,76.923,115.385,76.923z"/>
</svg>
