<?xml version="1.0" encoding="utf-8"?>
<!-- Generator: Adobe Illustrator 16.0.0, SVG Export Plug-In . SVG Version: 6.00 Build 0)  -->
<!DOCTYPE svg PUBLIC "-//W3C//DTD SVG 1.1//EN" "http://www.w3.org/Graphics/SVG/1.1/DTD/svg11.dtd">
<svg version="1.1" id="Layer_1" xmlns="http://www.w3.org/2000/svg" xmlns:xlink="http://www.w3.org/1999/xlink" x="0px" y="0px"
	 width="50px" height="50px" viewBox="0 0 50 50" enable-background="new 0 0 50 50" xml:space="preserve">
<path fill="#F5F9FF" d="M22.656,3c-0.256,0-0.523,0.086-0.719,0.281L11.375,13.875C13.789,15.74,19.266,17,26,17c1.66,0,3,1.34,3,3
	c0,0.83-0.33,1.58-0.875,2.125C27.582,22.667,26.828,23,26,23c-1.322,0-2.413-0.875-2.812-2.062C24.29,20.993,25.292,21,26,21
	c0.279,0,0.535-0.098,0.719-0.281S27,20.278,27,20c0-0.559-0.441-1-1-1c-0.916,0-1.847-0.045-2.781-0.094
	c-0.083-0.004-0.167,0.005-0.25,0c-0.179-0.01-0.353-0.05-0.531-0.062c-0.839-0.057-1.675-0.119-2.5-0.219
	c-0.208-0.025-0.419-0.034-0.625-0.062c-0.136-0.019-0.271-0.042-0.406-0.062c-0.354-0.052-0.715-0.126-1.062-0.188
	c-0.146-0.025-0.293-0.035-0.438-0.062c-0.14-0.026-0.268-0.066-0.406-0.094c-0.473-0.095-0.924-0.199-1.375-0.312
	c-0.581-0.146-1.151-0.292-1.688-0.469c-0.472-0.156-0.914-0.35-1.344-0.531c-0.118-0.05-0.229-0.104-0.344-0.156
	c-0.417-0.188-0.821-0.379-1.188-0.594c-0.208-0.123-0.403-0.244-0.594-0.375c-0.147-0.102-0.301-0.206-0.438-0.312
	c-0.012-0.009-0.019-0.021-0.031-0.031c-0.028-0.022-0.066-0.04-0.094-0.062c-1.02-0.838-1.677-1.848-1.844-3.031
	C8.036,12.086,8,11.893,8,11.688c0-2.49,3.041-4.353,7.938-5.188l2.344-2.344C10.619,4.82,6,7.565,6,11.688
	c0,2.145,0.947,3.819,2.438,5.094l-4.25,4.281C2.774,22.476,2,24.345,2,26.344c0,1.998,0.773,3.867,2.188,5.281l11.188,11.188
	C16.788,44.226,18.657,45,20.656,45c2,0,3.868-0.773,5.281-2.188l15.375-15.344c0.711,0.457,2.406,2.256,2.406,9.062
	c0,3.566,1.119,5.844,2.844,5.844c0.785,0,1.891-0.502,2.625-2.906C49.737,37.671,50,35.14,50,31.938
	c0-13.625-13.228-16.816-15.188-17.219L23.375,3.281C23.18,3.086,22.912,3,22.656,3z M37.75,17.656
	C41.873,19.283,48,23.168,48,31.938c0,5.868-0.988,7.993-1.438,8.406c-0.288-0.3-0.844-1.47-0.844-3.812
	c0-6.713-1.631-9.416-2.969-10.5l0.969-0.969c0.391-0.391,0.391-1.047,0-1.438L37.75,17.656z"/>
</svg>
