<?xml version="1.0" encoding="utf-8"?>
<!-- Generator: Adobe Illustrator 16.0.0, SVG Export Plug-In . SVG Version: 6.00 Build 0)  -->
<!DOCTYPE svg PUBLIC "-//W3C//DTD SVG 1.1//EN" "http://www.w3.org/Graphics/SVG/1.1/DTD/svg11.dtd">
<svg version="1.1" id="Layer_1" xmlns="http://www.w3.org/2000/svg" xmlns:xlink="http://www.w3.org/1999/xlink" x="0px" y="0px"
	 width="200px" height="200px" viewBox="0 0 200 200" enable-background="new 0 0 200 200" xml:space="preserve">
<path fill="#F5F9FF" d="M35.096,7.452c-6.445-0.541-13.221,2.884-18.99,8.654c-9.231,9.23-12.356,20.817-3.125,30.048
	c1.846,1.846,4.201,3.17,6.49,4.327C7.292,67.278,0,87.316,0,107.692C0,141.41,20.61,164.262,49.519,175v-0.24
	c6.708,2.683,12.868,6.842,18.51,11.779c8.914,8.021,20.092,12.74,32.692,12.74c12.967,0,23.881-5.644,32.452-12.5
	c0.082-0.078,0.162-0.159,0.241-0.24c5.914-5.176,12.273-9.812,18.028-11.539c0.244-0.068,0.485-0.148,0.722-0.24
	C179.543,163.974,200,141.41,200,107.692c0-20.268-7.17-40.228-19.23-56.971c2.21-1.283,4.458-2.776,6.25-4.567
	c9.23-9.231,6.105-20.865-3.125-29.327c-9.23-9.231-20.817-12.116-30.049-2.885c-2.045,2.046-3.909,4.526-5.288,7.211
	C134.209,12.728,117.631,7.692,100,7.692s-34.209,5.035-48.558,13.461c-1.356-3.025-3.019-5.903-5.289-8.173
	C42.692,9.519,38.963,7.776,35.096,7.452z M100,23.077c46.107,0,84.615,43.077,84.615,84.615c0,27.528-14.535,43.39-37.5,52.644
	c-0.244,0.1-0.475,0.145-0.721,0.241c-9.161,2.938-16.66,8.79-22.837,14.183c-0.091,0.072-0.149,0.168-0.24,0.24
	c-6.741,5.33-14.14,8.895-22.597,8.895c-8.938,0-16.125-3.07-22.596-8.895c-6.666-5.833-14.399-10.952-23.077-14.423
	c-24.937-9.263-39.663-25.064-39.663-52.885C15.385,66.154,53.893,23.077,100,23.077z M74.519,84.856
	c-5.192,0-10.769,1.298-15.384,3.605c-13.846,6.923-19.087,23.029-6.01,35.336s28.414,7.837,35.336-6.009
	c4.616-10,5.433-23.222-0.721-28.606C84.664,86.106,79.711,84.856,74.519,84.856z M127.404,85.817
	c-6.154-0.192-11.731,1.394-14.424,4.086c-5.385,5.385-6.875,23.221,3.125,32.452c10,10,24.76,10.817,32.452,3.125
	c7.692-7.691,6.875-22.451-3.125-32.452C140.433,88.029,133.558,86.01,127.404,85.817z M76.923,92.308
	c4.616,0,7.692,3.077,7.692,7.692s-3.077,7.692-7.692,7.692c-4.615,0-7.692-3.077-7.692-7.692S72.308,92.308,76.923,92.308z
	 M123.077,92.308c4.615,0,7.692,3.077,7.692,7.692s-3.077,7.692-7.692,7.692c-4.616,0-7.692-3.077-7.692-7.692
	S118.461,92.308,123.077,92.308z M87.26,145.914c-1.663,0.135-2.645,0.913-2.645,2.644c0,4.615,6.923,13.702,15.385,13.702
	c8.461,0,15.385-9.087,15.385-13.702c0-3.847-6.924-1.683-15.385-1.683C94.711,146.875,90.032,145.688,87.26,145.914z"/>
</svg>
