<?xml version="1.0" encoding="utf-8"?>
<!-- Generator: Adobe Illustrator 16.0.0, SVG Export Plug-In . SVG Version: 6.00 Build 0)  -->
<!DOCTYPE svg PUBLIC "-//W3C//DTD SVG 1.1//EN" "http://www.w3.org/Graphics/SVG/1.1/DTD/svg11.dtd">
<svg version="1.1" id="Layer_1" xmlns="http://www.w3.org/2000/svg" xmlns:xlink="http://www.w3.org/1999/xlink" x="0px" y="0px"
	 width="50px" height="50px" viewBox="0 0 50 50" enable-background="new 0 0 50 50" xml:space="preserve">
<path fill="#F5F9FF" d="M25,8c-3.866,0-7,3.134-7,7s3.134,7,7,7s7-3.134,7-7S28.866,8,25,8z M25,22h-4.5c-1.9,0-3.5,1.3-3.5,3
	s1.6,3,3.5,3h9c1.9,0,3.5-1.3,3.5-3s-1.6-3-3.5-3H25z M17.938,29.406c-0.396,0.557-0.818,1.08-1.25,1.531
	C15.233,32.453,13,33.781,13,36h-0.5C10.6,36,9,37.3,9,39s1.6,3,3.5,3h25c1.9,0,3.5-1.3,3.5-3s-1.6-3-3.5-3H37
	c0-2.453-2.406-3.531-4.156-5.562c-0.169-0.195-0.469-0.59-0.781-1.031C31.297,29.774,30.425,30,29.5,30h-9
	C19.574,30,18.704,29.775,17.938,29.406z M9.906,43.406c-1.377,1.711-2.349,3.658-1.781,5.125C8.337,49.082,8.941,50,10.688,50
	h28.625c1.684,0,2.289-0.901,2.5-1.438c0.575-1.455-0.393-3.426-1.75-5.156C39.295,43.776,38.428,44,37.5,44h-25
	C11.558,44,10.681,43.787,9.906,43.406z"/>
</svg>
