<?xml version="1.0" encoding="utf-8"?>
<!-- Generator: Adobe Illustrator 16.0.0, SVG Export Plug-In . SVG Version: 6.00 Build 0)  -->
<!DOCTYPE svg PUBLIC "-//W3C//DTD SVG 1.1//EN" "http://www.w3.org/Graphics/SVG/1.1/DTD/svg11.dtd">
<svg version="1.1" id="Layer_1" xmlns="http://www.w3.org/2000/svg" xmlns:xlink="http://www.w3.org/1999/xlink" x="0px" y="0px"
	 width="50px" height="50px" viewBox="0 0 50 50" enable-background="new 0 0 50 50" xml:space="preserve">
<path fill="#F5F9FF" d="M35.562,0.031C30.436,1.039,27.587,3.747,26,6.594c0.881,1.604,1.562,3.522,1.812,5.719
	c1.641,0.388,2.909,1.106,3.875,2.031c1.162-0.606,2.121-1.372,2.906-2.312c3.061-3.667,2.41-8.916,2.125-11.156
	c-0.034-0.269-0.186-0.498-0.406-0.656S35.828-0.024,35.562,0.031z M18.812,2.094C18.581,2.141,18.36,2.288,18.219,2.5
	c-0.283,0.425-0.144,0.998,0.281,1.281c0.051,0.033,4.429,3.049,5.375,8.281C24.233,12.035,24.611,12,25,12
	c0.266,0,0.499,0.018,0.75,0.031c-0.945-6.202-6.012-9.654-6.25-9.812C19.288,2.078,19.044,2.047,18.812,2.094z M25,14
	c-5.616,0-6.858,3.5-8.188,7.219c-0.355,0.993-0.722,2.024-1.188,3.062c-0.721,1.605-1.681,2.732-2.688,3.906
	C11.004,30.441,9,32.764,9,38.375C9,45.764,14.832,50,25,50s16-4.236,16-11.625c0-5.611-2.004-7.933-3.938-10.188
	c-1.007-1.175-1.967-2.301-2.688-3.906c-0.466-1.037-0.832-2.069-1.188-3.062C31.858,17.5,30.616,14,25,14z"/>
</svg>
