<svg xmlns="http://www.w3.org/2000/svg" width="50" height="50" viewBox="0 0 50 50">    <path d="M 35.5625 0.03125 C 30.4355 1.03925 27.587 3.74675 26 6.59375 C 26.881 8.19775 27.5615 10.1155 27.8125 12.3125 C 29.4525 12.7005 30.7215 13.41875 31.6875 14.34375 C 32.8495 13.73775 33.80875 12.97225 34.59375 12.03125 C 37.65475 8.36425 37.00375 3.115 36.71875 0.875 C 36.68475 0.606 36.5325 0.37675 36.3125 0.21875 C 36.0925 0.06075 35.8285 -0.02375 35.5625 0.03125 z M 18.8125 2.09375 C 18.5805 2.14075 18.36025 2.2875 18.21875 2.5 C 17.93575 2.925 18.075 3.49825 18.5 3.78125 C 18.551 3.81425 22.929 6.8305 23.875 12.0625 C 24.233 12.0345 24.611 12 25 12 C 25.266 12 25.499 12.01825 25.75 12.03125 C 24.805 5.82925 19.738 2.37675 19.5 2.21875 C 19.2875 2.07825 19.0445 2.04675 18.8125 2.09375 z M 25 14 C 19.384 14 18.1415 17.49975 16.8125 21.21875 C 16.4575 22.21175 16.091 23.24325 15.625 24.28125 C 14.904 25.88725 13.9445 27.0135 12.9375 28.1875 C 11.0045 30.4415 9 32.764 9 38.375 C 9 45.763 14.832 50 25 50 C 35.168 50 41 45.763 41 38.375 C 41 32.763 38.9955 30.4425 37.0625 28.1875 C 36.0555 27.0125 35.096 25.88725 34.375 24.28125 C 33.909 23.24425 33.5425 22.21175 33.1875 21.21875 C 31.8585 17.49975 30.616 14 25 14 z"></path></svg>