<?xml version="1.0" encoding="utf-8"?>
<!-- Generator: Adobe Illustrator 16.0.0, SVG Export Plug-In . SVG Version: 6.00 Build 0)  -->
<!DOCTYPE svg PUBLIC "-//W3C//DTD SVG 1.1//EN" "http://www.w3.org/Graphics/SVG/1.1/DTD/svg11.dtd">
<svg version="1.1" id="Layer_1" xmlns="http://www.w3.org/2000/svg" xmlns:xlink="http://www.w3.org/1999/xlink" x="0px" y="0px"
	 width="50px" height="50px" viewBox="0 0 50 50" enable-background="new 0 0 50 50" xml:space="preserve">
<path fill="#F5F9FF" d="M8.188,0C4.056,0,0.614,2.068,0.469,2.156c-0.472,0.286-0.6,0.902-0.312,1.375
	C0.442,4.003,1.028,4.128,1.5,3.844c0.006-0.004,0.025,0.003,0.031,0c0.032-0.02,0.23-0.137,0.594-0.312
	C3.213,2.99,4.609,2.492,5.844,2.656c0.321,0.042,0.542,0.334,0.5,0.656c-0.041,0.32-0.338,0.541-0.656,0.5
	c-0.186-0.025-0.361-0.017-0.562,0c-0.012,0.001-0.05-0.002-0.062,0C5.008,3.818,4.991,3.837,4.938,3.844
	C4.801,3.862,4.639,3.876,4.5,3.906C1.911,4.443,0.275,6.193,0.188,6.281c-0.39,0.39-0.389,1.046,0,1.438
	C0.382,7.915,0.65,8,0.906,8c0.255,0,0.493-0.087,0.688-0.281c0.101-0.1,0.285-0.257,0.469-0.406
	c0.467,7.846,4.301,11.781,7.719,15.281C13.12,26.012,16,28.977,16,35v0.188l0.062,0.156c0.578,1.52,5.76,14.657,12.656,14.656
	c0.107,0,0.234,0.007,0.344,0l0.562-0.031l0.25-0.5C30.043,49.16,34,41.889,34,36c0-9.361-7.131-13.356-12.344-16.281
	c-3.245-1.82-6.062-3.416-6.062-5.531c0-0.68,0.359-1.332,0.812-2.156C17.114,10.743,18,9.147,18,6.594C18,3.314,14.622,0,8.188,0z
	 M19.25,3.438C19.755,4.447,20,5.521,20,6.594c0,0.119,0.003,0.228,0,0.344l0.906,0.312c0.524,0.175,0.831,0.757,0.656,1.281
	c-0.14,0.419-0.55,0.656-0.969,0.656c-0.104,0-0.208,0.004-0.312-0.031L19.75,8.969c-0.083,0.409-0.168,0.798-0.281,1.156
	c2.75,0.916,5.878,1.113,9.375,1.312c5.555,0.316,11.844,0.666,19.125,3.938c0.354,0.118,0.591,0.217,0.594,0.219
	c0.311,0.153,0.674,0.151,0.969-0.031C49.825,15.38,50,15.035,50,14.688c0-4.724-3.451-6.344-5.438-6.562
	c-0.248-0.042-0.836-0.142-1.688-0.25C38.52,7.32,26.762,5.832,19.25,3.438z M13.688,5.406c0.7,0,1.312,0.581,1.312,1.281
	S14.388,8,13.688,8S11,6.094,11,6.094S12.987,5.406,13.688,5.406z M18.719,11.969c-0.186,0.37-0.391,0.718-0.562,1.031
	c-0.234,0.426-0.554,1.003-0.562,1.188c0,0.943,3.029,2.658,5.031,3.781c2.863,1.606,6.518,3.658,9.281,6.844
	c4.484-1.031,8.361-4.693,11.094-7.281c0.491-0.464,1.005-0.964,1.5-1.406c-5.861-2.136-11.094-2.452-15.781-2.719
	C25.02,13.196,21.729,13.001,18.719,11.969z"/>
</svg>
