<?xml version="1.0" encoding="utf-8"?>
<!-- Generator: Adobe Illustrator 16.0.0, SVG Export Plug-In . SVG Version: 6.00 Build 0)  -->
<!DOCTYPE svg PUBLIC "-//W3C//DTD SVG 1.1//EN" "http://www.w3.org/Graphics/SVG/1.1/DTD/svg11.dtd">
<svg version="1.1" id="Layer_1" xmlns="http://www.w3.org/2000/svg" xmlns:xlink="http://www.w3.org/1999/xlink" x="0px" y="0px"
	 width="24px" height="24px" viewBox="0 0 24 24" enable-background="new 0 0 24 24" xml:space="preserve">
<path fill="#F5F9FF" d="M12,0C8.299,0,3.781,2.565,3.781,8.25c-0.059,0.487-0.657,2.118-0.906,3.094
	C1.91,13.908-0.073,15.358,0,16.312c1.373,0.992,3.051-0.018,3.219-0.125c0.485,2.02,1.365,3.674,2.719,4.844H5
	c-0.031-0.002-0.062-0.002-0.094,0c-0.535,0.025-0.948,0.48-0.922,1.016S4.465,22.994,5,22.969C4.983,23.521,5.417,23.982,5.968,24
	C5.979,24,5.989,24,6,24c3.056,0,4.623-0.249,5.562-0.562c0.166-0.055,0.302-0.129,0.438-0.188c0.136,0.059,0.271,0.133,0.438,0.188
	C13.377,23.751,14.943,24,18,24c0.553,0,1-0.447,1-1c0-0.01,0-0.021,0-0.031c0.535,0,0.969-0.434,0.969-0.969
	S19.535,21.031,19,21.031h-0.938c1.354-1.17,2.234-2.824,2.719-4.844c0.168,0.107,1.846,1.117,3.219,0.125
	c0.073-0.954-1.91-2.404-2.875-4.969c-0.249-0.976-0.848-2.606-0.906-3.094C20.219,2.565,15.701,0,12,0z M9.688,3.469
	c1.247,0,1.894,1.188,2.312,1.188s1.242-1.188,2.312-1.188c5.012,0,3.25,6.656,3.25,6.656s0.906,1.171,0.906,3.625
	c0,5.105-3.552,6.5-6.469,6.5s-6.469-1.395-6.469-6.5c0-2.454,0.906-3.625,0.906-3.625S4.675,3.469,9.688,3.469z M10,7
	C9.448,7,9,7.448,9,8s0.448,1,1,1s1-0.448,1-1S10.552,7,10,7z M14,7c-0.553,0-1,0.448-1,1s0.447,1,1,1s1-0.448,1-1S14.553,7,14,7z
	 M12,9.125c0,0-0.851,0.637-2,0.969C10.592,11.64,12,12,12,12s1.408-0.36,2-1.906C12.852,9.762,12,9.125,12,9.125z"/>
</svg>
