<?xml version="1.0" encoding="utf-8"?>
<!-- Generator: Adobe Illustrator 16.0.0, SVG Export Plug-In . SVG Version: 6.00 Build 0)  -->
<!DOCTYPE svg PUBLIC "-//W3C//DTD SVG 1.1//EN" "http://www.w3.org/Graphics/SVG/1.1/DTD/svg11.dtd">
<svg version="1.1" id="Layer_1" xmlns="http://www.w3.org/2000/svg" xmlns:xlink="http://www.w3.org/1999/xlink" x="0px" y="0px"
	 width="50px" height="50px" viewBox="0 0 50 50" enable-background="new 0 0 50 50" xml:space="preserve">
<path fill="#F5F9FF" d="M25,0c-3.976,0-8,1.374-8,4v3v3h16V7V4C33,1.374,28.977,0,25,0z M17,12v2c0,3.277-1.748,5.79-3.781,8.688
	C10.776,26.172,8,30.1,8,36.188c0,5.889,4.954,10.865,9.594,13.562c0.152,0.09,0.323,0.156,0.5,0.156h13.719
	c0.173,0,0.318-0.039,0.469-0.125c4.645-2.637,9.625-7.613,9.625-13.594c0-6.169-2.754-10.12-5.188-13.625
	C34.728,19.695,33,17.212,33,14v-2H17z M20,26.5h6.5c1.5,0,2.706,0.388,3.406,1.188c0.8,0.8,1.188,1.912,1.188,3.312
	s-0.388,2.513-1.188,3.312C29.105,35.112,28,35.5,26.5,35.5H22v6.094h-2V26.5z M22,28.094v5.5h3.906c1.1,0,2-0.188,2.5-0.688
	s0.781-1.193,0.781-2.094c0-0.898-0.281-1.6-0.781-2c-0.5-0.5-1.4-0.719-2.5-0.719H22z"/>
</svg>
