<?xml version="1.0" encoding="utf-8"?>
<!-- Generator: Adobe Illustrator 16.0.0, SVG Export Plug-In . SVG Version: 6.00 Build 0)  -->
<!DOCTYPE svg PUBLIC "-//W3C//DTD SVG 1.1//EN" "http://www.w3.org/Graphics/SVG/1.1/DTD/svg11.dtd">
<svg version="1.1" id="Layer_1" xmlns="http://www.w3.org/2000/svg" xmlns:xlink="http://www.w3.org/1999/xlink" x="0px" y="0px"
	 width="200px" height="200px" viewBox="0 0 200 200" enable-background="new 0 0 200 200" xml:space="preserve">
<path fill="#F5F9FF" d="M30.769,0C13.846,0,0,13.846,0,30.769v98.558c-0.045,0.479-0.045,0.962,0,1.442v53.846
	c0,4.018,1.427,8.158,4.327,11.058c2.9,2.9,7.041,4.327,11.058,4.327h169.23c4.018,0,8.158-1.427,11.058-4.327
	c2.9-2.899,4.327-7.04,4.327-11.058V130.77c0.012-0.24,0.012-0.481,0-0.722v-37.74c0-16.923-13.846-30.769-30.77-30.769h-26.923
	c-11.538,0-22.26-6.827-27.644-16.827l-13.943-27.884C95.336,6.827,84.615,0,73.077,0H30.769z M15.385,138.461h23.077v30.77h15.385
	v-30.77h7.692v30.77h15.384v-30.77h7.692v30.77H100v-30.77h23.077v30.77h15.384v-30.77h7.693v30.77h15.385v-30.77h23.076v46.154
	H15.385V138.461z"/>
</svg>
