<?xml version="1.0" encoding="utf-8"?>
<!-- Generator: Adobe Illustrator 16.0.0, SVG Export Plug-In . SVG Version: 6.00 Build 0)  -->
<!DOCTYPE svg PUBLIC "-//W3C//DTD SVG 1.1//EN" "http://www.w3.org/Graphics/SVG/1.1/DTD/svg11.dtd">
<svg version="1.1" id="Layer_1" xmlns="http://www.w3.org/2000/svg" xmlns:xlink="http://www.w3.org/1999/xlink" x="0px" y="0px"
	 width="50px" height="50px" viewBox="0 0 50 50" enable-background="new 0 0 50 50" xml:space="preserve">
<path fill="#F5F9FF" d="M44.469,0.094c-0.5,0-0.944,0.162-1.281,0.5L12.594,31.219l6.188,6.188L25,31.219
	c-1.083-0.686-2.098-1.44-2.438-1.781c-0.786-0.786-0.786-2.089,0-2.875s2.09-0.786,2.875,0c0.341,0.341,1.066,1.355,1.75,2.438
	L31,25.219c-1.082-0.684-2.097-1.44-2.438-1.781c-0.786-0.786-0.786-2.089,0-2.875s2.09-0.786,2.875,0
	c0.341,0.341,1.066,1.354,1.75,2.438L37,19.219c-1.082-0.684-2.097-1.44-2.438-1.781c-0.786-0.786-0.786-2.089,0-2.875
	s2.09-0.786,2.875,0c0.341,0.341,1.066,1.354,1.75,2.438L43,13.219c-1.082-0.684-2.097-1.44-2.438-1.781
	c-0.786-0.786-0.786-2.089,0-2.875s2.09-0.786,2.875,0c0.341,0.341,1.066,1.354,1.75,2.438l0.156-0.156l2.031-2.031L47.5,8.688
	l1.906-1.875c0.373-0.373,0.883-1.222,0.188-2.594c-0.32-0.634-0.879-1.317-1.688-2.125C46.582,0.769,45.428,0.094,44.469,0.094z
	 M45.188,11L43,13.219c0.511,0.322,1.01,0.605,1.5,0.844L40.062,18.5c-0.239-0.49-0.553-0.989-0.875-1.5L37,19.219
	c0.511,0.322,1.01,0.605,1.5,0.844L34.062,24.5c-0.238-0.49-0.553-0.989-0.875-1.5L31,25.219c0.511,0.322,1.01,0.605,1.5,0.844
	L28.062,30.5c-0.238-0.49-0.553-0.989-0.875-1.5L25,31.219c0.511,0.322,1.01,0.605,1.5,0.844l-1.219,1.219
	c-0.391,0.391-0.391,1.047,0,1.438C25.476,34.914,25.744,35,26,35s0.523-0.086,0.719-0.281l22-22c0.391-0.391,0.391-1.046,0-1.438
	s-1.047-0.391-1.438,0L46.062,12.5C45.823,12.01,45.51,11.511,45.188,11z M11.156,32.625L0.969,42.844
	c-2.155,2.154-0.069,4.243,0.938,5.25c1.062,1.062,1.828,1.612,2.594,1.812C4.717,49.965,4.944,50,5.156,50
	c0.705,0,1.374-0.311,2-0.938l10.219-10.219L11.156,32.625z"/>
</svg>
