<?xml version="1.0" encoding="utf-8"?>
<!-- Generator: Adobe Illustrator 16.0.0, SVG Export Plug-In . SVG Version: 6.00 Build 0)  -->
<!DOCTYPE svg PUBLIC "-//W3C//DTD SVG 1.1//EN" "http://www.w3.org/Graphics/SVG/1.1/DTD/svg11.dtd">
<svg version="1.1" id="Layer_1" xmlns="http://www.w3.org/2000/svg" xmlns:xlink="http://www.w3.org/1999/xlink" x="0px" y="0px"
	 width="50px" height="50px" viewBox="0 0 50 50" enable-background="new 0 0 50 50" xml:space="preserve">
<path fill="#F5F9FF" d="M5.969,6C5.435,6,4.695,6.159,4.062,6.781C3.519,7.316,3.192,8.207,3.094,9.312
	C2.64,9.051,2.18,8.805,1.719,8.344C1.331,7.947,0.694,7.94,0.297,8.328S-0.107,9.353,0.281,9.75
	c0.926,0.926,1.928,1.487,2.938,1.844c0.219,1.45,0.597,2.688,1.062,3.5c0.254,0.443,0.521,0.784,0.75,1.062
	c-1.313,2.117-2.062,4.683-2.062,7.688c0,6.171,0.67,14.82,3.875,21.094C7.241,45.709,7.969,46,8.531,46h1.281
	c0.372,0,0.716-0.153,0.969-0.438c0.356-0.4,0.464-0.971,0.438-1.375c0.087-2.652,1.375-5.226,2.219-6.844
	c5.208,1.673,11.071,1.411,13.219,1.25c0.891,2.771,2.097,5.195,2.719,6.25c0.586,0.993,1.27,1.13,1.875,1.125h1.094
	c0.425,0,0.801-0.184,1.062-0.5c0.471-0.572,0.345-1.387,0.312-1.531c-0.005-0.038-0.34-3.468-0.062-6
	c6.232,0.146,13.27-2.301,14.219-4.438c0.202-0.454,0.397-1.35,0.656-2.531c0.091-0.417,0.188-0.763,0.25-0.969
	c0.109-0.312,0.393-1.135-0.125-1.812c-0.232-0.302-0.692-0.667-1.562-0.594c-1.932,0.146-2.101-0.604-2.469-2.25
	c-0.157-0.7-0.328-1.479-0.719-2.188c0.83-0.251,1.788-0.703,2.625-1.438c3.338-2.933,2.543-6.895,1.656-8.594
	c-0.182-0.348-0.554-0.554-0.938-0.531c-0.391,0.021-0.73,0.259-0.875,0.625c-0.027,0.074-0.662,1.582-3,2.469
	c-3.913,1.666-4.655,5.515-4.938,6.656c-0.109,0.446-0.54,0.781-1,0.781c-0.553,0-1-0.448-1-1c0-0.113,0.028-0.211,0.062-0.312
	c0.357-1.406,0.992-4.335,3.656-6.344C36.896,11.43,29.36,8,23.062,8c-6.494,0-13.026,2.064-16.812,6.5
	C6.165,14.376,6.092,14.255,6,14.094c-0.287-0.501-0.553-1.24-0.75-2.125C7.473,11.871,9,10.587,9,9c0-0.964-0.386-1.8-1-2.312
	S6.663,6,5.969,6z M5.969,8c0.359,0,0.604,0.097,0.75,0.219S7,8.483,7,9c0,0.035-0.415,0.983-1.969,1C5.03,9.927,5,9.887,5,9.812
	c0-1.019,0.274-1.402,0.469-1.594S5.905,8,5.969,8z M41,26.938c0.578,0,1.031,0.477,1.031,1.062S41.578,29.062,41,29.062
	S39.938,28.586,39.938,28S40.422,26.938,41,26.938z M40.656,39.219c-1.68,0.368-3.425,0.602-5.094,0.688
	c-0.007,0.648,0.006,1.287,0.031,1.875c0.441,1.279,0.935,2.395,1.312,3.125C37.411,45.889,38.1,46,38.562,46h1.031
	c0.396,0,0.774-0.146,1.031-0.438c0.456-0.521,0.4-1.277,0.375-1.469C40.996,44.06,40.725,41.527,40.656,39.219z M15.812,40
	c0.973,2.702,1.629,3.91,2.625,5.062C18.906,45.709,19.758,46,20.219,46h1.094c0.392,0,0.774-0.182,1-0.5
	c0.375-0.525,0.229-1.185,0.156-1.438c-0.169-0.859-0.301-2.165-0.375-3.375C20.257,40.629,18.056,40.449,15.812,40z M38.531,44
	c0.012,0,0.02-0.003,0.031,0c0.01,0.002,0.022-0.003,0.031,0l-0.031,1L38.531,44z"/>
</svg>
