<?xml version="1.0" encoding="utf-8"?>
<!-- Generator: Adobe Illustrator 16.0.0, SVG Export Plug-In . SVG Version: 6.00 Build 0)  -->
<!DOCTYPE svg PUBLIC "-//W3C//DTD SVG 1.1//EN" "http://www.w3.org/Graphics/SVG/1.1/DTD/svg11.dtd">
<svg version="1.1" id="Layer_1" xmlns="http://www.w3.org/2000/svg" xmlns:xlink="http://www.w3.org/1999/xlink" x="0px" y="0px"
	 width="200px" height="200px" viewBox="0 0 200 200" enable-background="new 0 0 200 200" xml:space="preserve">
<path fill="#F5F9FF" d="M148.558,0c-6.153,6.154-6.25,18.51-6.25,18.51S150,36.154,153.846,46.154l26.924,11.539
	c0,0,13.076-0.096,19.23-6.25c-6.923-6.923-36.058-15.385-36.058-15.385S154.711,6.154,148.558,0z M122.355,0.721
	c-9.23,9.231-3.125,35.336-3.125,35.336l44.712,43.99c0,0,26.827,6.106,36.058-3.125c-10-9.23-52.404-24.519-52.404-24.519
	S132.355,10.721,122.355,0.721z M185.336,12.74c-5.227,0.516-19.951,8.895-19.951,8.895l3.846,9.134l9.135,3.125
	c0,0,10.962-18.605,8.654-20.913C186.73,12.692,186.083,12.667,185.336,12.74z M102.404,41.586c-11.233,0-23.51,3.188-36.298,10.096
	v-0.24c-5.385,2.308-10,6.298-15.385,9.375c0.24,0.06,0.482,0.171,0.721,0.24c-4.045,2.998-8.117,6.338-12.26,10.096v-0.481
	c-2.308,2.308-4.664,3.942-6.971,6.25c-3.077,3.077-6.105,6.058-8.414,9.135c0.278,0.056,0.452,0.184,0.721,0.24
	c-3.98,4.525-7.643,8.678-10.577,12.981v0.24c-0.389,0.572-0.832,1.115-1.202,1.683c-1.677,2.511-3.102,5.037-4.327,7.452
	c-1.002,1.975-2.216,3.889-3.125,6.01C2.146,121.896,0.42,128.787,0,135.336c-0.015,0.236,0.012,0.486,0,0.722
	c-0.067,2.218,0.049,4.369,0.24,6.49c0.168,1.856,0.366,3.743,0.721,5.529c0.173,0.917,0.5,1.741,0.721,2.644
	c0.308,1.21,0.571,2.43,0.961,3.606c0.252,0.759,0.677,1.418,0.962,2.163c3.271,8.77,8.522,16.955,15.625,24.279
	c4.615,4.326,9.334,8.016,14.423,11.058c0.058,0.035,0.183-0.035,0.24,0c3.337,1.981,6.768,3.764,10.337,5.048
	c0.383,0.138,0.815,0.111,1.202,0.24C50.536,198.822,55.907,200,61.539,200c17.692,0,37.74-9.327,60.817-33.173
	c3.9-3.802,7.354-7.577,10.577-11.298c12.904-14.899,20.477-28.959,23.798-42.068c0.795-3.016,1.326-6.002,1.684-8.894
	c0.027-0.245-0.025-0.478,0-0.722c0.32-2.861,0.325-5.682,0.24-8.413c-0.012-0.25,0.014-0.473,0-0.721
	c-0.115-2.628-0.49-5.193-0.962-7.692c-0.058-0.308,0.063-0.655,0-0.961L112.98,41.586H102.404z M102.404,53.125h5.288l12.98,12.981
	c-0.005,0.167,0,0.721,0,0.721L99.279,62.26l-1.683-8.895C99.174,53.226,100.854,53.125,102.404,53.125z M88.461,54.808
	c0.096,3.365,0,6.01,0,6.01l-9.855-2.645C81.928,56.81,85.221,55.616,88.461,54.808z M69.231,66.106c0,0,16.25-0.817,21.634,4.567
	c5.385,5.385,4.567,21.635,4.567,21.635L73.798,87.74L69.231,66.106z M60.577,68.029c2.969,6.849,2.404,18.029,2.404,18.029
	L43.75,81.971C49.399,76.646,54.988,71.871,60.577,68.029z M100.721,73.077c0,0,16.25-0.817,21.635,4.567
	c5.385,5.385,4.567,21.635,4.567,21.635l-21.634-4.567L100.721,73.077z M33.894,92.067c3.735,6.576,3.125,19.472,3.125,19.472
	l-15.384-3.125C24.955,103.102,29.023,97.648,33.894,92.067z M43.029,92.308c0,0,16.25-0.817,21.635,4.567
	c5.384,4.615,4.567,20.914,4.567,20.914l-21.635-4.809L43.029,92.308z M77.164,98.317c4.795,0.036,14.952,0.769,18.99,4.808
	c5.385,5.385,4.567,21.395,4.567,21.395l-21.394-4.567l-4.808-21.395C74.519,98.558,75.565,98.305,77.164,98.317z M20.192,117.548
	c4.795,0.036,14.952,0.77,18.99,4.808c5.385,5.385,4.567,21.395,4.567,21.395l-21.394-4.567l-4.567-21.394
	C17.789,117.789,18.594,117.536,20.192,117.548z M49.279,123.798c0,0,16.01-0.817,21.394,4.567C76.058,133.75,75.481,150,75.481,150
	l-21.635-4.567L49.279,123.798z M23.798,150c0,0,16.25-0.817,21.635,4.567S50,176.202,50,176.202l-21.635-4.567L23.798,150z"/>
</svg>
