<?xml version="1.0" encoding="utf-8"?>
<!-- Generator: Adobe Illustrator 16.0.0, SVG Export Plug-In . SVG Version: 6.00 Build 0)  -->
<!DOCTYPE svg PUBLIC "-//W3C//DTD SVG 1.1//EN" "http://www.w3.org/Graphics/SVG/1.1/DTD/svg11.dtd">
<svg version="1.1" id="Layer_1" xmlns="http://www.w3.org/2000/svg" xmlns:xlink="http://www.w3.org/1999/xlink" x="0px" y="0px"
	 width="24px" height="24px" viewBox="0 0 24 24" enable-background="new 0 0 24 24" xml:space="preserve">
<path fill="#F5F9FF" d="M2.5,0C1.119,0,0,1.119,0,2.5S1.119,5,2.5,5S5,3.881,5,2.5S3.881,0,2.5,0z M15.219,0.969
	c-2.721,0.038-5.381,1.413-7.406,3.438C6.513,5.706,5.706,7.3,5.406,9L16,19.594c1.7-0.3,3.294-1.2,4.594-2.5
	c3.6-3.5,5.112-9.2,0.812-13.5C19.481,1.712,17.335,0.939,15.219,0.969z M5.188,10.906c0,1.1,0.219,2.094,0.719,3.094
	c0,0.3,0.388,2.112-0.312,2.812c-1.5,1.4-3.487,2.8-4.188,3.5c-0.8,0.7-0.5,1.688,0.5,2.688s1.981,1.287,2.781,0.688
	c0.7-0.8,2-2.688,3.5-4.188c0.6-0.6,2.319-0.412,2.719-0.312c1,0.4,2.088,0.625,3.188,0.625L5.188,10.906z"/>
</svg>
