<?xml version="1.0" encoding="utf-8"?>
<!-- Generator: Adobe Illustrator 16.0.0, SVG Export Plug-In . SVG Version: 6.00 Build 0)  -->
<!DOCTYPE svg PUBLIC "-//W3C//DTD SVG 1.1//EN" "http://www.w3.org/Graphics/SVG/1.1/DTD/svg11.dtd">
<svg version="1.1" id="Layer_1" xmlns="http://www.w3.org/2000/svg" xmlns:xlink="http://www.w3.org/1999/xlink" x="0px" y="0px"
	 width="50px" height="50px" viewBox="0 0 50 50" enable-background="new 0 0 50 50" xml:space="preserve">
<path fill="#F5F9FF" d="M46.5,0c-0.915,0.007-1.772,0.374-2.406,1.031L25.656,20.25l4.094,4.094L48.969,5.906
	C49.623,5.273,49.992,4.415,50,3.5c0.007-0.933-0.364-1.801-1.031-2.469C48.308,0.372,47.455,0,46.531,0H46.5z M24.281,21.719
	l-3.406,3.562c-4.26-3.249-8.501-3.756-11.031-1.219C-0.849,36.188-0.438,36.593,0.312,37.344c0.749,0.753,1.166,1.162,13.156-9.406
	c0.458,0,1.769,0.318,3.406,1.438C4.709,43.037,5.015,43.325,5.844,44.156c0.828,0.834,1.117,1.129,14.781-11.031
	c1.123,1.641,1.438,2.95,1.438,3.406C11.5,48.523,11.886,48.92,12.656,49.688c0.183,0.184,0.358,0.344,0.656,0.344
	c0.968,0,3.379-1.701,12.688-9.906c2.477-2.477,1.96-6.728-1.25-10.969l3.562-3.438L24.281,21.719z"/>
</svg>
