<?xml version="1.0" encoding="utf-8"?>
<!-- Generator: Adobe Illustrator 16.0.0, SVG Export Plug-In . SVG Version: 6.00 Build 0)  -->
<!DOCTYPE svg PUBLIC "-//W3C//DTD SVG 1.1//EN" "http://www.w3.org/Graphics/SVG/1.1/DTD/svg11.dtd">
<svg version="1.1" id="Layer_1" xmlns="http://www.w3.org/2000/svg" xmlns:xlink="http://www.w3.org/1999/xlink" x="0px" y="0px"
	 width="50px" height="50px" viewBox="0 0 50 50" enable-background="new 0 0 50 50" xml:space="preserve">
<path fill="#F5F9FF" d="M20.844,0.031c-0.651,0.04-1.191,0.394-1.625,1.5c-0.23,0.586-0.72,2.027-1.188,3.406
	c-0.237,0.698-0.459,1.337-0.625,1.812c-0.017,0.048,0.009,0.107,0,0.156c-0.009,0.02-0.055,0.042-0.062,0.062L17.25,7.25
	c1.316,0.405,2.291,0.809,2.375,0.844c2.971,1.125,8.727,3.755,13.656,8.688C38.5,22,41.185,28.264,42.094,30.719
	c0.018,0.043,0.28,0.818,0.656,2.125c0.006-0.002,0.026,0.002,0.031,0c0.561-0.18,2.174-0.75,3.531-1.219
	c0.795-0.273,1.496-0.509,1.844-0.625c0.85-0.284,1.385-0.709,1.656-1.312c0.26-0.579,0.254-1.256-0.062-2
	c-0.145-0.338-0.307-0.768-0.5-1.25c-1.373-3.43-4.243-10.555-9.656-15.969c-5.98-5.983-13.8-9.257-17.469-10.25
	C21.648,0.09,21.234,0.007,20.844,0.031z M16.469,9.094L0.062,48.625c-0.155,0.373-0.066,0.808,0.219,1.094
	C0.473,49.91,0.74,50,1,50c0.129,0,0.252-0.011,0.375-0.062l39.531-16.344c-0.381-1.352-0.683-2.143-0.688-2.156
	c-0.869-2.35-3.404-8.31-8.344-13.25c-4.84-4.842-10.708-7.382-13-8.25C18.842,9.924,17.811,9.502,16.469,9.094z M17,16
	c2.762,0,5,2.237,5,5s-2.238,5-5,5c-1.858,0-3.451-1.027-4.312-2.531l3-7.281C16.103,16.076,16.55,16,17,16z M31,22
	c1.656,0,3,1.343,3,3c0,0.917-0.414,1.731-1.062,2.281h-0.031C33.571,27.995,34,28.948,34,30c0,2.209-1.791,4-4,4s-4-1.791-4-4
	c0-1.641,0.994-3.039,2.406-3.656l-0.094-0.031C28.117,25.916,28,25.473,28,25C28,23.343,29.344,22,31,22z M21,32
	c2.209,0,4,1.791,4,4c0,0.857-0.29,1.66-0.75,2.312l-3.938,1.625C18.431,39.61,17,37.977,17,36C17,33.791,18.791,32,21,32z M9,34
	c1.656,0,3,1.343,3,3s-1.344,3-3,3c-1.098,0-2.04-0.588-2.562-1.469l1.812-4.438C8.487,34.033,8.744,34,9,34z"/>
</svg>
