<?xml version="1.0" encoding="utf-8"?>
<!-- Generator: Adobe Illustrator 16.0.0, SVG Export Plug-In . SVG Version: 6.00 Build 0)  -->
<!DOCTYPE svg PUBLIC "-//W3C//DTD SVG 1.1//EN" "http://www.w3.org/Graphics/SVG/1.1/DTD/svg11.dtd">
<svg version="1.1" id="Layer_1" xmlns="http://www.w3.org/2000/svg" xmlns:xlink="http://www.w3.org/1999/xlink" x="0px" y="0px"
	 width="50px" height="50px" viewBox="0 0 50 50" enable-background="new 0 0 50 50" xml:space="preserve">
<path fill="#F5F9FF" d="M26.5,0c-1,1.1-1.7,2.506-2,3.906c-0.8-0.9-1.888-1.694-3.188-2.094c0.6,1.5,0.775,2.681,0.875,3.781
	c-1-1-2.494-1.806-4.594-1.906c2,1.5,2.013,3.606,1.812,4.906c-0.245,0.054-0.46,0.104-0.656,0.156
	c-0.486,0.106-0.781,0.188-0.781,0.188C7.925,11.644,1,19.731,1,29c0,11.579,10.767,21,24,21c13.232,0,24-9.421,24-21
	c0-9.267-6.994-17.428-17.062-20.031c-0.002-0.005,0.002-0.026,0-0.031c0,0-0.279-0.084-0.75-0.188
	c-0.404-0.931-1.148-3.58,1.125-5.062c-1.5,0-2.725,0.4-3.625,1C28.388,3.087,27.7,1.4,26.5,0z M20,12c1.627,0,3.232,0.278,5,0.875
	C26.768,12.278,28.373,12,30,12c8.822,0,16,7.626,16,17s-7.178,17-16,17c-1.626,0-3.23-0.277-5-0.875C23.23,45.723,21.625,46,20,46
	c-8.822,0-16-7.626-16-17S11.178,12,20,12z M20,14c-7.7,0-14,6.7-14,15s6.3,15,14,15c1.8,0,3.4-0.4,5-1c1.6,0.6,3.2,1,5,1
	c7.7,0,14-6.7,14-15s-6.3-15-14-15c-1.8,0-3.4,0.4-5,1C23.4,14.4,21.8,14,20,14z M18,16c1.104,0,2,0.896,2,2s-0.896,2-2,2
	s-2-0.896-2-2S16.896,16,18,16z M32,16c1.104,0,2,0.896,2,2s-0.896,2-2,2s-2-0.896-2-2S30.896,16,32,16z M25,19c1.104,0,2,0.896,2,2
	s-0.896,2-2,2c-1.104,0-2-0.896-2-2S23.896,19,25,19z M13,21c1.104,0,2,0.896,2,2s-0.896,2-2,2s-2-0.896-2-2S11.896,21,13,21z
	 M37,21c1.104,0,2,0.896,2,2s-0.896,2-2,2s-2-0.896-2-2S35.896,21,37,21z M19.312,21.312c1.105,0,2,0.896,2,2c0,1.105-0.895,2-2,2
	c-1.104,0-2-0.895-2-2C17.312,22.208,18.208,21.312,19.312,21.312z M30.688,21.312c1.104,0,2,0.896,2,2c0,1.105-0.896,2-2,2
	s-2-0.895-2-2S29.584,21.312,30.688,21.312z M10,27c1.104,0,2,0.896,2,2s-0.896,2-2,2s-2-0.896-2-2S8.896,27,10,27z M17,27
	c1.104,0,2,0.896,2,2s-0.896,2-2,2s-2-0.896-2-2S15.896,27,17,27z M25,27c1.104,0,2,0.896,2,2s-0.896,2-2,2c-1.104,0-2-0.896-2-2
	S23.896,27,25,27z M33,27c1.104,0,2,0.896,2,2s-0.896,2-2,2s-2-0.896-2-2S31.896,27,33,27z M40,27c1.104,0,2,0.896,2,2s-0.896,2-2,2
	s-2-0.896-2-2S38.896,27,40,27z M19.312,32.688c1.105,0,2,0.896,2,2s-0.895,2-2,2c-1.104,0-2-0.896-2-2S18.208,32.688,19.312,32.688
	z M30.688,32.688c1.104,0,2,0.896,2,2s-0.896,2-2,2s-2-0.895-2-2C28.688,33.584,29.584,32.688,30.688,32.688z M13,33
	c1.104,0,2,0.896,2,2s-0.896,2-2,2s-2-0.896-2-2S11.896,33,13,33z M37,33c1.104,0,2,0.896,2,2s-0.896,2-2,2s-2-0.896-2-2
	S35.896,33,37,33z M25,35c1.104,0,2,0.896,2,2s-0.896,2-2,2c-1.104,0-2-0.896-2-2S23.896,35,25,35z M18,38c1.104,0,2,0.896,2,2
	s-0.896,2-2,2s-2-0.896-2-2S16.896,38,18,38z M32,38c1.104,0,2,0.896,2,2s-0.896,2-2,2s-2-0.896-2-2S30.896,38,32,38z"/>
</svg>
