<?xml version="1.0" encoding="utf-8"?>
<!-- Generator: Adobe Illustrator 16.0.0, SVG Export Plug-In . SVG Version: 6.00 Build 0)  -->
<!DOCTYPE svg PUBLIC "-//W3C//DTD SVG 1.1//EN" "http://www.w3.org/Graphics/SVG/1.1/DTD/svg11.dtd">
<svg version="1.1" id="Layer_1" xmlns="http://www.w3.org/2000/svg" xmlns:xlink="http://www.w3.org/1999/xlink" x="0px" y="0px"
	 width="50px" height="50px" viewBox="0 0 50 50" enable-background="new 0 0 50 50" xml:space="preserve">
<path fill="#F5F9FF" d="M27.5,0c-5.201,0.164-5.354,4.959-5.469,8.125C22.012,8.643,21.977,9.374,21.906,10
	c0.402,0.113,0.768,0.326,1.031,0.656c0.488-0.293,1.009-0.511,1.562-0.656c0.166-0.044,0.329-0.062,0.5-0.062S25.334,9.956,25.5,10
	c0.553,0.145,1.076,0.363,1.562,0.656c0.006-0.008,0.025,0.008,0.031,0c-0.059-0.125-0.078-0.253-0.094-0.344
	c-0.309-1.772,1.633-4.924,2.75-5.344c0.799-0.301,1.373-0.849,1.625-1.531c0.23-0.625,0.164-1.295-0.188-1.938
	C30.463,0.186,29.15,0,27.969,0C27.818,0,27.663-0.005,27.5,0z M16.062,11.094c-11.027,0.747-16,8.867-16,16.938
	c0,11.578,4.791,18.342,14.844,20.812c-4.724-3.27-8.344-9.342-8.344-19.312c0-7.181,1.785-12.499,5.281-15.781
	C13.051,12.617,14.457,11.735,16.062,11.094z M33.938,11.094c1.605,0.642,3.014,1.524,4.219,2.656
	c3.497,3.282,5.281,8.6,5.281,15.781c0,9.971-3.619,16.041-8.344,19.312c10.055-2.471,14.844-9.234,14.844-20.812
	C49.938,19.961,44.963,11.842,33.938,11.094z M21.375,11.906c-3.419,0.279-6.103,1.384-8.156,3.312
	c-3.077,2.889-4.656,7.706-4.656,14.312c0,12.264,5.65,18.069,12.031,19.812c-2.853-3.871-4.156-11.505-4.156-17.844
	C16.438,28.747,16.727,16.809,21.375,11.906z M28.625,11.906c4.648,4.903,4.938,16.841,4.938,19.594
	c0,6.339-1.303,13.973-4.156,17.844c6.382-1.742,12.031-7.549,12.031-19.812c0-6.607-1.579-11.423-4.656-14.312
	C34.729,13.291,32.043,12.184,28.625,11.906z M25,11.938c-4.529,1.19-6.562,10.593-6.562,19.531c0,6.298,1.366,14.443,4.375,17.438
	c0.689,0.686,1.391,1.03,2.156,1.031c0.008,0,0.022,0,0.031,0s0.023,0,0.031,0c0.766-0.001,1.469-0.346,2.156-1.031
	c2.875-2.861,4.375-10.94,4.375-17.438C31.562,22.531,29.529,13.127,25,11.938z"/>
</svg>
