<?xml version="1.0" encoding="utf-8"?>
<!-- Generator: Adobe Illustrator 16.0.0, SVG Export Plug-In . SVG Version: 6.00 Build 0)  -->
<!DOCTYPE svg PUBLIC "-//W3C//DTD SVG 1.1//EN" "http://www.w3.org/Graphics/SVG/1.1/DTD/svg11.dtd">
<svg version="1.1" id="Layer_1" xmlns="http://www.w3.org/2000/svg" xmlns:xlink="http://www.w3.org/1999/xlink" x="0px" y="0px"
	 width="24px" height="24px" viewBox="0 0 24 24" enable-background="new 0 0 24 24" xml:space="preserve">
<path fill="#F5F9FF" d="M12,0c-0.829,0-1.5,0.671-1.5,1.5c0,0.518,0.257,0.98,0.656,1.25l-0.031,0.094
	c-0.724,0.628-1.719,1.574-2.312,2.594L7.25,4.375V4.344C7.412,4.104,7.5,3.811,7.5,3.5C7.5,2.671,6.829,2,6,2S4.5,2.671,4.5,3.5
	S5.171,5,6,5c0.104,0,0.215-0.011,0.312-0.031L7,8h2.062h5.875H17l0.688-3.031C17.785,4.989,17.896,5,18,5
	c0.828,0,1.5-0.671,1.5-1.5S18.828,2,18,2s-1.5,0.671-1.5,1.5c0,0.311,0.088,0.604,0.25,0.844c0.004,0.006-0.004,0.025,0,0.031
	l-1.562,1.062c-0.594-1.02-1.589-1.965-2.312-2.594L12.844,2.75C13.242,2.48,13.5,2.018,13.5,1.5C13.5,0.671,12.828,0,12,0z M7,9v2
	h2.969C9.595,15.001,7,15.145,7,17h10c0-1.763-2.596-1.987-2.969-6H17V9H7z M5,18v2h1.406L4,24h16l-2.406-4H19v-2H5z"/>
</svg>
