<?xml version="1.0" encoding="utf-8"?>
<!-- Generator: Adobe Illustrator 16.0.0, SVG Export Plug-In . SVG Version: 6.00 Build 0)  -->
<!DOCTYPE svg PUBLIC "-//W3C//DTD SVG 1.1//EN" "http://www.w3.org/Graphics/SVG/1.1/DTD/svg11.dtd">
<svg version="1.1" id="Layer_1" xmlns="http://www.w3.org/2000/svg" xmlns:xlink="http://www.w3.org/1999/xlink" x="0px" y="0px"
	 width="24px" height="24px" viewBox="0 0 24 24" enable-background="new 0 0 24 24" xml:space="preserve">
<path fill="#F5F9FF" d="M15.094,0c-1.308-0.075-3.888,0.538-5.688,1.812C8.337,2.6,7.406,3.408,7,4.188C6.606,4.077,6.209,4,5.812,4
	c-0.8,0-1.519,0.2-2.219,0.5C1.794,5.4,0,8.006,0,9.906C0,11.006,0.513,12,4.312,12c0.045,0,0.081,0,0.125,0
	c-1.429,2.731,0.85,3.381,0.062,6.094c-0.4,1.4-0.3,3.2-0.5,3.5c-0.5,0.6-3-0.3-3,2C1,23.994,1.612,24,4.312,24
	C5.513,24,6.5,20.6,8,19c-1.2-6.1,4.787-6.013,6.188-3.312C11.288,14.188,9,15.912,9,17.812c0,2.8,3.8,3.487,5,3.688c-7,0-7,1.3-7,2
	C7,24,8.013,24,9.312,24c1.6,0,3.6-0.188,5-0.188S17.706,24,18.906,24c1.3,0,1.188-1.606,0.688-2.406
	c-0.308-0.572,0.144-0.938,0.719-1.438C20.781,20.685,21.692,21,22.5,21c0.8,0,1.5-0.7,1.5-1.5S23.307,18,22.406,18
	c-0.18,0-0.379,0.027-0.562,0.062C21.939,17.748,22,17.402,22,17c0-2.1-0.693-5.306-4.094-6.906C14.706,8.594,10.2,9.9,10,7.5
	c0-0.441-0.124-0.837-0.312-1.219c0.62-0.243,1.416-0.713,2.5-1.281C14.287,4,17.1,3.894,17,3.094C16.939,2.302,15.65,1.854,14,2
	c1.275-0.452,2.289-0.866,1.906-1.688C15.831,0.138,15.529,0.025,15.094,0z M4,6.906C4.6,6.906,5.094,7.4,5.094,8S4.6,9.094,4,9.094
	S2.906,8.6,2.906,8S3.4,6.906,4,6.906z"/>
</svg>
