<?xml version="1.0" encoding="utf-8"?>
<!-- Generator: Adobe Illustrator 16.0.0, SVG Export Plug-In . SVG Version: 6.00 Build 0)  -->
<!DOCTYPE svg PUBLIC "-//W3C//DTD SVG 1.1//EN" "http://www.w3.org/Graphics/SVG/1.1/DTD/svg11.dtd">
<svg version="1.1" id="Layer_1" xmlns="http://www.w3.org/2000/svg" xmlns:xlink="http://www.w3.org/1999/xlink" x="0px" y="0px"
	 width="26px" height="26px" viewBox="0 0 26 26" enable-background="new 0 0 26 26" xml:space="preserve">
<path fill="#F5F9FF" d="M23.5,0.062c-0.794,0-1.438,0.644-1.438,1.438L4.656,6.312C4.456,6.236,4.227,6.188,4,6.188
	C2.999,6.188,2.188,6.999,2.188,8c0,0.042-0.003,0.084,0,0.125C0.933,8.484,0,9.63,0,11v11c0,1.656,1.344,3,3,3h20
	c1.656,0,3-1.344,3-3V11c0-1.656-1.344-3-3-3H5.812c0-0.277-0.076-0.546-0.188-0.781l16.656-5c0.249,0.428,0.688,0.719,1.219,0.719
	c0.794,0,1.438-0.644,1.438-1.438S24.294,0.062,23.5,0.062z M17.5,10.812c3.137,0,5.688,2.555,5.688,5.688s-2.551,5.688-5.688,5.688
	c-3.134,0-5.688-2.555-5.688-5.688S14.366,10.812,17.5,10.812z M4.5,10.906c0.877,0,1.594,0.717,1.594,1.594
	S5.377,14.094,4.5,14.094c-0.878,0-1.594-0.717-1.594-1.594S3.622,10.906,4.5,10.906z M17.5,12.188c-0.938,0-1.793,0.306-2.5,0.812
	h5C19.293,12.493,18.438,12.188,17.5,12.188z M14,14c-0.219,0.307-0.398,0.643-0.531,1h8.062c-0.134-0.357-0.313-0.693-0.531-1H14z
	 M4.5,15.906c0.877,0,1.594,0.717,1.594,1.594S5.377,19.094,4.5,19.094c-0.878,0-1.594-0.717-1.594-1.594S3.622,15.906,4.5,15.906z
	 M13.25,16c-0.02,0.166-0.062,0.328-0.062,0.5s0.042,0.334,0.062,0.5h8.5c0.02-0.166,0.062-0.328,0.062-0.5S21.77,16.166,21.75,16
	H13.25z M13.469,18c0.134,0.357,0.312,0.693,0.531,1h7c0.219-0.307,0.398-0.643,0.531-1H13.469z M15,20
	c0.707,0.507,1.562,0.812,2.5,0.812S19.293,20.507,20,20H15z"/>
</svg>
