<?xml version="1.0" encoding="utf-8"?>
<!-- Generator: Adobe Illustrator 16.0.0, SVG Export Plug-In . SVG Version: 6.00 Build 0)  -->
<!DOCTYPE svg PUBLIC "-//W3C//DTD SVG 1.1//EN" "http://www.w3.org/Graphics/SVG/1.1/DTD/svg11.dtd">
<svg version="1.1" id="Layer_1" xmlns="http://www.w3.org/2000/svg" xmlns:xlink="http://www.w3.org/1999/xlink" x="0px" y="0px"
	 width="200px" height="200px" viewBox="0 0 200 200" enable-background="new 0 0 200 200" xml:space="preserve">
<path fill="#F5F9FF" d="M100,0c0,0-30.769,23.077-30.769,53.846c0,13.274,2.967,39.906,5.769,63.702l-13.461,17.067v19.23
	l16.827-6.73c0.844,3.738,3.923,6.73,7.692,6.73h26.923c3.847,0,6.924-3.125,7.692-6.971l17.788,6.971v-19.23l-13.941-17.308
	c3.047-23.75,6.25-50.233,6.25-63.461C130.77,23.077,100,0,100,0z M100,38.461c8.461,0,15.385,6.923,15.385,15.385
	S108.461,69.231,100,69.231c-8.461,0-15.385-6.923-15.385-15.385S91.539,38.461,100,38.461z M85.336,161.539
	c-1.539,3.076-2.164,6.057-2.164,9.134c0,10.77,15.385,29.327,15.385,29.327s15.385-18.558,15.385-29.327
	c1.538-3.077,0.577-6.058-0.962-9.134h-6.73c0.77,1.538,0.721,3.028,0.721,4.566c0,5.385-7.692,14.664-7.692,14.664
	s-7.692-9.279-7.692-14.664c0-1.538,0.721-3.028,0.721-4.566H85.336z"/>
</svg>
