<?xml version="1.0" encoding="utf-8"?>
<!-- Generator: Adobe Illustrator 16.0.0, SVG Export Plug-In . SVG Version: 6.00 Build 0)  -->
<!DOCTYPE svg PUBLIC "-//W3C//DTD SVG 1.1//EN" "http://www.w3.org/Graphics/SVG/1.1/DTD/svg11.dtd">
<svg version="1.1" id="Layer_1" xmlns="http://www.w3.org/2000/svg" xmlns:xlink="http://www.w3.org/1999/xlink" x="0px" y="0px"
	 width="200px" height="200px" viewBox="0 0 200 200" enable-background="new 0 0 200 200" xml:space="preserve">
<path fill="#F5F9FF" d="M81.49,0C69.183,0,53.846,5.385,53.846,15.385c-13.846,0-38.461,7.692-38.461,30.769V81.49
	c0,24.615-7.692,33.895-7.692,64.664c0,7.691,1.442,12.98,1.442,12.98s1.84,0.594,5.529,1.201c-4.277,4.15-6.971,9.924-6.971,16.587
	C7.692,190,17.692,200,30.769,200c13.077,0,23.077-10,23.077-23.077c0-5.971-2.258-11.115-5.769-15.144
	c4.019,0.138,7.498,0.506,11.058,0.721c-3.179,3.943-5.289,8.77-5.289,14.423c0,13.077,10,23.077,23.077,23.077
	C90,200,100,190,100,176.923c0-3.866-0.835-7.428-2.404-10.577c1.531,0.215,3.089,0.52,4.568,0.722
	c-1.364,2.982-2.164,6.267-2.164,9.855C100,190,110,200,123.077,200s23.077-10,23.077-23.077c0-2.908-0.529-5.646-1.443-8.173
	c1.043-0.088,1.879-0.377,2.885-0.48c-1.017,2.646-1.441,5.576-1.441,8.653c0,13.077,10,23.077,23.076,23.077
	c13.077,0,23.077-10,23.077-23.077c0-7.355-3.317-13.612-8.413-17.788c5.732-2.771,8.413-5.145,8.413-6.01
	c0-26.154-14.519-45.433-43.75-45.433c-11.538,0-39.423-10.817-47.115-30.048C96.058,63.029,100,23.125,100,10.817
	C100,5.433,93.798,0,81.49,0z M76.923,46.154c4.616,0,7.692,3.077,7.692,7.692s-3.077,7.692-7.692,7.692
	c-4.615,0-7.692-3.077-7.692-7.692S72.308,46.154,76.923,46.154z M80.769,76.923c4.616,0,7.692,3.077,7.692,7.692
	c0,4.616-3.077,7.692-7.692,7.692c-4.615,0-7.692-3.077-7.692-7.692C73.077,80,76.154,76.923,80.769,76.923z M96.154,100
	c4.616,0,7.692,3.077,7.692,7.692s-3.076,7.692-7.692,7.692c-4.615,0-7.692-3.077-7.692-7.692S91.539,100,96.154,100z
	 M123.077,115.385c4.615,0,7.692,3.076,7.692,7.692c0,4.615-3.077,7.692-7.692,7.692c-4.616,0-7.692-3.077-7.692-7.692
	C115.385,118.461,118.461,115.385,123.077,115.385z M30.769,169.23c4.616,0,7.692,3.077,7.692,7.692
	c0,4.616-3.077,7.692-7.692,7.692c-4.615,0-7.692-3.076-7.692-7.692C23.077,172.308,26.154,169.23,30.769,169.23z M76.923,169.23
	c4.616,0,7.692,3.077,7.692,7.692c0,4.616-3.077,7.692-7.692,7.692c-4.615,0-7.692-3.076-7.692-7.692
	C69.231,172.308,72.308,169.23,76.923,169.23z M123.077,169.23c4.615,0,7.692,3.077,7.692,7.692c0,4.616-3.077,7.692-7.692,7.692
	c-4.616,0-7.692-3.076-7.692-7.692C115.385,172.308,118.461,169.23,123.077,169.23z M169.23,169.23c4.615,0,7.692,3.077,7.692,7.692
	c0,4.616-3.077,7.692-7.692,7.692s-7.691-3.076-7.691-7.692C161.539,172.308,165.385,169.23,169.23,169.23z"/>
</svg>
