<?xml version="1.0" encoding="utf-8"?>
<!-- Generator: Adobe Illustrator 16.0.0, SVG Export Plug-In . SVG Version: 6.00 Build 0)  -->
<!DOCTYPE svg PUBLIC "-//W3C//DTD SVG 1.1//EN" "http://www.w3.org/Graphics/SVG/1.1/DTD/svg11.dtd">
<svg version="1.1" id="Layer_1" xmlns="http://www.w3.org/2000/svg" xmlns:xlink="http://www.w3.org/1999/xlink" x="0px" y="0px"
	 width="24px" height="24px" viewBox="0 0 24 24" enable-background="new 0 0 24 24" xml:space="preserve">
<path fill="#F5F9FF" d="M23.188,0l-1.094,1.094c-0.5,0.5-3.182,1.119-4.281,2.219c-0.7,0.7-1.019,1.975-1.219,2.875l-1.5,0.906
	l1.812,1.812l0.906-1.5c0.9-0.1,2.175-0.419,2.875-1.219c1.1-1.1,1.619-3.681,2.219-4.281c0.5-0.5,1.094-1,1.094-1L23.188,0z
	 M10.062,6.562L9.344,7.25L11,9l-1.219,1.219l0.5,0.5l-3.188,3.188l-0.375-0.375l-1.906,1.906l0.469,0.469L5.188,16
	c-0.3,0.3-1.487,2.388-1.688,2.688l-0.5,0.5l-2.281,1.594c-0.178-0.075-0.381-0.025-0.531,0.125c-0.2,0.1-0.2,0.494,0,0.594
	L2.5,23.812c0.1,0.2,0.494,0.2,0.594,0c0.169-0.17,0.18-0.402,0.062-0.594l1.219-1.656c0.038-0.027,0.09-0.027,0.125-0.062
	l0.906-0.906c0.2-0.2,1.172-0.75,1.906-1.188c0.27,0.02,0.463,0.15,0.594,0.281l2.594,2.625l1.594-1.625l-2.5-2.5
	c0,0-0.031-0.424,0-0.781l1.344-1.344c0.161-0.045,0.497-0.129,0.656,0.031l4.5,4.5l1.719-1.688l-3.25-3.219l0.656-0.656
	c0.408-0.408,0.52-0.961,0.438-1.438s-0.31-0.903-0.625-1.219l-0.5-0.5c0.41-0.671,0.855-1.392,0.969-1.562l0.594-0.625
	l-1.906-1.875c0,0-0.193,0.294-0.594,0.594c-0.125,0.125-0.57,0.399-1.062,0.688L10.062,6.562z M14.031,12.688l0.344,0.344
	l0.031,0.031c0.172,0.184,0.303,0.451,0.344,0.688c0.043,0.249,0.004,0.434-0.188,0.625l-0.094,0.094L13.938,15l-0.531-0.5
	c-0.168-0.111-0.217-0.306-0.188-0.5c0.199,0.008,0.496,0.096,0.688,0c0.2,0.1,0.281-0.112,0.281-0.312s-0.182-0.281-0.281-0.281
	c-0.181,0.018-0.337-0.006-0.469-0.031L13.812,13C13.859,12.953,13.947,12.81,14.031,12.688z"/>
</svg>
