<?xml version="1.0" encoding="utf-8"?>
<!-- Generator: Adobe Illustrator 16.0.0, SVG Export Plug-In . SVG Version: 6.00 Build 0)  -->
<!DOCTYPE svg PUBLIC "-//W3C//DTD SVG 1.1//EN" "http://www.w3.org/Graphics/SVG/1.1/DTD/svg11.dtd">
<svg version="1.1" id="Layer_1" xmlns="http://www.w3.org/2000/svg" xmlns:xlink="http://www.w3.org/1999/xlink" x="0px" y="0px"
	 width="50px" height="50px" viewBox="0 0 50 50" enable-background="new 0 0 50 50" xml:space="preserve">
<path fill="#F5F9FF" d="M25,0c-0.334,0-0.667,0.011-1,0.031V3c0,0.552-0.448,1-1,1s-1-0.448-1-1V0.281C19.225,0.799,17,2.048,17,4v6
	h16V7V4c0-1.952-2.227-3.201-5-3.719V3c0,0.552-0.447,1-1,1s-1-0.448-1-1V0.031C25.667,0.011,25.334,0,25,0z M17,12v2
	c0,3.277-1.748,5.79-3.781,8.688C10.776,26.172,8,30.1,8,36.188c0,5.889,4.954,10.865,9.594,13.562
	c0.152,0.09,0.323,0.156,0.5,0.156h13.719c0.173,0,0.318-0.039,0.469-0.125c4.645-2.637,9.625-7.613,9.625-13.594
	c0-6.169-2.754-10.12-5.188-13.625C34.728,19.695,33,17.212,33,14v-2H17z M24.688,25.906c0.8,0,1.525,0.081,2.125,0.281
	c0.7,0.2,1.188,0.508,1.688,0.906c0.5,0.4,0.888,0.9,1.188,1.5s0.4,1.294,0.5,2.094h-1.875c0.102-0.9-0.3-1.594-1-2.094
	s-1.5-0.688-2.5-0.688c-0.4,0-0.819-0.006-1.219,0.094S22.8,28.206,22.5,28.406c-0.3,0.199-0.612,0.481-0.812,0.781
	s-0.281,0.719-0.281,1.219s0.106,0.794,0.406,1.094s0.594,0.487,1.094,0.688s1,0.3,1.5,0.5c0.6,0.1,1.188,0.207,1.688,0.406
	c0.602,0.102,1.219,0.301,1.719,0.5c0.6,0.201,1.1,0.412,1.5,0.812c0.5,0.3,0.793,0.688,1.094,1.188
	c0.299,0.501,0.406,1.112,0.406,1.812c0,0.8-0.2,1.5-0.5,2c-0.4,0.6-0.807,1.006-1.406,1.406S27.7,41.394,27,41.594
	s-1.394,0.219-2.094,0.219c-0.8,0-1.606-0.112-2.406-0.312c-0.7-0.2-1.4-0.5-2-1c-0.6-0.4-1.013-0.994-1.312-1.594
	c-0.3-0.7-0.5-1.406-0.5-2.406h1.906c0,0.6,0.106,1.193,0.406,1.594c0.2,0.5,0.6,0.794,1,1.094s0.906,0.525,1.406,0.625
	S24.5,40,25,40c0.4,0,0.912,0.006,1.312-0.094c0.5-0.102,0.888-0.206,1.188-0.406c0.4-0.2,0.706-0.513,0.906-0.812
	c0.199-0.3,0.281-0.781,0.281-1.281s-0.075-0.912-0.375-1.312c-0.3-0.3-0.625-0.581-1.125-0.781s-1-0.398-1.5-0.5
	c-0.6-0.1-1.188-0.307-1.688-0.406c-0.6-0.102-1.188-0.301-1.688-0.5c-0.6-0.2-1.1-0.419-1.5-0.719
	c-0.5-0.3-0.825-0.693-1.125-1.094c-0.3-0.5-0.375-0.988-0.375-1.688c0-0.801,0.2-1.4,0.5-2C20.112,27.805,20.5,27.4,21,27
	s1.087-0.612,1.688-0.812S23.987,25.906,24.688,25.906z"/>
</svg>
