<?xml version="1.0" encoding="utf-8"?>
<!-- Generator: Adobe Illustrator 16.0.0, SVG Export Plug-In . SVG Version: 6.00 Build 0)  -->
<!DOCTYPE svg PUBLIC "-//W3C//DTD SVG 1.1//EN" "http://www.w3.org/Graphics/SVG/1.1/DTD/svg11.dtd">
<svg version="1.1" id="Layer_1" xmlns="http://www.w3.org/2000/svg" xmlns:xlink="http://www.w3.org/1999/xlink" x="0px" y="0px"
	 width="24px" height="24px" viewBox="0 0 24 24" enable-background="new 0 0 24 24" xml:space="preserve">
<path fill="#F5F9FF" d="M11.594,2C5.66,2,1.917,9.643,1.188,16.125H1.156l-0.188,1.062l-0.875,4.75l-0.156,0.875L0.781,23
	c0,0,4.192,1,9,1c4.824,0,9-1.125,9-1.125l0.844-0.219l-0.188-0.875L18.5,17.312l-0.219-1H18.25
	c-2.185-8.083-0.441-7.619,1.25-6.281C19.199,10.444,19,10.95,19,11.5c0,1.381,1.119,2.5,2.5,2.5s2.5-1.119,2.5-2.5S22.881,9,21.5,9
	c-0.076,0-0.145,0.024-0.219,0.031C20.289,5.878,17.186,2,11.594,2z M21.5,10.406c0.607,0,1.094,0.487,1.094,1.094
	s-0.486,1.094-1.094,1.094s-1.094-0.487-1.094-1.094S20.893,10.406,21.5,10.406z M2.594,18.531c1.11,0.332,3.449,0.938,7.188,0.938
	c3.742,0,6.021-0.525,7.094-0.812l0.562,2.625c-1.049,0.25-3.895,0.875-7.656,0.875c-3.804,0-6.695-0.566-7.719-0.781L2.594,18.531z
	"/>
</svg>
