<?xml version="1.0" encoding="utf-8"?>
<!-- Generator: Adobe Illustrator 16.0.0, SVG Export Plug-In . SVG Version: 6.00 Build 0)  -->
<!DOCTYPE svg PUBLIC "-//W3C//DTD SVG 1.1//EN" "http://www.w3.org/Graphics/SVG/1.1/DTD/svg11.dtd">
<svg version="1.1" id="Layer_1" xmlns="http://www.w3.org/2000/svg" xmlns:xlink="http://www.w3.org/1999/xlink" x="0px" y="0px"
	 width="50px" height="50px" viewBox="0 0 50 50" enable-background="new 0 0 50 50" xml:space="preserve">
<path fill="#F5F9FF" d="M43.5,0.688L16.406,20.062c0.28,0.194,0.516,0.435,0.719,0.719l8.531,11.906l0.688,0.969l-0.5,1.062
	l-4.688,9.844c-0.236,0.498-0.551,0.787-0.75,0.969l-0.062,0.062v0.031c-0.073,0.062-0.201,0.146-0.375,0.25l-0.594,0.438L19.844,47
	l3.906-0.094l0.094-3.344L26.25,43.5l0.094-3.312l2.438-0.062l0.094-3.344l2.406-0.062l0.094-3.312l2.438-0.062L33.906,30
	l2.406-0.062l0.094-3.312l2.438-0.062l0.094-3.344l2.406-0.062l0.094-3.312l2.438-0.062l0.062-3.312l2.438-0.062l0.094-3.344
	L48.875,13L49,8.375L43.5,0.688z M14.469,21.531c-0.127,0.028-0.231,0.076-0.344,0.156L1.844,30.469
	c-0.093,0.066-0.4,0.294-0.625,0.719c-0.351,0.664-0.273,1.416,0.188,2.062l0.562,0.812c0.461,0.646,1.165,0.96,1.906,0.844
	c0.475-0.075,0.823-0.316,0.906-0.375c0.383-0.26,0.935-0.409,1.406,0.25l5.25,7.344c0.47,0.657,0.109,1.135-0.25,1.406
	c-0.093,0.066-0.401,0.295-0.625,0.719c-0.352,0.664-0.305,1.416,0.156,2.062l0.594,0.812c0.066,0.094,0.326,0.432,0.75,0.656
	C12.347,47.93,12.638,48,12.938,48c0.402,0,0.817-0.143,1.188-0.406l4.844-3.469L19,44.094c0.175-0.161,0.268-0.216,0.344-0.375
	l4.688-9.875L15.5,21.938C15.258,21.599,14.85,21.446,14.469,21.531z M11.906,28.312c0.382-0.086,0.79,0.037,1.031,0.375l5.25,7.375
	c0.322,0.451,0.232,1.053-0.219,1.375L15.5,39.219c-0.451,0.32-1.053,0.201-1.375-0.25l-5.25-7.344
	c-0.322-0.451-0.232-1.084,0.219-1.406l2.438-1.75C11.644,28.389,11.779,28.341,11.906,28.312z"/>
</svg>
