<svg xmlns="http://www.w3.org/2000/svg" width="50" height="50" viewBox="0 0 50 50">    <path d="M 43.5 0.6875 L 16.40625 20.0625 C 16.68625 20.2565 16.922 20.49725 17.125 20.78125 L 25.65625 32.6875 L 26.34375 33.65625 L 25.84375 34.71875 L 21.15625 44.5625 C 20.92025 45.0605 20.60525 45.34925 20.40625 45.53125 L 20.34375 45.59375 L 20.34375 45.625 C 20.27075 45.688 20.14275 45.772 19.96875 45.875 L 19.375 46.3125 L 19.84375 47 L 23.75 46.90625 L 23.84375 43.5625 L 26.25 43.5 L 26.34375 40.1875 L 28.78125 40.125 L 28.875 36.78125 L 31.28125 36.71875 L 31.375 33.40625 L 33.8125 33.34375 L 33.90625 30 L 36.3125 29.9375 L 36.40625 26.625 L 38.84375 26.5625 L 38.9375 23.21875 L 41.34375 23.15625 L 41.4375 19.84375 L 43.875 19.78125 L 43.9375 16.46875 L 46.375 16.40625 L 46.46875 13.0625 L 48.875 13 L 49 8.375 L 43.5 0.6875 z M 14.46875 21.53125 C 14.341594 21.559734 14.23775 21.607 14.125 21.6875 L 1.84375 30.46875 C 1.75075 30.53475 1.44375 30.7625 1.21875 31.1875 C 0.86775 31.8515 0.94525 32.604 1.40625 33.25 L 1.96875 34.0625 C 2.42975 34.7085 3.134 35.02225 3.875 34.90625 C 4.35 34.83125 4.69825 34.59025 4.78125 34.53125 C 5.16425 34.27125 5.7165 34.12225 6.1875 34.78125 L 11.4375 42.125 C 11.9075 42.782 11.5465 43.25925 11.1875 43.53125 C 11.0945 43.59725 10.7865 43.826 10.5625 44.25 C 10.2105 44.914 10.25775 45.6665 10.71875 46.3125 L 11.3125 47.125 C 11.3785 47.219 11.6385 47.55625 12.0625 47.78125 C 12.3465 47.93025 12.6375 48 12.9375 48 C 13.3395 48 13.755 47.85775 14.125 47.59375 L 18.96875 44.125 L 19 44.09375 C 19.175 43.93275 19.26775 43.87775 19.34375 43.71875 L 24.03125 33.84375 L 15.5 21.9375 C 15.25775 21.59925 14.850219 21.445797 14.46875 21.53125 z M 11.90625 28.3125 C 12.287953 28.226766 12.696 28.34925 12.9375 28.6875 L 18.1875 36.0625 C 18.5095 36.5135 18.41975 37.1155 17.96875 37.4375 L 15.5 39.21875 C 15.049 39.53975 14.447 39.41975 14.125 38.96875 L 8.875 31.625 C 8.553 31.174 8.64275 30.54075 9.09375 30.21875 L 11.53125 28.46875 C 11.644 28.38825 11.779016 28.341078 11.90625 28.3125 z"></path></svg>