<?xml version="1.0" encoding="utf-8"?>
<!-- Generator: Adobe Illustrator 16.0.0, SVG Export Plug-In . SVG Version: 6.00 Build 0)  -->
<!DOCTYPE svg PUBLIC "-//W3C//DTD SVG 1.1//EN" "http://www.w3.org/Graphics/SVG/1.1/DTD/svg11.dtd">
<svg version="1.1" id="Layer_1" xmlns="http://www.w3.org/2000/svg" xmlns:xlink="http://www.w3.org/1999/xlink" x="0px" y="0px"
	 width="50px" height="50px" viewBox="0 0 50 50" enable-background="new 0 0 50 50" xml:space="preserve">
<path fill="#F5F9FF" d="M16.031,0c-1.296-0.031-2.536,0.55-3.531,1.656c-1.133,1.259-1.935,2.977-2.719,4.656
	C8.909,8.179,8.079,9.95,7,10.656v5.281c4.279-0.512,6.172-4.259,7.219-6.344c0.047-0.094,0.076-0.213,0.125-0.312
	c1.558,4.099,10.934,28.752,10.938,28.75c0.038,0.139,3.323,11.812,12.75,11.812c0.451,0,0.896-0.037,1.375-0.094
	c3.027-0.35,4.119-0.949,6.281-2.844C47.992,44.893,49.004,43.534,49,39c0-1.725-0.857-3.941-1.781-6.281
	c-0.846-2.141-1.738-4.351-1.625-5.562c0.29-2.959,0.932-3.125,1.5-3.281c2.189-0.597,2.66-1.596,2.656-2.312
	c-0.003-0.448-0.229-1.537-2.25-2.062c-2.006-0.521-11.721-3.544-13.344-4.094c-1.361-0.454-2.518-0.221-3,0.594
	c-0.791,1.329,0.791,2.823,1.312,3.312c1.229,1.153,1.242,2.467,1.25,4.281c0.004,1.163,0.022,2.467,0.406,3.875
	c0.553,1.993,1.521,4.816,4.219,9c0.562,0.877,0.821,1.686,0.688,2.219c-0.042,0.17-0.145,0.44-0.531,0.656
	c-0.166,0.092-0.307,0.11-0.469,0.062c-0.473-0.137-1.065-0.805-1.531-1.656c-0.057-0.124-2.411-5.301-5.25-11.562
	c-0.326,0.543-0.779,0.966-0.781,0.969c-0.341,0.318-0.734,0.594-1.125,0.781c-1.33,0.639-2.234,0.053-2.719-0.969
	c-0.491-1.02-0.356-2.115,0.969-2.75c0.415-0.199,0.876-0.318,1.344-0.375c0,0,0.631-0.059,1.281,0.062
	c-0.562-1.243-1.148-2.489-1.719-3.75c-0.318,0.547-0.753,0.943-0.781,0.969c-0.341,0.319-0.734,0.625-1.125,0.812
	c-1.329,0.639-2.234,0.052-2.719-0.969c-0.491-1.02-0.388-2.115,0.938-2.75c0.415-0.199,0.877-0.318,1.344-0.375
	c0,0,0.678-0.069,1.344,0.062c-0.587-1.296-1.168-2.563-1.719-3.781c-0.328,0.571-0.777,1.028-0.781,1.031h-0.031
	c-0.341,0.319-0.703,0.594-1.094,0.781c-1.329,0.639-2.265,0.052-2.75-0.969c-0.491-1.02-0.356-2.115,0.969-2.75
	c0.415-0.199,0.877-0.318,1.344-0.375c0,0,0.672-0.043,1.344,0.094c-1.713-3.786-3.023-6.761-3.438-7.688
	c-1.041-2.329-2.826-3.884-4.75-4.188C16.406,0.033,16.216,0.004,16.031,0z M2.344,10.25c-0.251,0.03-0.485,0.162-0.656,0.375
	l-1.406,1.719c-0.223,0.278-0.285,0.668-0.156,1C0.223,13.597,1.167,15.656,5,15.969V11c-0.65-0.042-1.46-0.161-1.938-0.531
	C2.847,10.302,2.595,10.22,2.344,10.25z M39.844,26.125c0.576-0.072,1.181,0.123,1.594,0.594c0.656,0.75,0.596,1.908-0.156,2.562
	c-0.751,0.656-1.904,0.563-2.562-0.188c-0.652-0.75-0.564-1.872,0.188-2.531C39.188,26.317,39.498,26.168,39.844,26.125z
	 M42.375,31.938c0.576-0.072,1.181,0.125,1.594,0.594c0.656,0.752,0.562,1.908-0.188,2.562c-0.756,0.658-1.877,0.589-2.531-0.156
	c-0.654-0.75-0.599-1.904,0.156-2.562C41.686,32.129,42.029,31.98,42.375,31.938z"/>
</svg>
