<svg xmlns="http://www.w3.org/2000/svg" width="50" height="50" viewBox="0 0 50 50">    <path d="M 39.28125 0 C 37.658645 0.063341797 36.42775 0.488375 33.9375 2.9375 C 33.4885 3.3505 22.9265 13.08 21.1875 16.375 C 19.8265 18.957 18.23675 21.633 16.84375 24 C 15.90475 25.596 15.036 27.1025 14.375 28.3125 C 11.795 33.0225 10.969 36.59575 11.875 39.21875 C 12.1605 40.04575 12.631375 40.755 13.25 41.375 C 13.255205 41.382228 13.24458 41.39913 13.25 41.40625 C 13.426 41.63625 13.435 41.617 13.25 42.625 L 13.125 43.28125 C 12.755 45.37725 13.324 47.54075 14.625 48.84375 C 14.969 49.19075 15.77125 50 16.78125 50 C 17.24125 50 17.68125 49.82 18.03125 49.5 C 19.25725 48.376 18.47125 47.1085 17.90625 46.1875 C 17.80125 45.9935 17.635 45.152 17.75 44.5 C 17.817637 44.11447 17.993302 43.741446 18.71875 43.5 C 21.441405 43.334253 23.720192 41.3947 25.1875 37.96875 C 26.1685 35.68075 26.4345 33.51375 25.9375 31.71875 C 25.4175 29.84175 24.10125 28.3955 22.15625 27.5625 C 22.06125 27.5205 22.017 27.486 22 27.5 C 22.008 27.47 22.031 27.386 22.125 27.25 C 23.299 25.569 24.30075 24.842 25.46875 24 C 26.97375 22.914 28.6885 21.677 30.9375 18.25 L 40.875 1.5 C 41.059 1.191 41.053 0.812 40.875 0.5 C 40.697 0.188 40.359 7.4014868e-17 40 0 C 39.747 0 39.513051 -0.0090488281 39.28125 0 z M 8.34375 13 C 3.19175 13 0 15.63925 0 19.90625 C 0 24.60525 3.2585 27 9.6875 27 C 10.6845 27 11.777 26.95175 12.875 26.84375 C 12.879 26.84375 12.90025 26.84375 12.90625 26.84375 C 13.55325 25.68375 14.342 24.33 15.125 23 C 15.73 21.972 16.38925 20.863 17.03125 19.75 C 16.94125 15.642 13.54275 13 8.34375 13 z M 49.0625 13 C 48.988125 12.995797 48.9185 13.01825 48.84375 13.03125 L 34.96875 15.375 L 32.65625 19.28125 L 32.625 19.3125 L 32.59375 19.375 C 30.14275 23.11 28.22225 24.496 26.65625 25.625 C 26.63325 25.642 26.5855 25.6705 26.5625 25.6875 C 33.6015 24.3035 46.5515 18.001 47.0625 17.75 C 49.8455 16.537 49.995 14.1635 50 14.0625 C 50.015 13.7585 49.88325 13.452 49.65625 13.25 C 49.486 13.09775 49.285625 13.012609 49.0625 13 z M 8.5 17 C 12.998 17 13 19.257 13 20 C 13 20.744 12.998 23 8.5 23 C 3.998 23 4 20.744 4 20 C 4 19.257 3.998 17 8.5 17 z M 21 22 C 21.553 22 22 22.447 22 23 C 22 23.553 21.553 24 21 24 C 20.447 24 20 23.553 20 23 C 20 22.447 20.447 22 21 22 z M 19.375 30.90625 C 19.921902 30.887729 20.34325 31.081375 20.59375 31.1875 C 21.26275 31.4745 23.3035 32.35225 21.5625 36.40625 C 19.8205 40.45625 17.792 39.5985 17.125 39.3125 C 16.456 39.0255 14.41825 38.14975 16.15625 34.09375 C 17.245 31.56 18.463496 30.937119 19.375 30.90625 z"></path></svg>