<?xml version="1.0" encoding="utf-8"?>
<!-- Generator: Adobe Illustrator 16.0.0, SVG Export Plug-In . SVG Version: 6.00 Build 0)  -->
<!DOCTYPE svg PUBLIC "-//W3C//DTD SVG 1.1//EN" "http://www.w3.org/Graphics/SVG/1.1/DTD/svg11.dtd">
<svg version="1.1" id="Layer_1" xmlns="http://www.w3.org/2000/svg" xmlns:xlink="http://www.w3.org/1999/xlink" x="0px" y="0px"
	 width="50px" height="50px" viewBox="0 0 50 50" enable-background="new 0 0 50 50" xml:space="preserve">
<path fill="#F5F9FF" d="M39.281,0c-1.623,0.063-2.854,0.488-5.344,2.938c-0.449,0.413-11.011,10.143-12.75,13.438
	c-1.361,2.582-2.951,5.258-4.344,7.625c-0.939,1.596-1.808,3.103-2.469,4.312c-2.58,4.71-3.406,8.283-2.5,10.906
	c0.286,0.827,0.756,1.536,1.375,2.156c0.005,0.008-0.005,0.023,0,0.031c0.176,0.23,0.185,0.211,0,1.219l-0.125,0.656
	c-0.37,2.096,0.199,4.26,1.5,5.562C14.969,49.191,15.771,50,16.781,50c0.46,0,0.9-0.18,1.25-0.5c1.226-1.124,0.44-2.392-0.125-3.312
	c-0.105-0.193-0.271-1.035-0.156-1.688c0.068-0.386,0.243-0.759,0.969-1c2.723-0.166,5.001-2.105,6.469-5.531
	c0.98-2.288,1.247-4.455,0.75-6.25c-0.52-1.877-1.836-3.323-3.781-4.156C22.061,27.521,22.017,27.486,22,27.5
	c0.008-0.029,0.031-0.114,0.125-0.25c1.174-1.682,2.176-2.408,3.344-3.25c1.505-1.086,3.22-2.323,5.469-5.75L40.875,1.5
	c0.184-0.309,0.178-0.688,0-1S40.359,0,40,0C39.747,0,39.514-0.009,39.281,0z M8.344,13C3.192,13,0,15.639,0,19.906
	C0,24.605,3.258,27,9.688,27c0.997,0,2.089-0.049,3.188-0.156c0.004,0,0.025,0,0.031,0c0.647-1.16,1.436-2.514,2.219-3.844
	c0.605-1.028,1.264-2.137,1.906-3.25C16.941,15.642,13.543,13,8.344,13z M49.062,13c-0.074-0.004-0.145,0.018-0.219,0.031
	l-13.875,2.344l-2.312,3.906l-0.031,0.031l-0.031,0.062c-2.451,3.735-4.371,5.121-5.938,6.25c-0.023,0.018-0.07,0.045-0.094,0.062
	c7.039-1.384,19.988-7.687,20.5-7.938c2.783-1.213,2.933-3.586,2.938-3.688c0.016-0.304-0.117-0.61-0.344-0.812
	C49.486,13.098,49.285,13.013,49.062,13z M8.5,17c4.498,0,4.5,2.257,4.5,3c0,0.744-0.002,3-4.5,3C3.998,23,4,20.744,4,20
	C4,19.257,3.998,17,8.5,17z M21,22c0.553,0,1,0.447,1,1s-0.447,1-1,1s-1-0.447-1-1S20.447,22,21,22z M19.375,30.906
	c0.547-0.019,0.968,0.176,1.219,0.281c0.669,0.287,2.71,1.164,0.969,5.219c-1.742,4.05-3.771,3.192-4.438,2.906
	c-0.669-0.287-2.707-1.162-0.969-5.219C17.245,31.561,18.463,30.938,19.375,30.906z"/>
</svg>
