<?xml version="1.0" encoding="utf-8"?>
<!-- Generator: Adobe Illustrator 16.0.0, SVG Export Plug-In . SVG Version: 6.00 Build 0)  -->
<!DOCTYPE svg PUBLIC "-//W3C//DTD SVG 1.1//EN" "http://www.w3.org/Graphics/SVG/1.1/DTD/svg11.dtd">
<svg version="1.1" id="Layer_1" xmlns="http://www.w3.org/2000/svg" xmlns:xlink="http://www.w3.org/1999/xlink" x="0px" y="0px"
	 width="50px" height="50px" viewBox="0 0 50 50" enable-background="new 0 0 50 50" xml:space="preserve">
<path fill="#F5F9FF" d="M44.406,1c-2.521,0-8.77,2.594-13.469,7.281c-2.139,2.135-2.9,4.51-3.469,6.25
	c-0.27,0.821-0.545,1.604-0.781,1.844c-0.268,0.173-1.393,0.224-2,0.25c-1.236,0.054-2.193,0.1-2.75,0.656
	C21.121,18.096,20.97,18.9,21,19.438c0.061,1.11,0.865,1.864,1.094,2.062l6.344,6.312C28.674,28.148,29.369,29,30.531,29
	c0.734,0,1.447-0.355,2.125-1.031c0.564-0.562,0.586-1.49,0.625-2.688c0.02-0.619,0.062-1.778,0.25-2.031
	c0.499-0.498,1.643-0.929,2.844-1.375c1.794-0.666,3.832-1.397,5.312-2.875C46.399,14.301,48.999,8.072,49,5.562
	c0-0.672-0.154-1.186-0.5-1.531l-2.531-2.5C45.619,1.183,45.096,1,44.406,1z M20.688,22.938l-0.344,0.312
	c-0.188,0.188-0.281,0.454-0.281,0.719s0.093,0.532,0.281,0.719l4.969,4.969c0.188,0.188,0.453,0.281,0.719,0.281
	s0.531-0.094,0.719-0.281l0.312-0.312c-0.055-0.066-0.11-0.158-0.156-0.219l-6.188-6.156C20.709,22.96,20.699,22.947,20.688,22.938z
	 M19.438,26.594L7.875,38.156l-3.25,1.406l-3.125,5c-0.268,0.312-0.438,0.709-0.438,1.125c0,0.46,0.207,0.864,0.531,1.188l1.5,1.531
	c0.325,0.325,0.758,0.531,1.219,0.531c0.415,0,0.813-0.172,1.125-0.438l5-3.156l1.438-3.25l11.531-11.531L19.438,26.594z"/>
</svg>
