<?xml version="1.0" encoding="utf-8"?>
<!-- Generator: Adobe Illustrator 16.0.0, SVG Export Plug-In . SVG Version: 6.00 Build 0)  -->
<!DOCTYPE svg PUBLIC "-//W3C//DTD SVG 1.1//EN" "http://www.w3.org/Graphics/SVG/1.1/DTD/svg11.dtd">
<svg version="1.1" id="Layer_1" xmlns="http://www.w3.org/2000/svg" xmlns:xlink="http://www.w3.org/1999/xlink" x="0px" y="0px"
	 width="24px" height="24px" viewBox="0 0 24 24" enable-background="new 0 0 24 24" xml:space="preserve">
<path fill="#F5F9FF" d="M16.5,17c-1.6,0-2.5,0.5-2.5,2.2c0,1.1,1.4,2,2.4,1.6c0.1,0,0.199-0.2,0.1-0.2C15.8,20.5,15,20,15,19.2
	c0-0.9,1-1.2,1.7-1.2s1.7,0.6,1.7,1.9c0,1.3-1.5,2.399-2.7,2.399S13,21.7,13,18.9c0-3.9,4.1-2.4,4.1-7c0-3.8-7.2-4.5-7.2-7.1
	C10,5.3,11,6,11.9,6.3c1.5,0.5,3.3-0.2,4.7,1.1C17,7.8,18.5,6,17.7,5.2c0,0-2.3-0.3-3.2-2.1c-0.1-0.2-0.3-0.9,0.3-1.6
	c0.2-0.2,0-0.3-0.1-0.3c-0.7,0-1.3,0.4-1.5,0.6C12.8,1.5,12.1,0,12.1,0s-6,0.2-6,4.9c0,2.6,1.2,4.8,1.2,5.1c-0.5,0.2-2-1.3-2.6-1.8
	C4.5,8,4.2,8,3.9,8.1C3.6,8.4,3,8.9,3,11.9c0,2.5,2.5,4.8,3.1,5.1c0.2,0.1,0.6,0,0.6-0.2C7,15.9,7.6,12.9,8.6,12.9
	C9.4,13.9,9,14,9,18.4c0,4.1,2.7,5.6,6.3,5.6c3.3,0,4.7-2.2,4.7-4C20,18.1,18.1,17,16.5,17z M13,3.5c0.3,0,0.5,0.2,0.5,0.5
	S13.3,4.5,13,4.5S12.5,4.3,12.5,4S12.7,3.5,13,3.5z"/>
</svg>
