<?xml version="1.0" encoding="utf-8"?>
<!-- Generator: Adobe Illustrator 16.0.0, SVG Export Plug-In . SVG Version: 6.00 Build 0)  -->
<!DOCTYPE svg PUBLIC "-//W3C//DTD SVG 1.1//EN" "http://www.w3.org/Graphics/SVG/1.1/DTD/svg11.dtd">
<svg version="1.1" id="Layer_1" xmlns="http://www.w3.org/2000/svg" xmlns:xlink="http://www.w3.org/1999/xlink" x="0px" y="0px"
	 width="50px" height="50px" viewBox="0 0 50 50" enable-background="new 0 0 50 50" xml:space="preserve">
<path fill="#F5F9FF" d="M17.75,5c-2.417,0-4.314,1.517-5.094,3.969c-0.7-0.291-1.425-0.438-2.188-0.438
	c-1.961,0-3.832,0.988-4.875,2.594c-0.694,1.067-0.951,2.268-0.781,3.5H4.781C1.525,14.625,0,17.544,0,19.5
	c0,2.104,1.088,3.795,2.938,4.656c-1.163,2.091-0.707,3.764-0.281,4.656c0.891,1.859,3.066,3.156,5.281,3.156
	C8.303,31.968,8.656,31.945,9,31.875c0.242,0.909,0.739,1.797,1.469,2.562c1.176,1.232,2.782,1.938,4.375,1.938
	c1.31,0,3.151-0.473,4.969-2.469c1.338,2.247,3.498,3.095,5.281,3.094c2.38,0,4.376-1.332,5.25-3.281
	c0.865,0.607,1.864,0.938,2.906,0.938c2.158,0,4.083-1.342,5.031-3.281c-2.229-0.637-3.926-1.771-5.062-3.375
	c-1.171-1.65-1.617-3.671-1.344-5.938c-1.201-0.873-2.211-2.071-2.812-3c-0.502-0.778-0.645-1.72-0.344-2.594
	c0.688-2.003,2.725-3.25,5.312-3.25c0.996,0,2.072,0.183,3.125,0.531c0.747-0.185,1.48-0.283,2.219-0.344
	c-1.12-2.232-3.585-3.938-6.125-3.938c-0.557,0-1.104,0.062-1.625,0.219c-0.184-1.125-0.648-2.079-1.375-2.844
	c-1.027-1.083-2.555-1.719-4.219-1.719c-1.668,0-3.165,0.589-4.125,1.562C20.723,5.603,19.258,5,17.75,5z M34.031,15.219
	c-1.732,0-2.999,0.719-3.406,1.906c-0.1,0.29-0.072,0.587,0.094,0.844c0.674,1.042,2.012,2.486,3.375,3.062
	c-0.572,2.29-0.333,4.287,0.75,5.812C36.328,28.934,39.179,30,43.312,30h0.25c1.332,0,3.809,0.005,5-1.5
	c0.518-0.652,0.697-1.481,0.562-2.438c0.949-1.545,0.93-3.617-0.062-5.625c-1.534-3.109-4.904-5.094-8.594-5.094
	c-1.107,0-2.256,0.161-3.406,0.5C36.031,15.434,34.987,15.219,34.031,15.219z M44,22c0.553,0,1,0.448,1,1s-0.447,1-1,1s-1-0.448-1-1
	S43.447,22,44,22z M5.125,33.438C5.54,38.932,6.735,43.957,7,45.031C7.233,45.98,7.573,47,8.781,47h0.781
	c0.382,0,0.759-0.155,1.031-0.438c0.382-0.396,0.56-1.012,0.531-1.812c-0.019-0.514-0.095-3.913-0.125-7.406
	c-0.715-0.4-1.385-0.92-1.969-1.531c-0.537-0.562-0.995-1.187-1.344-1.844C6.801,33.941,5.938,33.739,5.125,33.438z M34.969,36.438
	c-0.559,0.137-1.138,0.219-1.719,0.219c-0.243,0-0.479-0.037-0.719-0.062c-0.159,3.795-0.404,7.373-0.438,7.844
	c-0.027,0.928-0.209,1.662-0.469,2.281C31.891,46.898,32.191,47,32.562,47h0.531c1.617,0,1.662-1.805,1.688-2.875
	C34.809,42.986,34.906,39.127,34.969,36.438z M30.5,36.875c-1.402,1.318-3.318,2.109-5.375,2.125
	c0.168,2.547,0.465,4.195,0.688,5.219c0.035,0.162,0.062,0.306,0.094,0.438c0.006,0.025,0.025,0.037,0.031,0.062
	c0.027,0.114,0.039,0.221,0.062,0.312C26.234,45.98,26.604,47,27.812,47h0.625c1.004,0,1.614-0.977,1.656-2.656
	c0.002-0.027,0.084-1.262,0.188-3.031C30.356,40.041,30.43,38.49,30.5,36.875z M18.125,37.625c-1.235,0.568-2.377,0.75-3.281,0.75
	c-0.656,0-1.333-0.111-1.969-0.281c0.286,2.043,0.714,4.826,1.156,6.812C14.171,45.53,14.523,47,15.938,47h0.938
	c0.357,0,0.688-0.139,0.938-0.406c0.544-0.582,0.585-1.723,0.531-2.531L18.125,37.625z"/>
</svg>
