<?xml version="1.0" encoding="utf-8"?>
<!-- Generator: Adobe Illustrator 16.0.0, SVG Export Plug-In . SVG Version: 6.00 Build 0)  -->
<!DOCTYPE svg PUBLIC "-//W3C//DTD SVG 1.1//EN" "http://www.w3.org/Graphics/SVG/1.1/DTD/svg11.dtd">
<svg version="1.1" id="Layer_1" xmlns="http://www.w3.org/2000/svg" xmlns:xlink="http://www.w3.org/1999/xlink" x="0px" y="0px"
	 width="50px" height="50px" viewBox="0 0 50 50" enable-background="new 0 0 50 50" xml:space="preserve">
<path fill="#F5F9FF" d="M39.906,2c-2.346,0-3.487,3.559-2.438,9.469c0.425-0.122,0.88-0.223,1.344-0.281
	C37.873,4.09,41.461,7.148,42,4.094C42.2,2.894,41.206,2,39.906,2z M47.562,4.031c-1.844,0.174-3.81,2.687-5.281,7.312
	c0.484,0.105,0.952,0.239,1.406,0.406c2.414-6.592,4.123-2.154,6-4.656c0.7-0.9,0.225-2.181-0.875-2.781
	C48.406,4.102,47.988,3.991,47.562,4.031z M40,13.094c-4.811,0-7,4.193-7,8.094C33,35.34,14.217,39.186,5.188,41.031
	C1.105,41.865,0,42.108,0,43.312C0,47.881,20.813,48,23.188,48C43.312,48,43.979,33.111,44,26.719c2.384-1.338,4-3.884,4-6.406
	C48,16.342,44.411,13.094,40,13.094z"/>
</svg>
