<?xml version="1.0" encoding="utf-8"?>
<!-- Generator: Adobe Illustrator 16.0.0, SVG Export Plug-In . SVG Version: 6.00 Build 0)  -->
<!DOCTYPE svg PUBLIC "-//W3C//DTD SVG 1.1//EN" "http://www.w3.org/Graphics/SVG/1.1/DTD/svg11.dtd">
<svg version="1.1" id="Layer_1" xmlns="http://www.w3.org/2000/svg" xmlns:xlink="http://www.w3.org/1999/xlink" x="0px" y="0px"
	 width="26px" height="26px" viewBox="0 0 26 26" enable-background="new 0 0 26 26" xml:space="preserve">
<path fill="#F5F9FF" d="M20.5,1C19.7,1,19,1.7,19,2.5c0,1.6,0.794,2.987,1.094,3.688c0.3-0.1,0.7-0.188,1-0.188
	c-0.1-0.5-0.381-1.3-0.281-2C21.513,3.8,22,3.2,22,2.5C22,1.7,21.3,1,20.5,1z M24.5,1c-1.8,0-1.894,2.294-2.094,5.094
	C22.807,6.194,23.2,6.3,23.5,6.5c0-1.1,0.193-1.894,0.594-2.594h0.312C25.307,4.006,26,3.3,26,2.5S25.3,1,24.5,1z M8.5,6.938
	c-4.722,0-8.562,3.84-8.562,8.562c0,2.768,1.332,5.215,3.375,6.781C1.501,22.396,0,22.502,0,23c0,1,4.8,2,12,2
	c10.449,0,10.995-7.428,11-11.344c1.188-0.56,2-1.757,2-3.156C25,8.567,23.434,7,21.5,7S18,8.567,18,10.5
	c0,1.829-0.336,3.771-0.969,5.5c0.01-0.166,0.031-0.331,0.031-0.5C17.062,10.778,13.222,6.938,8.5,6.938z M8.5,9.062
	c3.562,0,6.438,2.875,6.438,6.438c0,2.342-1.26,4.374-3.125,5.5C12.543,19.948,13,18.742,13,17.5c0-1.916-0.648-3.353-1.594-4.25
	S9.307,12,8.312,12C6.368,12,5,13.509,5,15.094C5,16.739,6.415,18,8,18c0.552,0.008,1.006-0.434,1.014-0.986
	C9.022,16.462,8.581,16.008,8.028,16C8.019,16,8.009,16,8,16c-0.615,0-1-0.352-1-0.906C7,14.479,7.257,14,8.312,14
	c0.505,0,1.189,0.186,1.719,0.688S11,16.016,11,17.5c0,0.93-0.481,2.096-1.281,2.969c-0.4,0.437-0.849,0.781-1.344,1.031
	c-0.043,0.019-0.08,0.045-0.125,0.062c-0.05,0.023-0.105,0.041-0.156,0.062c-0.245,0.087-0.499,0.154-0.781,0.219
	c-2.998-0.551-5.25-3.184-5.25-6.344C2.062,11.938,4.938,9.062,8.5,9.062z"/>
</svg>
