<svg xmlns="http://www.w3.org/2000/svg" width="24" height="24" viewBox="0 0 24 24">    <path d="M 11 0 L 11.15625 3.65625 L 9.71875 1.28125 L 8.28125 2.71875 L 11.25 5.6875 L 11.25 6.03125 L 9.53125 7.75 L 7.21875 8.375 L 6.875 8.15625 L 5.8125 4.15625 L 3.875 4.65625 L 5.21875 7.09375 L 2.09375 5.125 L 1.09375 6.875 L 4.34375 8.5625 L 1.59375 8.625 L 2.09375 10.5625 L 6.09375 9.5 L 6.46875 9.6875 L 7.09375 12 L 6.46875 14.3125 L 6.09375 14.5 L 2.09375 13.4375 L 1.59375 15.375 L 4.34375 15.4375 L 1.09375 17.125 L 2.09375 18.875 L 5.21875 16.90625 L 3.875 19.34375 L 5.8125 19.84375 L 6.875 15.84375 L 7.21875 15.625 L 9.5625 16.25 L 11.25 17.9375 L 11.25 18.3125 L 8.28125 21.28125 L 9.71875 22.71875 L 11.15625 20.34375 L 11 24 L 13 24 L 12.84375 20.34375 L 14.28125 22.71875 L 15.71875 21.28125 L 12.75 18.3125 L 12.75 17.96875 L 14.46875 16.25 L 16.78125 15.625 L 17.125 15.84375 L 18.1875 19.84375 L 20.125 19.34375 L 18.78125 16.90625 L 21.90625 18.875 L 22.90625 17.125 L 19.65625 15.4375 L 22.40625 15.375 L 21.90625 13.4375 L 17.90625 14.5 L 17.53125 14.3125 L 16.90625 12 L 17.53125 9.6875 L 17.90625 9.5 L 21.90625 10.5625 L 22.40625 8.625 L 19.65625 8.5625 L 22.90625 6.875 L 21.90625 5.125 L 18.78125 7.09375 L 20.125 4.65625 L 18.1875 4.15625 L 17.125 8.15625 L 16.78125 8.375 L 14.46875 7.75 L 12.75 6.03125 L 12.75 5.6875 L 15.71875 2.71875 L 14.28125 1.28125 L 12.84375 3.65625 L 13 0 L 11 0 z M 11.34375 8.03125 L 11.46875 11.0625 L 8.90625 9.4375 L 10.3125 9.0625 L 11.34375 8.03125 z M 12.65625 8.03125 L 13.6875 9.0625 L 15.09375 9.4375 L 12.53125 11.0625 L 12.65625 8.03125 z M 8.25 10.625 L 10.90625 12 L 8.25 13.375 L 8.625 12 L 8.25 10.625 z M 15.75 10.625 L 15.375 12 L 15.75 13.375 L 13.09375 12 L 15.75 10.625 z M 11.46875 12.9375 L 11.34375 15.96875 L 10.3125 14.9375 L 8.90625 14.5625 L 11.46875 12.9375 z M 12.53125 12.9375 L 15.09375 14.5625 L 13.6875 14.9375 L 12.65625 15.96875 L 12.53125 12.9375 z"></path></svg>