<?xml version="1.0" encoding="utf-8"?>
<!-- Generator: Adobe Illustrator 16.0.0, SVG Export Plug-In . SVG Version: 6.00 Build 0)  -->
<!DOCTYPE svg PUBLIC "-//W3C//DTD SVG 1.1//EN" "http://www.w3.org/Graphics/SVG/1.1/DTD/svg11.dtd">
<svg version="1.1" id="Layer_1" xmlns="http://www.w3.org/2000/svg" xmlns:xlink="http://www.w3.org/1999/xlink" x="0px" y="0px"
	 width="24px" height="24px" viewBox="0 0 24 24" enable-background="new 0 0 24 24" xml:space="preserve">
<path fill="#F5F9FF" d="M12,0.031c-4.087,0-7.406,1.089-7.406,2.438c0,0.041,0.447,1.143,0.875,2.219
	C3.262,5.45,1.844,6.57,1.844,7.844c0,0.681,0.415,1.308,1.125,1.875C2.348,11.017,2,12.467,2,14c0,5.514,4.486,10,10,10
	c5.514,0,10-4.486,10-10c0-1.535-0.346-2.981-0.969-4.281c0.711-0.567,1.125-1.194,1.125-1.875c0-1.254-1.354-2.363-3.5-3.125
	c0.376-1.088,0.75-2.209,0.75-2.25C19.406,1.122,16.087,0.031,12,0.031z M5.688,5.094c0.536,0.366,2.275,1.281,6.438,1.281
	c3.838,0,5.636-0.778,6.312-1.188c-0.284,0.876-0.531,1.625-0.531,1.625S16.66,8.25,12.125,8.25S6.312,6.812,6.312,6.812
	S6.03,6.011,5.688,5.094z M4,10.406c1.09,0.57,2.553,1.037,4.219,1.312C8.081,11.945,8,12.215,8,12.5C8,13.328,8.671,14,9.5,14
	s1.5-0.672,1.5-1.5c0-0.197-0.056-0.39-0.125-0.562C11.252,11.955,11.612,12,12,12c1.126,0,2.176-0.081,3.188-0.219
	C15.072,11.994,15,12.241,15,12.5c0,0.828,0.672,1.5,1.5,1.5s1.5-0.672,1.5-1.5c0-0.47-0.224-0.881-0.562-1.156
	c0.98-0.255,1.849-0.564,2.562-0.938c0.359,0.941,0.562,1.964,0.562,3.031C20.562,18.16,16.725,22,12,22
	c-4.724,0-8.562-3.838-8.562-8.562C3.438,12.367,3.639,11.351,4,10.406z M14,14c-1.105,0-2,0.895-2,2s0.895,2,2,2s5.719-2,5.719-2
	S15.105,14,14,14z M9.312,18.281c0.602,1.523,2.021,2.594,3.688,2.594s3.117-1.07,3.719-2.594c-0.912,0.857-2.246,1.406-3.719,1.406
	C11.528,19.688,10.224,19.139,9.312,18.281z"/>
</svg>
