<?xml version="1.0" encoding="utf-8"?>
<!-- Generator: Adobe Illustrator 16.0.0, SVG Export Plug-In . SVG Version: 6.00 Build 0)  -->
<!DOCTYPE svg PUBLIC "-//W3C//DTD SVG 1.1//EN" "http://www.w3.org/Graphics/SVG/1.1/DTD/svg11.dtd">
<svg version="1.1" id="Layer_1" xmlns="http://www.w3.org/2000/svg" xmlns:xlink="http://www.w3.org/1999/xlink" x="0px" y="0px"
	 width="24px" height="24px" viewBox="0 0 24 24" enable-background="new 0 0 24 24" xml:space="preserve">
<path fill="#F5F9FF" d="M11,0l0.156,3.656L9.719,1.281L8.281,2.719l2.969,2.969v0.344L9.531,7.75L7.219,8.375L6.875,8.156l-1.062-4
	l-1.938,0.5l1.344,2.438L2.094,5.125l-1,1.75l3.25,1.688l-2.75,0.062l0.5,1.938l4-1.062l0.375,0.188L7.094,12l-0.625,2.312
	L6.094,14.5l-4-1.062l-0.5,1.938l2.75,0.062l-3.25,1.688l1,1.75l3.125-1.969l-1.344,2.438l1.938,0.5l1.062-4l0.344-0.219
	l2.344,0.625l1.688,1.688v0.375l-2.969,2.969l1.438,1.438l1.438-2.375L11,24h2l-0.156-3.656l1.438,2.375l1.438-1.438l-2.969-2.969
	v-0.344l1.719-1.719l2.312-0.625l0.344,0.219l1.062,4l1.938-0.5l-1.344-2.438l3.125,1.969l1-1.75l-3.25-1.688l2.75-0.062l-0.5-1.938
	l-4,1.062l-0.375-0.188L16.906,12l0.625-2.312L17.906,9.5l4,1.062l0.5-1.938l-2.75-0.062l3.25-1.688l-1-1.75l-3.125,1.969
	l1.344-2.438l-1.938-0.5l-1.062,4l-0.344,0.219L14.469,7.75L12.75,6.031V5.688l2.969-2.969l-1.438-1.438l-1.438,2.375L13,0H11z
	 M11.344,8.031l0.125,3.031L8.906,9.438l1.406-0.375L11.344,8.031z M12.656,8.031l1.031,1.031l1.406,0.375l-2.562,1.625
	L12.656,8.031z M8.25,10.625L10.906,12L8.25,13.375L8.625,12L8.25,10.625z M15.75,10.625L15.375,12l0.375,1.375L13.094,12
	L15.75,10.625z M11.469,12.938l-0.125,3.031l-1.031-1.031l-1.406-0.375L11.469,12.938z M12.531,12.938l2.562,1.625l-1.406,0.375
	l-1.031,1.031L12.531,12.938z"/>
</svg>
