<?xml version="1.0" encoding="utf-8"?>
<!-- Generator: Adobe Illustrator 16.0.0, SVG Export Plug-In . SVG Version: 6.00 Build 0)  -->
<!DOCTYPE svg PUBLIC "-//W3C//DTD SVG 1.1//EN" "http://www.w3.org/Graphics/SVG/1.1/DTD/svg11.dtd">
<svg version="1.1" id="Layer_1" xmlns="http://www.w3.org/2000/svg" xmlns:xlink="http://www.w3.org/1999/xlink" x="0px" y="0px"
	 width="200px" height="200px" viewBox="0 0 200 200" enable-background="new 0 0 200 200" xml:space="preserve">
<path fill="#F5F9FF" d="M100,16.667c-45.833,0-83.333,37.5-83.333,83.333c0,45.834,37.5,83.334,83.333,83.334
	c45.834,0,83.334-37.5,83.334-83.334C183.334,54.167,145.834,16.667,100,16.667z M75.521,38.021L100,48.438l24.479-10.417
	c10.215,4.08,19.281,10.49,26.303,18.75c0.043,0.05-0.043,0.209,0,0.26l-1.562,27.083l17.188,19.792
	c-0.673,11.39-4.165,22.08-9.896,31.25l-26.562,6.51l-13.281,22.656c-5.359,1.402-10.883,2.344-16.666,2.344
	c-5.784,0-11.307-0.941-16.667-2.344l-13.281-22.656l-26.562-6.51c-5.731-9.17-9.223-19.86-9.896-31.25l17.188-19.792l-1.562-27.344
	C56.241,48.511,65.307,42.101,75.521,38.021z M100,68.229L66.667,92.448l13.281,39.324h40.105l13.281-39.324L100,68.229z"/>
</svg>
