<?xml version="1.0" encoding="utf-8"?>
<!-- Generator: Adobe Illustrator 16.0.0, SVG Export Plug-In . SVG Version: 6.00 Build 0)  -->
<!DOCTYPE svg PUBLIC "-//W3C//DTD SVG 1.1//EN" "http://www.w3.org/Graphics/SVG/1.1/DTD/svg11.dtd">
<svg version="1.1" id="Layer_1" xmlns="http://www.w3.org/2000/svg" xmlns:xlink="http://www.w3.org/1999/xlink" x="0px" y="0px"
	 width="50px" height="50px" viewBox="0 0 50 50" enable-background="new 0 0 50 50" xml:space="preserve">
<path fill="#F5F9FF" d="M44.979,1.646c-0.219-0.311-0.596-0.478-0.97-0.424c-0.377,0.05-0.694,0.306-0.825,0.664
	c-1.47,4.049-2.363,4.469-4.525,5.483c-1.096,0.514-2.459,1.153-4.238,2.4c-3.292,2.307-4.76,5.597-5.73,7.774
	c-0.269,0.602-0.596,1.337-0.791,1.592c-8.805,1.775-11.595,7.592-12.94,10.396c-0.167,0.35-0.367,0.766-0.503,0.992
	C9.431,31.17,3.161,34.182,1.001,44.627c-0.067,0.326,0.028,0.664,0.256,0.906c1.539,1.637,6.091,3.402,10.761,3.404l0,0
	c4.009,0,7.562-1.256,10.301-3.638c6.503-0.264,15.912-6.862,17.701-13.979c4.248-2.86,7.287-7.599,8.365-13.068
	C49.537,12.411,48.295,6.358,44.979,1.646z M16.38,43.021c-2.072,1.445-6.863,1.58-8.129-0.107
	c-1.283-1.711,0.207-4.264,2.276-5.715c2.072-1.449,5.829-1.901,7.029-0.168C18.759,38.764,18.449,41.57,16.38,43.021z
	 M31.061,35.084c-1.951,2.826-6.21,3.359-8.552,1.734c-2.345-1.635-1.878-4.813,0.073-7.642c1.955-2.825,6.078-4.734,8.417-3.104
	C33.341,27.704,33.014,32.255,31.061,35.084z M42.574,20.292c-1.312,2.436-4.637,3.268-6.616,2.193
	c-1.983-1.076-1.873-3.653-0.562-6.09c1.311-2.438,4.416-4.348,6.396-3.273C43.773,14.2,43.884,17.853,42.574,20.292z"/>
</svg>
