<?xml version="1.0" encoding="utf-8"?>
<!-- Generator: Adobe Illustrator 16.0.0, SVG Export Plug-In . SVG Version: 6.00 Build 0)  -->
<!DOCTYPE svg PUBLIC "-//W3C//DTD SVG 1.1//EN" "http://www.w3.org/Graphics/SVG/1.1/DTD/svg11.dtd">
<svg version="1.1" id="Layer_1" xmlns="http://www.w3.org/2000/svg" xmlns:xlink="http://www.w3.org/1999/xlink" x="0px" y="0px"
	 width="200px" height="200px" viewBox="0 0 200 200" enable-background="new 0 0 200 200" xml:space="preserve">
<path fill="#F5F9FF" d="M73.698,16.406C64.01,16.302,55.833,19.167,50,25c-18.333,19.167-5.833,61.615,29.167,96.615
	c34.167,34.166,77.5,46.719,95.833,28.385c10.719-11.543,11.568-32.939-0.521-55.99c3.363-16.226-1.08-37.279-16.145-52.344
	C145.834,30,130.834,25,116.666,25c-3.484,0-6.752,0.186-9.895,0.781C94.688,19.531,83.385,16.51,73.698,16.406z M116.666,41.667
	c10.834,0,22.449,4.167,29.949,12.5C162.447,70,160.834,93.333,154.166,100c-5,5-9.219,5.729-11.719,5.729
	c-7.5,0-18.281-6.614-29.947-17.447C85.833,61.615,95.833,51.562,100,47.396C102.5,44.062,108.334,41.667,116.666,41.667z
	 M34.896,61.719L19.271,77.604l11.458,11.458l9.375-9.115c-0.833-3.333-2.552-6.562-3.385-9.896
	C35.885,67.552,34.896,65.052,34.896,61.719z M66.667,120.834l-23.438,23.438l11.719,11.457l23.438-23.176
	c-1.667-1.668-3.489-3.281-5.989-4.949C70.729,125.104,69.167,123.334,66.667,120.834z M120.053,159.896l-9.115,9.375l11.459,11.457
	l15.885-15.625C132.447,164.271,126.719,162.396,120.053,159.896z"/>
</svg>
