<?xml version="1.0" encoding="utf-8"?>
<!-- Generator: Adobe Illustrator 16.0.0, SVG Export Plug-In . SVG Version: 6.00 Build 0)  -->
<!DOCTYPE svg PUBLIC "-//W3C//DTD SVG 1.1//EN" "http://www.w3.org/Graphics/SVG/1.1/DTD/svg11.dtd">
<svg version="1.1" id="Layer_1" xmlns="http://www.w3.org/2000/svg" xmlns:xlink="http://www.w3.org/1999/xlink" x="0px" y="0px"
	 width="50px" height="50px" viewBox="0 0 50 50" enable-background="new 0 0 50 50" xml:space="preserve">
<path fill="#F5F9FF" d="M40.219,0.062c-0.534,0-1.027,0.216-1.406,0.594c-0.133,0.133-0.208,0.317-0.25,0.5l-1.906,8.219
	L17.781,28.25c-0.071,0.07-6.767,7.357-4.938,9.188c0.253,0.253,0.557,0.406,0.938,0.406c0.858,0,2.11-0.695,4.219-2.188
	c1.771-1.252,3.575-2.7,4.031-3.156l18.906-18.875l7.938-2.188c0.167-0.046,0.314-0.158,0.438-0.281
	c0.378-0.377,0.594-0.872,0.594-1.406s-0.216-1.028-0.594-1.406l-7.656-7.688c-0.376-0.378-0.872-0.593-1.406-0.594H40.219z
	 M41.469,6.094c0.07,0,0.133,0.039,0.188,0.094l2.156,2.125c0.107,0.109,0.109,0.297,0,0.406l-2.281,0.625l-0.812-0.781l0.562-2.375
	C41.336,6.133,41.398,6.094,41.469,6.094z M12.531,21.188c-0.256,0-0.492,0.117-0.688,0.312l-8.969,8.938
	C0.531,32.783-1.78,39.568,2,47.844c0.107,0.234,0.322,0.436,0.562,0.531C5.243,49.441,8.172,50,11.031,50
	c3.794,0,7.238-1.02,8.812-2.594l8.969-8.938c0.391-0.391,0.391-1.016,0-1.406l-4.25-4.25l-1.125,1.094
	c-0.587,0.587-2.492,2.141-4.281,3.406c-2.61,1.848-4.052,2.531-5.375,2.531c-0.9,0-1.708-0.333-2.344-0.969
	c-0.413-0.413-0.908-1.164-0.906-2.312c0.007-3.631,5.79-9.666,5.844-9.719l1.125-1.125L13.25,21.5
	C13.055,21.305,12.787,21.188,12.531,21.188z"/>
</svg>
