<?xml version="1.0" encoding="utf-8"?>
<!-- Generator: Adobe Illustrator 16.0.0, SVG Export Plug-In . SVG Version: 6.00 Build 0)  -->
<!DOCTYPE svg PUBLIC "-//W3C//DTD SVG 1.1//EN" "http://www.w3.org/Graphics/SVG/1.1/DTD/svg11.dtd">
<svg version="1.1" id="Layer_1" xmlns="http://www.w3.org/2000/svg" xmlns:xlink="http://www.w3.org/1999/xlink" x="0px" y="0px"
	 width="26px" height="26px" viewBox="0 0 26 26" enable-background="new 0 0 26 26" xml:space="preserve">
<path fill="#F5F9FF" d="M12.969,1.125c-0.291,0-0.56,0.121-0.75,0.344c-1.126,1.332-2.583,2.525-4,3.688
	c-3.002,2.459-6.125,5.001-6.125,8.938c0.001,3.57,2.516,6.062,6.094,6.062c1.419,0,2.678-0.674,3.656-1.438
	c-0.611,2.08-1.458,4.383-2.562,6.031c2.474-0.443,4.982-0.425,7.438,0c-1.096-1.648-1.949-3.949-2.562-6.031
	c0.977,0.764,2.236,1.438,3.656,1.438c3.576,0,6.094-2.494,6.094-6.062c0-3.935-3.093-6.479-6.094-8.938
	c-1.417-1.162-2.906-2.354-4.031-3.688c-0.189-0.223-0.459-0.344-0.75-0.344H12.969z"/>
</svg>
