<?xml version="1.0" encoding="utf-8"?>
<!-- Generator: Adobe Illustrator 16.0.0, SVG Export Plug-In . SVG Version: 6.00 Build 0)  -->
<!DOCTYPE svg PUBLIC "-//W3C//DTD SVG 1.1//EN" "http://www.w3.org/Graphics/SVG/1.1/DTD/svg11.dtd">
<svg version="1.1" id="Layer_1" xmlns="http://www.w3.org/2000/svg" xmlns:xlink="http://www.w3.org/1999/xlink" x="0px" y="0px"
	 width="50px" height="50px" viewBox="0 0 50 50" enable-background="new 0 0 50 50" xml:space="preserve">
<path fill="#F5F9FF" d="M49.902,19.477c-0.326-1.179-1.375-1.972-2.609-1.972c-0.07,0-0.143,0.002-0.127,0.005
	c0,0-3.257-0.058-6.863-0.058c-2.494,0-4.543,0.027-6.089,0.082c-0.241,0.009-0.479,0.015-0.713,0.015
	c-1.618,0-2.149-0.333-2.366-1.483C29.673,8.3,26.91,4.228,26.455,3.598c-0.562-1.09-1.577-1.763-2.667-1.763
	c-1.204,0-2.185,0.801-2.499,2.042c-0.014,0.056-0.023,0.112-0.028,0.169c-0.006,0.08-0.632,8.052-2.429,11.971
	c-0.489,1.067-1.146,1.445-2.509,1.445c-0.145,0-0.292-0.004-0.439-0.011c-2.307-0.11-4.539-0.166-6.634-0.166
	c-3.807,0-5.979,0.182-6.42,0.223c-1.29-0.064-2.396,0.751-2.733,1.97c-0.323,1.167,0.151,2.331,1.142,2.92
	c0.15,0.107,3.763,2.661,11.246,6.735c1.351,0.736,1.834,2.178,1.204,3.59c-2.303,5.146-4.948,11.699-4.968,11.75
	c-0.35,0.826-0.272,1.721,0.213,2.452c0.84,1.269,2.742,1.614,3.977,0.661c0.674-0.4,6.111-3.682,10.722-8.031
	c0.657-0.621,1.218-0.937,1.668-0.937c0.363,0,0.744,0.209,1.234,0.678c4.715,4.507,9.951,7.902,10.538,8.278
	c0.493,0.386,1.073,0.59,1.683,0.59h0.001c0.918,0,1.804-0.477,2.31-1.24c0.484-0.73,0.563-1.626,0.244-2.363
	c-0.024-0.082-2.574-8.138-4.121-12.158c-0.688-1.78-0.535-2.117,0.416-2.781c3.695-2.584,11.03-7.141,11.092-7.179
	C49.752,21.808,50.227,20.645,49.902,19.477z M17.626,26.215c-0.666,0-1.205-0.539-1.205-1.205c0-0.665,0.54-1.205,1.205-1.205
	s1.205,0.54,1.205,1.205C18.831,25.676,18.292,26.215,17.626,26.215z M25,28.702c-1.02,0-1.846-0.827-1.846-1.847
	c0-1.021,0.826-1.846,1.846-1.846c1.02,0,1.846,0.826,1.846,1.846C26.846,27.876,26.02,28.702,25,28.702z M34.221,40.984
	c-0.666,0-1.205-0.541-1.205-1.205c0-0.666,0.539-1.205,1.205-1.205s1.204,0.539,1.204,1.205
	C35.425,40.443,34.887,40.984,34.221,40.984z M36.077,24.369c-0.665,0-1.205-0.54-1.205-1.205s0.54-1.205,1.205-1.205
	s1.205,0.54,1.205,1.205S36.742,24.369,36.077,24.369z"/>
</svg>
