<?xml version="1.0" encoding="utf-8"?>
<!-- Generator: Adobe Illustrator 16.0.0, SVG Export Plug-In . SVG Version: 6.00 Build 0)  -->
<!DOCTYPE svg PUBLIC "-//W3C//DTD SVG 1.1//EN" "http://www.w3.org/Graphics/SVG/1.1/DTD/svg11.dtd">
<svg version="1.1" id="Layer_1" xmlns="http://www.w3.org/2000/svg" xmlns:xlink="http://www.w3.org/1999/xlink" x="0px" y="0px"
	 width="200px" height="200px" viewBox="0 0 200 200" enable-background="new 0 0 200 200" xml:space="preserve">
<path fill="#F5F9FF" d="M96.615,16.667c-7.205,0.721-12.724,5.078-17.188,10.156c-4.464,5.079-8.18,11.19-11.458,17.969
	C61.412,58.35,56.665,74.124,53.646,86.198c-0.001,0.087-0.001,0.174,0,0.261c-3.637,14.909-11.312,21.419-19.792,29.688
	c-8.48,8.268-17.969,19.195-17.969,37.238c0,7.631,4.189,14.322,9.636,18.49s12.138,6.594,19.271,8.334
	c14.265,3.479,30.634,3.607,44.011,1.301c32.061-5.343,64.967-22.309,82.551-45.051c8.793-11.372,13.783-25.076,10.678-38.803
	c-2.906-12.842-13.138-24.342-29.428-33.854c-4.652-18.654-14.088-31.295-24.738-38.281c-11.444-7.506-23.09-9.418-30.99-8.854
	C96.788,16.666,96.701,16.666,96.615,16.667z M98.177,33.333c0.044-0.003,0.215,0.002,0.26,0c3.839-0.234,12.474,0.848,20.312,5.989
	c7.932,5.203,15.634,14.252,19.01,31.511c0.469,2.434,1.996,4.534,4.168,5.729c15.785,8.471,22.22,17.06,23.957,24.74
	c1.738,7.68-0.979,15.902-7.812,24.738c-13.665,17.675-43.936,34.406-71.875,39.062c-10.791,1.861-26.14,1.729-37.5-1.041
	c-5.68-1.385-10.368-3.439-13.021-5.469c-2.653-2.03-3.125-3.255-3.125-5.209c0-12.789,4.834-17.277,13.021-25.26
	c8.187-7.982,19.522-18.503,24.219-37.76c2.815-11.259,7.546-26.423,13.281-38.281c2.868-5.93,5.948-11.017,8.854-14.323
	C94.754,34.544,97.015,33.497,98.177,33.333z M107.031,56.25c-4.727-0.156-9.479,2.812-11.979,7.812
	C91.719,71.562,94.167,80,100,83.333c5.834,3.333,13.334-0.104,16.666-6.771c3.334-7.5,0.887-15.677-4.947-19.01
	C110.26,56.719,108.607,56.302,107.031,56.25z M137.76,95.573c-0.356,0.042-0.707,0.129-1.041,0.261
	c-0.269,0.061-0.53,0.148-0.781,0.26l-66.667,25c-2.158,0.863-3.207,3.312-2.344,5.469c0.863,2.157,3.311,3.207,5.469,2.344
	l66.667-25c2.301-0.359,3.875-2.517,3.516-4.818S140.062,95.213,137.76,95.573L137.76,95.573z M146.875,112.24
	c-0.357,0.041-0.707,0.129-1.041,0.26c-0.18,0.074-0.354,0.162-0.521,0.26l-78.385,29.168c-2.202,0.67-3.443,2.998-2.773,5.199
	c0.67,2.201,2.999,3.443,5.2,2.773c0.149-0.045,0.295-0.1,0.438-0.16l78.386-29.168c2.301-0.359,3.875-2.516,3.516-4.816
	C151.333,113.454,149.176,111.88,146.875,112.24z"/>
</svg>
