<?xml version="1.0" encoding="utf-8"?>
<!-- Generator: Adobe Illustrator 16.0.0, SVG Export Plug-In . SVG Version: 6.00 Build 0)  -->
<!DOCTYPE svg PUBLIC "-//W3C//DTD SVG 1.1//EN" "http://www.w3.org/Graphics/SVG/1.1/DTD/svg11.dtd">
<svg version="1.1" id="Layer_1" xmlns="http://www.w3.org/2000/svg" xmlns:xlink="http://www.w3.org/1999/xlink" x="0px" y="0px"
	 width="24px" height="24px" viewBox="0 0 24 24" enable-background="new 0 0 24 24" xml:space="preserve">
<path fill="#F5F9FF" d="M8.781,0C7.358,0,6.808,0.593,6.594,1.094C6.094,2.263,7.786,3.97,8.469,4.75
	C8.042,5.613,7.664,6.353,7.594,6.625C7.182,7.449,6.504,8.757,6.031,9.938c-1.247,1.829-1.483,2.824-1.406,4.094
	c0.038,0.634,0.677,1.43,1.094,1.969c0.291,0.375,2.781,5.556,4.156,6.844c0.828,0.775,1.841,1.094,2.844,1.094
	c0.859,0,1.674-0.225,2.688-0.812c1.932-1.118,2.444-3.535,2.188-4.906c-0.132-0.707-0.605-2.083-1.375-3.5
	c-0.427-0.785-0.467-1.302-0.469-1.344c0.389-1.15,2.102-4.936,2.906-6.812l-8.188-3.531c0.47-0.67,0.762-1.33,0.5-1.938
	C10.754,0.596,10.192,0,8.781,0z M8.688,1.188c0.485,0,1.315,0.094,1.031,0.844C9.618,2.3,9.387,2.79,9.188,3.219S8.812,4,8.812,4
	S8.075,2.992,7.875,2.125C7.767,1.657,8.165,1.188,8.688,1.188z M10.219,4.438l6.562,2.719c0,0-0.793,1.94-1.219,2.781
	C12.381,8.846,9.853,7.638,9,7.219C9.278,6.512,9.714,5.298,10.219,4.438z M7.188,10.875c0.94,0.645,1.75,1.5,1.75,2.406
	c0,0.87-0.717,2.039-1.312,2.75c-0.529-0.64-1.238-1.291-1.438-2c-0.218-0.779-0.004-1.656,0.688-2.656
	C6.985,11.215,7.083,11.042,7.188,10.875z M15.125,18.312c0.314-0.008,0.57,0.012,0.812,0.031c0.102,0.538-0.07,2.795-1.344,3.531
	c-1.463,0.846-2.935,0.494-4.031-0.312c0.182-0.752,0.78-1.92,2-2.625C13.375,18.467,14.326,18.332,15.125,18.312z"/>
</svg>
