<?xml version="1.0" encoding="utf-8"?>
<!-- Generator: Adobe Illustrator 16.0.0, SVG Export Plug-In . SVG Version: 6.00 Build 0)  -->
<!DOCTYPE svg PUBLIC "-//W3C//DTD SVG 1.1//EN" "http://www.w3.org/Graphics/SVG/1.1/DTD/svg11.dtd">
<svg version="1.1" id="Layer_1" xmlns="http://www.w3.org/2000/svg" xmlns:xlink="http://www.w3.org/1999/xlink" x="0px" y="0px"
	 width="50px" height="50px" viewBox="0 0 50 50" enable-background="new 0 0 50 50" xml:space="preserve">
<path fill="#F5F9FF" d="M29.062,1.344c-0.211,0.009-0.424,0.079-0.594,0.219c-0.344,0.279-0.482,0.778-0.312,1.188
	c0.872,2.097,0.269,3.719-0.438,5.594c-0.352,0.934-0.725,1.882-0.906,2.938c2.073,1.562,4.107,3.511,6.125,5.531
	c2.121,2.12,4.793,4.777,6.688,7.844c0.146,0.007,0.291,0.031,0.438,0.031c3.346,0,6.428-1.809,8.688-5.094
	c0.234-0.344,0.238-0.783,0-1.125c-0.24-0.342-0.66-0.512-1.062-0.406c-1.504,0.389-3.458,0.844-5.156,0.844
	c-1.384,0-2.382-0.275-3.094-0.875c1.783-1.849,2.824-4.345,2.938-7.094c0.121-2.937-0.873-5.872-2.5-7.5
	c-0.285-0.285-0.69-0.371-1.062-0.219c-0.373,0.152-0.621,0.503-0.625,0.906c-0.029,3.055-1.716,7.553-3.875,8.562
	c0.342-3.783,0.462-7.661-4.656-11.156C29.474,1.406,29.273,1.335,29.062,1.344z M17.75,9.688c-2.695,0-5.256,1.224-7.781,3.75
	C2.75,20.656-1.992,40.383,3.688,46.062c2.331,2.331,6.342,2.812,9.312,2.812c6.897,0,17.149-2.852,23.312-9.125
	c8.299-8.449,0.74-16.011-4.781-21.531C27.036,13.722,22.597,9.688,17.75,9.688z M19.938,13.781c0.449,0,0.812,0.151,0.969,0.438
	c0.313,0.575-0.283,1.487-1.344,2.062c-1.057,0.577-2.186,0.573-2.5,0c-0.311-0.575,0.285-1.484,1.344-2.062
	C18.935,13.933,19.489,13.781,19.938,13.781z M26.938,17.781c0.301-0.017,0.555,0.036,0.719,0.219
	c0.441,0.48,0.047,1.543-0.844,2.344c-0.896,0.812-1.97,1.079-2.406,0.594c-0.441-0.484-0.055-1.536,0.844-2.344
	C25.807,18.089,26.436,17.81,26.938,17.781z M12.812,20.438c0.18,0.002,0.34,0.054,0.469,0.156c0.513,0.403,0.34,1.493-0.406,2.438
	c-0.746,0.947-1.767,1.375-2.281,0.969c-0.513-0.406-0.34-1.491,0.406-2.438C11.562,20.855,12.273,20.432,12.812,20.438z
	 M19.781,21.969c0.299-0.032,0.577,0.014,0.75,0.188c0.461,0.461,0.131,1.524-0.719,2.375c-0.853,0.851-1.912,1.185-2.375,0.719
	c-0.463-0.459-0.134-1.522,0.719-2.375C18.689,22.341,19.282,22.022,19.781,21.969z M26.844,26.188
	c0.3-0.033,0.545,0.014,0.719,0.188c0.462,0.462,0.164,1.555-0.688,2.406c-0.852,0.854-1.913,1.149-2.375,0.688
	c-0.463-0.463-0.164-1.521,0.688-2.375C25.719,26.561,26.344,26.242,26.844,26.188z M11.344,27.594
	c0.3-0.032,0.546,0.045,0.719,0.219c0.462,0.461,0.165,1.523-0.688,2.375s-1.945,1.148-2.406,0.688
	c-0.462-0.463-0.133-1.523,0.719-2.375C10.22,27.969,10.844,27.648,11.344,27.594z M33.656,30.188
	c0.178-0.027,0.324-0.018,0.469,0.062c0.57,0.311,0.551,1.421-0.031,2.469c-0.584,1.055-1.492,1.66-2.062,1.344
	c-0.574-0.314-0.585-1.416,0-2.469C32.465,30.807,33.121,30.27,33.656,30.188z M18.375,31.812c0.3-0.033,0.576,0.045,0.75,0.219
	c0.46,0.465,0.133,1.523-0.719,2.375c-0.853,0.854-1.914,1.148-2.375,0.688c-0.465-0.463-0.132-1.527,0.719-2.375
	C17.283,32.186,17.875,31.867,18.375,31.812z M8.281,35.812c0.177-0.027,0.356-0.018,0.5,0.062c0.57,0.316,0.55,1.443-0.031,2.5
	c-0.588,1.055-1.524,1.658-2.094,1.344c-0.574-0.318-0.557-1.453,0.031-2.5C7.125,36.426,7.75,35.896,8.281,35.812z M25.5,36.281
	c0.449-0.021,0.83,0.096,1,0.375c0.339,0.562-0.247,1.533-1.281,2.156c-1.03,0.627-2.131,0.682-2.469,0.125
	c-0.339-0.561,0.221-1.531,1.25-2.156C24.517,36.469,25.051,36.303,25.5,36.281z M15.625,40.5c0.448-0.023,0.831,0.097,1,0.375
	c0.342,0.564-0.22,1.527-1.25,2.156c-1.03,0.624-2.129,0.688-2.469,0.125c-0.339-0.561,0.193-1.531,1.219-2.156
	C14.64,40.688,15.177,40.523,15.625,40.5z"/>
</svg>
