<?xml version="1.0" encoding="utf-8"?>
<!-- Generator: Adobe Illustrator 16.0.0, SVG Export Plug-In . SVG Version: 6.00 Build 0)  -->
<!DOCTYPE svg PUBLIC "-//W3C//DTD SVG 1.1//EN" "http://www.w3.org/Graphics/SVG/1.1/DTD/svg11.dtd">
<svg version="1.1" id="Layer_1" xmlns="http://www.w3.org/2000/svg" xmlns:xlink="http://www.w3.org/1999/xlink" x="0px" y="0px"
	 width="200px" height="200px" viewBox="0 0 200 200" enable-background="new 0 0 200 200" xml:space="preserve">
<path fill="#F5F9FF" d="M200,0l-46.154,15.385L58.414,119.952l13.221,8.413l8.413,13.221l104.567-95.432L200,0z M30.048,108.414
	L19.952,118.51l20.913,20.913l-24.759,31.491c-0.492-0.051-0.938-0.241-1.442-0.241C6.592,170.673,0,177.265,0,185.336
	C0,193.408,6.592,200,14.664,200s14.664-6.592,14.664-14.664c0-0.504-0.191-0.95-0.241-1.441l31.491-24.76l20.913,20.913
	l10.096-10.096l-25.48-36.058L30.048,108.414z"/>
</svg>
