<?xml version="1.0" encoding="utf-8"?>
<!-- Generator: Adobe Illustrator 16.0.0, SVG Export Plug-In . SVG Version: 6.00 Build 0)  -->
<!DOCTYPE svg PUBLIC "-//W3C//DTD SVG 1.1//EN" "http://www.w3.org/Graphics/SVG/1.1/DTD/svg11.dtd">
<svg version="1.1" id="Layer_1" xmlns="http://www.w3.org/2000/svg" xmlns:xlink="http://www.w3.org/1999/xlink" x="0px" y="0px"
	 width="200px" height="200px" viewBox="0 0 200 200" enable-background="new 0 0 200 200" xml:space="preserve">
<path fill="#F5F9FF" d="M112,8c-7.741,0-15.112,2.768-21,7.75C88.101,18.327,84.174,20,80,20c-13.255,0-24.61,8.228-29.625,19.625
	c-1.109,2.495-3.464,4.395-5.625,4.875c-0.042,0-0.083,0-0.125,0C29.34,48.097,20,61.184,20,76c0,1.503,0.019,3.552,0.5,5.75
	c0.031,0.143-0.036,0.231,0,0.375c0.577,4.249-0.099,8.154-2.375,11c-0.042,0.041-0.084,0.083-0.125,0.125
	c-5.011,6.833-7.298,15.688-5.5,25.125c0,0.041,0,0.084,0,0.125c1.247,5.404,3.873,10.553,7.5,14.625V148c0,8.8,7.2,16,16,16h152
	c8.8,0,16-7.2,16-16v-14.875c4.779-5.678,8-12.998,8-21.125c0-7.233-2.306-13.824-6.375-19.25c-0.041,0-0.084,0-0.125,0
	c-2.347-2.934-2.98-6.749-2-11h-0.125C204.033,79.487,204,77.503,204,76c0-14.76-9.37-27.327-23.75-31
	c-0.059-0.016-0.066-0.108-0.125-0.125c-3.154-0.904-5.345-2.7-6.875-5.625c-0.037-0.085-0.087-0.165-0.125-0.25
	C168.077,27.787,157.064,20,144,20c-4.174,0-8.102-1.673-11-4.25C127.112,10.768,119.741,8,112,8z M112,16
	c5.801,0,11.264,2.004,15.75,5.75c0.043,0.038,0.082,0.087,0.125,0.125C132.161,25.632,137.836,28,144,28
	c10.037,0,18.194,5.726,22,14.375c-0.002,0.083-0.002,0.167,0,0.25c2.43,4.858,6.676,8.514,12.125,10c0.041,0,0.084,0,0.125,0
	C189.376,55.406,196,64.416,196,76c0,1.6-0.271,3.565-0.25,3.5c-0.006,0.125-0.006,0.25,0,0.375c-0.764,3.307-0.844,6.733-0.125,10
	C181.118,58.126,149.18,36,112,36c-37.513,0-69.681,22.542-84,54.75c0.864-3.298,0.89-6.78,0.375-10.125
	c-0.036-0.127-0.077-0.252-0.125-0.375C28.04,79.411,28,77.6,28,76c0-11.584,6.585-20.946,18.5-23.75
	c5.04-1.12,9.034-4.669,11.125-9.375c0-0.042,0-0.083,0-0.125C61.41,34.147,70.055,28,80,28c6.164,0,11.839-2.368,16.125-6.125
	c0.043-0.038,0.083-0.087,0.125-0.125C100.736,18.004,106.199,16,112,16z M25.75,96c-2.543,6.852-4.279,14.115-5.125,21.625
	c-0.071-0.256-0.189-0.495-0.25-0.75c-1.394-7.318,0.258-13.6,4-18.75c0.022-0.031-0.022-0.094,0-0.125
	C24.874,97.369,25.345,96.669,25.75,96z M72,96c4.4,0,8,3.6,8,8c0,4.4-3.6,8-8,8s-8-3.6-8-8C64,99.6,67.6,96,72,96z M198.375,96.375
	c0.275,0.415,0.562,0.853,0.875,1.25c0.023,0.031-0.023,0.094,0,0.125c3.086,4.15,4.75,8.725,4.75,14.25
	c0,1.798-0.226,3.565-0.625,5.25C202.529,110.01,200.802,103.002,198.375,96.375z M52.375,113.25c4.4,0,8,3.6,8,8s-3.6,8-8,8
	s-8-3.6-8-8S47.975,113.25,52.375,113.25z M76,124c4.4,0,8,3.6,8,8s-3.6,8-8,8s-8-3.6-8-8S71.6,124,76,124z"/>
</svg>
