<?xml version="1.0" encoding="utf-8"?>
<!-- Generator: Adobe Illustrator 16.0.0, SVG Export Plug-In . SVG Version: 6.00 Build 0)  -->
<!DOCTYPE svg PUBLIC "-//W3C//DTD SVG 1.1//EN" "http://www.w3.org/Graphics/SVG/1.1/DTD/svg11.dtd">
<svg version="1.1" id="Layer_1" xmlns="http://www.w3.org/2000/svg" xmlns:xlink="http://www.w3.org/1999/xlink" x="0px" y="0px"
	 width="24px" height="24px" viewBox="0 0 24 24" enable-background="new 0 0 24 24" xml:space="preserve">
<path fill="#F5F9FF" d="M12,4c-0.829,0-1.5,0.671-1.5,1.5c0,0.223,0.069,0.435,0.156,0.625C9.164,6.391,7.769,7.074,6.688,8h10.625
	c-1.081-0.926-2.477-1.609-3.969-1.875C13.431,5.935,13.5,5.723,13.5,5.5C13.5,4.671,12.828,4,12,4z M22.812,8
	c-1.747,0.51-2.031,2.91-3.125,4.188C19.4,11.009,18.832,9.939,18.094,9H5.812C5.733,9.101,5.668,9.209,5.594,9.312
	C5.108,9.104,4.562,9,4,9c-2.21,0-4,1.79-4,4c0,1.834,1.075,2.989,1.875,3.656c0.4,0.334,0.727,0.572,0.906,0.781S3,17.75,3,18
	c-0.008,0.553,0.434,1.006,0.986,1.014S4.992,18.58,5,18.028C5,18.02,5,18.01,5,18c0-0.088-0.022-0.164-0.031-0.25
	c0.73,1.35,1.814,2.485,3.125,3.25h7.719c0.971-0.543,1.779-1.266,2.438-2.125c5.031-1.504,3.011-7.808,5.844-9.469L22.812,8z M4,11
	c0.212,0,0.408,0.045,0.594,0.094C4.228,11.993,4,12.966,4,14c0,0.774,0.134,1.512,0.344,2.219
	c-0.018-0.021-0.044-0.041-0.062-0.062c-0.383-0.447-0.807-0.771-1.156-1.062C2.425,14.511,2,14.166,2,13C2,11.81,2.81,11,4,11z"/>
</svg>
