<?xml version="1.0" encoding="utf-8"?>
<!-- Generator: Adobe Illustrator 16.0.0, SVG Export Plug-In . SVG Version: 6.00 Build 0)  -->
<!DOCTYPE svg PUBLIC "-//W3C//DTD SVG 1.1//EN" "http://www.w3.org/Graphics/SVG/1.1/DTD/svg11.dtd">
<svg version="1.1" id="Layer_1" xmlns="http://www.w3.org/2000/svg" xmlns:xlink="http://www.w3.org/1999/xlink" x="0px" y="0px"
	 width="26px" height="26px" viewBox="0 0 26 26" enable-background="new 0 0 26 26" xml:space="preserve">
<path fill="#F5F9FF" d="M15.281,0.094c-0.202,0.003-0.344,0.062-0.344,0.062s-1.743,1.758-2.375,3.906
	c-2.054-3.081-4.512-0.418-5.5-2.969c0,4.005,3.993,3.056,4.938,3.719C8.322,4.507,8.92,7.466,6.25,8
	c3.404,1.402,5.484-0.116,6.406-2.594c-0.145,0.969-1.257,4.35,1.906,6.25c0.762-2.451,0.369-4.226-0.688-6.312
	c0.018-0.005,0.047,0.006,0.062,0c1.554,1.945,3.922,4.099,6.594,2.406c-2.211-0.578-1.848-2.149-4.594-2.625
	c2.061,0.086,2.966,0.609,4.375-2.156c-2.218,1.148-3.475-1.122-6.219,1.312c0.102-0.922,0.496-2.655,1.938-3.938
	C15.771,0.132,15.483,0.09,15.281,0.094z M6.656,3.688C1.568,4.853,0,8.779,0,13.688C0,20.125,5.817,26,13,26
	c6.357,0,13-4.277,13-13.594c0-3.875-1.322-6.859-5-8.125c0.062,0.717-1.264,1.531-1.969,1.562c0.76,0.19,1.895,1.345,2.875,1
	c-0.061,0.712-0.602,1.96-1.25,2.406c-1.102,0.76-3.27,0.731-4.281-0.281c-0.075,0.612,0.089,3.545-1.5,4.5
	c-2.798-0.705-3.13-2.879-3.562-4.031c-0.654,0.247-1.502,0.593-2.25,0.656c-3.02,0.252-4.773-1.561-4.688-2.438
	C5.508,7.32,7.454,6.344,7.938,5.188C7.438,5.016,6.656,4.638,6.656,3.688z"/>
</svg>
