<?xml version="1.0" encoding="utf-8"?>
<!-- Generator: Adobe Illustrator 16.0.0, SVG Export Plug-In . SVG Version: 6.00 Build 0)  -->
<!DOCTYPE svg PUBLIC "-//W3C//DTD SVG 1.1//EN" "http://www.w3.org/Graphics/SVG/1.1/DTD/svg11.dtd">
<svg version="1.1" id="Layer_1" xmlns="http://www.w3.org/2000/svg" xmlns:xlink="http://www.w3.org/1999/xlink" x="0px" y="0px"
	 width="200px" height="200px" viewBox="0 0 200 200" enable-background="new 0 0 200 200" xml:space="preserve">
<path fill="#F5F9FF" d="M30.729,33.333c-0.833,0.208-1.51,0.729-2.344,1.562l-4.167,5.208c-0.833,1.667-0.885,3.281,0.781,4.948
	l8.333,9.114v34.115c0,1.574-0.425,2.508-1.042,3.125c-0.616,0.617-1.551,1.042-3.125,1.042c-1.574,0-2.508-0.425-3.125-1.042
	C25.425,90.79,25,89.855,25,88.281v-4.948h-8.333v4.948c0,3.426,1.085,6.814,3.386,9.115c2.3,2.3,5.688,3.385,9.114,3.385
	c3.426,0,6.814-1.085,9.115-3.385c2.3-2.3,3.385-5.689,3.385-9.115v-25l48.698,53.385H25c-5,0-8.333,3.334-8.333,8.334v16.666
	c0,9.168,7.5,16.668,16.667,16.668h0.521C35.768,167.904,43.958,175,54.167,175c10.208,0,18.398-7.096,20.312-16.666h33.855h8.332
	h8.855c1.914,9.57,10.104,16.666,20.312,16.666c10.207,0,18.398-7.096,20.312-16.666h0.52c1.146,0,2.304-0.038,3.387-0.262
	c7.576-1.561,13.281-8.385,13.281-16.406v-30.729c0-1.666-0.73-3.541-1.562-5.209l-29.168-44.01c-1.666-1.667-4.27-3.385-6.77-3.385
	h-29.168c-5,0-8.332,3.333-8.332,8.333v19.531c-9.81-6.319-75-52.083-75-52.083C32.5,33.281,31.562,33.125,30.729,33.333z M125,75
	h21.094l16.406,25H125V75z M54.167,145.834c5,0,8.333,3.332,8.333,8.332s-3.333,8.334-8.333,8.334s-8.333-3.334-8.333-8.334
	S49.167,145.834,54.167,145.834z M145.834,145.834c5,0,8.332,3.332,8.332,8.332s-3.332,8.334-8.332,8.334s-8.334-3.334-8.334-8.334
	S140.834,145.834,145.834,145.834z"/>
</svg>
