<?xml version="1.0" encoding="utf-8"?>
<!-- Generator: Adobe Illustrator 16.0.0, SVG Export Plug-In . SVG Version: 6.00 Build 0)  -->
<!DOCTYPE svg PUBLIC "-//W3C//DTD SVG 1.1//EN" "http://www.w3.org/Graphics/SVG/1.1/DTD/svg11.dtd">
<svg version="1.1" id="Layer_1" xmlns="http://www.w3.org/2000/svg" xmlns:xlink="http://www.w3.org/1999/xlink" x="0px" y="0px"
	 width="50px" height="50px" viewBox="0 0 50 50" enable-background="new 0 0 50 50" xml:space="preserve">
<path fill="#F5F9FF" d="M5.969,5C4.333,5,3,6.354,3,8v16.406c-0.394,0.275-0.786,0.564-1.156,0.875
	c-0.444,0.374-0.499,1.057-0.125,1.5c0.374,0.445,1.056,0.498,1.5,0.125c2.538-2.135,5.746-3.312,9.062-3.312
	c7.785,0,14.125,6.339,14.125,14.125c0,0.581,0.481,1.031,1.062,1.031S28.5,38.3,28.5,37.719c0-0.24-0.02-0.482-0.031-0.719h14.5
	c1.514,0,3.461-1.396,4-2.875l2.906-7.938c0.251-0.689,0.159-1.383-0.25-1.969C49.111,23.484,48.106,23,47.062,23H28.781
	L24.656,7.781C24.293,6.067,23.14,5,21.688,5H5.969z M41,9.938c-4.416,0-7.062,2.568-7.062,6.875V21h6.125v-4
	c0-2.345,0.684-2.911,0.875-2.938c0.29,0.018,0.566-0.082,0.781-0.281c0.214-0.199,0.344-0.489,0.344-0.781v-2
	C42.062,10.419,41.581,9.938,41,9.938z M8,10h12.469l2.438,9H8V10z M12,26C5.383,26,0,31.383,0,38s5.383,12,12,12s12-5.383,12-12
	S18.617,26,12,26z M12,33.5c2.482,0,4.5,2.02,4.5,4.5s-2.018,4.5-4.5,4.5S7.5,40.48,7.5,38S9.518,33.5,12,33.5z M45.969,38.094
	c-0.947,0.564-2.008,0.906-3,0.906h-1.344C42.465,39.732,43,40.801,43,42c0,2.205-1.796,4-4,4c-2.205,0-4-1.795-4-4
	c0-1.199,0.535-2.268,1.375-3h-4.781C31.213,39.939,31,40.951,31,42c0,4.411,3.589,8,8,8s8-3.589,8-8
	C47,40.609,46.636,39.277,45.969,38.094z"/>
</svg>
