<?xml version="1.0" encoding="utf-8"?>
<!-- Generator: Adobe Illustrator 16.0.0, SVG Export Plug-In . SVG Version: 6.00 Build 0)  -->
<!DOCTYPE svg PUBLIC "-//W3C//DTD SVG 1.1//EN" "http://www.w3.org/Graphics/SVG/1.1/DTD/svg11.dtd">
<svg version="1.1" id="Layer_1" xmlns="http://www.w3.org/2000/svg" xmlns:xlink="http://www.w3.org/1999/xlink" x="0px" y="0px"
	 width="26px" height="26px" viewBox="0 0 26 26" enable-background="new 0 0 26 26" xml:space="preserve">
<path fill="#F5F9FF" d="M1.094,3C0.494,3,0,3.494,0,4.094v0.719C-0.006,4.875-0.006,4.938,0,5v1v9c-0.001,0.031-0.001,0.062,0,0.094
	v4.219C0,20.213,0.788,21,1.688,21h0.344c0.257,2.775,2.635,5,5.469,5c2.2,0,4.1-1.287,5-3.188c0.9,1.9,2.8,3.188,5,3.188
	c2.834,0,5.212-2.225,5.469-5H25c1,0,1-1,1-1l-1.562-1.562C24.797,17.748,25,16.951,25,16.094V16c0-2.8-2.2-5-5-5V9h-4v2h-5V5.906
	c0.566-0.218,1-0.783,1-1.406C12,3.7,11.3,3,10.5,3H1.094z M16,5l-0.406,0.406c-0.3,0.4-0.388,0.906-0.188,1.406L16,8h4l0.594-1.188
	c0.2-0.5,0.213-1.006-0.188-1.406L20,5H16z M2,6h7v5H2V6z M7.5,17c1.427,0,2.599,0.814,3.125,2H8.812
	C8.46,18.691,8.001,18.5,7.5,18.5c-1.1,0-2,0.9-2,2s0.9,2,2,2c0.928,0,1.715-0.639,1.938-1.5h6.125c0.223,0.861,1.01,1.5,1.938,1.5
	c1.1,0,2-0.9,2-2s-0.9-2-2-2c-0.502,0-0.961,0.191-1.312,0.5h-1.906c0.549-1.186,1.777-2,3.125-2c1.9,0,3.5,1.6,3.5,3.5
	c0.1,1.9-1.506,3.5-3.406,3.5c-1.4,0-2.594-0.8-3.094-2h-3.719c-0.6,1.2-1.794,2-3.094,2C5.594,24,4,22.4,4,20.5S5.6,17,7.5,17z"/>
</svg>
