<?xml version="1.0" encoding="utf-8"?>
<!-- Generator: Adobe Illustrator 16.0.0, SVG Export Plug-In . SVG Version: 6.00 Build 0)  -->
<!DOCTYPE svg PUBLIC "-//W3C//DTD SVG 1.1//EN" "http://www.w3.org/Graphics/SVG/1.1/DTD/svg11.dtd">
<svg version="1.1" id="Layer_1" xmlns="http://www.w3.org/2000/svg" xmlns:xlink="http://www.w3.org/1999/xlink" x="0px" y="0px"
	 width="26px" height="26px" viewBox="0 0 26 26" enable-background="new 0 0 26 26" xml:space="preserve">
<path fill="#F5F9FF" d="M1,7C0.449,7,0,7.449,0,8v14c0,0.551,0.449,1,1,1h2c0.245-1.723,1.71-3.062,3.5-3.062S9.755,21.277,10,23h4
	c0.551,0,1-0.449,1-1V8c0-0.551-0.449-1-1-1H1z M17,11c-0.551,0-1,0.449-1,1v10c0,0.549,0.452,0.996,1,1
	c0.246-1.723,1.711-3.062,3.5-3.062c1.79,0,3.255,1.34,3.5,3.062h1c0.551,0,1-0.449,1-1v-5c0-0.947-0.781-2.031-0.781-2.031L23,12
	c-0.457-0.551-0.766-1-1.5-1H17z M19,13h2.438c0.161,0,0.406,0.25,0.406,0.25l2.094,2.906c0.188,0.273,0.375,0.594,0.375,0.844H19
	V13z M6.5,21.188c-1.277,0-2.312,1.035-2.312,2.312s1.035,2.312,2.312,2.312s2.312-1.035,2.312-2.312S7.777,21.188,6.5,21.188z
	 M20.5,21.188c-1.277,0-2.312,1.035-2.312,2.312s1.035,2.312,2.312,2.312s2.312-1.035,2.312-2.312S21.777,21.188,20.5,21.188z
	 M902,1469v2h26v-2H902z M906,1474v2h18v-2H906z M902,1479v2h26v-2H902z M906,1484v2h18v-2H906z M902,1489v2h26v-2H902z"/>
</svg>
