<?xml version="1.0" encoding="utf-8"?>
<!-- Generator: Adobe Illustrator 16.0.0, SVG Export Plug-In . SVG Version: 6.00 Build 0)  -->
<!DOCTYPE svg PUBLIC "-//W3C//DTD SVG 1.1//EN" "http://www.w3.org/Graphics/SVG/1.1/DTD/svg11.dtd">
<svg version="1.1" id="Layer_1" xmlns="http://www.w3.org/2000/svg" xmlns:xlink="http://www.w3.org/1999/xlink" x="0px" y="0px"
	 width="200px" height="200px" viewBox="0 0 200 200" enable-background="new 0 0 200 200" xml:space="preserve">
<path fill="#F5F9FF" d="M135.156,16.667c-0.625,0.312-1.041,1.354-1.041,2.604c1.666,10.833,3.488,33.229-6.512,43.229
	l-25.52,25.521l-4.949-5.208l-5.989,5.99l5.208,4.948l-10.938,10.938l-4.948-5.208l-5.99,5.99l5.208,4.947L68.75,121.354
	l-4.948-5.207l-5.99,5.988l5.208,4.949l-13.802,13.801l10.677,10.678l7.292-7.291c0.804,5.647,3.313,10.982,7.812,15.104
	c10.705,10.532,28.106,10.756,38.021-0.26c0.089-0.085,0.176-0.172,0.26-0.262c2.254-2.816,17.195-17.938,22.396-22.395
	c0.177-0.079,0.351-0.166,0.52-0.262c10.691-10.689,10.812-28.316-0.26-38.281c-4.248-3.823-9.596-6.144-15.104-7.031l17.447-17.448
	c10-10,33.49-8.438,43.49-6.771c1.666,0,2.395-2.552,1.562-3.385L137.5,17.448C136.666,16.615,135.781,16.354,135.156,16.667z
	 M90.365,70.312L78.646,82.031l5.989,5.99l11.719-11.719L90.365,70.312z M73.698,86.979L61.979,98.698l5.99,5.99l11.719-11.719
	L73.698,86.979z M116.928,102.865c3.717,0.116,7.656,1.447,10.676,4.166c5.453,4.906,5.518,13.818,0,19.791
	c-0.145,0.158-0.106,0.368-0.26,0.521c-6.502,5.627-19.221,17.912-23.697,23.438c-0.05,0.061-0.214,0.201-0.262,0.26
	c-5.082,5.33-13.912,5.358-19.791-0.52c-0.084-0.09-0.171-0.177-0.26-0.262c-5.596-5.035-5.716-14.075,0.26-20.051l23.438-23.178
	c0.002-0.087,0.002-0.174,0-0.26C109.48,104.05,113.209,102.748,116.928,102.865z M57.031,103.646l-11.719,11.719l5.99,5.988
	l11.719-11.719L57.031,103.646z M41.146,148.697l-13.021,12.762l-5.208-5.209l-5.989,5.99l20.833,20.832l5.99-5.988l-4.948-4.949
	l12.76-13.02L41.146,148.697z"/>
</svg>
