<?xml version="1.0" encoding="utf-8"?>
<!-- Generator: Adobe Illustrator 16.0.0, SVG Export Plug-In . SVG Version: 6.00 Build 0)  -->
<!DOCTYPE svg PUBLIC "-//W3C//DTD SVG 1.1//EN" "http://www.w3.org/Graphics/SVG/1.1/DTD/svg11.dtd">
<svg version="1.1" id="Layer_1" xmlns="http://www.w3.org/2000/svg" xmlns:xlink="http://www.w3.org/1999/xlink" x="0px" y="0px"
	 width="26px" height="26px" viewBox="0 0 26 26" enable-background="new 0 0 26 26" xml:space="preserve">
<path fill="#F5F9FF" d="M8.938,0C7.866,0,7.729,0.684,8.781,1.406C9.974,2.228,14,6.04,14,9v2h-1c0-1.653-0.719-2.839-1.625-3.406
	S9.52,7,9,7c-2.369,0-5,1.626-5,5.844V19c0,1.268,1.263,6.938,6,6.938c5.525,0,8-2.148,8-6.938V9c0-3.354,4.429-7.176,5.219-7.594
	C24.191,0.891,24.121,0,23.25,0H8.938z M9,9c0.376,0,0.942,0.05,1.312,0.281S11,9.846,11,11h-1c-1.259,0-2.142,0.805-2.531,1.5
	S7,13.875,7,13.875v0.062V14v3.875v0.062v0.031c0,0,0.032,0.703,0.406,1.438S8.695,21,10,21c1.352,0,2.296-0.863,2.656-1.625
	s0.344-1.5,0.344-1.5V13h1v6c0,2.579-1.211,4.25-4,4.25c-3.156,0-4-3.396-4-4.25v-5.906C6,8.936,9,9,9,9z M21.906,9.969
	C21.863,9.977,21.822,9.987,21.781,10c-0.466,0.104-0.793,0.523-0.781,1h-2v2h2c-0.008,0.553,0.434,1.006,0.986,1.014
	c0.552,0.008,1.006-0.434,1.014-0.985c0-0.009,0-0.019,0-0.028v-2c0.02-0.552-0.412-1.016-0.964-1.035
	C21.992,9.963,21.949,9.965,21.906,9.969z M10,13h1v4.875c0,0-0.017,0.361-0.156,0.656S10.648,19,10,19
	c-0.542,0-0.648-0.178-0.812-0.5C9.037,18.205,9.006,17.928,9,17.875v-0.062v-3.688c0,0,0.048-0.32,0.219-0.625
	C9.39,13.195,9.499,13,10,13z"/>
</svg>
