<?xml version="1.0" encoding="utf-8"?>
<!-- Generator: Adobe Illustrator 16.0.0, SVG Export Plug-In . SVG Version: 6.00 Build 0)  -->
<!DOCTYPE svg PUBLIC "-//W3C//DTD SVG 1.1//EN" "http://www.w3.org/Graphics/SVG/1.1/DTD/svg11.dtd">
<svg version="1.1" id="Layer_1" xmlns="http://www.w3.org/2000/svg" xmlns:xlink="http://www.w3.org/1999/xlink" x="0px" y="0px"
	 width="24px" height="24px" viewBox="0 0 24 24" enable-background="new 0 0 24 24" xml:space="preserve">
<path fill="#F5F9FF" d="M20.062,4.031c-0.212,0.03-0.4,0.069-0.562,0.156c-2.1,1.2-1.7,3.5-3,5C13.7,12.688,8.4,14.5,3,15
	c-1.1,0.1-2.5,0.9-3,2c1-0.3,2.606-0.094,3.406,0.406c0,0.6-1.994,1.182-1.094,2.281C3.013,20.088,4,20.112,5,19.812
	C5.9,19.213,6.006,18.8,6.406,18c4.3,0.9,7.281-0.094,7.281-0.094s0.318,1.182,1.219,1.781c1,0.5,2.287,0.4,3.188,0
	C18.994,18.787,17,18.3,17,16.5c0-2.7,0.8-4.594,3-6.594c0.7,1.2,2.7,1.006,3.5-0.094c0.3-0.5,0.5-1.025,0.5-1.625
	C24,5.038,21.546,3.822,20.062,4.031z M8.375,5C7.662,5.037,6.881,5.163,6,5.406c-5.2,1.6-5.112,5.781-4.312,6.781
	c0,0-1.2,0.5-0.5,1.5c0.6,0.7,3.825,0.213,6.625-0.688c2.8-0.8,5.2-2.094,6.5-3.094c1.2-0.9,0.675-2.513-0.625-2.312
	C13.037,6.375,11.463,4.841,8.375,5z M22,6.312c0.4,0,0.688,0.288,0.688,0.688S22.4,7.688,22,7.688S21.312,7.4,21.312,7
	S21.6,6.312,22,6.312z"/>
</svg>
