<?xml version="1.0" encoding="utf-8"?>
<!-- Generator: Adobe Illustrator 16.0.0, SVG Export Plug-In . SVG Version: 6.00 Build 0)  -->
<!DOCTYPE svg PUBLIC "-//W3C//DTD SVG 1.1//EN" "http://www.w3.org/Graphics/SVG/1.1/DTD/svg11.dtd">
<svg version="1.1" id="Layer_1" xmlns="http://www.w3.org/2000/svg" xmlns:xlink="http://www.w3.org/1999/xlink" x="0px" y="0px"
	 width="50px" height="50px" viewBox="0 0 50 50" enable-background="new 0 0 50 50" xml:space="preserve">
<path fill="#F5F9FF" d="M47.469,0c-0.266,0-0.5,0.125-0.688,0.312c-1.1,1.102-1.99,1.122-2.844,1.156
	c-0.652,0.027-1.383,0.071-1.969,0.656c-0.584,0.585-0.903,1.354-0.906,2.188c-0.002,0.773,0.279,1.495,0.781,2.062l-0.531,0.5
	c-0.039-0.035-0.081-0.066-0.125-0.094l-1.469-1.5C39.477,5.031,39.121,4.924,38.781,5c-0.543,0.099-0.904,0.619-0.806,1.163
	c0.039,0.213,0.146,0.409,0.306,0.556l1.5,1.469c0.01,0.011,0.021,0.021,0.031,0.031L39.188,8.75
	c-0.03-0.022-0.062-0.043-0.094-0.062l-1.375-1.406C37.477,7.031,37.121,6.924,36.781,7c-0.543,0.099-0.904,0.619-0.806,1.163
	c0.039,0.213,0.146,0.409,0.306,0.556l1.406,1.375l-4.719,4.25L35.656,17l4.219-4.688c0.01,0.011,0.021,0.021,0.031,0.031
	l1.375,1.375c0.396,0.397,1.041,0.397,1.438,0s0.396-1.041,0-1.438l-1.375-1.375c-0.029-0.033-0.061-0.064-0.094-0.094l0.531-0.625
	c0.01,0.011,0.021,0.021,0.031,0.031l1.469,1.5c0.396,0.397,1.041,0.397,1.438,0s0.396-1.041,0-1.438l-1.5-1.469
	c-0.029-0.033-0.061-0.064-0.094-0.094l0.5-0.562c0.566,0.5,1.26,0.781,2.031,0.781c0.841,0,1.634-0.32,2.219-0.906
	c0.579-0.579,0.62-1.309,0.656-1.969c0.047-0.867,0.094-1.779,1.156-2.844C49.875,3.032,50,2.796,50,2.531S49.875,2,49.688,1.812
	l-1.5-1.5C48,0.125,47.734,0,47.469,0z M35.656,17l-8.719,9.688l-3.625-3.625l9.656-8.719l-0.156-0.156
	c-1.559-1.405-4.035-3.094-7-3.094c-1.756,0-3.435,0.614-5.031,1.781c-0.652,0.477-1.612,1.119-2.75,1.906l-2.156,1.5l0.781,0.844
	c1.081,1.198,1.245,2.533-1.5,5.281c-1.538,1.538-2.734,2.281-3.719,2.281c-0.605,0-1.188-0.313-1.781-0.906
	c-0.265-0.263-0.455-0.522-0.625-0.875L8.469,21.75L7.5,22.562c-1.583,1.311-2.878,2.472-3.938,3.531
	C1.16,28.496-0.036,31.215,0,34.156c0.043,3.544,1.922,7.15,5.375,10.438C8.74,48.127,12.386,50,15.969,50
	c2.895,0,5.574-1.196,7.938-3.562c1.092-1.092,2.247-2.389,3.531-3.938l0.812-0.969l-1.156-0.562
	c-0.357-0.174-0.609-0.359-0.875-0.625c-1.028-1.027-0.962-1.867-0.781-2.469c0.251-0.84,0.961-1.805,2.156-3
	c1.525-1.525,2.699-2.25,3.688-2.25c0.561,0,1.079,0.25,1.625,0.75l0.844,0.75l1.625-2.312c0.186-0.266,0.363-0.508,0.531-0.75
	c0.506-0.727,0.913-1.351,1.25-1.812c2.719-3.714,2.232-8.096-1.375-12.094L35.656,17z M13.438,32.875l3.531,3.5l-9.031,7.938
	c-0.385-0.35-0.775-0.727-1.156-1.125c-0.453-0.432-0.86-0.873-1.25-1.312L13.438,32.875z"/>
</svg>
