<svg xmlns="http://www.w3.org/2000/svg" width="50" height="50" viewBox="0 0 50 50">    <path d="M 47.46875 0 C 47.20375 3.7007434e-17 46.96925 0.1245 46.78125 0.3125 C 45.68125 1.4145 44.7915 1.43475 43.9375 1.46875 C 43.2845 1.49575 42.55475 1.54 41.96875 2.125 C 41.38475 2.71 41.0655 3.4785 41.0625 4.3125 C 41.060661 5.0857291 41.341982 5.8071793 41.84375 6.375 L 41.3125 6.875 A 1.0001 1.0001 0 0 0 41.1875 6.78125 L 39.71875 5.28125 A 1.0001 1.0001 0 0 0 38.78125 5 A 1.0001 1.0001 0 0 0 38.28125 6.71875 L 39.78125 8.1875 A 1.0001 1.0001 0 0 0 39.8125 8.21875 L 39.1875 8.75 A 1.0001 1.0001 0 0 0 39.09375 8.6875 L 37.71875 7.28125 A 1.0001 1.0001 0 0 0 36.78125 7 A 1.0001 1.0001 0 0 0 36.28125 8.71875 L 37.6875 10.09375 L 32.96875 14.34375 L 35.65625 17 L 39.875 12.3125 A 1.0001 1.0001 0 0 0 39.90625 12.34375 L 41.28125 13.71875 A 1.016466 1.016466 0 1 0 42.71875 12.28125 L 41.34375 10.90625 A 1.0001 1.0001 0 0 0 41.25 10.8125 L 41.78125 10.1875 A 1.0001 1.0001 0 0 0 41.8125 10.21875 L 43.28125 11.71875 A 1.016466 1.016466 0 1 0 44.71875 10.28125 L 43.21875 8.8125 A 1.0001 1.0001 0 0 0 43.125 8.71875 L 43.625 8.15625 C 44.191487 8.6566118 44.88486 8.9375 45.65625 8.9375 C 46.49725 8.9375 47.29 8.61725 47.875 8.03125 C 48.454 7.45225 48.49525 6.7225 48.53125 6.0625 C 48.57825 5.1955 48.6245 4.28375 49.6875 3.21875 C 49.8755 3.03175 50 2.79625 50 2.53125 C 50 2.26625 49.8755 2.0005 49.6875 1.8125 L 48.1875 0.3125 C 48.0005 0.1255 47.73375 0 47.46875 0 z M 35.65625 17 L 26.9375 26.6875 L 23.3125 23.0625 L 32.96875 14.34375 L 32.8125 14.1875 C 31.2545 12.7825 28.7775 11.09375 25.8125 11.09375 C 24.0565 11.09375 22.37725 11.708 20.78125 12.875 C 20.12925 13.352 19.16925 13.99425 18.03125 14.78125 L 15.875 16.28125 L 16.65625 17.125 C 17.73725 18.323 17.90125 19.65825 15.15625 22.40625 C 13.61825 23.94425 12.4225 24.6875 11.4375 24.6875 C 10.8325 24.6875 10.24925 24.37425 9.65625 23.78125 C 9.39125 23.51825 9.20125 23.25925 9.03125 22.90625 L 8.46875 21.75 L 7.5 22.5625 C 5.917 23.8735 4.6215 25.03475 3.5625 26.09375 C 1.1595 28.49675 -0.036 31.21525 0 34.15625 C 0.043 37.70025 1.922 41.30675 5.375 44.59375 C 8.74 48.12675 12.38575 50 15.96875 50 C 18.86375 50 21.54225 48.8035 23.90625 46.4375 C 24.99825 45.3455 26.1535 44.049 27.4375 42.5 L 28.25 41.53125 L 27.09375 40.96875 C 26.73575 40.79475 26.48375 40.60875 26.21875 40.34375 C 25.19075 39.31675 25.2565 38.476 25.4375 37.875 C 25.6885 37.035 26.39775 36.071 27.59375 34.875 C 29.11875 33.35 30.29325 32.625 31.28125 32.625 C 31.84125 32.625 32.36025 32.875 32.90625 33.375 L 33.75 34.125 L 35.375 31.8125 C 35.56 31.5465 35.73825 31.3045 35.90625 31.0625 C 36.41225 30.3365 36.81925 29.712 37.15625 29.25 C 39.87525 25.536 39.38825 21.15425 35.78125 17.15625 L 35.65625 17 z M 13.4375 32.875 L 16.96875 36.375 L 7.9375 44.3125 C 7.5525 43.9625 7.16225 43.5865 6.78125 43.1875 C 6.32825 42.7565 5.92125 42.314 5.53125 41.875 L 13.4375 32.875 z"></path></svg>