<?xml version="1.0" encoding="utf-8"?>
<!-- Generator: Adobe Illustrator 16.0.0, SVG Export Plug-In . SVG Version: 6.00 Build 0)  -->
<!DOCTYPE svg PUBLIC "-//W3C//DTD SVG 1.1//EN" "http://www.w3.org/Graphics/SVG/1.1/DTD/svg11.dtd">
<svg version="1.1" id="Layer_1" xmlns="http://www.w3.org/2000/svg" xmlns:xlink="http://www.w3.org/1999/xlink" x="0px" y="0px"
	 width="50px" height="50px" viewBox="0 0 50 50" enable-background="new 0 0 50 50" xml:space="preserve">
<path fill="#F5F9FF" d="M25,2c-2.905,0-5.688,0.544-8.25,1.531c0.028,0.781,0.062,1.423,0.062,1.438
	c0.031,0.833,0.144,2.017,0.406,3.438c2.723-1.145,11.924-4.38,22.625-0.969C35.835,4.045,30.65,2,25,2z M14.781,4.406
	c-1.409,0.702-2.741,1.536-3.969,2.5c-0.01,0.542,0.009,1.225,0.031,2.125c0.212,13.15,7.934,20.412,10.5,22.469
	c0.97-1.822,1.839-3.895,2.531-6.25c-7.768-8.197-8.938-16.846-9.062-20.219C14.812,4.998,14.795,4.768,14.781,4.406z M30.031,7.906
	c-6.302-0.018-11.009,1.86-12.375,2.469c0.491,1.877,1.268,4.039,2.469,6.312c2.36-0.964,14.018-5.035,27,2.5
	c0.051,0.029,0.107,0.035,0.156,0.062c-0.812-3.142-2.294-6.026-4.25-8.5c-2.014-0.858-3.568-1.336-3.594-1.344
	C36.094,8.315,32.896,7.915,30.031,7.906z M8.844,8.656c-2.189,2.167-3.972,4.76-5.156,7.656c0.281,2.396,0.713,4.223,0.719,4.25
	c2.303,10.544,9.48,16.537,11.625,18.125c1.407-1.396,2.893-3.195,4.281-5.438C17.744,31.24,9.075,23.394,8.844,9.062
	C8.84,8.915,8.846,8.794,8.844,8.656z M30.125,16.719c-4.455,0.119-7.755,1.217-9.031,1.719c1.098,1.785,2.499,3.624,4.219,5.438
	c11.131-2.662,19.255,0.764,22.25,2.375c0.025,0.014,0.161,0.073,0.375,0.188C47.967,25.961,48,25.483,48,25
	c0-1.059-0.078-2.104-0.219-3.125c-0.432-0.267-0.969-0.578-1.656-0.969C40.189,17.46,34.58,16.6,30.125,16.719z M2.406,20.75
	C2.145,22.133,2,23.542,2,25c0,7.215,3.348,13.654,8.562,17.875c0.476-0.298,0.893-0.55,1.156-0.719
	c0.711-0.447,1.703-1.145,2.812-2.094c-2.634-2.027-9.724-8.326-12.062-19.031C2.464,21.01,2.441,20.909,2.406,20.75z
	 M32.438,24.906c-2.061,0.067-4.274,0.336-6.656,0.906C22.58,36.689,15.675,42.044,12.812,43.844
	c-0.027,0.018-0.241,0.129-0.531,0.312c1.295,0.861,2.695,1.599,4.156,2.188c0.472-0.261,1.054-0.599,1.812-1.062
	C29.553,38.495,31.949,28.117,32.438,24.906z M34.469,24.906C34.025,28.083,31.6,39.604,19.281,47
	c-0.119,0.073-0.232,0.121-0.344,0.188C20.869,47.715,22.904,48,25,48c1.07,0,2.125-0.076,3.156-0.219
	c1.924-1.438,3.26-2.699,3.281-2.719c8.001-7.295,9.581-16.532,9.875-19.156C39.394,25.381,37.101,24.99,34.469,24.906z
	 M43.25,26.531c-0.436,3.292-2.334,12.609-10.438,20c-0.016,0.016-0.076,0.053-0.188,0.156c7.863-2.768,13.77-9.664,15.094-18.094
	c-0.441-0.236-0.843-0.461-1.094-0.594C45.854,27.585,44.707,27.049,43.25,26.531z"/>
</svg>
