<?xml version="1.0" encoding="utf-8"?>
<!-- Generator: Adobe Illustrator 16.0.0, SVG Export Plug-In . SVG Version: 6.00 Build 0)  -->
<!DOCTYPE svg PUBLIC "-//W3C//DTD SVG 1.1//EN" "http://www.w3.org/Graphics/SVG/1.1/DTD/svg11.dtd">
<svg version="1.1" id="Layer_1" xmlns="http://www.w3.org/2000/svg" xmlns:xlink="http://www.w3.org/1999/xlink" x="0px" y="0px"
	 width="50px" height="50px" viewBox="0 0 50 50" enable-background="new 0 0 50 50" xml:space="preserve">
<path fill="#F5F9FF" d="M35.5,7c-6.385,0-11.871,4.121-13.781,9.969c0.092-0.005,0.189-0.031,0.281-0.031h1.875
	C25.703,12.246,30.236,9,35.5,9C42.393,9,48,14.607,48,21.5c0,2.43-0.723,4.762-2,6.75v3.219c2.529-2.67,4-6.223,4-9.969
	C50,13.505,43.495,7,35.5,7z M6.5,15c-0.414,0.005-0.872,0.182-1.188,0.5L0.5,20.312C0.183,20.629,0,21.051,0,21.5
	s0.182,0.871,0.5,1.188l0.719,0.75c0.471,0.427,1.504,0.72,2.406-0.188c0.001-0.001,0.567-0.089,2.094,1.438
	C8.376,27.344,19,40.617,19,42.938c0,1.626,1.374,3,3,3h19c1.626,0,3-1.374,3-3V25H19v3.344c-1.759-0.807-6.236-4.519-9.312-7.594
	c-1.533-1.533-1.484-2.052-1.469-2.062c0.505-0.504,0.625-1.04,0.625-1.375c0-0.623-0.364-0.989-0.469-1.094L7.688,15.5
	C7.371,15.181,6.949,15.001,6.5,15z M22,19c-1.626,0-3,1.312-3,2.938v1h25v-1C44,20.312,42.626,19,41,19H22z"/>
</svg>
