<?xml version="1.0" encoding="utf-8"?>
<!-- Generator: Adobe Illustrator 16.0.0, SVG Export Plug-In . SVG Version: 6.00 Build 0)  -->
<!DOCTYPE svg PUBLIC "-//W3C//DTD SVG 1.1//EN" "http://www.w3.org/Graphics/SVG/1.1/DTD/svg11.dtd">
<svg version="1.1" id="Layer_1" xmlns="http://www.w3.org/2000/svg" xmlns:xlink="http://www.w3.org/1999/xlink" x="0px" y="0px"
	 width="50px" height="50px" viewBox="0 0 50 50" enable-background="new 0 0 50 50" xml:space="preserve">
<path fill="#F5F9FF" d="M40.906,0.094l-0.719,0.688L0.781,40.188l-0.688,0.719l0.688,0.688c11.281,11.281,29.531,11.281,40.812,0
	s11.281-29.532,0-40.812L40.906,0.094z M40.812,3c9.809,10.56,9.653,26.909-0.625,37.188S13.56,50.621,3,40.812l2.031-2.031
	c9.344,8.6,23.906,8.375,32.969-0.688s9.286-23.625,0.688-32.969L40.812,3z M38.812,12.5c0.609,0.023,1.2,0.4,1.5,1
	c0.3,0.8-0.107,1.694-0.906,2.094c-0.801,0.3-3.594-0.406-3.594-0.406s1.575-2.194,2.375-2.594
	C38.388,12.519,38.609,12.492,38.812,12.5z M40.594,19.594c0.9,0,1.602,0.819,1.5,1.719c-0.1,0.8-0.787,1.5-1.688,1.5
	s-3.094-1.719-3.094-1.719S39.693,19.594,40.594,19.594z M39.094,26.5c0.375-0.005,0.706,0.019,0.906,0.094
	c0.8,0.4,1.213,1.419,0.812,2.219c-0.398,0.8-1.325,1.182-2.125,0.781c-0.8-0.398-2.281-2.781-2.281-2.781
	S37.969,26.514,39.094,26.5z M32.812,32.594c0,0,2.682,0.706,3.281,1.406S36.7,35.713,36,36.312c-0.7,0.602-1.713,0.481-2.312-0.219
	C33.086,35.395,32.812,32.594,32.812,32.594z M15.812,35.906c0,0,0.275,2.888-0.125,3.688S14.3,40.688,13.5,40.188
	c-0.8-0.4-1.094-1.388-0.594-2.188C13.306,37.2,15.812,35.906,15.812,35.906z M27.406,36.188c0,0,2.206,1.825,2.406,2.625
	c0.3,0.9-0.225,1.8-1.125,2c-0.8,0.2-1.7-0.325-2-1.125C26.487,38.888,27.406,36.188,27.406,36.188z M21.5,37.188
	c0,0,1.288,2.506,1.188,3.406c0,0.9-0.788,1.506-1.688,1.406s-1.506-0.912-1.406-1.812S21.5,37.188,21.5,37.188z"/>
</svg>
