<?xml version="1.0" encoding="utf-8"?>
<!-- Generator: Adobe Illustrator 16.0.0, SVG Export Plug-In . SVG Version: 6.00 Build 0)  -->
<!DOCTYPE svg PUBLIC "-//W3C//DTD SVG 1.1//EN" "http://www.w3.org/Graphics/SVG/1.1/DTD/svg11.dtd">
<svg version="1.1" id="Layer_1" xmlns="http://www.w3.org/2000/svg" xmlns:xlink="http://www.w3.org/1999/xlink" x="0px" y="0px"
	 width="50px" height="50px" viewBox="0 0 50 50" enable-background="new 0 0 50 50" xml:space="preserve">
<path fill="#F5F9FF" d="M48.625,1.375c0,0-4.253,0.016-6.5,1.781c0.232,0.584,0.412,1.203,0.469,1.875
	c0.059,0.376,0.127,1.244-0.031,2.469c0.389-0.042,0.783-0.062,1.188-0.062c0.552,0,0.975,0.041,1.156,0.062
	c0.67,0.049,1.32,0.241,1.906,0.469C48.636,5.744,48.625,1.375,48.625,1.375z M39.094,1.906c-1.527,0.271-3.648,2.152-4.438,4.344
	C35.54,7.155,36.482,8.433,37,10.094c0.124,0.396,0.198,0.803,0.25,1.219l3.188-3.188c0.012-0.058,0.02-0.098,0.031-0.156
	c0.343-1.696,0.125-2.688,0.125-2.688C40.492,3.581,39.094,1.906,39.094,1.906z M31.719,6.406C30.646,6.979,29.473,8.665,29,10.5
	c1.021,0.88,2.428,2.4,3.094,4.531c0.123,0.396,0.198,0.803,0.25,1.219l2.875-2.875c0.174-0.855,0.154-1.796-0.125-2.688
	C34.236,7.94,31.719,6.406,31.719,6.406z M43.812,9.438c-0.549-0.002-1.289,0.056-2.062,0.25l-2.969,2.969
	c0.186,0.033,0.352,0.044,0.531,0.094c1.715,0.429,3.381,1.514,4.562,2.656c2.145-0.82,3.955-2.904,4.219-4.406
	c0,0-1.675-1.4-3.375-1.5C44.719,9.5,44.361,9.44,43.812,9.438z M26.781,11.312c-1.006,0.537-2.105,2.079-2.625,3.781
	c1.029,0.861,2.525,2.405,3.219,4.625c0.124,0.396,0.198,0.834,0.25,1.25l2.656-2.656c0.173-0.855,0.184-1.795-0.094-2.688
	C29.33,12.878,26.781,11.312,26.781,11.312z M37.812,14.531c-0.339-0.009-0.692,0.034-1.031,0.094l-2.906,2.938
	c0.432,0.064,0.828,0.159,1.219,0.312c1.462,0.574,3.184,1.88,4.312,3.062c1.873-0.455,3.604-1.658,4.188-2.75
	c0-0.001-1.831-2.778-4.781-3.5C38.491,14.596,38.151,14.541,37.812,14.531z M22.062,16.031c-1.031,0.55-2.12,2.154-2.625,3.906
	c1.027,0.868,2.472,2.409,3.156,4.594c0.125,0.396,0.197,0.802,0.25,1.219l2.75-2.75c0.174-0.854,0.152-1.764-0.125-2.656
	C24.611,17.597,22.062,16.031,22.062,16.031z M33.125,19.469c-0.432-0.018-0.878,0.032-1.312,0.125l-2.656,2.656
	c0.432,0.064,0.859,0.159,1.25,0.312c1.518,0.596,3.281,1.973,4.406,3.188c1.732-0.511,3.299-1.604,3.844-2.625
	c0.001-0.001-1.92-2.478-4.281-3.406C33.983,19.565,33.557,19.487,33.125,19.469z M17.281,20.812
	c-1.04,0.555-2.158,2.167-2.656,3.938c1.026,0.871,2.475,2.418,3.156,4.594c0.124,0.396,0.198,0.803,0.25,1.219l2.781-2.781
	c0.175-0.855,0.155-1.764-0.125-2.656C19.829,22.377,17.281,20.812,17.281,20.812z M27.781,24.188
	c-0.219,0.021-0.439,0.079-0.656,0.125l-2.75,2.719c0.433,0.064,0.859,0.158,1.25,0.312c1.902,0.747,3.48,2.207,4.375,3.156
	c1.786-0.493,3.41-1.608,3.969-2.656c0.002,0-1.951-2.478-4.312-3.406C29.068,24.207,28.438,24.126,27.781,24.188z M12.469,25.625
	c-1.5,0.8-3.207,3.812-2.906,6.312c0.411,2.551,1.832,3.813,2.938,4.125L2.312,46.281c-0.391,0.393-0.391,1.014,0,1.406
	c0.195,0.193,0.463,0.281,0.719,0.281c0.255,0,0.493-0.086,0.688-0.281l10.25-10.219c0.344,1.117,1.595,2.552,4.094,2.875
	c2.5,0.299,5.513-1.406,6.312-2.906c0-0.001-1.951-2.479-4.312-3.406c-0.783-0.309-1.692-0.309-2.562-0.125l-3.5,3.5V36h-1.406
	l3.375-3.406c0.174-0.855,0.185-1.764-0.094-2.656C15.016,27.19,12.469,25.625,12.469,25.625z M23,28.969
	c-0.219,0.02-0.439,0.079-0.656,0.125l-2.781,2.781c0.432,0.064,0.828,0.158,1.219,0.312c1.167,0.458,3.121,1.789,4.375,3.125
	c1.809-0.482,3.467-1.627,4.031-2.688c0,0-1.951-2.479-4.312-3.406C24.288,28.986,23.656,28.908,23,28.969z"/>
</svg>
