<?xml version="1.0" encoding="utf-8"?>
<!-- Generator: Adobe Illustrator 16.0.0, SVG Export Plug-In . SVG Version: 6.00 Build 0)  -->
<!DOCTYPE svg PUBLIC "-//W3C//DTD SVG 1.1//EN" "http://www.w3.org/Graphics/SVG/1.1/DTD/svg11.dtd">
<svg version="1.1" id="Layer_1" xmlns="http://www.w3.org/2000/svg" xmlns:xlink="http://www.w3.org/1999/xlink" x="0px" y="0px"
	 width="24px" height="24px" viewBox="0 0 24 24" enable-background="new 0 0 24 24" xml:space="preserve">
<path fill="#F5F9FF" d="M14,6c-1.3,0-2.513,0.894-2.812,2.094h-0.094c-0.5,0-1,0.406-1,0.906H22c0-0.8-0.706-1.406-1.406-1.406
	c-0.2,0-0.4-0.006-0.5,0.094c-0.2-0.6-0.682-1-1.281-1c-0.4,0-0.7,0.206-1,0.406c-0.4-0.3-0.812-0.406-1.312-0.406
	c-0.2,0-0.3,0.025-0.5,0.125C15.5,6.312,14.8,6,14,6z M0,10v2h3.656l5.281,4.438L8.969,16.5l2.25,3.438h0.031
	c0.655,0.982,1.963,1.273,2.969,0.625h0.031l2.781-1.812l2.375,2.781c0.275,0.344,0.777,0.4,1.121,0.126
	c0.345-0.275,0.4-0.777,0.126-1.122c-0.019-0.023-0.038-0.045-0.06-0.066l-2.781-3.281l-0.062-0.062L24,10H8l1.062,4.5l-4.844-4.094
	l-0.125-0.125V10H0z M10.812,16.375l4.969,1.312l-2.406,1.531l-0.031,0.031c-0.191,0.127-0.643,0.021-0.781-0.188L10.812,16.375z
	 M19.719,18c-0.088,0.013-0.169,0.044-0.219,0.094c0.7,0.8,1.688,2,1.688,2c0.4,0.5,0.713,1.419-0.188,2.219
	c-0.3,0.3-0.6,0.375-1,0.375c-0.7,0-1.088-0.5-1.188-0.5c-0.1-0.1-1.019-1.175-1.719-1.875C17.094,20.412,17,20.7,17,21
	c0,1.6,1.3,3,3,3s3-1.3,3-3s-1.3-3-3-3C19.9,18,19.807,17.987,19.719,18z"/>
</svg>
