<svg xmlns="http://www.w3.org/2000/svg" width="24" height="24" viewBox="0 0 24 24">    <path d="M 14.21875 0.1875 C 12.703906 0.25859375 11.60625 1.0625 9.59375 5 C 7.19375 9.8 5 15.8 5 17 C 5 18.8 7.5 20 12 20 C 16.5 20 19 18.8 19 17 C 19 15.9 17.8875 12.4875 15.6875 7.6875 C 15.2875 6.8875 14.8875 5.9875 14.6875 5.1875 C 14.4875 4.1875 14.39375 3.69375 14.59375 3.59375 C 14.69375 3.49375 15.10625 4.69375 15.40625 4.59375 C 15.90625 4.29375 15.29375 2.99375 15.59375 2.59375 C 15.99375 1.99375 16.7125 7.59375 18.8125 8.09375 C 19.4125 8.19375 19.29375 7.69375 19.09375 7.59375 C 17.89375 6.99375 18.30625 0.1875 14.90625 0.1875 C 14.66875 0.175 14.435156 0.17734375 14.21875 0.1875 z M 4.5 14.1875 C 1.8 15.1875 -0.09375 16.7 -0.09375 18.5 C -0.09375 21.5 5.30625 24.09375 11.90625 24.09375 C 18.50625 24.09375 23.90625 21.6 23.90625 18.5 C 24.00625 16.7 22.20625 15.1875 19.40625 14.1875 C 19.80625 15.3875 20.09375 16.49375 20.09375 17.09375 C 20.09375 19.59375 16.80625 21.3125 11.90625 21.3125 C 7.00625 21.3125 3.6875 19.59375 3.6875 17.09375 C 3.6875 16.59375 4 15.4875 4.5 14.1875 z"></path></svg>