<?xml version="1.0" encoding="utf-8"?>
<!-- Generator: Adobe Illustrator 16.0.0, SVG Export Plug-In . SVG Version: 6.00 Build 0)  -->
<!DOCTYPE svg PUBLIC "-//W3C//DTD SVG 1.1//EN" "http://www.w3.org/Graphics/SVG/1.1/DTD/svg11.dtd">
<svg version="1.1" id="Layer_1" xmlns="http://www.w3.org/2000/svg" xmlns:xlink="http://www.w3.org/1999/xlink" x="0px" y="0px"
	 width="24px" height="24px" viewBox="0 0 24 24" enable-background="new 0 0 24 24" xml:space="preserve">
<path fill="#F5F9FF" d="M14.219,0.188C12.704,0.259,11.606,1.062,9.594,5C7.194,9.8,5,15.8,5,17c0,1.8,2.5,3,7,3s7-1.2,7-3
	c0-1.1-1.112-4.513-3.312-9.312c-0.4-0.8-0.8-1.7-1-2.5c-0.2-1-0.294-1.494-0.094-1.594c0.1-0.1,0.513,1.1,0.812,1
	c0.5-0.3-0.112-1.6,0.188-2c0.4-0.6,1.119,5,3.219,5.5c0.6,0.1,0.481-0.4,0.281-0.5c-1.2-0.6-0.787-7.406-4.188-7.406
	C14.669,0.175,14.436,0.177,14.219,0.188z M4.5,14.188c-2.7,1-4.594,2.513-4.594,4.312c0,3,5.4,5.594,12,5.594
	c6.6,0,12-2.494,12-5.594c0.1-1.8-1.7-3.312-4.5-4.312c0.4,1.2,0.688,2.307,0.688,2.906c0,2.5-3.287,4.219-8.188,4.219
	c-4.9,0-8.219-1.719-8.219-4.219C3.688,16.594,4,15.487,4.5,14.188z"/>
</svg>
