<?xml version="1.0" encoding="utf-8"?>
<!-- Generator: Adobe Illustrator 16.0.0, SVG Export Plug-In . SVG Version: 6.00 Build 0)  -->
<!DOCTYPE svg PUBLIC "-//W3C//DTD SVG 1.1//EN" "http://www.w3.org/Graphics/SVG/1.1/DTD/svg11.dtd">
<svg version="1.1" id="Layer_1" xmlns="http://www.w3.org/2000/svg" xmlns:xlink="http://www.w3.org/1999/xlink" x="0px" y="0px"
	 width="26px" height="26px" viewBox="0 0 26 26" enable-background="new 0 0 26 26" xml:space="preserve">
<path fill="#F5F9FF" d="M17.502,9.454c-0.457-0.96-1.012-2.052-1.268-3.087c-0.301-1.224-0.41-1.795-0.077-2.018
	c0.116-0.078,0.596,1.362,0.971,1.281c0.582-0.311-0.104-1.976,0.231-2.484c0.529-0.793,0.935,2.332,2.574,3.545
	c0.567,0.419,1.03,0.16,0.721,0c-1.483-0.764-0.383-6.623-4.182-6.623c-2.189,0-3.536,0.494-6.372,6.035C7.092,11.987,3,20.577,3,22
	c0,2.209,4.478,4,10,4c5.521,0,10-1.791,10-4C23,20.691,20.27,15.27,17.502,9.454z M8.918,20.443l-1.297-0.682l-1.297,0.682
	L6.572,19l-1.049-1.021l1.449-0.211l0.648-1.313l0.649,1.313l1.45,0.211L8.67,19L8.918,20.443z M9.547,15.811l0.264-1.535
	l-1.116-1.086l1.542-0.224l0.689-1.396l0.689,1.396l1.541,0.224l-1.115,1.086l0.264,1.535l-1.379-0.725L9.547,15.811z
	 M15.885,23.251c-2.055,0.17-3.857-1.36-4.027-3.415c-0.169-2.055,1.36-3.857,3.416-4.025c0.521-0.045,1.023,0.022,1.488,0.181
	c-0.059,0.002-0.115-0.021-0.172-0.005c-1.923,0.505-2.586,1.582-2.586,3.457c0,1.906,0.967,3.125,3.15,3.418
	c0.059,0.009,0.111-0.022,0.17-0.03C16.893,23.061,16.406,23.209,15.885,23.251z"/>
</svg>
