<?xml version="1.0" encoding="utf-8"?>
<!-- Generator: Adobe Illustrator 16.0.0, SVG Export Plug-In . SVG Version: 6.00 Build 0)  -->
<!DOCTYPE svg PUBLIC "-//W3C//DTD SVG 1.1//EN" "http://www.w3.org/Graphics/SVG/1.1/DTD/svg11.dtd">
<svg version="1.1" id="Layer_1" xmlns="http://www.w3.org/2000/svg" xmlns:xlink="http://www.w3.org/1999/xlink" x="0px" y="0px"
	 width="200px" height="200px" viewBox="0 0 200 200" enable-background="new 0 0 200 200" xml:space="preserve">
<path fill="#F5F9FF" d="M100,0C63.215,0,40.639,27.72,38.702,57.452c-0.09,1.378-0.241,2.702-0.241,4.086
	c-0.002,0.272,0,0.433,0,0.721c0,26.154,12.981,119.23,12.981,119.23c0.769,8.462,7.885,14.567,16.346,16.105
	c4.615,0.77,11.49,1.635,19.952,2.404c-13.077-14.615-19.23-36.827-19.23-59.135c0-35.385,11.586-58.558,22.355-71.634
	c-7.504-5.458-19.49-11.912-36.538-14.423C56.964,33.479,72.165,15.385,100,15.385c21.197,0,31.643,7.075,37.98,16.105
	c2.637,3.756,4.259,8.145,5.529,12.5c-2.148,23.937-34.732,18.033-46.635,33.654c-8.461,11.539-18.51,31.683-18.51,63.221
	c0,24.615,8.654,51.442,27.885,59.135c10.77,0,21.49-1.635,27.645-2.404c8.461-1.538,14.615-8.413,15.385-16.105
	c0,0,12.98-90,12.98-119.23c0-1.989-0.336-3.76-0.962-5.529c-0.549-10.356-2.992-22.984-10.817-34.135
	C141.434,9.704,124.957,0,100,0z M98.077,22.596c-3.299-0.068-5.77,0.481-5.77,0.481s9.135,19.134,5.289,24.519
	c-3.846-7.692-10.577-12.26-10.577-12.26c-14.615-0.769-25.48,10.817-25.48,10.817S83.846,50.096,100,63.942
	c10.77-11.539,33.173-10.145,33.173-20.914c-0.769-2.308-6.25-13.846-17.788-11.539C111.539,24.279,103.576,22.709,98.077,22.596z
	 M107.692,100c4.615,0,7.692,3.077,7.692,7.692s-3.077,7.692-7.692,7.692S100,112.308,100,107.692S103.077,100,107.692,100z
	 M115.385,123.077c2.308,0,3.846,1.538,3.846,3.846s-1.538,3.847-3.846,3.847s-3.846-1.539-3.846-3.847
	S113.077,123.077,115.385,123.077z"/>
</svg>
