<?xml version="1.0" encoding="utf-8"?>
<!-- Generator: Adobe Illustrator 16.0.0, SVG Export Plug-In . SVG Version: 6.00 Build 0)  -->
<!DOCTYPE svg PUBLIC "-//W3C//DTD SVG 1.1//EN" "http://www.w3.org/Graphics/SVG/1.1/DTD/svg11.dtd">
<svg version="1.1" id="Layer_1" xmlns="http://www.w3.org/2000/svg" xmlns:xlink="http://www.w3.org/1999/xlink" x="0px" y="0px"
	 width="26px" height="26px" viewBox="0 0 26 26" enable-background="new 0 0 26 26" xml:space="preserve">
<path fill="#F5F9FF" d="M24.969,2.438c-0.267-0.021-0.531,0.062-0.75,0.25l-8.406,7.219c-0.68-0.235-1.446-0.127-2.031,0.375
	c-0.874,0.751-0.97,2.062-0.219,2.938c0.75,0.874,2.062,0.97,2.938,0.219c0.586-0.501,0.817-1.261,0.688-1.969l8.375-7.188
	C26,3.906,26.062,3.249,25.688,2.812C25.502,2.595,25.235,2.458,24.969,2.438z M1,6C0.449,6,0,6.449,0,7v18c0,0.551,0.449,1,1,1h3
	c0.551,0,1-0.449,1-1V7c0-0.551-0.449-1-1-1H1z M7,7C6.449,7,6,7.449,6,8v16c0,0.551,0.449,1,1,1h3c0.551,0,1-0.449,1-1V8
	c0-0.551-0.449-1-1-1H7z M13,8c-0.551,0-1,0.449-1,1v1.125c0.201-0.368,0.477-0.711,0.812-1c0.715-0.613,1.627-0.915,2.562-0.844
	L15.719,8H13z M22.312,9.062l-1.75,1.5c0.5,0.028,0.875,0.432,0.875,0.938c0,0.525-0.412,0.938-0.938,0.938
	s-0.938-0.413-0.938-0.938c0-0.034-0.004-0.06,0-0.094l-0.875,0.75C18.633,12.828,18.4,13.46,18,14v8c0,0.551,0.449,1,1,1h3
	c0.551,0,1-0.449,1-1V10C23,9.555,22.715,9.19,22.312,9.062z M2.5,10.562c0.525,0,0.938,0.413,0.938,0.938S3.025,12.438,2.5,12.438
	S1.562,12.025,1.562,11.5S1.975,10.562,2.5,10.562z M8.5,10.562c0.525,0,0.938,0.413,0.938,0.938S9.025,12.438,8.5,12.438
	S7.562,12.025,7.562,11.5S7.975,10.562,8.5,10.562z M12,13.594V23c0,0.551,0.449,1,1,1h3c0.551,0,1-0.449,1-1v-8.094
	c-0.559,0.341-1.213,0.531-1.875,0.531c-1.049,0-2.036-0.455-2.719-1.25C12.246,14,12.115,13.801,12,13.594z M2.5,19.562
	c0.525,0,0.938,0.412,0.938,0.938S3.025,21.438,2.5,21.438S1.562,21.025,1.562,20.5S1.975,19.562,2.5,19.562z M8.5,19.562
	c0.525,0,0.938,0.412,0.938,0.938S9.025,21.438,8.5,21.438S7.562,21.025,7.562,20.5S7.975,19.562,8.5,19.562z M14.5,19.562
	c0.525,0,0.938,0.412,0.938,0.938s-0.412,0.938-0.938,0.938s-0.938-0.412-0.938-0.938S13.975,19.562,14.5,19.562z M20.5,19.562
	c0.525,0,0.938,0.412,0.938,0.938s-0.412,0.938-0.938,0.938s-0.938-0.412-0.938-0.938S19.975,19.562,20.5,19.562z"/>
</svg>
