<?xml version="1.0" encoding="utf-8"?>
<!-- Generator: Adobe Illustrator 16.0.0, SVG Export Plug-In . SVG Version: 6.00 Build 0)  -->
<!DOCTYPE svg PUBLIC "-//W3C//DTD SVG 1.1//EN" "http://www.w3.org/Graphics/SVG/1.1/DTD/svg11.dtd">
<svg version="1.1" id="Layer_1" xmlns="http://www.w3.org/2000/svg" xmlns:xlink="http://www.w3.org/1999/xlink" x="0px" y="0px"
	 width="26px" height="26px" viewBox="0 0 26 26" enable-background="new 0 0 26 26" xml:space="preserve">
<path fill="#F5F9FF" d="M2.312,9C2,9,1.969,9.094,2.188,9.344c0.156,0.178,2.918,2.65,3.594,3.25
	c-0.4,0.877-0.823,1.897-0.906,2.438c0.102-0.037,14.562-3.625,14.562-3.625S14.943,9.82,13,10.094
	c-1.169,0.165-4.012,0.532-5.531,0.844C6.198,10.219,4.697,9.349,4.5,9.219C4.202,9.022,4.173,9,3.844,9H2.312z M25.375,11.062
	c0,0-16.248,4.052-19.219,4.875c-3.228,0.895-4.996,3.756-5.094,5.156c-0.02,0-0.043,0-0.062,0c-0.374,0-0.699-0.047-1-0.094v1.875
	c0.291,0.031,0.619,0.031,1,0.031c1.734,0,2.369-0.41,3-0.906c0.887,0.698,2.167,0.906,3,0.906S9.113,22.698,10,22
	c0.887,0.698,2.167,0.906,3,0.906s2.113-0.208,3-0.906c0.887,0.698,2.167,0.906,3,0.906s2.113-0.208,3-0.906
	c0.887,0.698,2.167,0.906,3,0.906c0.414,0,0.736-0.069,1-0.156v-1.812c-0.268,0.094-0.591,0.156-1,0.156
	c-0.833,0-2.113-0.239-3-0.938c-0.746,0.587-1.76,0.84-2.562,0.906c2.328-1.885,4.777-6.256,6.406-9.125
	C26.225,11.265,25.785,10.973,25.375,11.062z M15.125,15.875c0.541-0.114,1.072,0.24,1.188,0.781
	c0.113,0.54-0.241,1.074-0.781,1.188c-0.541,0.113-1.074-0.241-1.188-0.781C14.23,16.521,14.583,15.986,15.125,15.875z
	 M11.219,16.688c0.54-0.113,1.074,0.241,1.188,0.781s-0.241,1.076-0.781,1.188c-0.543,0.114-1.074-0.24-1.188-0.781
	S10.678,16.803,11.219,16.688z M7.281,17.531c0.541-0.113,1.074,0.209,1.188,0.75c0.113,0.541-0.211,1.073-0.75,1.188
	c-0.542,0.113-1.076-0.21-1.188-0.75C6.418,18.178,6.739,17.646,7.281,17.531z M4,23.156c-0.887,0.698-2.167,0.938-3,0.938
	c-0.374,0-0.699-0.047-1-0.094v1.875c0.291,0.031,0.619,0.031,1,0.031c1.734,0,2.369-0.41,3-0.906c0.887,0.698,2.167,0.906,3,0.906
	S9.113,25.698,10,25c0.887,0.698,2.167,0.906,3,0.906s2.113-0.208,3-0.906c0.887,0.698,2.167,0.906,3,0.906s2.113-0.208,3-0.906
	c0.887,0.698,2.167,0.906,3,0.906c0.414,0,0.736-0.069,1-0.156v-1.812c-0.268,0.094-0.591,0.156-1,0.156
	c-0.833,0-2.113-0.239-3-0.938c-0.887,0.698-2.167,0.938-3,0.938s-2.113-0.239-3-0.938c-0.887,0.698-2.167,0.938-3,0.938
	s-2.113-0.239-3-0.938c-0.887,0.698-2.167,0.938-3,0.938S4.887,23.854,4,23.156z M902,1469v2h26v-2H902z M906,1474v2h18v-2H906z
	 M902,1479v2h26v-2H902z M906,1484v2h18v-2H906z M902,1489v2h26v-2H902z"/>
</svg>
