<svg xmlns="http://www.w3.org/2000/svg" width="24" height="24" viewBox="0 0 24 24">    <path d="M 14.3125 0 C 7.8495 0 6.5 4.22 6.5 7.75 C 6.5 8.388 6.61725 10.56025 6.65625 11.40625 C 6.47925 11.29625 6.295 11.20875 6.125 11.09375 C 5.8992701 10.940316 5.6658602 10.804335 5.4375 10.6875 C 5.2217448 10.576596 5.0265166 10.482509 4.8125 10.40625 C 4.8026844 10.402741 4.7910576 10.409684 4.78125 10.40625 C 4.7101189 10.381382 4.6331251 10.364632 4.5625 10.34375 C 4.4289765 10.304419 4.2872039 10.274702 4.15625 10.25 C 3.9615538 10.212371 3.7801138 10.191569 3.59375 10.1875 C 3.1365971 10.177519 2.7168576 10.260261 2.34375 10.46875 C 2.0037238 10.658366 1.7007208 10.954196 1.46875 11.34375 C 0.24475 13.39975 2.59375 15.53125 2.59375 15.53125 C 3.1475 15.9485 3.6357031 16.344891 4.09375 16.71875 C 4.5517969 17.092609 4.9818125 17.451313 5.34375 17.78125 C 5.3914575 17.824658 5.4539617 17.863611 5.5 17.90625 C 5.7941677 18.180053 6.0563808 18.445634 6.28125 18.6875 C 6.4335237 18.850576 6.5669576 19.007828 6.6875 19.15625 C 6.7684937 19.257496 6.8714278 19.374445 6.9375 19.46875 C 7.228108 19.881725 7.375 20.252948 7.375 20.53125 L 7.375 22.15625 C 7.375 23.37025 10.0895 24 13.8125 24 C 17.5355 24 20.3125 23.4005 20.3125 22.1875 L 20.3125 20.53125 C 20.3125 19.53625 20.73875 18.2065 21.09375 16.6875 C 21.59275 14.5475 22.15625 12.11875 22.15625 9.46875 C 22.15625 2.47175 17.9195 0 14.3125 0 z M 18.5 19.8125 C 18.473578 20.05122 18.46875 20.299076 18.46875 20.53125 L 18.46875 21.625 C 17.88975 21.847 16.4695 22.15625 13.8125 22.15625 C 11.1805 22.15625 9.78675 21.81975 9.21875 21.59375 L 9.21875 20.53125 C 9.21875 20.3595 9.2216445 20.182365 9.1875 20 C 12.486423 20.528442 16.279334 20.205983 18.5 19.8125 z"></path></svg>