<svg xmlns="http://www.w3.org/2000/svg" width="24" height="24" viewBox="0 0 24 24">    <path d="M 17.28125 0.09375 C 17.28125 0.09375 16.568409 2.4620758 15.8125 4.59375 C 15.233357 4.4498017 14.638593 4.40625 14.3125 4.40625 C 13.1265 4.40625 10.07 4.679 7.375 7.375 C 5.397 9.352 4.728 11.535 4.5 13 C 4.3302005 14.087334 4.3541938 15.099676 4.5625 15.875 C 3.1365998 16.356254 0.09375 17.375 0.09375 17.375 L 2 19.4375 L 0.53125 23.375 L 4.59375 22 L 6.71875 23.90625 C 6.71875 23.90625 7.4315914 21.537924 8.1875 19.40625 C 8.7686989 19.550654 9.3602808 19.59375 9.6875 19.59375 C 10.8745 19.59375 13.933 19.317 16.625 16.625 C 18.603 14.648 19.273 12.467 19.5 11 C 19.667947 9.9126656 19.645842 8.900616 19.4375 8.125 C 20.8634 7.6437464 23.90625 6.625 23.90625 6.625 L 22 4.5625 L 23.46875 0.625 L 19.40625 2 L 17.28125 0.09375 z M 22.09375 2.0625 L 20.53125 4.8125 L 22.125 6.125 L 18.6875 6.84375 L 17.25 5.40625 L 17.875 2.09375 L 19.03125 3.5625 L 22.09375 2.0625 z M 11.25 7.84375 L 12.75 7.84375 L 12.46875 11.25 L 15.21875 9.28125 L 15.96875 10.5625 L 12.78125 12 L 15.96875 13.4375 L 15.21875 14.71875 L 12.40625 12.6875 L 12.75 16.15625 L 11.25 16.15625 L 11.59375 12.78125 L 8.78125 14.71875 L 8.03125 13.4375 L 11.0625 12 L 8.03125 10.5625 L 8.78125 9.28125 L 11.53125 11.1875 L 11.25 7.84375 z M 5.3125 17.15625 L 6.75 18.59375 L 6.125 21.90625 L 4.96875 20.4375 L 1.90625 21.9375 L 3.46875 19.1875 L 1.875 17.875 L 5.3125 17.15625 z"></path></svg>