<svg xmlns="http://www.w3.org/2000/svg" width="24" height="24" viewBox="0 0 24 24">    <path d="M 12 0.03125 C 7.913 0.03125 4.59375 1.12075 4.59375 2.46875 C 4.59375 2.50975 5.04075 3.6115 5.46875 4.6875 C 3.26175 5.4495 1.84375 6.56975 1.84375 7.84375 C 1.84375 8.5250284 2.2581051 9.15138 2.96875 9.71875 C 2.3474523 11.016473 2 12.46751 2 14 C 2 19.514 6.486 24 12 24 C 17.514 24 22 19.514 22 14 C 22 12.464662 21.653967 11.01848 21.03125 9.71875 C 21.741895 9.15138 22.15625 8.5250284 22.15625 7.84375 C 22.15625 6.58975 20.80325 5.48075 18.65625 4.71875 C 19.03225 3.63075 19.40625 2.50975 19.40625 2.46875 C 19.40625 1.12175 16.087 0.03125 12 0.03125 z M 5.6875 5.09375 C 6.2235 5.45975 7.963 6.375 12.125 6.375 C 15.963 6.375 17.7605 5.5965 18.4375 5.1875 C 18.1535 6.0635 17.90625 6.8125 17.90625 6.8125 C 17.90625 6.8125 16.66 8.25 12.125 8.25 C 7.59 8.25 6.3125 6.8125 6.3125 6.8125 C 6.3125 6.8125 6.0305 6.01075 5.6875 5.09375 z M 4 10.40625 C 5.0902372 10.976777 6.5525457 11.443383 8.21875 11.71875 C 8.0809457 11.945545 8 12.215228 8 12.5 C 8 13.328427 8.6715729 14 9.5 14 C 10.328427 14 11 13.328427 11 12.5 C 11 12.303249 10.943866 12.109661 10.875 11.9375 C 11.252068 11.954871 11.611586 12 12 12 C 13.125877 12 14.175425 11.919648 15.1875 11.78125 C 15.072041 11.99379 15 12.241117 15 12.5 C 15 13.328427 15.671573 14 16.5 14 C 17.328427 14 18 13.328427 18 12.5 C 18 12.029746 17.776146 11.618773 17.4375 11.34375 C 18.418586 11.088423 19.286138 10.779818 20 10.40625 C 20.359944 11.347799 20.5625 12.370201 20.5625 13.4375 C 20.5625 18.1605 16.724 22 12 22 C 7.276 22 3.4375 18.1615 3.4375 13.4375 C 3.4375 12.367203 3.6385147 11.350389 4 10.40625 z M 14 14 C 12.895 14 12 14.895 12 16 C 12 17.105 12.895 18 14 18 C 15.105 18 19.71875 16 19.71875 16 C 19.71875 16 15.105 14 14 14 z M 9.3125 18.28125 C 9.9145 19.80525 11.334 20.875 13 20.875 C 14.666 20.875 16.11775 19.80425 16.71875 18.28125 C 15.80675 19.13925 14.472 19.6875 13 19.6875 C 11.528 19.6875 10.2235 19.13925 9.3125 18.28125 z"></path></svg>