<svg xmlns="http://www.w3.org/2000/svg" width="50" height="50" viewBox="0 0 50 50">    <path d="M 40.21875 0.0625 C 39.68475 0.0625 39.1915 0.27825 38.8125 0.65625 C 38.6795 0.78925 38.6045 0.97325 38.5625 1.15625 L 36.65625 9.375 L 17.78125 28.25 C 17.71025 28.32 11.01475 35.6075 12.84375 37.4375 C 13.09675 37.6905 13.40025 37.84375 13.78125 37.84375 C 14.63925 37.84375 15.891 37.14825 18 35.65625 C 19.771 34.40425 21.57525 32.956 22.03125 32.5 L 40.9375 13.625 L 48.875 11.4375 C 49.042 11.3915 49.1895 11.27925 49.3125 11.15625 C 49.6905 10.77925 49.90625 10.284 49.90625 9.75 C 49.90625 9.216 49.6905 8.72175 49.3125 8.34375 L 41.65625 0.65625 C 41.28025 0.27825 40.784 0.0635 40.25 0.0625 L 40.21875 0.0625 z M 41.46875 6.09375 C 41.53975 6.09375 41.60125 6.133 41.65625 6.1875 L 43.8125 8.3125 C 43.9205 8.4215 43.9215 8.60975 43.8125 8.71875 L 41.53125 9.34375 L 40.71875 8.5625 L 41.28125 6.1875 C 41.33525 6.133 41.39775 6.09375 41.46875 6.09375 z M 12.53125 21.1875 C 12.2755 21.1875 12.03925 21.3045 11.84375 21.5 L 2.875 30.4375 C 0.531 32.7825 -1.78 39.56875 2 47.84375 C 2.107 48.07775 2.3225 48.279 2.5625 48.375 C 5.2425 49.441 8.17225 50 11.03125 50 C 14.82525 50 18.26975 48.98025 19.84375 47.40625 L 28.8125 38.46875 C 29.2035 38.07775 29.2035 37.4535 28.8125 37.0625 L 24.5625 32.8125 L 23.4375 33.90625 C 22.8505 34.49325 20.94525 36.0465 19.15625 37.3125 C 16.54625 39.1595 15.10425 39.84375 13.78125 39.84375 C 12.88125 39.84375 12.0735 39.511 11.4375 38.875 C 11.0245 38.462 10.52925 37.7105 10.53125 36.5625 C 10.53825 32.9315 16.321 26.89675 16.375 26.84375 L 17.5 25.71875 L 13.25 21.5 C 13.0545 21.3045 12.787 21.1875 12.53125 21.1875 z"></path></svg>