<svg xmlns="http://www.w3.org/2000/svg" version="1" width="26" height="26" viewBox="0 0 26 26">    <path style="text-indent:0;text-align:start;line-height:normal;text-transform:none;block-progression:tb;-inkscape-font-specification:Bitstream Vera Sans" d="M 18.9375 0.09375 A 1.0001 1.0001 0 0 0 18.78125 0.125 C 18.78125 0.125 16.498822 0.63971502 14.75 2.25 C 14.73889 2.25963 14.72978 2.271582 14.71875 2.28125 C 12.988906 3.7969702 12.19895 5.7754934 9.34375 8.25 C 6.5066775 10.708796 4.5466384 11.247411 2.75 12.78125 C 2.720914 12.80608 2.685241 12.81838 2.65625 12.84375 L 2.6875 12.875 C 1.9390862 13.40895 1.4448204 14.082769 1.0625 14.65625 A 1.0001 1.0001 0 0 0 0.875 14.96875 C 0.71115685 15.043142 0.5625 15.09375 0.5625 15.09375 A 1.0001 1.0001 0 0 0 0 16 L 0 20.875 A 1.0063276 1.0063276 0 0 0 0 21.1875 L 0 21.875 A 1.0063276 1.0063276 0 0 0 0 22.1875 L 0 25 A 1.0001 1.0001 0 0 0 1.4375 25.90625 C 1.4375 25.90625 3.3333333 25 5 25 C 5.8333333 25 7.292847 25.249848 8.78125 25.5 C 10.269653 25.750152 11.79127 26 13 26 C 14.20873 26 15.730347 25.750152 17.21875 25.5 C 18.707153 25.249848 20.166667 25 21 25 C 22.666667 25 24.5625 25.90625 24.5625 25.90625 A 1.0001 1.0001 0 0 0 26 25 L 26 22.125 A 1.0063276 1.0063276 0 0 0 26 21.8125 L 26 21.125 A 1.0063276 1.0063276 0 0 0 26 20.8125 L 26 16 A 1.0001 1.0001 0 0 0 25.4375 15.09375 C 25.4375 15.09375 23.333333 14 21 14 C 20.240252 14 19.52128 14.107002 18.78125 14.25 C 20.005213 12.805592 21.192335 11.283432 21.96875 10.5625 C 23.218132 9.479702 25.25 8.875 25.25 8.875 A 1.0001 1.0001 0 0 0 25.75 7.25 L 23.96875 5.25 A 1.0001 1.0001 0 0 0 23.96875 5.21875 A 1.0001 1.0001 0 0 0 23.53125 4.71875 A 1.0001 1.0001 0 0 0 23.5 4.71875 L 23.40625 4.59375 A 1.0001 1.0001 0 0 0 22.75 3.84375 L 19.75 0.4375 A 1.0001 1.0001 0 0 0 18.9375 0.09375 z M 18.6875 2.25 L 19.25 2.90625 C 18.484414 3.2379874 17.500155 3.7331995 16.6875 4.4375 C 15.87069 5.1454021 14.948392 6.2769683 14 7.4375 C 13.051608 8.5980317 12.064137 9.7615194 11.28125 10.40625 C 10.096952 11.408348 7.588171 12.815689 5.84375 14.03125 C 5.5628255 14.003906 5.2916667 14 5 14 C 4.7816201 14 4.556578 14.013882 4.34375 14.03125 C 5.7334173 12.991758 7.8059956 12.220221 10.65625 9.75 C 13.782838 7.0402908 14.815675 4.8305816 16.0625 3.75 A 1.0001 1.0001 0 0 0 16.09375 3.71875 C 17.039336 2.8362029 18.103728 2.438919 18.6875 2.25 z M 19.96875 3.6875 L 20.59375 4.375 C 19.813474 4.7103007 18.854996 5.2235867 18.03125 5.9375 C 17.14763 6.7033041 16.259283 7.8726865 15.3125 9.03125 C 14.376333 10.176822 13.400935 11.31103 12.6875 11.90625 C 12.6794 11.91305 12.66428 11.93089 12.65625 11.9375 C 11.741266 12.664654 10.162826 13.646055 8.6875 14.53125 C 8.1867141 14.431725 7.7047504 14.369701 7.25 14.28125 C 8.8253837 13.269562 10.755331 12.156242 11.90625 11.1875 C 11.91585 11.1796 11.92785 11.16428 11.9375 11.15625 C 12.846183 10.399982 13.808391 9.2459824 14.75 8.09375 C 15.701608 6.9292817 16.62931 5.7795979 17.3125 5.1875 C 18.143817 4.4670256 19.215407 3.9796257 19.96875 3.6875 z M 22.6875 6.78125 L 23.28125 7.4375 C 22.485643 7.7758763 21.512146 8.2894734 20.65625 9.03125 A 1.0001 1.0001 0 0 0 20.625 9.0625 C 19.132496 10.440196 17.263399 13.111601 15.78125 14.59375 A 1.0054782 1.0054782 0 0 0 15.59375 14.84375 C 15.001789 14.919982 14.344595 14.978176 13.625 15 C 13.969582 14.760539 14.281049 14.496269 14.5625 14.25 C 15.476829 13.449962 16.443283 12.256814 17.40625 11.09375 C 18.369217 9.9306864 19.344059 8.791399 19.96875 8.25 C 20.823273 7.5094132 22.001348 7.0340255 22.6875 6.78125 z M 5 16 C 6.6666667 16 8.8333333 17 13 17 C 17.166667 17 19.333333 16 21 16 C 22.263593 16 23.401707 16.438828 24 16.6875 L 24 17.5625 C 23.208737 17.288042 22.12069 17 21 17 C 19.916667 17 18.455798 17.250076 16.96875 17.5 C 15.481702 17.749924 13.970635 18 13 18 C 12.029365 18 10.518298 17.749924 9.03125 17.5 C 7.5442015 17.250076 6.0833333 17 5 17 C 3.8793103 17 2.7912635 17.288042 2 17.5625 L 2 16.6875 C 2.598293 16.438828 3.7364074 16 5 16 z M 5 18 C 5.9166667 18 7.3870485 18.249924 8.875 18.5 C 10.362952 18.750076 11.870635 19 13 19 C 14.129365 19 15.637048 18.750076 17.125 18.5 C 18.612952 18.249924 20.083333 18 21 18 C 22.145833 18 23.268188 18.350342 24 18.625 L 24 19.53125 C 23.191694 19.267914 22.125 19 21 19 C 19.833333 19 18.361597 19.250152 16.875 19.5 C 15.388403 19.749848 13.89127 20 13 20 C 12.10873 20 10.611597 19.749848 9.125 19.5 C 7.638403 19.250152 6.1666667 19 5 19 C 3.875 19 2.8083055 19.267914 2 19.53125 L 2 18.625 C 2.7318115 18.350342 3.8541667 18 5 18 z M 5 22 C 5.8333333 22 7.292847 22.249848 8.78125 22.5 C 10.269653 22.750152 11.79127 23 13 23 C 14.20873 23 15.730347 22.750152 17.21875 22.5 C 18.707153 22.249848 20.166667 22 21 22 C 22.126357 22 23.320216 22.387885 24 22.65625 L 24 23.53125 C 23.188017 23.263715 22.13037 23 21 23 C 19.833333 23 18.361597 23.250152 16.875 23.5 C 15.388403 23.749848 13.89127 24 13 24 C 12.10873 24 10.611597 23.749848 9.125 23.5 C 7.638403 23.250152 6.1666667 23 5 23 C 3.8696296 23 2.8119828 23.263715 2 23.53125 L 2 22.65625 C 2.6797843 22.387885 3.8736429 22 5 22 z" color="#000" overflow="visible" enable-background="accumulate" font-family="Bitstream Vera Sans"></path></svg>