<svg xmlns="http://www.w3.org/2000/svg" version="1" viewBox="0 0 24 24" enable-background="new 0 0 24 24">    <path style="text-indent:0;text-align:start;line-height:normal;text-transform:none;block-progression:tb;-inkscape-font-specification:Bitstream Vera Sans" d="M 12 2 C 11.220822 2 10.548888 2.4435038 10.21875 3.09375 C 5.5011543 3.6499923 3.0265852 6.3622338 2.3125 8.59375 C 2.5125 8.59375 2.70625 8.7125 2.90625 8.8125 C 3.10625 9.1125 2.90625 9.60625 2.40625 9.90625 C 2.20625 10.00625 2.1 9.99375 2 10.09375 C 2 10.78125 2.203125 11.356445 2.59375 11.6875 L 2.71875 12.25 L 4.71875 19.71875 C 4.7220642 19.733664 4.7464636 19.735192 4.75 19.75 C 5.0688035 21.084955 6.2640555 22 7.59375 22 L 16.5 22 C 17.829613 22 19.024856 21.084821 19.34375 19.75 L 19.375 19.75 C 19.3771 19.7408 19.3729 19.72799 19.375 19.71875 L 21.28125 12.25 L 21.4375 11.65625 C 22.784495 10.435078 21.83944 6.225431 17.59375 4.1875 C 17.69375 4.3875 17.7 4.70625 17.5 4.90625 C 17.2 5.20625 16.59375 5.2125 16.09375 4.8125 C 15.59375 4.4125 15.3875 3.89375 15.6875 3.59375 C 15.092746 3.3774757 14.481529 3.2243379 13.8125 3.125 C 13.48961 2.4543628 12.794129 2 12 2 z M 8.4375 4.78125 C 8.8265625 4.7671875 9.3125 5.05 9.6875 5.5 C 10.0875 6.2 10.0875 6.8875 9.6875 7.1875 C 9.2875 7.4875 8.59375 7.19375 8.09375 6.59375 C 7.69375 5.99375 7.69375 5.20625 8.09375 4.90625 C 8.19375 4.83125 8.3078125 4.7859375 8.4375 4.78125 z M 17.40625 7.59375 C 17.80625 7.59375 18.1875 8.0875 18.1875 8.6875 C 18.1875 9.2875 17.80625 9.8125 17.40625 9.8125 C 17.00625 9.8125 16.59375 9.2875 16.59375 8.6875 C 16.59375 8.0875 16.90625 7.59375 17.40625 7.59375 z M 5 13 L 19.03125 13 L 17.4375 19.25 L 17.4375 19.28125 C 17.339585 19.721868 16.955556 20 16.5 20 L 15.96875 20 L 16.8125 15 L 14.8125 15 L 13.96875 20 L 13 20 L 13 15 L 11 15 L 11 20 L 10.03125 20 L 9.1875 15 L 7.1875 15 L 8.03125 20 L 7.59375 20 C 7.1381944 20 6.7854151 19.721868 6.6875 19.28125 L 6.65625 19.25 L 5 13 z" color="#000" overflow="visible" enable-background="accumulate" font-family="Bitstream Vera Sans"></path></svg>