<svg xmlns="http://www.w3.org/2000/svg" width="26" height="26" viewBox="0 0 26 26">    <path d="M 14.09375 0.125 C 13.631368 0.12529663 13.167312 0.1440625 12.6875 0.1875 C 5.0105 0.8825 0.0625 7.25625 0.0625 10.53125 C 0.0625 14.14725 5.68175 13.60425 12.84375 13.15625 C 21.38275 12.62325 25.90625 11.4285 25.90625 7.8125 C 25.90625 4.746875 21.029474 0.12055054 14.09375 0.125 z M 11.3125 1.71875 C 11.3125 1.71875 5.6745 4.157 4.4375 11 C 3.3495 11 2.34375 10.8125 2.34375 10.8125 C 4.26175 3.9595 11.3125 1.71875 11.3125 1.71875 z M 17.15625 14.40625 C 15.79325 14.56025 14.3655 14.661 12.9375 14.75 L 11.9375 14.8125 C 11.4115 14.8455 10.885 14.87425 10.375 14.90625 C 10.221 17.42125 9.6475 21.91775 7.5625 24.84375 C 7.0275 25.59375 7.26425 26 7.90625 26 L 16.5625 26 C 17.0845 26 17.22575 25.82225 17.34375 25.40625 C 17.45175 25.02525 18.73625 20.85625 17.15625 14.40625 z"></path></svg>