<svg xmlns="http://www.w3.org/2000/svg" width="24" height="24" viewBox="0 0 24 24">    <path d="M 12 4 C 11.171573 4 10.5 4.6715729 10.5 5.5 C 10.5 5.7226398 10.56923 5.9350094 10.65625 6.125 C 9.163465 6.3905592 7.7683257 7.073578 6.6875 8 L 17.3125 8 C 16.231674 7.073578 14.836535 6.3905592 13.34375 6.125 C 13.43077 5.9350094 13.5 5.7226398 13.5 5.5 C 13.5 4.6715729 12.828427 4 12 4 z M 22.8125 8 C 21.065223 8.5096225 20.781882 10.910104 19.6875 12.1875 C 19.400104 11.008834 18.831496 9.9389489 18.09375 9 L 5.8125 9 C 5.7334051 9.1006663 5.6685972 9.2087687 5.59375 9.3125 C 5.1084875 9.1033782 4.5621277 9 4 9 C 1.7901961 9 0 10.790196 0 13 C 0 14.833333 1.0746248 15.989271 1.875 16.65625 C 2.2751876 16.98974 2.6020849 17.228474 2.78125 17.4375 C 2.9604151 17.646526 3 17.75 3 18 A 1.0001 1.0001 0 1 0 5 18 C 5 17.911689 4.9775814 17.835285 4.96875 17.75 C 5.6990148 19.099873 6.7831964 20.23551 8.09375 21 L 15.8125 21 C 16.783297 20.456354 17.591616 19.733702 18.25 18.875 C 23.28161 17.370934 21.260813 11.066937 24.09375 9.40625 L 22.8125 8 z M 4 11 C 4.2120037 11 4.4083118 11.044789 4.59375 11.09375 C 4.2275088 11.993126 4 12.966056 4 14 C 4 14.774563 4.1343139 15.511284 4.34375 16.21875 C 4.326099 16.197021 4.299139 16.17712 4.28125 16.15625 C 3.8979151 15.709026 3.4748124 15.38526 3.125 15.09375 C 2.4253752 14.510729 2 14.166667 2 13 C 2 11.809804 2.8098039 11 4 11 z"></path></svg>