<svg xmlns="http://www.w3.org/2000/svg" viewBox="0 0 26 26" enable-background="new 0 0 26 26">    <path d="M 16.40625 0.03125 C 16.351562 0.0375 16.2625 0.04375 16.1875 0.09375 C 15.59289 0.50997706 15.121677 1.0381131 14.78125 1.6875 C 14.324824 1.3926141 13.985743 1 13 1 C 10.9 1 4 8.7125 4 17.3125 C 4 22.1125 8 26 13 26 C 18 26 22 22.1125 22 17.3125 C 22 12.5125 19 11.4125 19 6.8125 C 19 4.4354412 17.908142 2.0452266 15.75 2 C 16.063149 1.5682797 16.481 1.30375 16.90625 1 C 17.20625 0.8 17.0125 0.6125 16.8125 0.3125 C 16.6625 0.1625 16.570312 0.0125 16.40625 0.03125 z M 13 11 C 14.2 11 17 13.8125 17 16.8125 C 17 19.8125 15.3 22 13 22 C 10.7 22 9 19.9125 9 16.8125 C 9 13.7125 11.8 11 13 11 z"></path></svg>