<svg xmlns="http://www.w3.org/2000/svg" width="26" height="26" viewBox="0 0 26 26">    <path d="M 15.28125 0.09375 C 15.07925 0.097375 14.9375 0.15625 14.9375 0.15625 C 14.9375 0.15625 13.194573 1.9140024 12.5625 4.0625 C 10.508092 0.98199194 8.0504792 3.6444792 7.0625 1.09375 C 7.0625 5.09875 11.055 4.1495 12 4.8125 C 8.322 4.5075 8.92 7.466 6.25 8 C 9.654 9.402 11.73425 7.88425 12.65625 5.40625 C 12.51125 6.37525 11.3995 9.75625 14.5625 11.65625 C 15.324143 9.2054096 14.932138 7.4304589 13.875 5.34375 C 13.892895 5.3384468 13.922013 5.3497207 13.9375 5.34375 C 15.491235 7.2891429 17.859437 9.4424062 20.53125 7.75 C 18.32025 7.172 18.6835 5.601 15.9375 5.125 C 17.9975 5.211 18.9035 5.73375 20.3125 2.96875 C 18.0945 4.11675 16.83775 1.84725 14.09375 4.28125 C 14.19459 3.3586788 14.589634 1.6258115 16.03125 0.34375 C 15.77125 0.13225 15.48325 0.090125 15.28125 0.09375 z M 6.65625 3.6875 C 1.56825 4.8525 0 8.7795 0 13.6875 C 0 20.1245 5.817 26 13 26 C 19.358 26 26 21.72225 26 12.40625 C 26 8.53125 24.678 5.54725 21 4.28125 C 21.062 4.99825 19.73625 5.81275 19.03125 5.84375 C 19.79125 6.03375 20.92625 7.18875 21.90625 6.84375 C 21.84625 7.55575 21.30525 8.804 20.65625 9.25 C 19.55425 10.01 17.386 9.98075 16.375 8.96875 C 16.3 9.58075 16.464 12.51375 14.875 13.46875 C 12.077 12.76375 11.7445 10.5895 11.3125 9.4375 C 10.6585 9.6845 9.8105 10.03075 9.0625 10.09375 C 6.0425 10.34575 4.289 8.53325 4.375 7.65625 C 5.508 7.32025 7.4535 6.3435 7.9375 5.1875 C 7.4375 5.0155 6.65625 4.6375 6.65625 3.6875 z"></path></svg>