<svg xmlns="http://www.w3.org/2000/svg" width="50" height="50" viewBox="0 0 50 50">    <path d="M 35.5 7 C 29.115 7 23.62875 11.12075 21.71875 16.96875 C 21.81075 16.96375 21.908 16.9375 22 16.9375 L 23.875 16.9375 C 25.703 12.2455 30.236 9 35.5 9 C 42.393 9 48 14.607 48 21.5 C 48 23.93 47.277 26.262 46 28.25 L 46 31.46875 C 48.53 28.79875 50 25.246 50 21.5 C 50 13.505 43.495 7 35.5 7 z M 6.5 15 C 6.086 15.005 5.6285 15.182 5.3125 15.5 L 0.5 20.3125 C 0.183 20.6295 0 21.051 0 21.5 C 0 21.949 0.182 22.3705 0.5 22.6875 L 1.21875 23.4375 C 1.68975 23.8645 2.723 24.157 3.625 23.25 C 3.626 23.249 4.19175 23.1605 5.71875 24.6875 C 8.37575 27.3435 19 40.6165 19 42.9375 C 19 44.5635 20.374 45.9375 22 45.9375 L 41 45.9375 C 42.626 45.9375 44 44.5635 44 42.9375 L 44 25 L 19 25 L 19 28.34375 C 17.241 27.53775 12.7635 23.825 9.6875 20.75 C 8.1545 19.217 8.20375 18.6985 8.21875 18.6875 C 8.72375 18.1835 8.84375 17.6475 8.84375 17.3125 C 8.84375 16.6895 8.48 16.32375 8.375 16.21875 L 7.6875 15.5 C 7.3705 15.181 6.949 15.001 6.5 15 z M 22 19 C 20.374 19 19 20.3115 19 21.9375 L 19 22.9375 L 44 22.9375 L 44 21.9375 C 44 20.3115 42.626 19 41 19 L 22 19 z"></path></svg>