<svg xmlns="http://www.w3.org/2000/svg" width="50" height="50" viewBox="0 0 50 50">    <path d="M 10 1 C 9.7 1 9.40875 1.142 9.21875 1.375 C 9.02875 1.608 8.97025 1.8935 9.03125 2.1875 L 12.6875 20 L 12.40625 20 L 5.40625 13.28125 C 5.10625 12.99125 4.627 12.91075 4.25 13.09375 L 0.5625 14.90625 C 0.3225 15.02425 0.1475 15.21475 0.0625 15.46875 C -0.0225 15.72275 -0.02725 16.011 0.09375 16.25 L 3.6875 23.34375 L 3.6875 26.5625 L 0.09375 33.75 C -0.02525 33.99 -0.0235 34.27825 0.0625 34.53125 C 0.1475 34.78425 0.3225 34.97675 0.5625 35.09375 L 4.25 36.90625 C 4.628 37.08825 5.10625 37.00775 5.40625 36.71875 L 12.40625 30 L 12.78125 30 L 9.03125 47.78125 C 8.96925 48.07625 9.02875 48.392 9.21875 48.625 C 9.40875 48.859 9.699 49 10 49 L 13.90625 49 C 14.19425 49 14.46625 48.87325 14.65625 48.65625 L 20.5 41.96875 L 24.09375 41.96875 C 24.63175 41.96875 25.0625 41.538 25.0625 41 C 25.0625 40.462 24.63175 40.03125 24.09375 40.03125 L 22.1875 40.03125 L 30.96875 30 L 37.90625 30 C 43.66025 30 49.35475 25.9845 49.59375 25.8125 C 49.85575 25.6265 49.999 25.321 50 25 C 50.001 24.678 49.85375 24.3765 49.59375 24.1875 C 49.35775 24.0165 43.76325 20 37.90625 20 L 30.96875 20 L 22.1875 9.96875 L 24.09375 9.96875 C 24.63175 9.96875 25.0625 9.538 25.0625 9 C 25.0625 8.462 24.63175 8.03125 24.09375 8.03125 L 20.5 8.03125 L 14.65625 1.34375 C 14.46625 1.12675 14.19525 1 13.90625 1 L 10 1 z"></path></svg>