<svg xmlns="http://www.w3.org/2000/svg" width="24" height="24" viewBox="0 0 24 24">    <path d="M 12 0 L 11.25 1.875 L 9.25 2 L 10.78125 3.28125 L 10.3125 5.21875 L 12 4.15625 L 13.6875 5.21875 L 13.21875 3.28125 L 14.75 2 L 12.75 1.875 L 12 0 z M 12 4.8125 L 7 11.21875 C 7 11.21875 9.3795 12 12.0625 12 C 14.7455 12 17 11.21875 17 11.21875 L 12 4.8125 z M 9.125 11.71875 L 4.625 17.21875 C 4.625 17.21875 5.2572537 17.6412 6.9375 18 C 8.1010838 18.248472 9.7443486 18.46875 12.09375 18.46875 C 17.83575 18.46875 19.375 17.21875 19.375 17.21875 L 15.59375 12.59375 C 15.59375 12.59375 10.877 12.87875 9.125 11.71875 z M 6.9375 18 L 2.78125 22.59375 C 2.78125 22.59375 5.129 24 12.125 24 C 19.121 24 21.21875 22.59375 21.21875 22.59375 L 17.84375 18.875 C 17.84475 18.876 11.1395 20.294 6.9375 18 z"></path></svg>