<svg xmlns="http://www.w3.org/2000/svg" width="50" height="50" viewBox="0 0 50 50">    <path d="M41.069,16.229c-1.102-0.25-1.774-2.237-2.553-4.538C36.941,7.036,34.562,0,24.996,0c-9.775,0-11.942,6.543-13.524,11.32 c-0.793,2.395-1.478,4.462-2.832,4.941C3.149,18.205,0,22.604,0,28.333c0,0.532,0.416,0.971,0.947,0.999 c6.149,0.325,6.38,3.278,6.624,6.406c0.152,1.945,0.325,4.151,2.471,4.866l1.049,0.346c3.362,1.1,4.62,1.512,5.856,4.127 C18.097,47.512,19.949,50,24.972,50l0.201-0.001c4.995-0.063,6.59-2.679,7.871-4.78c0.733-1.202,1.313-2.151,2.395-2.477 c4.841-1.458,5.53-4.438,6.085-6.832c0.588-2.536,0.976-4.211,6.074-4.211c0.419,0,0.864,0.012,1.341,0.038 c0.272-0.008,0.542-0.116,0.741-0.305s0.313-0.482,0.313-0.757C49.992,25.143,49.992,18.257,41.069,16.229z M18.996,16.998 c-1.104,0-2-1.343-2-3s0.896-3,2-3s2,1.343,2,3S20.101,16.998,18.996,16.998z M26.996,16.998c-1.104,0-2-1.343-2-3s0.896-3,2-3 s2,1.343,2,3S28.101,16.998,26.996,16.998z"></path></svg>