<svg xmlns="http://www.w3.org/2000/svg" width="50" height="50" viewBox="0 0 50 50">    <path d="M 38.84375 -0.0625 C 37.05675 0.0335 35.66925 1.064 35.03125 2.75 C 30.15125 7.495 23.35625 11.928 17.65625 14.25 C 18.04525 14.277 18.3995 14.3035 18.6875 14.3125 C 18.9445 14.3205 19.125 14.3125 19.125 14.3125 C 19.677 14.3125 20.125 14.7605 20.125 15.3125 C 20.125 15.8645 19.677 16.3125 19.125 16.3125 C 19.125 16.3125 18.762 16.3165 18.625 16.3125 C 18.594 16.3115 15.52475 16.208 13.96875 15.75 C 13.87375 15.722 13.773 15.6245 13.625 15.5625 C 10.145 14.0125 7.8065 14.728 6.4375 15.625 C 4.3765 16.975 3.1195 19.74375 3.1875 22.71875 C 3.0575 23.00275 2.87925 23.36725 2.65625 23.78125 C 1.64425 25.66625 0.09375 28.495 0.09375 31.875 C 0.05575 34.736 0.4545 41.8945 4.9375 46.4375 C 7.2705 48.8005 10.29625 50 13.90625 50 C 22.13925 50 26.15975 45.43575 29.09375 42.09375 C 29.79475 41.29475 30.44375 40.51725 31.09375 39.90625 C 32.98675 38.07025 36.65725 36.69375 39.90625 35.46875 C 42.03425 34.66575 44.049 33.9085 45.5 33.0625 C 49.44 30.7235 50.86975 26.82625 49.21875 22.90625 C 49.07875 22.57425 48.76425 22.3545 48.40625 22.3125 C 47.528312 22.207719 46.745346 22.284188 46 22.5 C 45.748607 22.261389 45.442374 22.021674 45.09375 21.8125 C 44.680476 21.895155 44.764379 22.187812 44.96875 22.90625 C 44.18701 23.276547 43.481227 23.777068 42.84375 24.3125 C 42.561296 24.071627 42.258836 23.805302 41.90625 23.59375 C 41.571344 23.761203 41.693407 24.211402 41.90625 25.1875 C 41.629509 25.454239 41.342471 25.718563 41.09375 25.96875 C 40.658539 26.405867 40.233331 26.797886 39.875 27.09375 C 39.577716 26.740359 39.195197 26.36264 38.6875 26 C 38.121602 26.094159 38.2829 26.487278 38.46875 27.78125 C 37.443226 28.159732 36.483911 28.451483 35.59375 28.65625 C 35.347829 28.451029 35.092849 28.210262 34.8125 28 C 34.382692 28.085962 34.393381 28.334152 34.46875 28.90625 C 33.945718 29.003979 33.408248 29.0734 32.875 29.15625 C 32.593975 28.830876 32.13736 28.256141 31.40625 27.6875 C 30.846626 27.780616 30.973435 28.178268 31.15625 29.4375 C 30.612562 29.524094 30.106947 29.603198 29.5 29.71875 C 29.22902 29.774512 28.977728 29.846222 28.71875 29.90625 L 28.5 29.6875 C 28.25 29.75 28.160156 29.866211 28.125 30.03125 C 24.408531 30.966639 21.956856 32.330342 19.9375 33.4375 C 18.0965 34.4485 16.64175 35.24525 14.84375 35.40625 C 16.97775 34.12525 18.5665 32.3315 19.9375 30.8125 C 21.063543 29.564356 22.066641 28.484125 23.09375 27.90625 C 23.559833 28.765721 23.659499 29.159901 24.09375 28.8125 C 24.23325 28.2545 24.297051 27.770515 24.34375 27.34375 C 25.177997 27.007337 25.998277 26.66003 26.78125 26.25 C 27.294767 27.172521 27.467617 27.542422 28 27.1875 C 28.155966 26.563637 28.246911 25.930794 28.28125 25.375 C 29.250263 24.784329 30.151016 24.155827 31 23.46875 C 31.429297 24.34375 31.56875 24.6625 32.09375 24.3125 C 32.243647 23.563016 32.305917 22.876288 32.34375 22.28125 C 33.080395 21.584747 33.748895 20.88045 34.34375 20.125 C 35.504048 21.219965 35.834598 21.762812 36.3125 21.09375 C 36.23684 19.656203 35.921681 18.590142 35.75 18.03125 C 36.03774 17.523697 36.316023 17.019116 36.53125 16.5 C 36.681679 16.143242 36.902316 15.805487 37.15625 15.5 C 38.093032 16.558509 38.342453 17.064057 38.8125 16.5 C 38.891412 15.562428 38.785087 14.749704 38.6875 14.125 C 38.89263 13.966643 39.094623 13.788715 39.3125 13.625 C 39.656879 13.366461 40.016112 13.098796 40.375 12.8125 C 41.119523 13.669009 41.367667 14.038583 41.8125 13.59375 C 41.891811 12.808496 41.821511 12.127588 41.75 11.5625 C 42.276247 11.032355 42.776431 10.421825 43.21875 9.71875 C 43.555463 10.170106 43.764696 10.329054 44.09375 10 C 44.147025 9.3074236 44.099189 8.687225 44.03125 8.1875 C 44.505441 7.0273181 44.823324 5.6379338 44.90625 3.9375 C 44.91425 3.7805 44.8775 3.644 44.8125 3.5 C 43.8645 1.386 41.27475 -0.1835 38.84375 -0.0625 z M 39.1875 3.28125 C 39.292842 3.2621094 39.387375 3.2875 39.5 3.3125 C 40.4 3.5125 41.09375 4.09375 41.09375 4.09375 C 41.09375 4.09375 40.3125 4.9125 39.3125 5.3125 C 38.2125 5.8125 37.40625 5.2 37.90625 4.5 C 37.90625 4.5 38.450107 3.4152344 39.1875 3.28125 z M 9.96875 18.59375 C 11.229688 18.495313 12.125 18.95625 12.5 19.40625 C 12.7 19.70625 12.2125 20.9125 11.8125 21.8125 C 10.5125 20.5125 8.8125 19.90625 8.8125 19.90625 C 8.8125 19.90625 10.30625 23.30625 9.90625 23.40625 C 8.90625 23.60625 7.9 23.2875 7.5 22.6875 C 6.9 21.9875 7.19375 19.40625 8.59375 18.90625 C 9.09375 18.73125 9.5484375 18.626562 9.96875 18.59375 z"></path></svg>