<svg xmlns="http://www.w3.org/2000/svg" viewBox="0 0 26 26" enable-background="new 0 0 26 26">    <path d="M 5.8125 0 A 1.0001 1.0001 0 0 0 5.09375 1.4375 L 5.75 2.75 C 2.253668 5.2144622 0 9.5718637 0 14 C 0 19.308163 3.2409682 23.947022 7.8125 25.90625 A 1.0001 1.0001 0 0 0 8.1875 26 L 17.8125 26 A 1.0001 1.0001 0 0 0 18.1875 25.90625 C 22.759032 23.947022 26 19.308163 26 14 C 26 9.4814416 23.744902 5.1661413 20.25 2.71875 L 20.90625 1.4375 A 1.0001 1.0001 0 0 0 20 0 L 6 0 A 1.0001 1.0001 0 0 0 5.90625 0 A 1.0001 1.0001 0 0 0 5.8125 0 z M 7.625 2 L 18.375 2 L 18.09375 2.5625 A 1.0001 1.0001 0 0 0 18.5 3.875 C 19.64269 4.5415691 20.626325 5.5060784 21.46875 6.625 C 20.817187 6.146875 19.28125 5.1875 17.40625 5.1875 C 14.90625 5.1875 12.79375 6.40625 10.09375 6.40625 C 7.8825912 6.4753487 6.3672934 5.7797787 5.625 5.34375 C 6.2028257 4.7721665 6.8269552 4.2676094 7.5 3.875 A 1.0001 1.0001 0 0 0 7.90625 2.5625 L 7.625 2 z M 5.4375 5.53125 C 5.9997234 6.3438253 7.3561317 7.8125 10.09375 7.8125 C 14.29375 7.8125 14.50625 6.59375 17.40625 6.59375 C 20.001485 6.59375 21.592956 6.8847405 21.71875 6.90625 C 23.13343 8.9160516 24 11.448186 24 14 C 24 18.426478 21.304422 22.317297 17.5625 24 L 8.4375 24 C 4.695578 22.317297 2 18.426478 2 14 C 2 10.896351 3.3488115 7.7024074 5.4375 5.53125 z M 16.40625 9.09375 C 15.633051 9.09375 15 9.7268014 15 10.5 C 15 11.273199 15.633051 11.90625 16.40625 11.90625 C 17.179448 11.90625 17.8125 11.273199 17.8125 10.5 C 17.8125 9.7268014 17.179448 9.09375 16.40625 9.09375 z M 20.5 13.09375 C 19.726801 13.09375 19.09375 13.726801 19.09375 14.5 C 19.09375 15.273199 19.726801 15.90625 20.5 15.90625 C 21.273199 15.90625 21.90625 15.273199 21.90625 14.5 C 21.90625 13.726801 21.273199 13.09375 20.5 13.09375 z M 5 14.09375 C 5 14.09375 6 15.7 6 17 C 6 18.3 5 19.90625 5 19.90625 C 7 19.90625 8.09375 17.8125 8.09375 17.8125 C 9.39375 18.6125 11.2 19.90625 13 19.90625 C 16 19.90625 18 17 18 17 C 18 17 16 14.09375 13 14.09375 C 11.2 14.09375 9.39375 15.3875 8.09375 16.1875 C 8.09375 16.1875 7 14.09375 5 14.09375 z M 14.5 15.6875 C 14.9 15.6875 15.3125 16.1 15.3125 16.5 C 15.3125 16.9 14.9 17.3125 14.5 17.3125 C 14.1 17.3125 13.6875 17 13.6875 16.5 C 13.6875 16.1 14.1 15.6875 14.5 15.6875 z"></path></svg>