<svg xmlns="http://www.w3.org/2000/svg" width="24" height="24" viewBox="0 0 24 24">    <path d="M 13.6875 3 C 11.1875 3 11 4.09375 12 6.59375 C 11.4 7.19375 10.59375 10.1 10.59375 12 C 10.59375 14 11.3 16.29375 12 17.59375 C 12 19.79375 12.5 20 13.5 20 C 16.3 20 16.4875 18.39375 17.6875 17.59375 C 17.679808 17.581442 17.664412 17.574805 17.65625 17.5625 C 17.705472 17.546299 17.90625 17.5 17.90625 17.5 C 17.30625 17 16 14.7 16 12 C 16 9.4 18 6.8125 18 6.8125 C 17.4 4.3125 15.3875 3 13.6875 3 z M 6.5 6 C 5.3 6 5 6.7875 5 7.6875 C 5 8.2875 5.3125 8.9125 5.8125 9.3125 C 6.0037 9.5037 6.2006032 9.4823306 6.4375 9.40625 C 6.2900263 9.5009921 6.1578986 9.5972722 6 9.6875 C 6 9.7875 5.5125 10 5.3125 10 C 5.3125 10 4.90625 10.7 4.90625 12 C 4.90625 13.3 5.3125 14 5.3125 14 C 5.6125 14 5.9 14.2125 6 14.3125 C 6.325 14.4875 6.6359375 14.68125 6.9375 14.90625 C 6.4202194 14.720442 5.9193966 14.59375 5.5 14.59375 C 5.4 14.79375 5 15.7125 5 16.3125 C 5 17.4125 5.5125 18 6.8125 18 C 8.4125 18 9.30625 17.39375 10.40625 17.09375 C 10.40625 17.09375 9 15 9 12 C 9 9 10.3125 7.09375 10.3125 7.09375 C 9.9125 6.99375 7.8 6 6.5 6 z M 19 7.1875 C 18.1 8.5875 17.5 10.2 17.5 12 C 17.5 13.9 18.0875 15.6 19.1875 17 C 22.1875 15.8 24 13.8 24 12 C 24 10.3 21.5 8.3875 19 7.1875 z M 1.8125 9 C 0.4125 9 0 10.3 0 12 C 0 13.7 0.4125 15 1.8125 15 C 2.7125 15 3.4 14.4 4 14 C 4 14 3.59375 13.4 3.59375 12 C 3.59375 10.6 4.09375 10 4.09375 10 C 3.39375 9.7 2.4125 9 1.8125 9 z M 21 11 C 21.6 11 22 11.4 22 12 C 22 12.6 21.6 13 21 13 C 20.4 13 20 12.6 20 12 C 20 11.4 20.4 11 21 11 z"></path></svg>