<svg xmlns="http://www.w3.org/2000/svg" width="26" height="26" viewBox="0 0 26 26">    <path d="M 24.96875 -0.03125 A 1.0001 1.0001 0 0 0 24.78125 0 A 1.0001 1.0001 0 0 0 24.03125 0.8125 C 23.658563 2.81569 22.859681 4.6024118 21.21875 6.03125 C 20.886876 6.3202285 20.505878 6.5841705 20.09375 6.84375 C 20.572162 5.6023456 21 3.9778325 21 2 A 1.0001 1.0001 0 0 0 19.78125 1 A 1.0001 1.0001 0 0 0 19 2 C 19 5.8491546 17.377577 7.923946 17.1875 8.15625 C 16.008725 8.524695 14.632746 8.8219067 13 9 C 11.352814 8.8182315 9.9711463 8.5046093 8.78125 8.125 C 8.5299586 7.8109536 7 5.7593546 7 2 A 1.0001 1.0001 0 0 0 5.78125 1 A 1.0001 1.0001 0 0 0 5 2 C 5 3.9778325 5.4278378 5.6023456 5.90625 6.84375 C 5.5015138 6.588181 5.1411427 6.3154815 4.8125 6.03125 C 3.156885 4.5993668 2.3400661 2.8083238 1.96875 0.8125 A 1.0001 1.0001 0 0 0 0.8125 0 A 1.0001 1.0001 0 0 0 0.03125 1.1875 C 0.45993394 3.4916762 1.455615 5.7631332 3.5 7.53125 C 4.9020123 8.7438012 6.787536 9.6776266 9.21875 10.3125 C 8.911839 10.603269 8.6722052 10.954691 8.4375 11.3125 C 5.9868143 10.024871 3.3958968 9.4770326 2 10.59375 C 1.6 10.99375 4.1 14 5.5 14 C 6.1516292 14 6.8020418 13.849629 7.3125 13.6875 C 7.0125 14.5875 6.9875 15.50625 7.1875 16.40625 C 7.7875 18.10625 9.69375 21 10.59375 25 C 10.59375 25 11 26.09375 13 26.09375 C 15 26.09375 15.40625 25 15.40625 25 C 16.30625 21 18.2125 18.20625 18.8125 16.40625 C 19.107974 15.421336 19.100851 14.509653 18.71875 13.71875 C 19.225575 13.900769 19.85846 14.09375 20.5 14.09375 C 21.9 14.09375 24.4 11.0875 24 10.6875 C 22.604103 9.4777228 20.013186 10.025319 17.5625 11.3125 C 17.331414 10.960208 17.08217 10.6312 16.78125 10.34375 C 19.243477 9.7097 21.129343 8.7519581 22.53125 7.53125 C 24.565319 5.7600882 25.541437 3.48431 25.96875 1.1875 A 1.0001 1.0001 0 0 0 24.96875 -0.03125 z M 9.40625 14.375 C 9.66875 14.4125 9.9375 14.5625 10.1875 14.8125 C 10.6875 15.3125 10.7125 16.00625 10.3125 16.40625 C 9.9125 16.80625 9.3125 16.6875 8.8125 16.1875 C 8.3125 15.6875 8.2875 14.99375 8.6875 14.59375 C 8.8875 14.39375 9.14375 14.3375 9.40625 14.375 z M 16.6875 14.375 C 16.95 14.3375 17.20625 14.39375 17.40625 14.59375 C 17.70625 14.99375 17.5875 15.69375 17.1875 16.09375 C 16.6875 16.59375 16.0875 16.7125 15.6875 16.3125 C 15.2875 15.9125 15.40625 15.3125 15.90625 14.8125 C 16.15625 14.5625 16.425 14.4125 16.6875 14.375 z M 12 22 L 14 22 C 14.5 22 14.79375 22.50625 14.59375 22.90625 L 14.1875 23.6875 C 14.0875 23.8875 13.8875 24 13.6875 24 L 12.5 24 C 12.3 24 12.1 23.8875 12 23.6875 L 11.59375 22.90625 C 11.19375 22.50625 11.5 22 12 22 z"></path></svg>