<svg xmlns="http://www.w3.org/2000/svg" width="50" height="50" viewBox="0 0 50 50">    <path d="M 24.4375 -0.03125 C 23.201891 0.085234375 22.35 0.59125 21.78125 1.125 C 22.11725 1.265 22.4295 1.47575 22.6875 1.71875 C 22.9005 1.87875 23.55225 2.39875 24.28125 3.21875 C 24.66425 3.64875 24.6185 4.3045 24.1875 4.6875 C 23.7575 5.0685 23.10075 5.02375 22.71875 4.59375 C 22.01575 3.80375 21.41025 3.34675 21.40625 3.34375 C 21.35925 3.31075 21.29 3.291 21.25 3.25 C 20.899 2.899 20.15775 2.84 19.46875 3.125 C 19.09775 3.278 18.25825 3.71 18.03125 4.75 C 17.99625 4.957 17.96875 5.18825 17.96875 5.40625 C 17.96875 7.18625 19.2755 8.6965 21.0625 9.0625 C 21.9415 10.2935 23.413 11.03125 25 11.03125 C 26.6 11.03125 28.0615 10.27925 28.9375 9.03125 C 30.7365 8.57525 32.03125 7.0625 32.03125 5.3125 C 32.03125 5.1415 32.024 4.9775 32 4.8125 C 31.785 3.7455 30.90625 3.28 30.53125 3.125 C 29.84325 2.839 29.101 2.899 28.75 3.25 C 28.71 3.291 28.64075 3.31075 28.59375 3.34375 C 28.58975 3.34675 27.98425 3.80375 27.28125 4.59375 C 26.89925 5.02375 26.2425 5.0685 25.8125 4.6875 C 25.3825 4.3055 25.33675 3.64875 25.71875 3.21875 C 26.44775 2.39775 27.0995 1.87875 27.3125 1.71875 C 27.5715 1.47575 27.88275 1.265 28.21875 1.125 C 27.56975 0.515 26.531 -0.03125 25 -0.03125 C 24.8085 -0.03125 24.614016 -0.047890625 24.4375 -0.03125 z M 1.5625 3.71875 C 0.0295 3.71875 0 4.868 0 5 C 0 7.53 2.887 10.599 4.875 11.75 C 5.403 12.067 5.9825 12.353 6.5625 12.625 C 7.0745 12.558 7.59625 12.5035 8.15625 12.4375 C 11.03825 12.0955 14.34075 11.8205 17.09375 11.6875 C 17.18575 10.9735 17.33475 10.29025 17.59375 9.65625 C 12.08975 6.93925 4.0465 3.71875 1.5625 3.71875 z M 48.4375 3.71875 C 45.9415 3.71875 37.8175 6.9625 32.3125 9.6875 C 32.5415 10.3255 32.68725 10.98075 32.78125 11.59375 C 35.54025 11.72575 38.86 12.00175 41.75 12.34375 C 42.402 12.42075 43.00575 12.4845 43.59375 12.5625 C 44.11675 12.3115 44.61575 12.037 45.09375 11.75 C 47.09575 10.592 50 7.53 50 5 C 50 4.868 49.9695 3.71875 48.4375 3.71875 z M 19.375 10.59375 C 19.126 11.26575 19 12.0115 19 12.8125 C 19 14.4665 19.642 15.61575 20.25 16.46875 C 20.4 17.53075 20.82775 18.66275 21.46875 19.59375 L 21.09375 25 C 21.09375 25.487 21.2595 25.9465 21.5625 26.3125 L 21.3125 30.3125 C 21.3125 30.8675 21.518 31.366 21.875 31.75 L 21.59375 35.1875 C 21.59375 35.6195 21.7655 36.05525 22.0625 36.40625 L 21.8125 39.8125 C 21.8125 40.2415 21.957 40.651 22.25 41 L 22 43.6875 C 22 44.0075 22.081 44.3105 22.25 44.5625 L 22.09375 46.40625 C 22.09375 46.80225 22.246 47.17375 22.5 47.46875 L 22.5 49 C 22.5 49.427 22.7835 49.7995 23.1875 49.9375 C 23.2945 49.9745 23.392 50 23.5 50 C 23.802 50 24.08825 49.873 24.28125 49.625 L 24.90625 48.84375 L 25.5 49.625 C 25.761 49.961 26.221 50.0785 26.625 49.9375 C 27.029 49.7995 27.3125 49.427 27.3125 49 L 27.3125 47.46875 C 27.5665 47.16475 27.6895 46.7665 27.6875 46.3125 L 27.53125 44.5625 C 27.69925 44.2995 27.78425 43.96575 27.78125 43.59375 L 27.53125 41.03125 C 27.76725 40.75825 28.001 40.32875 28 39.71875 L 27.75 36.5 C 28.12 36.122 28.2855 35.5945 28.1875 35.0625 L 27.9375 31.78125 C 28.3795 31.34225 28.602 30.73225 28.5 30.15625 L 28.21875 26.28125 C 28.51175 25.90525 28.6895 25.4365 28.6875 24.9375 L 28.375 20.40625 C 27.43 20.80125 26.38875 20.995 25.21875 21 L 25.1875 21 C 24.6375 21 24.1895 20.551 24.1875 20 C 24.1855 19.448 24.6355 19.003 25.1875 19 C 26.5325 18.995 29.51075 18.28325 29.59375 17.03125 C 29.62175 16.85425 29.63425 16.676 29.65625 16.5 C 30.26225 15.712 30.90625 14.5005 30.90625 12.8125 C 30.90625 12.1565 30.757 11.37675 30.5 10.59375 C 30.373 10.65175 30.258 10.7 30.125 10.75 C 28.853 12.193 26.989 13.03125 25 13.03125 C 23.044 13.03125 21.2095 12.2155 19.9375 10.8125 C 19.7475 10.7475 19.555 10.67675 19.375 10.59375 z M 32.875 13.59375 C 32.727 15.17075 32.1345 16.41725 31.5625 17.28125 C 31.4765 18.11225 31.05075 18.77025 30.46875 19.28125 C 30.79875 19.44225 31.16325 19.597 31.53125 19.75 C 31.55925 19.761 31.597 19.76925 31.625 19.78125 C 31.957 19.91625 32.30025 20.03425 32.65625 20.15625 C 32.72825 20.18025 32.802 20.226 32.875 20.25 C 33.205 20.358 33.528 20.43925 33.875 20.53125 C 33.977 20.55825 34.0845 20.601 34.1875 20.625 C 34.6335 20.734 35.0965 20.803 35.5625 20.875 C 35.9865 20.936 36.53675 20.96875 37.21875 20.96875 C 39.41075 20.96875 42.42175 20.6545 44.71875 20.1875 C 48.29275 19.4605 49.90625 18.51175 49.90625 17.09375 C 49.90625 17.02975 49.91325 16.96925 49.90625 16.90625 C 49.90625 16.89625 49.877 16.885 49.875 16.875 C 49.869 16.822 49.887 16.76975 49.875 16.71875 C 49.872 16.70675 49.84775 16.6995 49.84375 16.6875 C 49.82975 16.6385 49.8355 16.57925 49.8125 16.53125 C 49.8055 16.51625 49.78825 16.514 49.78125 16.5 C 49.75825 16.456 49.7185 16.419 49.6875 16.375 C 49.6745 16.357 49.67125 16.3305 49.65625 16.3125 C 49.62425 16.2735 49.57225 16.2255 49.53125 16.1875 C 49.50825 16.1655 49.49475 16.147 49.46875 16.125 C 49.42975 16.092 49.39075 16.06425 49.34375 16.03125 C 49.30475 16.00425 49.26375 15.9655 49.21875 15.9375 C 49.17575 15.9115 49.1115 15.902 49.0625 15.875 C 49.0005 15.842 48.946 15.81425 48.875 15.78125 C 48.834 15.76225 48.794 15.73675 48.75 15.71875 C 48.657 15.67875 48.5465 15.63375 48.4375 15.59375 C 48.4075 15.58275 48.37475 15.5735 48.34375 15.5625 C 48.21075 15.5165 48.0945 15.4845 47.9375 15.4375 C 47.9265 15.4345 47.886 15.40925 47.875 15.40625 C 46.807 15.09325 45.20075 14.79475 42.71875 14.46875 C 42.63675 14.45875 42.5225 14.4485 42.4375 14.4375 C 42.0695 14.3905 41.6995 14.3585 41.3125 14.3125 C 41.0635 14.2835 40.8175 14.24575 40.5625 14.21875 C 40.2845 14.18775 40.00275 14.154 39.71875 14.125 C 37.40575 13.887 34.994 13.69875 32.875 13.59375 z M 17.0625 13.6875 C 15.0245 13.7875 12.70575 13.9625 10.46875 14.1875 C 9.76575 14.2585 9.07625 14.32725 8.40625 14.40625 C 0.61325 15.33025 -1.1842379e-15 16.1425 0 17.1875 C 0 18.5695 1.61575 19.51275 5.21875 20.21875 C 7.54475 20.67475 10.559 20.96875 12.75 20.96875 C 13.44 20.96875 14.03075 20.937 14.46875 20.875 C 14.90275 20.807 15.30075 20.725 15.71875 20.625 C 15.97275 20.564 16.22175 20.5075 16.46875 20.4375 C 16.62275 20.3935 16.7875 20.3595 16.9375 20.3125 C 17.2885 20.2025 17.63975 20.0625 17.96875 19.9375 C 18.00375 19.9245 18.0285 19.91925 18.0625 19.90625 C 18.4235 19.76625 18.76475 19.61875 19.09375 19.46875 C 18.74575 18.75075 18.49575 18.005 18.34375 17.25 C 17.61475 16.119 17.1995 14.9305 17.0625 13.6875 z"></path></svg>