<svg xmlns="http://www.w3.org/2000/svg" viewBox="0 0 26 26" enable-background="new 0 0 26 26">    <path d="M 9 0 C 9 1.3033333 9.08703 3.1105419 9.5625 4.71875 C 9.7532824 5.3640435 10.029575 5.958806 10.40625 6.5 C 9.7627968 6.7551693 9.1477373 7.0877155 8.625 7.5 C 8.3097517 7.0614635 7.9923146 6.5463606 7.6875 5.90625 C 6.3875 3.30625 1 4.00625 1 4.40625 C 1 7.1404264 3.2049333 8.8865409 7.21875 8.96875 C 6.4301963 10.082111 6 11.394159 6 12.6875 C 6 14.3875 7.10625 15.1875 8.40625 16.6875 C 11.00625 19.7875 9 20.6 9 22 C 9 22.4 9 23.6 11 24.5 C 11.4 25.6 12.3 25.90625 13 25.90625 C 13.7 25.90625 14.6 25.6 15 24.5 C 17 23.6 17 22.3 17 22 C 17 20.5 14.99375 19.79375 17.59375 16.59375 C 18.89375 15.19375 20 14.3875 20 12.6875 C 20 11.394159 19.569804 10.082111 18.78125 8.96875 C 22.795067 8.8865409 25 7.1404264 25 4.40625 C 25 4.00625 19.6125 3.30625 18.3125 5.90625 C 18.007685 6.5463606 17.690248 7.0614635 17.375 7.5 C 16.852263 7.0877155 16.237203 6.7551693 15.59375 6.5 C 15.970425 5.958806 16.246718 5.3640435 16.4375 4.71875 C 16.91297 3.1105419 17 1.3033333 17 0 L 15 0 C 15 1.1966667 14.90578 2.8894581 14.53125 4.15625 C 14.343985 4.7896459 14.071835 5.2972236 13.8125 5.59375 C 13.553165 5.8902764 13.361538 6 13 6 C 12.638462 6 12.446835 5.8902764 12.1875 5.59375 C 11.928165 5.2972236 11.656015 4.7896459 11.46875 4.15625 C 11.09422 2.8894581 11 1.1966667 11 0 L 9 0 z M 8 12 C 8.6 12 9 12.4 9 13 C 9 13.6 8.6 14 8 14 C 7.4 14 7 13.6 7 13 C 7 12.4 7.4 12 8 12 z M 18 12 C 18.6 12 19 12.4 19 13 C 19 13.6 18.6 14 18 14 C 17.4 14 17 13.6 17 13 C 17 12.4 17.4 12 18 12 z M 10.40625 22 L 11.5 22 C 11.8 22 12 22.2 12 22.5 L 12 23.59375 L 10.40625 22 z M 14.5 22 L 15.59375 22 L 14 23.59375 L 14 22.5 C 14 22.2 14.2 22 14.5 22 z"></path></svg>