<svg xmlns="http://www.w3.org/2000/svg" version="1" viewBox="0 0 26 26" enable-background="new 0 0 26 26">    <path d="M 20.1875 2 C 15.578784 2.1072754 14.59375 8.09375 14.59375 8.09375 C 14.59375 8.09375 13.69375 8.5 12.09375 8.5 C 10.49375 8.5 9.6 8 7.5 8 C 5.1 8 4 9.3 4 11.5 C 4 12.5 5.1875 15.5 5.1875 15.5 L 5 18 L 6.40625 23.40625 C 6.40625 23.80625 6.69375 24 7.09375 24 L 8.40625 24 L 7.09375 18.40625 C 7.09375 18.40625 8.3875 17.09375 9.1875 15.09375 C 9.1875 15.09375 11.4875 16.79375 16.6875 15.59375 L 17.90625 23.3125 C 17.90625 23.7125 18.1875 24.09375 18.6875 24.09375 L 19.59375 24.09375 C 19.59375 24.09375 19.29375 15.6875 19.09375 14.6875 C 20.99375 12.3875 19.7125 8.3 20.8125 7.5 C 21.1125 8.6 22.2875 9.0125 23.1875 8.8125 C 24.0875 8.6125 25.09375 9.1875 25.09375 9.1875 L 25.6875 8.59375 C 25.9875 8.29375 25.9875 7.89375 25.6875 7.59375 L 22.8125 4.40625 L 24 3 C 22.51875 2.25 21.25105 1.9752441 20.1875 2 z M 3.5 9 C 3.5 9 0 10.2 0 16 L 2.90625 17 C 2.90625 17 2.19375 12.30625 3.09375 11.40625 C 2.89375 9.90625 3.5 9 3.5 9 z M 20.8125 13.40625 C 20.6125 13.90625 20.4 14.4125 20 14.8125 C 20 14.9125 19.99375 15.10625 20.09375 15.40625 L 22.40625 16.1875 L 21.90625 19.3125 C 21.80625 19.8125 22.1 20.3 22.5 20.5 L 23.09375 20.6875 L 24.1875 16.3125 C 24.3875 15.6125 24.1 14.9875 23.5 14.6875 L 20.8125 13.40625 z M 9.59375 16.3125 C 9.09375 17.3125 8.40625 18.3125 8.40625 18.3125 L 9.6875 22.09375 C 9.8875 22.69375 10.40625 23 10.90625 23 L 11.8125 23.09375 L 10.09375 18.59375 L 11.3125 17 C 10.5125 16.8 9.59375 16.3125 9.59375 16.3125 z"></path></svg>