<svg xmlns="http://www.w3.org/2000/svg" viewBox="0 0 26 26" enable-background="new 0 0 26 26">    <path d="M25.641,21.047c-0.308,0-0.545,2.085-2.963,2.085c-0.761,0-2.155-0.658-3.243-1.917 C25.081,20.613,26,17.357,26,15c0-1.111-0.443-2.341-1.618-2.802c-0.758-0.298-1.698-0.025-2.134,0.662 c-0.078,0.124-0.193,0.356-0.171,0.5c0.022,0.145,0.156,0.279,0.3,0.257c0.1-0.015,0.175-0.094,0.253-0.157 c0.43-0.351,1.111-0.278,1.53,0.086c0.419,0.364,0.368,0.93,0.331,1.484c-0.09,1.378-1.33,2.401-2.759,2.649 c-1.874,0.325-3.516-0.82-3.065-3.245C19.115,12.032,21,10.291,21,7.133C21,2.06,17.418,0,13,0S5,2.042,5,6.825 c0,3.279,2.059,5.37,2.47,7.796c0.47,2.776-2.102,3.168-3.203,3.058c-1.444-0.144-2.669-1.27-2.759-2.649 c-0.037-0.554-0.088-1.121,0.331-1.484c0.419-0.363,1.1-0.436,1.53-0.086c0.078,0.064,0.154,0.142,0.253,0.157 c0.145,0.022,0.278-0.113,0.3-0.257c0.022-0.145-0.093-0.377-0.171-0.5c-0.436-0.688-1.376-0.96-2.134-0.662 C0.443,12.659,0,13.889,0,15c0,2.357,0.919,5.613,6.565,6.214c-1.088,1.26-2.482,1.917-3.243,1.917 c-2.417,0-2.655-2.085-2.963-2.085s-0.328,0.359-0.328,0.594c0,1.875,0.89,3.192,3.588,3.359c3.155,0.195,5.979-1.749,7.295-3.518 c0.63-0.846,1.178-1.499,2.085-1.56c0.908,0.061,1.458,0.679,2.088,1.525c1.316,1.769,4.138,3.748,7.292,3.552 c2.698-0.167,3.588-1.484,3.588-3.359C25.969,21.406,25.949,21.047,25.641,21.047z M11,10c-0.552,0-1-0.672-1-1.5S10.448,7,11,7 s1,0.672,1,1.5S11.552,10,11,10z M15,10c-0.552,0-1-0.672-1-1.5S14.448,7,15,7s1,0.672,1,1.5S15.552,10,15,10z"></path></svg>