<svg xmlns="http://www.w3.org/2000/svg" width="26" height="26" viewBox="0 0 26 26">    <path d="M13.963,9.264c0,0,1.038-0.119,1.343,0.385c0.365,0.6-0.513,1.389-0.513,1.389L13.963,9.264z M24.83,11.863 c-0.724,0.199-1.061,0.717-1.211,2.253c-0.145,1.534,2.164,4.177,2.164,5.885c0.002,2.3-0.81,3.475-1.933,4.457 c-1.129,0.988-1.619,1.24-3.105,1.412c-5.295,0.617-7.069-5.949-7.069-5.949S7.992,4.779,7.49,3.642 c-0.495-1.138-0.807,0.21-0.807,0.21s-0.371,1.609-1.06,2.299C5.061,6.715,4.741,6.907,4.741,6.907L4.045,5.07 c1.813-1.39,0.57-3.055,2.241-4.515c1.406-1.23,3.413-0.168,4.231,1.432c0.717,1.392,1.591,3.327,1.808,3.809 c-0.252,0.032-0.503,0.1-0.725,0.206c-0.719,0.345-0.786,0.928-0.521,1.481c0.264,0.553,0.757,0.867,1.479,0.521 c0.209-0.1,0.419-0.251,0.601-0.423l0.788,1.673c-0.249,0.032-0.5,0.1-0.722,0.205c-0.718,0.344-0.784,0.928-0.519,1.48 c0.265,0.553,0.758,0.868,1.479,0.521c0.21-0.1,0.416-0.25,0.602-0.421l0.883,1.88c-0.253,0.031-0.505,0.098-0.729,0.206 c-0.718,0.344-0.784,0.927-0.519,1.48c0.263,0.554,0.757,0.868,1.477,0.522c0.212-0.102,0.421-0.255,0.605-0.428l-0.828-1.771 c0,0,1.039-0.119,1.346,0.386c0.364,0.598-0.509,1.384-0.513,1.388l2.485,5.289c0.031,0.887,0.772,1.396,1.231,1.338 c1.017-0.128,1.221-1.225,0.46-2.406c-1.443-2.24-1.941-3.706-2.225-4.729c-0.5-1.829,0.306-3.413-1.038-4.673 c-1.269-1.187-0.456-1.472,0.365-1.199c0.821,0.278,6.141,1.93,7.26,2.221C26.126,10.825,26.208,11.487,24.83,11.863z M21.814,15.315c0.407-0.354,0.447-0.976,0.093-1.382c-0.358-0.407-0.977-0.447-1.383-0.093c-0.407,0.356-0.449,0.976-0.095,1.382 C20.786,15.631,21.408,15.672,21.814,15.315z M23.274,17.087c-0.358-0.406-0.98-0.448-1.384-0.092 c-0.409,0.356-0.448,0.977-0.094,1.384c0.354,0.403,0.974,0.447,1.383,0.09C23.585,18.115,23.63,17.494,23.274,17.087z M0.792,5.549 c-0.403,0.522-0.59,0.674-0.753,0.939c0,0,1.069,1.667,3.363,0.992c-0.03-0.173-0.562-1.784-0.562-1.784S1.871,6.007,0.792,5.549z M13.68,6.191c-0.305-0.504-1.344-0.385-1.344-0.385l0.829,1.774C13.165,7.58,14.044,6.792,13.68,6.191z"></path></svg>