<svg xmlns="http://www.w3.org/2000/svg" version="1" viewBox="0 0 24 24" enable-background="new 0 0 24 24">    <path style="text-indent:0;text-align:start;line-height:normal;text-transform:none;block-progression:tb;-inkscape-font-specification:Bitstream Vera Sans" d="M 16.21875 2 C 16.14375 2.0375 16.09375 2.1625 16.09375 2.3125 C 16.29375 3.6125 16.5125 6.3 15.3125 7.5 L 12.25 10.5625 L 11.65625 9.9375 L 10.9375 10.65625 L 11.5625 11.25 L 10.25 12.5625 L 9.65625 11.9375 L 8.9375 12.65625 L 9.5625 13.25 L 8.25 14.5625 L 7.65625 13.9375 L 6.9375 14.65625 L 7.5625 15.25 L 5.90625 16.90625 L 7.1875 18.1875 L 8.0625 17.3125 C 8.1589649 17.990251 8.4600503 18.630419 9 19.125 C 10.284604 20.388875 12.37279 20.41565 13.5625 19.09375 A 0.750075 0.750075 0 0 0 13.59375 19.0625 C 13.86424 18.724387 15.657176 16.909921 16.28125 16.375 A 0.750075 0.750075 0 0 0 16.34375 16.34375 C 17.626593 15.060907 17.641028 12.945675 16.3125 11.75 C 15.802759 11.291233 15.160943 11.012699 14.5 10.90625 L 16.59375 8.8125 C 17.79375 7.6125 20.6125 7.8 21.8125 8 C 22.0125 8 22.1 7.69375 22 7.59375 L 16.5 2.09375 C 16.4 1.99375 16.29375 1.9625 16.21875 2 z M 10.84375 8.4375 L 9.4375 9.84375 L 10.15625 10.5625 L 11.5625 9.15625 L 10.84375 8.4375 z M 8.84375 10.4375 L 7.4375 11.84375 L 8.15625 12.5625 L 9.5625 11.15625 L 8.84375 10.4375 z M 14.03125 12.34375 C 14.477383 12.35776 14.950071 12.517564 15.3125 12.84375 C 15.966732 13.432559 15.974561 14.501868 15.3125 15.21875 C 15.29505 15.23764 15.29966 15.26284 15.28125 15.28125 C 14.501037 15.95652 12.974802 17.430773 12.4375 18.09375 C 12.4316 18.10105 12.41194 18.11788 12.40625 18.125 C 11.7964 18.764506 10.736712 18.767962 10.03125 18.0625 A 0.750075 0.750075 0 0 0 10 18.03125 C 9.3285278 17.426925 9.3140927 16.342157 10.03125 15.625 L 12.84375 12.84375 A 0.750075 0.750075 0 0 0 12.84375 12.8125 C 13.137597 12.486004 13.585117 12.329736 14.03125 12.34375 z M 6.84375 12.4375 L 5.4375 13.84375 L 6.15625 14.5625 L 7.5625 13.15625 L 6.84375 12.4375 z M 4.9375 17.84375 L 3.375 19.375 L 2.75 18.75 L 2.03125 19.46875 L 4.53125 21.96875 L 5.25 21.25 L 4.65625 20.65625 L 6.1875 19.09375 L 4.9375 17.84375 z"></path></svg>