<svg xmlns="http://www.w3.org/2000/svg" width="50" height="50" viewBox="0 0 50 50">    <path d="M 44.46875 0.09375 C 43.96875 0.09375 43.5245 0.25575 43.1875 0.59375 L 12.59375 31.21875 L 18.78125 37.40625 L 25 31.21875 C 23.917 30.53375 22.9025 29.7785 22.5625 29.4375 C 21.7765 28.6515 21.7765 27.3485 22.5625 26.5625 C 23.3485 25.7765 24.6525 25.7765 25.4375 26.5625 C 25.7785 26.9035 26.5035 27.918 27.1875 29 L 31 25.21875 C 29.918 24.53475 28.9035 23.7785 28.5625 23.4375 C 27.7765 22.6515 27.7765 21.3485 28.5625 20.5625 C 29.3485 19.7765 30.6525 19.7765 31.4375 20.5625 C 31.7785 20.9035 32.5035 21.917 33.1875 23 L 37 19.21875 C 35.918 18.53475 34.9035 17.7785 34.5625 17.4375 C 33.7765 16.6515 33.7765 15.3485 34.5625 14.5625 C 35.3485 13.7765 36.6525 13.7765 37.4375 14.5625 C 37.7785 14.9035 38.5045 15.917 39.1875 17 L 43 13.21875 C 41.918 12.53475 40.9035 11.7785 40.5625 11.4375 C 39.7765 10.6515 39.7765 9.3485 40.5625 8.5625 C 41.3485 7.7765 42.6525 7.7765 43.4375 8.5625 C 43.7785 8.9035 44.5045 9.917 45.1875 11 L 45.34375 10.84375 L 47.375 8.8125 L 47.5 8.6875 L 49.40625 6.8125 C 49.77925 6.4395 50.28875 5.59075 49.59375 4.21875 C 49.27275 3.58475 48.71525 2.90175 47.90625 2.09375 C 46.58225 0.76875 45.42775 0.09375 44.46875 0.09375 z M 45.1875 11 L 43 13.21875 C 43.510735 13.541206 44.010043 13.823503 44.5 14.0625 L 40.0625 18.5 C 39.823355 18.010043 39.510316 17.510735 39.1875 17 L 37 19.21875 C 37.510735 19.541206 38.010043 19.823503 38.5 20.0625 L 34.0625 24.5 C 33.823503 24.010043 33.509956 23.510735 33.1875 23 L 31 25.21875 C 31.510735 25.541206 32.010043 25.823503 32.5 26.0625 L 28.0625 30.5 C 27.823503 30.010043 27.509956 29.510735 27.1875 29 L 25 31.21875 C 25.510735 31.541206 26.010043 31.823503 26.5 32.0625 L 25.28125 33.28125 C 24.89025 33.67225 24.89025 34.32775 25.28125 34.71875 C 25.47625 34.91375 25.744 35 26 35 C 26.256 35 26.52375 34.91375 26.71875 34.71875 L 48.71875 12.71875 C 49.10975 12.32775 49.10975 11.67225 48.71875 11.28125 C 48.32775 10.89025 47.67225 10.89025 47.28125 11.28125 L 46.0625 12.5 C 45.823355 12.010043 45.510316 11.510735 45.1875 11 z M 11.15625 32.625 L 0.96875 42.84375 C -1.18625 44.99875 0.89925 47.08675 1.90625 48.09375 C 2.96825 49.15675 3.734 49.70625 4.5 49.90625 C 4.717 49.96425 4.94425 50 5.15625 50 C 5.86125 50 6.53025 49.6895 7.15625 49.0625 L 17.375 38.84375 L 11.15625 32.625 z"></path></svg>