<svg xmlns="http://www.w3.org/2000/svg" width="50" height="50" viewBox="0 0 50 50">    <path d="M 7.25 0.03125 C 5.209 0.03125 3.0625 1.1455 3.0625 3.1875 C 3.0625 5.2285 5.032 6.3125 7.25 6.3125 C 9.468 6.3125 11.40625 5.03225 11.40625 8.40625 C 11.40625 12.91325 5.15625 19.559 5.15625 28.25 C 5.15625 39.741 12.342 44.96875 25 44.96875 C 37.658 44.96875 44.84375 39.741 44.84375 28.25 C 44.84375 19.559 38.59375 12.91225 38.59375 8.40625 C 38.59375 5.03325 40.532 6.3125 42.75 6.3125 C 44.968 6.3125 46.9375 5.2285 46.9375 3.1875 C 46.9375 1.1465 44.79 0.03125 42.75 0.03125 C 40.516 0.03125 34.40625 1.09225 34.40625 8.40625 C 34.40625 12.87925 38.53125 16.765 38.53125 27.25 C 38.53125 29.065802 38.220853 33.243912 33.9375 35.71875 C 33.5575 35.93875 33.1325 36.1235 32.6875 36.3125 C 31.851466 36.669997 30.904335 36.963901 29.8125 37.1875 C 29.920236 37.02792 30 36.863625 30 36.65625 L 30 11 L 28 11 L 28 36.65625 C 28 36.98561 28.161169 37.255385 28.40625 37.4375 C 27.598985 37.54339 26.722053 37.600184 25.78125 37.625 C 25.918611 37.453823 26 37.236874 26 37 L 26 11 L 24 11 L 24 37 C 24 37.236874 24.081389 37.453823 24.21875 37.625 C 23.277947 37.600184 22.401015 37.54339 21.59375 37.4375 C 21.838907 37.255385 22 36.98561 22 36.65625 L 22 11 L 20 11 L 20 36.65625 C 20 36.863625 20.079641 37.02792 20.1875 37.1875 C 19.095665 36.963901 18.148534 36.669997 17.3125 36.3125 C 16.902435 36.138728 16.511163 35.980655 16.15625 35.78125 C 11.77579 33.31428 11.46875 29.080125 11.46875 27.25 C 11.46875 16.765 15.59375 12.87925 15.59375 8.40625 C 15.59375 1.09225 9.484 0.03125 7.25 0.03125 z M 17.125 5 C 17.409 6 17.59375 7.12725 17.59375 8.40625 C 17.59375 8.61025 17.5755 8.8 17.5625 9 L 32.4375 9 C 32.4255 8.801 32.40625 8.61025 32.40625 8.40625 C 32.40625 7.12625 32.592 6 32.875 5 L 17.125 5 z M 17.25 11 C 16.96 12.168 16.51725 13.33475 16.03125 14.59375 C 16.01925 14.62375 16.012 14.6565 16 14.6875 L 16 33.25 C 16.573 33.727 17.233 34.13375 18 34.46875 L 18 11 L 17.5625 11 L 17.25 11 z M 32 11 L 32 34.46875 C 32.767 34.13375 33.427 33.726 34 33.25 L 34 14.6875 C 33.988 14.6565 33.98075 14.62475 33.96875 14.59375 C 33.48275 13.33575 33.041 12.169 32.75 11 L 32.4375 11 L 32 11 z M 12.1875 44.40625 C 10.9565 44.66725 10 45.741 10 47 L 10 50 L 40 50 L 40 47 C 40 45.718 39.0585 44.66025 37.8125 44.40625 C 34.4165 46.11525 30.134 47 25 47 C 19.867 47 15.5835 46.11425 12.1875 44.40625 z"></path></svg>