<svg xmlns="http://www.w3.org/2000/svg" width="50" height="50" viewBox="0 0 50 50">    <path d="M 16.03125 0 C 14.734801 -0.031335937 13.49575 0.55025 12.5 1.65625 C 11.367 2.91525 10.56525 4.6335 9.78125 6.3125 C 8.90925 8.1785 8.079 9.95025 7 10.65625 L 7 15.9375 C 11.279 15.4255 13.17175 11.67875 14.21875 9.59375 C 14.26575 9.49975 14.29475 9.38025 14.34375 9.28125 C 15.90175 13.38025 25.27725 38.03325 25.28125 38.03125 C 25.31925 38.17025 28.60425 49.84375 38.03125 49.84375 C 38.48225 49.84375 38.92725 49.807 39.40625 49.75 C 42.43425 49.401 43.5255 48.80125 45.6875 46.90625 C 47.9925 44.89225 49.004 43.534 49 39 C 49 37.275 48.14275 35.05875 47.21875 32.71875 C 46.37375 30.57875 45.47975 28.36825 45.59375 27.15625 C 45.88375 24.19725 46.52575 24.031 47.09375 23.875 C 49.28275 23.278 49.754 22.2795 49.75 21.5625 C 49.747 21.1145 49.522 20.026 47.5 19.5 C 45.494 18.979 35.77925 15.95625 34.15625 15.40625 C 32.79425 14.95225 31.63925 15.185 31.15625 16 C 30.36525 17.329 31.94675 18.8235 32.46875 19.3125 C 33.69775 20.4655 33.71075 21.77975 33.71875 23.59375 C 33.72275 24.75675 33.741 26.06075 34.125 27.46875 C 34.678 29.46175 35.64675 32.28575 38.34375 36.46875 C 38.90675 37.34575 39.16525 38.1545 39.03125 38.6875 C 38.98925 38.8575 38.886 39.12775 38.5 39.34375 C 38.334 39.43575 38.19325 39.45425 38.03125 39.40625 C 37.55825 39.26925 36.966 38.601 36.5 37.75 C 36.443 37.626 34.089 32.4495 31.25 26.1875 C 30.924 26.7305 30.47075 27.15325 30.46875 27.15625 C 30.12775 27.47425 29.73375 27.7505 29.34375 27.9375 C 28.01375 28.5765 27.11 27.99075 26.625 26.96875 C 26.134 25.94875 26.26875 24.85375 27.59375 24.21875 C 28.00875 24.01975 28.4695 23.90075 28.9375 23.84375 C 28.9375 23.84375 29.56875 23.78525 30.21875 23.90625 C 29.65575 22.66325 29.07 21.41725 28.5 20.15625 C 28.182033 20.703698 27.747013 21.099414 27.71875 21.125 C 27.37775 21.444 26.98375 21.7505 26.59375 21.9375 C 25.26475 22.5765 24.36 21.98975 23.875 20.96875 C 23.384 19.94875 23.4875 18.85375 24.8125 18.21875 C 25.2275 18.01975 25.68925 17.90075 26.15625 17.84375 C 26.15625 17.84375 26.834 17.77425 27.5 17.90625 C 26.913 16.61025 26.33225 15.343 25.78125 14.125 C 25.45325 14.696 25.004 15.15325 25 15.15625 L 24.96875 15.15625 C 24.62775 15.47525 24.266 15.7505 23.875 15.9375 C 22.546 16.5765 21.61 15.98975 21.125 14.96875 C 20.634 13.94875 20.76875 12.85375 22.09375 12.21875 C 22.50875 12.01975 22.9705 11.90075 23.4375 11.84375 C 23.4375 11.84375 24.10925 11.8005 24.78125 11.9375 C 23.06825 8.1515 21.75775 5.177 21.34375 4.25 C 20.30275 1.921 18.51775 0.3655 16.59375 0.0625 C 16.4065 0.03325 16.216457 0.0044765625 16.03125 0 z M 2.34375 10.25 C 2.092125 10.27975 1.8585 10.412 1.6875 10.625 L 0.28125 12.34375 C 0.05825 12.62175 -0.004 13.01175 0.125 13.34375 C 0.223 13.59675 1.167 15.65575 5 15.96875 L 5 11 C 4.35 10.958 3.5395 10.83875 3.0625 10.46875 C 2.847 10.30175 2.595375 10.22025 2.34375 10.25 z M 39.84375 26.125 C 40.419521 26.053105 41.024375 26.24875 41.4375 26.71875 C 42.0935 27.46875 42.03325 28.62625 41.28125 29.28125 C 40.53025 29.93725 39.37675 29.84475 38.71875 29.09375 C 38.06575 28.34375 38.15425 27.2215 38.90625 26.5625 C 39.1875 26.31725 39.498287 26.168137 39.84375 26.125 z M 42.375 31.9375 C 42.951602 31.865332 43.555625 32.0625 43.96875 32.53125 C 44.62475 33.28325 44.53025 34.43875 43.78125 35.09375 C 43.02525 35.75175 41.905 35.6825 41.25 34.9375 C 40.596 34.1875 40.65125 33.033 41.40625 32.375 C 41.685625 32.12825 42.029039 31.980801 42.375 31.9375 z"></path></svg>