<svg xmlns="http://www.w3.org/2000/svg" width="26" height="26" viewBox="0 0 26 26">    <path d="M 2.1875 2 C 0.9875 2 0 2.49375 0 4.09375 C 0 13.79375 1.0875 15.5 8.1875 15.5 C 3.0875 15.5 2.3125 19.1125 2.8125 20.3125 C 3.8125 22.8125 5.9875 25 7.6875 25 C 8.3326461 25 11.716994 23.097745 13 18.90625 C 14.283006 23.097745 17.667354 25 18.3125 25 C 20.0125 25 22.1875 22.8125 23.1875 20.3125 C 23.6875 19.1125 22.9125 15.5 17.8125 15.5 C 24.9125 15.5 26 13.79375 26 4.09375 C 26 2.49375 25.0125 2 23.8125 2 C 21.243457 2 14.801739 7.49566 13 12.84375 C 11.198261 7.49566 4.7565426 2 2.1875 2 z"></path></svg>