<svg xmlns="http://www.w3.org/2000/svg" width="50" height="50" viewBox="0 0 50 50">    <path d="M49.902,19.477c-0.326-1.179-1.375-1.972-2.609-1.972c-0.071,0-0.143,0.002-0.127,0.005c0,0-3.257-0.058-6.863-0.058 c-2.495,0-4.543,0.027-6.089,0.082c-0.241,0.009-0.479,0.015-0.713,0.015c-1.618,0-2.149-0.333-2.366-1.483 c-1.462-7.766-4.225-11.838-4.68-12.468c-0.563-1.09-1.577-1.763-2.667-1.763c-1.204,0-2.185,0.801-2.499,2.042 c-0.014,0.056-0.023,0.112-0.028,0.169c-0.006,0.08-0.632,8.052-2.429,11.971c-0.489,1.067-1.146,1.445-2.509,1.445 c-0.145,0-0.292-0.004-0.439-0.011c-2.307-0.11-4.539-0.166-6.634-0.166c-3.807,0-5.979,0.182-6.42,0.223 c-1.29-0.064-2.396,0.751-2.733,1.97c-0.323,1.167,0.151,2.331,1.142,2.92c0.15,0.107,3.763,2.661,11.246,6.735 c1.351,0.736,1.834,2.178,1.204,3.589c-2.303,5.146-4.948,11.7-4.968,11.75c-0.35,0.827-0.272,1.721,0.213,2.453 c0.84,1.268,2.742,1.614,3.977,0.661c0.674-0.4,6.111-3.681,10.722-8.032c0.657-0.621,1.218-0.936,1.668-0.936 c0.363,0,0.744,0.209,1.234,0.678c4.715,4.507,9.951,7.902,10.538,8.278c0.493,0.386,1.073,0.59,1.683,0.59h0.001 c0.918,0,1.803-0.476,2.31-1.24c0.484-0.731,0.563-1.626,0.244-2.364c-0.025-0.081-2.575-8.137-4.122-12.157 c-0.687-1.781-0.534-2.118,0.416-2.782c3.696-2.584,11.031-7.141,11.092-7.179C49.752,21.808,50.226,20.645,49.902,19.477z M17.626,26.215c-0.666,0-1.205-0.539-1.205-1.205c0-0.665,0.54-1.205,1.205-1.205s1.205,0.54,1.205,1.205 C18.831,25.676,18.292,26.215,17.626,26.215z M25,28.702c-1.02,0-1.846-0.827-1.846-1.847S23.98,25.01,25,25.01 s1.846,0.826,1.846,1.846S26.02,28.702,25,28.702z M34.221,40.984c-0.666,0-1.205-0.54-1.205-1.205c0-0.666,0.539-1.205,1.205-1.205 c0.665,0,1.204,0.539,1.204,1.205C35.425,40.444,34.886,40.984,34.221,40.984z M36.077,24.369c-0.665,0-1.205-0.54-1.205-1.205 s0.54-1.205,1.205-1.205s1.205,0.54,1.205,1.205S36.742,24.369,36.077,24.369z"></path></svg>