<svg xmlns="http://www.w3.org/2000/svg" version="1" width="24" height="24" viewBox="0 0 24 24">    <path d="M 20.0625 4.03125 C 19.850586 4.0611328 19.6625 4.1 19.5 4.1875 C 17.4 5.3875 17.8 7.6875 16.5 9.1875 C 13.7 12.6875 8.4 14.5 3 15 C 1.9 15.1 0.5 15.9 0 17 C 1 16.7 2.60625 16.90625 3.40625 17.40625 C 3.40625 18.00625 1.4125 18.5875 2.3125 19.6875 C 3.0125 20.0875 4 20.1125 5 19.8125 C 5.9 19.2125 6.00625 18.8 6.40625 18 C 10.70625 18.9 13.6875 17.90625 13.6875 17.90625 C 13.6875 17.90625 14.00625 19.0875 14.90625 19.6875 C 15.90625 20.1875 17.19375 20.0875 18.09375 19.6875 C 18.99375 18.7875 17 18.3 17 16.5 C 17 13.8 17.8 11.90625 20 9.90625 C 20.7 11.10625 22.7 10.9125 23.5 9.8125 C 23.8 9.3125 24 8.7875 24 8.1875 C 24 5.0375 21.545898 3.8220703 20.0625 4.03125 z M 8.375 5 C 7.6622803 5.0367676 6.88125 5.1625 6 5.40625 C 0.8 7.00625 0.8875 11.1875 1.6875 12.1875 C 1.6875 12.1875 0.4875 12.6875 1.1875 13.6875 C 1.7875 14.3875 5.0125 13.9 7.8125 13 C 10.6125 12.2 13.0125 10.90625 14.3125 9.90625 C 15.5125 9.00625 14.9875 7.39375 13.6875 7.59375 C 13.0375 6.375 11.463452 4.8406738 8.375 5 z M 22 6.3125 C 22.4 6.3125 22.6875 6.6 22.6875 7 C 22.6875 7.4 22.4 7.6875 22 7.6875 C 21.6 7.6875 21.3125 7.4 21.3125 7 C 21.3125 6.6 21.6 6.3125 22 6.3125 z"></path></svg>