<svg xmlns="http://www.w3.org/2000/svg" width="26" height="26" viewBox="0 0 26 26">    <path d="M 23.5 0.1875 C 22.222 0.1875 21.1875 1.222 21.1875 2.5 C 21.1875 2.5424115 21.185251 2.5831527 21.1875 2.625 C 18.651385 1.4649155 14.237196 1.9511411 10.125 6.0625 C 8.166 8.0245 3.92775 7.57325 2.71875 8.78125 C 1.51075 9.98825 1.72675 13.97775 6.84375 19.09375 C 11.96075 24.20975 15.913 24.4005 17.125 23.1875 C 18.338 21.9735 17.98175 18.0495 20.09375 15.9375 C 24.116131 11.91595 24.479116 7.4110898 23.3125 4.8125 C 23.374811 4.8175316 23.436383 4.8125 23.5 4.8125 C 24.778 4.8125 25.8125 3.777 25.8125 2.5 C 25.8135 1.222 24.776 0.1875 23.5 0.1875 z M 23.5 1.34375 C 24.137 1.34375 24.65625 1.863 24.65625 2.5 C 24.65625 3.137 24.137 3.65625 23.5 3.65625 C 22.863 3.65625 22.34375 3.138 22.34375 2.5 C 22.34375 2.191 22.4695 1.9045 22.6875 1.6875 C 22.9055 1.4685 23.19 1.34375 23.5 1.34375 z M 18.78125 4.15625 C 19.250939 4.1758301 19.76225 4.281 20.3125 4.4375 C 17.1995 4.2855 13.229 9.2505 11.75 11.0625 C 10.697 12.3505 8.92875 13.7625 6.71875 13.9375 C 4.90575 12.8875 5.03125 11.46875 5.03125 11.46875 C 5.03125 11.46875 7.51575 11.8305 10.84375 9.3125 C 13.933375 6.973625 15.493424 4.0191895 18.78125 4.15625 z M 8.15625 21.625 C 7.57325 22.045 7.1865 22.727 7.1875 23.5 C 7.1875 24.778 8.222 25.8125 9.5 25.8125 C 10.627 25.8125 11.57525 25.0035 11.78125 23.9375 C 10.73325 23.4605 9.51025 22.725 8.15625 21.625 z"></path></svg>