<svg xmlns="http://www.w3.org/2000/svg" width="50" height="50" viewBox="0 0 50 50">    <path d="M 17 0 C 12.038 0 8 4.038 8 9 C 8 9.088 7.999 9.163 8 9.25 C 3.945 10.123 1 13.729 1 18 C 1 22.962 5.038 27 10 27 C 10.299 27 10.592 26.9685 10.875 26.9375 C 10.881 26.9365 10.90125 26.9385 10.90625 26.9375 C 12.77125 29.4915 15.748 31 19 31 C 21.854 31 24.56125 29.806 26.40625 27.75 C 27.77025 28.567 29.362 29 31 29 C 33.258 29 35.46825 28.1235 37.15625 26.5625 C 38.08125 26.8615 39.017 27 40 27 C 44.963 27 49 22.962 49 18 C 49 13.519 45.69475 9.7085 41.34375 9.0625 C 39.69375 4.8655 35.522 2 31 2 C 28.677 2 26.3825 2.7345 24.5625 4.0625 C 22.8895 1.5545 20.049 0 17 0 z M 23 11 L 25 11 C 25 15.962 20.962 20 16 20 L 16 18 C 19.86 18 23 14.86 23 11 z M 37 13 L 37 15 C 35.346 15 34 16.346 34 18 L 32 18 C 32 15.243 34.243 13 37 13 z M 37.65625 28.75 C 36.01825 29.987 34.0725 30.7375 32.0625 30.9375 C 31.4625 32.3385 30.6505 34.5075 29.5625 37.8125 L 28.21875 41.84375 L 26.53125 30.34375 C 25.58325 31.10975 24.54225 31.71525 23.40625 32.15625 C 23.26725 34.47025 23.09375 37.4685 23.09375 38.8125 L 23.09375 43.3125 L 21.1875 39.21875 C 19.9375 36.52775 18.892 34.4005 18.125 32.9375 C 14.992 32.7075 12.056 31.305 10 29 C 9.684 29 9.3715 28.9645 9.0625 28.9375 C 12.4655 32.7725 18.09375 40.431 18.09375 49 L 18.09375 50 L 31.4375 50 L 31.59375 49.15625 C 33.22875 39.08525 37.737 32.30775 40.5 28.96875 C 40.331 28.97675 40.171 29 40 29 C 39.189 29 38.42425 28.915 37.65625 28.75 z"></path></svg>