<svg xmlns="http://www.w3.org/2000/svg" width="50" height="50" viewBox="0 0 50 50">    <path d="M 29.0625 1.34375 C 28.85225 1.35275 28.63925 1.423 28.46875 1.5625 C 28.12475 1.8415 27.98625 2.341 28.15625 2.75 C 29.02825 4.847 28.42475 6.46875 27.71875 8.34375 C 27.36675 9.27775 26.9945 10.22625 26.8125 11.28125 C 28.8855 12.84325 30.9195 14.7925 32.9375 16.8125 C 35.0585 18.9325 37.73 21.58925 39.625 24.65625 C 39.772 24.66325 39.9165 24.6875 40.0625 24.6875 C 43.4085 24.6875 46.49 22.87875 48.75 19.59375 C 48.985 19.24975 48.989 18.81075 48.75 18.46875 C 48.51 18.12675 48.0895 17.9565 47.6875 18.0625 C 46.1835 18.4515 44.22925 18.90625 42.53125 18.90625 C 41.14725 18.90625 40.1495 18.63125 39.4375 18.03125 C 41.2205 16.18225 42.261 13.6865 42.375 10.9375 C 42.496 8.0005 41.502 5.0655 39.875 3.4375 C 39.59 3.1525 39.1845 3.06675 38.8125 3.21875 C 38.4395 3.37075 38.1915 3.722 38.1875 4.125 C 38.1575 7.18 36.4715 11.6775 34.3125 12.6875 C 34.6545 8.9045 34.77425 5.02625 29.65625 1.53125 C 29.47375 1.40575 29.27275 1.33475 29.0625 1.34375 z M 17.75 9.6875 C 15.055 9.6875 12.49375 10.9115 9.96875 13.4375 C 2.74975 20.6565 -1.9915 40.3825 3.6875 46.0625 C 6.0185 48.3935 10.03 48.875 13 48.875 C 19.897 48.875 30.1495 46.023 36.3125 39.75 C 44.6115 31.301 37.05225 23.73875 31.53125 18.21875 C 27.03625 13.72175 22.597 9.6875 17.75 9.6875 z M 19.9375 13.78125 C 20.386375 13.78125 20.74925 13.93275 20.90625 14.21875 C 21.21925 14.79375 20.6235 15.70625 19.5625 16.28125 C 18.5055 16.85825 17.3765 16.85425 17.0625 16.28125 C 16.7515 15.70625 17.34725 14.79675 18.40625 14.21875 C 18.93475 13.93275 19.488625 13.78125 19.9375 13.78125 z M 26.9375 17.78125 C 27.238285 17.764246 27.491625 17.817 27.65625 18 C 28.09725 18.48 27.7035 19.54275 26.8125 20.34375 C 25.9155 21.15575 24.84225 21.4225 24.40625 20.9375 C 23.96525 20.4535 24.351 19.40175 25.25 18.59375 C 25.806875 18.08875 26.436191 17.80959 26.9375 17.78125 z M 12.8125 20.4375 C 12.992172 20.439266 13.1525 20.49175 13.28125 20.59375 C 13.79425 20.99675 13.621 22.08625 12.875 23.03125 C 12.129 23.97825 11.10775 24.406 10.59375 24 C 10.08075 23.594 10.254 22.5095 11 21.5625 C 11.5625 20.85525 12.273484 20.432203 12.8125 20.4375 z M 19.78125 21.96875 C 20.08074 21.936693 20.358375 21.982625 20.53125 22.15625 C 20.99225 22.61725 20.6625 23.68025 19.8125 24.53125 C 18.9595 25.38225 17.9005 25.716 17.4375 25.25 C 16.9745 24.791 17.30325 23.728 18.15625 22.875 C 18.68875 22.34125 19.2821 22.022178 19.78125 21.96875 z M 26.84375 26.1875 C 27.143686 26.154793 27.38925 26.201375 27.5625 26.375 C 28.0245 26.837 27.727 27.92925 26.875 28.78125 C 26.024 29.63525 24.962 29.93075 24.5 29.46875 C 24.037 29.00575 24.3365 27.94675 25.1875 27.09375 C 25.719375 26.560625 26.343857 26.242012 26.84375 26.1875 z M 11.34375 27.59375 C 11.643416 27.561324 11.889625 27.638875 12.0625 27.8125 C 12.5245 28.2735 12.227 29.3355 11.375 30.1875 C 10.523 31.0395 9.42975 31.336 8.96875 30.875 C 8.50675 30.412 8.8355 29.352 9.6875 28.5 C 10.22 27.968125 10.844307 27.647793 11.34375 27.59375 z M 33.65625 30.1875 C 33.834703 30.160328 33.9805 30.1695 34.125 30.25 C 34.695 30.56 34.67575 31.67075 34.09375 32.71875 C 33.50975 33.77275 32.60225 34.3785 32.03125 34.0625 C 31.45725 33.7485 31.44625 32.64675 32.03125 31.59375 C 32.4655 30.807 33.120891 30.269016 33.65625 30.1875 z M 18.375 31.8125 C 18.674783 31.779617 18.951375 31.857625 19.125 32.03125 C 19.585 32.49625 19.25825 33.55525 18.40625 34.40625 C 17.55325 35.26025 16.49225 35.55475 16.03125 35.09375 C 15.56625 34.63075 15.899 33.56675 16.75 32.71875 C 17.2825 32.185625 17.875361 31.867305 18.375 31.8125 z M 8.28125 35.8125 C 8.4585625 35.784906 8.63775 35.795 8.78125 35.875 C 9.35125 36.191 9.331 37.318 8.75 38.375 C 8.162 39.429 7.22625 40.03275 6.65625 39.71875 C 6.08225 39.40075 6.0995 38.26575 6.6875 37.21875 C 7.1255 36.42525 7.7493125 35.895281 8.28125 35.8125 z M 25.5 36.28125 C 25.94875 36.26 26.3305 36.37725 26.5 36.65625 C 26.839 37.21825 26.25275 38.1895 25.21875 38.8125 C 24.18875 39.4395 23.088 39.4945 22.75 38.9375 C 22.411 38.3775 22.971 37.40625 24 36.78125 C 24.5165 36.46825 25.05125 36.3025 25.5 36.28125 z M 15.625 40.5 C 16.073375 40.47725 16.4555 40.5965 16.625 40.875 C 16.967 41.439 16.405 42.40225 15.375 43.03125 C 14.345 43.65525 13.24625 43.71825 12.90625 43.15625 C 12.56725 42.59625 13.099 41.625 14.125 41 C 14.64 40.6875 15.176625 40.52275 15.625 40.5 z"></path></svg>