<svg xmlns="http://www.w3.org/2000/svg" width="50" height="50" viewBox="0 0 50 50">    <path d="M 48.625 1.375 C 48.625 1.375 44.372 1.39125 42.125 3.15625 C 42.357 3.74025 42.53675 4.35925 42.59375 5.03125 C 42.65275 5.40725 42.7205 6.275 42.5625 7.5 C 42.9505 7.458 43.346 7.4375 43.75 7.4375 C 44.302 7.4375 44.72425 7.478 44.90625 7.5 C 45.57625 7.549 46.2265 7.74075 46.8125 7.96875 C 48.6355 5.74375 48.625 1.375 48.625 1.375 z M 39.09375 1.90625 C 37.56675 2.17725 35.44525 4.058 34.65625 6.25 C 35.54025 7.155 36.482 8.43275 37 10.09375 C 37.124 10.48975 37.198 10.8965 37.25 11.3125 L 40.4375 8.125 C 40.4485 8.067 40.45775 8.02675 40.46875 7.96875 C 40.81175 6.27275 40.59375 5.28125 40.59375 5.28125 C 40.49275 3.58125 39.09375 1.90625 39.09375 1.90625 z M 31.71875 6.40625 C 30.64675 6.97925 29.473 8.665 29 10.5 C 30.021 11.38 31.42775 12.90025 32.09375 15.03125 C 32.21675 15.42725 32.29175 15.834 32.34375 16.25 L 35.21875 13.375 C 35.39275 12.52 35.37375 11.5785 35.09375 10.6875 C 34.23575 7.9405 31.71875 6.40625 31.71875 6.40625 z M 43.8125 9.4375 C 43.2635 9.434875 42.524 9.493 41.75 9.6875 L 38.78125 12.65625 C 38.96725 12.68925 39.1335 12.7 39.3125 12.75 C 41.0275 13.179 42.693 14.26425 43.875 15.40625 C 46.02 14.58625 47.83075 12.502 48.09375 11 C 48.09375 11 46.41875 9.6 44.71875 9.5 C 44.71875 9.5 44.3615 9.440125 43.8125 9.4375 z M 26.78125 11.3125 C 25.77525 11.8495 24.67625 13.39175 24.15625 15.09375 C 25.18525 15.95475 26.681 17.49875 27.375 19.71875 C 27.499 20.11475 27.573 20.55275 27.625 20.96875 L 30.28125 18.3125 C 30.45425 17.4575 30.4655 16.517 30.1875 15.625 C 29.3295 12.878 26.78125 11.3125 26.78125 11.3125 z M 37.8125 14.53125 C 37.473625 14.52175 37.12025 14.565 36.78125 14.625 L 33.875 17.5625 C 34.307 17.6265 34.70275 17.721 35.09375 17.875 C 36.55575 18.449 38.27725 19.7555 39.40625 20.9375 C 41.27925 20.4825 43.01075 19.2795 43.59375 18.1875 C 43.59375 18.1865 41.7625 15.4095 38.8125 14.6875 C 38.491 14.5955 38.151375 14.54075 37.8125 14.53125 z M 22.0625 16.03125 C 21.0315 16.58125 19.9425 18.1855 19.4375 19.9375 C 20.4645 20.8055 21.90975 22.34625 22.59375 24.53125 C 22.71875 24.92725 22.79075 25.333 22.84375 25.75 L 25.59375 23 C 25.76775 22.146 25.74675 21.23575 25.46875 20.34375 C 24.61075 17.59675 22.0625 16.03125 22.0625 16.03125 z M 33.125 19.46875 C 32.693 19.45075 32.247 19.50075 31.8125 19.59375 L 29.15625 22.25 C 29.58825 22.314 30.01525 22.4085 30.40625 22.5625 C 31.92425 23.1585 33.6875 24.535 34.8125 25.75 C 36.5455 25.239 38.11125 24.146 38.65625 23.125 C 38.65725 23.124 36.737 20.64675 34.375 19.71875 C 33.9835 19.56475 33.557 19.48675 33.125 19.46875 z M 17.28125 20.8125 C 16.24125 21.3675 15.123 22.979 14.625 24.75 C 15.651 25.621 17.10025 27.16775 17.78125 29.34375 C 17.90525 29.73975 17.97925 30.1465 18.03125 30.5625 L 20.8125 27.78125 C 20.9875 26.92525 20.9675 26.018 20.6875 25.125 C 19.8285 22.377 17.28125 20.8125 17.28125 20.8125 z M 27.78125 24.1875 C 27.56225 24.207812 27.34225 24.266 27.125 24.3125 L 24.375 27.03125 C 24.808 27.09525 25.234 27.18975 25.625 27.34375 C 27.528 28.09075 29.106 29.551 30 30.5 C 31.786 30.007 33.41075 28.89175 33.96875 27.84375 C 33.97075 27.84375 32.01825 25.3655 29.65625 24.4375 C 29.069 24.2065 28.43825 24.126562 27.78125 24.1875 z M 12.46875 25.625 C 10.96875 26.425 9.2615 29.4375 9.5625 31.9375 C 9.9732217 34.488141 11.394634 35.750903 12.5 36.0625 L 2.3125 46.28125 C 1.9215 46.67325 1.9215 47.2955 2.3125 47.6875 C 2.5075 47.8815 2.77525 47.96875 3.03125 47.96875 C 3.28625 47.96875 3.52375 47.8825 3.71875 47.6875 L 13.96875 37.46875 C 14.312535 38.585827 15.563447 40.020331 18.0625 40.34375 C 20.5625 40.64275 23.575 38.9375 24.375 37.4375 C 24.375 37.4365 22.4245 34.95925 20.0625 34.03125 C 19.2795 33.72325 18.37 33.72225 17.5 33.90625 L 14 37.40625 L 14 36 L 12.59375 36 L 15.96875 32.59375 C 16.14275 31.73875 16.154 30.8305 15.875 29.9375 C 15.016 27.1905 12.46875 25.625 12.46875 25.625 z M 23 28.96875 C 22.781188 28.988953 22.561 29.04775 22.34375 29.09375 L 19.5625 31.875 C 19.9945 31.939 20.39025 32.0335 20.78125 32.1875 C 21.94825 32.6455 23.90225 33.9765 25.15625 35.3125 C 26.96525 34.8295 28.6225 33.685 29.1875 32.625 C 29.1875 32.625 27.237 30.14675 24.875 29.21875 C 24.28775 28.987 23.656437 28.908141 23 28.96875 z"></path></svg>