<svg xmlns="http://www.w3.org/2000/svg" viewBox="0 0 26 26" enable-background="new 0 0 26 26">    <path d="M 8 6 C 7.4 6 6.9125 6.29375 6.8125 6.59375 C 6.8125 6.59375 4.9875 9 4.1875 10 C 3.4875 11 3.49375 11 2.59375 11 L 1 11 C 0.4 11 0 11.4 0 12 L 0 17 C 0 17.6 0.4 18 1 18 L 3 18 C 3.2 16.3 4.7 14.90625 6.5 14.90625 C 8.3 14.90625 9.8 16.3 10 18 L 16 18 C 16.2 16.3 17.7 14.90625 19.5 14.90625 C 21.3 14.90625 22.8 16.2 23 18 L 25 18 C 25.6 18 26 17.6 26 17 L 26 15 C 26 14 25 11 21 11 C 20.1 11 20.0875 11.00625 19.1875 9.90625 C 18.3875 8.90625 16.5 6.59375 16.5 6.59375 C 16.2 6.29375 15.6 6 15 6 L 8 6 z M 8.3125 8 L 11 8 L 11 11 L 5.8125 11 L 7.90625 8.1875 C 7.90625 8.1875 8.2125 8 8.3125 8 z M 13 8 L 14.59375 8 C 14.89375 8 15.3125 8.2125 15.3125 8.3125 L 17.5 11 L 13 11 L 13 8 z M 6.5 16.1875 C 5.2297451 16.1875 4.1875 17.229745 4.1875 18.5 C 4.1875 19.770255 5.2297451 20.8125 6.5 20.8125 C 7.7702549 20.8125 8.8125 19.770255 8.8125 18.5 C 8.8125 17.229745 7.7702549 16.1875 6.5 16.1875 z M 19.5 16.1875 C 18.229745 16.1875 17.1875 17.229745 17.1875 18.5 C 17.1875 19.770255 18.229745 20.8125 19.5 20.8125 C 20.770255 20.8125 21.8125 19.770255 21.8125 18.5 C 21.8125 17.229745 20.770255 16.1875 19.5 16.1875 z"></path></svg>