<svg xmlns="http://www.w3.org/2000/svg" viewBox="0 0 26 26" enable-background="new 0 0 26 26">    <path d="M 19.71875 0 A 1.0001 1.0001 0 0 0 19.46875 0.09375 L 0.5625 8.90625 A 1.0001 1.0001 0 0 0 0 9.8125 L 0 13.8125 A 1.0001 1.0001 0 0 0 1.40625 14.71875 L 3 13.96875 L 3 16 L 0 16 L 0 22 L 3.09375 22 C 3.29375 20.3 4.8 19 6.5 19 C 8.2 19 9.70625 20.3 9.90625 22 L 13 22 L 17.09375 22 C 17.29375 20.3 18.8 19 20.5 19 C 22.3 19 23.70625 20.3 23.90625 22 L 25 22 C 25.5 22 26 21.6 26 21 L 26 16.3125 C 26 16.1125 26.00625 15.8875 25.90625 15.6875 L 24.5 11.40625 C 24.2 10.60625 23.49375 10 22.59375 10 L 13 10 C 12.5 10 12 10.5 12 11 L 12 16 L 7 16 L 7 12.125 L 23.40625 4.5 A 1.0001 1.0001 0 0 0 23.65625 2.84375 L 20.53125 0.21875 A 1.0001 1.0001 0 0 0 19.8125 0 A 1.0001 1.0001 0 0 0 19.71875 0 z M 19.71875 2.1875 L 21.125 3.375 L 2 12.25 L 2 10.46875 L 19.71875 2.1875 z M 14 12 L 18 12 L 18 16 L 14 16 L 14 12 z M 20 12 L 22.8125 12 C 23.1125 12 23.30625 12.20625 23.40625 12.40625 L 24.5 16 L 20 16 L 20 12 z M 6.5 20 C 5.1192881 20 4 21.119288 4 22.5 C 4 23.880712 5.1192881 25 6.5 25 C 7.8807119 25 9 23.880712 9 22.5 C 9 21.119288 7.8807119 20 6.5 20 z M 20.5 20 C 19.119288 20 18 21.119288 18 22.5 C 18 23.880712 19.119288 25 20.5 25 C 21.880712 25 23 23.880712 23 22.5 C 23 21.119288 21.880712 20 20.5 20 z"></path></svg>