<svg xmlns="http://www.w3.org/2000/svg" version="1" viewBox="0 0 24 24" enable-background="new 0 0 24 24">    <path d="M 3.6875 4 C 3.5875 4.025 3.50625 4.0875 3.40625 4.1875 L 2.90625 4.8125 C 2.80625 5.0125 2.8 5.20625 3 5.40625 L 4 6.5 L 4 10.59375 C 4 10.782639 3.948985 10.894765 3.875 10.96875 C 3.801015 11.04274 3.6888889 11.09375 3.5 11.09375 C 3.3111111 11.09375 3.1989847 11.04274 3.125 10.96875 C 3.0510153 10.894765 3 10.782639 3 10.59375 L 3 10 L 2 10 L 2 10.59375 C 2 11.004861 2.1302347 11.411485 2.40625 11.6875 C 2.6822653 11.963515 3.0888889 12.09375 3.5 12.09375 C 3.9111111 12.09375 4.3177347 11.963515 4.59375 11.6875 C 4.8697653 11.411485 5 11.004861 5 10.59375 L 5 7.59375 L 10.84375 14 L 3 14 C 2.4 14 2 14.4 2 15 L 2 17 C 2 18.1 2.9 19 4 19 L 4.0625 19 C 4.2921875 20.148438 5.275 21 6.5 21 C 7.725 21 8.7078125 20.148438 8.9375 19 L 13 19 L 14 19 L 15.0625 19 C 15.292188 20.148438 16.275 21 17.5 21 C 18.725 21 19.707812 20.148438 19.9375 19 L 20 19 C 20.1375 19 20.276367 18.995508 20.40625 18.96875 C 21.31543 18.781445 22 17.9625 22 17 L 22 13.3125 C 22 13.1125 21.9125 12.8875 21.8125 12.6875 L 18.3125 7.40625 C 18.1125 7.20625 17.8 7 17.5 7 L 14 7 C 13.4 7 13 7.4 13 8 L 13 10.34375 C 11.822927 9.5854306 4 4.09375 4 4.09375 C 3.9 3.99375 3.7875 3.975 3.6875 4 z M 15 9 L 17.53125 9 L 19.5 12 L 15 12 L 15 9 z M 6.5 17.5 C 7.1 17.5 7.5 17.9 7.5 18.5 C 7.5 19.1 7.1 19.5 6.5 19.5 C 5.9 19.5 5.5 19.1 5.5 18.5 C 5.5 17.9 5.9 17.5 6.5 17.5 z M 17.5 17.5 C 18.1 17.5 18.5 17.9 18.5 18.5 C 18.5 19.1 18.1 19.5 17.5 19.5 C 16.9 19.5 16.5 19.1 16.5 18.5 C 16.5 17.9 16.9 17.5 17.5 17.5 z"></path></svg>