<svg xmlns="http://www.w3.org/2000/svg" width="26" height="26" viewBox="0 0 26 26">    <path d="M 1.09375 3 C 0.49375 3 0 3.49375 0 4.09375 L 0 4.8125 A 1.0001 1.0001 0 0 0 0 5 L 0 6 L 0 15 A 1.0001 1.0001 0 0 0 0 15.09375 L 0 19.3125 C 0 20.2125 0.7875 21 1.6875 21 L 2.03125 21 C 2.2878564 23.774947 4.6667308 26 7.5 26 C 9.7 26 11.6 24.7125 12.5 22.8125 C 13.4 24.7125 15.3 26 17.5 26 C 20.333269 26 22.712144 23.774947 22.96875 21 L 25 21 C 26 21 26 20 26 20 L 24.4375 18.4375 C 24.796587 17.747596 25 16.95096 25 16.09375 L 25 16 C 25 13.2 22.8 11 20 11 L 20 9 L 16 9 L 16 11 L 11 11 L 11 5.90625 C 11.566121 5.6881564 12 5.1233333 12 4.5 C 12 3.7 11.3 3 10.5 3 L 1.09375 3 z M 16 5 L 15.59375 5.40625 C 15.29375 5.80625 15.20625 6.3125 15.40625 6.8125 L 16 8 L 20 8 L 20.59375 6.8125 C 20.79375 6.3125 20.80625 5.80625 20.40625 5.40625 L 20 5 L 16 5 z M 2 6 L 9 6 L 9 11 L 2 11 L 2 6 z M 7.5 17 C 8.9265464 17 10.099158 17.814952 10.625 19 L 8.8125 19 C 8.4604373 18.692047 8.0016379 18.5 7.5 18.5 C 6.4 18.5 5.5 19.4 5.5 20.5 C 5.5 21.6 6.4 22.5 7.5 22.5 C 8.428125 22.5 9.2146149 21.860971 9.4375 21 L 15.5625 21 C 15.785385 21.860971 16.571875 22.5 17.5 22.5 C 18.6 22.5 19.5 21.6 19.5 20.5 C 19.5 19.4 18.6 18.5 17.5 18.5 C 16.998362 18.5 16.539563 18.692047 16.1875 19 L 14.28125 19 C 14.829744 17.814952 16.058956 17 17.40625 17 C 19.30625 17 20.90625 18.6 20.90625 20.5 C 21.00625 22.4 19.4 24 17.5 24 C 16.1 24 14.90625 23.2 14.40625 22 L 10.6875 22 C 10.0875 23.2 8.89375 24 7.59375 24 C 5.59375 24 4 22.4 4 20.5 C 4 18.6 5.6 17 7.5 17 z"></path></svg>