<svg xmlns="http://www.w3.org/2000/svg" width="26" height="26" viewBox="0 0 26 26">    <path style="text-indent:0;text-align:start;line-height:normal;text-transform:none;block-progression:tb;-inkscape-font-specification:Bitstream Vera Sans" d="M 5.34375 0 A 0.50005 0.50005 0 0 0 5.09375 0.78125 L 7.09375 3.78125 A 0.50005 0.50005 0 0 0 7.5625 4 L 9.625 3.75 C 9.2356319 4.4476345 9 5.2208333 9 6 C 9 7.7875 10.186865 8.6453613 11.8125 8.90625 C 10.186865 9.194751 9 10.13125 9 12 C 9 13.929844 10.261267 15.58196 11.96875 16.0625 C 9.671875 16.329102 8 17.54375 8 19.90625 C 8 22.60625 10.2 26 13 26 C 15.8 26 18 22.50625 18 19.90625 C 18 17.63125 16.328125 16.346875 14.03125 16.0625 C 15.738733 15.58196 17 13.929844 17 12 C 17 10.13125 15.813135 9.194751 14.1875 8.90625 C 15.813135 8.6453613 17 7.7875 17 6 C 17 5.2208333 16.764368 4.4476345 16.375 3.75 L 18.4375 4 A 0.50005 0.50005 0 0 0 18.90625 3.78125 L 20.90625 0.78125 A 0.50005 0.50005 0 0 0 20.40625 0 A 0.50005 0.50005 0 0 0 20.09375 0.21875 L 18.25 2.96875 L 15.90625 2.6875 C 15.560194 1.0477169 14 -5.2759669e-16 14 0 L 14 1.6875 C 13.679415 1.5831811 13.345784 1.5 13 1.5 C 12.654216 1.5 12.320585 1.5831811 12 1.6875 L 12 0 C 12 -5.2759669e-16 10.439806 1.0477169 10.09375 2.6875 L 7.75 2.96875 L 5.90625 0.21875 A 0.50005 0.50005 0 0 0 5.40625 0 A 0.50005 0.50005 0 0 0 5.34375 0 z M 3 3.21875 C 2.903125 3.221875 2.7875 3.2625 2.6875 3.3125 C 2.2875 3.5125 2.1125 3.9125 2.3125 4.3125 L 4.3125 9.3125 C 4.4125 9.6125 4.7 9.8125 5 9.8125 L 8.3125 10.09375 L 8.5 10.09375 C 8.7 9.59375 9.0125 9.0875 9.3125 8.6875 L 9.1875 8.59375 L 8.5 8.59375 L 8.40625 8.59375 L 5.59375 8.3125 L 3.6875 3.6875 C 3.5375 3.3875 3.290625 3.209375 3 3.21875 z M 23.1875 3.3125 C 22.873438 3.303125 22.575 3.5125 22.5 3.8125 L 20.6875 8.3125 L 17.8125 8.59375 C 17.5125 8.49375 17.5 8.49375 17.5 8.59375 L 17 8.6875 L 16.90625 8.8125 C 17.20625 9.2125 17.4875 9.6875 17.6875 10.1875 L 17.90625 10.1875 L 21.1875 9.90625 C 21.4875 9.90625 21.80625 9.70625 21.90625 9.40625 L 23.90625 4.40625 C 24.10625 4.00625 23.9 3.50625 23.5 3.40625 C 23.4 3.35625 23.292188 3.315625 23.1875 3.3125 z M 2.8125 11.1875 C 2.5265625 11.220313 2.2625 11.3875 2.1875 11.6875 L 0.1875 14.6875 C -0.0125 15.0875 0.19375 15.5875 0.59375 15.6875 C 0.69375 15.6875 0.80625 15.8125 0.90625 15.8125 C 1.20625 15.8125 1.49375 15.6125 1.59375 15.3125 L 3.40625 12.90625 L 7.8125 13.8125 L 8.1875 13.8125 L 8.3125 13.8125 C 8.1125 13.3125 8 12.7875 8 12.1875 L 7.90625 12.1875 L 3.09375 11.1875 C 2.99375 11.1625 2.9078125 11.176562 2.8125 11.1875 z M 22.8125 11.1875 L 18 12.1875 L 17.90625 12.1875 C 17.90625 12.7875 17.79375 13.3125 17.59375 13.8125 L 17.6875 13.8125 C 17.7875 13.8125 17.99375 13.9125 18.09375 13.8125 L 22.40625 12.90625 L 24.1875 15.3125 C 24.2875 15.6125 24.60625 15.8125 24.90625 15.8125 C 25.00625 15.8125 25.0875 15.7875 25.1875 15.6875 C 25.6875 15.5875 25.8875 15.0875 25.6875 14.6875 L 23.6875 11.6875 C 23.5875 11.2875 23.2125 11.0875 22.8125 11.1875 z M 9 14.90625 L 7.8125 15.1875 C 7.7125 15.1875 7.59375 15.3125 7.59375 15.3125 L 4.59375 17.3125 C 4.39375 17.4125 4.3125 17.5875 4.3125 17.6875 L 2.3125 24.6875 C 2.2125 25.0875 2.4125 25.5875 2.8125 25.6875 L 3 25.6875 C 3.3 25.6875 3.7125 25.49375 3.8125 25.09375 L 5.6875 18.40625 L 7.6875 17.09375 C 8.0875 16.49375 8.7 15.9 9.5 15.5 C 9.3 15.3 9.2 15.10625 9 14.90625 z M 17 14.90625 C 16.9 15.10625 16.7 15.3 16.5 15.5 C 17.3 15.9 17.8125 16.4875 18.3125 17.1875 L 20.3125 18.5 L 22.1875 25.1875 C 22.2875 25.5875 22.6 25.8125 23 25.8125 L 23.1875 25.8125 C 23.5875 25.7125 23.8875 25.2125 23.6875 24.8125 L 21.8125 17.8125 C 21.7125 17.6125 21.6 17.50625 21.5 17.40625 L 18.5 15.40625 C 18.4 15.30625 18.3125 15.3125 18.3125 15.3125 L 17 14.90625 z" color="#000" overflow="visible" enable-background="accumulate" font-family="Bitstream Vera Sans"></path></svg>