<svg xmlns="http://www.w3.org/2000/svg" version="1" width="24" height="24" viewBox="0 0 24 24">    <path d="M 18.1875 0 C 17.580393 -1.251722e-16 17.080496 0.40613575 16.9375 0.96875 C 16.601311 0.86720219 16.219784 0.87439222 15.875 1.03125 C 15.121131 1.3742188 14.782031 2.2773813 15.125 3.03125 C 15.31565 3.4503123 15.682606 3.7285801 16.09375 3.84375 C 14.734326 6.2070312 14.33125 10 10 10 C 4.2 10 1.4 7.6875 1 6.6875 C 1 8.1875 1.9875 10.79375 3.1875 11.09375 C 2.4875 11.09375 1.90625 11.30625 1.40625 11.90625 C 2.10625 12.00625 2.50625 12.1875 2.90625 12.6875 C 2.10625 12.8875 1.70625 13.2875 1.40625 13.6875 C 3.80625 13.9875 3.5 19 9 19 C 14.5 19 15 14 15 14 C 15 14 16 21 8 21 C 8 21 9.3042781 21.803364 11.375 21.96875 C 11.141263 22.229738 10.90625 22.3125 10.90625 22.3125 C 10.579653 22.440049 10.351951 22.554299 10.3125 22.59375 C 9.9125 22.89375 9.8875 23.3875 10.1875 23.6875 C 10.4875 23.9875 11.00625 24.1125 11.40625 23.8125 C 11.60625 23.6125 12.3 23 13 23 C 13.7 23 14.39375 23.7125 14.59375 23.8125 C 14.79375 23.9125 14.9875 24 15.1875 24 C 15.3875 24 15.70625 23.8875 15.90625 23.6875 C 16.10625 23.3875 16.0875 22.89375 15.6875 22.59375 C 15.601585 22.507835 14.701562 22.095216 13.5625 21.96875 C 13.546543 21.951911 13.522409 21.915701 13.46875 21.84375 C 13.464475 21.838018 13.473162 21.818556 13.46875 21.8125 C 16.512586 21.097532 21 18.288462 21 14 C 21 11.6 20 10.3875 20 8.6875 C 20 7.7875 20.90625 7.3875 21.40625 6.6875 C 21.50625 6.6875 22.3 6.6 23 7 C 23 5.5 22 5.20625 22 4.90625 C 22 4.1418322 21.582837 3.2730817 20.875 2.6875 C 20.908132 2.6441607 20.941652 2.6117488 20.96875 2.5625 C 21.261571 2.0303184 21.063431 1.3553213 20.53125 1.0625 C 20.176462 0.86728582 19.793095 0.90026379 19.46875 1.09375 C 19.370095 0.47359453 18.835424 0 18.1875 0 z M 19.5 3.90625 C 19.8 3.90625 20.09375 4.2 20.09375 4.5 C 20.09375 4.8 19.8 5.09375 19.5 5.09375 C 19.2 5.09375 18.90625 4.8 18.90625 4.5 C 18.90625 4.2 19.2 3.90625 19.5 3.90625 z"></path></svg>