<svg xmlns="http://www.w3.org/2000/svg" version="1" width="24" height="24" viewBox="0 0 24 24">    <path d="M 15.5 0 C 13.6 0 12 1.6 12 3.5 C 12 5.9 13 5.69375 13 8.59375 C 13 12.29375 7.9875 15 3.1875 15 C 1.3875 15 1.99375 15.59375 2.59375 16.09375 C 1.29375 15.79375 -0.50625 15.99375 3.09375 18.09375 C 4.7408632 19.034958 6.3496156 20.219175 9.5625 20.6875 C 10.086755 22.192383 9 22.33125 9 22.90625 C 9 24.00625 14.4 24.30625 14.5 23.90625 C 14.5 23.70625 13.9875 23.6 14.1875 23.5 C 14.3875 23.2 15 23.1 15 23 C 15 22.8 14.3875 22.79375 14.1875 22.59375 C 13.9875 22.39375 14.40625 22.2875 14.40625 22.1875 C 14.40625 22.0875 12.5 21.99375 11 22.09375 C 11 22.09375 10.596429 21.667368 10.96875 20.84375 C 11.478469 20.878774 12.00865 20.90625 12.59375 20.90625 C 18.89375 20.90625 20 16.8875 20 14.6875 C 20 11.3875 17 9.50625 17 6.90625 C 17 5.10625 18.1125 5.9 19.8125 5.5 C 21.3125 5.2 22.4125 4.30625 22.8125 3.90625 C 23.1125 3.50625 23.1125 2.9 22.3125 3 C 21.0125 3.3 19.5125 3 18.8125 2.5 C 18.4125 1.1 17.1 0 15.5 0 z M 16.5 2.8125 C 16.9 2.8125 17.1875 3.1 17.1875 3.5 C 17.1875 3.9 16.9 4.1875 16.5 4.1875 C 16.1 4.1875 15.8125 3.9 15.8125 3.5 C 15.8125 3.1 16.1 2.8125 16.5 2.8125 z"></path></svg>