<svg xmlns="http://www.w3.org/2000/svg" width="50" height="50" viewBox="0 0 50 50">    <path d="M 17.75 5 C 15.333 5 13.43625 6.51675 12.65625 8.96875 C 11.95625 8.67775 11.23075 8.53125 10.46875 8.53125 C 8.50775 8.53125 6.63675 9.519 5.59375 11.125 C 4.89975 12.192 4.6425 13.393 4.8125 14.625 L 4.78125 14.625 C 1.52525 14.625 0 17.544 0 19.5 C 0 21.604 1.0885 23.29525 2.9375 24.15625 C 1.7745 26.24725 2.23025 27.9205 2.65625 28.8125 C 3.54725 30.6715 5.7225 31.96875 7.9375 31.96875 C 8.3025 31.96775 8.656 31.946 9 31.875 C 9.242 32.784 9.73875 33.6715 10.46875 34.4375 C 11.64475 35.6705 13.25075 36.376 14.84375 36.375 C 16.15375 36.375 17.9945 35.90225 19.8125 33.90625 C 21.1505 36.15325 23.31075 37.001 25.09375 37 C 27.47375 37 29.46975 35.66775 30.34375 33.71875 C 31.20875 34.32675 32.208 34.65625 33.25 34.65625 C 35.408 34.65625 37.33325 33.314 38.28125 31.375 C 36.05225 30.738 34.35575 29.603 33.21875 28 C 32.04775 26.35 31.602 24.3285 31.875 22.0625 C 30.674 21.1895 29.6635 19.9915 29.0625 19.0625 C 28.5605 18.2845 28.41775 17.34275 28.71875 16.46875 C 29.40575 14.46575 31.44325 13.21875 34.03125 13.21875 C 35.02725 13.21875 36.10325 13.402 37.15625 13.75 C 37.90325 13.565 38.636 13.46725 39.375 13.40625 C 38.255 11.17425 35.79 9.46875 33.25 9.46875 C 32.694 9.46875 32.146 9.5315 31.625 9.6875 C 31.441 8.5625 30.976 7.60875 30.25 6.84375 C 29.222 5.76075 27.69525 5.125 26.03125 5.125 C 24.36325 5.125 22.86625 5.7145 21.90625 6.6875 C 20.72325 5.6025 19.258 5 17.75 5 z M 34.03125 15.21875 C 32.29925 15.21875 31.032 15.938 30.625 17.125 C 30.525 17.415 30.55275 17.71175 30.71875 17.96875 C 31.39275 19.01075 32.72975 20.45525 34.09375 21.03125 C 33.52175 23.32125 33.76075 25.31775 34.84375 26.84375 C 36.32775 28.93375 39.1785 30 43.3125 30 L 43.5625 30 C 44.8945 30 47.3715 30.005 48.5625 28.5 C 49.0805 27.847 49.26 27.0185 49.125 26.0625 C 50.074 24.5175 50.0545 22.4455 49.0625 20.4375 C 47.5285 17.3285 44.15875 15.34375 40.46875 15.34375 C 39.36075 15.34375 38.2125 15.50475 37.0625 15.84375 C 36.0315 15.43375 34.98725 15.21875 34.03125 15.21875 z M 44 22 C 44.553 22 45 22.448 45 23 C 45 23.552 44.553 24 44 24 C 43.447 24 43 23.552 43 23 C 43 22.448 43.447 22 44 22 z M 5.125 33.4375 C 5.54 38.9315 6.735 43.95725 7 45.03125 C 7.233 45.98025 7.57325 47 8.78125 47 L 9.5625 47 C 9.9445 47 10.32175 46.8445 10.59375 46.5625 C 10.97575 46.1665 11.154 45.551 11.125 44.75 C 11.106 44.237 11.03 40.83675 11 37.34375 C 10.285 36.94275 9.61525 36.4245 9.03125 35.8125 C 8.49425 35.2495 8.0365 34.62575 7.6875 33.96875 C 6.8015 33.94175 5.938 33.7395 5.125 33.4375 z M 34.96875 36.4375 C 34.40975 36.5745 33.831 36.65625 33.25 36.65625 C 33.007 36.65625 32.77125 36.61975 32.53125 36.59375 C 32.37225 40.38875 32.12675 43.9665 32.09375 44.4375 C 32.06575 45.3655 31.885 46.09975 31.625 46.71875 C 31.89 46.89775 32.1915 47 32.5625 47 L 33.09375 47 C 34.71075 47 34.75525 45.195 34.78125 44.125 C 34.80925 42.986 34.90575 39.1275 34.96875 36.4375 z M 30.5 36.875 C 29.098 38.194 27.181 38.985 25.125 39 C 25.293 41.547 25.5895 43.19475 25.8125 44.21875 C 25.8475 44.38075 25.87425 44.52425 25.90625 44.65625 C 25.91225 44.68125 25.9315 44.69375 25.9375 44.71875 C 25.9655 44.83275 25.977 44.93925 26 45.03125 C 26.235 45.98025 26.6045 47 27.8125 47 L 28.4375 47 C 29.4415 47 30.05175 46.02275 30.09375 44.34375 C 30.09575 44.31575 30.17725 43.0815 30.28125 41.3125 C 30.35625 40.0415 30.43 38.49 30.5 36.875 z M 18.125 37.625 C 16.89 38.194 15.74775 38.375 14.84375 38.375 C 14.18775 38.375 13.511 38.26375 12.875 38.09375 C 13.161 40.13675 13.58925 42.92025 14.03125 44.90625 C 14.17125 45.53025 14.5235 47 15.9375 47 L 16.875 47 C 17.232 47 17.5625 46.86175 17.8125 46.59375 C 18.3565 46.01175 18.39775 44.8705 18.34375 44.0625 L 18.125 37.625 z"></path></svg>