<svg xmlns="http://www.w3.org/2000/svg" width="50" height="50" viewBox="0 0 50 50">    <path d="M 39.90625 2 C 37.56125 2 36.41875 5.55875 37.46875 11.46875 C 37.89375 11.34675 38.3485 11.2455 38.8125 11.1875 C 37.8735 4.0905 41.461 7.14775 42 4.09375 C 42.2 2.89375 41.20625 2 39.90625 2 z M 47.5625 4.03125 C 45.719395 4.2048425 43.752687 6.7181875 42.28125 11.34375 C 42.76625 11.44875 43.2335 11.583 43.6875 11.75 C 46.1015 5.158 47.8105 9.59575 49.6875 7.09375 C 50.3875 6.19375 49.9125 4.9125 48.8125 4.3125 C 48.406188 4.101375 47.987832 3.9911902 47.5625 4.03125 z M 40 13.09375 C 35.19 13.09375 33 17.2865 33 21.1875 C 33 35.3405 14.2175 39.18525 5.1875 41.03125 C 1.1055 41.86525 0 42.1085 0 43.3125 C -5.9211895e-15 47.8805 20.8135 48 23.1875 48 C 43.3115 48 43.979 33.11075 44 26.71875 C 46.384 25.38075 48 22.8345 48 20.3125 C 48 16.3425 44.411 13.09375 40 13.09375 z"></path></svg>