<svg xmlns="http://www.w3.org/2000/svg" width="26" height="26" viewBox="0 0 26 26">    <path d="M 1 7 C 0.449 7 0 7.449 0 8 L 0 22 C 0 22.551 0.449 23 1 23 L 3 23 C 3.245 21.277 4.71 19.9375 6.5 19.9375 C 8.29 19.9375 9.755 21.277 10 23 L 14 23 C 14.551 23 15 22.551 15 22 L 15 8 C 15 7.449 14.551 7 14 7 L 1 7 z M 17 11 C 16.449 11 16 11.449 16 12 L 16 22 C 16 22.549 16.452 22.996 17 23 C 17.246 21.277 18.711 19.9375 20.5 19.9375 C 22.29 19.9375 23.755 21.277 24 23 L 25 23 C 25.551 23 26 22.551 26 22 L 26 17 C 26 16.053 25.21875 14.96875 25.21875 14.96875 L 23 12 C 22.543 11.449 22.234 11 21.5 11 L 17 11 z M 19 13 L 21.4375 13 C 21.5985 13 21.84375 13.25 21.84375 13.25 L 23.9375 16.15625 C 24.1245 16.43025 24.3125 16.75 24.3125 17 L 19 17 L 19 13 z M 6.5 21.1875 C 5.2225654 21.1875 4.1875 22.222565 4.1875 23.5 C 4.1875 24.777435 5.2225654 25.8125 6.5 25.8125 C 7.7774346 25.8125 8.8125 24.777435 8.8125 23.5 C 8.8125 22.222565 7.7774346 21.1875 6.5 21.1875 z M 20.5 21.1875 C 19.222565 21.1875 18.1875 22.222565 18.1875 23.5 C 18.1875 24.777435 19.222565 25.8125 20.5 25.8125 C 21.777435 25.8125 22.8125 24.777435 22.8125 23.5 C 22.8125 22.222565 21.777435 21.1875 20.5 21.1875 z M 902 1469 L 902 1471 L 928 1471 L 928 1469 L 902 1469 z M 906 1474 L 906 1476 L 924 1476 L 924 1474 L 906 1474 z M 902 1479 L 902 1481 L 928 1481 L 928 1479 L 902 1479 z M 906 1484 L 906 1486 L 924 1486 L 924 1484 L 906 1484 z M 902 1489 L 902 1491 L 928 1491 L 928 1489 L 902 1489 z"></path></svg>