<svg xmlns="http://www.w3.org/2000/svg" width="24" height="24" viewBox="0 0 24 24">    <path style="text-indent:0;text-align:start;line-height:normal;text-transform:none;block-progression:tb;-inkscape-font-specification:Bitstream Vera Sans" d="M 12 0 C 8.299 0 3.78125 2.565 3.78125 8.25 C 3.72205 8.7372 3.123896 10.368102 2.875 11.34375 C 1.91 13.90775 -0.073 15.3585 0 16.3125 C 1.37275 17.3043 3.0509729 16.294855 3.21875 16.1875 C 3.7036384 18.206775 4.5841612 19.861 5.9375 21.03125 L 5 21.03125 A 0.96059605 0.96059605 0 0 0 4.90625 21.03125 A 0.96988341 0.96988341 0 1 0 5 22.96875 A 1.0001 1.0001 0 0 0 6 24 C 9.0560463 24 10.622803 23.750785 11.5625 23.4375 C 11.728567 23.382135 11.864293 23.30923 12 23.25 C 12.135707 23.30923 12.271433 23.382135 12.4375 23.4375 C 13.377197 23.750785 14.943954 24 18 24 A 1.0001 1.0001 0 0 0 19 22.96875 A 0.96875 0.96875 0 0 0 19 21.03125 L 18.0625 21.03125 C 19.415839 19.861 20.296362 18.206775 20.78125 16.1875 C 20.949027 16.294855 22.62725 17.3043 24 16.3125 C 24.073 15.3585 22.09 13.90775 21.125 11.34375 C 20.87588 10.368358 20.27715 8.7372 20.21875 8.25 C 20.21875 2.565 15.701 -1.1842379e-15 12 0 z M 9.6875 3.46875 C 10.9345 3.46875 11.581 4.65625 12 4.65625 C 12.419 4.65625 13.2425 3.46875 14.3125 3.46875 C 19.3245 3.46875 17.5625 10.125 17.5625 10.125 C 17.5625 10.125 18.46875 11.296 18.46875 13.75 C 18.46875 18.856 14.917 20.25 12 20.25 C 9.083 20.25 5.53125 18.856 5.53125 13.75 C 5.53125 11.296 6.4375 10.125 6.4375 10.125 C 6.4375 10.125 4.6755 3.46875 9.6875 3.46875 z M 10 7 C 9.4477153 7 9 7.4477153 9 8 C 9 8.5522847 9.4477153 9 10 9 C 10.552285 9 11 8.5522847 11 8 C 11 7.4477153 10.552285 7 10 7 z M 14 7 C 13.447715 7 13 7.4477153 13 8 C 13 8.5522847 13.447715 9 14 9 C 14.552285 9 15 8.5522847 15 8 C 15 7.4477153 14.552285 7 14 7 z M 12 9.125 C 12 9.125 11.149 9.76175 10 10.09375 C 10.592 11.63975 12 12 12 12 C 12 12 13.408 11.63975 14 10.09375 C 12.851 9.76175 12 9.125 12 9.125 z" color="#000" overflow="visible" enable-background="accumulate" font-family="Bitstream Vera Sans"></path></svg>