<svg xmlns="http://www.w3.org/2000/svg" width="24" height="24" viewBox="0 0 24 24">    <path d="M 11.59375 2 C 5.6599079 2 1.9163327 9.6424458 1.1875 16.125 L 1.15625 16.125 L 0.96875 17.1875 L 0.09375 21.9375 L -0.0625 22.8125 L 0.78125 23 C 0.78125 23 4.9737918 24 9.78125 24 C 14.605929 24 18.78125 22.875 18.78125 22.875 L 19.625 22.65625 L 19.4375 21.78125 L 18.5 17.3125 L 18.28125 16.3125 L 18.25 16.3125 C 16.065226 8.2298941 17.809181 8.6939135 19.5 10.03125 C 19.199063 10.44404 19 10.949902 19 11.5 C 19 12.881 20.119 14 21.5 14 C 22.881 14 24 12.881 24 11.5 C 24 10.119 22.881 9 21.5 9 C 21.424311 9 21.355224 9.0246684 21.28125 9.03125 C 20.288604 5.8781756 17.185468 2 11.59375 2 z M 21.5 10.40625 C 22.107 10.40625 22.59375 10.893 22.59375 11.5 C 22.59375 12.107 22.107 12.59375 21.5 12.59375 C 20.893 12.59375 20.40625 12.107 20.40625 11.5 C 20.40625 10.893 20.893 10.40625 21.5 10.40625 z M 2.59375 18.53125 C 3.7035168 18.863795 6.0424626 19.46875 9.78125 19.46875 C 13.523195 19.46875 15.803227 18.943599 16.875 18.65625 L 17.4375 21.28125 C 16.389087 21.530756 13.542834 22.15625 9.78125 22.15625 C 5.976841 22.15625 3.0857189 21.590457 2.0625 21.375 L 2.59375 18.53125 z"></path></svg>