<svg xmlns="http://www.w3.org/2000/svg" width="50" height="50" viewBox="0 0 50 50">    <path d="M 17.1875 -0.03125 C 16.249813 0.088328125 15.41125 0.72625 15.0625 1.65625 C 15.0505 1.68925 15.04025 1.716 15.03125 1.75 C 14.82325 2.554 14.189 5 8 5 C 3.514 5 0 8.514 0 13 C 0 19.267 4.786 21.47625 8 21.90625 L 8 46.5 C 8 48.463 9.538 50 11.5 50 C 13.462 50 15 48.463 15 46.5 L 15 31 C 15.13 30.157 19.048 28 23 28 C 26.951 28 30.869 30.167 31 31 L 31 46.5 C 31 48.463 32.537 50 34.5 50 C 36.463 50 38 48.463 38 46.5 L 38 32 C 38 31.448 38.448 31 39 31 C 39.552 31 40 31.448 40 32 L 40 46.5 C 40 48.463 41.537 50 43.5 50 C 45.463 50 47 48.463 47 46.5 L 47 22.375 C 45.272 23.401 43.214 24 41 24 C 34.935 24 30 19.514 30 14 L 30 12.84375 C 27.722 12.31375 24.938 12 22 12 C 18.152 12 14.089 13.68425 11.125 14.90625 C 9.869 15.42425 8.449 16 8 16 C 6.346 16 5 14.654 5 13 C 5 11.346 6.346 10 8 10 C 16.192 10 18.977 6.30125 19.875 3.15625 C 20.203 1.84625 19.517 0.5375 18.25 0.0625 C 18.215 0.0495 18.19325 0.04125 18.15625 0.03125 C 17.835 -0.049 17.500062 -0.071109375 17.1875 -0.03125 z M 32.90625 3 C 32.808875 3.0093437 32.7185 3.02375 32.625 3.0625 C 32.251 3.2175 32 3.596 32 4 L 32 14 C 32 18.411 36.037 22 41 22 C 45.963 22 50 18.411 50 14 L 50 4 C 50 3.596 49.749 3.2175 49.375 3.0625 C 49 2.9075 48.56725 2.99425 48.28125 3.28125 L 44.78125 6.8125 C 43.53325 6.2865 42.241 6 41 6 C 39.739 6 38.38375 6.28025 37.21875 6.78125 L 33.71875 3.28125 C 33.50425 3.066 33.198375 2.9719688 32.90625 3 z M 37.5 11 C 38.328 11 39 11.671 39 12.5 C 39 13.329 38.328 14 37.5 14 C 36.672 14 36 13.329 36 12.5 C 36 11.671 36.672 11 37.5 11 z M 44.5 11 C 45.328 11 46 11.671 46 12.5 C 46 13.329 45.328 14 44.5 14 C 43.672 14 43 13.329 43 12.5 C 43 11.671 43.672 11 44.5 11 z"></path></svg>