<svg xmlns="http://www.w3.org/2000/svg" viewBox="0 0 26 26" enable-background="new 0 0 26 26">    <path d="M 7 0.09375 C 5.8 0.09375 4.4125 0.60625 3.3125 3.40625 C 3.4125 3.40625 -1.0362082e-15 3.4 0 13 C 0 22.5 2.3125 26 2.3125 26 L 16 26 C 16 26 12.9875 23.69375 11.6875 22.59375 C 9.4633382 22.013534 3.9121686 21.787249 3.09375 15.625 C 3.7141113 18.730103 7.46875 21.125 11.59375 20.09375 C 13.29375 19.69375 14.59375 20.7875 17.09375 21.1875 C 19.49375 21.5875 21.3 21.49375 22 19.09375 C 22 19.09375 15.39375 18.2125 11.59375 14.8125 C 10.29375 13.6125 5.39375 14.5 4.59375 12.5 C 8.29375 12.5 9.59375 10.59375 11.09375 10.59375 C 13.09375 10.59375 14.69375 12 18.09375 12 C 22.79375 12 26 8.90625 26 7.90625 C 25.3 -0.29375 19.6 2.2 11 1 C 11 1 13.10625 2.9 13.90625 3.5 C 11.10625 3 9.4 0.09375 7 0.09375 z M 7.25 2.84375 C 7.4761719 2.8056641 7.71875 2.85 7.90625 3 C 9.10625 3.7 10 4.59375 10 4.59375 C 9.9 5.09375 9.49375 5.7125 8.59375 5.8125 C 8.39375 5.5125 8.1875 4.59375 8.1875 3.59375 C 7.7875 3.99375 7.3125 4.5125 7.3125 5.3125 C 6.9125 4.9125 6.69375 4.1 6.59375 3.5 C 6.53125 3.1875 6.8730469 2.9072266 7.25 2.84375 z M 21.78125 3.78125 C 22.30625 3.7671875 23.3875 3.925 23.6875 5.5 C 23.6875 6 22.6 5.70625 22 5.40625 C 21.5 5.10625 21 4.5125 21.5 3.8125 C 21.5 3.8125 21.60625 3.7859375 21.78125 3.78125 z M 24.59375 10.59375 L 23.40625 11.5 C 23.40625 12.6 23.59375 13.1875 23.59375 13.1875 C 23.59375 13.1875 23.8875 13.2 24.1875 12.5 C 24.2875 12.2 24.49375 11.19375 24.59375 10.59375 z M 11.6875 11.59375 C 11.7875 12.09375 11.90625 12.3125 11.90625 12.3125 C 11.90625 12.3125 12.0875 12.4 12.1875 12 C 12.2875 11.9 12.30625 11.7875 12.40625 11.6875 C 12.20625 11.6875 11.8875 11.59375 11.6875 11.59375 z M 13.09375 11.90625 C 13.19375 12.60625 13.3125 12.8125 13.3125 12.8125 C 13.3125 12.8125 13.4875 12.9 13.6875 12.5 C 13.7875 12.5 13.80625 12.2875 13.90625 12.1875 C 13.60625 12.0875 13.39375 12.00625 13.09375 11.90625 z M 22.5 11.90625 C 22.1 12.10625 21.6875 12.30625 21.1875 12.40625 C 21.1875 13.70625 21.40625 14.5 21.40625 14.5 C 21.40625 14.5 21.79375 14.4875 22.09375 13.6875 C 22.19375 13.3875 22.4 12.50625 22.5 11.90625 z M 14.6875 12.5 C 14.7875 13.3 14.90625 14 14.90625 14 C 14.90625 14 15.2125 14.09375 15.3125 13.59375 C 15.4125 13.49375 15.49375 12.9875 15.59375 12.6875 C 15.29375 12.6875 14.9875 12.6 14.6875 12.5 z M 20.5 12.59375 C 20 12.69375 19.40625 12.8125 18.90625 12.8125 C 19.00625 14.5125 19.1875 15.5 19.1875 15.5 C 19.1875 15.5 19.6 15.5 20 14.5 C 20.1 14.2 20.4 13.29375 20.5 12.59375 z M 16.8125 12.8125 C 16.8125 14.0125 16.90625 14.8125 16.90625 14.8125 C 16.90625 14.8125 17.19375 14.9125 17.59375 14.3125 C 17.59375 14.1125 17.9 13.40625 18 12.90625 C 17.5 12.90625 17.2125 12.8125 16.8125 12.8125 z M 13.40625 14.5 C 13.40625 14.5 13.1 14.7 13 15 C 13.2 15.2 13.3 15.30625 13.5 15.40625 C 13.5 15.20625 13.59375 15.00625 13.59375 14.90625 C 13.59375 14.50625 13.40625 14.5 13.40625 14.5 z M 14.6875 15.3125 C 14.6875 15.3125 14.4875 15.50625 14.1875 15.90625 L 14.8125 16.1875 C 14.8125 15.8875 14.90625 15.69375 14.90625 15.59375 C 14.90625 15.29375 14.6875 15.3125 14.6875 15.3125 z M 18 15.6875 C 18 15.6875 17.50625 16.39375 16.90625 17.09375 C 17.20625 17.29375 17.60625 17.4 17.90625 17.5 C 18.00625 17 18.1875 16.4125 18.1875 16.3125 C 18.2875 15.8125 18 15.6875 18 15.6875 z M 16.3125 15.8125 C 16.3125 15.8125 15.89375 16.09375 15.59375 16.59375 C 15.79375 16.69375 16.1125 16.80625 16.3125 16.90625 C 16.4125 16.60625 16.5 16.2875 16.5 16.1875 C 16.5 15.7875 16.3125 15.8125 16.3125 15.8125 z M 19.6875 16.6875 C 19.6875 16.6875 19.3 17.20625 19 17.90625 C 19.2 18.00625 19.4875 17.99375 19.6875 18.09375 C 19.7875 17.69375 19.90625 17.2875 19.90625 17.1875 C 19.90625 16.6875 19.6875 16.6875 19.6875 16.6875 z M 21.5 17.3125 C 21.5 17.3125 21.20625 17.80625 20.90625 18.40625 C 21.10625 18.40625 21.3 18.5 21.5 18.5 C 21.6 18.2 21.6875 17.9125 21.6875 17.8125 C 21.6875 17.3125 21.5 17.3125 21.5 17.3125 z"></path></svg>