<svg xmlns="http://www.w3.org/2000/svg" version="1" width="24" height="24" viewBox="0 0 24 24">    <path d="M 14 0 C 10 0 9 4.2 9 6 C 4.4 6 4.3 9.3 6 11 C 4.4 12.6 5 14.2875 6.5 15.6875 C 4.8 15.2875 4.1 13.8 4 13 C 2.7 13 1.4875 14.0875 2.1875 16.1875 C 1.1875 17.2875 0.7 18.4 1 21 C 0.6 21.2 0 21.7875 0 22.6875 C 0 23.7875 0.3875 24 1.1875 24 L 4.8125 24 C 5.5125 24 5.6875 23.3875 5.6875 23.1875 C 5.6875 22.5875 5.20625 22 4.40625 21.5 C 5.30625 21.2 5.6875 19.7125 5.6875 19.3125 C 5.9875 19.5125 7.6 19.6 8 19.5 C 8.4 20.3 9.4125 21.49375 10.3125 22.09375 C 10.3125 22.09375 10.2875 22.2875 10.1875 22.1875 C 10.0875 21.9875 9.8875 22 9.6875 22 C 8.9875 22 8.59375 24 10.59375 24 L 13.6875 24 C 14.5875 24 15 23.60625 15 22.90625 C 15 22.10625 14.69375 21.2125 14.09375 20.8125 C 14.29375 19.4125 13.7125 17.3 12.3125 15.5 C 13.2125 13.5 12.4 11.40625 11 9.90625 C 13 11.00625 14.2 13.5875 13.5 15.1875 C 14.5 16.3875 14.80625 16.99375 14.90625 18.09375 C 18.00625 16.59375 19 14.9 19 13.5 C 19 11.4 17.5 9 17.5 9 C 17.7 9.2 19.4875 11.3125 19.6875 12.8125 C 19.8875 13.7125 19.9 16.4875 17 18.1875 C 17 19.4875 17.90625 20.7875 19.40625 21.6875 C 19.70625 22.3875 19.29375 22.5875 19.09375 22.6875 C 19.29375 22.1875 18.99375 21.90625 18.59375 21.90625 C 17.89375 21.90625 17.5 23.90625 19.5 23.90625 L 22.8125 23.90625 C 23.7125 23.90625 24.09375 23.5125 24.09375 22.8125 C 23.99375 22.1125 23.50625 21.2125 22.90625 20.8125 C 23.20625 19.0125 22.2875 17.90625 21.6875 17.40625 C 22.4875 14.80625 21.4875 12.89375 20.6875 12.09375 C 21.7875 9.49375 19.8 8.2125 17.5 7.8125 C 18.1 7.3125 18.1875 6.3 17.6875 5.5 C 17.8875 5.2 17.7875 4.8875 17.6875 4.6875 C 18.1875 4.4875 18.10625 3.90625 17.90625 3.40625 C 17.40625 1.60625 15.6 0 14 0 z M 14.90625 4.40625 C 15.001367 4.3941406 15.0875 4.39375 15.1875 4.40625 C 15.5875 4.50625 16.6875 4.69375 17.1875 4.59375 C 17.224755 4.6682598 17.240504 4.7779024 17.25 4.875 C 17.201046 4.8852466 17.149044 4.8786029 17.09375 4.90625 C 17.19375 4.90625 17.1875 5 17.1875 5 C 17.1875 5.1 17.1 5.1875 17 5.1875 C 16.9 5.1875 16.90625 5.1 16.90625 5 L 16.90625 4.90625 C 16.90625 5.00625 16.7875 5 16.6875 5 L 16.5 5 L 16.5 5.09375 C 16.5 5.19375 16.4125 5.3125 16.3125 5.3125 C 16.2125 5.3125 16.09375 5.19375 16.09375 5.09375 C 16.09375 5.04375 16.1125 5.0125 16.125 5 C 15.758821 4.896789 15.500556 4.7170819 15.40625 5 C 15.40625 5.2 15.59375 5.4875 16.09375 5.6875 C 16.09375 5.6875 16.2875 5.4 16.6875 5.5 C 16.9875 5.5 17.1875 5.59375 17.1875 5.59375 C 17.215549 5.5657012 17.229267 5.5311549 17.25 5.5 C 17.291667 5.5555556 17.333333 5.5875 17.375 5.6875 C 17.277884 5.7159766 17.16125 5.8125 17.09375 5.8125 C 16.89375 5.8125 16.79375 5.6875 16.59375 5.6875 C 16.39375 5.7875 16.3125 5.9 16.3125 6 C 16.3125 6.2 16.59375 6.3125 16.59375 6.3125 C 16.79375 6.1125 16.5 6.2 16.5 6 C 16.5 5.8 16.7 6 17 6 C 17.1 6 17.2125 5.9125 17.3125 5.8125 C 17.5125 5.8125 17.20625 6.09375 17.40625 6.09375 C 17.43125 6.06875 17.446875 6.034375 17.46875 6 C 17.485915 6.0930345 17.5 6.1987705 17.5 6.3125 C 17.5 6.3507022 17.476308 6.4176959 17.46875 6.46875 C 17.088707 6.4580683 16.326605 6.5265078 15.8125 7.1875 C 15.8125 7.4875 16.09375 7.6875 16.09375 7.6875 C 16.09375 7.6875 16.278171 6.8418765 17.4375 6.5625 C 17.326945 7.0693417 16.930056 7.90625 16 7.90625 C 15.1 7.90625 15.0125 6.6125 15.3125 6.3125 C 13.825 5.175 14.24043 4.4910156 14.90625 4.40625 z"></path></svg>