<svg xmlns="http://www.w3.org/2000/svg" width="50" height="50" viewBox="0 0 50 50">    <path d="M 8.1875 0 C 4.0555 0 0.61375 2.06825 0.46875 2.15625 C -0.00325 2.44225 -0.13075 3.05825 0.15625 3.53125 C 0.44225 4.00325 1.028 4.12775 1.5 3.84375 C 1.506 3.83975 1.52525 3.84675 1.53125 3.84375 C 1.56325 3.82375 1.761 3.70725 2.125 3.53125 C 3.213 2.99025 4.60875 2.49225 5.84375 2.65625 C 6.16475 2.69825 6.38575 2.9905 6.34375 3.3125 C 6.30275 3.6325 6.0055 3.8535 5.6875 3.8125 C 5.5015 3.7875 5.326 3.7955 5.125 3.8125 C 5.113 3.8135 5.0745 3.8105 5.0625 3.8125 C 5.0085 3.8185 4.9905 3.83675 4.9375 3.84375 C 4.8015 3.86175 4.639 3.87625 4.5 3.90625 C 1.9110323 4.4429227 0.27514751 6.1936025 0.1875 6.28125 C -0.2025 6.67125 -0.2015 7.32775 0.1875 7.71875 C 0.3825 7.91475 0.65025 8 0.90625 8 C 1.16125 8 1.39875 7.91275 1.59375 7.71875 C 1.69475 7.61875 1.8785 7.4615 2.0625 7.3125 C 2.5295 15.1585 6.36325 19.09375 9.78125 22.59375 C 13.12025 26.01175 16 28.976 16 35 L 16 35.1875 L 16.0625 35.34375 C 16.6405 36.86375 21.82275 50.001 28.71875 50 C 28.82675 50 28.9535 50.007 29.0625 50 L 29.625 49.96875 L 29.875 49.46875 C 30.043 49.16075 34 41.889 34 36 C 34 26.639 26.86925 22.64375 21.65625 19.71875 C 18.41125 17.89875 15.59375 16.3025 15.59375 14.1875 C 15.59375 13.5075 15.95325 12.85525 16.40625 12.03125 C 17.11425 10.74325 18 9.14675 18 6.59375 C 18 3.31375 14.6215 -1.1842379e-15 8.1875 0 z M 19.25 3.4375 C 19.755 4.4475 20 5.52075 20 6.59375 C 20 6.71275 20.003 6.8215 20 6.9375 L 20.90625 7.25 C 21.43025 7.425 21.7375 8.00725 21.5625 8.53125 C 21.4225 8.95025 21.01275 9.1875 20.59375 9.1875 C 20.48975 9.1875 20.38625 9.19125 20.28125 9.15625 L 19.75 8.96875 C 19.667 9.37775 19.58175 9.767 19.46875 10.125 C 22.21875 11.041 25.34675 11.2385 28.84375 11.4375 C 34.39875 11.7535 40.68775 12.103 47.96875 15.375 C 48.32275 15.493 48.5595 15.59175 48.5625 15.59375 C 48.8725 15.74675 49.23625 15.7445 49.53125 15.5625 C 49.82525 15.3805 50 15.0345 50 14.6875 C 50 9.9635 46.5485 8.344 44.5625 8.125 C 44.3145 8.083 43.726 7.983 42.875 7.875 C 38.52 7.32 26.761 5.8315 19.25 3.4375 z M 13.6875 5.40625 C 14.3875 5.40625 15 5.9875 15 6.6875 C 15 7.3875 14.3875 8 13.6875 8 C 12.9875 8 11 6.09375 11 6.09375 C 11 6.09375 12.9875 5.40625 13.6875 5.40625 z M 18.71875 11.96875 C 18.53275 12.33875 18.32825 12.687 18.15625 13 C 17.92225 13.426 17.60275 14.0035 17.59375 14.1875 C 17.59375 15.1305 20.623 16.84575 22.625 17.96875 C 25.488 19.57475 29.14325 21.6265 31.90625 24.8125 C 36.39025 23.7815 40.267 20.11925 43 17.53125 C 43.491 17.06725 44.005 16.567 44.5 16.125 C 38.639 13.989 33.40575 13.67325 28.71875 13.40625 C 25.01975 13.19625 21.72875 13.00075 18.71875 11.96875 z"></path></svg>