<svg xmlns="http://www.w3.org/2000/svg" width="26" height="26" viewBox="0 0 26 26">    <path d="M 16.15625 0.28125 A 0.95009499 0.95009499 0 0 0 16.0625 0.3125 A 0.95009499 0.95009499 0 0 0 15.59375 1.9375 L 16.34375 2.6875 A 0.95017474 0.95017474 0 1 0 17.6875 1.34375 L 16.9375 0.59375 A 0.95009499 0.95009499 0 0 0 16.25 0.28125 A 0.95009499 0.95009499 0 0 0 16.15625 0.28125 z M 19.1875 0.3125 A 0.95009499 0.95009499 0 0 0 19.09375 0.34375 A 0.95009499 0.95009499 0 0 0 18.625 1.96875 L 20.34375 3.65625 A 0.95009499 0.95009499 0 1 0 21.65625 2.34375 L 19.96875 0.625 A 0.95009499 0.95009499 0 0 0 19.28125 0.3125 A 0.95009499 0.95009499 0 0 0 19.1875 0.3125 z M 22.3125 1.96875 C 23.9385 3.94975 22.92275 6.101 18.59375 10.875 C 14.26575 15.649 10.2535 15.1505 9.1875 13.9375 C 9.0605 14.9485 9.8175 16.21075 9.4375 16.96875 C 8.9175 18.00775 7.1425 18.0145 5.3125 20.4375 C 3.7905 22.4535 2.956 24.92075 3.75 25.59375 C 4.696 26.39875 6.4725 25.46075 8.5625 23.34375 C 10.6415 21.23875 10.75975 18.73125 11.34375 18.15625 C 14.03175 15.51425 15.29075 18.0765 20.34375 13.1875 C 24.38275 9.2805 24.84375 6.4415 24.84375 4.9375 C 24.84375 2.5165 23.1045 2.03275 22.3125 1.96875 z M 14.15625 2.28125 A 0.95009499 0.95009499 0 0 0 14.0625 2.3125 A 0.95009499 0.95009499 0 0 0 13.59375 3.9375 L 14.34375 4.6875 A 0.95017474 0.95017474 0 1 0 15.6875 3.34375 L 14.9375 2.59375 A 0.95009499 0.95009499 0 0 0 14.25 2.28125 A 0.95009499 0.95009499 0 0 0 14.15625 2.28125 z M 18.1875 3.3125 A 0.95009499 0.95009499 0 0 0 18.09375 3.34375 A 0.95009499 0.95009499 0 0 0 17.625 4.96875 L 19.34375 6.65625 A 0.95009499 0.95009499 0 1 0 20.65625 5.34375 L 18.96875 3.625 A 0.95009499 0.95009499 0 0 0 18.28125 3.3125 A 0.95009499 0.95009499 0 0 0 18.1875 3.3125 z M 12.15625 4.28125 A 0.95009499 0.95009499 0 0 0 12.0625 4.3125 A 0.95009499 0.95009499 0 0 0 11.59375 5.9375 L 12.34375 6.6875 A 0.95017474 0.95017474 0 1 0 13.6875 5.34375 L 12.9375 4.59375 A 0.95009499 0.95009499 0 0 0 12.25 4.28125 A 0.95009499 0.95009499 0 0 0 12.15625 4.28125 z M 16.1875 5.3125 A 0.95009499 0.95009499 0 0 0 16.09375 5.34375 A 0.95009499 0.95009499 0 0 0 15.625 6.96875 L 17.34375 8.65625 A 0.95009499 0.95009499 0 1 0 18.65625 7.34375 L 16.96875 5.625 A 0.95009499 0.95009499 0 0 0 16.28125 5.3125 A 0.95009499 0.95009499 0 0 0 16.1875 5.3125 z M 10.15625 6.28125 A 0.95009499 0.95009499 0 0 0 10.0625 6.3125 A 0.95009499 0.95009499 0 0 0 9.59375 7.9375 L 10.34375 8.6875 A 0.95017474 0.95017474 0 1 0 11.6875 7.34375 L 10.9375 6.59375 A 0.95009499 0.95009499 0 0 0 10.25 6.28125 A 0.95009499 0.95009499 0 0 0 10.15625 6.28125 z M 14.1875 7.3125 A 0.95009499 0.95009499 0 0 0 14.09375 7.34375 A 0.95009499 0.95009499 0 0 0 13.625 8.96875 L 15.34375 10.65625 A 0.95009499 0.95009499 0 1 0 16.65625 9.34375 L 14.96875 7.625 A 0.95009499 0.95009499 0 0 0 14.28125 7.3125 A 0.95009499 0.95009499 0 0 0 14.1875 7.3125 z M 12.1875 9.3125 A 0.95009499 0.95009499 0 0 0 12.09375 9.34375 A 0.95009499 0.95009499 0 0 0 11.625 10.96875 L 13.34375 12.65625 A 0.95009499 0.95009499 0 1 0 14.65625 11.34375 L 12.96875 9.625 A 0.95009499 0.95009499 0 0 0 12.28125 9.3125 A 0.95009499 0.95009499 0 0 0 12.1875 9.3125 z M 8.78125 10 A 0.95009499 0.95009499 0 0 0 8.3125 11.65625 L 10 13.34375 A 0.95017474 0.95017474 0 1 0 11.34375 12 L 9.65625 10.3125 A 0.95009499 0.95009499 0 0 0 8.96875 10 A 0.95009499 0.95009499 0 0 0 8.78125 10 z"></path></svg>