<svg xmlns="http://www.w3.org/2000/svg" width="50" height="50" viewBox="0 0 50 50">    <path d="M5.05,48.91C5.049,48.91,5.05,48.91,5.05,48.91c-1.319,0-2.141-0.644-2.771-1.272c-2.393-2.399-0.688-5.642,7.015-13.345 c5.768-5.769,9.693-8.783,12.29-10.777c1.223-0.939,2.107-1.619,2.709-2.222l21.11-21.11l0.537,1.475 c3.667,10.066-3.077,17.891-5.231,20.049c-3,2.996-6.702,4.159-9.969,5.186c-2.52,0.792-4.694,1.476-6.032,2.814 c-0.71,0.709-1.55,2.014-2.522,3.525c-1.603,2.491-3.598,5.592-6.478,8.475C10.727,46.688,7.439,48.91,5.05,48.91z"></path></svg>