<svg xmlns="http://www.w3.org/2000/svg" width="24" height="24" viewBox="0 0 24 24">    <path d="M 14.0625 -0.03125 C 14.03125 -0.0390625 14 -0.025 14 0 C 14 0.1 14.20625 0.1875 13.90625 0.1875 C 13.50625 0.1875 13.0125 0.19375 12.8125 0.59375 C 12.7125 0.89375 12.70625 1.2 12.90625 1.5 C 13.10625 1.8 13.6125 1.9875 13.8125 2.1875 C 13.4125 2.0875 12.6125 2.19375 12.3125 2.59375 C 11.7125 3.19375 12.9125 3.5875 13.3125 3.6875 C 12.9125 3.7875 12.8875 4.1125 13.1875 4.3125 C 13.3875 4.5125 13.79375 4.6 14.09375 4.5 C 13.89375 4.7 13.79375 4.9875 14.09375 5.1875 C 14.29375 5.3875 14.70625 5.20625 14.90625 5.40625 C 14.80625 5.40625 14.7875 5.5 14.6875 5.5 C 14.6875 5.7 14.9 5.8 15 6 C 15.4 6.7 14.9875 8.0125 14.6875 8.8125 C 14.676029 8.8335294 14.667865 8.8540444 14.65625 8.875 C 14.427199 9.061709 14.182249 9.2401819 14 9.40625 C 11.162803 6.664062 9.09375 7.1875 9.09375 7.1875 C 9.09375 7.1875 5.60625 11.59375 5.90625 12.09375 C 6.40625 12.39375 7.5 12.9125 8.5 14.8125 C 7 13.7125 5.5 13.39375 5 13.59375 C 4.6 13.69375 -0.3 22.5 0 24 C 1.1 24.3 4.9125 22.4 8.8125 20 C 9.1125 19.8 8.5 18.4875 8 17.6875 C 9.3 18.1875 10 19.3125 10 19.3125 C 10.6 19.4125 13.30625 17.7125 13.90625 16.8125 C 14.00625 16.6125 13.8 15.30625 13 14.40625 C 14.2 14.40625 15.1875 15.90625 15.1875 15.90625 C 16.0875 15.30625 16.8125 14.90625 16.8125 14.90625 C 16.8125 14.90625 17.253459 12.920692 14.59375 10 C 14.759808 9.8177623 14.938303 9.5727844 15.125 9.34375 C 15.145956 9.3321346 15.166471 9.3239706 15.1875 9.3125 C 15.9875 9.0125 17.3 8.6 18 9 C 18.2 9.1 18.3 9.3125 18.5 9.3125 C 18.5 9.2125 18.59375 9.19375 18.59375 9.09375 C 18.79375 9.29375 18.6125 9.70625 18.8125 9.90625 C 19.0125 10.20625 19.3 10.10625 19.5 9.90625 C 19.4 10.20625 19.4875 10.6125 19.6875 10.8125 C 19.8875 11.1125 20.2125 11.0875 20.3125 10.6875 C 20.4125 11.0875 20.80625 12.2875 21.40625 11.6875 C 21.80625 11.3875 21.9125 10.5875 21.8125 10.1875 C 22.0125 10.3875 22.2 10.89375 22.5 11.09375 C 22.8 11.29375 23.10625 11.2875 23.40625 11.1875 C 23.80625 10.9875 23.8125 10.49375 23.8125 10.09375 C 23.8125 9.79375 23.9 10 24 10 C 24.1 10 23.8875 9.7 23.6875 9.5 C 23.2875 9 23.8 9.2875 24 9.1875 C 24.2 8.9875 23.7 8.6 23.5 8.5 C 23.3 8.3 22.89375 8.09375 22.59375 8.09375 C 22.69375 7.99375 23 8.0125 23 7.8125 C 23 7.6125 22.6 7.40625 22.5 7.40625 C 22.2 7.20625 21.99375 7.1 21.59375 7 L 20.8125 7 C 20.9125 6.9 20.99375 6.9125 21.09375 6.8125 C 20.79375 6.4125 19.6125 6.60625 19.3125 6.90625 C 19.4125 6.70625 19.4875 6.59375 19.1875 6.59375 C 18.9875 6.59375 18.79375 6.6875 18.59375 6.6875 C 18.286288 6.7829193 18.003374 6.9140808 17.71875 7.03125 C 19.64788 5.7711356 20.297099 6.1560708 21 5.59375 C 21.3 5.39375 21.0125 5.19375 20.8125 5.09375 C 21.1125 5.09375 21.3875 5 21.6875 5 C 22.0875 4.9 22.5125 4.89375 22.8125 4.59375 C 22.9125 4.29375 23.1 3.9875 23 3.6875 C 22.9 3.3875 22.60625 3.50625 22.40625 3.40625 C 22.90625 3.30625 23.4125 3.20625 23.8125 2.90625 C 23.9125 2.80625 24 2.60625 24 2.40625 C 24 2.20625 23.79375 1.9 23.59375 2 C 23.99375 1.5 23.99375 0.7125 23.59375 0.3125 C 22.99375 -0.2875 22.3125 0.09375 21.8125 0.59375 C 21.9125 0.39375 21.8 0.1 21.5 0 C 21.2 -0.1 21.0125 0.0875 20.8125 0.1875 C 20.5125 0.4875 20.5 1 20.5 1.5 C 20.2 1 19.60625 1.1875 19.40625 1.6875 C 19.20625 2.0875 19.2125 2.5 19.3125 3 C 19.1125 2.8 18.7 2.79375 18.5 3.09375 C 17.975 3.684375 17.984976 4.6341522 16.96875 6.28125 C 17.085919 5.9966264 17.217081 5.7137122 17.3125 5.40625 C 17.3125 5.20625 17.40625 5.0125 17.40625 4.8125 C 17.40625 4.5125 17.29375 4.5875 17.09375 4.6875 C 17.39375 4.3875 17.5875 3.20625 17.1875 2.90625 C 17.0875 3.00625 17.1 3.0875 17 3.1875 L 17 2.40625 C 16.9 2.00625 16.79375 1.8 16.59375 1.5 C 16.59375 1.4 16.3875 1 16.1875 1 C 15.9875 1 16.00625 1.30625 15.90625 1.40625 C 15.90625 1.10625 15.7 0.7 15.5 0.5 C 15.4 0.3 15.0125 -0.2 14.8125 0 C 14.7125 0.2 15 0.7125 14.5 0.3125 C 14.35 0.1625 14.15625 -0.0078125 14.0625 -0.03125 z"></path></svg>