<svg xmlns="http://www.w3.org/2000/svg" width="50" height="50" viewBox="0 0 50 50">    <path d="M 16.1875 4.40625 C 16.1385 4.40425 16.1105 4.4315 16.0625 4.4375 C 15.9965 4.4445 15.90875 4.44775 15.84375 4.46875 C 15.82675 4.47375 15.8285 4.46275 15.8125 4.46875 C 15.8095 4.46975 15.78525 4.498 15.78125 4.5 C 5.39025 7.858 1.3125 16.472 0.3125 19 L 27.34375 19 C 28.15975 18.004 30.207 18 31 18 C 31.793 18 33.84025 18.004 34.65625 19 L 44.28125 19 L 49.21875 19 L 16.5625 4.5 C 16.4445 4.447 16.3145 4.41125 16.1875 4.40625 z M 21.9375 9.09375 L 26.9375 11.3125 C 26.6445 12.2725 25.004 13 23 13 C 20.791 13 19 12.104 19 11 C 19 10.081 20.2475 9.32675 21.9375 9.09375 z M 0 21 L 0 42.53125 C 0 44.00925 1.15 45.15625 2.625 45.15625 C 2.667 45.15625 2.73425 45.15825 2.78125 45.15625 C 2.80625 45.15625 2.81775 45.15825 2.84375 45.15625 L 47.3125 41.8125 C 48.7965 41.6985 50 40.4245 50 38.9375 L 50 32.125 C 50 31.698 49.7165 31.29425 49.3125 31.15625 C 49.2895 31.14625 47 30.34825 47 28.53125 C 47 26.71425 49.2935 25.882 49.3125 25.875 C 49.7195 25.738 50 25.3665 50 24.9375 L 50 21 L 49 21 L 34.84375 21 C 34.39875 22.722 32.861 24 31 24 C 29.139 24 27.60225 22.722 27.15625 21 L 0 21 z M 11 24 C 13.761 24 16 25.792 16 28 C 16 30.208 13.761 32 11 32 C 8.239 32 6 30.208 6 28 C 6 25.792 8.239 24 11 24 z M 37.5 31 C 39.434 31 41 32.342 41 34 C 41 35.654 39.434 37 37.5 37 C 35.57 37 34 35.654 34 34 C 34 32.342 35.57 31 37.5 31 z M 24 33 C 27.315 33 30 35.34075 30 38.21875 C 30 39.32875 29.58825 40.3435 28.90625 41.1875 L 19.75 41.875 C 18.673 40.931 18 39.65175 18 38.21875 C 18 35.34075 20.687 33 24 33 z"></path></svg>