<svg xmlns="http://www.w3.org/2000/svg" version="1" width="26" height="26" viewBox="0 0 26 26">    <path style="text-indent:0;text-align:start;line-height:normal;text-transform:none;block-progression:tb;-inkscape-font-specification:Bitstream Vera Sans" d="M 16 0 C 11.663104 0 8.0090169 2.761892 6.625 6.59375 C 2.7740004 7.9855292 0 11.676985 0 16 C 0 21.511003 4.4889972 26 10 26 C 14.323015 26 18.014471 23.226 19.40625 19.375 C 23.238108 17.990983 26 14.336896 26 10 C 26 4.4666667 21.533333 0 16 0 z M 16 2 C 20.466667 2 24 5.5333333 24 10 C 24 13.02539 22.362035 15.610326 19.9375 16.96875 C 19.967761 16.652862 20 16.323639 20 16 C 20 12.946933 18.603458 10.211258 16.4375 8.375 C 16.780892 8.0158944 17 7.5360971 17 7 C 17 5.8954305 16.104569 5 15 5 C 14.078375 5 13.294277 5.6206361 13.0625 6.46875 C 12.096183 6.1565793 11.068401 6 10 6 C 9.6763609 6 9.3471376 6.0322394 9.03125 6.0625 C 10.389674 3.6379649 12.97461 2 16 2 z M 20 6 C 19.447715 6 19 6.4477153 19 7 C 19 7.5522847 19.447715 8 20 8 C 20.552285 8 21 7.5522847 21 7 C 21 6.4477153 20.552285 6 20 6 z M 10 8 C 14.430123 8 18 11.569877 18 16 C 18 16.667776 17.934193 17.318096 17.78125 17.9375 C 17.778141 17.95009 17.753168 17.956184 17.75 17.96875 A 1.0001 1.0001 0 0 0 17.5 18.75 A 1.0001 1.0001 0 0 0 17.5 18.84375 C 16.35812 21.864421 13.428794 24 10 24 C 5.5698774 24 2 20.430123 2 16 C 2 12.561092 4.1527094 9.6347547 7.1875 8.5 C 7.1964259 8.4966625 7.2098089 8.5033066 7.21875 8.5 A 1.0001 1.0001 0 0 0 8.03125 8.25 C 8.6620442 8.0909729 9.3186515 8 10 8 z M 20.5 9 C 19.671573 9 19 9.6715729 19 10.5 C 19 11.328427 19.671573 12 20.5 12 C 21.328427 12 22 11.328427 22 10.5 C 22 9.6715729 21.328427 9 20.5 9 z M 7 12 C 5.8954305 12 5 12.895431 5 14 C 5 15.104569 5.8954305 16 7 16 C 8.1045695 16 9 15.104569 9 14 C 9 12.895431 8.1045695 12 7 12 z M 12 12 C 11.447715 12 11 12.447715 11 13 C 11 13.552285 11.447715 14 12 14 C 12.552285 14 13 13.552285 13 13 C 13 12.447715 12.552285 12 12 12 z M 13.5 15 C 12.671573 15 12 15.671573 12 16.5 C 12 17.328427 12.671573 18 13.5 18 C 14.328427 18 15 17.328427 15 16.5 C 15 15.671573 14.328427 15 13.5 15 z M 7 17 C 6.4477153 17 6 17.447715 6 18 C 6 18.552285 6.4477153 19 7 19 C 7.5522847 19 8 18.552285 8 18 C 8 17.447715 7.5522847 17 7 17 z M 11 19 C 10.447715 19 10 19.447715 10 20 C 10 20.552285 10.447715 21 11 21 C 11.552285 21 12 20.552285 12 20 C 12 19.447715 11.552285 19 11 19 z"></path></svg>