<svg xmlns="http://www.w3.org/2000/svg" width="50" height="50" viewBox="0 0 50 50">    <path d="M 41.53125 1.09375 C 38.51625 1.09375 36.68125 2.308 35.28125 4.25 C 32.11925 3.917 29.44325 5.9335 28.28125 8.0625 C 27.99525 8.5875 27.6845 9.25 27.3125 10 C 25.1035 14.45 21.386 21.8985 14.75 24.9375 C 10.365 26.9435 7.57325 29.5165 6.40625 32.5625 C 3.63225 33.6355 1.459 34.90325 0.5 37.03125 C -0.31 38.82925 -0.14475 41.0075 1.03125 43.6875 C 1.75325 45.3315 3.4935 47.28125 7.5625 47.28125 C 8.7955 47.28125 10.0965 47.09325 11.4375 46.78125 C 13.2255 48.21225 15.2145 48.9375 17.4375 48.9375 C 22.6045 48.9375 29.08225 45.0125 37.53125 36.9375 C 50.03125 24.9875 50.33 16.50725 49.875 13.40625 C 49.573 11.34525 48.73775 9.7245 47.59375 8.9375 C 48.31375 7.3095 48.1625 5.93675 47.8125 4.96875 C 46.9755 2.65875 44.58025 1.3675 43.15625 1.1875 C 42.59025 1.1165 42.03925 1.09375 41.53125 1.09375 z M 34.09375 6.25 C 33.48375 7.458 32.92675 8.804 32.34375 10.25 C 30.76375 14.169 28.792 19.0675 24.5 23.8125 C 20.839 27.8575 15.39175 29.587 10.59375 31.125 C 10.10275 31.282 9.63025 31.43875 9.15625 31.59375 C 10.42925 29.75375 12.58375 28.126 15.59375 26.75 C 22.87475 23.416 26.91975 15.28625 29.09375 10.90625 C 29.45275 10.18225 29.7875 9.53725 30.0625 9.03125 C 30.7995 7.68025 32.32575 6.463 34.09375 6.25 z M 46.5625 10.625 C 47.0895 11.061 47.67725 12.1275 47.90625 13.6875 C 48.31625 16.4795 47.98325 24.194 36.15625 35.5 C 23.49125 47.605 17.52675 48.0225 13.96875 46.0625 C 16.20075 45.3095 18.28275 44.31175 19.84375 43.34375 L 20.71875 42.8125 L 20.1875 41.96875 C 18.3425 39.09875 18.40125 39.026 22.40625 35.625 C 24.10625 34.181 26.443 32.19925 29.375 29.28125 C 32.181 26.48625 34.11975 22.95675 35.84375 19.84375 C 38.61275 14.84975 40.771 11.0405 44.875 11.8125 L 45.4375 11.9375 L 45.8125 11.53125 C 46.0945 11.22825 46.3405 10.916 46.5625 10.625 z"></path></svg>