<svg xmlns="http://www.w3.org/2000/svg" viewBox="0 0 24 24" enable-background="new 0 0 24 24">    <path style="text-indent:0;text-align:start;line-height:normal;text-transform:none;block-progression:tb;-inkscape-font-specification:Bitstream Vera Sans" d="M 11.59375 2 C 10.729231 2.0864519 10.066893 2.6092906 9.53125 3.21875 C 8.9956071 3.8282094 8.5496547 4.5615192 8.15625 5.375 C 7.3694407 7.0019616 6.7997287 8.8948353 6.4375 10.34375 A 1.0001 1.0001 0 0 0 6.4375 10.375 C 6.0011407 12.164073 5.0800884 12.945351 4.0625 13.9375 C 3.0449116 14.929649 1.90625 16.240935 1.90625 18.40625 C 1.90625 19.32183 2.4089437 20.124851 3.0625 20.625 C 3.7160563 21.125149 4.5190926 21.416242 5.375 21.625 C 7.0868148 22.042516 9.0511102 22.057998 10.65625 21.78125 C 14.503589 21.140027 18.45236 19.104115 20.5625 16.375 C 21.61757 15.010443 22.21646 13.365886 21.84375 11.71875 C 21.495037 10.177662 20.267205 8.7977074 18.3125 7.65625 C 17.754163 5.4177603 16.621916 3.9008672 15.34375 3.0625 C 13.970527 2.1617839 12.573099 1.9322787 11.625 2 A 1.0001 1.0001 0 0 0 11.59375 2 z M 11.78125 4 C 11.78655 3.9996233 11.80706 4.0003308 11.8125 4 C 12.273152 3.971982 13.309329 4.1017509 14.25 4.71875 C 15.201777 5.3430339 16.126056 6.4290065 16.53125 8.5 A 1.0001 1.0001 0 0 0 17.03125 9.1875 C 18.925605 10.203983 19.69771 11.234636 19.90625 12.15625 C 20.11479 13.077864 19.78868 14.064557 18.96875 15.125 C 17.32889 17.245885 13.696411 19.253723 10.34375 19.8125 C 9.0488898 20.035752 7.2069352 20.019984 5.84375 19.6875 C 5.1621574 19.521258 4.5995687 19.274851 4.28125 19.03125 C 3.9629313 18.787649 3.90625 18.64067 3.90625 18.40625 C 3.90625 16.871565 4.4863384 16.332851 5.46875 15.375 C 6.4511616 14.417149 7.8113593 13.154677 8.375 10.84375 C 8.7127713 9.4926647 9.2805593 7.6730384 9.96875 6.25 C 10.312845 5.5384808 10.682518 4.9280406 11.03125 4.53125 C 11.370443 4.1453125 11.64177 4.0196334 11.78125 4 z M 12.84375 6.75 C 12.276563 6.73125 11.70625 7.0875 11.40625 7.6875 C 11.00625 8.5875 11.3 9.6 12 10 C 12.7 10.4 13.6 9.9875 14 9.1875 C 14.4 8.2875 14.10625 7.30625 13.40625 6.90625 C 13.23125 6.80625 13.032813 6.75625 12.84375 6.75 z M 16.53125 11.46875 A 0.50437539 0.50437539 0 0 0 16.40625 11.5 A 0.50005 0.50005 0 0 0 16.3125 11.53125 L 8.3125 14.53125 A 0.5048592 0.5048592 0 0 0 8.6875 15.46875 L 16.6875 12.46875 A 0.50437539 0.50437539 0 0 0 16.53125 11.46875 z M 17.625 13.46875 A 0.50437539 0.50437539 0 0 0 17.5 13.5 A 0.50005 0.50005 0 0 0 17.4375 13.53125 L 8.03125 17.03125 A 0.50005 0.50005 0 1 0 8.375 17.96875 L 17.78125 14.46875 A 0.50437539 0.50437539 0 0 0 17.625 13.46875 z" color="#000" overflow="visible" enable-background="accumulate" font-family="Bitstream Vera Sans"></path></svg>