<svg xmlns="http://www.w3.org/2000/svg" viewBox="0 0 26 26" enable-background="new 0 0 26 26">    <path d="M 13 0 C 8.2179725 0 5.2831198 3.6035982 5.03125 7.46875 C 5.0195743 7.6479234 5 7.8200009 5 8 C 4.9996522 8.0354024 5 8.0563435 5 8.09375 C 5 11.49375 6.6875 23.59375 6.6875 23.59375 C 6.7875 24.69375 7.7125 25.4875 8.8125 25.6875 C 9.4125 25.7875 10.30625 25.9 11.40625 26 C 9.70625 24.1 8.90625 21.2125 8.90625 18.3125 C 8.90625 13.7125 10.4125 10.7 11.8125 9 C 10.836911 8.2904811 9.2788385 7.4515297 7.0625 7.125 C 7.4053914 4.3523367 9.3814378 2 13 2 C 15.755556 2 17.113615 2.9197133 17.9375 4.09375 C 18.280161 4.5820425 18.491129 5.1525416 18.65625 5.71875 C 18.37703 8.8304901 14.140988 8.0630007 12.59375 10.09375 C 11.49375 11.59375 10.1875 14.2125 10.1875 18.3125 C 10.1875 21.5125 11.3125 25 13.8125 26 C 15.2125 26 16.60625 25.7875 17.40625 25.6875 C 18.50625 25.4875 19.30625 24.59375 19.40625 23.59375 C 19.40625 23.59375 21.09375 11.89375 21.09375 8.09375 C 21.09375 7.8351701 21.050114 7.6049287 20.96875 7.375 C 20.897349 6.0286878 20.579715 4.3870313 19.5625 2.9375 C 18.386385 1.2615367 16.244444 0 13 0 z M 12.75 2.9375 C 12.321094 2.9287109 12 3 12 3 C 12 3 13.1875 5.4875 12.6875 6.1875 C 12.1875 5.1875 11.3125 4.59375 11.3125 4.59375 C 9.4125 4.49375 8 6 8 6 C 8 6 10.9 6.5125 13 8.3125 C 14.4 6.8125 17.3125 6.99375 17.3125 5.59375 C 17.2125 5.29375 16.5 3.79375 15 4.09375 C 14.5 3.15625 13.464844 2.9521484 12.75 2.9375 z M 14 13 C 14.6 13 15 13.4 15 14 C 15 14.6 14.6 15 14 15 C 13.4 15 13 14.6 13 14 C 13 13.4 13.4 13 14 13 z M 15 16 C 15.3 16 15.5 16.2 15.5 16.5 C 15.5 16.8 15.3 17 15 17 C 14.7 17 14.5 16.8 14.5 16.5 C 14.5 16.2 14.7 16 15 16 z"></path></svg>