<svg xmlns="http://www.w3.org/2000/svg" width="50" height="50" viewBox="0 0 50 50">    <path d="M 46.8125 0 C 46.3995 0 45.7755 0.13275 45.1875 0.71875 L 44.5 1.40625 L 48.59375 5.5 L 49.28125 4.8125 C 50.10425 3.9895 50.4435 2.5695 48.9375 1.0625 C 48.2405 0.3655 47.5315 0 46.8125 0 z M 39.09375 0.03125 C 38.34475 0.031375 37.57725 0.29925 37.03125 0.84375 L 35.625 2.25 L 47.75 14.375 L 49.15625 12.96875 C 50.28025 11.84075 50.28125 10.002 49.15625 8.875 L 41.125 0.84375 C 40.579 0.29975 39.84275 0.031125 39.09375 0.03125 z M 31.3125 2.03125 C 30.54975 2.03125 29.77525 2.32 29.21875 2.875 L 28.84375 3.25 C 27.69875 4.399 27.69775 6.26025 28.84375 7.40625 L 42.59375 21.125 C 43.14875 21.679 43.9015 22 44.6875 22 C 45.4745 22 46.194 21.68 46.75 21.125 L 47.15625 20.75 C 48.30125 19.602 48.271 17.74075 47.125 16.59375 L 33.40625 2.875 C 32.85175 2.32 32.07525 2.03125 31.3125 2.03125 z M 31.9375 13.3125 L 13.3125 31.9375 L 18.0625 36.6875 L 36.6875 18.0625 L 31.9375 13.3125 z M 5.3125 28.03125 C 4.549625 28.031125 3.77675 28.28875 3.21875 28.84375 L 2.84375 29.25 C 1.69975 30.398 1.69875 32.26025 2.84375 33.40625 L 16.59375 47.15625 C 17.14875 47.71025 17.9005 48 18.6875 48 C 19.4735 48 20.22225 47.68 20.78125 47.125 L 21.15625 46.75 C 22.30025 45.602 22.30125 43.73975 21.15625 42.59375 L 7.40625 28.84375 C 6.85275 28.28925 6.075375 28.031375 5.3125 28.03125 z M 2.25 35.625 L 0.84375 37.03125 C -0.27925 38.15825 -0.28025 39.997 0.84375 41.125 L 8.875 49.15625 C 9.422 49.70025 10.13425 50 10.90625 50 C 11.67725 50 12.42275 49.70125 12.96875 49.15625 L 14.375 47.75 L 2.25 35.625 z M 1.40625 44.5 L 0.71875 45.21875 C 0.32075 45.61775 -0.8315 47.0415 1.0625 48.9375 C 1.7595 49.6335 2.4685 50 3.1875 50 C 3.6005 50 4.2245 49.86725 4.8125 49.28125 L 5.5 48.59375 L 1.40625 44.5 z"></path></svg>