<svg xmlns="http://www.w3.org/2000/svg" width="26" height="26" viewBox="0 0 26 26">    <path style="text-indent:0;text-align:start;line-height:normal;text-transform:none;block-progression:tb;-inkscape-font-specification:Bitstream Vera Sans" d="M 10 0 C 4.799 0 0 3.987 0 11 C 0 13.719386 1.5427273 17.600399 2.4375 19.625 C 2.6164627 20.146691 2.8348414 20.728033 3.125 21.34375 C 3.5187435 22.179274 4.0051678 23.046537 4.6875 23.75 C 5.3698322 24.453463 6.3000531 25.03125 7.40625 25.03125 C 8.2398782 25.03125 8.866556 24.615563 9.46875 24.09375 C 10.070944 23.571937 10.643737 22.874518 11.15625 22.09375 C 12.142354 20.591507 12.941034 18.753975 13 16.9375 C 18.774866 15.44076 24.787097 13.806217 26 11 C 25.59 2.785 19.192 0 10 0 z M 12 3 C 12.150125 2.977625 12.25575 2.9825 12.34375 3 C 12.86075 3.102 13.36475 3.2675 13.84375 3.4375 C 14.02375 3.5015 14.3875 3.59975 13.9375 4.09375 C 13.6455 4.41475 13.032 5.06475 12.625 5.46875 C 12.283 5.80875 11.918 5.6525 11.75 5.5625 C 11.3 5.3215 10.837 5.15325 10.375 5.03125 C 10.221 4.99025 10.058 4.7825 10.375 4.4375 C 10.579 4.2155 11.10775 3.65425 11.46875 3.28125 C 11.65625 3.08725 11.849875 3.022375 12 3 z M 8.875 3.0625 C 9.0968594 3.0326406 9.2865 3.09 9 3.375 C 8.745 3.63 8.197 4.16925 7.875 4.53125 C 7.639 4.79725 7.3155 4.857 7.1875 4.875 C 6.0515 5.031 5.32375 5.293 5.46875 5.125 C 6.36975 4.08 7.48025 3.456 8.65625 3.125 C 8.7175 3.10775 8.8010469 3.0724531 8.875 3.0625 z M 16.46875 4.8125 C 16.706594 4.7448594 16.92025 4.9055 17.03125 5 C 17.79525 5.649 18.25 6.346 18.25 7 C 18.25 7.717 15.50425 10.094 15.28125 9.5 C 15.01425 8.788 14.724 8.17525 14.375 7.65625 C 14.278 7.51225 14.046 7.26925 14.5 6.78125 C 15.058 6.18225 15.98875 5.19275 16.21875 4.96875 C 16.30275 4.887 16.389469 4.8350469 16.46875 4.8125 z M 7.5625 16.15625 C 8.4892778 16.211804 9.6192431 16.53007 10.96875 17.125 C 10.855716 18.332281 10.27233 19.823424 9.5 21 C 9.070138 21.654857 8.5696497 22.204281 8.15625 22.5625 C 7.7428503 22.920719 7.3961218 23.03125 7.40625 23.03125 C 6.9684469 23.03125 6.5687928 22.832537 6.125 22.375 C 5.6812072 21.917463 5.2732565 21.212476 4.9375 20.5 C 4.3472363 19.247459 4.0446523 18.133207 3.96875 17.84375 C 4.6031833 16.856502 5.6859993 16.043768 7.5625 16.15625 z" color="#000" overflow="visible" enable-background="accumulate" font-family="Bitstream Vera Sans"></path></svg>