<svg xmlns="http://www.w3.org/2000/svg" width="24" height="24" viewBox="0 0 24 24">    <path d="M 12 0 C 11.171573 0 10.5 0.67157288 10.5 1.5 C 10.5 2.079899 10.830907 2.5628667 11.3125 2.8125 C 10.429073 3.7488009 9 5.4679211 9 7 C 9 7.8682692 9.2859495 8.5208074 9.71875 9 L 8 9 L 8 11 L 9.96875 11 C 9.5951569 15.000984 7 15.144716 7 17 L 17 17 C 17 15.23748 14.404843 15.012952 14.03125 11 L 16 11 L 16 9 L 14.28125 9 C 14.71405 8.5208074 15 7.8682692 15 7 C 15 5.4679211 13.570927 3.7488009 12.6875 2.8125 C 13.169093 2.5628667 13.5 2.079899 13.5 1.5 C 13.5 0.67157288 12.828427 0 12 0 z M 5 18 L 5 20 L 6.40625 20 L 4 24 L 20 24 L 17.59375 20 L 19 20 L 19 18 L 5 18 z"></path></svg>