<svg xmlns="http://www.w3.org/2000/svg" version="1" viewBox="0 0 26 26" enable-background="new 0 0 26 26">    <path d="M 10.59375 0 C 8.99375 0 7 0.7 7 2 C 5.2 2 2 3 2 6 L 2 10.59375 C 2 13.79375 1 15 1 19 C 1 20 1.1875 20.6875 1.1875 20.6875 C 1.1875 20.6875 1.4267081 20.764737 1.90625 20.84375 C 1.3502358 21.383204 1 22.13375 1 23 C 1 24.7 2.3 26 4 26 C 5.7 26 7 24.7 7 23 C 7 22.22375 6.706415 21.555016 6.25 21.03125 C 6.7725206 21.049224 7.2247741 21.097033 7.6875 21.125 C 7.2742218 21.637719 7 22.265 7 23 C 7 24.7 8.3 26 10 26 C 11.7 26 13 24.7 13 23 C 13 22.497441 12.89147 22.034393 12.6875 21.625 C 12.886589 21.652951 13.089102 21.692508 13.28125 21.71875 C 13.103978 22.106484 13 22.533383 13 23 C 13 24.7 14.3 26 16 26 C 17.7 26 19 24.7 19 23 C 19 22.621884 18.931222 22.266136 18.8125 21.9375 C 18.948018 21.926074 19.056765 21.88841 19.1875 21.875 C 19.055257 22.21901 19 22.599964 19 23 C 19 24.7 20.3 26 22 26 C 23.7 26 25 24.7 25 23 C 25 22.04375 24.568726 21.230444 23.90625 20.6875 C 24.651563 20.327148 25 20.01875 25 19.90625 C 25 16.50625 23.1125 14 19.3125 14 C 17.8125 14 14.1875 12.59375 13.1875 10.09375 C 12.4875 8.19375 13 3.00625 13 1.40625 C 13 0.70625 12.19375 -2.9605947e-16 10.59375 0 z M 10 6 C 10.6 6 11 6.4 11 7 C 11 7.6 10.6 8 10 8 C 9.4 8 9 7.6 9 7 C 9 6.4 9.4 6 10 6 z M 10.5 10 C 11.1 10 11.5 10.4 11.5 11 C 11.5 11.6 11.1 12 10.5 12 C 9.9 12 9.5 11.6 9.5 11 C 9.5 10.4 9.9 10 10.5 10 z M 12.5 13 C 13.1 13 13.5 13.4 13.5 14 C 13.5 14.6 13.1 15 12.5 15 C 11.9 15 11.5 14.6 11.5 14 C 11.5 13.4 11.9 13 12.5 13 z M 16 15 C 16.6 15 17 15.4 17 16 C 17 16.6 16.6 17 16 17 C 15.4 17 15 16.6 15 16 C 15 15.4 15.4 15 16 15 z M 4 22 C 4.6 22 5 22.4 5 23 C 5 23.6 4.6 24 4 24 C 3.4 24 3 23.6 3 23 C 3 22.4 3.4 22 4 22 z M 10 22 C 10.6 22 11 22.4 11 23 C 11 23.6 10.6 24 10 24 C 9.4 24 9 23.6 9 23 C 9 22.4 9.4 22 10 22 z M 16 22 C 16.6 22 17 22.4 17 23 C 17 23.6 16.6 24 16 24 C 15.4 24 15 23.6 15 23 C 15 22.4 15.4 22 16 22 z M 22 22 C 22.6 22 23 22.4 23 23 C 23 23.6 22.6 24 22 24 C 21.4 24 21 23.6 21 23 C 21 22.4 21.5 22 22 22 z"></path></svg>