<svg xmlns="http://www.w3.org/2000/svg" width="50" height="50" viewBox="0 0 50 50">    <path d="M 48.3125 0 L 43.5 4.3125 L 41.6875 2.5 C 41.3875 2.2 41 2 40.5 2 C 39.7 2 39.09375 2.79375 39.09375 3.59375 C 39.09375 4.39375 39.79375 5.09375 40.59375 5.09375 C 40.69375 5.09375 40.9 5 41 5 L 41.8125 5.8125 L 40.84375 6.65625 L 38.6875 4.5 C 38.3875 4.2 38 4 37.5 4 C 36.7 4 36.09375 4.79375 36.09375 5.59375 C 36.09375 6.39375 36.79375 7.09375 37.59375 7.09375 C 37.69375 7.09375 37.9 7 38 7 L 39.15625 8.15625 L 33.625 13.09375 L 37 16.28125 L 43.75 8.75 L 45 10 C 45 10.1 44.90625 10.30625 44.90625 10.40625 C 44.90625 11.20625 45.60525 11.90625 46.40625 11.90625 C 47.20625 11.90625 47.90625 11.20625 47.90625 10.40625 C 48.00625 10.00625 47.8 9.6125 47.5 9.3125 L 45.25 7.0625 L 46.09375 6.09375 L 47 7 C 47 7.1 46.90625 7.30625 46.90625 7.40625 C 46.90625 8.20625 47.60525 8.90625 48.40625 8.90625 C 49.20625 8.90625 50 8.3 50 7.5 C 50 7 49.8 6.6125 49.5 6.3125 L 47.59375 4.40625 L 50 1.6875 L 48.3125 0 z M 37 16.28125 L 27.8125 26.59375 L 23.40625 22.1875 L 33.625 13.09375 L 33.46875 12.9375 C 31.21475 10.9835 28.861 10 26.5 10 C 24.642 10 22.88725 10.6065 21.28125 11.8125 C 20.71525 12.2525 19.87825 12.825 18.90625 13.5 C 18.38025 13.865 17.80975 14.2695 17.21875 14.6875 C 16.98475 14.8535 16.8425 15.12125 16.8125 15.40625 C 16.7815 15.69225 16.8685 15.9755 17.0625 16.1875 C 18.1935 17.4265 18.366 18.8205 15.5 21.6875 C 13.925 23.2605 12.7015 24 11.6875 24 C 11.0775 24 10.5165 23.71775 9.8125 23.09375 C 9.4025 22.68375 9.30525 22.44175 9.28125 22.34375 C 9.19725 22.00775 8.92475 21.76125 8.59375 21.65625 C 8.26375 21.55225 7.92125 21.61875 7.65625 21.84375 C 6.26725 23.03375 4.82475 24.269 3.59375 25.5 C 1.11275 27.981 -0.13375 30.746 -0.09375 33.75 C -0.05075 37.037 1.5765 40.4215 4.5625 43.5625 L 5.5 42.3125 L 13.6875 33.1875 L 16.8125 36.3125 L 7.6875 44.5 L 6.4375 45.4375 C 9.6535 48.4235 13.09025 50 16.40625 50 C 19.33625 50 22.05 48.7635 24.5 46.3125 C 25.869 44.9455 27.0825 43.59775 28.1875 42.21875 C 28.3755 41.98275 28.441 41.671 28.375 41.375 C 28.31 41.08 28.11375 40.85375 27.84375 40.71875 C 27.54375 40.56975 27.22825 40.322 26.90625 40 C 25.36025 38.454 25.7245 37.0155 28.3125 34.3125 C 30.8085 31.8165 32.27875 31.38 33.84375 32.75 C 34.05675 32.938 34.345 33.035 34.625 33 C 34.906 32.967 35.1485 32.7935 35.3125 32.5625 C 35.7275 31.9735 36.137 31.43125 36.5 30.90625 C 37.176 29.93125 37.75675 29.094 38.21875 28.5 C 40.94575 24.75 40.55775 20.351 37.09375 16.375 L 37 16.28125 z M 6.4375 45.4375 C 6.1135 45.1355 5.78875 44.83 5.46875 44.5 C 5.14275 44.192 4.8605 43.8755 4.5625 43.5625 L 0 49.6875 L 0.3125 50 L 6.4375 45.4375 z"></path></svg>