<svg xmlns="http://www.w3.org/2000/svg" width="50" height="50" viewBox="0 0 50 50">    <path style="text-indent:0;text-align:start;line-height:normal;text-transform:none;block-progression:tb;-inkscape-font-specification:Bitstream Vera Sans" d="M 39.625 0 C 39.32875 -0.0295 39.04425 0.069 38.84375 0.1875 C 38.60775 0.3285 37.87025 0.90225 38.28125 2.28125 C 38.33225 2.97825 37.2145 7.6625 35.1875 9.6875 L 34.3125 10.59375 L 39.4375 15.71875 L 40.34375 14.84375 C 42.32175 12.86575 46.932 11.68575 47.875 11.84375 C 49.099 12.05975 49.62075 11.58625 49.84375 11.15625 C 50.12575 10.61025 50.005 9.9395 49.5 9.4375 C 49.264 9.1995 45.1375 5.074 42.5625 2.5 L 40.53125 0.46875 C 40.22875 0.16825 39.92125 0.0295 39.625 0 z M 32.875 11.96875 L 10.5 34.34375 L 15.6875 39.5 L 19.15625 36.03125 C 18.84725 35.87925 18.54875 35.704 18.34375 35.5 C 17.56875 34.723 17.56875 33.4655 18.34375 32.6875 C 19.12275 31.9105 20.4105 31.9105 21.1875 32.6875 C 21.3905 32.8905 21.56675 33.15975 21.71875 33.46875 L 23.25 31.9375 C 22.941 31.7855 22.67375 31.579 22.46875 31.375 C 21.69375 30.598 21.69375 29.3415 22.46875 28.5625 C 23.24775 27.7865 24.50425 27.7865 25.28125 28.5625 C 25.48425 28.7655 25.6595 29.065 25.8125 29.375 L 27.375 27.8125 C 27.065 27.6605 26.7685 27.48625 26.5625 27.28125 C 25.7875 26.50525 25.7875 25.24675 26.5625 24.46875 C 27.3415 23.69175 28.598 23.69175 29.375 24.46875 C 29.578 24.67175 29.7855 24.94 29.9375 25.25 L 31.46875 23.71875 C 31.15775 23.56675 30.8935 23.3925 30.6875 23.1875 C 29.9115 22.4095 29.9125 21.12175 30.6875 20.34375 C 31.4665 19.56675 32.723 19.56675 33.5 20.34375 C 33.703 20.54775 33.87925 20.84625 34.03125 21.15625 L 38.03125 17.15625 L 32.875 11.96875 z M 34.03125 21.15625 L 31.46875 23.71875 C 31.71975 23.84175 32.00325 23.933 32.28125 24 C 32.28125 24 32.668918 24.229711 33.15625 24.4375 L 30.65625 26.9375 C 30.45029 26.455247 30.21875 26.0625 30.21875 26.0625 C 30.15075 25.7855 30.0625 25.502 29.9375 25.25 L 27.375 27.8125 C 27.627 27.9355 27.87825 28.057 28.15625 28.125 C 28.15625 28.125 28.577552 28.324139 29.0625 28.53125 L 26.53125 31.0625 C 26.324472 30.577484 26.125 30.15625 26.125 30.15625 C 26.057 29.87925 25.9375 29.628 25.8125 29.375 L 23.25 31.9375 C 23.503 32.0615 23.7845 32.14975 24.0625 32.21875 C 24.0625 32.21875 24.455314 32.449764 24.9375 32.65625 L 22.4375 35.15625 C 22.230046 34.669176 22 34.28125 22 34.28125 C 21.932 34.00425 21.84375 33.72175 21.71875 33.46875 L 19.15625 36.03125 C 19.40825 36.15525 19.6595 36.27575 19.9375 36.34375 C 19.9375 36.34375 20.356615 36.542143 20.84375 36.75 L 18.8125 38.78125 A 1.0001 1.0001 0 1 0 20.21875 40.1875 L 37.1875 23.21875 A 1.0001 1.0001 0 0 0 36.375 21.5 A 1.0001 1.0001 0 0 0 35.78125 21.8125 L 34.75 22.84375 C 34.542477 22.356547 34.34375 21.9375 34.34375 21.9375 C 34.27675 21.6615 34.15525 21.40825 34.03125 21.15625 z M 9.125 35.78125 L 0.34375 45.9375 C 0.10475 46.2115 -0.56625 47.21225 0.96875 48.78125 C 1.60875 49.43525 2.46175 50.001 3.21875 50 C 3.53475 50 3.82275 49.9125 4.09375 49.6875 L 14.21875 40.875 L 9.125 35.78125 z" color="#000" overflow="visible" enable-background="accumulate" font-family="Bitstream Vera Sans"></path></svg>