<svg xmlns="http://www.w3.org/2000/svg" width="26" height="26" viewBox="0 0 26 26">    <path d="M 8.9375 0 C 7.8655 0 7.72925 0.68425 8.78125 1.40625 C 9.97425 2.22825 14 6.04 14 9 L 14 11 L 13 11 C 13 9.3466484 12.281009 8.1605383 11.375 7.59375 C 10.468991 7.0269617 9.5198006 7 9 7 C 6.631 7 4 8.62575 4 12.84375 L 4 19 C 4 20.268 5.263 25.9375 10 25.9375 C 15.526 25.9375 18 23.789 18 19 L 18 9 C 18 5.646 22.42875 1.82425 23.21875 1.40625 C 24.19175 0.89125 24.121 0 23.25 0 L 8.9375 0 z M 9 9 C 9.3761994 9 9.9425093 9.0497883 10.3125 9.28125 C 10.682491 9.5127117 11 9.8463516 11 11 L 10 11 C 8.7412121 11 7.8578575 11.805165 7.46875 12.5 C 7.0796425 13.194835 7 13.875 7 13.875 L 7 13.9375 L 7 14 L 7 17.875 L 7 17.9375 L 7 17.96875 C 7 17.96875 7.032114 18.67188 7.40625 19.40625 C 7.7803861 20.14062 8.6951609 21 10 21 C 11.352167 21 12.295982 20.136247 12.65625 19.375 C 13.016518 18.613753 13 17.875 13 17.875 L 13 13 L 14 13 L 14 19 C 14 21.579 12.789 23.25 10 23.25 C 6.844 23.25 6 19.854 6 19 L 6 13.09375 C 6 8.93575 9 9 9 9 z M 21.90625 9.96875 A 1.0001 1.0001 0 0 0 21.78125 10 A 1.0001 1.0001 0 0 0 21 11 L 19 11 L 19 13 L 21 13 A 1.0001 1.0001 0 1 0 23 13 L 23 11 A 1.0001 1.0001 0 0 0 21.90625 9.96875 z M 10 13 L 11 13 L 11 17.875 C 11 17.875 10.98348 18.235997 10.84375 18.53125 C 10.704018 18.826503 10.647833 19 10 19 C 9.4578391 19 9.3516139 18.82213 9.1875 18.5 C 9.0372726 18.205127 9.0063082 17.927117 9 17.875 L 9 17.8125 L 9 14.125 C 9 14.125 9.047857 13.805165 9.21875 13.5 C 9.3896425 13.194835 9.4987879 13 10 13 z"></path></svg>