<svg xmlns="http://www.w3.org/2000/svg" width="50" height="50" viewBox="0 0 50 50">    <path d="M 42 4 C 39.953412 4 38.296347 5.5465985 38.0625 7.53125 C 35.469665 8.0322191 33.735102 9.9139602 32.5625 11.9375 C 30.202069 10.715056 27.637884 10 25 10 C 22.362116 10 19.797931 10.715056 17.4375 11.9375 C 16.794702 11.020038 15.95504 10.386554 15.03125 10.03125 C 14.101369 9.6736035 13.060175 9.5842641 11.9375 9.5 C 11.690039 7.53001 10.036122 6 8 6 C 5.794 6 4 7.794 4 10 C 4 12.206 5.794 14 8 14 C 9.6893548 14 11.13329 12.952271 11.71875 11.46875 C 12.794741 11.555594 13.691847 11.667537 14.3125 11.90625 C 14.8798 12.124442 15.302969 12.426354 15.6875 12.96875 C 10.047745 16.691759 6 23.456561 6 30.6875 C 6 40.1255 13.28 46 25 46 C 36.72 46 44 40.1255 44 30.6875 C 44 23.441003 39.940052 16.655239 34.28125 12.9375 C 35.238744 11.246068 36.478763 9.8913778 38.3125 9.5 C 38.907029 10.96454 40.324322 12 42 12 C 44.206 12 46 10.206 46 8 C 46 5.794 44.206 4 42 4 z M 25 20 C 28.866 20 32 23.134 32 27 C 32 30.866 28.866 34 25 34 C 21.134 34 18 30.866 18 27 C 18 23.134 21.134 20 25 20 z M 25 24 C 23.3 24 22 25.3 22 27 C 22 28.7 23.3 30 25 30 C 26.7 30 28 28.7 28 27 L 28 26.8125 C 27.8 26.9125 27.60625 27 27.40625 27 C 26.70625 27 26.1875 26.5125 26.1875 25.8125 C 26.1875 25.3125 26.50625 24.8875 26.90625 24.6875 C 26.40625 24.2875 25.7 24 25 24 z M 32.3125 37.1875 C 32.700953 37.153797 33.087 37.3535 33.28125 37.71875 C 33.53925 38.20775 33.363 38.83475 32.875 39.09375 C 32.728 39.17175 29.2 41 25 41 C 20.8 41 17.273 39.17175 17.125 39.09375 C 16.637 38.83575 16.46175 38.20775 16.71875 37.71875 C 16.97675 37.23175 17.5735 37.0565 18.0625 37.3125 C 18.0945 37.3305 21.312 39 25 39 C 28.709 39 31.9045 37.3295 31.9375 37.3125 C 32.06 37.2475 32.183016 37.198734 32.3125 37.1875 z"></path></svg>