<svg xmlns="http://www.w3.org/2000/svg" width="50" height="50" viewBox="0 0 50 50">    <path d="M 25 5 C 22.802706 5 21 6.8027056 21 9 C 21 10.414156 21.756986 11.663103 22.875 12.375 L 15.9375 28.40625 L 7.125 20.4375 C 7.6598562 19.757077 8 18.925926 8 18 C 8 15.802706 6.1972944 14 4 14 C 1.8027056 14 0 15.802706 0 18 C 0 20.09184 1.6348044 21.807109 3.6875 21.96875 L 6.875 35 L 43.125 35 L 46.28125 21.96875 C 48.348341 21.822086 50 20.102265 50 18 C 50 15.802706 48.197294 14 46 14 C 43.802706 14 42 15.802706 42 18 C 42 18.925926 42.340144 19.757077 42.875 20.4375 L 34.0625 28.375 L 27.125 12.375 C 28.243014 11.663103 29 10.414156 29 9 C 29 6.8027056 27.197294 5 25 5 z M 25 7 C 26.116414 7 27 7.883586 27 9 C 27 10.116414 26.116414 11 25 11 C 23.883586 11 23 10.116414 23 9 C 23 7.883586 23.883586 7 25 7 z M 4 16 C 5.116414 16 6 16.883586 6 18 C 6 19.116414 5.116414 20 4 20 C 2.883586 20 2 19.116414 2 18 C 2 16.883586 2.883586 16 4 16 z M 46 16 C 47.116414 16 48 16.883586 48 18 C 48 19.116414 47.116414 20 46 20 C 44.883586 20 44 19.116414 44 18 C 44 16.883586 44.883586 16 46 16 z M 7 37 L 7 44 C 7 44.553 7.448 45 8 45 L 42 45 C 42.553 45 43 44.553 43 44 L 43 37 L 7 37 z"></path></svg>