<svg xmlns="http://www.w3.org/2000/svg" version="1" viewBox="0 0 24 24" enable-background="new 0 0 24 24">    <path d="M 8.84375 1.96875 C 7.68125 1.95625 6.7 2.3 6 3 C 3.8 5.3 5.3 10.39375 9.5 14.59375 C 13.6 18.69375 18.8 20.2 21 18 C 22.286233 16.614826 22.38813 14.047295 20.9375 11.28125 C 21.341052 9.3340938 20.807746 6.8077459 19 5 C 17.5 3.6 15.7 3 14 3 C 13.581743 3 13.189722 3.0223463 12.8125 3.09375 C 11.3625 2.34375 10.00625 1.98125 8.84375 1.96875 z M 14 5 C 15.3 5 16.69375 5.5 17.59375 6.5 C 19.49375 8.4 19.3 11.2 18.5 12 C 17.9 12.6 17.39375 12.6875 17.09375 12.6875 C 16.19375 12.6875 14.9 11.89375 13.5 10.59375 C 10.3 7.39375 11.5 6.1875 12 5.6875 C 12.3 5.2875 13 5 14 5 z M 4.1875 7.40625 L 2.3125 9.3125 L 3.6875 10.6875 L 4.8125 9.59375 C 4.7125 9.19375 4.50625 8.80625 4.40625 8.40625 C 4.30625 8.10625 4.1875 7.80625 4.1875 7.40625 z M 8 14.5 L 5.1875 17.3125 L 6.59375 18.6875 L 9.40625 15.90625 C 9.20625 15.70625 8.9875 15.5125 8.6875 15.3125 C 8.4875 15.0125 8.3 14.8 8 14.5 z M 14.40625 19.1875 L 13.3125 20.3125 L 14.6875 21.6875 L 16.59375 19.8125 C 15.89375 19.7125 15.20625 19.4875 14.40625 19.1875 z"></path></svg>