<svg xmlns="http://www.w3.org/2000/svg" viewBox="0 0 24 24" enable-background="new 0 0 24 24">    <path d="M 11 2 L 11 4.5 C 10.2 3.8 9.2875 3.3 8.1875 3 L 7.8125 5 C 8.8125 5.3 9.5875 5.79375 10.1875 6.59375 C 10.5875 4.99375 11.6 3.6125 13 2.8125 L 13 2 L 11 2 z M 16 3 C 13.254545 3 11 5.2545455 11 8 L 11 9.03125 C 10.0665 7.7895048 8.6096154 7 7 7 C 4.2 7 2 9.2 2 12 C 2 17 10 17 12 22 C 14 17 22 17 22 12 C 22 9.2 19.8 7 17 7 C 15.390385 7 13.9335 7.7895048 13 9.03125 L 13 8 C 13 6.3454545 14.345455 5 16 5 L 16 3 z"></path></svg>