<svg xmlns="http://www.w3.org/2000/svg" viewBox="0 0 24 24" enable-background="new 0 0 24 24">    <path d="M 8.6875 2 C 7.8376565 2 7.1713775 2.5346108 6.90625 3.34375 L 6.875 3.34375 L 6.84375 3.46875 L 6.625 4 L 6 4 C 5.4777778 4 4.9395305 4.1854695 4.5625 4.5625 C 4.1854695 4.9395305 4 5.4777778 4 6 L 4 8 L 4 9 L 5 9 L 5.125 9 L 6.6875 20.3125 C 6.8875 21.3125 7.6875 22 8.6875 22 L 15.3125 22 C 16.3125 22 17.0875 21.3125 17.1875 20.3125 L 18.84375 9 L 19 9 L 20 9 L 20 8 L 20 6 C 20 5.4777778 19.814531 4.9395305 19.4375 4.5625 C 19.060469 4.1854695 18.522222 4 18 4 L 17.4375 4 L 17.25 3.40625 L 17.21875 3.3125 L 17.1875 3.25 C 16.838429 2.5518576 16.2125 2 15.3125 2 L 8.6875 2 z M 8.75 4 L 15.28125 4 C 15.273754 4.0215555 15.329175 4.0814775 15.375 4.125 C 15.3938 4.142855 15.39427 4.13228 15.40625 4.15625 L 15.75 5.28125 L 15.96875 6 L 16.6875 6 L 18 6 L 18 7 L 6 7 L 6 6 L 7.3125 6 L 8 6 L 8.21875 5.34375 L 8.71875 4.0625 L 8.75 4 z"></path></svg>