<svg xmlns="http://www.w3.org/2000/svg" viewBox="0 0 26 26" enable-background="new 0 0 26 26">    <path d="M 13 0 C 10.254545 0 8 2.2545455 8 5 C 8 5.1236207 8.0212251 5.2748444 8.03125 5.4375 C 6.2598884 6.2095703 5 7.9561204 5 10 C 5 11.832035 6.0162096 13.441699 7.5 14.3125 L 12.09375 25.3125 C 12.29375 25.7125 12.6 25.90625 13 25.90625 C 13.4 25.90625 13.80625 25.7125 13.90625 25.3125 L 18.5 14.3125 C 19.98379 13.441699 21 11.832035 21 10 C 21 7.9561204 19.740112 6.2095703 17.96875 5.4375 C 17.978775 5.2748444 18 5.1236207 18 5 C 18 2.2545455 15.745455 0 13 0 z M 13 2 C 14.654545 2 16 3.3454545 16 5 C 14.8559 5 13.842621 5.4366137 13.03125 6.0625 C 12.177264 5.4137733 11.141892 5 10 5 C 10 3.3454545 11.345455 2 13 2 z M 10 7 C 11.5 7 12.778122 8.1572714 13 9.5625 A 1.0121334 1.0121334 0 1 0 15 9.25 C 14.901736 8.6276645 14.684821 8.0263703 14.375 7.5 C 14.844965 7.1842976 15.417053 7 16 7 C 17.654545 7 19 8.3454545 19 10 C 19 10.779826 18.708014 11.49726 18.21875 12.03125 C 18.145312 12.009375 18.075 12 18 12 L 8 12 C 7.925 12 7.8546875 12.009375 7.78125 12.03125 C 7.2919856 11.49726 7 10.779826 7 10 C 7 8.3454545 8.3454545 7 10 7 z"></path></svg>