<svg xmlns="http://www.w3.org/2000/svg" viewBox="0 0 24 24" enable-background="new 0 0 24 24">    <path style="text-indent:0;text-align:start;line-height:normal;text-transform:none;block-progression:tb;-inkscape-font-specification:Bitstream Vera Sans" d="M 11.90625 1.96875 A 1.0001 1.0001 0 0 0 11.78125 2 A 1.0001 1.0001 0 0 0 11 3 L 11 8 A 1.0001 1.0001 0 1 0 13 8 L 13 3 A 1.0001 1.0001 0 0 0 11.90625 1.96875 z M 20.90625 2 L 14 2.8125 L 14 4.5 L 21.09375 4 C 21.59375 4 22.1 3.50625 22 2.90625 C 21.9 2.40625 21.50625 2 20.90625 2 z M 8.90625 2.375 A 1.0001 1.0001 0 0 0 8 3.40625 L 8 8 A 1.0001 1.0001 0 1 0 10 8 L 10 3.40625 A 1.0001 1.0001 0 0 0 9 2.375 A 1.0001 1.0001 0 0 0 8.90625 2.375 z M 5.875 2.78125 A 1.0001 1.0001 0 0 0 5 3.8125 L 5 3.875 L 2 4.1875 L 2.09375 5.40625 L 5 5.15625 L 5 6.34375 L 2 6.40625 L 2 7.59375 L 5 7.65625 L 5 9 A 1.0001 1.0001 0 0 0 5 9.09375 L 5 13 L 7 13 L 7 9.15625 A 1.0001 1.0001 0 0 0 7 9 L 7 7.6875 L 7 7 L 7 5 L 7 3.8125 A 1.0001 1.0001 0 0 0 7 3.6875 A 1.0001 1.0001 0 0 0 5.875 2.78125 z M 21 6 L 14 6.09375 L 14 7.8125 L 21 8 C 21.5 8 22 7.6 22 7 C 22 6.4 21.5 6 21 6 z M 2 14 L 2 16 C 2 19.3 4.7 22 8 22 L 16 22 C 19.3 22 22 19.3 22 16 L 22 14 L 2 14 z" color="#000" overflow="visible" enable-background="accumulate" font-family="Bitstream Vera Sans"></path></svg>