<svg xmlns="http://www.w3.org/2000/svg" width="50" height="50" viewBox="0 0 50 50">    <path d="M 25 0 C 24.666 0 24.333 0.01125 24 0.03125 L 24 3 C 24 3.552 23.552 4 23 4 C 22.448 4 22 3.552 22 3 L 22 0.28125 C 19.225 0.79925 17 2.048 17 4 L 17 10 L 33 10 L 33 7 L 33 4 C 33 2.048 30.774 0.79925 28 0.28125 L 28 3 C 28 3.552 27.553 4 27 4 C 26.447 4 26 3.552 26 3 L 26 0.03125 C 25.667 0.01125 25.334 0 25 0 z M 17 12 L 17 14 C 17 17.277 15.25175 19.7895 13.21875 22.6875 C 10.77575 26.1725 8 30.0995 8 36.1875 C 8 42.0755 12.95375 47.053 17.59375 49.75 C 17.74575 49.84 17.91675 49.90625 18.09375 49.90625 L 31.8125 49.90625 C 31.9855 49.90625 32.13125 49.86725 32.28125 49.78125 C 36.92525 47.14425 41.90625 42.1685 41.90625 36.1875 C 41.90625 30.0185 39.15175 26.0675 36.71875 22.5625 C 34.72775 19.6955 33 17.212 33 14 L 33 12 L 17 12 z M 24.6875 25.90625 C 25.4875 25.90625 26.2125 25.9875 26.8125 26.1875 C 27.5125 26.3875 28 26.69475 28.5 27.09375 C 29 27.49375 29.3875 27.99375 29.6875 28.59375 C 29.9875 29.19375 30.0875 29.8875 30.1875 30.6875 L 28.3125 30.6875 C 28.4135 29.7875 28.0125 29.09375 27.3125 28.59375 C 26.6125 28.09375 25.8125 27.90625 24.8125 27.90625 C 24.4125 27.90625 23.99375 27.9 23.59375 28 C 23.19375 28.1 22.8 28.20625 22.5 28.40625 C 22.2 28.60525 21.8875 28.8875 21.6875 29.1875 C 21.4875 29.4875 21.40625 29.90625 21.40625 30.40625 C 21.40625 30.90625 21.5125 31.2 21.8125 31.5 C 22.1125 31.8 22.40625 31.9875 22.90625 32.1875 C 23.40625 32.3875 23.90625 32.4875 24.40625 32.6875 C 25.00625 32.7875 25.59375 32.89475 26.09375 33.09375 C 26.69475 33.19475 27.3125 33.39475 27.8125 33.59375 C 28.4125 33.79475 28.9125 34.00625 29.3125 34.40625 C 29.8125 34.70625 30.10525 35.09375 30.40625 35.59375 C 30.70525 36.09475 30.8125 36.70625 30.8125 37.40625 C 30.8125 38.20625 30.6125 38.90625 30.3125 39.40625 C 29.9125 40.00625 29.50625 40.4125 28.90625 40.8125 C 28.30625 41.2125 27.7 41.39375 27 41.59375 C 26.3 41.79375 25.60625 41.8125 24.90625 41.8125 C 24.10625 41.8125 23.3 41.7 22.5 41.5 C 21.8 41.3 21.1 41 20.5 40.5 C 19.9 40.1 19.4875 39.50625 19.1875 38.90625 C 18.8875 38.20625 18.6875 37.5 18.6875 36.5 L 20.59375 36.5 C 20.59375 37.1 20.7 37.69375 21 38.09375 C 21.2 38.59375 21.6 38.8875 22 39.1875 C 22.4 39.4875 22.90625 39.7125 23.40625 39.8125 C 23.90625 39.9115 24.5 40 25 40 C 25.4 40 25.9125 40.00625 26.3125 39.90625 C 26.8125 39.80525 27.2 39.7 27.5 39.5 C 27.9 39.3 28.20625 38.9875 28.40625 38.6875 C 28.60525 38.3875 28.6875 37.90625 28.6875 37.40625 C 28.6875 36.90625 28.6125 36.49375 28.3125 36.09375 C 28.0125 35.79375 27.6875 35.5125 27.1875 35.3125 C 26.6875 35.1125 26.1875 34.9135 25.6875 34.8125 C 25.0875 34.7125 24.5 34.50525 24 34.40625 C 23.4 34.30525 22.8125 34.10525 22.3125 33.90625 C 21.7125 33.70625 21.2125 33.4875 20.8125 33.1875 C 20.3125 32.8875 19.9875 32.49475 19.6875 32.09375 C 19.3875 31.59375 19.3125 31.10525 19.3125 30.40625 C 19.3125 29.60525 19.5125 29.00625 19.8125 28.40625 C 20.1125 27.80525 20.5 27.4 21 27 C 21.5 26.6 22.0875 26.3875 22.6875 26.1875 C 23.2875 25.9875 23.9875 25.90625 24.6875 25.90625 z"></path></svg>