<svg xmlns="http://www.w3.org/2000/svg" width="24" height="24" viewBox="0 0 24 24">    <path d="M 11.6875 0.03125 C 10.707813 0.059375 9.875 0.6875 9.5 1.8125 C 9.0383557 3.0435515 9.4262816 5.7200798 9.90625 8.0625 C 8.3480913 6.165406 6.4152649 4.0694954 5.09375 3.59375 C 3.59375 2.99375 2.2875 3.60625 1.6875 4.90625 C 1.5875 5.20625 1.5875 6.19375 1.1875 7.09375 C 0.8875 7.99375 0.19375 8.79375 0.09375 9.09375 C -0.40625 10.39375 0.1875 11.5875 1.6875 12.1875 C 3.2402745 12.80861 6.8799439 12.34127 9.5 11.875 C 7.3573419 13.277418 4.4432428 15.361792 3.8125 16.8125 C 3.2125 18.2125 3.7 19.4 5 20 C 5.3 20.1 6.2875 20.19375 7.1875 20.59375 C 8.0875 20.99375 8.79375 21.7125 9.09375 21.8125 C 10.39375 22.4125 11.7125 21.9 12.3125 20.5 C 12.9429 19.050081 12.573276 15.551902 12.21875 13.0625 C 13.912244 14.872459 16.178854 17.087322 17.59375 17.5 C 18.99375 17.9 20.19375 17.3 20.59375 16 C 20.69375 15.7 20.60625 14.7125 20.90625 13.8125 C 21.20625 13.0125 21.7125 12.20625 21.8125 11.90625 C 22.2125 10.60625 21.59375 9.4 20.09375 9 C 18.933162 8.6131373 16.551385 8.9993519 14.40625 9.5 C 16.21875 7.9875 18.14375 6.15625 18.59375 4.90625 C 19.09375 3.40625 18.49375 2.1875 17.09375 1.6875 C 16.79375 1.5875 15.7125 1.4875 14.8125 1.1875 C 13.8125 0.8875 12.9875 0.2875 12.6875 0.1875 C 12.3375 0.0625 12.014062 0.021875 11.6875 0.03125 z M 13.09375 15.09375 C 16.09375 20.39375 21.4875 23.79375 22.1875 24.09375 C 23.0875 24.29375 24.20625 22.6875 23.90625 22.1875 C 18.50625 21.2875 13.09375 15.09375 13.09375 15.09375 z"></path></svg>