<svg xmlns="http://www.w3.org/2000/svg" width="50" height="50" viewBox="0 0 50 50">    <path d="M 25 8 C 21.134007 8 18 11.134007 18 15 C 18 18.865993 21.134007 22 25 22 C 28.865993 22 32 18.865993 32 15 C 32 11.134007 28.865993 8 25 8 z M 25 22 L 20.5 22 C 18.6 22 17 23.3 17 25 C 17 26.7 18.6 28 20.5 28 L 29.5 28 C 31.4 28 33 26.7 33 25 C 33 23.3 31.4 22 29.5 22 L 25 22 z M 17.9375 29.40625 C 17.5415 29.96325 17.1195 30.4865 16.6875 30.9375 C 15.2335 32.4525 13 33.781 13 36 L 12.5 36 C 10.6 36 9 37.3 9 39 C 9 40.7 10.6 42 12.5 42 L 37.5 42 C 39.4 42 41 40.7 41 39 C 41 37.3 39.4 36 37.5 36 L 37 36 C 37 33.547 34.59375 32.4685 32.84375 30.4375 C 32.67475 30.2425 32.3755 29.84825 32.0625 29.40625 C 31.2965 29.77425 30.425 30 29.5 30 L 20.5 30 C 19.574 30 18.7035 29.77525 17.9375 29.40625 z M 9.90625 43.40625 C 8.52925 45.11725 7.557 47.06425 8.125 48.53125 C 8.337 49.08225 8.9415 50 10.6875 50 L 39.3125 50 C 40.9955 50 41.6015 49.0985 41.8125 48.5625 C 42.3875 47.1075 41.4205 45.13625 40.0625 43.40625 C 39.2945 43.77625 38.428 44 37.5 44 L 12.5 44 C 11.558 44 10.68125 43.78725 9.90625 43.40625 z"></path></svg>