<svg xmlns="http://www.w3.org/2000/svg" width="26" height="26" viewBox="0 0 26 26">    <path d="M 12.96875 1.125 C 12.67775 1.125 12.40875 1.24575 12.21875 1.46875 C 11.09275 2.80075 9.63575 3.99425 8.21875 5.15625 C 5.21675 7.61525 2.09375 10.15775 2.09375 14.09375 C 2.09475 17.66375 4.6095 20.15625 8.1875 20.15625 C 9.6069345 20.15625 10.865362 19.481989 11.84375 18.71875 C 11.232372 20.79921 10.385506 23.102097 9.28125 24.75 C 11.75525 24.306 14.26375 24.325 16.71875 24.75 C 15.622333 23.101131 14.769293 20.80013 14.15625 18.71875 C 15.133479 19.481989 16.393066 20.15625 17.8125 20.15625 C 21.3885 20.15625 23.90625 17.66275 23.90625 14.09375 C 23.90625 10.15875 20.8135 7.61525 17.8125 5.15625 C 16.3955 3.99425 14.90625 2.80275 13.78125 1.46875 C 13.59225 1.24575 13.32225 1.125 13.03125 1.125 L 12.96875 1.125 z"></path></svg>