<svg xmlns="http://www.w3.org/2000/svg" width="24" height="24" viewBox="0 0 24 24">    <path d="M 13.4375 0 C 13.162615 0 12.893635 0.028641065 12.625 0.0625 C 12.442159 0.084959016 12.272743 0.1188436 12.09375 0.15625 C 11.607634 0.25783971 11.135101 0.41733 10.6875 0.625 C 10.383627 0.76598549 10.092888 0.90623006 9.8125 1.09375 C 9.7694496 1.1220928 9.7299453 1.1581005 9.6875 1.1875 C 9.5541305 1.2813274 9.4081866 1.3644847 9.28125 1.46875 C 9.1091141 1.6081862 8.9715275 1.7475101 8.8125 1.90625 L 8.8125 1.9375 C 8.8075 1.9435 8.78625 1.9325 8.78125 1.9375 C 8.7641875 1.9545625 8.7654315 1.9819716 8.75 2 C 8.6457628 2.1039125 8.125 2.59375 8.125 2.59375 L 8.78125 3.21875 L 10.0625 4.53125 L 10.71875 5.1875 L 11.3125 4.5625 L 11.375 4.5 C 11.771166 4.1038344 12.280178 3.8600552 12.8125 3.75 C 13.016518 3.7078202 13.229143 3.6875 13.4375 3.6875 C 13.79015 3.6875 14.137138 3.7544876 14.46875 3.875 C 14.490707 3.8829796 14.509483 3.897742 14.53125 3.90625 C 14.644703 3.9510854 14.768668 4.0022665 14.875 4.0625 C 14.899779 4.0762428 14.913116 4.1104866 14.9375 4.125 C 14.964969 4.1417249 15.004272 4.138581 15.03125 4.15625 C 15.104921 4.2037645 15.180734 4.2576615 15.25 4.3125 C 15.330521 4.3762497 15.426353 4.4263526 15.5 4.5 C 15.788132 4.7881318 15.981023 5.1312699 16.125 5.5 C 16.1695 5.6125 16.222125 5.72575 16.25 5.84375 C 16.262687 5.8936011 16.271212 5.9493611 16.28125 6 C 16.292967 6.0651952 16.30434 6.121404 16.3125 6.1875 C 16.328919 6.3132291 16.34375 6.433561 16.34375 6.5625 C 16.34375 6.9400072 16.26184 7.3161747 16.125 7.65625 C 16.121378 7.665252 16.128713 7.6785355 16.125 7.6875 C 15.981177 8.0327639 15.772377 8.3526231 15.5 8.625 L 14.65625 9.46875 L 14.625 9.46875 L 13.34375 10.78125 L 11.40625 12.71875 L 10.125 14 L 10.09375 14 L 8.1875 15.9375 L 8.15625 15.9375 L 6.90625 17.21875 L 6.875 17.21875 L 4.9375 19.1875 L 2.71875 21.40625 L 5.3125 23.96875 L 6.5625 22.71875 L 8.15625 21.125 L 9.46875 19.8125 L 11.40625 17.875 L 12.65625 16.59375 L 12.6875 16.59375 L 14.59375 14.65625 L 14.625 14.65625 L 15.90625 13.34375 L 15.9375 13.34375 L 17.84375 11.40625 L 17.875 11.40625 L 18.0625 11.1875 C 18.401063 10.849482 18.715895 10.486457 18.96875 10.09375 C 18.994959 10.053045 19.005992 10.009969 19.03125 9.96875 C 19.093845 9.866322 19.162207 9.7616687 19.21875 9.65625 C 19.319307 9.4683926 19.418594 9.2589687 19.5 9.0625 C 19.6178 8.7781982 19.704782 8.4867813 19.78125 8.1875 C 19.903604 7.7086311 19.988309 7.2239538 20 6.71875 C 20.0012 6.6669165 20 6.6145249 20 6.5625 C 20 6.3326598 19.991918 6.1005174 19.96875 5.875 C 19.948109 5.6737058 19.913792 5.4781082 19.875 5.28125 C 19.871079 5.2614713 19.879101 5.238478 19.875 5.21875 C 19.834915 5.0250358 19.77593 4.8446773 19.71875 4.65625 C 19.711972 4.6338711 19.694517 4.6160457 19.6875 4.59375 C 19.641098 4.4464993 19.587848 4.2997065 19.53125 4.15625 C 19.507322 4.095867 19.494485 4.0283857 19.46875 3.96875 C 19.27233 3.5135925 19.016989 3.0907019 18.71875 2.6875 C 18.566973 2.4823059 18.395699 2.282578 18.21875 2.09375 C 18.16903 2.0406919 18.114167 1.9891667 18.0625 1.9375 C 18.057337 1.9323333 18.067677 1.9113973 18.0625 1.90625 C 17.907199 1.7509491 17.761379 1.6058553 17.59375 1.46875 C 17.50231 1.3935885 17.407314 1.3197526 17.3125 1.25 C 17.23125 1.1906497 17.146049 1.1491268 17.0625 1.09375 C 16.865512 0.96192329 16.677659 0.85896994 16.46875 0.75 C 16.026752 0.51944725 15.54661 0.34241302 15.0625 0.21875 C 14.793404 0.15001106 14.528434 0.096719357 14.25 0.0625 C 13.98211 0.02957655 13.711652 0 13.4375 0 z M 14.46875 1.15625 C 14.975112 1.25068 15.449617 1.4261666 15.90625 1.65625 L 15.0625 2.96875 C 14.584973 2.7601892 14.066841 2.6374117 13.53125 2.625 L 14.46875 1.15625 z M 12.25 1.1875 L 12.53125 2.75 C 12.018705 2.868052 11.544226 3.0756143 11.125 3.375 L 10.875 1.71875 C 11.310013 1.4886369 11.767002 1.292963 12.25 1.1875 z M 17.71875 3.15625 C 18.029643 3.5444467 18.307008 3.956114 18.5 4.40625 L 17.09375 5.0625 C 16.907495 4.6031454 16.66515 4.1805377 16.3125 3.8125 L 17.71875 3.15625 z M 17.375 6.34375 L 18.9375 6.5625 C 18.9375 7.0682856 18.850082 7.556696 18.71875 8.03125 L 17.1875 7.8125 C 17.3178 7.4165173 17.40625 6.9916068 17.40625 6.5625 C 17.40625 6.4881696 17.379034 6.4173873 17.375 6.34375 z M 15.96875 9.65625 L 17.78125 9.9375 C 17.642269 10.115308 17.47462 10.27538 17.3125 10.4375 L 16.53125 11.21875 L 14.65625 10.96875 L 15.96875 9.65625 z M 12.71875 12.90625 L 14.59375 13.15625 L 13.28125 14.46875 L 11.40625 14.1875 L 12.71875 12.90625 z M 9.46875 16.125 L 11.375 16.40625 L 10.09375 17.6875 L 8.1875 17.40625 L 9.46875 16.125 z M 6.21875 19.375 L 8.15625 19.625 L 6.84375 20.9375 L 4.9375 20.65625 L 6.21875 19.375 z"></path></svg>