<svg xmlns="http://www.w3.org/2000/svg" width="24" height="24" viewBox="0 0 24 24">    <path style="text-indent:0;text-align:start;line-height:normal;text-transform:none;block-progression:tb;-inkscape-font-specification:Bitstream Vera Sans" d="M 12 0.0625 C 8.5 0.0625 7 0.87375 7 3.09375 C 4.259 3.09375 3 4.0385 3 6.5625 L 3 10.0625 C 3 13.0515 2 13.58975 2 17.21875 C 2 18.18175 2.21875 18.78125 2.21875 18.78125 C 2.21875 18.78125 2.7997027 18.989578 4.5625 19 C 4.3107028 20.710501 3.0545581 21.748606 1.625 22 L 0 22 L 0 24 L 21.21875 24 C 22.778149 24 24.0625 22.716773 24.0625 21.15625 L 22.0625 21.15625 C 22.0625 21.635727 21.697351 22 21.21875 22 L 20.5625 22 C 19.53399 21.822701 18.850942 21.244507 18.34375 20.59375 C 18.180305 20.38404 18.049753 20.194658 17.9375 20 C 22.302975 19.945405 23 18.15625 23 18.15625 C 23 14.99625 21.30075 13 17.96875 13 C 15.11375 13 13.27575 11.351 12.34375 9 C 11.65875 7.272 12 2.6735 12 0.0625 z M 9 5.4375 C 9.552 5.4375 10 5.8855 10 6.4375 C 10 6.9895 9.552 7.4375 9 7.4375 C 8.448 7.4375 8 6.9895 8 6.4375 C 8 5.8855 8.448 5.4375 9 5.4375 z M 10 9 C 10.552 9 11 9.448 11 10 C 11 10.552 10.552 11 10 11 C 9.448 11 9 10.552 9 10 C 9 9.448 9.448 9 10 9 z M 12 12 C 12.552 12 13 12.448 13 13 C 13 13.552 12.552 14 12 14 C 11.448 14 11 13.552 11 13 C 11 12.448 11.448 12 12 12 z M 16 14 C 16.552 14 17 14.448 17 15 C 17 15.552 16.552 16 16 16 C 15.448 16 15 15.552 15 15 C 15 14.448 15.448 14 16 14 z M 6.4375 19.03125 C 10.729356 19.148765 13.546705 19.645758 15.84375 19.875 C 15.968798 20.194965 16.255035 20.883204 16.90625 21.71875 C 16.979803 21.813122 17.073426 21.905101 17.15625 22 L 5.15625 22 C 5.840822 21.207385 6.309506 20.207436 6.4375 19.03125 z" color="#000" overflow="visible" enable-background="accumulate" font-family="Bitstream Vera Sans"></path></svg>