<svg xmlns="http://www.w3.org/2000/svg" width="24" height="24" viewBox="0 0 24 24">    <path d="M 5 0.03125 C 5 0.54025 5.1875 2.2425 5.1875 2.5625 C 5.1875 2.8825 5 4.39175 5 4.96875 C 6.4319489 5.0074126 8.827144 3.9720319 10.09375 3.375 C 10.245625 3.733875 10.586 4 11 4 L 13 4 C 13.414 4 13.754375 3.733875 13.90625 3.375 C 15.172856 3.9720319 17.568051 5.0074126 19 4.96875 C 19 4.39175 18.8125 2.8825 18.8125 2.5625 C 18.8125 2.2425 19 0.54025 19 0.03125 C 18.611241 0.0072853939 16.073186 0.26029597 13.90625 1.6875 C 13.769259 1.2985169 13.435647 1 13 1 L 11 1 C 10.564353 1 10.230741 1.2985169 10.09375 1.6875 C 7.9268144 0.2609952 5.3887592 0.0072853939 5 0.03125 z M 9.75 2.3125 C 9.883362 2.3059912 9.8830786 2.3157681 10 2.3125 L 10 2.90625 C 9.3178032 2.8678738 8.45308 2.8044769 7.6875 2.5625 C 8.3435 2.402 9.13275 2.342625 9.75 2.3125 z M 14 2.3125 C 14.658078 2.3308944 15.514766 2.3673226 16.3125 2.5625 C 15.547503 2.8038938 14.682379 2.8679751 14 2.90625 L 14 2.3125 z M 12 4.03125 C 8.941 4.03125 6 5.691 6 8.75 L 6 11.1875 L 4.71875 13.3125 C 4.71875 13.3125 6.837 15.5 12 15.5 C 17.163 15.5 19.34375 13.53125 19.34375 13.53125 L 18 11.1875 L 18 8.75 C 18 5.691 15.059 4.03125 12 4.03125 z M 3.75 14.71875 L 2.03125 16.78125 C 2.03125 16.78125 4.473 20 12 20 C 19.527 20 21.96875 16.78125 21.96875 16.78125 L 20.25 14.71875 C 20.25 14.71875 17.404 17.0625 12 17.0625 C 6.596 17.0625 3.75 14.71875 3.75 14.71875 z M 10.28125 21.0625 C 10.09725 21.3655 10 21.62 10 22 C 10 23.104 10.896 24 12 24 C 13.104 24 14 23.104 14 22 C 14 21.62 13.90275 21.3655 13.71875 21.0625 C 13.16675 21.0835 12.588 21.125 12 21.125 C 11.412 21.125 10.83325 21.0835 10.28125 21.0625 z"></path></svg>