<svg xmlns="http://www.w3.org/2000/svg" width="26" height="26" viewBox="0 0 26 26">    <path d="M 24.96875 2.4375 C 24.702 2.416875 24.43775 2.5 24.21875 2.6875 L 15.8125 9.90625 C 15.1335 9.67125 14.36625 9.77925 13.78125 10.28125 C 12.90725 11.03225 12.8115 12.34375 13.5625 13.21875 C 14.3125 14.09275 15.625 14.1885 16.5 13.4375 C 17.086 12.9365 17.3175 12.17675 17.1875 11.46875 L 25.5625 4.28125 C 26.0005 3.90625 26.0615 3.2485 25.6875 2.8125 C 25.5015 2.5945 25.2355 2.458125 24.96875 2.4375 z M 1 6 C 0.449 6 0 6.449 0 7 L 0 25 C 0 25.551 0.449 26 1 26 L 4 26 C 4.551 26 5 25.551 5 25 L 5 7 C 5 6.449 4.551 6 4 6 L 1 6 z M 7 7 C 6.449 7 6 7.449 6 8 L 6 24 C 6 24.551 6.449 25 7 25 L 10 25 C 10.551 25 11 24.551 11 24 L 11 8 C 11 7.449 10.551 7 10 7 L 7 7 z M 13 8 C 12.449 8 12 8.449 12 9 L 12 10.125 C 12.201 9.757 12.4765 9.414 12.8125 9.125 C 13.5275 8.512 14.44 8.21025 15.375 8.28125 L 15.71875 8 L 13 8 z M 22.3125 9.0625 L 20.5625 10.5625 C 21.0625 10.5905 21.4375 10.994 21.4375 11.5 C 21.4375 12.025 21.025 12.4375 20.5 12.4375 C 19.975 12.4375 19.5625 12.025 19.5625 11.5 C 19.5625 11.466 19.5585 11.44025 19.5625 11.40625 L 18.6875 12.15625 C 18.6325 12.82825 18.4 13.46 18 14 L 18 22 C 18 22.551 18.449 23 19 23 L 22 23 C 22.551 23 23 22.551 23 22 L 23 10 C 23 9.555 22.7155 9.1905 22.3125 9.0625 z M 2.5 10.5625 C 3.025 10.5625 3.4375 10.975 3.4375 11.5 C 3.4375 12.025 3.025 12.4375 2.5 12.4375 C 1.975 12.4375 1.5625 12.025 1.5625 11.5 C 1.5625 10.975 1.975 10.5625 2.5 10.5625 z M 8.5 10.5625 C 9.025 10.5625 9.4375 10.975 9.4375 11.5 C 9.4375 12.025 9.025 12.4375 8.5 12.4375 C 7.975 12.4375 7.5625 12.025 7.5625 11.5 C 7.5625 10.975 7.975 10.5625 8.5 10.5625 z M 12 13.59375 L 12 23 C 12 23.551 12.449 24 13 24 L 16 24 C 16.551 24 17 23.551 17 23 L 17 14.90625 C 16.441 15.24725 15.787 15.4375 15.125 15.4375 C 14.076 15.4375 13.08925 14.9825 12.40625 14.1875 C 12.24625 14.0005 12.115 13.80075 12 13.59375 z M 2.5 19.5625 C 3.025 19.5625 3.4375 19.975 3.4375 20.5 C 3.4375 21.025 3.025 21.4375 2.5 21.4375 C 1.975 21.4375 1.5625 21.025 1.5625 20.5 C 1.5625 19.975 1.975 19.5625 2.5 19.5625 z M 8.5 19.5625 C 9.025 19.5625 9.4375 19.975 9.4375 20.5 C 9.4375 21.025 9.025 21.4375 8.5 21.4375 C 7.975 21.4375 7.5625 21.025 7.5625 20.5 C 7.5625 19.975 7.975 19.5625 8.5 19.5625 z M 14.5 19.5625 C 15.025 19.5625 15.4375 19.975 15.4375 20.5 C 15.4375 21.025 15.025 21.4375 14.5 21.4375 C 13.975 21.4375 13.5625 21.025 13.5625 20.5 C 13.5625 19.975 13.975 19.5625 14.5 19.5625 z M 20.5 19.5625 C 21.025 19.5625 21.4375 19.975 21.4375 20.5 C 21.4375 21.025 21.025 21.4375 20.5 21.4375 C 19.975 21.4375 19.5625 21.025 19.5625 20.5 C 19.5625 19.975 19.975 19.5625 20.5 19.5625 z"></path></svg>