<svg xmlns="http://www.w3.org/2000/svg" width="50" height="50" viewBox="0 0 50 50">    <path d="M37.051,20.189c-3.169,0-5.807,1.506-8.32,3.135c2.025-3.147,4.459-6.322,4.459-10.396c0-4.52-3.67-8.188-8.189-8.188 c-4.521,0-8.188,3.669-8.188,8.188c0,4.039,2.442,7.22,4.472,10.38c-2.505-1.623-5.145-3.12-8.334-3.12 c-4.52,0-8.188,3.668-8.188,8.198c0,4.52,3.669,8.187,8.188,8.187c3.774,0,6.798-2.132,9.757-4.067L18.68,46.048 c4.211-0.756,8.466-0.721,12.641,0c0,0-2.214-7.441-4.021-13.52c2.94,1.93,5.954,4.047,9.751,4.047c4.521,0,8.188-3.669,8.188-8.188 C45.239,23.858,41.568,20.189,37.051,20.189z"></path></svg>