<svg xmlns="http://www.w3.org/2000/svg" width="24" height="24" viewBox="0 0 24 24">    <path d="M 2 0 C 0.8954305 0 0 0.8954305 0 2 C 0 3.1045695 0.8954305 4 2 4 C 3.1045695 4 4 3.1045695 4 2 C 4 1.8377664 3.9739585 1.682286 3.9375 1.53125 C 4.1001455 1.517681 4.2655885 1.5 4.40625 1.5 C 8.30625 1.5 4.1 8.9125 2.5 15.3125 C 3.1 15.5125 3.7125 15.80625 4.3125 16.40625 C 4.7125 14.40625 5.4875 12.3125 6.1875 10.3125 C 7.2875 7.2125 8.2 4.7125 8 2.8125 C 9.2 4.4125 10.50625 8.59375 10.90625 16.59375 C 10.947191 16.552809 10.959917 16.533418 11 16.5 C 11.114 16.443 11.195191 16.347672 11.28125 16.28125 C 11.306079 16.262816 11.355293 16.236243 11.375 16.21875 C 11.415625 16.198438 11.45 16.1875 11.5 16.1875 L 11.96875 15.9375 L 12.40625 16.09375 C 12.50625 16.19375 12.70625 16.30625 12.90625 16.40625 C 12.905345 16.384746 12.907172 16.365227 12.90625 16.34375 C 13.292865 16.641988 13.748456 17.154706 14.40625 17.8125 L 14.6875 18.09375 C 15.3875 16.69375 16.60625 15 18.40625 15 L 19 15 L 19.1875 15.6875 C 19.2875 15.8875 19.3125 16.09375 19.3125 16.59375 C 19.3125 16.79375 19.30625 17.0125 19.40625 17.3125 C 20.00625 16.8125 20.60625 16.0875 21.40625 15.6875 C 19.680914 9.8758422 14.531039 4.7696467 20.03125 5.59375 C 20.004608 5.7239452 20 5.8619288 20 6 C 20 7.1045695 20.895431 8 22 8 C 23.104569 8 24 7.1045695 24 6 C 24 4.8954305 23.104569 4 22 4 C 21.431528 4 20.92663 4.2442077 20.5625 4.625 C 19.526499 3.7629009 18.145401 3 16 3 C 13.884007 3 12.640051 4.5238537 11.90625 7.625 C 10.919741 2.942589 9.255693 -1.5457219e-15 6.90625 0 C 5.7429444 0 4.5985716 0.30451636 3.625 0.8125 C 3.2614468 0.31238434 2.6655983 0 2 0 z M 23.5625 15.84375 C 21.445068 15.784424 19.65625 18.625 19 18.90625 C 18.5 18.50625 18.4125 16.40625 18.3125 15.90625 C 16.5125 15.90625 15.3 18.5875 15 19.6875 C 14.2 19.2875 12.7 17.3 12 17 C 11.2 17.5 9.7 19.2875 9 19.6875 C 8.7 18.2875 8.1 16.5 6 16 C 5.9 16.5 5.3 18.2875 5 18.6875 C 2.8 15.1875 -2.9605947e-16 16 0 16 C 0 16 1 17.20625 2 20.90625 C 2.4 22.50625 6.5 23.90625 12 23.90625 C 17.5 23.90625 21.4 22.80625 22 20.90625 C 22.5 19.20625 23 16.90625 24 15.90625 C 23.85625 15.875 23.703662 15.847705 23.5625 15.84375 z"></path></svg>