<svg xmlns="http://www.w3.org/2000/svg" width="24" height="24" viewBox="0 0 24 24">    <path d="M 12 0 C 11.171573 0 10.5 0.67157288 10.5 1.5 C 10.5 2.0177669 10.757247 2.4804392 11.15625 2.75 L 11.125 2.84375 C 10.401186 3.472112 9.4058552 4.4175227 8.8125 5.4375 L 7.25 4.375 L 7.25 4.34375 C 7.4117365 4.1043485 7.5 3.8106602 7.5 3.5 C 7.5 2.6715729 6.8284271 2 6 2 C 5.1715729 2 4.5 2.6715729 4.5 3.5 C 4.5 4.3284271 5.1715729 5 6 5 C 6.1035534 5 6.2148536 4.9887313 6.3125 4.96875 L 7 8 L 9.0625 8 L 14.9375 8 L 17 8 L 17.6875 4.96875 C 17.785146 4.9887313 17.896447 5 18 5 C 18.828427 5 19.5 4.3284271 19.5 3.5 C 19.5 2.6715729 18.828427 2 18 2 C 17.171573 2 16.5 2.6715729 16.5 3.5 C 16.5 3.8106602 16.588263 4.1043485 16.75 4.34375 C 16.75444 4.3503218 16.745459 4.3685029 16.75 4.375 L 15.1875 5.4375 C 14.594145 4.4175227 13.598814 3.472112 12.875 2.84375 L 12.84375 2.75 C 13.242753 2.4804392 13.5 2.0177669 13.5 1.5 C 13.5 0.67157288 12.828427 0 12 0 z M 7 9 L 7 11 L 9.96875 11 C 9.5951569 15.000984 7 15.144716 7 17 L 17 17 C 17 15.23748 14.404843 15.012952 14.03125 11 L 17 11 L 17 9 L 7 9 z M 5 18 L 5 20 L 6.40625 20 L 4 24 L 20 24 L 17.59375 20 L 19 20 L 19 18 L 5 18 z"></path></svg>