<svg xmlns="http://www.w3.org/2000/svg" width="26" height="26" viewBox="0 0 26 26">    <path style="text-indent:0;text-align:start;line-height:normal;text-transform:none;block-progression:tb;-inkscape-font-specification:Bitstream Vera Sans" d="M 18.8125 -0.03125 C 17.344815 -0.03125 16.094999 0.46750066 15.25 1.3125 C 14.405001 2.1574993 13.96875 3.3172772 13.96875 4.5 C 13.96875 6.1019506 14.632345 7.1681852 15.125 7.96875 C 15.617655 8.7693148 15.96875 9.3205056 15.96875 10.59375 C 15.96875 12.253617 14.96875 14.722806 14.96875 17.40625 C 14.96875 18.630192 15.08524 20.131385 15.65625 21.46875 C 16.22726 22.806115 17.511629 24.03125 19.3125 24.03125 C 21.509532 24.03125 23.244907 22.551545 24.34375 20.5625 C 25.442593 18.573455 26.03125 16.009224 26.03125 13.3125 C 26.03125 10.609107 25.446726 7.4457971 24.3125 4.84375 C 23.745387 3.5427264 23.021886 2.3546314 22.125 1.46875 C 21.228114 0.58286863 20.101469 -0.03125 18.8125 -0.03125 z M 7.1875 1.96875 C 5.8985308 1.96875 4.7718861 2.5828686 3.875 3.46875 C 2.9781139 4.3546314 2.2546128 5.5427264 1.6875 6.84375 C 0.55327433 9.4457971 -0.03125 12.609107 -0.03125 15.3125 C -0.03125 18.009224 0.55740684 20.573455 1.65625 22.5625 C 2.7550932 24.551545 4.4904676 26.03125 6.6875 26.03125 C 8.4883714 26.03125 9.7727403 24.806115 10.34375 23.46875 C 10.91476 22.131385 11.03125 20.630192 11.03125 19.40625 C 11.03125 16.722806 10.03125 14.253617 10.03125 12.59375 C 10.03125 11.320506 10.382345 10.769315 10.875 9.96875 C 11.367655 9.1681852 12.03125 8.1019506 12.03125 6.5 C 12.03125 5.3172772 11.594999 4.1574993 10.75 3.3125 C 9.9050007 2.4675007 8.6551853 1.96875 7.1875 1.96875 z M 19.0625 2.0625 C 19.61936 2.1286793 20.140334 2.3970481 20.6875 2.9375 C 21.318739 3.5609936 21.942113 4.5197736 22.4375 5.65625 C 22.841995 6.5842098 23.126751 7.6415845 23.375 8.71875 C 23.152437 9.1313227 22.548778 10.13397 21.4375 11.25 C 20.501523 10.78705 19.52441 10.175722 18.71875 9.3125 C 18.260853 5.6971948 16.326364 2.6723673 19.0625 2.0625 z M 6.9375 4.0625 C 9.6736364 4.6723673 7.7391473 7.6971948 7.28125 11.3125 C 6.4755901 12.175722 5.4984766 12.78705 4.5625 13.25 C 3.4512218 12.13397 2.8475633 11.131323 2.625 10.71875 C 2.8732494 9.6415845 3.1580047 8.5842098 3.5625 7.65625 C 4.0578872 6.5197736 4.6812611 5.5609936 5.3125 4.9375 C 5.8596656 4.3970481 6.38064 4.1286793 6.9375 4.0625 z M 23.78125 10.75 C 23.848187 11.25216 23.876685 11.736484 23.90625 12.21875 C 23.612589 12.140531 23.263429 12.011654 22.875 11.875 C 23.224591 11.488754 23.525898 11.103679 23.78125 10.75 z M 18.78125 11.25 C 19.285908 11.655049 19.792495 11.991341 20.3125 12.28125 C 19.773237 12.675196 19.167375 12.998916 18.5 13.25 C 18.507129 13.014526 18.53125 12.75625 18.59375 12.5 C 18.693805 12.083103 18.752218 11.663072 18.78125 11.25 z M 2.21875 12.75 C 2.4741025 13.103679 2.7754091 13.488754 3.125 13.875 C 2.7365705 14.011654 2.3874112 14.140531 2.09375 14.21875 C 2.1233149 13.736484 2.1518126 13.25216 2.21875 12.75 z M 21.71875 12.96875 C 21.726857 12.972075 21.74191 12.96545 21.75 12.96875 C 22.695936 13.354616 23.421981 13.54478 23.9375 13.65625 C 23.928806 14.064711 23.913264 14.479044 23.875 14.875 C 22.364737 16.809035 19.759925 16.36551 18.84375 14.65625 C 19.967564 14.266939 20.916256 13.641193 21.71875 12.96875 z M 7.21875 13.25 C 7.2477823 13.663072 7.3061947 14.083103 7.40625 14.5 C 7.46875 14.75625 7.4928711 15.014526 7.5 15.25 C 6.8326252 14.998916 6.2267632 14.675196 5.6875 14.28125 C 6.2075054 13.991341 6.7140924 13.655049 7.21875 13.25 z M 4.25 14.96875 C 5.0560404 15.647112 6.0241836 16.26408 7.15625 16.65625 C 6.2400753 18.36551 3.6352634 18.809035 2.125 16.875 C 2.0867356 16.479044 2.071194 16.064711 2.0625 15.65625 C 2.578019 15.54478 3.3040636 15.354616 4.25 14.96875 z" color="#000" overflow="visible" enable-background="accumulate" font-family="Bitstream Vera Sans"></path></svg>