<svg xmlns="http://www.w3.org/2000/svg" width="26" height="26" viewBox="0 0 26 26">    <path d="M 11 11 C 9.92 11 9.285 12 8 14 L 14 14 C 12.715 12 12.08 11 11 11 z M 0.96875 14 C 0.798 14.002375 0.6525 14.0345 0.5 14.125 C 0.196 14.305 7.4014868e-17 14.646 0 15 C 0 20.365 4.82925 22.09775 6.90625 22.59375 C 6.95025 22.60475 7.19225 22.67075 7.40625 22.71875 C 7.8714399 23.092108 8.3821272 23.375216 8.9375 23.59375 C 7.7728764 24.16645 7 25.149679 7 26 L 15 26 C 15 25.204266 14.323256 24.302236 13.28125 23.71875 C 15.871508 22.968022 16.311291 20.825003 21 19.09375 C 25.481 17.43775 26 15 26 15 L 23.96875 15 C 23.09875 16.646 20.33425 17.125 19.15625 17.125 C 16.27825 17.125 15.284 15 14.125 15 L 8.15625 15 C 7.17425 15.262 6 16 6 16 C 5.315 16 3.10875 15.027 1.46875 14.125 C 1.31325 14.04 1.1395 13.997625 0.96875 14 z M 2.28125 16.78125 C 3.14325 17.19025 4.148 17.61975 5 17.84375 C 5.026 18.59875 5.1865 19.30375 5.4375 19.96875 C 4.1425 19.36675 2.83925 18.40125 2.28125 16.78125 z"></path></svg>