<svg xmlns="http://www.w3.org/2000/svg" viewBox="0 0 24 24" enable-background="new 0 0 24 24">    <path style="text-indent:0;text-align:start;line-height:normal;text-transform:none;block-progression:tb;-inkscape-font-specification:Bitstream Vera Sans" d="M 8.5 4 C 7.2706354 4 6.2718069 4.893343 6.0625 6.0625 C 5.5171889 6.1901958 5.0049061 6.5382892 4.6875 7.09375 L 1.40625 14 L 1.4375 14 C 1.1656309 14.615102 1 15.287339 1 16 C 1 18.749579 3.2504209 21 6 21 C 8.1549826 21 9.9888567 19.609096 10.6875 17.6875 C 11.08538 17.883908 11.529787 18 12 18 C 12.470213 18 12.91462 17.883908 13.3125 17.6875 C 14.011143 19.609096 15.845017 21 18 21 C 20.749579 21 23 18.749579 23 16 C 23 15.287339 22.834369 14.615102 22.5625 14 L 22.59375 14 L 19.3125 7.09375 C 18.995094 6.5382892 18.482811 6.1901958 17.9375 6.0625 C 17.728193 4.893343 16.729365 4 15.5 4 C 14.291877 4 13.295616 4.8607922 13.0625 6 L 10.9375 6 C 10.704384 4.8607922 9.7081229 4 8.5 4 z M 6 13 C 7.6686989 13 9 14.331301 9 16 C 9 17.668699 7.6686989 19 6 19 C 4.3313011 19 3 17.668699 3 16 C 3 14.331301 4.3313011 13 6 13 z M 18 13 C 19.668699 13 21 14.331301 21 16 C 21 17.668699 19.668699 19 18 19 C 16.331301 19 15 17.668699 15 16 C 15 14.331301 16.331301 13 18 13 z M 12 14 C 12.554545 14 13 14.445455 13 15 C 13 15.554545 12.554545 16 12 16 C 11.445455 16 11 15.554545 11 15 C 11 14.445455 11.445455 14 12 14 z" color="#000" overflow="visible" enable-background="accumulate" font-family="Bitstream Vera Sans"></path></svg>