<svg xmlns="http://www.w3.org/2000/svg" width="24" height="24" viewBox="0 0 24 24">    <path d="M 12 0 C 10.2 0 8.9875 0.4 8.6875 2 C 8.6875 2 8.0469374 6.4828738 8 12.25 L 7.1875 12.3125 C 6.3875 12.4125 6.2 12.1 6 11.5 C 6 11.5 5.4875 8.8875 5.1875 7.6875 C 4.9875 6.5875 4.7 5.9 4 6 C 3.2 6.1 3 6.8 3 8 C 3 9.6 3.3125 12.59375 3.3125 12.59375 C 3.5125 15.69375 5.00625 16.1 6.90625 16 L 8.0625 15.84375 C 8.1481592 17.948096 8.3167143 20.116017 8.65625 22.25 C 4.9033681 22.773219 3 24 3 24 L 21 24 C 21 24 19.044325 22.728492 15.1875 22.21875 C 16.808891 12.756031 15.09375 2 15.09375 2 C 14.69375 0.1 13.7 0 12 0 z M 19.71875 3 C 19.141797 3.1380859 18.9875 4.03125 18.8125 4.90625 C 18.6125 5.90625 18.09375 7.8125 18.09375 7.8125 C 17.89375 8.4125 17.70625 8.59375 16.90625 8.59375 C 16.90625 9.59375 17 10.7 17 12 L 17.09375 12 C 18.89375 12.2 20.5125 11.5875 20.8125 8.6875 C 20.9125 7.4875 21 6.0875 21 4.6875 C 21 3.4875 20.8 3.1 20 3 C 19.9 2.9875 19.801172 2.9802734 19.71875 3 z"></path></svg>