<svg xmlns="http://www.w3.org/2000/svg" width="26" height="26" viewBox="0 0 26 26">    <path d="M 25.65625 4.09375 C 25.463875 4.101 25.23575 4.25675 25.03125 4.53125 C 24.62225 5.08025 22.021 9.03125 18.875 9.03125 L 8.78125 9.03125 C 6.23425 9.03125 4.0625 10.951 4.0625 14 C 4.0625 18.024 7.0625 19 8.0625 19 L 12.875 19 C 18.569 19 17.90625 13.0625 17.90625 13.0625 L 16.125 13.0625 C 16.125 13.0625 16.54725 17 13.28125 17 L 8.0625 17 C 7.3605 17 6.0625 16.712 6.0625 14.5 C 6.0625 12.268 9.15625 12 9.15625 12 L 19.5625 12 C 22.5755 12 24.34725 15.3385 25.03125 16.3125 C 25.66325 17.2115 26 16.7665 26 16.3125 L 26 4.53125 C 26 4.22775 25.848625 4.0865 25.65625 4.09375 z M 0.8125 7.59375 A 0.89458947 0.89458947 0 0 0 0.09375 8.5 L 0.09375 12.5 A 0.90625 0.90625 0 0 0 1.90625 12.5 L 1.90625 12 L 2.8125 12 C 2.8125 10.131 4.40625 9 4.40625 9 L 1.90625 9 L 1.90625 8.5 A 0.89458947 0.89458947 0 0 0 0.90625 7.59375 A 0.89458947 0.89458947 0 0 0 0.8125 7.59375 z"></path></svg>