<svg xmlns="http://www.w3.org/2000/svg" width="24" height="24" viewBox="0 0 24 24">    <path d="M 20.59375 2.9375 C 20.464063 2.9390625 20.3125 2.95 20.1875 3 C 19.9875 3.1 19.9125 3.3875 19.8125 3.6875 C 19.7125 4.1875 19.4 4.5875 19 4.6875 C 15.281862 6.3082266 8.9269914 6.3230635 5.65625 7.53125 C 5.5842869 7.3335614 5.5010464 7.1685269 5.40625 7 C 5.0086175 6.2930978 4.4375 5.90625 4.0625 5.65625 C 3.6875 5.40625 3.5086175 5.2930978 3.34375 5 C 3.1788825 4.7069022 3 4.15 3 3 L 1 3 C 1 4.35 1.1961175 5.2930978 1.59375 6 C 1.9913825 6.7069022 2.5625 7.09375 2.9375 7.34375 C 3.3125 7.59375 3.4913825 7.7069022 3.65625 8 C 3.7259482 8.1239079 3.7836165 8.3194183 3.84375 8.5625 C 2.2075757 9.8624621 1.0382969 11.944538 1.03125 13.9375 C 0.89137674 13.935091 0.72888514 13.945946 0.59375 14 C 0.09375 14.2 -0.10625 14.8125 0.09375 15.3125 L 0.90625 17.09375 C 1.10625 17.59375 1.6875 17.79375 2.1875 17.59375 C 2.3272059 17.537868 2.4718181 17.451182 2.5625 17.34375 C 3.0141745 17.73496 3.51575 18.071667 4.09375 18.3125 C 3.99375 18.0125 4 17.8 4 17.5 C 4 14.5 6.5 12 9.5 12 C 11.7 12 13.6 13.29375 14.5 15.09375 C 16.7 13.19375 19.2125 11.00625 21.3125 9.90625 C 21.7125 9.70625 22.19375 9.7 22.59375 10 C 22.89375 10.2 23.20625 10.2875 23.40625 10.1875 C 23.90625 9.9875 24.10625 9.40625 23.90625 8.90625 L 21.5 3.5 C 21.35 3.125 20.982813 2.9328125 20.59375 2.9375 z M 9.5 13 C 7 13 5 15 5 17.5 C 5 20 7 22 9.5 22 C 12 22 14 20 14 17.5 C 14 15 12 13 9.5 13 z M 9.5 15 C 10.9 15 12 16.1 12 17.5 C 12 18.9 10.9 20 9.5 20 C 8.1 20 7 18.9 7 17.5 C 7 16.1 8.1 15 9.5 15 z M 9.5 16 C 8.6715729 16 8 16.671573 8 17.5 C 8 18.328427 8.6715729 19 9.5 19 C 10.328427 19 11 18.328427 11 17.5 C 11 16.671573 10.328427 16 9.5 16 z"></path></svg>