<svg xmlns="http://www.w3.org/2000/svg" width="24" height="24" viewBox="0 0 24 24">    <path d="M 23.1875 0 C 23.1875 0 20.69375 2.40625 17.59375 2.40625 L 14.09375 5.90625 L 15 6.6875 C 15.2 6.8875 15.2 7.20625 15 7.40625 C 14.9 7.50625 14.7875 7.5 14.6875 7.5 C 14.5875 7.5 14.50625 7.50625 14.40625 7.40625 L 13.59375 6.59375 L 12.40625 7.8125 L 13.1875 8.59375 C 13.3875 8.79375 13.3875 9.1125 13.1875 9.3125 C 13.0875 9.4125 13.00625 9.40625 12.90625 9.40625 C 12.80625 9.40625 12.69375 9.4125 12.59375 9.3125 L 11.8125 8.5 L 10.59375 9.6875 L 11.40625 10.5 C 11.60625 10.7 11.60625 10.9875 11.40625 11.1875 C 11.30625 11.2875 11.19375 11.3125 11.09375 11.3125 C 10.99375 11.3125 10.9125 11.2875 10.8125 11.1875 L 10 10.40625 L 7.5 12.90625 L 12.90625 18.3125 C 23.70625 8.2125 23.1875 0 23.1875 0 z M 22.3125 1.90625 C 21.9125 4.50625 19.5875 9.7125 12.6875 16.8125 L 11.5 15.59375 C 11.5 15.59375 13.60625 13.5875 15.40625 11.6875 C 18.00625 8.9875 21.1125 5.50625 22.3125 1.90625 z M 6.46875 13.625 L 5.34375 14.78125 L 6 15.40625 L 0 21.40625 L 1.59375 23 C 2.79375 24.2 6.90625 22.1875 7.90625 21.1875 C 8.7696521 20.324098 9.2624702 19.545197 9.5625 18.90625 L 10.75 20.0625 L 11.875 18.9375 L 6.46875 13.625 z"></path></svg>