<svg xmlns="http://www.w3.org/2000/svg" width="24" height="24" viewBox="0 0 24 24">    <path d="M 23.1875 0 L 22.09375 1.09375 C 21.59375 1.59375 18.9125 2.2125 17.8125 3.3125 C 17.1125 4.0125 16.79375 5.2875 16.59375 6.1875 L 15.09375 7.09375 L 16.90625 8.90625 L 17.8125 7.40625 C 18.7125 7.30625 19.9875 6.9875 20.6875 6.1875 C 21.7875 5.0875 22.30625 2.50625 22.90625 1.90625 C 23.40625 1.40625 24 0.90625 24 0.90625 L 23.1875 0 z M 10.0625 6.5625 L 9.34375 7.25 L 11 9 L 9.78125 10.21875 L 10.28125 10.71875 L 7.09375 13.90625 L 6.71875 13.53125 L 4.8125 15.4375 L 5.28125 15.90625 L 5.1875 16 C 4.8875 16.3 3.7 18.3875 3.5 18.6875 L 3 19.1875 L 0.71875 20.78125 C 0.540625 20.70625 0.3375 20.75625 0.1875 20.90625 C -0.0125 21.00625 -0.0125 21.4 0.1875 21.5 L 2.5 23.8125 C 2.6 24.0125 2.99375 24.0125 3.09375 23.8125 C 3.2629808 23.643269 3.2734098 23.410011 3.15625 23.21875 L 4.375 21.5625 C 4.4128486 21.535458 4.4646067 21.535393 4.5 21.5 L 5.40625 20.59375 C 5.6066561 20.393344 6.5787672 19.84369 7.3125 19.40625 C 7.582632 19.426095 7.776052 19.557302 7.90625 19.6875 L 10.5 22.3125 L 12.09375 20.6875 L 9.59375 18.1875 C 9.59375 18.1875 9.5622619 17.76356 9.59375 17.40625 L 10.9375 16.0625 C 11.09834 16.017564 11.434135 15.934135 11.59375 16.09375 L 16.09375 20.59375 L 17.8125 18.90625 L 14.5625 15.6875 L 15.21875 15.03125 C 15.627538 14.622462 15.73831 14.069697 15.65625 13.59375 C 15.57419 13.117803 15.346523 12.690273 15.03125 12.375 L 14.53125 11.875 C 14.941471 11.2035 15.386542 10.482687 15.5 10.3125 L 16.09375 9.6875 L 14.1875 7.8125 C 14.1875 7.8125 13.99375 8.10625 13.59375 8.40625 C 13.468344 8.5316561 13.022761 8.8056308 12.53125 9.09375 L 10.0625 6.5625 z M 14.03125 12.6875 L 14.375 13.03125 L 14.40625 13.0625 C 14.578355 13.246763 14.709293 13.513899 14.75 13.75 C 14.79294 13.999053 14.7537 14.183788 14.5625 14.375 L 14.46875 14.46875 L 13.9375 15 L 13.40625 14.5 C 13.238603 14.388235 13.188924 14.194428 13.21875 14 C 13.418079 14.007441 13.714526 14.095862 13.90625 14 C 14.10625 14.1 14.1875 13.8875 14.1875 13.6875 C 14.1875 13.4875 14.00625 13.40625 13.90625 13.40625 C 13.725368 13.424338 13.569584 13.400384 13.4375 13.375 L 13.8125 13 C 13.859649 12.952851 13.947017 12.809593 14.03125 12.6875 z"></path></svg>