<svg xmlns="http://www.w3.org/2000/svg" width="50" height="50" viewBox="0 0 50 50">    <path d="M 26.75 2 C 21.485 2.886 20.9045 7.73675 20.5625 8.71875 C 19.1505 9.55175 17.19425 11.24325 15.78125 12.65625 C 12.23525 16.20325 10.93175 22.0005 13.09375 27.6875 C 13.66675 29.1905 14.834 31.279 15.25 34 L 35.375 34 C 34.003 27.632 26.5625 22.735 26.5625 21.875 C 26.5625 21.081 26.97825 22.091 28.15625 22 C 29.32025 21.908 30.541 20.15625 31.625 20.15625 C 33.95 20.15625 33.5825 22.21875 35.5625 22.21875 C 36.9005 22.21875 37.49725 20.774 38.03125 20.125 C 38.70125 19.313 40.57125 19.653 39.53125 17.375 C 38.97925 16.165 36.83325 12.08225 32.78125 10.40625 C 30.93325 9.64225 32.63425 7.5 26.78125 7.5 C 26.27725 6.722 26.368 3.911 26.75 2 z M 12.5 36 C 10.6 36 9 37.3 9 39 C 9 40.7 10.6 42 12.5 42 L 37.5 42 C 39.4 42 41 40.7 41 39 C 41 37.3 39.4 36 37.5 36 L 12.5 36 z M 9.90625 43.40625 C 8.52925 45.11725 7.557 47.06425 8.125 48.53125 C 8.337 49.08225 8.9415 50 10.6875 50 L 39.3125 50 C 40.9955 50 41.6015 49.0985 41.8125 48.5625 C 42.3875 47.1075 41.4205 45.13625 40.0625 43.40625 C 39.2945 43.77625 38.428 44 37.5 44 L 12.5 44 C 11.558 44 10.68125 43.78725 9.90625 43.40625 z"></path></svg>