<svg xmlns="http://www.w3.org/2000/svg" width="24" height="24" viewBox="0 0 24 24">    <path d="M 22.40625 0.03125 C 22.255409 0.04904161 22.085392 0.08051639 21.9375 0.125 C 21.345931 0.30293444 20.725171 0.6498285 20.1875 1.1875 C 19.840081 1.5349184 19.574937 1.9273482 19.375 2.3125 C 19.375 2.3125 18.801 1.8055 18.125 2.0625 C 17.082 2.4585 16.2565 2.02375 15.8125 1.84375 C 14.4815 1.30275 13.025 1 11.5 1 C 10.86 1 10.237 1.05625 9.625 1.15625 L 9.75 1.75 L 11.5 2.28125 L 9.6875 3.34375 L 9.25 4.96875 L 7.78125 4.09375 L 5.75 4.5625 L 6.65625 2.96875 L 6.25 2.28125 C 2.536 4.18725 1.1842379e-15 8.038 0 12.5 C 0 13.016 0.059 13.53325 0.125 14.03125 L 0.59375 11.96875 L 2.03125 14.125 L 4.125 14.40625 L 3.09375 16.5 L 3.84375 19.09375 L 1.78125 18.21875 L 1.625 18.34375 C 3.629 21.71875 7.29 24 11.5 24 C 17.851 24 23 18.851 23 12.5 C 23 10.908 22.67975 9.40925 22.09375 8.03125 C 21.93175 7.64925 21.5015 7.059 21.9375 5.875 C 22.1925 5.182 21.6875 4.59375 21.6875 4.59375 C 22.067946 4.3944009 22.469218 4.1557825 22.8125 3.8125 C 23.350172 3.2748285 23.697066 2.654069 23.875 2.0625 C 24.052934 1.470931 24.064122 0.81412194 23.625 0.375 C 23.295658 0.045658545 22.858774 -0.022124829 22.40625 0.03125 z M 22.6875 1 C 22.799705 1.0096651 22.864394 1.0518945 22.90625 1.09375 C 22.98996 1.177461 23.054348 1.3927851 22.9375 1.78125 C 22.820656 2.169715 22.528728 2.6587723 22.09375 3.09375 C 21.71532 3.4721805 21.298527 3.7037867 20.9375 3.84375 L 20.125 3.0625 C 20.263616 2.6989263 20.523469 2.2890303 20.90625 1.90625 C 21.341227 1.4712723 21.830285 1.179344 22.21875 1.0625 C 22.412982 1.004078 22.575295 0.99033486 22.6875 1 z M 18.71875 10.71875 L 18.875 13.84375 L 21.1875 15.5625 L 18.46875 16.90625 L 17.5 19.9375 L 15.65625 17.65625 L 12.71875 17.8125 L 14.3125 15.0625 L 13.46875 12.125 L 16.3125 12.6875 L 18.71875 10.71875 z"></path></svg>