<svg xmlns="http://www.w3.org/2000/svg" viewBox="0 0 26 26" enable-background="new 0 0 26 26">    <path d="M 13 0 C 13 0 9 3 9 7 C 9 8.7256254 9.3856981 12.187787 9.75 15.28125 L 8 17.5 L 8 20 L 10.1875 19.125 C 10.297216 19.610911 10.697536 20 11.1875 20 L 14.6875 20 C 15.1875 20 15.5875 19.59375 15.6875 19.09375 L 18 20 L 18 17.5 L 16.1875 15.25 C 16.583543 12.162495 17 8.7197353 17 7 C 17 3 13 0 13 0 z M 13 5 C 14.1 5 15 5.9 15 7 C 15 8.1 14.1 9 13 9 C 11.9 9 11 8.1 11 7 C 11 5.9 11.9 5 13 5 z M 11.09375 21 C 10.89375 21.4 10.8125 21.7875 10.8125 22.1875 C 10.8125 23.5875 12.8125 26 12.8125 26 C 12.8125 26 14.8125 23.5875 14.8125 22.1875 C 15.0125 21.7875 14.8875 21.4 14.6875 21 L 13.8125 21 C 13.9125 21.2 13.90625 21.39375 13.90625 21.59375 C 13.90625 22.29375 12.90625 23.5 12.90625 23.5 C 12.90625 23.5 11.90625 22.29375 11.90625 21.59375 C 11.90625 21.39375 12 21.2 12 21 L 11.09375 21 z"></path></svg>