<svg xmlns="http://www.w3.org/2000/svg" width="50" height="50" viewBox="0 0 50 50">    <path d="M 26.5 0 C 25.5 1.1 24.8 2.50625 24.5 3.90625 C 23.7 3.00625 22.6125 2.2125 21.3125 1.8125 C 21.9125 3.3125 22.0875 4.49375 22.1875 5.59375 C 21.1875 4.59375 19.69375 3.7875 17.59375 3.6875 C 19.59375 5.1875 19.60625 7.29375 19.40625 8.59375 C 19.16125 8.64775 18.946 8.698 18.75 8.75 C 18.264 8.856 17.96875 8.9375 17.96875 8.9375 C 7.92475 11.6435 1 19.731 1 29 C 1 40.579 11.767 50 25 50 C 38.233 50 49 40.579 49 29 C 49 19.733 42.0065 11.57175 31.9375 8.96875 C 31.9355 8.96375 31.9395 8.9425 31.9375 8.9375 C 31.9375 8.9375 31.6575 8.853 31.1875 8.75 C 30.7835 7.819 30.0385 5.1705 32.3125 3.6875 C 30.8125 3.6875 29.5875 4.0875 28.6875 4.6875 C 28.3875 3.0875 27.7 1.4 26.5 0 z M 20 12 C 21.627 12 23.232 12.278 25 12.875 C 26.768 12.278 28.373 12 30 12 C 38.822 12 46 19.626 46 29 C 46 38.374 38.822 46 30 46 C 28.374 46 26.769 45.722 25 45.125 C 23.23 45.722 21.625 46 20 46 C 11.178 46 4 38.374 4 29 C 4 19.626 11.178 12 20 12 z M 20 14 C 12.3 14 6 20.7 6 29 C 6 37.3 12.3 44 20 44 C 21.8 44 23.4 43.6 25 43 C 26.6 43.6 28.2 44 30 44 C 37.7 44 44 37.3 44 29 C 44 20.7 37.7 14 30 14 C 28.2 14 26.6 14.4 25 15 C 23.4 14.4 21.8 14 20 14 z M 18 16 C 19.104 16 20 16.896 20 18 C 20 19.104 19.104 20 18 20 C 16.896 20 16 19.104 16 18 C 16 16.896 16.896 16 18 16 z M 32 16 C 33.104 16 34 16.896 34 18 C 34 19.104 33.104 20 32 20 C 30.896 20 30 19.104 30 18 C 30 16.896 30.896 16 32 16 z M 25 19 C 26.104 19 27 19.896 27 21 C 27 22.104 26.104 23 25 23 C 23.896 23 23 22.104 23 21 C 23 19.896 23.896 19 25 19 z M 13 21 C 14.104 21 15 21.896 15 23 C 15 24.104 14.104 25 13 25 C 11.896 25 11 24.104 11 23 C 11 21.896 11.896 21 13 21 z M 37 21 C 38.104 21 39 21.896 39 23 C 39 24.104 38.104 25 37 25 C 35.896 25 35 24.104 35 23 C 35 21.896 35.896 21 37 21 z M 19.3125 21.3125 C 20.4175 21.3125 21.3125 22.2085 21.3125 23.3125 C 21.3125 24.4175 20.4175 25.3125 19.3125 25.3125 C 18.2085 25.3125 17.3125 24.4175 17.3125 23.3125 C 17.3125 22.2085 18.2085 21.3125 19.3125 21.3125 z M 30.6875 21.3125 C 31.7915 21.3125 32.6875 22.2085 32.6875 23.3125 C 32.6875 24.4175 31.7915 25.3125 30.6875 25.3125 C 29.5835 25.3125 28.6875 24.4175 28.6875 23.3125 C 28.6875 22.2075 29.5835 21.3125 30.6875 21.3125 z M 10 27 C 11.104 27 12 27.896 12 29 C 12 30.104 11.104 31 10 31 C 8.896 31 8 30.104 8 29 C 8 27.896 8.896 27 10 27 z M 17 27 C 18.104 27 19 27.896 19 29 C 19 30.104 18.104 31 17 31 C 15.896 31 15 30.104 15 29 C 15 27.896 15.896 27 17 27 z M 25 27 C 26.104 27 27 27.896 27 29 C 27 30.104 26.104 31 25 31 C 23.896 31 23 30.104 23 29 C 23 27.896 23.896 27 25 27 z M 33 27 C 34.104 27 35 27.896 35 29 C 35 30.104 34.104 31 33 31 C 31.896 31 31 30.104 31 29 C 31 27.896 31.896 27 33 27 z M 40 27 C 41.104 27 42 27.896 42 29 C 42 30.104 41.104 31 40 31 C 38.896 31 38 30.104 38 29 C 38 27.896 38.896 27 40 27 z M 19.3125 32.6875 C 20.4175 32.6875 21.3125 33.5835 21.3125 34.6875 C 21.3125 35.7915 20.4175 36.6875 19.3125 36.6875 C 18.2085 36.6875 17.3125 35.7915 17.3125 34.6875 C 17.3125 33.5835 18.2085 32.6875 19.3125 32.6875 z M 30.6875 32.6875 C 31.7915 32.6875 32.6875 33.5835 32.6875 34.6875 C 32.6875 35.7915 31.7915 36.6875 30.6875 36.6875 C 29.5835 36.6875 28.6875 35.7925 28.6875 34.6875 C 28.6875 33.5835 29.5835 32.6875 30.6875 32.6875 z M 13 33 C 14.104 33 15 33.896 15 35 C 15 36.104 14.104 37 13 37 C 11.896 37 11 36.104 11 35 C 11 33.896 11.896 33 13 33 z M 37 33 C 38.104 33 39 33.896 39 35 C 39 36.104 38.104 37 37 37 C 35.896 37 35 36.104 35 35 C 35 33.896 35.896 33 37 33 z M 25 35 C 26.104 35 27 35.896 27 37 C 27 38.104 26.104 39 25 39 C 23.896 39 23 38.104 23 37 C 23 35.896 23.896 35 25 35 z M 18 38 C 19.104 38 20 38.896 20 40 C 20 41.104 19.104 42 18 42 C 16.896 42 16 41.104 16 40 C 16 38.896 16.896 38 18 38 z M 32 38 C 33.104 38 34 38.896 34 40 C 34 41.104 33.104 42 32 42 C 30.896 42 30 41.104 30 40 C 30 38.896 30.896 38 32 38 z"></path></svg>