<svg xmlns="http://www.w3.org/2000/svg" width="26" height="26" viewBox="0 0 26 26">    <path d="M 15.3125 0.1875 C 16.7305 3.6005 13.07425 4.47425 17.15625 8.78125 C 20.93625 12.77225 23.605 12.7235 25.75 10.0625 C 23.498 10.6445 21.01275 10.3445 19.96875 8.8125 C 22.08175 7.3495 22.486 2.70375 21 1.21875 C 20.979 3.42175 19.362 7.2215 17.375 7.0625 C 15.985 4.8775 18.8875 2.4915 15.3125 0.1875 z M 8.5625 4.90625 C 7.3844434 5.0009949 6.1653125 5.615625 4.90625 6.875 C 0.87725 10.905 -1.51225 21.644 1.34375 24.5 C 4.19775 27.354 14.209 25.8145 19 20.9375 C 22.993 16.8725 20.16825 13.4485 16.28125 9.5625 C 13.608938 6.8901875 11.154225 4.6978113 8.5625 4.90625 z M 10.125 6.65625 C 10.378625 6.65625 10.599 6.74475 10.6875 6.90625 C 10.8645 7.23225 10.50625 7.7375 9.90625 8.0625 C 9.30825 8.3885 8.70825 8.3865 8.53125 8.0625 C 8.35525 7.7375 8.68325 7.23425 9.28125 6.90625 C 9.58025 6.74475 9.871375 6.65625 10.125 6.65625 z M 13.90625 8.9375 C 14.1525 8.878 14.376 8.9245 14.5 9.0625 C 14.749 9.3335 14.53525 9.922 14.03125 10.375 C 13.52425 10.834 12.90225 10.9615 12.65625 10.6875 C 12.40725 10.4145 12.617 9.832 13.125 9.375 C 13.377 9.147 13.66 8.997 13.90625 8.9375 z M 6.125 10.40625 C 6.2265469 10.407203 6.30225 10.4425 6.375 10.5 C 6.665 10.728 6.57825 11.341 6.15625 11.875 C 5.73425 12.41 5.13475 12.6665 4.84375 12.4375 C 4.55375 12.2085 4.67175 11.5975 5.09375 11.0625 C 5.41175 10.66275 5.8203594 10.403391 6.125 10.40625 z M 10.21875 11.28125 C 10.319406 11.293969 10.4035 11.34075 10.46875 11.40625 C 10.72975 11.66725 10.5425 12.268 10.0625 12.75 C 9.5795 13.231 8.97975 13.388 8.71875 13.125 C 8.45675 12.865 8.643 12.26425 9.125 11.78125 C 9.48575 11.41975 9.9167813 11.243094 10.21875 11.28125 z M 14.1875 13.65625 C 14.288281 13.668672 14.372 13.716 14.4375 13.78125 C 14.6995 14.04325 14.5425 14.644 14.0625 15.125 C 13.5805 15.607 12.97975 15.79225 12.71875 15.53125 C 12.45675 15.26925 12.61175 14.6695 13.09375 14.1875 C 13.45375 13.8275 13.885156 13.618984 14.1875 13.65625 z M 5.4375 14.46875 C 5.53825 14.481219 5.62225 14.52825 5.6875 14.59375 C 5.9485 14.85575 5.76225 15.4555 5.28125 15.9375 C 4.80025 16.4175 4.1995 16.5745 3.9375 16.3125 C 3.6755 16.0525 3.86375 15.45075 4.34375 14.96875 C 4.7045 14.60875 5.13525 14.431344 5.4375 14.46875 z M 17.875 15.9375 C 17.975875 15.922187 18.0745 15.923 18.15625 15.96875 C 18.47825 16.14475 18.48525 16.783 18.15625 17.375 C 17.82425 17.971 17.29075 18.305 16.96875 18.125 C 16.64475 17.947 16.63775 17.31375 16.96875 16.71875 C 17.214 16.274 17.572375 15.983437 17.875 15.9375 z M 9.40625 16.84375 C 9.5070469 16.856203 9.622 16.90325 9.6875 16.96875 C 9.9475 17.23175 9.76225 17.8305 9.28125 18.3125 C 8.79825 18.7945 8.1975 18.97975 7.9375 18.71875 C 7.6745 18.45675 7.86275 17.855 8.34375 17.375 C 8.7045 17.01425 9.1038594 16.806391 9.40625 16.84375 z M 3.5625 19.125 C 3.6627656 19.109422 3.73125 19.111 3.8125 19.15625 C 4.1345 19.33525 4.1405 19.9665 3.8125 20.5625 C 3.4795 21.1575 2.947 21.4895 2.625 21.3125 C 2.301 21.1325 2.32425 20.49825 2.65625 19.90625 C 2.90375 19.45775 3.2617031 19.171734 3.5625 19.125 z M 13.28125 19.375 C 13.534875 19.363 13.74825 19.43575 13.84375 19.59375 C 14.03475 19.91075 13.71 20.4595 13.125 20.8125 C 12.543 21.1665 11.90975 21.19 11.71875 20.875 C 11.52775 20.559 11.8555 20.01025 12.4375 19.65625 C 12.7295 19.47925 13.027625 19.387 13.28125 19.375 z M 7.71875 21.75 C 7.972125 21.73725 8.1545 21.81125 8.25 21.96875 C 8.443 22.28775 8.1445 22.8325 7.5625 23.1875 C 6.9805 23.5405 6.34825 23.568 6.15625 23.25 C 5.96525 22.934 6.295 22.4165 6.875 22.0625 C 7.166 21.886 7.465375 21.76275 7.71875 21.75 z"></path></svg>