<svg xmlns="http://www.w3.org/2000/svg" width="50" height="50" viewBox="0 0 50 50">    <path d="M 42 3.03125 C 41.748859 3.012875 41.459 3.05225 41.15625 3.15625 C 40.28325 3.45625 39.4835 4.71475 40.4375 5.84375 C 41.0155 6.53075 42.552 9.19725 41 11.65625 C 41.219 11.87525 41.4835 12.16825 41.8125 12.53125 C 44.8285 9.36425 43.894 5.06225 43.5 4.15625 C 43.269 3.62975 42.753422 3.086375 42 3.03125 z M 25.15625 5.6875 C 22.01125 5.6875 19.1735 6.92675 16.8125 9.34375 C 16.6785 9.46675 16.24175 9.95075 16.21875 10.96875 C 16.15075 13.90475 19.627 18.9395 26.25 25.5625 C 32.804 32.1175 37.83125 35.59275 40.78125 35.59375 C 41.85725 35.59375 42.36175 35.15225 42.46875 35.03125 C 44.96575 32.44525 46.18575 29.4645 46.09375 26.1875 C 45.89375 18.9785 39.4175 12.8985 39.1875 12.6875 C 38.9165 12.4015 32.45225 5.6875 25.15625 5.6875 z M 14.625 13.3125 C 7.456 19.6625 0.89525 29.37225 5.90625 41.65625 L 5.9375 41.6875 C 5.8735 41.8295 5.733 42.08 5.625 42.25 C 5.095 43.085 4.0845 44.6565 5.3125 46.3125 C 5.8345 47.0165 6.551 47.375 7.375 47.375 C 8.078 47.375 8.75475 47.109 9.34375 46.875 C 9.75875 46.71 10.19125 46.5325 10.53125 46.5625 C 12.91325 47.2785 15.21225 47.625 17.53125 47.625 C 24.97325 47.625 31.889 44.0575 38.125 37.0625 C 34.762 35.8515 30.38575 32.542 24.84375 27 C 19.09375 21.25 15.717 16.7255 14.625 13.3125 z"></path></svg>