<svg xmlns="http://www.w3.org/2000/svg" width="50" height="50" viewBox="0 0 50 50">    <path style="text-indent:0;text-align:start;line-height:normal;text-transform:none;block-progression:tb;-inkscape-font-specification:Bitstream Vera Sans" d="M 40.90625 0.09375 L 40.1875 0.78125 L 0.78125 40.1875 L 0.09375 40.90625 L 0.78125 41.59375 C 12.061833 52.874333 30.313167 52.874333 41.59375 41.59375 C 52.874333 30.313167 52.874333 12.061833 41.59375 0.78125 L 40.90625 0.09375 z M 40.8125 3 C 50.620394 13.55957 50.466066 29.908934 40.1875 40.1875 C 29.908934 50.466066 13.55957 50.620394 3 40.8125 L 5.03125 38.78125 C 14.375086 47.380931 28.937802 47.156923 38 38.09375 C 47.062198 29.031552 47.286257 14.468836 38.6875 5.125 L 40.8125 3 z M 38.8125 12.5 C 39.421875 12.523438 40.0125 12.9 40.3125 13.5 C 40.6125 14.3 40.20525 15.19375 39.40625 15.59375 C 38.60525 15.89375 35.8125 15.1875 35.8125 15.1875 C 35.8125 15.1875 37.3875 12.99375 38.1875 12.59375 C 38.3875 12.51875 38.609375 12.492188 38.8125 12.5 z M 40.59375 19.59375 C 41.49375 19.59375 42.19475 20.4125 42.09375 21.3125 C 41.99475 22.1125 41.30625 22.8125 40.40625 22.8125 C 39.50625 22.8125 37.3125 21.09375 37.3125 21.09375 C 37.3125 21.09375 39.69375 19.59375 40.59375 19.59375 z M 39.09375 26.5 C 39.46875 26.495313 39.8 26.51875 40 26.59375 C 40.8 26.99375 41.2125 28.0125 40.8125 28.8125 C 40.4135 29.6125 39.4875 29.99375 38.6875 29.59375 C 37.8875 29.19475 36.40625 26.8125 36.40625 26.8125 C 36.40625 26.8125 37.96875 26.514062 39.09375 26.5 z M 32.8125 32.59375 C 32.8125 32.59375 35.49375 33.3 36.09375 34 C 36.69375 34.7 36.7 35.7125 36 36.3125 C 35.3 36.9135 34.2875 36.79375 33.6875 36.09375 C 33.0865 35.39475 32.8125 32.59375 32.8125 32.59375 z M 15.8125 35.90625 C 15.8125 35.90625 16.0875 38.79375 15.6875 39.59375 C 15.2875 40.39375 14.3 40.6875 13.5 40.1875 C 12.7 39.7875 12.40625 38.8 12.90625 38 C 13.30625 37.2 15.8125 35.90625 15.8125 35.90625 z M 27.40625 36.1875 C 27.40625 36.1875 29.6125 38.0125 29.8125 38.8125 C 30.1125 39.7125 29.5875 40.6125 28.6875 40.8125 C 27.8875 41.0125 26.9875 40.4875 26.6875 39.6875 C 26.4875 38.8875 27.40625 36.1875 27.40625 36.1875 z M 21.5 37.1875 C 21.5 37.1875 22.7875 39.69375 22.6875 40.59375 C 22.6875 41.49375 21.9 42.1 21 42 C 20.1 41.9 19.49375 41.0875 19.59375 40.1875 C 19.69375 39.2875 21.5 37.1875 21.5 37.1875 z" color="#000" overflow="visible" enable-background="accumulate" font-family="Bitstream Vera Sans"></path></svg>