<svg xmlns="http://www.w3.org/2000/svg" width="26" height="26" viewBox="0 0 26 26">    <path style="text-indent:0;text-align:start;line-height:normal;text-transform:none;block-progression:tb;-inkscape-font-specification:Bitstream Vera Sans" d="M 10.65625 0.03125 C 9.08425 0.03125 8 0.707 8 2 C 6.223 2 3 2.97375 3 5.96875 L 3 10.625 C 3 13.862 2 15.069 2 19 C 2 20.043 2.21875 20.6875 2.21875 20.6875 C 2.21875 20.6875 2.8685714 21.054023 4.84375 21.0625 C 4.377023 22.960102 2.7189138 24 1 24 A 1.0001 1.0001 0 0 0 0.90625 24 A 1.001098 1.001098 0 0 0 0.28125 24.25 A 1.0001 1.0001 0 0 0 0.28125 24.28125 A 1.001098 1.001098 0 0 0 0.15625 24.40625 A 1.0001 1.0001 0 0 0 0.15625 24.4375 A 1.001098 1.001098 0 0 0 0.09375 24.5 A 1.0001 1.0001 0 0 0 0.09375 24.53125 A 1.001098 1.001098 0 0 0 0 25.28125 A 1.0001 1.0001 0 0 0 0.03125 25.3125 A 1.001098 1.001098 0 0 0 0.03125 25.375 A 1.0001 1.0001 0 0 0 0.0625 25.40625 A 1.001098 1.001098 0 0 0 0.125 25.53125 A 1.0001 1.0001 0 0 0 0.15625 25.5625 A 1.001098 1.001098 0 0 0 0.1875 25.625 A 1.0001 1.0001 0 0 0 0.21875 25.65625 A 1.001098 1.001098 0 0 0 0.46875 25.875 A 1.0001 1.0001 0 0 0 0.53125 25.90625 A 1.001098 1.001098 0 0 0 0.5625 25.9375 A 1.0001 1.0001 0 0 0 0.625 25.9375 A 1.001098 1.001098 0 0 0 0.65625 25.96875 A 1.0001 1.0001 0 0 0 0.71875 25.96875 A 1.001098 1.001098 0 0 0 0.96875 26 A 1.0001 1.0001 0 0 0 1 26 L 23 26 C 23.032111 26 23.061868 26.001025 23.09375 26 A 1.0001 1.0001 0 0 0 23.125 26 C 24.711753 25.932003 26 24.602156 26 23 A 1.0001 1.0001 0 0 0 24.78125 22 A 1.0001 1.0001 0 0 0 24 23 C 24 23.56503 23.56503 24 23 24 C 21.471639 24 20.534388 23.221047 19.875 22.375 C 19.735068 22.195457 19.635609 22.012664 19.53125 21.84375 C 23.325558 21.393513 25 20.124561 25 19.875 C 25 16.451 22.5655 14.71875 19.3125 14.71875 C 17.7905 14.71875 14.22775 12.64075 13.21875 10.09375 C 12.47675 8.22275 13 2.969 13 1.375 C 13 0.75 12.22825 0.03125 10.65625 0.03125 z M 10 6 C 10.552 6 11 6.448 11 7 C 11 7.552 10.552 8 10 8 C 9.448 8 9 7.552 9 7 C 9 6.448 9.448 6 10 6 z M 11 10 C 11.552 10 12 10.448 12 11 C 12 11.552 11.552 12 11 12 C 10.448 12 10 11.552 10 11 C 10 10.448 10.448 10 11 10 z M 13 13 C 13.552 13 14 13.448 14 14 C 14 14.552 13.552 15 13 15 C 12.448 15 12 14.552 12 14 C 12 13.448 12.448 13 13 13 z M 16 15 C 16.552 15 17 15.448 17 16 C 17 16.552 16.552 17 16 17 C 15.448 17 15 16.552 15 16 C 15 15.448 15.448 15 16 15 z M 6.90625 21.09375 C 12.374153 21.249819 13.586675 22 16.71875 22 C 16.932424 22 17.10789 21.973443 17.3125 21.96875 C 17.517418 22.42024 17.824237 22.99852 18.3125 23.625 C 18.407727 23.747183 18.515112 23.877841 18.625 24 L 5.5 24 C 6.1972503 23.224116 6.7069029 22.232559 6.90625 21.09375 z" color="#000" overflow="visible" enable-background="accumulate" font-family="Bitstream Vera Sans"></path></svg>