<svg xmlns="http://www.w3.org/2000/svg" width="50" height="50" viewBox="0 0 50 50">    <path d="M44.888,9.454c-0.151-0.304-3.895-7.445-19.848-7.445c-15.945,0-19.769,7.133-19.923,7.437L5.008,9.658v0.238 c0,34.583,18.982,38.908,19.791,39.076l0.208,0.043l0.207-0.046c0.808-0.178,19.779-4.746,19.779-39.073V9.663L44.888,9.454z M12.001,20c0,0,3.124-4,5.999-4c2.378,0,5,3,5,3s-2.835,0.547-5.619,0.845C14.597,20.143,12.001,20,12.001,20z M25,38 c-6.913,0-10-11-10-11s6.295,2,10,2s10-2,10-2S31.913,38,25,38z M32.619,19.845C29.835,19.547,27,19,27,19s2.622-3,5-3 c2.875,0,5.999,4,5.999,4S35.402,20.143,32.619,19.845z"></path></svg>