<svg xmlns="http://www.w3.org/2000/svg" width="50" height="50" viewBox="0 0 50 50">    <path d="M 25 0 C 24.854957 0 24.706259 0.022791096 24.5625 0.03125 C 24.480618 0.036068017 24.393949 0.023718962 24.3125 0.03125 C 17.803495 0.63309116 12.700751 9.8640729 12.0625 21.9375 C 12.018483 22.77015 12.0005 23.610937 12 24.46875 C 12.689 24.87975 13.355 25.30575 14 25.71875 C 15.08347 26.41792 16.131439 27.129676 17.09375 27.84375 C 17.07275 27.35375 17.04525 26.859 17.03125 26.375 C 15.706107 25.732964 14.712216 24.994077 14 24.3125 C 14.004425 23.282731 14.0513 22.278239 14.125 21.28125 C 14.148762 21.318656 14.199652 21.333677 14.21875 21.375 C 14.26675 21.475 14.962 22.86275 17 24.09375 C 17.006 22.81675 17.058 21.54425 17.125 20.28125 C 15.948222 19.664306 15.070792 18.977428 14.4375 18.34375 C 14.565645 17.459209 14.726953 16.589141 14.90625 15.75 C 15.109112 16.10304 15.750919 17.095242 17.25 18.0625 C 17.356 16.7685 17.5165 15.51025 17.6875 14.28125 C 16.820308 13.772989 16.160541 13.211822 15.6875 12.71875 C 15.923987 11.952946 16.190577 11.2029 16.46875 10.5 C 16.611157 10.747731 17.04 11.423333 18 12.125 C 18.233 10.81 18.53075 9.539 18.84375 8.375 C 18.456 8.11775 18.114516 7.8795156 17.84375 7.625 C 18.192053 7.002724 18.554262 6.4065442 18.9375 5.875 C 19.072772 6.0277923 19.221869 6.1960099 19.4375 6.375 C 19.698406 5.6158565 19.979658 4.9269156 20.28125 4.28125 C 21.72241 2.8332706 23.320084 2 25 2 C 26.664671 2 28.256604 2.8269519 29.6875 4.25 C 29.995541 4.9054652 30.29679 5.6014965 30.5625 6.375 C 30.77878 6.1953614 30.926579 6.0288273 31.0625 5.875 C 31.440947 6.3999072 31.811854 6.980307 32.15625 7.59375 C 31.885484 7.8481875 31.544 8.11775 31.15625 8.375 C 31.46925 9.54 31.73575 10.811 31.96875 12.125 C 32.930417 11.421667 33.387407 10.750787 33.53125 10.5 C 33.809399 11.2029 34.076039 11.952946 34.3125 12.71875 C 33.839459 13.211786 33.179692 13.772605 32.3125 14.28125 C 32.4835 15.51025 32.645 16.7685 32.75 18.0625 C 34.272104 17.079528 34.901296 16.058656 35.09375 15.71875 C 35.275764 16.567337 35.432841 17.44862 35.5625 18.34375 C 34.929412 18.977283 34.051389 19.664695 32.875 20.28125 C 32.941 21.54525 32.995 22.81675 33 24.09375 C 35.039 22.86275 35.73125 21.479 35.78125 21.375 C 35.800841 21.334335 35.85086 21.318062 35.875 21.28125 C 35.948687 22.278239 35.995575 23.282731 36 24.3125 C 35.288404 24.993748 34.292731 25.733352 32.96875 26.375 C 32.94775 27.242 32.91 28.0965 32.875 28.9375 C 33.619 28.6315 34.40375 28.39775 35.21875 28.21875 C 36.05975 28.04675 37.8545 27.877 37.9375 27.875 C 37.9845 26.789 38 25.667 38 24.5 C 38 11.191313 32.650116 0.67548956 25.6875 0.03125 C 25.605995 0.023708519 25.519438 0.036074714 25.4375 0.03125 C 25.293643 0.022779338 25.145142 0 25 0 z M 24 2.40625 C 23.077 3.14025 22.12025 4.87325 21.28125 7.40625 C 22.00525 7.67825 22.893 7.88775 24 7.96875 L 24 2.40625 z M 26 2.40625 L 26 7.96875 C 27.106 7.88775 27.99475 7.67825 28.71875 7.40625 C 27.88075 4.87325 26.923 3.14025 26 2.40625 z M 20.6875 9.3125 C 20.3835 10.4665 20.112 11.727 19.875 13.125 C 20.93 13.545 22.288 13.87575 24 13.96875 L 24 9.96875 C 22.691 9.88575 21.5915 9.6395 20.6875 9.3125 z M 29.3125 9.3125 C 28.4085 9.6395 27.309 9.88475 26 9.96875 L 26 13.96875 C 27.712 13.87575 29.071 13.545 30.125 13.125 C 29.889 11.727 29.6145 10.4665 29.3125 9.3125 z M 19.59375 15.15625 C 19.43175 16.37625 19.2845 17.66425 19.1875 19.03125 C 20.4375 19.51225 22.03 19.87475 24 19.96875 L 24 15.96875 C 22.233 15.88175 20.78775 15.58225 19.59375 15.15625 z M 30.40625 15.15625 C 29.21225 15.58225 27.768 15.88075 26 15.96875 L 26 19.96875 C 27.97 19.87475 29.5625 19.51225 30.8125 19.03125 C 30.7155 17.66525 30.56725 16.37625 30.40625 15.15625 z M 19.09375 21.125 C 19.04675 22.219 19 23.328 19 24.5 C 19 24.677 18.998 24.8795 19 25.0625 C 20.312 25.5415 21.963 25.87875 24 25.96875 L 24 21.96875 C 22.061 21.88475 20.44175 21.577 19.09375 21.125 z M 30.90625 21.125 C 29.55825 21.577 27.94 21.88475 26 21.96875 L 26 25.96875 C 28.037 25.87875 29.689 25.5415 31 25.0625 C 31.002 24.8815 31 24.678 31 24.5 C 31 23.328 30.95325 22.219 30.90625 21.125 z M 5.125 23 C 4.7643906 22.9595 4.37075 23.12025 4.15625 23.4375 C 3.87125 23.8615 3.95275 24.421 4.34375 24.75 C 6.90475 26.907 7.987 30.721 9.125 34.75 C 11.143 41.895 13.434 50 25 50 C 25.552 50 26 49.553 26 49 C 26 36.165 19.38175 30.437 5.46875 23.125 C 5.356 23.06575 5.2452031 23.0135 5.125 23 z M 30.9375 27.15625 C 29.5655 27.58225 27.932 27.88975 26 27.96875 L 26 31.96875 C 26.871 31.93075 27.67425 31.84275 28.40625 31.71875 C 29.16525 31.08175 29.96775 30.48875 30.84375 29.96875 C 30.88375 29.07475 30.9085 28.11025 30.9375 27.15625 z M 19.0625 27.1875 C 19.0915 27.9645 19.11225 28.744 19.15625 29.5 C 20.00025 30.218 20.776 30.9295 21.5 31.6875 C 22.256 31.8185 23.094 31.92875 24 31.96875 L 24 27.96875 C 22.071 27.88975 20.4335 27.6125 19.0625 27.1875 z M 38.1875 29.875 C 32.3685 29.875 28.1235 34.201 25.6875 37.625 C 27.2155 40.828 28 44.523 28 49 C 28 49.283 27.949 49.5525 27.875 49.8125 C 34.818 48.8845 36.71825 44.54725 38.40625 40.65625 C 39.82125 37.39625 41.06125 34.585 45.15625 34 C 45.57325 33.94 45.88275 33.63175 45.96875 33.21875 C 46.05375 32.80575 45.89025 32.37725 45.53125 32.15625 C 43.07325 30.64325 40.5995 29.875 38.1875 29.875 z"></path></svg>