<svg xmlns="http://www.w3.org/2000/svg" width="24" height="24" viewBox="0 0 24 24">    <path style="text-indent:0;text-align:start;line-height:normal;text-transform:none;block-progression:tb;-inkscape-font-specification:Bitstream Vera Sans" d="M 12 3 C 9.0095238 3 6.0663465 3.8295729 3.8125 5.4375 C 1.5586535 7.0454271 0 9.5103774 0 12.5 C 0 15.489623 1.5586535 17.954573 3.8125 19.5625 C 6.0663465 21.170427 9.0095238 22 12 22 C 14.990476 22 17.933654 21.170427 20.1875 19.5625 C 22.441346 17.954573 24 15.489623 24 12.5 C 24 9.5103774 22.441346 7.0454271 20.1875 5.4375 C 17.933654 3.8295729 14.990476 3 12 3 z M 10.25 5.09375 L 11.8125 5.40625 C 11.8125 5.30625 12.19375 5.6125 12.09375 5.8125 C 11.99375 6.1125 11.6875 6.09375 11.6875 6.09375 L 10.09375 6 C 9.79375 6 9.7125 5.8 9.8125 5.5 C 9.8125 5.25 10.032407 5.1550926 10.125 5.125 C 10.166772 5.1192617 10.208123 5.0991108 10.25 5.09375 z M 16 5.59375 C 16.117161 5.6300101 16.22861 5.6793438 16.34375 5.71875 C 16.38125 5.7609375 16.40625 5.83125 16.40625 5.90625 C 16.40625 6.20625 16.09375 6.40625 16.09375 6.40625 L 14.59375 6.8125 C 14.39375 6.9125 14.19375 6.7 14.09375 6.5 C 14.09375 6.2 14.40625 6 14.40625 6 L 16 5.59375 z M 7.15625 5.90625 C 7.325 5.878125 7.5 6 7.5 6 L 8.3125 7.3125 C 8.4125 7.3125 8.4875 7.7125 8.1875 7.8125 C 7.9875 8.0125 7.6875 7.6875 7.6875 7.6875 L 6.90625 6.5 C 6.80625 6.3 6.9 6.1 7 6 C 7.05 5.95 7.1 5.915625 7.15625 5.90625 z M 4.78125 7.34375 C 4.86875 7.34375 4.95 7.4 5 7.5 C 5.2 7.7 5.09375 8 5.09375 8 L 4.09375 9.1875 C 4.09375 9.0875 3.7 9.29375 3.5 9.09375 C 3.3 8.89375 3.5 8.59375 3.5 8.59375 L 4.5 7.5 C 4.6 7.4 4.69375 7.34375 4.78125 7.34375 z M 18.75 7.96875 C 18.890625 7.9828125 19 8.09375 19 8.09375 L 19.59375 9.90625 C 19.69375 9.90625 19.70625 10.30625 19.40625 10.40625 C 19.10625 10.50625 18.90625 10.1875 18.90625 10.1875 L 18.3125 8.59375 C 18.2125 8.29375 18.29375 8.1 18.59375 8 C 18.64375 7.975 18.703125 7.9640625 18.75 7.96875 z M 12 8 C 14.2 8 16 9.1 16 10.5 C 16 11.9 14.2 13 12 13 C 9.8 13 8 11.9 8 10.5 C 8 9.1 9.8 8 12 8 z M 4.59375 11.40625 L 6 11.90625 C 6.2 12.00625 6.2875 12.20625 6.1875 12.40625 C 6.0875 12.70625 5.8125 12.6875 5.8125 12.6875 L 4.40625 12.1875 C 4.30625 12.0875 3.99375 11.89375 4.09375 11.59375 C 4.19375 11.39375 4.59375 11.40625 4.59375 11.40625 z M 17.09375 11.5 L 18.6875 12 C 18.9875 12.1 19.00625 12.29375 18.90625 12.59375 C 18.80625 12.89375 18.40625 12.90625 18.40625 12.90625 L 16.8125 12.3125 C 16.8125 12.4125 16.49375 12.1125 16.59375 11.8125 C 16.69375 11.5125 17.09375 11.5 17.09375 11.5 z M 8.3125 12.6875 L 9.6875 13.59375 C 9.9875 13.79375 10.00625 13.9875 9.90625 14.1875 C 9.70625 14.4875 9.40625 14.40625 9.40625 14.40625 L 7.90625 13.5 C 7.80625 13.6 7.5875 13.20625 7.6875 12.90625 C 7.8875 12.70625 8.3125 12.6875 8.3125 12.6875 z M 2.15625 13.78125 C 2.5612214 14.164962 2.7308824 14.774118 3.5 15.3125 C 4.4 16.0125 5.10625 15.19375 5.90625 15.59375 C 6.50625 15.79375 7.8875 17.0875 9.1875 17.1875 C 10.2875 17.2875 11.4 16.5 12 16.5 C 12.8 16.5 13.5 17.29375 14.5 17.09375 C 15.2 16.89375 15.8 16.3875 16.5 16.1875 C 17.1 15.9875 18.0875 16.3 19.1875 16 C 20.0875 15.8 20.00625 15.0125 20.90625 14.3125 C 21.257601 14.048986 21.53716 14.068686 21.78125 14.125 C 21.378981 15.670505 20.415865 16.949695 19.03125 17.9375 C 17.185096 19.254573 14.609524 20 12 20 C 9.3904762 20 6.8149035 19.254573 4.96875 17.9375 C 3.4829515 16.87751 2.4967166 15.48369 2.15625 13.78125 z M 14.75 13.8125 C 14.9 13.765625 15.0375 13.85 15.1875 14 C 15.3875 14.3 15.1875 14.59375 15.1875 14.59375 L 13.8125 15.59375 C 13.7125 15.69375 13.19375 15.8 13.09375 15.5 C 12.99375 15.2 13.1875 14.90625 13.1875 14.90625 L 14.59375 13.90625 C 14.64375 13.85625 14.7 13.828125 14.75 13.8125 z" color="#000" overflow="visible" enable-background="accumulate" font-family="Bitstream Vera Sans"></path></svg>