<svg xmlns="http://www.w3.org/2000/svg" viewBox="0 0 26 26" enable-background="new 0 0 26 26">    <path d="M 5.5625 0.96875 C 4.7246094 0.8984375 3.84375 1.34375 3.09375 2.09375 C 1.89375 3.29375 1.6125 4.8 2.8125 6 C 3.0684824 6.3071788 3.4139263 6.5241669 3.8125 6.6875 L 0.6875 12.40625 C -0.5125 14.50625 0.0125 17.2125 1.8125 18.8125 L 4.90625 21.59375 C 6.60625 23.09375 8.79375 23.90625 11.09375 23.90625 L 14.8125 23.90625 C 17.1125 23.90625 19.4 23.09375 21 21.59375 L 24.09375 18.8125 C 26.09375 17.2125 26.5125 14.60625 25.3125 12.40625 L 22.21875 6.75 C 22.617 6.5611258 23.005549 6.3069512 23.3125 6 C 24.5125 4.8 24.10625 3.3875 22.90625 2.1875 C 21.70625 0.9875 20.2 0.6125 19 1.8125 C 18.85 1.9625 18.72035 2.1319 18.59375 2.3125 C 18.057112 2.1122027 17.48562 2 16.90625 2 L 9.09375 2 C 8.5164583 2 7.9764191 2.0932595 7.46875 2.28125 C 7.3288782 2.0708277 7.1714527 1.8589527 7 1.6875 C 6.55 1.2375 6.0652344 1.0109375 5.5625 0.96875 z M 10 9.09375 C 10.8 9.09375 11.5 9.79375 11.5 10.59375 C 11.5 11.39375 10.8 12.09375 10 12.09375 C 9.2 12.09375 8.5 11.39375 8.5 10.59375 C 8.5 9.79375 9.2 9.09375 10 9.09375 z M 16 9.09375 C 16.8 9.09375 17.5 9.79375 17.5 10.59375 C 17.5 11.39375 16.8 12.09375 16 12.09375 C 15.2 12.09375 14.5 11.39375 14.5 10.59375 C 14.5 9.79375 15.2 9.09375 16 9.09375 z M 11.3125 14 L 14.90625 14 C 16.00625 14 17 14.6 17.5 15.5 L 18.90625 17.8125 C 19.20625 18.5125 19.0125 19.5 18.3125 20 L 16.90625 21 C 16.057868 21.659853 15.036292 21.967252 14 22 L 14 19.59375 L 15.1875 18.3125 C 15.5875 17.8125 15.29375 17 14.59375 17 L 11.5 17 C 10.8 17 10.50625 17.8125 10.90625 18.3125 L 12 19.59375 L 12 22 C 10.963708 21.957369 9.9421324 21.565588 9.09375 21 L 7.6875 20 C 6.9875 19.5 6.8125 18.6125 7.3125 17.8125 L 8.6875 15.5 C 9.2875 14.6 10.2125 14 11.3125 14 z"></path></svg>