<svg xmlns="http://www.w3.org/2000/svg" width="26" height="26" viewBox="0 0 26 26">    <path d="M 19.5 -0.03125 A 0.50437539 0.50437539 0 0 0 19.375 0 A 0.50005 0.50005 0 0 0 19.34375 0.03125 L 16.34375 1.03125 A 0.50005 0.50005 0 0 0 16.0625 1.71875 L 16.84375 3.3125 C 16.286559 3.6026098 15.81213 4.0632396 15.5 4.6875 C 15.08225 5.4765833 14.941328 6.3466533 15.09375 7.125 C 13.470023 6.4177947 11.816679 6.7694896 10.90625 8.09375 C 10.16875 9.1664773 9.9778524 10.561411 10.5 11.78125 C 9.0822321 11.133282 7.5884718 10.977631 6.5 12.40625 C 7.3 13.80625 9.5125 16.6125 14.8125 17.3125 C 14.9375 16.1875 14.740234 15.31543 14.09375 14.46875 C 15.616811 14.841318 17.160377 14.660259 17.8125 13.8125 C 18.511014 12.904432 18.597399 11.208284 17.75 9.625 C 19.62454 10.093391 22.221555 9.7756402 22.8125 8.59375 C 23.5125 7.19375 22.30625 4.70625 19.90625 3.40625 C 19.702356 3.3043031 19.48369 3.2204304 19.28125 3.15625 L 19.59375 3 L 21.5 3 A 0.50005 0.50005 0 1 0 21.5 2 L 19.5 2 A 0.50005 0.50005 0 0 0 19.40625 2 A 0.50005 0.50005 0 0 0 19.28125 2.0625 L 17.71875 2.84375 L 17.1875 1.78125 L 19.65625 0.96875 A 0.50437539 0.50437539 0 0 0 19.5 -0.03125 z M 3.40625 0 C 1.60625 -2.9605947e-16 1 0.90625 1 2.90625 C 1 5.20625 2.59375 9.69375 8.59375 10.59375 C 8.59375 10.59375 8.5125 9.6125 8.8125 8.8125 C 3.4125 8.2125 3 3.50625 3 2.90625 C 3 2.20625 3.19375 2 3.59375 2 C 5.99375 2 10 7 10 7 C 10.7 6.1 11.6875 5.90625 11.6875 5.90625 C 9.5875 2.70625 5.10625 0 3.40625 0 z M 9 0 C 8.4 -1.4802974e-16 7.90625 0.1875 7.40625 0.6875 C 7.90625 0.9875 9.20625 1.8 9.40625 2 C 10.30625 2 11.7 2.5875 13 5.6875 C 13 5.6875 13.69375 5.89375 14.09375 6.09375 C 14.19375 5.59375 14.5 4.90625 14.5 4.90625 C 13.4 2.00625 10.8 0 9 0 z M 18.96875 4.03125 C 19.582031 3.9511719 20.25 4.15625 20.6875 4.59375 C 21.7875 5.59375 21.7875 6.99375 21.1875 7.59375 C 20.5875 8.19375 19.1125 7.9875 18.3125 7.1875 C 17.5125 6.4875 17.3 5.2 18 4.5 C 18.2625 4.2375 18.600781 4.0792969 18.96875 4.03125 z M 5.6875 14.3125 C 5.5875 14.5125 5.6 14.70625 5.5 14.90625 C 5.3 15.70625 5.19375 16.39375 5.09375 17.09375 C 6.19375 18.49375 8.70625 20.90625 13.40625 21.40625 C 13.90625 20.70625 14.3 19.9 14.5 19 C 12.6 18.9 8.0875 17.8125 5.6875 14.3125 z M 5.09375 19.8125 C 5.3230272 21.723143 6.0459878 23.254519 7.03125 24.0625 C 7.5552992 25.320615 9 26 9 26 L 9 24.59375 C 9.8604662 24.415509 10.975962 23.862019 12 22.90625 C 10.1 22.80625 7.19375 22.0125 5.09375 19.8125 z"></path></svg>