<svg xmlns="http://www.w3.org/2000/svg" width="50" height="50" viewBox="0 0 50 50">    <path d="M 38.84375 1.09375 C 38.515625 1.1221562 38.22525 1.29225 38.0625 1.59375 C 36.2595 4.92975 34.342 5.77175 31.875 5.96875 C 32.434 6.73175 33.19725 7.43775 34.65625 8.09375 C 35.76025 8.59075 36.6555 9.19 37.4375 9.875 C 39.0555 8.201 39.9495 5.55475 39.9375 2.09375 C 39.9375 1.63575 39.6315 1.237 39.1875 1.125 C 39.07575 1.0965 38.953125 1.0842813 38.84375 1.09375 z M 11.15625 1.125 C 11.047141 1.1188594 10.92325 1.1275 10.8125 1.15625 C 10.3695 1.26725 10.0635 1.69925 10.0625 2.15625 C 10.0505 5.57325 10.91525 8.208 12.53125 9.875 C 13.31425 9.189 14.23775 8.59075 15.34375 8.09375 C 16.80275 7.43875 17.566 6.73175 18.125 5.96875 C 15.659 5.77175 13.7405 4.92975 11.9375 1.59375 C 11.774 1.29225 11.483578 1.1434219 11.15625 1.125 z M 25 2.875 C 22.29 2.875 21.45 4.35225 20.625 5.78125 C 19.845 7.13425 18.9625 8.65925 16.1875 9.90625 C 11.6585 11.94125 10.71575 16.1595 9.96875 21.4375 C 9.96275 21.4835 9.96875 21.5155 9.96875 21.5625 C 9.96875 27.6235 12.4735 31.54625 14.3125 34.40625 C 15.1775 35.75125 15.9335 36.924 15.9375 37.625 C 15.9195 37.708 15.8585 37.79425 15.8125 37.90625 C 15.5245 38.59425 15 39.88475 15 43.09375 C 15 46.02175 18.092 48.96875 25 48.96875 C 31.908 48.96875 35 46.02175 35 43.09375 C 35 39.88475 34.4755 38.59525 34.1875 37.90625 C 34.1415 37.79425 34.0765 37.69625 34.0625 37.65625 C 34.0635 36.91225 34.8225 35.75125 35.6875 34.40625 C 37.5265 31.54525 40.03125 27.6235 40.03125 21.5625 C 40.03125 21.5155 40.03825 21.4835 40.03125 21.4375 C 39.28525 16.1605 38.3415 11.94325 33.8125 9.90625 C 31.0385 8.65925 30.154 7.13325 29.375 5.78125 C 28.549 4.35125 27.711 2.875 25 2.875 z M 7.65625 10.375 C 4.85425 10.375 0.09375 10.96775 0.09375 13.21875 C 0.09375 15.11575 2.46025 18.82475 6.78125 18.84375 C 6.78325 18.84375 6.8105 18.84475 6.8125 18.84375 C 7.3555 18.84375 7.879 18.80575 8.375 18.71875 C 8.909 15.76475 9.7225 13.10525 11.4375 11.03125 C 10.3875 10.67525 9.147 10.387 7.875 10.375 L 7.65625 10.375 z M 42.125 10.375 C 40.854 10.387 39.6115 10.67525 38.5625 11.03125 C 40.2795 13.10625 41.091 15.76675 41.625 18.71875 C 42.121 18.80575 42.6435 18.84375 43.1875 18.84375 L 43.21875 18.84375 C 47.53875 18.82475 49.90625 15.11675 49.90625 13.21875 C 49.90525 10.96775 45.14575 10.375 42.34375 10.375 L 42.125 10.375 z M 25 15.71875 C 27.197 15.71975 30.23275 16.61075 32.21875 17.84375 C 32.92175 18.43475 33.112 22.84225 32.75 23.90625 C 32.501 24.19625 31.81675 24.52975 31.21875 24.84375 C 29.94575 25.51275 28.37125 26.34625 27.78125 27.90625 C 27.73825 28.01825 27.71875 28.15925 27.71875 28.28125 C 27.71875 34.40725 29.04325 35.7135 30.78125 36.8125 C 31.39125 37.1995 31.8345 37.4925 32.1875 38.3125 C 32.2295 38.4355 32.29475 38.54025 32.34375 38.65625 C 32.588368 39.242356 32.982616 40.265388 33 42.9375 C 32.280295 42.665894 30.848412 42.318047 29.53125 43.09375 C 28.034582 43.9742 27.999959 45.533738 28 46.6875 C 27.107635 46.847098 26.124209 46.96875 25 46.96875 C 23.875791 46.96875 22.892355 46.847089 22 46.6875 C 22.000878 45.601454 21.991524 43.987983 20.46875 43.09375 C 19.149399 42.318777 17.71939 42.666229 17 42.9375 C 17.017343 40.265388 17.411632 39.272627 17.65625 38.6875 C 17.70325 38.5755 17.7705 38.4315 17.8125 38.3125 C 18.1665 37.4815 18.60375 37.2015 19.21875 36.8125 C 20.95675 35.7145 22.28125 34.40825 22.28125 28.28125 C 22.28125 28.16025 22.26175 28.01925 22.21875 27.90625 C 21.62775 26.34525 20.024 25.51275 18.75 24.84375 C 18.153 24.52975 17.5 24.19625 17.25 23.90625 C 16.888 22.84325 17.058 18.459 17.75 17.875 C 19.748 16.634 22.803 15.71875 25 15.71875 z M 18.46875 44.625 C 18.792504 44.593658 19.125875 44.629125 19.4375 44.8125 C 19.840217 45.048913 19.973528 45.465178 20 46.1875 C 19.019461 45.817213 18.250858 45.342944 17.75 44.8125 C 17.932776 44.745709 18.185705 44.652401 18.46875 44.625 z M 31.1875 44.625 C 31.600878 44.59761 31.99701 44.687271 32.25 44.78125 C 31.748894 45.323867 30.999084 45.81018 30 46.1875 C 30.026472 45.464637 30.128533 45.048913 30.53125 44.8125 C 30.7375 44.6905 30.965125 44.639734 31.1875 44.625 z"></path></svg>