<svg xmlns="http://www.w3.org/2000/svg" version="1" width="24" height="24" viewBox="0 0 24 24">    <path d="M 7.40625 0 C 7.10625 0.1 5.99375 0.20625 5.09375 0.90625 C 1.4180789 3.7113674 1.4000226 7.3313203 3.03125 8.5625 C 3.0879412 9.402165 3.4903584 10.557679 5 11.3125 C 5 12.220757 5.553228 12.90726 6.25 13.125 C 6.1254395 13.369947 6.0027967 13.621851 5.875 13.90625 L 3.59375 13.15625 L 1.71875 11.28125 A 1.0001 1.0001 0 0 0 0.90625 10.96875 A 1.0001 1.0001 0 0 0 0.78125 11 A 1.0001 1.0001 0 0 0 0.28125 12.71875 L 2.28125 14.71875 A 1.0001 1.0001 0 0 0 2.6875 14.9375 L 5.125 15.75 C 5.1158333 15.773748 5.1029587 15.788557 5.09375 15.8125 C 5.0051594 16.048742 4.9947447 16.25545 5 16.46875 L 3.125 16.9375 L 1.4375 16.09375 A 1.0001 1.0001 0 0 0 0.875 16 A 1.0001 1.0001 0 0 0 0.78125 16 A 1.0001 1.0001 0 0 0 0.5625 17.90625 L 2.5625 18.90625 A 1.0001 1.0001 0 0 0 3.25 18.96875 L 6.09375 18.25 C 6.3976095 18.511325 6.7422979 18.791741 7.125 19.0625 L 4.625 20.0625 A 1.0001 1.0001 0 0 0 4.09375 20.5625 L 3.09375 22.5625 A 1.0063276 1.0063276 0 0 0 4.90625 23.4375 L 5.71875 21.8125 L 9.0625 20.46875 C 9.9904267 21.237426 10.762685 22 12 22 C 13.237315 22 14.009573 21.237426 14.9375 20.46875 L 18.28125 21.8125 L 19.09375 23.4375 A 1.0063276 1.0063276 0 0 0 20.90625 22.5625 L 19.90625 20.5625 A 1.0001 1.0001 0 0 0 19.375 20.0625 L 16.875 19.0625 C 17.272332 18.787306 17.625925 18.514391 17.9375 18.25 L 20.75 18.96875 A 1.0001 1.0001 0 0 0 21.4375 18.90625 L 23.4375 17.90625 A 1.0063276 1.0063276 0 0 0 22.5625 16.09375 L 20.875 16.9375 L 19.03125 16.46875 C 19.031503 16.259524 18.989807 16.049245 18.90625 15.8125 C 18.897041 15.788557 18.884167 15.773748 18.875 15.75 L 21.3125 14.9375 A 1.0001 1.0001 0 0 0 21.71875 14.71875 L 23.71875 12.71875 A 1.0001 1.0001 0 0 0 22.875 11 A 1.0001 1.0001 0 0 0 22.28125 11.28125 L 20.40625 13.15625 L 18.125 13.90625 C 18.001346 13.631071 17.870581 13.39445 17.75 13.15625 C 18.681777 12.907559 19.185473 11.829561 19.09375 11.1875 C 20.69375 10.9875 21.1875 9.80625 21.1875 8.40625 C 20.7375 8.85625 20.180859 9.0890625 19.59375 9.1875 C 19.893809 9.0621 20.170488 8.8609467 20.40625 8.59375 C 21.90625 6.89375 20.90625 3.20625 16.40625 1.40625 C 15.20625 0.90625 14.1125 1.09375 13.8125 1.09375 C 14.3125 1.59375 16.3 3.90625 16.5 4.90625 C 15.4 4.90625 12.99375 3.2 12.09375 2.5 C 11.69375 4 13.10625 7.2125 14.90625 8.3125 C 15.299457 8.5309483 16.115075 8.9063002 17.03125 9.15625 C 16.960938 9.68125 16.95625 10.15625 17.40625 10.90625 C 17.038129 10.947152 16.704486 11.05457 16.4375 11.1875 C 15.402126 10.177568 14.130283 10 12 10 C 9.9019104 10 8.6517066 10.186169 7.625 11.15625 C 7.3822409 11.047537 7.1238115 10.94084 6.8125 10.90625 C 7.4125 9.90625 7.3125 9.39375 7.3125 9.09375 C 6.3023487 9.2149682 5.5488101 9.2091026 4.96875 9.0625 C 6.4636015 8.9123051 8.0064669 7.8997831 8.5 7.40625 C 10 5.90625 10.50625 3.10625 9.40625 0.90625 C 8.70625 1.80625 7.00625 4.0125 5.90625 4.3125 C 5.80625 3.4125 7.10625 0.6 7.40625 0 z"></path></svg>