<svg xmlns="http://www.w3.org/2000/svg" viewBox="0 0 26 26" enable-background="new 0 0 26 26">    <path d="M 17 0 L 17 3 L 15.1875 8.09375 L 21 11 L 21 9 L 21 8 L 22.90625 8 C 23.60625 8 24.19375 7.6 24.59375 7 L 26 4 L 21 2 L 19 2 C 18.3 0.3 17 0 17 0 z M 21 3.40625 C 21.3 3.40625 21.59375 3.7 21.59375 4 C 21.59375 4.3 21.3 4.59375 21 4.59375 C 20.7 4.59375 20.40625 4.3 20.40625 4 C 20.40625 3.7 20.7 3.40625 21 3.40625 z M 1 7 C 0.75 7 0.5125 7.1125 0.3125 7.3125 C -0.0875 7.7125 -0.0875 8.2875 0.3125 8.6875 L 2 10.40625 L 2 17 L 2 24.5 C 2 25.3 2.7 26 3.5 26 C 4.3 26 5 25.3 5 24.5 L 5 17 L 17 17 L 17 24.5 C 17 25.3 17.7 26 18.5 26 C 19.3 26 20 25.3 20 24.5 L 20 17 L 21 13 L 21 12.6875 L 13.59375 9 L 3.40625 9 L 1.6875 7.3125 C 1.4875 7.1125 1.25 7 1 7 z M 6 18 L 6 21.09375 L 8.1875 25.1875 C 8.5875 25.8875 9.4875 26.2125 10.1875 25.8125 C 10.8875 25.4125 11.2125 24.5125 10.8125 23.8125 L 7.6875 18 L 6 18 z"></path></svg>