<svg xmlns="http://www.w3.org/2000/svg" viewBox="0 0 26 26" enable-background="new 0 0 26 26">    <path style="text-indent:0;text-align:start;line-height:normal;text-transform:none;block-progression:tb;-inkscape-font-specification:Bitstream Vera Sans" d="M 7.34375 0 A 0.50005 0.50005 0 0 0 7 0.40625 L 6 5.40625 A 0.50005 0.50005 0 0 0 6.125 5.8125 C 6.125 5.8125 6.7739589 6.6013262 7.625 7.375 C 8.0505206 7.7618369 8.5214177 8.132022 9 8.4375 C 9.0325683 8.4582883 9.0610428 8.4797263 9.09375 8.5 C 9.0011456 8.7108715 8.9107002 8.9297232 8.84375 9.15625 C 8.6741656 9.3511443 8.517485 9.5440073 8.34375 9.75 L 4.78125 9.03125 C 4.6583685 8.9201407 3.3564814 7.7546291 3 5.4375 A 0.50005 0.50005 0 0 0 2.375 5 A 0.50005 0.50005 0 0 0 2 5.5625 C 2.4263683 8.3338939 4.15625 9.875 4.15625 9.875 A 0.50005 0.50005 0 0 0 4.40625 10 L 7.625 10.65625 C 7.294757 11.068938 6.9555256 11.455481 6.625 11.90625 C 6.6166138 11.917687 6.6021333 11.926039 6.59375 11.9375 C 5.6597262 12.676842 4.6550051 13.603368 3.6875 14.625 C 1.8688813 16.54536 0.23645564 18.664083 0 20.4375 A 0.50389111 0.50389111 0 1 0 1 20.5625 C 1.1635444 19.335917 2.6498687 17.16714 4.40625 15.3125 C 4.4215673 15.296326 4.453386 15.297387 4.46875 15.28125 C 4.2441893 15.687422 4.020303 16.103824 3.8125 16.53125 C 3.80839 16.53975 3.8166 16.55404 3.8125 16.5625 C 2.5302573 18.979452 1.9650176 20.828617 1.90625 22.3125 C 1.848033 23.782477 2.346174 24.896057 3.09375 25.59375 C 3.107878 25.60788 3.111083 25.6118 3.125 25.625 C 3.5041033 25.984591 3.8101115 26.031491 4.15625 26.09375 C 4.5150955 26.15829 4.9266418 26.17527 5.375 26.15625 C 6.2717164 26.11821 7.357219 25.931138 8.4375 25.4375 C 9.2587906 25.062208 10.060125 24.496287 10.75 23.71875 C 11.435635 24.494988 12.179829 25 13 25 C 13.825 25 14.579688 24.489062 15.25 23.6875 C 15.943251 24.474124 16.734977 25.05936 17.5625 25.4375 C 18.642781 25.931138 19.728284 26.118207 20.625 26.15625 C 21.073358 26.17527 21.484905 26.15825 21.84375 26.09375 C 22.189888 26.03149 22.495897 25.984591 22.875 25.625 C 22.88892 25.6118 22.89212 25.60788 22.90625 25.59375 C 23.653826 24.896057 24.151967 23.782477 24.09375 22.3125 C 24.03498 20.828617 23.469743 18.979452 22.1875 16.5625 C 22.1834 16.554 22.1916 16.5397 22.1875 16.53125 C 21.979697 16.103824 21.755811 15.687422 21.53125 15.28125 C 21.546614 15.297387 21.578433 15.296326 21.59375 15.3125 C 23.350131 17.16714 24.836456 19.335917 25 20.5625 A 0.50389111 0.50389111 0 1 0 26 20.4375 C 25.763544 18.664083 24.131119 16.54536 22.3125 14.625 C 21.332264 13.589926 20.319323 12.649833 19.375 11.90625 C 19.044474 11.455481 18.705243 11.068938 18.375 10.65625 L 21.59375 10 A 0.50005 0.50005 0 0 0 21.84375 9.875 C 21.84375 9.875 23.573632 8.3338939 24 5.5625 A 0.50005 0.50005 0 0 0 23.375 5 A 0.50005 0.50005 0 0 0 23 5.4375 C 22.643519 7.7546291 21.341632 8.9201407 21.21875 9.03125 L 17.65625 9.75 C 17.482515 9.5440073 17.325834 9.3511443 17.15625 9.15625 C 17.0893 8.9297232 16.998854 8.7108715 16.90625 8.5 C 16.938957 8.4797263 16.967432 8.4582883 17 8.4375 C 17.478582 8.132022 17.949479 7.7618369 18.375 7.375 C 19.226041 6.6013262 19.875 5.8125 19.875 5.8125 A 0.50005 0.50005 0 0 0 20 5.40625 L 19 0.40625 A 0.50005 0.50005 0 0 0 18.40625 0 A 0.50005 0.50005 0 0 0 18 0.59375 L 18.9375 5.375 C 18.800515 5.529972 18.382247 5.993412 17.6875 6.625 C 17.288021 6.9881631 16.840168 7.367978 16.4375 7.625 C 16.308921 7.4383147 16.180823 7.2577053 16.03125 7.09375 C 16.614851 6.641622 17 6.06475 17 5.3125 C 17 3.95692 15.860464 2.5194034 14.28125 2 C 13.969448 1.5708632 13.517489 1.3125 13 1.3125 C 12.482511 1.3125 12.030552 1.5708632 11.71875 2 C 10.139536 2.5194034 9 3.95692 9 5.3125 C 9 6.06475 9.3851495 6.641622 9.96875 7.09375 C 9.8191771 7.2577053 9.6910792 7.4383147 9.5625 7.625 C 9.1598323 7.367978 8.7119794 6.9881631 8.3125 6.625 C 7.6177532 5.993412 7.1994846 5.529972 7.0625 5.375 L 8 0.59375 A 0.50005 0.50005 0 0 0 7.40625 0 A 0.50005 0.50005 0 0 0 7.34375 0 z M 8.8125 12.34375 C 9.1392641 13.523937 9.8208605 14.525185 10.71875 15.15625 C 10.706568 16.266234 10.6875 17.353842 10.6875 18.1875 C 10.6875 18.979513 10.59226 19.660114 10.4375 20.25 C 10.434404 20.259248 10.440579 20.272012 10.4375 20.28125 C 10.435059 20.290386 10.439974 20.303408 10.4375 20.3125 C 10.422388 20.358054 10.389641 20.392214 10.375 20.4375 C 9.8634127 22.151075 8.7723313 23.055193 7.59375 23.59375 C 6.786531 23.962612 5.9314086 24.128668 5.28125 24.15625 C 4.9561707 24.17004 4.7001389 24.155378 4.53125 24.125 C 4.4468056 24.109811 4.3896968 24.071073 4.375 24.0625 C 4.0842183 23.759193 3.8690997 23.313045 3.90625 22.375 C 3.947243 21.339916 4.3871099 19.737233 5.59375 17.46875 A 1.0001 1.0001 0 0 0 5.59375 17.4375 C 6.5299439 15.5066 7.6563515 13.824012 8.8125 12.34375 z M 17.1875 12.34375 C 18.343649 13.824012 19.470056 15.5066 20.40625 17.4375 A 1.0001 1.0001 0 0 0 20.40625 17.46875 C 21.61289 19.737233 22.052757 21.339916 22.09375 22.375 C 22.130897 23.313045 21.915781 23.759193 21.625 24.0625 C 21.610303 24.071073 21.553195 24.10981 21.46875 24.125 C 21.299861 24.15538 21.043829 24.17004 20.71875 24.15625 C 20.068591 24.12867 19.213469 23.962612 18.40625 23.59375 C 16.791812 22.856027 15.3125 21.454167 15.3125 18.1875 C 15.3125 17.353842 15.293432 16.266234 15.28125 15.15625 C 16.179136 14.525185 16.860737 13.523935 17.1875 12.34375 z" color="#000" overflow="visible" enable-background="accumulate" font-family="Bitstream Vera Sans"></path></svg>