<svg xmlns="http://www.w3.org/2000/svg" viewBox="0 0 26 26" enable-background="new 0 0 26 26">    <path d="M 23.46875 1.96875 A 0.50005 0.50005 0 0 0 23.375 2 A 0.50005 0.50005 0 0 0 23 2.375 C 22.521212 4.4497489 21.727915 5.9391688 21.09375 6.90625 C 20.932422 6.9050781 20.76875 6.925 20.59375 7 C 19.79375 7.3 18.6875 8.0125 17.1875 8.8125 C 16.3875 9.3125 11.6 11.40625 11 11.90625 L 13.40625 15.8125 L 12.21875 14.9375 C 12.145102 14.860153 12.087381 14.765172 12 14.6875 C 9.3 12.2875 4.8125 8.50625 3.3125 7.40625 C 1.9125 6.53125 0.64667969 7.3371094 1.09375 8.625 A 1.0001 1.0001 0 0 0 1.125 8.71875 L 2.5625 15.28125 C 1.7139074 15.534355 0.86520963 15.777518 0 16 C 0 16 1.1980678 17.265543 3.1875 18.21875 L 3.6875 20.5625 C 2.8538975 20.46717 1.8232598 20.5528 0.59375 21.09375 A 1.0001 1.0001 0 1 0 1.40625 22.90625 C 2.4762953 22.43543 3.2453589 22.461572 3.75 22.5625 C 4.2546411 22.663428 4.40625 22.8125 4.40625 22.8125 A 1.0001 1.0001 0 0 0 5.96875 21.78125 L 5.375 19 C 6.8453703 19.344114 8.5438077 19.402273 10.40625 18.8125 C 12.218952 18.231067 13.629478 17.284487 14.71875 16.28125 L 16.8125 17.5 L 18.375 21.09375 A 1.0001 1.0001 0 0 0 19.46875 21.6875 C 19.46875 21.6875 20.049315 21.71904 20.09375 21.78125 A 1.0001 1.0001 0 1 0 21.71875 20.625 C 21.177545 19.867313 20.494686 19.677661 19.9375 19.65625 L 18.53125 16.40625 A 1.0001 1.0001 0 0 0 18.09375 15.9375 L 16.09375 14.78125 C 17.216935 13.343883 17.759498 12.029922 17.90625 11.6875 C 18.40625 13.3875 18.89375 14.59375 19.59375 14.59375 C 20.29375 14.59375 23 13.00625 23 10.40625 C 23 9.4876179 22.770051 8.5729357 22.40625 7.90625 C 23.667153 7.022068 25.278806 5.6006383 25.96875 3.65625 A 0.50005 0.50005 0 0 0 25.375 3 A 0.50005 0.50005 0 0 0 25.03125 3.34375 C 24.561338 4.6680468 23.481644 5.7751965 22.46875 6.59375 C 23.03764 5.5879285 23.622861 4.2592708 24 2.625 A 0.50005 0.50005 0 0 0 23.46875 1.96875 z M 21.40625 9.8125 C 21.80625 9.8125 22.09375 10.1 22.09375 10.5 C 22.09375 10.9 21.80625 11.1875 21.40625 11.1875 C 21.00625 11.1875 20.6875 10.9 20.6875 10.5 C 20.6875 10.1 21.00625 9.8125 21.40625 9.8125 z M 4 12.6875 C 4.4418314 13.263669 4.8784956 13.797179 5.34375 14.375 C 5.0486993 14.476933 4.7415104 14.587418 4.4375 14.6875 L 4 12.6875 z"></path></svg>