<svg xmlns="http://www.w3.org/2000/svg" width="50" height="50" viewBox="0 0 50 50">    <path d="M 8.6875 5.03125 C 7.7395 5.03125 6.781 5.10775 5.875 5.21875 C 5.556 5.25775 5.28 5.43775 5.125 5.71875 C 4.97 5.99975 4.95575 6.334 5.09375 6.625 C 5.52775 7.539 5.9795 8.36475 6.4375 9.09375 C 7.3305 9.04275 8.31925 9 9.40625 9 C 15.35425 9 20.91375 10.49275 27.34375 12.21875 L 27.53125 12.28125 C 27.82925 12.36125 28.10525 12.419 28.40625 12.5 C 28.60025 12.284 28.82175 12.03075 28.96875 11.84375 C 24.51575 9.04375 16.7555 5.03125 8.6875 5.03125 z M 37 7 C 32.99 7 31.61625 10.6315 31.03125 12.1875 C 30.97125 12.3475 30.92625 12.5105 30.90625 12.5625 C 30.68825 12.9985 30.097 13.63725 29.625 14.15625 C 29.411 14.39125 29.24075 14.578 29.09375 14.75 C 28.32075 14.545 27.5565 14.35525 26.8125 14.15625 C 20.5185 12.46625 15.08925 11 9.40625 11 C 3.61125 11 0.8035 11.8995 0.6875 11.9375 C 0.3725 12.0425 0.11925 12.304 0.03125 12.625 C -0.05675 12.946 0.033 13.3095 0.25 13.5625 C 5.689 19.9095 16.08225 24.0955 19.28125 24.6875 C 20.09925 24.8625 20.9555 24.9375 21.8125 24.9375 C 23.3205 24.9375 24.64625 24.676 25.65625 24.375 C 25.08525 27.578 25.90475 31.14925 26.09375 31.90625 L 26 44 C 25.998 44.284 26.1015 44.559 26.3125 44.75 C 26.5445 44.96 27.89375 46 31.59375 46 C 34.83775 46 36.70325 43.722 36.78125 43.625 C 37.00525 43.345 37.0695 42.958 36.9375 42.625 L 33 32.6875 C 34.611 31.2515 39 26.851 39 21.5 C 39 19.837 38.82975 17.94975 38.71875 17.09375 C 38.84975 16.94275 39.16625 16.691 39.40625 16.5 C 40.35425 15.742 41.782 14.589 42 12.625 C 42.10611 11.83201 42.596414 11.002239 42.9375 10.53125 C 43.115628 10.508455 43.232667 10.510906 43.5 10.46875 C 44.605 10.29375 46.44 10 49 10 C 49.553 10 50 9.552 50 9 C 50 8.448 49.553 8 49 8 C 46.283 8 44.2745 8.327 43.1875 8.5 C 42.8725 8.549 42.50725 8.59275 42.40625 8.59375 C 42.14425 8.59375 41.79575 8.39625 41.34375 8.15625 C 40.41575 7.66225 39.131 7 37 7 z M 37.5 10.5 C 37.832 10.5 38.09375 10.76275 38.09375 11.09375 C 38.09375 11.42475 37.832 11.6875 37.5 11.6875 C 37.168 11.6875 36.90625 11.42475 36.90625 11.09375 C 36.90625 10.76175 37.168 10.5 37.5 10.5 z"></path></svg>