<svg xmlns="http://www.w3.org/2000/svg" width="50" height="50" viewBox="0 0 50 50">    <path d="M 15.5625 0 C 15.43425 -0.02128125 15.291 -0.001 15.15625 0.03125 C 14.61925 0.16025 14.3085 0.712 14.4375 1.25 C 14.6905 2.298 15.49825 3.80625 17.03125 5.03125 L 17.5625 4.09375 L 17.59375 4 L 17.71875 3.84375 C 17.83275 3.67275 17.9375 3.50475 18.0625 3.34375 C 16.7445 2.19675 16.399 0.87525 16.375 0.78125 C 16.27825 0.3785 15.94725 0.06384375 15.5625 0 z M 34.4375 0 C 34.053594 0.0646875 33.72175 0.3785 33.625 0.78125 C 33.619 0.80525 33.26725 2.16575 31.90625 3.34375 C 32.00525 3.47475 32.0955 3.612 32.1875 3.75 C 32.3115 3.937 32.4005 4.1025 32.4375 4.1875 L 32.875 5.15625 C 34.49 3.91625 35.3035 2.29575 35.5625 1.21875 C 35.6915 0.68075 35.38075 0.16025 34.84375 0.03125 C 34.7105 0 34.565469 -0.0215625 34.4375 0 z M 25 1.90625 C 22.778 1.90625 20.628 3.0595 19.375 4.9375 C 19.363 4.9555 19.35475 4.982 19.34375 5 L 30.59375 5 C 30.57075 4.948 30.56325 4.89275 30.53125 4.84375 C 29.30225 2.99975 27.234 1.90625 25 1.90625 z M 6.9375 5 C 6.8078594 5.0081719 6.68625 5.032 6.5625 5.09375 C 6.0685 5.34175 5.84675 5.9435 6.09375 6.4375 L 8.59375 11.4375 C 8.69275 11.6345 8.8635 11.81025 9.0625 11.90625 L 10.1875 12.4375 C 10.4395 11.7615 10.72 11.184 11 10.625 L 10.25 10.25 L 7.90625 5.5625 C 7.72025 5.192 7.3264219 4.9754844 6.9375 5 z M 43.0625 5 C 42.673859 4.9752031 42.27975 5.192 42.09375 5.5625 L 39.75 10.25 L 38.96875 10.625 C 39.25075 11.182 39.52225 11.79575 39.78125 12.46875 L 40.9375 11.90625 C 41.1365 11.81025 41.30725 11.6355 41.40625 11.4375 L 43.90625 6.4375 C 44.15525 5.9455 43.9315 5.34175 43.4375 5.09375 C 43.31425 5.032 43.192047 5.0082656 43.0625 5 z M 17.9375 7 C 17.7825 7.004 14.71 7.16275 12.5 12.09375 C 12.456 12.23375 12.418 12.354 12.375 12.5 C 12.99 12.881 13.4255 13.08775 13.4375 13.09375 C 13.5035 13.12475 13.567 13.17375 13.625 13.21875 C 13.635 13.22475 16.234 15 25 15 C 33.767 15 36.38125 13.2055 36.40625 13.1875 C 36.44525 13.1605 36.48925 13.147 36.53125 13.125 C 36.54225 13.12 36.98975 12.86375 37.59375 12.46875 C 37.55775 12.35475 37.50575 12.26625 37.46875 12.15625 C 35.25475 7.26225 32.4555 7.011 32.0625 7 L 17.9375 7 z M 1.125 13 C 0.870625 12.97175 0.5905 13.04625 0.375 13.21875 C -0.056 13.56275 -0.12625 14.194 0.21875 14.625 L 4.21875 19.625 C 4.41275 19.868 4.703 20 5 20 C 5.133 20 5.28025 19.96125 5.40625 19.90625 C 5.4683131 19.879713 6.2873499 19.491891 7.21875 19.0625 C 5.7588145 21.668419 5 24.812173 5 28.3125 C 5 32.039908 5.9984377 35.307752 7.59375 38.09375 L 6.6875 42.90625 L 1.25 46.5625 C 0.792 46.8715 0.66075 47.51075 0.96875 47.96875 C 1.16175 48.25575 1.4905 48.40625 1.8125 48.40625 C 2.0045 48.40625 2.17175 48.33475 2.34375 48.21875 L 8.15625 44.34375 C 8.37825 44.19375 8.54475 43.9505 8.59375 43.6875 L 9.1875 40.46875 C 13.55581 46.201717 20.278638 49.383562 24 49.90625 L 24 20 C 24 19.448 24.448 19 25 19 C 25.552 19 26 19.448 26 20 L 26 49.90625 C 29.555992 49.389705 36.382677 46.398413 40.8125 40.59375 L 41.40625 43.6875 C 41.45625 43.9505 41.62075 44.19475 41.84375 44.34375 L 47.65625 48.21875 C 47.82725 48.33375 47.9965 48.40625 48.1875 48.40625 C 48.5095 48.40625 48.83925 48.25575 49.03125 47.96875 C 49.33925 47.51075 49.209 46.8715 48.75 46.5625 L 43.3125 42.90625 L 42.40625 38.1875 C 43.982095 35.410406 45 32.138307 45 28.3125 C 45 24.805627 44.216789 21.676957 42.75 19.0625 C 43.702251 19.502245 44.53037 19.879335 44.59375 19.90625 C 44.72075 19.96125 44.867 20 45 20 C 45.297 20 45.58725 19.868 45.78125 19.625 L 49.78125 14.625 C 50.12625 14.194 50.056 13.56375 49.625 13.21875 C 49.193 12.87275 48.56475 12.944 48.21875 13.375 L 44.6875 17.78125 C 43.630085 17.308688 41.580583 16.363161 39.9375 15.4375 C 39.493933 15.017626 39.029342 14.619486 38.53125 14.25 C 38.04825 14.559 37.68125 14.76375 37.53125 14.84375 C 36.94325 15.24675 33.878 17 25 17 C 16.202 17 13.128 15.299 12.5 14.875 C 12.335 14.794 11.9385 14.58325 11.4375 14.28125 C 10.964334 14.63064 10.517727 15.010453 10.09375 15.40625 C 8.4448603 16.340047 6.3788945 17.304675 5.3125 17.78125 L 1.78125 13.375 C 1.60925 13.1595 1.379375 13.02825 1.125 13 z M 15 21 C 17.209 21 19 22.791 19 25 C 19 27.209 17.209 29 15 29 C 12.791 29 11 27.209 11 25 C 11 22.791 12.791 21 15 21 z M 35 21 C 37.209 21 39 22.791 39 25 C 39 27.209 37.209 29 35 29 C 32.791 29 31 27.209 31 25 C 31 22.791 32.791 21 35 21 z M 17.5 33.8125 C 18.881 33.8125 20 34.9325 20 36.3125 C 20 37.6935 18.881 38.8125 17.5 38.8125 C 16.119 38.8125 15 37.6935 15 36.3125 C 15 34.9325 16.119 33.8125 17.5 33.8125 z M 32.5 33.8125 C 33.881 33.8125 35 34.9325 35 36.3125 C 35 37.6935 33.881 38.8125 32.5 38.8125 C 31.119 38.8125 30 37.6935 30 36.3125 C 30 34.9325 31.119 33.8125 32.5 33.8125 z"></path></svg>