<svg xmlns="http://www.w3.org/2000/svg" width="50" height="50" viewBox="0 0 50 50">    <path d="M 8.09375 0 C 7.02075 0 1 2.61 1 7 C 1 9.082 2.07275 11.26175 3.09375 12.84375 C 3.27575 12.24375 3.462 11.649 3.625 11.125 C 4.961 6.631 8.582 3.13275 13.125 1.84375 C 11.672 0.92275 9.78275 0 8.09375 0 z M 41.90625 0 C 40.21525 0 38.329 0.92175 36.875 1.84375 C 41.302 3.13075 44.922 6.61175 46.375 11.09375 C 46.541 11.62875 46.72225 12.23075 46.90625 12.84375 C 47.92825 11.26075 49 9.082 49 7 C 49 2.61 42.98025 0 41.90625 0 z M 25 1.40625 C 23.965 1.40625 20.71325 2.064 14.15625 3.625 C 10.02725 4.603 6.72025 7.71875 5.53125 11.71875 C 5.26825 12.56475 4.95875 13.66125 4.59375 14.90625 C 5.11075 14.98925 5.6595 15.04875 6.0625 15.09375 C 6.9015 15.08575 7.6795 14.889 8.6875 14.625 C 10.2415 14.217 12.1755 13.6875 15.1875 13.6875 C 17.5305 13.6875 19.59375 16.94725 19.59375 18.90625 C 19.59375 20.46025 18.69875 25.07175 18.59375 25.59375 C 18.55175 25.80375 18.44025 26.01325 18.28125 26.15625 C 17.24025 27.10025 14.58225 29.94275 14.40625 32.09375 L 17.09375 37.34375 C 17.34375 37.83575 17.14925 38.4365 16.65625 38.6875 C 16.51125 38.7605 16.3405 38.8125 16.1875 38.8125 C 15.8235 38.8125 15.4895 38.597 15.3125 38.25 L 12.5 32.75 C 12.43 32.608 12.40625 32.4695 12.40625 32.3125 C 12.40625 29.2205 15.6815 25.834 16.6875 24.875 C 16.8745 23.919 17.169 22.3045 17.375 20.9375 C 16.37 20.9245 14.8895 20.7705 13.6875 20.0625 C 12.2105 19.1935 10.78125 17.2405 10.15625 16.3125 C 9.82625 16.3935 9.52575 16.4825 9.21875 16.5625 C 8.09675 16.8575 7.117 17.09375 6 17.09375 C 5.963 17.09375 5.94225 17.09775 5.90625 17.09375 C 5.76025 17.07775 4.88125 16.98875 4.03125 16.84375 C 2.73125 21.44675 1.3125 27.14475 1.3125 30.09375 C 1.3125 30.25375 1.33225 30.4205 1.40625 30.5625 C 9.01625 45.2755 24.08175 49.78475 24.71875 49.96875 C 24.80975 49.99475 24.906 50 25 50 C 25.102 50 25.2145 49.99875 25.3125 49.96875 C 25.9365 49.77175 40.6605 44.98075 48.5625 30.59375 C 48.6435 30.44675 48.6875 30.26175 48.6875 30.09375 C 48.6875 27.20675 47.3405 21.679 46.0625 17.125 C 45.2945 17.224 44.33975 17.14475 43.84375 17.09375 C 42.74875 17.08575 41.7915 16.8525 40.6875 16.5625 C 40.4125 16.4905 40.13675 16.41675 39.84375 16.34375 C 39.22675 17.29575 37.83325 19.2005 36.28125 20.0625 C 35.05625 20.7835 33.53325 20.9345 32.53125 20.9375 C 32.73725 22.3035 33.03275 23.921 33.21875 24.875 C 34.22475 25.834 37.5 29.2205 37.5 32.3125 C 37.5 32.4645 37.47425 32.613 37.40625 32.75 L 34.90625 37.84375 C 34.73325 38.19775 34.37 38.40625 34 38.40625 C 33.853 38.40625 33.7035 38.3835 33.5625 38.3125 C 33.0665 38.0705 32.85075 37.46475 33.09375 36.96875 L 35.5 32.09375 C 35.329 29.94275 32.666 27.10125 31.625 26.15625 C 31.466 26.01225 31.3545 25.80375 31.3125 25.59375 C 31.2085 25.07175 30.3125 20.46025 30.3125 18.90625 C 30.3125 16.94725 32.3445 13.6875 34.6875 13.6875 C 37.6985 13.6875 39.6335 14.217 41.1875 14.625 C 42.2165 14.896 43.04725 15.09375 43.90625 15.09375 C 43.94125 15.09375 43.965 15.08975 44 15.09375 C 44.513 15.14775 45.094 15.17125 45.5 15.15625 C 45.104 13.79825 44.7195 12.5975 44.4375 11.6875 C 43.1415 7.6915 39.86575 4.603 35.84375 3.625 C 29.28875 2.063 26.036 1.40625 25 1.40625 z M 17.65625 4.03125 C 18.770375 3.990375 19.67525 4.43525 19.90625 5.1875 C 20.21425 6.1905 19.17775 7.388 17.59375 7.875 C 16.01075 8.362 14.4965 7.9405 14.1875 6.9375 C 13.8785 5.9345 14.916 4.737 16.5 4.25 C 16.896 4.12825 17.284875 4.044875 17.65625 4.03125 z M 31.84375 4.09375 C 32.361549 4.0387188 32.9685 4.098625 33.5625 4.28125 C 35.1465 4.76825 36.183 5.997 35.875 7 C 35.567 8.003 34.0215 8.4245 32.4375 7.9375 C 30.8535 7.4505 29.816 6.22175 30.125 5.21875 C 30.318125 4.591875 30.980752 4.1854688 31.84375 4.09375 z M 25 7 C 26.104 7 27 7.671 27 8.5 C 27 9.329 26.104 10 25 10 C 23.896 10 23 9.329 23 8.5 C 23 7.671 23.896 7 25 7 z M 9.84375 7.8125 C 10.185885 7.7705 10.5085 7.835875 10.75 8.03125 C 11.394 8.55325 11.2365 9.763 10.4375 10.75 C 9.6385 11.737 8.48775 12.11575 7.84375 11.59375 C 7.19975 11.07275 7.325 9.862 8.125 8.875 C 8.624375 8.258125 9.2735254 7.8825 9.84375 7.8125 z M 39.78125 7.875 C 40.419219 7.8075 41.2125 8.19725 41.8125 8.9375 C 42.6125 9.9245 42.769 11.1665 42.125 11.6875 C 41.481 12.2085 40.3 11.83075 39.5 10.84375 C 38.7 9.85675 38.57475 8.61475 39.21875 8.09375 C 39.37975 7.9635 39.568594 7.8975 39.78125 7.875 z M 25 14 C 25.553 14 26 14.448 26 15 C 26 15.552 25.553 16 25 16 C 24.448 16 24 15.552 24 15 C 24 14.448 24.448 14 25 14 z M 15.1875 15.6875 C 14.0765 15.6875 13.1415 15.762 12.3125 15.875 C 12.9775 16.77 13.91275 17.86975 14.71875 18.34375 C 15.62075 18.87475 16.83575 18.9455 17.59375 18.9375 C 17.59375 18.9265 17.59375 18.91725 17.59375 18.90625 C 17.59375 17.77725 16.1765 15.6875 15.1875 15.6875 z M 34.6875 15.6875 C 33.6985 15.6875 32.3125 17.77625 32.3125 18.90625 C 32.3125 18.91625 32.3125 18.9265 32.3125 18.9375 C 33.0565 18.9545 34.33625 18.90075 35.28125 18.34375 C 36.13825 17.86675 37.0455 16.79225 37.6875 15.90625 C 36.8305 15.78225 35.8525 15.6875 34.6875 15.6875 z M 44.25 19.625 C 45.058336 19.657457 45.885625 20.4855 46.1875 21.65625 C 46.5325 22.99325 46.06525 24.265 45.15625 24.5 C 44.24725 24.735 43.25025 23.837 42.90625 22.5 C 42.56025 21.163 42.99725 19.89125 43.90625 19.65625 C 44.019875 19.627 44.134523 19.620363 44.25 19.625 z M 5.75 19.6875 C 5.8654492 19.682838 5.980125 19.6895 6.09375 19.71875 C 7.00275 19.95275 7.47 21.2255 7.125 22.5625 C 6.78 23.8995 5.75375 24.7965 4.84375 24.5625 C 3.93375 24.3285 3.4675 23.05575 3.8125 21.71875 C 4.114375 20.548875 4.9418555 19.720135 5.75 19.6875 z M 4.5625 27.5 C 5.5425625 27.556203 6.661 28.3635 7.375 29.625 C 8.327 31.309 8.19975 33.1865 7.09375 33.8125 C 5.98775 34.4375 4.327 33.58925 3.375 31.90625 C 2.424 30.22325 2.55125 28.34375 3.65625 27.71875 C 3.93275 27.5625 4.2358125 27.481266 4.5625 27.5 z M 45.4375 27.5625 C 45.764266 27.54375 46.06725 27.625 46.34375 27.78125 C 47.44975 28.40625 47.576 30.2545 46.625 31.9375 C 45.674 33.6195 44.01225 34.5 42.90625 33.875 C 41.80025 33.25 41.674 31.3705 42.625 29.6875 C 43.33825 28.42525 44.457203 27.61875 45.4375 27.5625 z M 22 31 C 22.788 31 24.132 31.67525 25 32.15625 C 25.868 31.67525 27.212 31 28 31 C 29.137 31 30.299 32.224 30.75 32.75 C 31.108 33.169 31.07425 33.79725 30.65625 34.15625 C 30.46825 34.31825 30.231 34.40625 30 34.40625 C 29.719 34.40625 29.448 34.2935 29.25 34.0625 C 28.825 33.5695 28.20075 33.049 27.96875 33 C 27.69075 33.026 26.507 33.56125 25.5 34.15625 C 25.187 34.34225 24.813 34.34225 24.5 34.15625 C 23.492 33.56125 22.325 33.023 22 33 C 21.815 33.046 21.175 33.5695 20.75 34.0625 C 20.39 34.4815 19.76275 34.51725 19.34375 34.15625 C 18.92375 33.79825 18.891 33.169 19.25 32.75 C 19.7 32.224 20.863 31 22 31 z M 25 37.1875 C 25.552 37.1875 26 37.6345 26 38.1875 C 26 38.5525 26.13225 38.84275 26.40625 39.09375 C 27.61525 40.20375 30.95825 40.18375 32.03125 40.09375 C 32.58225 40.04475 33.04775 40.48025 33.09375 41.03125 C 33.14075 41.58025 32.7375 42.04775 32.1875 42.09375 C 31.6755 42.13775 27.10025 42.4645 25.03125 40.5625 C 25.005139 40.588287 24.965 40.600833 24.9375 40.625 C 23.5075 41.921 20.92325 42.15625 19.28125 42.15625 C 18.52025 42.15625 17.9735 42.10875 17.8125 42.09375 C 17.2635 42.03975 16.85125 41.55 16.90625 41 C 16.96025 40.451 17.456 40.04575 18 40.09375 C 19.585 40.24575 22.50975 40.13925 23.59375 39.15625 C 23.88175 38.89225 24 38.5825 24 38.1875 C 24 37.6345 24.448 37.1875 25 37.1875 z"></path></svg>