<svg xmlns="http://www.w3.org/2000/svg" viewBox="0 0 26 26" enable-background="new 0 0 26 26">    <path style="text-indent:0;text-align:start;line-height:normal;text-transform:none;block-progression:tb;-inkscape-font-specification:Bitstream Vera Sans" d="M 4.5625 0.96875 C 3.7246094 0.8984375 2.84375 1.34375 2.09375 2.09375 C 0.89375 3.29375 0.4875 4.8 1.6875 6 C 1.9275 6.24 2.23365 6.4121 2.53125 6.5625 C 0.94792903 8.7461505 0 11.351081 0 14 C 0 18.383333 2.6792709 21.354086 6.4375 22.75 L 6.4375 22.71875 C 7.3094342 23.067524 8.1103497 23.608275 8.84375 24.25 C 10.002538 25.29291 11.455655 25.90625 13.09375 25.90625 C 14.779464 25.90625 16.198227 25.172669 17.3125 24.28125 A 1.0001 1.0001 0 0 0 17.34375 24.25 C 18.11267 23.577195 18.939405 22.974428 19.6875 22.75 A 1.0001 1.0001 0 0 0 19.78125 22.71875 C 23.340601 21.316582 26 18.383333 26 14 C 26 11.365203 25.067978 8.7703406 23.5 6.59375 C 23.787351 6.4269593 24.079579 6.2329213 24.3125 6 C 25.5125 4.8 25.10625 3.2875 23.90625 2.1875 C 22.70625 0.9875 21.2 0.6125 20 1.8125 C 19.734016 2.0784836 19.491778 2.4009289 19.3125 2.75 C 17.447218 1.6545881 15.291989 1 13 1 C 10.708011 1 8.5527818 1.6545881 6.6875 2.75 C 6.5111804 2.3567107 6.295082 1.982582 6 1.6875 C 5.55 1.2375 5.0652344 1.0109375 4.5625 0.96875 z M 13 3 C 18.993939 3 24 8.6 24 14 C 24 17.57861 22.110352 19.640594 19.125 20.84375 C 19.09325 20.85655 19.06324 20.8624 19.03125 20.875 C 17.840314 21.257054 16.865541 22.017672 16.0625 22.71875 C 16.0507 22.72815 16.04308 22.74065 16.03125 22.75 C 15.154959 23.44289 14.193193 23.90625 13.09375 23.90625 C 11.931845 23.90625 10.997462 23.50709 10.15625 22.75 C 9.2896503 21.991725 8.2843158 21.326226 7.15625 20.875 C 3.9144791 19.670914 2 17.616667 2 14 C 2 8.6 7.0060606 3 13 3 z M 9.6875 11.03125 C 9.0125 11.03125 8.2875 11.2 7.6875 11.5 C 5.8875 12.4 5.20625 14.49375 6.90625 16.09375 C 8.60625 17.69375 10.6 17.1125 11.5 15.3125 C 12.1 14.0125 12.20625 12.29375 11.40625 11.59375 C 11.00625 11.19375 10.3625 11.03125 9.6875 11.03125 z M 16.5625 11.15625 C 15.7625 11.13125 15.0375 11.3375 14.6875 11.6875 C 13.9875 12.3875 13.79375 14.70625 15.09375 15.90625 C 16.39375 17.20625 18.3125 17.3125 19.3125 16.3125 C 20.3125 15.3125 20.20625 13.39375 18.90625 12.09375 C 18.25625 11.44375 17.3625 11.18125 16.5625 11.15625 z M 10 12 C 10.6 12 11 12.4 11 13 C 11 13.6 10.6 14 10 14 C 9.4 14 9 13.6 9 13 C 9 12.4 9.4 12 10 12 z M 16 12 C 16.6 12 17 12.4 17 13 C 17 13.6 16.6 14 16 14 C 15.4 14 15 13.6 15 13 C 15 12.4 15.4 12 16 12 z M 11.34375 18.96875 C 11.127539 18.986328 11 19.0875 11 19.3125 C 11 19.9125 11.9 21.09375 13 21.09375 C 14.1 21.09375 15 19.9125 15 19.3125 C 15 18.8125 14.1 19.09375 13 19.09375 C 12.3125 19.09375 11.704102 18.939453 11.34375 18.96875 z" color="#000" overflow="visible" enable-background="accumulate" font-family="Bitstream Vera Sans"></path></svg>