<svg xmlns="http://www.w3.org/2000/svg" version="1" width="24" height="24" viewBox="0 0 24 24">    <path d="M 15.09375 0 C 13.785938 -0.075 11.20625 0.5375 9.40625 1.8125 C 8.3375 2.6 7.4062744 3.4079102 7 4.1875 C 6.6059552 4.077083 6.2095588 4 5.8125 4 C 5.0125 4 4.29375 4.2 3.59375 4.5 C 1.79375 5.4 2.9605947e-16 8.00625 0 9.90625 C 0 11.00625 0.5125 12 4.3125 12 C 4.3576256 12 4.3930542 12.000549 4.4375 12 C 3.0087891 14.731641 5.2875 15.38125 4.5 18.09375 C 4.1 19.49375 4.2 21.29375 4 21.59375 C 3.5 22.19375 1 21.29375 1 23.59375 C 1 23.99375 1.6125 24 4.3125 24 C 5.5125 24 6.5 20.6 8 19 C 6.8 12.9 12.7875 12.9875 14.1875 15.6875 C 11.2875 14.1875 9 15.9125 9 17.8125 C 9 20.6125 12.8 21.3 14 21.5 C 7 21.5 7 22.8 7 23.5 C 7 24 8.0125 24 9.3125 24 C 10.9125 24 12.9125 23.8125 14.3125 23.8125 C 15.7125 23.8125 17.70625 24 18.90625 24 C 20.20625 24 20.09375 22.39375 19.59375 21.59375 C 19.285941 21.022105 19.737451 20.65577 20.3125 20.15625 C 20.781561 20.684602 21.692187 21 22.5 21 C 23.3 21 24 20.3 24 19.5 C 24 18.7 23.30625 18 22.40625 18 C 22.226264 18 22.027874 18.027647 21.84375 18.0625 C 21.938904 17.747978 22 17.402998 22 17 C 22 14.9 21.30625 11.69375 17.90625 10.09375 C 14.70625 8.59375 10.2 9.9 10 7.5 C 10 7.058908 9.8757724 6.662974 9.6875 6.28125 C 10.307504 6.0385133 11.10283 5.5681604 12.1875 5 C 14.2875 4 17.1 3.89375 17 3.09375 C 16.939111 2.3021959 15.649983 1.8533244 14 2 C 15.274718 1.5478811 16.289456 1.1336564 15.90625 0.3125 C 15.83125 0.1375 15.529687 0.025 15.09375 0 z M 4 6.90625 C 4.6 6.90625 5.09375 7.4 5.09375 8 C 5.09375 8.6 4.6 9.09375 4 9.09375 C 3.4 9.09375 2.90625 8.6 2.90625 8 C 2.90625 7.4 3.4 6.90625 4 6.90625 z"></path></svg>