<svg xmlns="http://www.w3.org/2000/svg" viewBox="0 0 26 26" enable-background="new 0 0 26 26">    <path style="text-indent:0;text-align:start;line-height:normal;text-transform:none;block-progression:tb;-inkscape-font-specification:Bitstream Vera Sans" d="M 4 0 C 1.8 0 0 1.8 0 4 L 0 16.8125 A 1.0001 1.0001 0 0 0 0 17 L 0 24 C 0 24.522222 0.18546949 25.060469 0.5625 25.4375 C 0.93953051 25.814531 1.4777778 26 2 26 L 24 26 C 24.522222 26 25.060469 25.814531 25.4375 25.4375 C 25.814531 25.060469 26 24.522222 26 24 L 26 17 A 1.0001 1.0001 0 0 0 26 16.90625 L 26 12 C 26 9.8 24.2 8 22 8 L 18.5 8 C 17 8 15.60625 7.1125 14.90625 5.8125 L 13.09375 2.1875 C 12.39375 0.8875 11 2.9605947e-16 9.5 0 L 4 0 z M 2 18 L 5 18 L 5 22 L 7 22 L 7 18 L 8 18 L 8 22 L 10 22 L 10 18 L 11 18 L 11 22 L 13 22 L 13 18 L 16 18 L 16 22 L 18 22 L 18 18 L 19 18 L 19 22 L 21 22 L 21 18 L 24 18 L 24 24 L 2 24 L 2 18 z" color="#000" overflow="visible" enable-background="accumulate" font-family="Bitstream Vera Sans"></path></svg>