<svg xmlns="http://www.w3.org/2000/svg" width="26" height="26" viewBox="0 0 26 26">    <path d="M 18.1875 0 C 18.1875 5.9211895e-16 18.21525 2.548 18.90625 3.75 C 19.59225 4.949 20.28275 4.84525 20.84375 4.53125 C 21.40475 4.21625 21.938 3.7645 21.25 2.5625 C 20.56 1.3615 18.1875 0 18.1875 0 z M 24.5625 2.03125 C 24.5625 2.03125 22.50125 3.496 21.90625 4.75 C 21.31725 5.997 21.794 6.49825 22.375 6.78125 C 22.953 7.05925 23.655 7.251 24.25 6 C 24.841 4.75 24.5625 2.03125 24.5625 2.03125 z M 19.03125 5.375 C 17.698547 5.4209844 16.1875 5.8125 16.1875 5.8125 C 16.1875 5.8125 18.0665 7.59875 19.4375 7.96875 C 20.7975 8.33775 21.201 7.8085 21.375 7.1875 C 21.547 6.5715 21.616 5.83875 20.25 5.46875 C 19.90875 5.3765 19.475484 5.3596719 19.03125 5.375 z M 26 6.96875 C 26 6.96875 23.61375 7.8775 22.71875 8.9375 C 21.82875 9.9905 22.138 10.579 22.625 11 C 23.11 11.418 23.75925 11.77475 24.65625 10.71875 C 25.55025 9.66275 26 6.96875 26 6.96875 z M 16.625 8.625 C 16.625 8.625 17.98675 10.8475 19.21875 11.5625 C 20.44575 12.2755 20.95225 11.83525 21.28125 11.28125 C 21.60925 10.72825 21.88525 10.05975 20.65625 9.34375 C 19.42425 8.62975 16.625 8.625 16.625 8.625 z M 16.4375 10.90625 C 16.4375 10.90625 16.872 13.47275 17.75 14.59375 C 18.626 15.71075 19.3035 15.48975 19.8125 15.09375 C 20.3195 14.70075 20.78625 14.1835 19.90625 13.0625 C 19.02725 11.9455 16.4375 10.90625 16.4375 10.90625 z M 25.5625 12.5 C 25.5625 12.5 23.0135 12.52775 21.8125 13.21875 C 20.6155 13.90675 20.71625 14.59525 21.03125 15.15625 C 21.34825 15.71525 21.82925 16.28175 23.03125 15.59375 C 24.23225 14.90375 25.5625 12.5 25.5625 12.5 z M 15.40625 13.375 C 15.40625 13.375 15.24275 15.98825 15.84375 17.28125 C 16.43875 18.56725 17.1005 18.516 17.6875 18.25 C 18.2715 17.983 18.88225 17.57325 18.28125 16.28125 C 17.68525 14.99125 15.40625 13.375 15.40625 13.375 z M 13.53125 15.25 C 13.53125 15.25 12.6925 17.721 12.9375 19.125 C 13.1805 20.521 13.864 20.63425 14.5 20.53125 C 15.132 20.42325 15.8075 20.18125 15.5625 18.78125 C 15.3165 17.37925 13.53125 15.25 13.53125 15.25 z M 20.71875 17 C 20.521861 17.000287 20.327125 17.032125 20.15625 17.0625 C 18.79925 17.3055 18.67325 17.95775 18.78125 18.59375 C 18.89025 19.22675 19.134 19.9275 20.5 19.6875 C 21.858 19.4435 23.9375 17.65625 23.9375 17.65625 C 23.9375 17.65625 22.096971 16.99799 20.71875 17 z M 10.8125 17.3125 C 10.8125 17.3125 9.74575 19.67175 9.84375 21.09375 C 9.94675 22.50575 10.607 22.7245 11.25 22.6875 C 11.891 22.6445 12.57075 22.4825 12.46875 21.0625 C 12.36975 19.6455 10.8125 17.3125 10.8125 17.3125 z M 16.90625 20.1875 C 15.900615 20.169617 15.62225 20.69175 15.53125 21.25 C 15.43425 21.883 15.466 22.6035 16.875 22.8125 C 18.28 23.0225 20.875 22.03125 20.875 22.03125 C 20.875 22.03125 18.784 20.42975 17.375 20.21875 C 17.199625 20.1925 17.049912 20.190055 16.90625 20.1875 z M 13 22.5625 C 12.299875 22.537891 12.0095 22.95175 11.84375 23.40625 C 11.62375 24.01025 11.49975 24.7105 12.84375 25.1875 C 14.18175 25.6605 16.9375 25.15625 16.9375 25.15625 C 16.9375 25.15625 15.18575 23.227 13.84375 22.75 C 13.5095 22.63175 13.233375 22.570703 13 22.5625 z M 10.71875 23.4375 C 10.71875 23.4375 4.276 25.9665 0.25 25.0625 C -0.066 25.4385 0.6875 26 0.6875 26 C 0.6875 26 6.54575 26.0885 10.71875 23.4375 z"></path></svg>