<svg xmlns="http://www.w3.org/2000/svg" width="50" height="50" viewBox="0 0 50 50">    <path d="M 43.96875 0.0625 C 43.414828 0.068125 42.905 0.2825 42.5 0.6875 L 12.34375 30.9375 L 19.0625 37.65625 L 49.21875 7.5 C 49.74375 6.975 49.94425 6.226 49.78125 5.5 C 49.65525 4.687 49.2075 3.4645 47.8125 2.1875 C 46.5035 0.8785 45.31525 0.348 44.53125 0.125 C 44.3455 0.0785 44.153391 0.060625 43.96875 0.0625 z M 42 6 C 43.104 6 44 6.896 44 8 C 44 9.104 43.104 10 42 10 C 40.896 10 40 9.104 40 8 C 40 6.896 40.896 6 42 6 z M 37 11 C 38.104 11 39 11.896 39 13 C 39 14.104 38.104 15 37 15 C 35.896 15 35 14.104 35 13 C 35 11.896 35.896 11 37 11 z M 32 16 C 33.104 16 34 16.896 34 18 C 34 19.104 33.104 20 32 20 C 30.896 20 30 19.104 30 18 C 30 16.896 30.896 16 32 16 z M 27 21 C 28.104 21 29 21.896 29 23 C 29 24.104 28.104 25 27 25 C 25.896 25 25 24.104 25 23 C 25 21.896 25.896 21 27 21 z M 10.90625 32.3125 L 0.78125 42.5 C 0.25625 43.024 0.05575 43.774 0.21875 44.5 C 0.34475 45.313 0.7925 46.5355 2.1875 47.8125 C 3.4955 49.1215 4.68375 49.652 5.46875 49.875 C 5.64675 49.919 5.823 49.9375 6 49.9375 C 6.563 49.9375 7.093 49.7215 7.5 49.3125 L 17.6875 39.09375 L 10.90625 32.3125 z M 10.1875 37.1875 L 7.5 41.3125 L 8.6875 42.5 L 12.8125 39.8125 L 7.1875 45.5 L 4.5 42.8125 L 10.1875 37.1875 z"></path></svg>