<svg xmlns="http://www.w3.org/2000/svg" width="24" height="24" viewBox="0 0 24 24">    <path d="M 12 0 C 9.791 0 8 1.791 8 4 C 8 5.3075885 8.6234273 6.4576085 9.59375 7.1875 C 8.2546536 7.0253037 6.6422048 6.7849131 5.21875 6.5 L 4.15625 9.9375 C 5.14125 10.1485 6.3385 10.41925 7.4375 10.65625 C 7.7455 10.72225 8 11.04175 8 11.84375 L 8 13.1875 C 8 13.8305 6.85975 18.18025 6.09375 20.40625 L 9.65625 21.59375 C 10.24125 20.28575 11.2025 18.17575 11.4375 17.59375 C 11.7845 16.73175 12.25675 16.807 12.59375 17.625 C 12.82175 18.177 13.75875 20.28175 14.34375 21.59375 L 17.90625 20.40625 C 17.14125 18.17925 16 13.8285 16 13.1875 L 16 11.84375 C 16 11.01375 16.2495 10.72425 16.5625 10.65625 C 17.6575 10.42025 18.86275 10.1475 19.84375 9.9375 L 18.78125 6.5 C 17.357795 6.7849131 15.745243 7.0253037 14.40625 7.1875 C 15.376573 6.4576085 16 5.3075885 16 4 C 16 1.791 14.209 0 12 0 z M 10.5 2.71875 C 10.931 2.71875 11.28125 3.069 11.28125 3.5 C 11.28125 3.931 10.931 4.28125 10.5 4.28125 C 10.069 4.28125 9.71875 3.931 9.71875 3.5 C 9.71875 3.068 10.069 2.71875 10.5 2.71875 z M 13.5 2.71875 C 13.931 2.71875 14.28125 3.069 14.28125 3.5 C 14.28125 3.931 13.932 4.28125 13.5 4.28125 C 13.068 4.28125 12.71875 3.931 12.71875 3.5 C 12.71875 3.068 13.069 2.71875 13.5 2.71875 z M 10.375 5.59375 C 10.491 5.52675 10.64875 5.5695 10.71875 5.6875 C 10.73275 5.7095 11.068 6.25 12 6.25 C 12.932 6.25 13.26725 5.7105 13.28125 5.6875 C 13.35325 5.5715 13.509 5.52275 13.625 5.59375 C 13.743 5.66475 13.78775 5.8195 13.71875 5.9375 C 13.69875 5.9695 13.231 6.75 12 6.75 C 10.769 6.75 10.30125 5.9695 10.28125 5.9375 C 10.21125 5.8185 10.256 5.66375 10.375 5.59375 z M 2.625 6 C 1.9156875 6.0800625 1.27625 6.565 1.0625 7.28125 C 0.7775 8.23425 1.3405 9.25025 2.3125 9.53125 C 2.4775 9.57825 2.819 9.654 3.25 9.75 L 4.3125 6.3125 C 3.9595 6.2315 3.63775 6.1465 3.34375 6.0625 C 3.1015 5.99275 2.8614375 5.9733125 2.625 6 z M 21 6 C 20.878516 6.0100039 20.777875 6.0275 20.65625 6.0625 C 20.36225 6.1475 20.0405 6.2315 19.6875 6.3125 L 20.75 9.75 C 21.181 9.654 21.5215 9.57925 21.6875 9.53125 C 22.6595 9.25025 23.2225 8.23425 22.9375 7.28125 C 22.688125 6.4465 21.850391 5.9299727 21 6 z M 12 9 C 12.552 9 13 9.448 13 10 C 13 10.552 12.552 11 12 11 C 11.448 11 11 10.552 11 10 C 11 9.448 11.448 9 12 9 z M 12 13 C 12.552 13 13 13.448 13 14 C 13 14.552 12.552 15 12 15 C 11.448 15 11 14.552 11 14 C 11 13.448 11.448 13 12 13 z M 5.8125 21.25 C 5.7135 21.534 5.65625 21.71875 5.65625 21.71875 C 5.39025 22.67775 5.9615 23.6755 6.9375 23.9375 C 7.0995 23.9815 7.24625 24 7.40625 24 C 8.21325 24 8.9645 23.4885 9.1875 22.6875 C 9.1875 22.6875 9.2435 22.5905 9.3125 22.4375 L 5.8125 21.25 z M 18.1875 21.25 L 14.6875 22.4375 L 14.8125 22.6875 C 15.0345 23.4875 15.78675 24 16.59375 24 C 16.75275 24 16.9015 23.9805 17.0625 23.9375 C 18.0395 23.6755 18.61075 22.67775 18.34375 21.71875 C 18.34375 21.71775 18.2855 21.534 18.1875 21.25 z"></path></svg>