<svg xmlns="http://www.w3.org/2000/svg" width="26" height="26" viewBox="0 0 26 26">    <path d="M 13 0.1875 C 11.998708 0.1875 11.1875 0.99870777 11.1875 2 C 11.1875 3.0012922 11.998708 3.8125 13 3.8125 C 14.001292 3.8125 14.8125 3.0012922 14.8125 2 C 14.8125 0.99870777 14.001292 0.1875 13 0.1875 z M 5.8125 4 C 4.4415 4 5.12725 6.08775 6.53125 7.71875 L 7.375 8.71875 C 8.054 9.50675 8.91275 10 9.46875 10 L 16.53125 10 C 17.08725 10 17.948 9.50775 18.625 8.71875 L 19.46875 7.71875 C 20.87075 6.08775 21.5565 4 20.1875 4 L 5.8125 4 z M 9 11 C 7.896 11 7 11.672 7 12.5 C 7 13.328 7.896 14 9 14 L 10.65625 14 C 9.6990961 17.722985 7 17.352744 7 19 L 6 19 C 4.896 19 4 19.672 4 20.5 C 4 21.328 4.896 22 6 22 L 6.25 22 L 5.9375 22.28125 C 4.1325 23.91225 3.235 26 5 26 L 21 26 C 22.766 26 21.8705 23.91225 20.0625 22.28125 L 19.75 22 L 20 22 C 21.104 22 22 21.328 22 20.5 C 22 19.672 21.104 19 20 19 L 19 19 C 19 17.352744 16.300904 17.722985 15.34375 14 L 17 14 C 18.104 14 19 13.328 19 12.5 C 19 11.672 18.104 11 17 11 L 15 11 L 11 11 L 9 11 z"></path></svg>