<svg xmlns="http://www.w3.org/2000/svg" width="50" height="50" viewBox="0 0 50 50">    <path d="M 29.84375 0 C 22.14475 1.16 19.245 6.31325 19.125 6.53125 C 19.043 6.67825 19 6.831 19 7 L 19 11 L 31 11 L 31 1 C 31 0.709 30.87725 0.44 30.65625 0.25 C 30.43525 0.059 30.12975 -0.044 29.84375 0 z M 19 13 C 17.841 13 17 13.841 17 15 L 17 31 L 33 31 L 33 15 C 33 13.841 32.159 13 31 13 L 19 13 z M 17 33 C 15.346 33 14 34.346 14 36 L 14 47 C 14 48.654 15.346 50 17 50 L 33 50 C 34.654 50 36 48.654 36 47 L 36 36 C 36 34.346 34.654 33 33 33 L 17 33 z"></path></svg>