<svg xmlns="http://www.w3.org/2000/svg" width="50" height="50" viewBox="0 0 50 50">    <path d="M 19 1 C 17.897 1 17 1.897 17 3 L 17 5 C 17 6.103 17.897 7 19 7 L 31 7 C 32.103 7 33 6.103 33 5 L 33 3 C 33 1.897 32.103 1 31 1 L 19 1 z M 18.15625 8.90625 C 15.91625 13.07325 14 20.4915 14 22.8125 L 14 45 C 14 47.757 16.243 50 19 50 L 31 50 C 33.757 50 36 47.757 36 45 L 36 22.8125 C 36 20.4935 34.09475 13.07425 31.84375 8.90625 C 31.57575 8.96325 31.285 9 31 9 L 19 9 C 18.707 9 18.43125 8.96625 18.15625 8.90625 z"></path></svg>