<svg xmlns="http://www.w3.org/2000/svg" width="50" height="50" viewBox="0 0 50 50">    <path d="M 22.65625 3 C 22.4005 3 22.133 3.08575 21.9375 3.28125 L 11.375 13.875 C 13.789 15.74 19.266 17 26 17 C 27.66 17 29 18.34 29 20 C 29 20.83 28.67 21.58 28.125 22.125 C 27.582 22.667 26.828 23 26 23 C 24.677852 23 23.587076 22.124856 23.1875 20.9375 C 24.289562 20.993082 25.292022 21 26 21 C 26.279 21 26.53475 20.90175 26.71875 20.71875 C 26.90175 20.53575 27 20.278 27 20 C 27 19.441 26.558 19 26 19 C 25.084345 19 24.153292 18.954866 23.21875 18.90625 C 23.135767 18.901934 23.051749 18.910969 22.96875 18.90625 C 22.789803 18.896068 22.616392 18.855819 22.4375 18.84375 C 21.597985 18.787114 20.762724 18.725035 19.9375 18.625 C 19.729585 18.599796 19.518651 18.590579 19.3125 18.5625 C 19.176549 18.543954 19.041301 18.519818 18.90625 18.5 C 18.551762 18.447981 18.190808 18.373455 17.84375 18.3125 C 17.69831 18.286971 17.550169 18.277126 17.40625 18.25 C 17.265893 18.223569 17.138786 18.184219 17 18.15625 C 16.527538 18.061167 16.076207 17.957054 15.625 17.84375 C 15.044063 17.697844 14.474113 17.552416 13.9375 17.375 C 13.465389 17.21891 13.024123 17.025267 12.59375 16.84375 C 12.476031 16.7941 12.364265 16.739099 12.25 16.6875 C 11.833705 16.499631 11.428469 16.308112 11.0625 16.09375 C 10.853834 15.971394 10.659315 15.849964 10.46875 15.71875 C 10.321091 15.617079 10.167361 15.513334 10.03125 15.40625 C 10.019181 15.396755 10.011975 15.384538 10 15.375 C 9.9716968 15.352481 9.9340289 15.335259 9.90625 15.3125 C 8.88678 14.474497 8.2292187 13.464376 8.0625 12.28125 C 8.0355 12.08625 8 11.8925 8 11.6875 C 8 9.1975 11.0405 7.335 15.9375 6.5 L 18.28125 4.15625 C 10.61925 4.82025 6 7.5655 6 11.6875 C 6 13.831921 6.9473764 15.506882 8.4375 16.78125 L 4.1875 21.0625 C 2.7745 22.4755 2 24.34475 2 26.34375 C 2 28.34175 2.7735 30.211 4.1875 31.625 L 15.375 42.8125 C 16.788 44.2255 18.65725 45 20.65625 45 C 22.65625 45 24.5245 44.2265 25.9375 42.8125 L 41.3125 27.46875 C 42.024016 27.925166 43.71875 29.724471 43.71875 36.53125 C 43.71875 40.09725 44.8385 42.375 46.5625 42.375 C 47.3475 42.375 48.4535 41.87275 49.1875 39.46875 C 49.7375 37.67075 50 35.1395 50 31.9375 C 50 18.312694 36.772567 15.121423 34.8125 14.71875 L 23.375 3.28125 C 23.1795 3.08575 22.912 3 22.65625 3 z M 37.75 17.65625 C 41.87276 19.282496 48 23.168266 48 31.9375 C 48 37.8055 47.0115 39.93075 46.5625 40.34375 C 46.2745 40.04375 45.71875 38.87425 45.71875 36.53125 C 45.71875 29.818947 44.08772 27.114557 42.75 26.03125 L 43.71875 25.0625 C 44.10975 24.6715 44.10975 24.015 43.71875 23.625 L 37.75 17.65625 z"></path></svg>