<svg xmlns="http://www.w3.org/2000/svg" width="50" height="50" viewBox="0 0 50 50">    <path d="M 5.96875 6 C 5.4345215 6 4.6951742 6.1587063 4.0625 6.78125 C 3.5190272 7.3160207 3.1916735 8.2063981 3.09375 9.3125 C 2.6398529 9.0506106 2.1796209 8.8046209 1.71875 8.34375 A 1.0054782 1.0054782 0 1 0 0.28125 9.75 C 1.207496 10.676246 2.2088169 11.237038 3.21875 11.59375 C 3.4379371 13.043536 3.8161452 14.281345 4.28125 15.09375 C 4.5351007 15.537154 4.8022462 15.877345 5.03125 16.15625 C 3.7183809 18.273178 2.96875 20.838616 2.96875 23.84375 C 2.96875 30.01475 3.63875 38.6645 6.84375 44.9375 C 7.24075 45.7095 7.96925 46 8.53125 46 L 9.8125 46 C 10.1845 46 10.52825 45.8465 10.78125 45.5625 C 11.13725 45.1615 11.24575 44.5915 11.21875 44.1875 C 11.30575 41.5345 12.5935 38.96175 13.4375 37.34375 C 18.6455 39.01675 24.50825 38.75475 26.65625 38.59375 C 27.54725 41.36475 28.753 43.78975 29.375 44.84375 C 29.961 45.83675 30.645 45.97375 31.25 45.96875 L 32.34375 45.96875 C 32.76875 45.96875 33.14525 45.78575 33.40625 45.46875 C 33.87625 44.89675 33.75075 44.0815 33.71875 43.9375 C 33.71375 43.8995 33.37825 40.4695 33.65625 37.9375 C 39.88825 38.0835 46.926 35.637 47.875 33.5 C 48.077 33.046 48.27225 32.14975 48.53125 30.96875 C 48.62225 30.55175 48.71825 30.206 48.78125 30 C 48.89125 29.687 49.17425 28.8655 48.65625 28.1875 C 48.42325 27.8855 47.96375 27.52075 47.09375 27.59375 C 45.16175 27.73975 44.993 26.99075 44.625 25.34375 C 44.468 24.64375 44.29625 23.86525 43.90625 23.15625 C 44.73625 22.90525 45.69425 22.45375 46.53125 21.71875 C 49.86925 18.78575 49.0735 14.824 48.1875 13.125 C 48.0055 12.777 47.634 12.57075 47.25 12.59375 C 46.859 12.61475 46.519 12.85275 46.375 13.21875 C 46.347 13.29275 45.713 14.8005 43.375 15.6875 C 39.462 17.3535 38.7195 21.20275 38.4375 22.34375 C 38.3275 22.78975 37.8975 23.125 37.4375 23.125 C 36.8845 23.125 36.4375 22.677 36.4375 22.125 C 36.4375 22.012 36.466 21.9135 36.5 21.8125 C 36.858 20.4065 37.49225 17.47775 40.15625 15.46875 C 36.89625 11.42975 29.3605 8 23.0625 8 C 16.568401 8 10.036855 10.063952 6.25 14.5 C 6.1651546 14.376388 6.092463 14.255256 6 14.09375 C 5.7131311 13.592672 5.4466095 12.853678 5.25 11.96875 C 7.4724644 11.870825 9 10.587231 9 9 C 9 8.0360024 8.6139293 7.2004209 8 6.6875 C 7.3860707 6.1745791 6.6627081 6 5.96875 6 z M 5.96875 8 C 6.3277919 8 6.5729293 8.096921 6.71875 8.21875 C 6.8645707 8.3405791 7 8.4829976 7 9 C 7 9.0352488 6.5855176 9.9830871 5.03125 10 C 5.0299076 9.9271213 5 9.8871896 5 9.8125 C 5 8.7933187 5.2739242 8.4104563 5.46875 8.21875 C 5.6635758 8.0270437 5.9049785 8 5.96875 8 z M 41 26.9375 C 41.578 26.9375 42.03125 27.414 42.03125 28 C 42.03125 28.586 41.578 29.0625 41 29.0625 C 40.422 29.0625 39.9375 28.586 39.9375 28 C 39.9375 27.414 40.422 26.9375 41 26.9375 z M 40.65625 39.21875 C 38.97625 39.58675 37.2315 39.82025 35.5625 39.90625 C 35.5555 40.55525 35.56875 41.19325 35.59375 41.78125 C 36.03575 43.06125 36.52825 44.17625 36.90625 44.90625 C 37.41125 45.88825 38.0995 46 38.5625 46 L 39.59375 46 C 39.98975 46 40.368 45.8535 40.625 45.5625 C 41.081 45.0415 41.025 44.28575 41 44.09375 C 40.996 44.05975 40.72525 41.52775 40.65625 39.21875 z M 15.8125 40 C 16.7855 42.702 17.4415 43.9095 18.4375 45.0625 C 18.9065 45.7085 19.75775 46 20.21875 46 L 21.3125 46 C 21.7045 46 22.0865 45.818 22.3125 45.5 C 22.6875 44.974 22.54175 44.3155 22.46875 44.0625 C 22.29975 43.2035 22.16775 41.8975 22.09375 40.6875 C 20.25675 40.6285 18.0555 40.449 15.8125 40 z M 38.53125 44 C 38.54325 44 38.5505 43.997 38.5625 44 C 38.5725 44.002 38.58475 43.997 38.59375 44 L 38.5625 45 L 38.53125 44 z"></path></svg>