<svg xmlns="http://www.w3.org/2000/svg" viewBox="0 0 26 26" enable-background="new 0 0 26 26">    <path d="M 19.3125 0 C 18.5125 0.8 18.5 2.40625 18.5 2.40625 C 18.5 2.40625 19.5 4.7 20 6 L 23.5 7.5 C 23.5 7.5 25.2 7.4875 26 6.6875 C 25.1 5.7875 21.3125 4.6875 21.3125 4.6875 C 21.3125 4.6875 20.1125 0.8 19.3125 0 z M 15.90625 0.09375 C 14.70625 1.29375 15.5 4.6875 15.5 4.6875 L 21.3125 10.40625 C 21.3125 10.40625 24.8 11.2 26 10 C 24.7 8.8 19.1875 6.8125 19.1875 6.8125 C 19.1875 6.8125 17.20625 1.39375 15.90625 0.09375 z M 24.09375 1.65625 C 23.414258 1.7232422 21.5 2.8125 21.5 2.8125 L 22 4 L 23.1875 4.40625 C 23.1875 4.40625 24.6125 1.9875 24.3125 1.6875 C 24.275 1.65 24.19082 1.6466797 24.09375 1.65625 z M 13.3125 5.40625 C 11.8523 5.40625 10.256299 5.8207148 8.59375 6.71875 L 8.59375 6.6875 C 7.89375 6.9875 7.29375 7.50625 6.59375 7.90625 C 6.6249695 7.9140549 6.6563756 7.9285243 6.6875 7.9375 C 6.1616887 8.3271615 5.6323583 8.7614663 5.09375 9.25 L 5.09375 9.1875 C 4.79375 9.4875 4.4875 9.7 4.1875 10 C 3.7875 10.4 3.39375 10.7875 3.09375 11.1875 C 3.1299135 11.194733 3.1524206 11.211442 3.1875 11.21875 C 2.6700319 11.807047 2.1938804 12.346838 1.8125 12.90625 L 1.8125 12.9375 C 1.7620133 13.011829 1.7044322 13.082427 1.65625 13.15625 C 1.4381836 13.482598 1.2530475 13.811101 1.09375 14.125 C 0.96341567 14.381827 0.805625 14.630625 0.6875 14.90625 C 0.2790198 15.84645 0.054569771 16.742261 0 17.59375 C -0.0019635692 17.624389 0.0015434451 17.656974 0 17.6875 C -0.0087568155 17.975727 0.0063407457 18.255465 0.03125 18.53125 C 0.05304659 18.772573 0.078858833 19.017917 0.125 19.25 C 0.14746009 19.369232 0.18989847 19.476441 0.21875 19.59375 C 0.25874843 19.750999 0.29298609 19.909492 0.34375 20.0625 C 0.37647232 20.161129 0.43170543 20.246853 0.46875 20.34375 C 0.89396767 21.48384 1.5767123 22.54786 2.5 23.5 C 3.1 24.0625 3.7134766 24.541992 4.375 24.9375 C 4.3824694 24.942079 4.3987704 24.932947 4.40625 24.9375 C 4.8400522 25.195072 5.2860065 25.426804 5.75 25.59375 C 5.7998412 25.611683 5.8560415 25.608207 5.90625 25.625 C 6.5696604 25.846882 7.2679066 26 8 26 C 10.3 26 12.90625 24.7875 15.90625 21.6875 C 16.413173 21.19325 16.862231 20.702549 17.28125 20.21875 C 18.958788 18.281863 19.943162 16.454095 20.375 14.75 C 20.478227 14.35792 20.547403 13.969578 20.59375 13.59375 C 20.597325 13.561946 20.590573 13.531687 20.59375 13.5 C 20.635488 13.127959 20.636089 12.761262 20.625 12.40625 C 20.623579 12.373794 20.626851 12.34481 20.625 12.3125 C 20.610047 11.970834 20.561251 11.637345 20.5 11.3125 C 20.492448 11.272451 20.508232 11.227287 20.5 11.1875 L 14.6875 5.40625 L 13.3125 5.40625 z M 13.3125 6.90625 L 14 6.90625 L 15.6875 8.59375 C 15.686766 8.6154764 15.6875 8.6875 15.6875 8.6875 L 12.90625 8.09375 L 12.6875 6.9375 C 12.892663 6.9193238 13.111075 6.90625 13.3125 6.90625 z M 11.5 7.125 C 11.5125 7.5625 11.5 7.90625 11.5 7.90625 L 10.21875 7.5625 C 10.650647 7.385251 11.078714 7.2300653 11.5 7.125 z M 9 8.59375 C 9 8.59375 11.1125 8.4875 11.8125 9.1875 C 12.5125 9.8875 12.40625 12 12.40625 12 L 9.59375 11.40625 L 9 8.59375 z M 7.875 8.84375 C 8.2610323 9.7341512 8.1875 11.1875 8.1875 11.1875 L 5.6875 10.65625 C 6.4218373 9.9640711 7.1484651 9.3432015 7.875 8.84375 z M 13.09375 9.5 C 13.09375 9.5 15.20625 9.39375 15.90625 10.09375 C 16.60625 10.79375 16.5 12.90625 16.5 12.90625 L 13.6875 12.3125 L 13.09375 9.5 z M 4.40625 11.96875 C 4.8917586 12.823603 4.8125 14.5 4.8125 14.5 L 2.8125 14.09375 C 3.2441579 13.403209 3.7729801 12.694268 4.40625 11.96875 z M 5.59375 12 C 5.59375 12 7.70625 11.89375 8.40625 12.59375 C 9.10625 13.19375 9 15.3125 9 15.3125 L 6.1875 14.6875 L 5.59375 12 z M 10.03125 12.78125 C 10.654688 12.785938 11.975 12.88125 12.5 13.40625 C 13.2 14.10625 13.09375 16.1875 13.09375 16.1875 L 10.3125 15.59375 L 9.6875 12.8125 C 9.6875 12.8125 9.8234375 12.779687 10.03125 12.78125 z M 2.625 15.28125 C 3.2484375 15.285938 4.56875 15.38125 5.09375 15.90625 C 5.79375 16.60625 5.6875 18.6875 5.6875 18.6875 L 2.90625 18.09375 L 2.3125 15.3125 C 2.3125 15.3125 2.4171875 15.279687 2.625 15.28125 z M 6.40625 16.09375 C 6.40625 16.09375 8.4875 15.9875 9.1875 16.6875 C 9.8875 17.3875 9.8125 19.5 9.8125 19.5 L 7 18.90625 L 6.40625 16.09375 z M 3.09375 19.5 C 3.09375 19.5 5.20625 19.39375 5.90625 20.09375 C 6.60625 20.79375 6.5 22.90625 6.5 22.90625 L 3.6875 22.3125 L 3.09375 19.5 z"></path></svg>