<svg xmlns="http://www.w3.org/2000/svg" version="1" width="24" height="24" viewBox="0 0 24 24">    <path d="M 2.5 0 C 1.1192881 0 0 1.1192881 0 2.5 C 0 3.8807119 1.1192881 5 2.5 5 C 3.8807119 5 5 3.8807119 5 2.5 C 5 1.1192881 3.8807119 0 2.5 0 z M 15.21875 0.96875 C 12.497656 1.0063232 9.8375 2.38125 7.8125 4.40625 C 6.5125 5.70625 5.70625 7.3 5.40625 9 L 16 19.59375 C 17.7 19.29375 19.29375 18.39375 20.59375 17.09375 C 24.19375 13.59375 25.70625 7.89375 21.40625 3.59375 C 19.48125 1.7125 17.335156 0.93952637 15.21875 0.96875 z M 5.1875 10.90625 C 5.1875 12.00625 5.40625 13 5.90625 14 C 5.90625 14.3 6.29375 16.1125 5.59375 16.8125 C 4.09375 18.2125 2.10625 19.6125 1.40625 20.3125 C 0.60625 21.0125 0.90625 22 1.90625 23 C 2.90625 24 3.8875 24.2875 4.6875 23.6875 C 5.3875 22.8875 6.6875 21 8.1875 19.5 C 8.7875 18.9 10.50625 19.0875 10.90625 19.1875 C 11.90625 19.5875 12.99375 19.8125 14.09375 19.8125 L 5.1875 10.90625 z"></path></svg>