<svg xmlns="http://www.w3.org/2000/svg" width="26" height="26" viewBox="0 0 26 26">    <path d="M 20.5 1 C 19.7 1 19 1.7 19 2.5 C 19 4.1 19.79375 5.4875 20.09375 6.1875 C 20.39375 6.0875 20.79375 6 21.09375 6 C 20.99375 5.5 20.7125 4.7 20.8125 4 C 21.5125 3.8 22 3.2 22 2.5 C 22 1.7 21.3 1 20.5 1 z M 24.5 1 C 22.7 1 22.60625 3.29375 22.40625 6.09375 C 22.80625 6.19375 23.2 6.3 23.5 6.5 C 23.5 5.4 23.69375 4.60625 24.09375 3.90625 L 24.40625 3.90625 C 25.30625 4.00625 26 3.3 26 2.5 C 26 1.7 25.3 1 24.5 1 z M 8.5 6.9375 C 3.777702 6.9375 -0.0625 10.777702 -0.0625 15.5 C -0.0625 18.268083 1.2693104 20.715128 3.3125 22.28125 C 1.5016208 22.395313 0 22.502632 0 23 C 0 24 4.8 25 12 25 C 22.449538 25 22.994999 17.571688 23 13.65625 C 24.186903 13.096207 25 11.899431 25 10.5 C 25 8.5670034 23.432997 7 21.5 7 C 19.567003 7 18 8.5670034 18 10.5 C 18 12.32854 17.663466 14.271889 17.03125 16 C 17.04093 15.833575 17.0625 15.668815 17.0625 15.5 C 17.0625 10.777702 13.222298 6.9375 8.5 6.9375 z M 8.5 9.0625 C 12.061974 9.0625 14.9375 11.938026 14.9375 15.5 C 14.9375 17.84241 13.677036 19.873865 11.8125 21 C 12.542999 19.948249 13 18.741597 13 17.5 C 13 15.584314 12.351722 14.147397 11.40625 13.25 C 10.460778 12.352603 9.3069444 12 8.3125 12 C 6.3680556 12 5 13.508902 5 15.09375 C 5 16.739205 6.4151515 18 8 18 A 1.0001 1.0001 0 1 0 8 16 C 7.3848485 16 7 15.648295 7 15.09375 C 7 14.478598 7.2569444 14 8.3125 14 C 8.8180556 14 9.5017216 14.184897 10.03125 14.6875 C 10.560778 15.190103 11 16.015686 11 17.5 C 11 18.43 10.518595 19.595235 9.71875 20.46875 C 9.3188273 20.905507 8.8697366 21.249814 8.375 21.5 C 8.3313439 21.518774 8.2953844 21.544676 8.25 21.5625 C 8.2000202 21.58569 8.1442845 21.604079 8.09375 21.625 C 7.848494 21.712141 7.5948171 21.778689 7.3125 21.84375 C 4.3150103 21.292447 2.0625 18.659768 2.0625 15.5 C 2.0625 11.938026 4.9380268 9.0625 8.5 9.0625 z"></path></svg>