<svg xmlns="http://www.w3.org/2000/svg" width="50" height="50" viewBox="0 0 50 50">    <path d="M 25 2 C 22.095 2 19.312 2.54425 16.75 3.53125 C 16.778 4.31225 16.8125 4.95475 16.8125 4.96875 C 16.8435 5.80175 16.95675 6.98525 17.21875 8.40625 C 19.94175 7.26125 29.14275 4.0265 39.84375 7.4375 C 35.83475 4.0455 30.65 2 25 2 z M 14.78125 4.40625 C 13.37225 5.10825 12.0405 5.94225 10.8125 6.90625 C 10.8025 7.44825 10.82175 8.13125 10.84375 9.03125 C 11.05575 22.18125 18.77775 29.443 21.34375 31.5 C 22.31375 29.678 23.183 27.606 23.875 25.25 C 16.107 17.053 14.9375 8.40425 14.8125 5.03125 C 14.8115 4.99825 14.79525 4.76825 14.78125 4.40625 z M 30.03125 7.90625 C 23.72974 7.8882112 19.022312 9.7665625 17.65625 10.375 C 18.14725 12.252 18.924 14.4135 20.125 16.6875 C 22.485 15.7235 34.143 11.6525 47.125 19.1875 C 47.176 19.2165 47.23225 19.222 47.28125 19.25 C 46.46925 16.108 44.98725 13.224 43.03125 10.75 C 41.01825 9.892 39.4635 9.41425 39.4375 9.40625 C 36.094375 8.315 32.895573 7.9144495 30.03125 7.90625 z M 8.84375 8.65625 C 6.65475 10.82325 4.8715 13.4165 3.6875 16.3125 C 3.9685 18.7085 4.40025 20.5355 4.40625 20.5625 C 6.70925 31.1065 13.88625 37.0995 16.03125 38.6875 C 17.43825 37.2915 18.9245 35.492 20.3125 33.25 C 17.7435 31.24 9.07475 23.3935 8.84375 9.0625 C 8.83975 8.9145 8.84575 8.79425 8.84375 8.65625 z M 30.125 16.71875 C 25.670625 16.83775 22.37025 17.9355 21.09375 18.4375 C 22.19175 20.2225 23.5925 22.061 25.3125 23.875 C 36.4435 21.213 44.5675 24.639 47.5625 26.25 C 47.5875 26.263 47.7235 26.3235 47.9375 26.4375 C 47.9675 25.9615 48 25.483 48 25 C 48 23.941 47.92125 22.896 47.78125 21.875 C 47.34925 21.608 46.813 21.29725 46.125 20.90625 C 40.189 17.46025 34.579375 16.59975 30.125 16.71875 z M 2.40625 20.75 C 2.14525 22.133 2 23.542 2 25 C 2 32.215 5.3475 38.655 10.5625 42.875 C 11.0385 42.577 11.45575 42.32525 11.71875 42.15625 C 12.42975 41.70925 13.42125 41.0115 14.53125 40.0625 C 11.89725 38.0345 4.80775 31.73625 2.46875 21.03125 C 2.46375 21.01025 2.44125 20.909 2.40625 20.75 z M 32.4375 24.90625 C 30.3765 24.97325 28.16325 25.2425 25.78125 25.8125 C 22.58025 36.6895 15.6755 42.04375 12.8125 43.84375 C 12.7855 43.86175 12.57125 43.97225 12.28125 44.15625 C 13.57625 45.01825 14.9765 45.75475 16.4375 46.34375 C 16.9095 46.08275 17.491 45.74525 18.25 45.28125 C 29.553 38.49525 31.9495 28.11725 32.4375 24.90625 z M 34.46875 24.90625 C 34.02475 28.08325 31.60025 39.603 19.28125 47 C 19.16225 47.073 19.0495 47.1205 18.9375 47.1875 C 20.8685 47.7145 22.904 48 25 48 C 26.07 48 27.12525 47.92425 28.15625 47.78125 C 30.08025 46.34325 31.4165 45.0815 31.4375 45.0625 C 39.4385 37.7675 41.0185 28.53025 41.3125 25.90625 C 39.3935 25.38125 37.10075 24.99025 34.46875 24.90625 z M 43.25 26.53125 C 42.815 29.82325 40.9165 39.14025 32.8125 46.53125 C 32.7965 46.54625 32.737 46.5845 32.625 46.6875 C 40.488 43.9205 46.39475 37.02375 47.71875 28.59375 C 47.27775 28.35675 46.876 28.133 46.625 28 C 45.854 27.585 44.707 27.04825 43.25 26.53125 z"></path></svg>