<svg xmlns="http://www.w3.org/2000/svg" width="24" height="24" viewBox="0 0 24 24">    <path d="M 12.40625 0 C 11.50625 0 10.69375 0.30625 10.09375 0.90625 L 7.5 3.15625 C 6.7047178 2.4429747 5.6617647 2 4.5 2 C 2 2 0 4 0 6.5 C 0 8.8496324 1.7744972 10.747733 4.0625 10.96875 C 3.8362728 12.638143 3.6875 14.721644 3.6875 17.3125 C 3.6875 17.7125 4.10625 18 4.40625 18 C 4.80625 18 5.09375 17.6875 5.09375 17.1875 C 5.09375 16.911482 5.1192806 13.781197 5.875 10.78125 C 7.688543 10.201532 9 8.51529 9 6.5 C 9 6.3272059 8.9561137 6.1675216 8.9375 6 L 11.3125 6 L 11 8 L 19 8 L 18.1875 3 L 20 3 L 20 1.3125 C 20 0.6125 19.3875 1.4802974e-16 18.6875 0 L 12.40625 0 z M 4.5 3.59375 C 6.1 3.59375 7.40625 4.9 7.40625 6.5 C 7.40625 6.6687671 7.3715038 6.839082 7.34375 7 L 5.90625 4.90625 C 5.90625 4.90625 4.9932348 5.9997397 4.34375 9.375 C 2.8172369 9.2925661 1.59375 8.0468493 1.59375 6.5 C 1.59375 4.9 2.9 3.59375 4.5 3.59375 z M 7.28125 7.28125 C 7.1635931 7.7007323 6.966126 8.0865608 6.6875 8.40625 C 6.8680917 8.0101352 7.0567219 7.6266248 7.28125 7.28125 z M 9.90625 9 C 9.40625 9 8.89375 9.2875 8.59375 9.6875 C 7.99375 10.6875 7.5125 11.8 7.3125 13 L 10.59375 13 C 10.69375 11.5 11.00625 10.2 11.40625 9 L 9.90625 9 z M 12.5 9 C 12.1 10.1 11.7875 11.5 11.6875 13 L 18.40625 13 C 18.30625 11.5 17.99375 10.1 17.59375 9 L 12.5 9 z M 18.59375 9 C 18.99375 10.2 19.30625 11.5 19.40625 13 L 22.8125 13 C 22.6125 11.8 22.1 10.6875 21.5 9.6875 C 21.2 9.2875 20.69375 9 20.09375 9 L 18.59375 9 z M 7.09375 14 C 6.99375 14.3 7 14.7 7 15 C 7 16.1 7.2 17.1 7.5 18 L 10.6875 18 C 10.5875 17.1 10.5 16.1 10.5 15 L 10.5 14 L 7.09375 14 z M 11.59375 14 L 11.59375 15 C 11.59375 16.1 11.7125 17.1 11.8125 18 L 18.40625 18 C 18.40625 17.1 18.5 16.1 18.5 15 L 18.5 14 L 11.59375 14 z M 19.40625 14 C 19.50625 14.3 19.5 14.7 19.5 15 C 19.5 16.1 19.4125 17.1 19.3125 18 L 22.5 18 C 22.8 17.1 23 16.1 23 15 C 23 14.7 23.00625 14.3 22.90625 14 L 19.40625 14 z M 7.8125 19 C 8.8125 21.2 10.49375 22.89375 12.59375 23.59375 C 11.79375 22.49375 11.1125 20.9 10.8125 19 L 7.8125 19 z M 11.90625 19 C 12.50625 22.1 13.8 24 15 24 C 16.2 24 17.49375 22.1 18.09375 19 L 11.90625 19 z M 19.09375 19 C 18.69375 20.9 18.1125 22.59375 17.3125 23.59375 C 19.4125 22.89375 21.19375 21.2 22.09375 19 L 19.09375 19 z"></path></svg>