<svg xmlns="http://www.w3.org/2000/svg" version="1" viewBox="0 0 26 26" enable-background="new 0 0 26 26">    <path d="M 26 0 L 20 2 L 7.59375 15.59375 L 9.3125 16.6875 L 10.40625 18.40625 L 24 6 L 26 0 z M 3.90625 14.09375 L 2.59375 15.40625 L 5.3125 18.125 L 2.09375 22.21875 C 2.0298776 22.212263 1.9718338 22.1875 1.90625 22.1875 C 0.85690896 22.1875 0 23.044409 0 24.09375 C -2.9605947e-16 25.143091 0.85690896 26 1.90625 26 C 2.955591 26 3.8125 25.143091 3.8125 24.09375 C 3.8125 24.028166 3.7877366 23.970122 3.78125 23.90625 L 7.875 20.6875 L 10.59375 23.40625 L 11.90625 22.09375 L 8.59375 17.40625 L 3.90625 14.09375 z"></path></svg>