<svg xmlns="http://www.w3.org/2000/svg" width="26" height="26" viewBox="0 0 26 26">    <path d="M 2 4 C 1 4 0 5 0 6 L 0 12 C 0 13 1 14 2 14 C 2.0388072 14.007108 2.0524462 14 2.125 14 C 3.304 14 3.67225 14.89825 3.53125 15.65625 C 3.39025 16.41425 2.125 22 2.125 22 C 1.96 22.625 2.16575 23 2.71875 23 L 8.0625 23 C 8.4845 23 8.9375 22.71875 8.9375 22.21875 C 8.9375 21.12475 7.27675 20.88325 7.71875 19.53125 C 7.9474168 18.83259 8.0137645 18.653256 8.21875 18 L 9 18 C 9.551 18 10 17.551 10 17 L 10 16 C 10 15.565142 9.7012541 15.230969 9.3125 15.09375 C 9.655217 14.610796 10.230639 14 11.125 14 L 13 14 C 13.551 14 17 12.551 17 12 L 17 6 C 17 5.449 13.551 4 13 4 L 2 4 z M 19 6 C 18.449 6 18 6.449 18 7 L 18 11 C 18 11.551 18.449 12 19 12 L 21 12 C 21.551 12 23 10.551 23 10 L 25 10 C 25.551 10 26 9.551 26 9 C 26 8.449 25.551 8 25 8 L 23 8 C 23 7.449 21.551 6 21 6 L 19 6 z"></path></svg>