<svg xmlns="http://www.w3.org/2000/svg" width="50" height="50" viewBox="0 0 50 50">    <path d="M 32.6875 2.375 L 25.53125 9.5625 L 33.625 17.625 C 37.599 21.598 38.615 26.29675 38.625 26.34375 L 38.8125 27.34375 L 39.78125 27.125 C 39.91125 27.099 43.0105 26.428 46.0625 23.375 C 49.1165 20.322 49.7865 17.254 49.8125 17.125 L 49.96875 16.25 L 49.125 15.96875 C 49.085953 15.956664 45.46542 14.749287 41.59375 11.21875 L 42.375 10.375 C 42.806 9.918 42.886 9.444 42.875 9.125 C 42.851 8.418 42.3785 7.96725 42.3125 7.90625 L 37.84375 3.4375 L 37.75 3.34375 C 37.662 3.27575 37.1975 2.9375 36.5625 2.9375 C 36.0795 2.9375 35.63725 3.143 35.28125 3.5 L 34.5625 4.25 L 32.6875 2.375 z M 25.96875 12.8125 L 25.8125 12.96875 C 25.0865 13.69575 24.81025 14.57925 24.53125 15.53125 C 24.09525 17.01925 23.51375 19.079 20.71875 21.875 C 19.08075 23.513 17.3675 24.5585 15.5625 25.6875 C 13.5395 26.9535 11.466 28.285 9.25 30.5 C -0.545 40.295 -0.3375 42.7855 0.6875 43.8125 L 1.9375 45.0625 C 2.7225 45.8465 4.4775 46.46875 5.9375 46.46875 C 6.4385 46.46875 6.89525 46.396 7.28125 46.25 C 7.47225 46.179 7.64225 46.1085 7.78125 46.0625 C 8.95725 45.6675 9.26125 45.3155 9.65625 43.8125 C 9.73225 43.5235 9.799 43.17125 9.875 42.78125 C 10.196 41.14225 10.6355 38.89575 12.5625 36.96875 C 13.5985 35.93175 15.30925 34.82925 17.28125 33.53125 C 19.97525 31.75925 23.3305 29.5425 26.1875 26.6875 C 28.7455 24.1295 30.00775 22.88875 31.21875 21.71875 C 31.79575 21.16175 32.36125 20.62575 33.03125 19.96875 C 32.76625 19.65975 32.4905 19.33425 32.1875 19.03125 L 25.96875 12.8125 z"></path></svg>