<svg xmlns="http://www.w3.org/2000/svg" width="50" height="50" viewBox="0 0 50 50">    <path d="M 46.5 0 C 45.585 0.007 44.72775 0.37425 44.09375 1.03125 L 25.65625 20.25 L 29.75 24.34375 L 48.96875 5.90625 C 49.62275 5.27325 49.992 4.415 50 3.5 C 50.007 2.567 49.63575 1.69925 48.96875 1.03125 C 48.30775 0.37225 47.45525 -1.4802974e-16 46.53125 0 L 46.5 0 z M 24.28125 21.71875 L 20.875 25.28125 C 16.615 22.03225 12.37375 21.5255 9.84375 24.0625 C -0.84925 36.1875 -0.4385 36.59275 0.3125 37.34375 C 1.0615 38.09675 1.47875 38.5065 13.46875 27.9375 C 13.92675 27.9375 15.238 28.256 16.875 29.375 C 4.709 43.037 5.01475 43.32525 5.84375 44.15625 C 6.67175 44.99025 6.961 45.285 20.625 33.125 C 21.748 34.766 22.0635 36.07525 22.0625 36.53125 C 11.4995 48.52325 11.88625 48.9195 12.65625 49.6875 C 12.83925 49.8705 13.0145 50.03125 13.3125 50.03125 C 14.2805 50.03125 16.692 48.33 26 40.125 C 28.477 37.648 27.96 33.39725 24.75 29.15625 L 28.3125 25.71875 L 24.28125 21.71875 z"></path></svg>