<svg xmlns="http://www.w3.org/2000/svg" width="24" height="24" viewBox="0 0 24 24">    <path d="M 14 6 C 12.7 6 11.4875 6.89375 11.1875 8.09375 L 11.09375 8.09375 C 10.59375 8.09375 10.09375 8.5 10.09375 9 L 22 9 C 22 8.2 21.29375 7.59375 20.59375 7.59375 C 20.39375 7.59375 20.19375 7.5875 20.09375 7.6875 C 19.89375 7.0875 19.4125 6.6875 18.8125 6.6875 C 18.4125 6.6875 18.1125 6.89375 17.8125 7.09375 C 17.4125 6.79375 17 6.6875 16.5 6.6875 C 16.3 6.6875 16.2 6.7125 16 6.8125 C 15.5 6.3125 14.8 6 14 6 z M 0 10 L 0 12 L 3.65625 12 L 8.9375 16.4375 L 8.96875 16.5 L 11.21875 19.9375 L 11.25 19.9375 C 11.904996 20.919994 13.213542 21.211172 14.21875 20.5625 L 14.25 20.5625 L 17.03125 18.75 L 19.40625 21.53125 A 0.79797981 0.79797981 0 1 0 20.59375 20.46875 L 17.8125 17.1875 L 17.75 17.125 L 24 10 L 8 10 L 9.0625 14.5 L 4.21875 10.40625 L 4.09375 10.28125 L 4.09375 10 L 0 10 z M 10.8125 16.375 L 15.78125 17.6875 L 13.375 19.21875 L 13.34375 19.25 C 13.1523 19.377634 12.701482 19.27097 12.5625 19.0625 L 10.8125 16.375 z M 19.71875 18 C 19.63125 18.0125 19.55 18.04375 19.5 18.09375 C 20.2 18.89375 21.1875 20.09375 21.1875 20.09375 C 21.5875 20.59375 21.9 21.5125 21 22.3125 C 20.7 22.6125 20.4 22.6875 20 22.6875 C 19.3 22.6875 18.9125 22.1875 18.8125 22.1875 C 18.7125 22.0875 17.79375 21.0125 17.09375 20.3125 C 17.09375 20.4125 17 20.7 17 21 C 17 22.6 18.3 24 20 24 C 21.7 24 23 22.7 23 21 C 23 19.3 21.7 18 20 18 C 19.9 18 19.80625 17.9875 19.71875 18 z"></path></svg>