<svg xmlns="http://www.w3.org/2000/svg" width="26" height="26" viewBox="0 0 26 26">    <path d="M 11 3 L 11 5 L 13 5 L 13 3 L 11 3 z M 10.1875 6 C 9.4875 6 9 6.4875 9 7.1875 L 9 11 L 8.96875 11 C 8.8828198 10.408013 8.4466346 10 7.90625 10 L 5.1875 10 C 4.70625 10 4.3509521 10.249829 4.15625 10.625 L 2.15625 10.25 L 1.84375 11.75 L 4 12.15625 L 4 13 L 4 14 L 21 14 L 21.09375 14 L 21.09375 12.375 L 25.28125 10.6875 L 24.71875 9.3125 L 20.28125 11.09375 C 20.157772 11.050174 20.035762 11 19.90625 11 L 15 11 L 15 7.1875 C 15 6.4875 14.50625 6 13.90625 6 L 10.1875 6 z M 0.6875 15 C 0.2875 15 -1.4802974e-16 15.2875 0 15.6875 L 0 16.09375 C 0 16.69375 0.2 17.1875 0.5 17.6875 L 2.4375 20.90625 C 1.9108489 21.037819 1.3923077 21.09375 1 21.09375 C 0.6 21.09375 0.3 21.1 0 21 L 0 22.8125 C 0.3 22.8125 0.6 22.90625 1 22.90625 C 2.7 22.90625 3.4 22.5 4 22 C 4.9 22.7 6.2 22.90625 7 22.90625 C 7.8 22.90625 9.1 22.7 10 22 C 10.9 22.7 12.2 22.90625 13 22.90625 C 13.8 22.90625 15.1 22.7 16 22 C 16.9 22.7 18.2 22.90625 19 22.90625 C 19.8 22.90625 21.1 22.7 22 22 C 22.9 22.7 24.2 22.90625 25 22.90625 C 25.4 22.90625 25.7 22.7875 26 22.6875 L 26 20.90625 C 25.7 21.00625 25.4 21.09375 25 21.09375 C 24.607692 21.09375 24.089151 21.037819 23.5625 20.90625 L 25.5 17.6875 C 25.8 17.1875 26 16.69375 26 16.09375 L 26 15.6875 C 26 15.2875 25.7125 15 25.3125 15 L 0.6875 15 z M 21 17 L 23 17 L 23 18 L 21 18 L 21 17 z M 4 23.1875 C 3.1 23.8875 1.8 24.09375 1 24.09375 C 0.6 24.09375 0.3 24.1 0 24 L 0 25.8125 C 0.3 25.8125 0.6 25.90625 1 25.90625 C 2.7 25.90625 3.4 25.5 4 25 C 4.9 25.7 6.2 25.90625 7 25.90625 C 7.8 25.90625 9.1 25.7 10 25 C 10.9 25.7 12.2 25.90625 13 25.90625 C 13.8 25.90625 15.1 25.7 16 25 C 16.9 25.7 18.2 25.90625 19 25.90625 C 19.8 25.90625 21.1 25.7 22 25 C 22.9 25.7 24.2 25.90625 25 25.90625 C 25.4 25.90625 25.7 25.7875 26 25.6875 L 26 23.90625 C 25.7 24.00625 25.4 24.09375 25 24.09375 C 24.2 24.09375 22.9 23.8875 22 23.1875 C 21.1 23.8875 19.8 24.09375 19 24.09375 C 18.2 24.09375 16.9 23.8875 16 23.1875 C 15.1 23.8875 13.8 24.09375 13 24.09375 C 12.2 24.09375 10.9 23.8875 10 23.1875 C 9.1 23.8875 7.8 24.09375 7 24.09375 C 6.2 24.09375 4.9 23.8875 4 23.1875 z"></path></svg>