<svg xmlns="http://www.w3.org/2000/svg" width="26" height="26" viewBox="0 0 26 26">    <path d="M 22.09375 0.125 C 21.991406 0.15327148 22.009375 0.465625 22 0.53125 C 21.79 1.98525 20.09375 3.875 20.09375 3.875 L 12.9375 8.78125 C 13.8375 9.85725 14.2155 10.1775 15.6875 9.3125 C 17.1575 8.4485 20.20125 6.0825 21.15625 5.4375 C 22.45525 4.5595 24.15125 4.50625 24.90625 4.53125 C 25.15525 4.53925 25.165 4.40425 25 4.15625 C 24.835 3.90825 22.6855 0.82075 22.4375 0.46875 C 22.245875 0.1965 22.155156 0.10803711 22.09375 0.125 z M 22.59375 5.53125 C 22.59375 5.53125 18.37125 8.4395 15.28125 10.5625 C 13.28025 11.9345 12.72775 10.78 12.46875 10.375 C 12.33975 10.174 12.18725 9.94775 12.03125 9.71875 C 11.70725 9.24575 11.09375 9.59375 11.09375 9.59375 C 11.09375 9.59375 8.5175 11.36025 6.8125 12.53125 A 0.578125 0.578125 0 0 0 6.625 12.5 C 6.3721037 12.5 6.0542025 12.5066 5.78125 12.34375 C 5.6128183 12.243247 5.421457 12.074544 5.28125 11.75 C 5.7349767 11.778512 6.2457587 11.722925 6.8125 11.53125 A 0.578125 0.578125 0 0 0 6.4375 10.4375 C 5.6572061 10.7014 5.1886578 10.642201 4.84375 10.5 A 0.57205723 0.57205723 0 0 0 4.6875 10.4375 C 4.6144793 10.396692 4.5291344 10.35844 4.46875 10.3125 C 4.1192912 10.046637 4 9.71875 4 9.71875 A 0.57205723 0.57205723 0 0 0 3.28125 9.34375 A 0.57205723 0.57205723 0 0 0 2.90625 10.125 C 2.90625 10.125 3.1317088 10.748363 3.75 11.21875 C 3.830664 11.280118 3.935462 11.320574 4.03125 11.375 C 4.2046994 12.360094 4.6538169 12.994052 5.1875 13.3125 C 5.5447649 13.52568 5.8714585 13.594229 6.15625 13.625 C 6.9686231 13.823052 8.125 13.34375 8.125 13.34375 C 8.125 13.34375 7.48725 14.3635 6.15625 14.4375 C 6.16225 15.1855 6.14925 16.06325 5.40625 17.03125 C 3.89125 19.00125 2.23475 19.98925 1.21875 20.65625 C 0.20275 21.32225 0.24475 21.774 1.09375 22.625 C 1.49575 23.027 3.03275 24.564 3.59375 25.125 C 4.15475 25.686 4.609 26.20275 5.375 25.71875 C 7.8679559 24.143971 8.6031329 22.740714 8.84375 21.40625 C 8.9192089 21.360794 10.160693 20.588594 11.65625 19.75 C 12.504655 19.273653 12.745937 18.290434 12.84375 17.34375 C 12.924843 16.558887 12.888272 15.777647 12.875 15.15625 C 15.265549 13.501545 18.382998 11.362705 21.5625 9.28125 C 23.4135 8.07025 22.96275 6.29525 22.59375 5.53125 z M 11.90625 15.84375 C 11.919414 16.301379 11.921225 16.771378 11.875 17.21875 C 11.78931 18.048066 11.543095 18.675347 11.1875 18.875 C 10.005894 19.537554 9.3979883 19.914278 8.9375 20.1875 C 8.9581946 19.709001 8.9757304 19.245568 9.03125 18.78125 C 9.1246459 18.814494 9.2376344 18.853241 9.34375 18.875 C 9.62175 18.934 9.9385 18.922 10.3125 18.875 C 10.5335 18.848 10.68325 18.6595 10.65625 18.4375 C 10.62925 18.2165 10.44375 18.06675 10.21875 18.09375 C 9.7982629 18.147116 9.4796602 18.065371 9.25 17.96875 C 9.3920301 17.682093 9.632701 17.419812 10.0625 17.125 C 10.34822 16.928517 11.327508 16.245089 11.90625 15.84375 z"></path></svg>