<svg xmlns="http://www.w3.org/2000/svg" width="24" height="24" viewBox="0 0 24 24">    <path d="M 8.78125 0 C 7.35825 0 6.80775 0.59275 6.59375 1.09375 C 6.0943412 2.2625235 7.7859274 3.9695473 8.46875 4.75 C 8.0421227 5.6132699 7.6633452 6.3532472 7.59375 6.625 C 7.18175 7.449 6.50425 8.7575 6.03125 9.9375 C 4.78425 11.7665 4.548 12.76125 4.625 14.03125 C 4.663 14.66525 5.30175 15.461 5.71875 16 C 6.00975 16.375 8.5 21.55575 9.875 22.84375 C 10.703 23.61975 11.71575 23.9375 12.71875 23.9375 C 13.57775 23.9375 14.39225 23.713 15.40625 23.125 C 17.33725 22.007 17.85075 19.58975 17.59375 18.21875 C 17.46175 17.51175 16.98775 16.13575 16.21875 14.71875 C 15.79175 13.93375 15.752 13.417 15.75 13.375 C 16.139 12.225 17.85225 8.4395 18.65625 6.5625 L 10.46875 3.03125 C 10.938388 2.3613012 11.230787 1.7017718 10.96875 1.09375 C 10.75375 0.59575 10.19225 7.4014868e-17 8.78125 0 z M 8.6875 1.1875 C 9.1725 1.1875 10.00275 1.28125 9.71875 2.03125 C 9.61775 2.29975 9.387 2.790125 9.1875 3.21875 C 8.988 3.647375 8.8125 4 8.8125 4 C 8.8125 4 8.075 2.992 7.875 2.125 C 7.767 1.657 8.1645 1.1875 8.6875 1.1875 z M 10.21875 4.4375 L 16.78125 7.15625 C 16.78125 7.15625 15.988491 9.0965727 15.5625 9.9375 C 12.381555 8.8460745 9.8526061 7.637769 9 7.21875 C 9.2780957 6.5118207 9.7144971 5.2975996 10.21875 4.4375 z M 7.1875 10.875 C 8.1279144 11.519971 8.9375 12.375267 8.9375 13.28125 C 8.9375 14.151412 8.2205953 15.320964 7.625 16.03125 C 7.0959145 15.391798 6.3866334 14.740755 6.1875 14.03125 C 5.9695 13.25125 6.183 12.375 6.875 11.375 C 6.9854206 11.215549 7.0834112 11.041726 7.1875 10.875 z M 15.125 18.3125 C 15.439835 18.304866 15.695724 18.324927 15.9375 18.34375 C 16.0385 18.88175 15.86775 21.138 14.59375 21.875 C 13.13075 22.721 11.6585 22.3695 10.5625 21.5625 C 10.743906 20.811047 11.343 19.64325 12.5625 18.9375 C 13.3755 18.467 14.326 18.331875 15.125 18.3125 z"></path></svg>