<svg xmlns="http://www.w3.org/2000/svg" version="1" viewBox="0 0 24 24" enable-background="new 0 0 24 24">    <path style="text-indent:0;text-align:start;line-height:normal;text-transform:none;block-progression:tb;-inkscape-font-specification:Bitstream Vera Sans" d="M 14.25 6.25 L 14.25 7 C 14.25 7 14.26551 7.5072278 14.34375 8.25 L 9.1875 8.25 L 9.09375 8.0625 C 10.168682 7.8059189 10.5 7.7384087 10.5 7.3125 C 10.5 7.0125 10.39375 7 10.09375 7 L 6.3125 7 C 6.1125 7 6 7.10625 6 7.40625 C 6 8.6244981 6.3671729 8.6518926 7.5625 8.40625 L 8.03125 9.25 L 5.34375 14.65625 A 0.750075 0.750075 0 0 0 6 15.75 L 11.65625 15.75 A 0.750075 0.750075 0 0 0 12.8125 15.09375 L 15 11.375 C 15.469274 12.778111 16.233264 14.295764 17.46875 15.53125 L 18.53125 14.46875 C 16.198379 12.135879 15.903326 8.769795 15.84375 7.75 L 18 7.75 L 18 6.25 L 15 6.25 L 14.25 6.25 z M 10 9.75 L 14.25 9.75 L 12.03125 13.46875 L 10 9.75 z M 8.90625 10.84375 L 10.75 14.25 L 7.1875 14.25 L 8.90625 10.84375 z M 6 11 C 3.8 11 2 12.8 2 15 C 2 17.2 3.8 19 6 19 C 7.8 19 9.3125 17.7875 9.8125 16.1875 L 8.1875 16.1875 C 7.6875 16.9875 6.9 17.5 6 17.5 C 4.6 17.5 3.5 16.4 3.5 15 C 3.5 13.7 4.5125 12.6 5.8125 12.5 L 6.5 11 L 6 11 z M 18 11 C 17.7 11 17.3 11.09375 17 11.09375 C 17.2 11.59375 17.3875 12 17.6875 12.5 L 18 12.5 C 19.4 12.5 20.5 13.6 20.5 15 C 20.5 16.4 19.4 17.5 18 17.5 C 16.6 17.5 15.5 16.4 15.5 15 C 15.5 14.7 15.5875 14.29375 15.6875 14.09375 C 15.3875 13.59375 15.10625 13.09375 14.90625 12.59375 C 14.30625 13.19375 14 14.1 14 15 C 14 17.2 15.8 19 18 19 C 20.2 19 22 17.2 22 15 C 22 12.8 20.2 11 18 11 z M 8.8125 12.1875 L 8.09375 13.6875 C 8.09375 13.6875 8.0875 13.8125 8.1875 13.8125 L 9.8125 13.8125 C 9.6125 13.1125 9.3125 12.5875 8.8125 12.1875 z" color="#000" overflow="visible" enable-background="accumulate" font-family="Bitstream Vera Sans"></path></svg>