<svg xmlns="http://www.w3.org/2000/svg" width="24" height="24" viewBox="0 0 24 24">    <path d="M 17.6875 1.1875 L 17.09375 1.3125 L 16 2.8125 L 6.5 5.40625 C 6.2 5.50625 5.70625 5.99375 5.90625 6.59375 C 5.50625 6.59375 4.6 6.6125 4 6.8125 C 3.6 6.9125 2.3 7.2125 2.5 7.8125 C 2.8 8.8125 4.10625 7.29375 4.90625 8.59375 C 4.50625 9.09375 4 9.49375 3.5 9.59375 C 7.2 10.09375 8.59375 12.3125 8.59375 12.3125 C 9.19375 13.9125 10.3875 15.00625 12.6875 14.40625 C 14.3875 13.90625 15.5125 12.3 15.3125 10.5 L 14.5 7.40625 L 19.90625 6 L 18.90625 2.1875 L 18 2.40625 L 17.6875 1.1875 z M 20.8125 1.3125 L 20.6875 2.8125 L 19.8125 2.6875 L 20.5 5.09375 L 21 4.6875 L 21.90625 5.5 L 22 4.3125 L 23.6875 4.6875 L 22.59375 3.5 L 24 2.8125 L 22.5 2.6875 L 23.09375 1.40625 L 21.6875 2.40625 L 20.8125 1.3125 z M 11.71875 5.96875 C 11.90625 5.9921875 12.01875 6.1625 12.09375 6.3125 C 12.19375 6.6125 12.0125 6.80625 11.8125 6.90625 L 8.8125 7.6875 L 8.59375 6.8125 L 11.5 6 C 11.575 5.975 11.65625 5.9609375 11.71875 5.96875 z M 12.21875 7.78125 C 12.40625 7.8046875 12.51875 7.94375 12.59375 8.09375 C 12.69375 8.39375 12.5125 8.5875 12.3125 8.6875 L 9.3125 9.5 L 9.09375 8.59375 L 12 7.8125 C 12.075 7.7875 12.15625 7.7734375 12.21875 7.78125 z M 13.40625 10.125 C 13.86875 10.075 14.2125 10.15 14.3125 10.5 C 14.7125 11.7 13.9 13.00625 12.5 13.40625 C 11.2 13.70625 9.9875 13.4 9.6875 12 C 9.5875 11.5 9.7875 11.2 10.1875 11 C 10.2875 11.4 11.49375 12.8 12.59375 12.5 C 12.69375 12.5 12.8125 12.4125 12.8125 12.3125 C 12.7125 11.8125 11.7875 11.79375 11.1875 10.59375 C 11.3875 10.59375 11.4875 10.5 11.6875 10.5 C 12.3375 10.35 12.94375 10.175 13.40625 10.125 z M 3.4375 10.65625 C 3.3228516 10.664111 3.2 10.6625 3.09375 10.6875 C 1.69375 11.0875 1.9875 12.29375 2.1875 13.09375 C 2.4875 14.19375 -0.9125 16.2 0.1875 20.5 C 0.4875 21.6 1.1875 22.20625 2.1875 21.90625 L 5 21.1875 C 5.8 20.9875 8.0125 21 6.8125 16.5 C 6.2125 14.1 6.8125 13.7875 7.3125 13.6875 C 7.8125 13.5875 7.9125 13.3 7.8125 13 C 7.71875 12.25 5.1572266 10.53833 3.4375 10.65625 z M 4.1875 12.59375 C 4.6875 12.49375 5.0875 12.7875 5.1875 13.1875 C 5.2875 13.5875 4.99375 14.0875 4.59375 14.1875 C 4.09375 14.2875 3.69375 13.99375 3.59375 13.59375 C 3.49375 13.09375 3.7875 12.69375 4.1875 12.59375 z"></path></svg>