<svg xmlns="http://www.w3.org/2000/svg" width="26" height="26" viewBox="0 0 26 26">    <path d="M 25.875 0 C 25.099739 0.14003174 20.393437 2.8565625 18.84375 4.40625 L 5.625 17.625 C 5.6093633 17.62098 5.6102158 17.597394 5.59375 17.59375 L 3.34375 17.09375 C 2.77475 16.96775 2.303 17.05125 1.875 17.53125 L 0.125 19.53125 C -0.166 19.86725 0.02525 20.243 0.53125 20.375 L 2.71875 20.9375 C 2.8246382 20.971506 2.95179 20.954646 3.0625 20.9375 L 5.0625 22.90625 C 5.0391668 23.027587 5.0252382 23.165526 5.0625 23.28125 L 5.625 25.46875 C 5.759 25.97575 6.13275 26.166 6.46875 25.875 L 8.46875 24.125 C 8.94875 23.696 9.03125 23.22525 8.90625 22.65625 L 8.40625 20.40625 C 8.4037825 20.39493 8.4088981 20.385929 8.40625 20.375 L 21.59375 7.15625 C 23.24775 5.50225 26.20075 0.26425 25.96875 0.03125 C 25.954187 0.0166875 25.926684 -0.0093354492 25.875 0 z"></path></svg>