<svg xmlns="http://www.w3.org/2000/svg" width="50" height="50" viewBox="0 0 50 50">    <path d="M 27.5 0 C 22.299 0.164 22.14625 4.959 22.03125 8.125 C 22.01225 8.643 21.97725 9.374 21.90625 10 C 22.30825 10.113 22.6745 10.32625 22.9375 10.65625 C 23.4255 10.36325 23.947 10.145 24.5 10 C 24.666 9.956 24.829 9.9375 25 9.9375 C 25.171 9.9375 25.334 9.956 25.5 10 C 26.053 10.145 26.5755 10.36325 27.0625 10.65625 C 27.0685 10.64825 27.08775 10.66425 27.09375 10.65625 C 27.03475 10.53125 27.016 10.4035 27 10.3125 C 26.691 8.5405 28.633 5.38875 29.75 4.96875 C 30.549 4.66775 31.123 4.1195 31.375 3.4375 C 31.605 2.8125 31.5395 2.142 31.1875 1.5 C 30.4625 0.186 29.14975 2.9605947e-16 27.96875 0 C 27.81775 0 27.663 -0.005 27.5 0 z M 16.0625 11.09375 C 5.0355 11.84075 0.0625 19.96025 0.0625 28.03125 C 0.0625 39.60925 4.85325 46.37375 14.90625 48.84375 C 10.18225 45.57375 6.5625 39.50125 6.5625 29.53125 C 6.5625 22.35025 8.34775 17.032 11.84375 13.75 C 13.05075 12.617 14.4565 11.73475 16.0625 11.09375 z M 33.9375 11.09375 C 35.5435 11.73575 36.95125 12.618 38.15625 13.75 C 41.65325 17.032 43.4375 22.35025 43.4375 29.53125 C 43.4375 39.50125 39.81775 45.57275 35.09375 48.84375 C 45.14775 46.37375 49.9375 39.60925 49.9375 28.03125 C 49.9375 19.96125 44.9635 11.84175 33.9375 11.09375 z M 21.375 11.90625 C 17.956 12.18525 15.27175 13.29075 13.21875 15.21875 C 10.14175 18.10775 8.5625 22.92425 8.5625 29.53125 C 8.5625 41.79425 14.21275 47.60075 20.59375 49.34375 C 17.74075 45.47275 16.4375 37.839 16.4375 31.5 C 16.4375 28.747 16.727 16.80925 21.375 11.90625 z M 28.625 11.90625 C 33.274 16.80925 33.5625 28.747 33.5625 31.5 C 33.5625 37.839 32.26025 45.47275 29.40625 49.34375 C 35.78825 47.60175 41.4375 41.79525 41.4375 29.53125 C 41.4375 22.92425 39.85825 18.10775 36.78125 15.21875 C 34.72825 13.29075 32.043 12.18425 28.625 11.90625 z M 25 11.9375 C 20.471 13.1275 18.4375 22.53075 18.4375 31.46875 C 18.4375 37.76675 19.8035 45.91225 22.8125 48.90625 C 23.5015 49.59125 24.20375 49.9365 24.96875 49.9375 C 24.97675 49.9375 24.991 49.9375 25 49.9375 C 25.009 49.9375 25.02325 49.9375 25.03125 49.9375 C 25.79625 49.9365 26.4995 49.59125 27.1875 48.90625 C 30.0625 46.04425 31.5625 37.96575 31.5625 31.46875 C 31.5625 22.53075 29.529 13.1275 25 11.9375 z"></path></svg>