<svg xmlns="http://www.w3.org/2000/svg" width="50" height="50" viewBox="0 0 50 50">    <path d="M49.672,20.656c-0.023,0.018-0.054,0.025-0.076,0.046c-0.065,0.057-5.79,6.11-19.506,7.212 C29.397,16.025,39.422,8.906,42.25,6.938C46.466,10.845,48.75,15.406,49.672,20.656z M27.109,49.906 c-0.17-0.229-6-7.016-7.091-19.909c1.693,0.136,3.05,0.196,4.982,0.196c1.234,0,2.126-0.025,3.264-0.084 c1.518,8.781,9.721,12.328,13.118,13.761C37.306,47.136,32.68,49.713,27.109,49.906z M19.781,24.781 c0-16.23,8.13-24.526,8.203-24.609c0,0-0.036,0.06,0,0c3.382,0.281,8.797,2.094,12.651,5.342 c-3.62,2.58-13.308,10.064-12.599,22.545c-1.062,0.051-1.951,0.066-3.1,0.066c-2.007,0-3.338-0.064-5.073-0.215 C19.809,26.887,19.781,25.874,19.781,24.781z M25.359-0.026c-2.078,2.995-7.672,10.667-7.635,24.792 c0.002,1.004,0.021,1.969,0.065,2.918c-2.646-0.338-4.377-0.71-6.345-1.268c0.024-10.432-2.789-17.432-3.743-19.45 C11.75,3.063,18.063-0.188,25.359-0.026z M6.249,8.483c0.873,2.516,3.111,8.705,3.127,17.287c-5.115-1.791-8.591-4.774-8.63-4.812 c-0.114-0.11-0.248-0.187-0.387-0.239C0.965,16.133,3.313,11.953,6.249,8.483z M0.094,23.063c1.271,0.936,5,3.719,9.282,4.906 c-0.142,7.313-3.003,11.245-3.929,12.593c-4.369-5.39-5.619-11.671-5.371-16.833C0.086,23.506,0.086,23.285,0.094,23.063z M6.709,42.025c0.937-1.181,4.525-5.26,4.709-13.455c2.05,0.547,3.824,0.907,6.517,1.225c0.884,10.396,4.251,16.471,6.58,20.184 C17.359,49.844,10.916,46.708,6.709,42.025z M43.047,42.25c-1.871-0.725-10.984-3.75-12.717-12.281 c10.749-0.919,16.029-4.156,19.619-6.675c0.004,0.161,0.104,1.544,0.104,1.707C50.054,32.008,46.984,38.172,43.047,42.25z"></path></svg>