<svg xmlns="http://www.w3.org/2000/svg" version="1" viewBox="0 0 24 24" enable-background="new 0 0 24 24">    <path d="M 12 2 C 6.5 2 2 6.5 2 12 C 2 17.5 6.5 22 12 22 C 17.5 22 22 17.5 22 12 C 22 6.5 17.5 2 12 2 z M 9.0625 4.5625 L 12 5.8125 L 14.9375 4.5625 C 16.16314 5.0521317 17.251109 5.8213421 18.09375 6.8125 C 18.098905 6.8185639 18.088612 6.8376707 18.09375 6.84375 L 17.90625 10.09375 L 19.96875 12.46875 C 19.888024 13.835539 19.46893 15.118354 18.78125 16.21875 L 15.59375 17 L 14 19.71875 C 13.356768 19.886897 12.694028 20 12 20 C 11.305972 20 10.643232 19.886897 10 19.71875 L 8.40625 17 L 5.21875 16.21875 C 4.5310697 15.118354 4.111976 13.835539 4.03125 12.46875 L 6.09375 10.09375 L 5.90625 6.8125 C 6.7488912 5.8213421 7.8368605 5.0521317 9.0625 4.5625 z M 12 8.1875 L 8 11.09375 L 9.59375 15.8125 L 14.40625 15.8125 L 16 11.09375 L 12 8.1875 z"></path></svg>