<svg xmlns="http://www.w3.org/2000/svg" width="50" height="50" viewBox="0 0 50 50">    <path d="M 24 0 L 24 8.25 C 24.326517 8.4330036 24.654122 8.6092917 24.96875 8.8125 C 24.980778 8.8202688 24.987996 8.8359435 25 8.84375 C 25.326 8.63175 25.661 8.439 26 8.25 C 28.608142 6.7896258 31.56796 6 34.59375 6 C 35.47875 6 36.3375 6.09275 37.1875 6.21875 C 38.3145 3.67275 38.491 1.2135 38.5 1.0625 C 38.517 0.7875 38.3775 0.5135 38.1875 0.3125 C 37.9985 0.1115 37.7135 0 37.4375 0 C 36.8595 0 31.6975 0.10225 28.3125 3.28125 C 27.299065 4.2330761 26.569134 5.3195378 26 6.40625 L 26 0 L 24 0 z M 15.40625 8 C 6.91425 8 1.1842379e-15 14.76775 0 23.09375 C 0 38.06475 14.4935 50 20.1875 50 C 21.8555 50 23.481 49.61575 25 48.84375 C 26.52 49.61575 28.1445 50 29.8125 50 C 35.9825 50 50 39.83075 50 23.09375 C 50 14.76775 43.08575 8 34.59375 8 C 31.08775 8 27.718 9.1785 25 11.3125 C 22.282 9.1785 18.91225 8 15.40625 8 z M 21 23.96875 C 21.1625 23.96875 21.30625 24.0375 21.40625 24.1875 C 22.00625 24.8875 23 26.4 23 28 C 23 29.6 22 31.1125 21.5 31.8125 C 21.2 32.1125 20.79375 32.1125 20.59375 31.8125 C 19.99375 31.1125 19 29.6 19 28 C 19 26.4 20 24.8875 20.5 24.1875 C 20.65 24.0375 20.8375 23.96875 21 23.96875 z M 30 23.96875 C 30.1625 23.96875 30.30625 24.0375 30.40625 24.1875 C 31.00625 24.8875 32 26.4 32 28 C 32 29.6 31 31.1125 30.5 31.8125 C 30.2 32.1125 29.79375 32.1125 29.59375 31.8125 C 28.99375 31.1125 28 29.6 28 28 C 28 26.4 29 24.8875 29.5 24.1875 C 29.65 24.0375 29.8375 23.96875 30 23.96875 z"></path></svg>