<svg xmlns="http://www.w3.org/2000/svg" version="1" viewBox="0 0 24 24" enable-background="new 0 0 24 24">    <path style="text-indent:0;text-align:start;line-height:normal;text-transform:none;block-progression:tb;-inkscape-font-specification:Bitstream Vera Sans" d="M 6.375 2 L 6.09375 2.5625 C 6.09375 2.5625 5 4.7786962 5 8.09375 C 5 9.8588038 5.5691519 11.268293 6.0625 12.625 C 6.5558481 13.981707 7 15.300102 7 17.1875 C 7 17.26318 6.908733 17.793728 6.8125 18.28125 C 6.81004 18.29189 6.81483 18.30185 6.8125 18.3125 C 6.3944755 20.218928 7.9320277 22.14548 9.96875 22 L 10 22 L 10.03125 22 C 10.739655 21.911449 11.6 21.90625 12 21.90625 C 12.4 21.90625 13.260345 21.91145 13.96875 22 L 14 22 L 14.03125 22 C 16.024168 22.153301 17.616169 20.265397 17.1875 18.3125 C 17.1848 18.29899 17.1902 18.29479 17.1875 18.28125 C 17.091267 17.793728 17 17.263176 17 17.1875 C 17 15.300102 17.444644 13.930177 17.9375 12.5625 C 18.430356 11.194823 19 9.8159722 19 8.09375 C 19 4.8715278 17.90625 2.5625 17.90625 2.5625 L 17.625 2 L 17 2 L 7 2 L 6.375 2 z M 7.6875 4 L 16.3125 4 C 16.509666 4.4993556 16.852154 5.4914666 16.96875 7 L 14.5 7 C 14 7 15 10 15 10.5 C 15 11.3 14.3 12 13.5 12 C 12.7 12 12 11.3 12 10.5 C 12 10 13 7 12.5 7 L 8.6875 7 L 8.6875 8.09375 C 8.6875 11.19375 10.6875 13.0875 10.6875 17.1875 C 10.6875 17.4875 10.6 18 10.5 18.5 C 10.35976 19.014212 10.462198 19.515225 10.6875 19.9375 C 10.408238 19.951364 10.136786 19.965527 9.84375 20 C 9.091845 20.05371 8.6235768 19.402001 8.78125 18.71875 L 8.78125 18.6875 C 8.88125 18.1875 9 17.709722 9 17.1875 C 9 14.974898 8.4441519 13.330793 7.9375 11.9375 C 7.4308481 10.544207 7 9.4286962 7 8.09375 C 7 5.8608807 7.4452927 4.5927977 7.6875 4 z" color="#000" overflow="visible" enable-background="accumulate" font-family="Bitstream Vera Sans"></path></svg>