<svg xmlns="http://www.w3.org/2000/svg" viewBox="0 0 24 24" enable-background="new 0 0 24 24">    <path d="M 5 3 C 3.9 3 3 3.9 3 5 L 3 19 C 3 20.1 3.9 21 5 21 L 15.8125 21 L 15.5 19 L 11 19 L 11 11 L 14.59375 11 L 14.40625 9 L 11 9 L 11 5 L 19 5 L 19 7 L 21 11.90625 L 21 5 C 21 3.9 20.1 3 19 3 L 5 3 z M 5 5 L 9 5 L 9 9 L 5 9 L 5 5 z M 17.40625 5.6875 L 16.5 6.09375 L 22.09375 22.40625 C 22.19375 22.80625 22.6125 23.10625 23.3125 22.90625 C 24.0125 22.60625 24.00625 21.9875 23.90625 21.6875 L 17.40625 5.6875 z M 16 5.90625 L 15 6.09375 L 17.09375 23.40625 C 17.19375 23.80625 17.3875 24.19375 18.1875 24.09375 C 18.9875 23.89375 19 23.4 19 23 L 16 5.90625 z M 5 11 L 9 11 L 9 14 L 5 14 L 5 11 z M 5 16 L 9 16 L 9 19 L 5 19 L 5 16 z"></path></svg>