<svg xmlns="http://www.w3.org/2000/svg" version="1" viewBox="0 0 24 24" enable-background="new 0 0 24 24">    <path style="text-indent:0;text-align:start;line-height:normal;text-transform:none;block-progression:tb;-inkscape-font-specification:Bitstream Vera Sans" d="M 12 1.5 C 12 1.5 10.5 3.7 10.5 4.5 C 10.5 5.3 11.2 6 12 6 C 12.8 6 13.5 5.3 13.5 4.5 C 13.5 3.7 12 1.5 12 1.5 z M 10 7 L 10 10 L 6 10 C 3.8 10 2 11.8 2 14 C 2 14.997934 2.3899359 15.89109 3 16.59375 L 3 22 L 21 22 L 21 16.59375 C 21.610064 15.89109 22 14.997934 22 14 C 22 11.8 20.2 10 18 10 L 14 10 L 14 7 L 10 7 z M 6 12 L 18 12 C 19.1 12 20 12.9 20 14 C 20 15.1 19.1 16 18 16 C 15.8 16 15 14 15 14 C 15 14 14 16 12 16 C 10 16 9 14 9 14 C 9 14 8.2 16 6 16 C 4.9 16 4 15.1 4 14 C 4 12.9 4.9 12 6 12 z" color="#000" overflow="visible" enable-background="accumulate" font-family="Bitstream Vera Sans"></path></svg>