<svg xmlns="http://www.w3.org/2000/svg" width="26" height="26" viewBox="0 0 26 26">    <path d="M19.673,12.795c1.538-1.537,6.217-6.623,6.217-6.623s-0.332-0.507-1.135-1.43l-5.157,5.155 c-0.289,0.289-0.753,0.289-1.038,0.002c-0.288-0.287-0.288-0.751,0.001-1.04l5.204-5.204c-0.205-0.217-0.43-0.444-0.67-0.688 c-0.268-0.267-0.518-0.507-0.752-0.731l-5.157,5.157c-0.289,0.287-0.751,0.287-1.036,0c-0.288-0.288-0.29-0.751-0.002-1.038 l5.107-5.106c-0.904-0.785-1.409-1.124-1.409-1.124s-4.302,3.863-6.641,6.201c-2.609,2.609-0.242,5.012-1.27,6.038 c-1.026,1.024-5.729,4.835-8.13,7.239c-4.405,4.402-3.927,5.087-3.213,5.802c0.714,0.718,1.399,1.192,5.803-3.212 c2.402-2.401,6.212-7.102,7.237-8.128C14.659,13.037,17.026,15.439,19.673,12.795z"></path></svg>