<svg xmlns="http://www.w3.org/2000/svg" width="50" height="50" viewBox="0 0 50 50">    <path d="M 25 0 C 21.024 0 17 1.374 17 4 L 17 7 L 17 10 L 33 10 L 33 7 L 33 4 C 33 1.374 28.976 0 25 0 z M 17 12 L 17 14 C 17 17.277 15.25175 19.7895 13.21875 22.6875 C 10.77575 26.1725 8 30.0995 8 36.1875 C 8 42.0755 12.95375 47.053 17.59375 49.75 C 17.74575 49.84 17.91675 49.90625 18.09375 49.90625 L 31.8125 49.90625 C 31.9855 49.90625 32.13125 49.86725 32.28125 49.78125 C 36.92525 47.14425 41.90625 42.1685 41.90625 36.1875 C 41.90625 30.0185 39.15175 26.0675 36.71875 22.5625 C 34.72775 19.6955 33 17.212 33 14 L 33 12 L 17 12 z M 20 26.5 L 26.5 26.5 C 28 26.5 29.20625 26.8875 29.90625 27.6875 C 30.70625 28.4875 31.09375 29.6 31.09375 31 C 31.09375 32.4 30.70625 33.5125 29.90625 34.3125 C 29.10525 35.1125 28 35.5 26.5 35.5 L 22 35.5 L 22 41.59375 L 20 41.59375 L 20 26.5 z M 22 28.09375 L 22 33.59375 L 25.90625 33.59375 C 27.00625 33.59375 27.90625 33.40625 28.40625 32.90625 C 28.90625 32.40625 29.1875 31.7135 29.1875 30.8125 C 29.1875 29.9135 28.90625 29.2125 28.40625 28.8125 C 27.90625 28.3125 27.00625 28.09375 25.90625 28.09375 L 22 28.09375 z"></path></svg>