<svg xmlns="http://www.w3.org/2000/svg" width="50" height="50" viewBox="0 0 50 50">    <path d="M 20.84375 0.03125 C 20.192666 0.071386719 19.6525 0.425 19.21875 1.53125 C 18.98875 2.11725 18.49925 3.5585 18.03125 4.9375 C 17.79425 5.6355 17.57225 6.275 17.40625 6.75 C 17.38925 6.798 17.41525 6.85725 17.40625 6.90625 C 17.39725 6.92625 17.35175 6.94875 17.34375 6.96875 L 17.25 7.25 C 18.566 7.655 19.541 8.05875 19.625 8.09375 C 22.596 9.21875 28.35125 11.84925 33.28125 16.78125 C 38.50025 22.00025 41.18475 28.26375 42.09375 30.71875 C 42.11175 30.76175 42.374 31.53675 42.75 32.84375 C 42.756 32.84175 42.77625 32.84575 42.78125 32.84375 C 43.34225 32.66475 44.9545 32.094 46.3125 31.625 C 47.1075 31.352 47.80925 31.116 48.15625 31 C 49.00525 30.716 49.5415 30.2915 49.8125 29.6875 C 50.0725 29.1085 50.067 28.4315 49.75 27.6875 C 49.606 27.3495 49.443 26.9195 49.25 26.4375 C 47.877 23.0075 45.00675 15.88275 39.59375 10.46875 C 33.61275 4.48575 25.794 1.21175 22.125 0.21875 C 21.648375 0.0905 21.2344 0.0071679688 20.84375 0.03125 z M 16.46875 9.09375 L 0.0625 48.625 C -0.0925 48.998 -0.00375 49.43275 0.28125 49.71875 C 0.47325 49.90975 0.74 50 1 50 C 1.129 50 1.252 49.9895 1.375 49.9375 L 40.90625 33.59375 C 40.52525 32.24175 40.22375 31.4505 40.21875 31.4375 C 39.34975 29.0885 36.815 23.1275 31.875 18.1875 C 27.035 13.3455 21.167 10.8055 18.875 9.9375 C 18.842 9.9245 17.81075 9.50175 16.46875 9.09375 z M 17 16 C 19.762 16 22 18.237 22 21 C 22 23.763 19.762 26 17 26 C 15.142 26 13.5495 24.97275 12.6875 23.46875 L 15.6875 16.1875 C 16.1025 16.0755 16.55 16 17 16 z M 31 22 C 32.656 22 34 23.343 34 25 C 34 25.917 33.5855 26.73125 32.9375 27.28125 L 32.90625 27.28125 C 33.57125 27.99525 34 28.948 34 30 C 34 32.209 32.209 34 30 34 C 27.791 34 26 32.209 26 30 C 26 28.36 26.99425 26.96075 28.40625 26.34375 L 28.3125 26.3125 C 28.1175 25.9165 28 25.473 28 25 C 28 23.343 29.344 22 31 22 z M 21 32 C 23.209 32 25 33.791 25 36 C 25 36.857 24.71 37.6605 24.25 38.3125 L 20.3125 39.9375 C 18.4305 39.6105 17 37.976 17 36 C 17 33.791 18.791 32 21 32 z M 9 34 C 10.656 34 12 35.343 12 37 C 12 38.657 10.656 40 9 40 C 7.902 40 6.9605 39.41225 6.4375 38.53125 L 8.25 34.09375 C 8.487 34.03275 8.744 34 9 34 z"></path></svg>