<svg xmlns="http://www.w3.org/2000/svg" viewBox="12 -12 50 50" enable-background="new 12 -12 50 50">    <path style="text-indent:0;text-align:start;line-height:normal;text-transform:none;block-progression:tb;-inkscape-font-specification:Bitstream Vera Sans" d="M 25 5 C 23.064706 5 21.221981 5.6919774 19.75 6.9375 C 19.025255 7.5817181 18.04359 8 17 8 C 13.686207 8 10.847431 10.056974 9.59375 12.90625 C 9.316569 13.529908 8.727651 14.004967 8.1875 14.125 A 1.0001 1.0001 0 0 0 8.15625 14.125 C 4.334968 15.024125 2 18.29596 2 22 C 2 22.375672 2.0047 22.887901 2.125 23.4375 C 2.1328 23.47309 2.116 23.49535 2.125 23.53125 C 2.269325 24.593395 2.10035 25.56988 1.53125 26.28125 A 1.0001 1.0001 0 0 0 1.5 26.3125 C 0.247317 28.020705 -0.324405 30.234372 0.125 32.59375 A 1.0001 1.0001 0 0 0 0.125 32.625 C 0.43678469 33.976066 1.0931177 35.263282 2 36.28125 L 2 40 C 2 42.2 3.8 44 6 44 L 44 44 C 46.2 44 48 42.2 48 40 L 48 36.28125 C 49.194737 34.861785 50 33.031747 50 31 C 50 29.191667 49.423583 27.543944 48.40625 26.1875 A 1.0001 1.0001 0 0 0 48.375 26.1875 C 47.788311 25.454138 47.629741 24.500289 47.875 23.4375 L 47.84375 23.4375 C 48.008252 22.871788 48 22.375763 48 22 C 48 18.310099 45.657433 15.16831 42.0625 14.25 C 42.047782 14.245986 42.045784 14.222913 42.03125 14.21875 C 41.242505 13.992847 40.695052 13.543757 40.3125 12.8125 C 40.303118 12.791178 40.290804 12.771223 40.28125 12.75 C 39.019268 9.9466596 36.266079 8 33 8 C 31.95641 8 30.974745 7.5817181 30.25 6.9375 C 28.778019 5.6919774 26.935294 5 25 5 z M 25 7 C 26.450286 7 27.81605 7.5011116 28.9375 8.4375 C 28.94814 8.44696 28.95804 8.459361 28.96875 8.46875 C 30.040345 9.4080144 31.458993 10 33 10 C 35.509195 10 37.548643 11.431574 38.5 13.59375 A 1.0001 1.0001 0 0 0 38.5 13.65625 C 39.107331 14.870912 40.169032 15.784736 41.53125 16.15625 A 1.0001 1.0001 0 0 0 41.5625 16.15625 C 44.344007 16.851627 46 19.10404 46 22 C 46 22.4 45.93209 22.891228 45.9375 22.875 A 1.0001 1.0001 0 0 0 45.9375 22.96875 C 45.746691 23.795588 45.72651 24.652018 45.90625 25.46875 C 42.27951 17.531471 34.294849 12 25 12 C 15.621789 12 7.5796992 17.635486 4 25.6875 C 4.2160019 24.862867 4.2223872 23.992393 4.09375 23.15625 A 1.0001 1.0001 0 0 0 4.0625 23.0625 C 4.010056 22.852724 4 22.4 4 22 C 4 19.10404 5.646282 16.763375 8.625 16.0625 C 9.884849 15.782533 10.883431 14.895092 11.40625 13.71875 A 1.0001 1.0001 0 0 0 11.40625 13.6875 C 12.352569 11.536776 14.513793 10 17 10 C 18.541007 10 19.959655 9.4080144 21.03125 8.46875 C 21.04196 8.45936 21.05186 8.446959 21.0625 8.4375 C 22.18395 7.5011116 23.549714 7 25 7 z M 3.4375 27 C 2.8016702 28.7128 2.3677489 30.528905 2.15625 32.40625 C 2.1385862 32.342282 2.1089876 32.282537 2.09375 32.21875 C 1.745246 30.389104 2.15826 28.818865 3.09375 27.53125 C 3.09935 27.52355 3.08815 27.5077 3.09375 27.5 C 3.2184324 27.342118 3.3361548 27.167313 3.4375 27 z M 15 27 C 16.1 27 17 27.9 17 29 C 17 30.1 16.1 31 15 31 C 13.9 31 13 30.1 13 29 C 13 27.9 13.9 27 15 27 z M 46.59375 27.09375 C 46.662759 27.197519 46.734097 27.306963 46.8125 27.40625 C 46.8183 27.41395 46.8068 27.42979 46.8125 27.4375 C 47.584042 28.47514 48 29.618598 48 31 C 48 31.449483 47.943637 31.891377 47.84375 32.3125 C 47.632422 30.502515 47.200502 28.750465 46.59375 27.09375 z M 10.09375 31.3125 C 11.19375 31.3125 12.09375 32.2125 12.09375 33.3125 C 12.09375 34.4125 11.19375 35.3125 10.09375 35.3125 C 8.99375 35.3125 8.09375 34.4125 8.09375 33.3125 C 8.09375 32.2125 8.99375 31.3125 10.09375 31.3125 z M 16 34 C 17.1 34 18 34.9 18 36 C 18 37.1 17.1 38 16 38 C 14.9 38 14 37.1 14 36 C 14 34.9 14.9 34 16 34 z" transform="translate(12 -12)" color="#000" overflow="visible" enable-background="accumulate" font-family="Bitstream Vera Sans"></path></svg>