<svg xmlns="http://www.w3.org/2000/svg" width="24" height="24" viewBox="0 0 24 24">    <path d="M 12 0 C 8.6 0 6.90625 5.59375 6.90625 5.59375 L 6.09375 5.59375 C 4.49375 5.59375 0.99375 5.90625 0.09375 8.90625 C -1.00625 12.80625 3.6875 15.59375 3.6875 15.59375 C 3.6875 15.59375 1.7875 20.6875 4.6875 23.1875 C 5.3875 23.7875 6.2 24 7 24 C 9.5 24 12.09375 21.8125 12.09375 21.8125 C 12.09375 21.8125 14.80625 23.8125 17.40625 23.8125 C 18.10625 23.8125 18.80625 23.5875 19.40625 23.1875 C 22.20625 21.2875 20.40625 15.59375 20.40625 15.59375 C 20.40625 15.59375 24.9 12.40625 24 8.90625 C 23.2 5.80625 18.5 5.59375 17.5 5.59375 L 17.3125 5.59375 C 17.3125 5.59375 15.5 0 12 0 z M 12 2 C 13.5 2 14.7875 4.79375 15.1875 6.09375 L 15.59375 7.59375 L 17.09375 7.5 L 17.1875 7.5 C 18.5875 7.5 21.4125 7.9125 21.8125 9.3125 C 22.3125 11.1125 19.9 13.30625 19 13.90625 L 18 14.8125 L 18.40625 16.1875 C 19.00625 17.9875 19.1875 20.9 18.1875 21.5 C 17.9875 21.7 17.7125 21.6875 17.3125 21.6875 C 15.8125 21.6875 13.7875 20.49375 13.1875 20.09375 L 11.90625 19.1875 L 10.6875 20.1875 C 10.0875 20.7875 8.3 22 7 22 C 6.6 22 6.3 21.8875 6 21.6875 C 4.5 20.4875 5.19375 17.3125 5.59375 16.3125 L 6.1875 14.8125 L 4.8125 13.90625 C 4.8125 13.90625 1.49375 11.70625 2.09375 9.40625 C 2.59375 7.70625 5.09375 7.5 6.09375 7.5 L 6.59375 7.5 L 8.1875 7.6875 L 8.6875 6.09375 C 9.1875 4.79375 10.6 2 12 2 z M 12 8.1875 C 10.6 8.1875 11.6875 12.09375 11.6875 12.09375 C 11.6875 12.09375 8.59375 9.69375 8.09375 11.09375 C 7.59375 12.49375 11.59375 12.5 11.59375 12.5 C 11.59375 12.5 8.59375 14.9125 9.59375 15.8125 C 10.59375 16.7125 12 12.8125 12 12.8125 C 12 12.8125 13.3125 16.6875 14.3125 15.6875 C 15.4125 14.6875 12.3125 12.40625 12.3125 12.40625 C 12.3125 12.40625 16.3125 12.4 15.8125 11 C 15.3125 9.7 12.1875 12 12.1875 12 C 12.1875 12 13.4 8.1875 12 8.1875 z"></path></svg>