<svg xmlns="http://www.w3.org/2000/svg" width="50" height="50" viewBox="0 0 50 50">    <path d="M44.979,1.646c-0.219-0.311-0.596-0.478-0.97-0.424c-0.377,0.05-0.695,0.306-0.825,0.664 c-1.47,4.049-2.364,4.469-4.526,5.483c-1.096,0.514-2.459,1.153-4.238,2.4c-3.292,2.307-4.76,5.597-5.73,7.774 c-0.269,0.602-0.596,1.337-0.792,1.592c-8.804,1.775-11.595,7.592-12.94,10.396c-0.167,0.35-0.367,0.766-0.503,0.992 C9.431,31.17,3.161,34.182,1.001,44.627c-0.067,0.326,0.028,0.664,0.256,0.906c1.539,1.637,6.091,3.403,10.761,3.404c0,0,0,0,0,0 c4.009,0,7.562-1.256,10.301-3.637c6.503-0.264,15.912-6.863,17.7-13.979c4.249-2.861,7.288-7.6,8.366-13.069 C49.537,12.411,48.295,6.358,44.979,1.646z M16.38,43.021c-2.072,1.446-6.863,1.58-8.129-0.107 c-1.283-1.711,0.207-4.264,2.276-5.715c2.072-1.449,5.829-1.901,7.029-0.168C18.759,38.764,18.449,41.57,16.38,43.021z M31.061,35.084c-1.951,2.826-6.211,3.359-8.552,1.734c-2.345-1.635-1.878-4.813,0.073-7.641c1.955-2.826,6.078-4.734,8.417-3.105 C33.341,27.704,33.014,32.255,31.061,35.084z M42.574,20.292c-1.313,2.436-4.637,3.268-6.616,2.193 c-1.983-1.076-1.873-3.653-0.562-6.09c1.311-2.438,4.416-4.348,6.397-3.273C43.773,14.2,43.884,17.853,42.574,20.292z"></path></svg>