<svg xmlns="http://www.w3.org/2000/svg" width="24" height="24" viewBox="0 0 24 24">    <path d="M16.5,17c-1.6,0-2.5,0.5-2.5,2.2c0,1.1,1.4,2,2.4,1.6c0.1,0,0.2-0.2,0.1-0.2c-0.7-0.1-1.5-0.6-1.5-1.4c0-0.9,1-1.2,1.7-1.2 c0.7,0,1.7,0.6,1.7,1.9c0,1.3-1.5,2.4-2.7,2.4c-1.2,0-2.7-0.6-2.7-3.4c0-3.9,4.1-2.4,4.1-7c0-3.8-7.2-4.5-7.2-7.1 C10,5.3,11,6,11.9,6.3c1.5,0.5,3.3-0.2,4.7,1.1C17,7.8,18.5,6,17.7,5.2c0,0-2.3-0.3-3.2-2.1c-0.1-0.2-0.3-0.9,0.3-1.6 c0.2-0.2,0-0.3-0.1-0.3c-0.7,0-1.3,0.4-1.5,0.6c-0.4-0.3-1.1-1.8-1.1-1.8S6.1,0.2,6.1,4.9c0,2.6,1.2,4.8,1.2,5.1 c-0.5,0.2-2-1.3-2.6-1.8C4.5,8,4.2,8,3.9,8.1C3.6,8.4,3,8.9,3,11.9c0,2.5,2.5,4.8,3.1,5.1c0.2,0.1,0.6,0,0.6-0.2 c0.3-0.9,0.9-3.9,1.9-3.9C9.4,13.9,9,14,9,18.4c0,4.1,2.7,5.6,6.3,5.6c3.3,0,4.7-2.2,4.7-4C20,18.1,18.1,17,16.5,17z M13,3.5 c0.3,0,0.5,0.2,0.5,0.5c0,0.3-0.2,0.5-0.5,0.5c-0.3,0-0.5-0.2-0.5-0.5C12.5,3.7,12.7,3.5,13,3.5z"></path></svg>