<svg xmlns="http://www.w3.org/2000/svg" viewBox="0 0 24 24" enable-background="new 0 0 24 24">    <path d="M 12.8125 10.40625 C 11.9895 10.38925 11.99925 11.514 12.78125 11.625 C 13.364791 11.707721 14.698068 11.923387 15 11.96875 C 14.999683 11.978645 15 11.99006 15 12 C 10.969 12 9 15 9 15 C 9 15 9.0395 14.4385 8.0625 14.4375 C 5.1625 14.4375 3.78075 13.3215 3.71875 15.0625 C 0.95075 15.0625 0.20375 16.71725 0.71875 17.28125 C 0.8410507 17.28125 0.9452011 17.278803 1.0625 17.28125 C 0.40346218 17.99436 0 18.952516 0 20 C 0 22.209 1.791 24 4 24 C 5.9538363 24 7.5564871 22.60222 7.90625 20.75 L 8.0625 20.75 C 8.5057492 20.90743 9.0139865 21 9.625 21 L 12.625 21 C 13.539 21 14.8165 20.66825 15.1875 19.03125 L 16 14.6875 L 17.375 17 C 16.535008 17.733285 16 18.79749 16 20 C 16 22.209 17.791 24 20 24 C 22.209 24 24 22.209 24 20 C 24 17.791 22.209 16 20 16 C 19.538761 16 19.099793 16.106333 18.6875 16.25 L 17.0625 13.46875 C 17.194493 13.482079 17.330501 13.5 17.46875 13.5 C 18.73475 13.5 18.75 13.501 18.75 12 C 18.75 10.501 18.72375 10.5 17.46875 10.5 C 16.562249 10.5 15.770472 10.805149 15.34375 11.25 C 15.03546 11.135916 13.091234 10.411806 12.8125 10.40625 z M 20 17.5 C 21.378 17.5 22.5 18.622 22.5 20 C 22.5 21.378 21.378 22.5 20 22.5 C 18.622 22.5 17.5 21.378 17.5 20 C 17.5 19.35234 17.750461 18.757148 18.15625 18.3125 L 19.34375 20.375 A 0.75583666 0.75583666 0 1 0 20.65625 19.625 L 19.46875 17.5625 C 19.640667 17.524964 19.817029 17.5 20 17.5 z M 3.46875 17.5625 C 3.4787559 17.564722 3.4900576 17.560256 3.5 17.5625 C 3.9794933 17.670726 4.3757927 17.822625 4.71875 17.96875 L 3.5625 19.34375 A 0.75405803 0.75405803 0 0 0 3.75 20.71875 A 0.7564824 0.7564824 0 0 0 4.03125 20.75 L 6.375 20.75 C 6.0533693 21.759377 5.1142645 22.5 4 22.5 C 2.622 22.5 1.5 21.378 1.5 20 C 1.5 18.804971 2.3459183 17.807655 3.46875 17.5625 z M 6 18.75 C 6.1574092 18.901352 6.2627853 19.068437 6.34375 19.1875 C 6.3691612 19.224869 6.3556916 19.217471 6.375 19.25 L 5.59375 19.25 L 6 18.75 z"></path></svg>