<svg xmlns="http://www.w3.org/2000/svg" width="50" height="50" viewBox="0 0 50 50">    <path d="M 5.96875 5 C 4.33275 5 3 6.354 3 8 L 3 24.40625 C 2.606 24.68125 2.21375 24.97025 1.84375 25.28125 C 1.39975 25.65525 1.34475 26.33725 1.71875 26.78125 C 2.09275 27.22625 2.77475 27.27925 3.21875 26.90625 C 5.75675 24.77125 8.96425 23.59375 12.28125 23.59375 C 20.06625 23.59375 26.40625 29.93275 26.40625 37.71875 C 26.40625 38.29975 26.88775 38.75 27.46875 38.75 C 28.04975 38.75 28.5 38.29975 28.5 37.71875 C 28.5 37.47875 28.47975 37.237 28.46875 37 L 42.96875 37 C 44.48275 37 46.42975 35.604 46.96875 34.125 L 49.875 26.1875 C 50.126 25.4985 50.034 24.80475 49.625 24.21875 C 49.111 23.48375 48.1065 23 47.0625 23 L 28.78125 23 L 24.65625 7.78125 C 24.29325 6.06725 23.1395 5 21.6875 5 L 5.96875 5 z M 41 9.9375 C 36.584 9.9375 33.9375 12.5055 33.9375 16.8125 L 33.9375 21 L 40.0625 21 L 40.0625 17 C 40.0625 14.655 40.7465 14.0895 40.9375 14.0625 C 41.2275 14.0805 41.50375 13.98025 41.71875 13.78125 C 41.93275 13.58225 42.0625 13.292 42.0625 13 L 42.0625 11 C 42.0625 10.419 41.581 9.9375 41 9.9375 z M 8 10 L 20.46875 10 L 22.90625 19 L 8 19 L 8 10 z M 12 26 C 5.383 26 0 31.383 0 38 C 0 44.617 5.383 50 12 50 C 18.617 50 24 44.617 24 38 C 24 31.383 18.617 26 12 26 z M 12 33.5 C 14.482 33.5 16.5 35.52 16.5 38 C 16.5 40.48 14.482 42.5 12 42.5 C 9.518 42.5 7.5 40.48 7.5 38 C 7.5 35.52 9.518 33.5 12 33.5 z M 45.96875 38.09375 C 45.02175 38.65775 43.96075 39 42.96875 39 L 41.625 39 C 42.465 39.733 43 40.801 43 42 C 43 44.205 41.204 46 39 46 C 36.795 46 35 44.205 35 42 C 35 40.801 35.535 39.733 36.375 39 L 31.59375 39 C 31.21275 39.939 31 40.951 31 42 C 31 46.411 34.589 50 39 50 C 43.411 50 47 46.411 47 42 C 47 40.609 46.63575 39.27775 45.96875 38.09375 z"></path></svg>