<svg xmlns="http://www.w3.org/2000/svg" width="26" height="26" viewBox="0 0 26 26">    <path d="M 2.3125 9 C 1.9995 9 1.9685 9.09375 2.1875 9.34375 C 2.3433037 9.5218113 5.1060499 11.994101 5.78125 12.59375 C 5.3812892 13.471184 4.9583357 14.491354 4.875 15.03125 C 4.977 14.99425 19.4375 11.40625 19.4375 11.40625 C 19.4375 11.40625 14.944 9.81975 13 10.09375 C 11.830527 10.259026 8.988209 10.625544 7.46875 10.9375 C 6.1977896 10.218682 4.6968148 9.3488591 4.5 9.21875 C 4.202 9.02175 4.17275 9 3.84375 9 L 2.3125 9 z M 25.375 11.0625 C 25.375 11.0625 9.12725 15.1145 6.15625 15.9375 C 2.9287466 16.832571 1.1601449 19.692903 1.0625 21.09375 C 1.0431571 21.093987 1.0188928 21.09375 1 21.09375 C 0.626 21.09375 0.301 21.047 0 21 L 0 22.875 C 0.291 22.906 0.619 22.90625 1 22.90625 C 2.734 22.90625 3.369 22.496 4 22 C 4.887 22.698 6.167 22.90625 7 22.90625 C 7.833 22.90625 9.113 22.698 10 22 C 10.887 22.698 12.167 22.90625 13 22.90625 C 13.833 22.90625 15.113 22.698 16 22 C 16.887 22.698 18.167 22.90625 19 22.90625 C 19.833 22.90625 21.113 22.698 22 22 C 22.887 22.698 24.167 22.90625 25 22.90625 C 25.414 22.90625 25.736 22.837 26 22.75 L 26 20.9375 C 25.732 21.0315 25.409 21.09375 25 21.09375 C 24.167 21.09375 22.887 20.85425 22 20.15625 C 21.25428 20.743074 20.239619 20.996276 19.4375 21.0625 C 21.765245 19.177589 24.214271 14.806985 25.84375 11.9375 C 26.22475 11.2645 25.785 10.9725 25.375 11.0625 z M 15.125 15.875 C 15.666 15.761 16.1975 16.11525 16.3125 16.65625 C 16.4265 17.19625 16.07125 17.73075 15.53125 17.84375 C 14.99025 17.95675 14.45675 17.6025 14.34375 17.0625 C 14.23075 16.5215 14.583 15.987 15.125 15.875 z M 11.21875 16.6875 C 11.75875 16.5745 12.29225 16.92875 12.40625 17.46875 C 12.52025 18.00875 12.165 18.54425 11.625 18.65625 C 11.082 18.77025 10.5515 18.416 10.4375 17.875 C 10.3235 17.334 10.67775 16.8025 11.21875 16.6875 z M 7.28125 17.53125 C 7.82225 17.41825 8.35475 17.74025 8.46875 18.28125 C 8.58175 18.82225 8.25775 19.35475 7.71875 19.46875 C 7.17675 19.58175 6.64325 19.25875 6.53125 18.71875 C 6.41825 18.17775 6.73925 17.64525 7.28125 17.53125 z M 4 23.15625 C 3.113 23.85425 1.833 24.09375 1 24.09375 C 0.626 24.09375 0.301 24.047 0 24 L 0 25.875 C 0.291 25.906 0.619 25.90625 1 25.90625 C 2.734 25.90625 3.369 25.496 4 25 C 4.887 25.698 6.167 25.90625 7 25.90625 C 7.833 25.90625 9.113 25.698 10 25 C 10.887 25.698 12.167 25.90625 13 25.90625 C 13.833 25.90625 15.113 25.698 16 25 C 16.887 25.698 18.167 25.90625 19 25.90625 C 19.833 25.90625 21.113 25.698 22 25 C 22.887 25.698 24.167 25.90625 25 25.90625 C 25.414 25.90625 25.736 25.837 26 25.75 L 26 23.9375 C 25.732 24.0315 25.409 24.09375 25 24.09375 C 24.167 24.09375 22.887 23.85425 22 23.15625 C 21.113 23.85425 19.833 24.09375 19 24.09375 C 18.167 24.09375 16.887 23.85425 16 23.15625 C 15.113 23.85425 13.833 24.09375 13 24.09375 C 12.167 24.09375 10.887 23.85425 10 23.15625 C 9.113 23.85425 7.833 24.09375 7 24.09375 C 6.167 24.09375 4.887 23.85425 4 23.15625 z M 902 1469 L 902 1471 L 928 1471 L 928 1469 L 902 1469 z M 906 1474 L 906 1476 L 924 1476 L 924 1474 L 906 1474 z M 902 1479 L 902 1481 L 928 1481 L 928 1479 L 902 1479 z M 906 1484 L 906 1486 L 924 1486 L 924 1484 L 906 1484 z M 902 1489 L 902 1491 L 928 1491 L 928 1489 L 902 1489 z"></path></svg>